G75*
%MOIN*%
%OFA0B0*%
%FSLAX24Y24*%
%IPPOS*%
%LPD*%
%AMOC8*
5,1,8,0,0,1.08239X$1,22.5*
%
%ADD10C,0.0000*%
%ADD11R,0.0906X0.0276*%
%ADD12OC8,0.0640*%
%ADD13C,0.0640*%
%ADD14R,0.0520X0.0920*%
%ADD15R,0.1457X0.0906*%
%ADD16R,0.0631X0.0552*%
%ADD17C,0.0480*%
%ADD18R,0.0500X0.0670*%
%ADD19C,0.0560*%
%ADD20R,0.0552X0.0631*%
%ADD21R,0.0060X0.0720*%
%ADD22C,0.1040*%
%ADD23R,0.0634X0.0634*%
%ADD24OC8,0.0634*%
%ADD25R,0.0670X0.0316*%
%ADD26R,0.0670X0.0591*%
%ADD27R,0.0906X0.0591*%
%ADD28R,0.0591X0.0749*%
%ADD29C,0.0394*%
%ADD30C,0.1306*%
%ADD31C,0.0900*%
D10*
X000160Y000550D02*
X000160Y014546D01*
X039280Y014546D01*
X039280Y000550D01*
X000160Y000550D01*
X000660Y001550D02*
X000662Y001594D01*
X000668Y001638D01*
X000678Y001681D01*
X000691Y001723D01*
X000708Y001764D01*
X000729Y001803D01*
X000753Y001840D01*
X000780Y001875D01*
X000810Y001907D01*
X000843Y001937D01*
X000879Y001963D01*
X000916Y001987D01*
X000956Y002006D01*
X000997Y002023D01*
X001040Y002035D01*
X001083Y002044D01*
X001127Y002049D01*
X001171Y002050D01*
X001215Y002047D01*
X001259Y002040D01*
X001302Y002029D01*
X001344Y002015D01*
X001384Y001997D01*
X001423Y001975D01*
X001459Y001951D01*
X001493Y001923D01*
X001525Y001892D01*
X001554Y001858D01*
X001580Y001822D01*
X001602Y001784D01*
X001621Y001744D01*
X001636Y001702D01*
X001648Y001660D01*
X001656Y001616D01*
X001660Y001572D01*
X001660Y001528D01*
X001656Y001484D01*
X001648Y001440D01*
X001636Y001398D01*
X001621Y001356D01*
X001602Y001316D01*
X001580Y001278D01*
X001554Y001242D01*
X001525Y001208D01*
X001493Y001177D01*
X001459Y001149D01*
X001423Y001125D01*
X001384Y001103D01*
X001344Y001085D01*
X001302Y001071D01*
X001259Y001060D01*
X001215Y001053D01*
X001171Y001050D01*
X001127Y001051D01*
X001083Y001056D01*
X001040Y001065D01*
X000997Y001077D01*
X000956Y001094D01*
X000916Y001113D01*
X000879Y001137D01*
X000843Y001163D01*
X000810Y001193D01*
X000780Y001225D01*
X000753Y001260D01*
X000729Y001297D01*
X000708Y001336D01*
X000691Y001377D01*
X000678Y001419D01*
X000668Y001462D01*
X000662Y001506D01*
X000660Y001550D01*
X001849Y006099D02*
X001851Y006125D01*
X001857Y006151D01*
X001867Y006176D01*
X001880Y006199D01*
X001896Y006219D01*
X001916Y006237D01*
X001938Y006252D01*
X001961Y006264D01*
X001987Y006272D01*
X002013Y006276D01*
X002039Y006276D01*
X002065Y006272D01*
X002091Y006264D01*
X002115Y006252D01*
X002136Y006237D01*
X002156Y006219D01*
X002172Y006199D01*
X002185Y006176D01*
X002195Y006151D01*
X002201Y006125D01*
X002203Y006099D01*
X002201Y006073D01*
X002195Y006047D01*
X002185Y006022D01*
X002172Y005999D01*
X002156Y005979D01*
X002136Y005961D01*
X002114Y005946D01*
X002091Y005934D01*
X002065Y005926D01*
X002039Y005922D01*
X002013Y005922D01*
X001987Y005926D01*
X001961Y005934D01*
X001937Y005946D01*
X001916Y005961D01*
X001896Y005979D01*
X001880Y005999D01*
X001867Y006022D01*
X001857Y006047D01*
X001851Y006073D01*
X001849Y006099D01*
X001849Y009249D02*
X001851Y009275D01*
X001857Y009301D01*
X001867Y009326D01*
X001880Y009349D01*
X001896Y009369D01*
X001916Y009387D01*
X001938Y009402D01*
X001961Y009414D01*
X001987Y009422D01*
X002013Y009426D01*
X002039Y009426D01*
X002065Y009422D01*
X002091Y009414D01*
X002115Y009402D01*
X002136Y009387D01*
X002156Y009369D01*
X002172Y009349D01*
X002185Y009326D01*
X002195Y009301D01*
X002201Y009275D01*
X002203Y009249D01*
X002201Y009223D01*
X002195Y009197D01*
X002185Y009172D01*
X002172Y009149D01*
X002156Y009129D01*
X002136Y009111D01*
X002114Y009096D01*
X002091Y009084D01*
X002065Y009076D01*
X002039Y009072D01*
X002013Y009072D01*
X001987Y009076D01*
X001961Y009084D01*
X001937Y009096D01*
X001916Y009111D01*
X001896Y009129D01*
X001880Y009149D01*
X001867Y009172D01*
X001857Y009197D01*
X001851Y009223D01*
X001849Y009249D01*
X000660Y013550D02*
X000662Y013594D01*
X000668Y013638D01*
X000678Y013681D01*
X000691Y013723D01*
X000708Y013764D01*
X000729Y013803D01*
X000753Y013840D01*
X000780Y013875D01*
X000810Y013907D01*
X000843Y013937D01*
X000879Y013963D01*
X000916Y013987D01*
X000956Y014006D01*
X000997Y014023D01*
X001040Y014035D01*
X001083Y014044D01*
X001127Y014049D01*
X001171Y014050D01*
X001215Y014047D01*
X001259Y014040D01*
X001302Y014029D01*
X001344Y014015D01*
X001384Y013997D01*
X001423Y013975D01*
X001459Y013951D01*
X001493Y013923D01*
X001525Y013892D01*
X001554Y013858D01*
X001580Y013822D01*
X001602Y013784D01*
X001621Y013744D01*
X001636Y013702D01*
X001648Y013660D01*
X001656Y013616D01*
X001660Y013572D01*
X001660Y013528D01*
X001656Y013484D01*
X001648Y013440D01*
X001636Y013398D01*
X001621Y013356D01*
X001602Y013316D01*
X001580Y013278D01*
X001554Y013242D01*
X001525Y013208D01*
X001493Y013177D01*
X001459Y013149D01*
X001423Y013125D01*
X001384Y013103D01*
X001344Y013085D01*
X001302Y013071D01*
X001259Y013060D01*
X001215Y013053D01*
X001171Y013050D01*
X001127Y013051D01*
X001083Y013056D01*
X001040Y013065D01*
X000997Y013077D01*
X000956Y013094D01*
X000916Y013113D01*
X000879Y013137D01*
X000843Y013163D01*
X000810Y013193D01*
X000780Y013225D01*
X000753Y013260D01*
X000729Y013297D01*
X000708Y013336D01*
X000691Y013377D01*
X000678Y013419D01*
X000668Y013462D01*
X000662Y013506D01*
X000660Y013550D01*
X030160Y013550D02*
X030162Y013594D01*
X030168Y013638D01*
X030178Y013681D01*
X030191Y013723D01*
X030208Y013764D01*
X030229Y013803D01*
X030253Y013840D01*
X030280Y013875D01*
X030310Y013907D01*
X030343Y013937D01*
X030379Y013963D01*
X030416Y013987D01*
X030456Y014006D01*
X030497Y014023D01*
X030540Y014035D01*
X030583Y014044D01*
X030627Y014049D01*
X030671Y014050D01*
X030715Y014047D01*
X030759Y014040D01*
X030802Y014029D01*
X030844Y014015D01*
X030884Y013997D01*
X030923Y013975D01*
X030959Y013951D01*
X030993Y013923D01*
X031025Y013892D01*
X031054Y013858D01*
X031080Y013822D01*
X031102Y013784D01*
X031121Y013744D01*
X031136Y013702D01*
X031148Y013660D01*
X031156Y013616D01*
X031160Y013572D01*
X031160Y013528D01*
X031156Y013484D01*
X031148Y013440D01*
X031136Y013398D01*
X031121Y013356D01*
X031102Y013316D01*
X031080Y013278D01*
X031054Y013242D01*
X031025Y013208D01*
X030993Y013177D01*
X030959Y013149D01*
X030923Y013125D01*
X030884Y013103D01*
X030844Y013085D01*
X030802Y013071D01*
X030759Y013060D01*
X030715Y013053D01*
X030671Y013050D01*
X030627Y013051D01*
X030583Y013056D01*
X030540Y013065D01*
X030497Y013077D01*
X030456Y013094D01*
X030416Y013113D01*
X030379Y013137D01*
X030343Y013163D01*
X030310Y013193D01*
X030280Y013225D01*
X030253Y013260D01*
X030229Y013297D01*
X030208Y013336D01*
X030191Y013377D01*
X030178Y013419D01*
X030168Y013462D01*
X030162Y013506D01*
X030160Y013550D01*
X030160Y001550D02*
X030162Y001594D01*
X030168Y001638D01*
X030178Y001681D01*
X030191Y001723D01*
X030208Y001764D01*
X030229Y001803D01*
X030253Y001840D01*
X030280Y001875D01*
X030310Y001907D01*
X030343Y001937D01*
X030379Y001963D01*
X030416Y001987D01*
X030456Y002006D01*
X030497Y002023D01*
X030540Y002035D01*
X030583Y002044D01*
X030627Y002049D01*
X030671Y002050D01*
X030715Y002047D01*
X030759Y002040D01*
X030802Y002029D01*
X030844Y002015D01*
X030884Y001997D01*
X030923Y001975D01*
X030959Y001951D01*
X030993Y001923D01*
X031025Y001892D01*
X031054Y001858D01*
X031080Y001822D01*
X031102Y001784D01*
X031121Y001744D01*
X031136Y001702D01*
X031148Y001660D01*
X031156Y001616D01*
X031160Y001572D01*
X031160Y001528D01*
X031156Y001484D01*
X031148Y001440D01*
X031136Y001398D01*
X031121Y001356D01*
X031102Y001316D01*
X031080Y001278D01*
X031054Y001242D01*
X031025Y001208D01*
X030993Y001177D01*
X030959Y001149D01*
X030923Y001125D01*
X030884Y001103D01*
X030844Y001085D01*
X030802Y001071D01*
X030759Y001060D01*
X030715Y001053D01*
X030671Y001050D01*
X030627Y001051D01*
X030583Y001056D01*
X030540Y001065D01*
X030497Y001077D01*
X030456Y001094D01*
X030416Y001113D01*
X030379Y001137D01*
X030343Y001163D01*
X030310Y001193D01*
X030280Y001225D01*
X030253Y001260D01*
X030229Y001297D01*
X030208Y001336D01*
X030191Y001377D01*
X030178Y001419D01*
X030168Y001462D01*
X030162Y001506D01*
X030160Y001550D01*
D11*
X023971Y008800D03*
X023971Y009300D03*
X023971Y009800D03*
X023971Y010300D03*
X023971Y010800D03*
X023971Y011300D03*
X023971Y011800D03*
X023971Y012300D03*
X020349Y012300D03*
X020349Y011800D03*
X020349Y011300D03*
X020349Y010800D03*
X020349Y010300D03*
X020349Y009800D03*
X020349Y009300D03*
X020349Y008800D03*
D12*
X019910Y002550D03*
X020910Y002550D03*
X021910Y002550D03*
X022910Y002550D03*
X023910Y002550D03*
X023910Y001550D03*
X022910Y001550D03*
X021910Y001550D03*
X020910Y001550D03*
X019910Y001550D03*
X018910Y001550D03*
X017910Y001550D03*
X016910Y001550D03*
X015910Y001550D03*
X014910Y001550D03*
X013910Y001550D03*
X012910Y001550D03*
X011910Y001550D03*
X010910Y001550D03*
X009910Y001550D03*
X008910Y001550D03*
X007910Y001550D03*
X007910Y002550D03*
X008910Y002550D03*
X009910Y002550D03*
X010910Y002550D03*
X011910Y002550D03*
X012910Y002550D03*
X013910Y002550D03*
X014910Y002550D03*
X015910Y002550D03*
X016910Y002550D03*
X017910Y002550D03*
X018910Y002550D03*
D13*
X030110Y004550D02*
X030710Y004550D01*
X030710Y005550D02*
X030110Y005550D01*
X030110Y006550D02*
X030710Y006550D01*
X030710Y007550D02*
X030110Y007550D01*
X033580Y007410D02*
X034180Y007410D01*
X036140Y007410D02*
X036740Y007410D01*
X036740Y006190D02*
X036140Y006190D01*
X034180Y006190D02*
X033580Y006190D01*
X033580Y004410D02*
X034180Y004410D01*
X036140Y004410D02*
X036740Y004410D01*
X036740Y003190D02*
X036140Y003190D01*
X034180Y003190D02*
X033580Y003190D01*
X033580Y001410D02*
X034180Y001410D01*
X036140Y001410D02*
X036740Y001410D01*
X036740Y009190D02*
X036140Y009190D01*
X034180Y009190D02*
X033580Y009190D01*
X030710Y010550D02*
X030110Y010550D01*
X030110Y011550D02*
X030710Y011550D01*
X028535Y013250D02*
X028535Y013850D01*
X027535Y013850D02*
X027535Y013250D01*
X026535Y013250D02*
X026535Y013850D01*
X025535Y013850D02*
X025535Y013250D01*
X024535Y013250D02*
X024535Y013850D01*
X023535Y013850D02*
X023535Y013250D01*
X022535Y013250D02*
X022535Y013850D01*
X021535Y013850D02*
X021535Y013250D01*
X020535Y013250D02*
X020535Y013850D01*
X019535Y013850D02*
X019535Y013250D01*
X018535Y013250D02*
X018535Y013850D01*
X017535Y013850D02*
X017535Y013250D01*
X016535Y013250D02*
X016535Y013850D01*
X015535Y013850D02*
X015535Y013250D01*
X014535Y013250D02*
X014535Y013850D01*
X013535Y013850D02*
X013535Y013250D01*
X001210Y009800D02*
X000610Y009800D01*
X000610Y008800D02*
X001210Y008800D01*
X001210Y007800D02*
X000610Y007800D01*
X000610Y006800D02*
X001210Y006800D01*
X001210Y005800D02*
X000610Y005800D01*
X000610Y004800D02*
X001210Y004800D01*
D14*
X026750Y006020D03*
X027660Y006020D03*
X028570Y006020D03*
D15*
X027660Y003580D03*
D16*
X025660Y006926D03*
X025660Y007674D03*
X013910Y011676D03*
X013910Y012424D03*
X010160Y009924D03*
X010160Y009176D03*
D17*
X014410Y006020D02*
X014410Y005580D01*
X016410Y005580D02*
X016410Y006020D01*
D18*
X011510Y004925D03*
X010910Y004925D03*
X010310Y004925D03*
X014360Y010550D03*
X014960Y010550D03*
D19*
X026900Y010800D02*
X027420Y010800D01*
X027420Y009800D02*
X026900Y009800D01*
X026900Y011800D02*
X027420Y011800D01*
D20*
X028286Y010800D03*
X029034Y010800D03*
D21*
X014660Y010550D03*
D22*
X001160Y013550D03*
X030660Y013550D03*
X030660Y001550D03*
X001160Y001550D03*
D23*
X005660Y012550D03*
X032404Y008784D03*
X032404Y006816D03*
X038113Y006816D03*
X038113Y007800D03*
X038113Y008784D03*
D24*
X009660Y012550D03*
X008660Y012550D03*
X007660Y012550D03*
X006660Y012550D03*
X006660Y013550D03*
X005660Y013550D03*
X007660Y013550D03*
X008660Y013550D03*
X009660Y013550D03*
D25*
X006160Y009879D03*
X006160Y009446D03*
X006160Y009013D03*
X006160Y008580D03*
X006160Y008146D03*
X006160Y007713D03*
X006160Y007280D03*
X006160Y006847D03*
X006160Y006414D03*
D26*
X005924Y010391D03*
D27*
X002184Y010391D03*
X002184Y004209D03*
D28*
X005963Y004564D03*
D29*
X002026Y006099D03*
X002026Y009249D03*
D30*
X035160Y010202D03*
X035160Y005398D03*
D31*
X036091Y011620D02*
X036091Y012480D01*
X033729Y012480D02*
X033729Y011620D01*
X034480Y013940D02*
X035340Y013940D01*
M02*
