G75*
%MOIN*%
%OFA0B0*%
%FSLAX24Y24*%
%IPPOS*%
%LPD*%
%AMOC8*
5,1,8,0,0,1.08239X$1,22.5*
%
%ADD10C,0.0000*%
%ADD11OC8,0.0600*%
%ADD12C,0.0600*%
%ADD13R,0.0800X0.0260*%
%ADD14R,0.0220X0.0500*%
%ADD15R,0.0500X0.0220*%
%ADD16R,0.0591X0.0512*%
%ADD17C,0.0440*%
%ADD18R,0.0512X0.0591*%
%ADD19R,0.0594X0.0594*%
%ADD20OC8,0.0594*%
%ADD21C,0.0160*%
%ADD22C,0.0240*%
%ADD23C,0.0357*%
%ADD24C,0.0100*%
%ADD25C,0.0320*%
D10*
X001887Y000180D02*
X001887Y014176D01*
X033257Y014176D01*
X033257Y000180D01*
X001887Y000180D01*
X002387Y001180D02*
X002389Y001224D01*
X002395Y001268D01*
X002405Y001311D01*
X002418Y001353D01*
X002435Y001394D01*
X002456Y001433D01*
X002480Y001470D01*
X002507Y001505D01*
X002537Y001537D01*
X002570Y001567D01*
X002606Y001593D01*
X002643Y001617D01*
X002683Y001636D01*
X002724Y001653D01*
X002767Y001665D01*
X002810Y001674D01*
X002854Y001679D01*
X002898Y001680D01*
X002942Y001677D01*
X002986Y001670D01*
X003029Y001659D01*
X003071Y001645D01*
X003111Y001627D01*
X003150Y001605D01*
X003186Y001581D01*
X003220Y001553D01*
X003252Y001522D01*
X003281Y001488D01*
X003307Y001452D01*
X003329Y001414D01*
X003348Y001374D01*
X003363Y001332D01*
X003375Y001290D01*
X003383Y001246D01*
X003387Y001202D01*
X003387Y001158D01*
X003383Y001114D01*
X003375Y001070D01*
X003363Y001028D01*
X003348Y000986D01*
X003329Y000946D01*
X003307Y000908D01*
X003281Y000872D01*
X003252Y000838D01*
X003220Y000807D01*
X003186Y000779D01*
X003150Y000755D01*
X003111Y000733D01*
X003071Y000715D01*
X003029Y000701D01*
X002986Y000690D01*
X002942Y000683D01*
X002898Y000680D01*
X002854Y000681D01*
X002810Y000686D01*
X002767Y000695D01*
X002724Y000707D01*
X002683Y000724D01*
X002643Y000743D01*
X002606Y000767D01*
X002570Y000793D01*
X002537Y000823D01*
X002507Y000855D01*
X002480Y000890D01*
X002456Y000927D01*
X002435Y000966D01*
X002418Y001007D01*
X002405Y001049D01*
X002395Y001092D01*
X002389Y001136D01*
X002387Y001180D01*
X002387Y013180D02*
X002389Y013224D01*
X002395Y013268D01*
X002405Y013311D01*
X002418Y013353D01*
X002435Y013394D01*
X002456Y013433D01*
X002480Y013470D01*
X002507Y013505D01*
X002537Y013537D01*
X002570Y013567D01*
X002606Y013593D01*
X002643Y013617D01*
X002683Y013636D01*
X002724Y013653D01*
X002767Y013665D01*
X002810Y013674D01*
X002854Y013679D01*
X002898Y013680D01*
X002942Y013677D01*
X002986Y013670D01*
X003029Y013659D01*
X003071Y013645D01*
X003111Y013627D01*
X003150Y013605D01*
X003186Y013581D01*
X003220Y013553D01*
X003252Y013522D01*
X003281Y013488D01*
X003307Y013452D01*
X003329Y013414D01*
X003348Y013374D01*
X003363Y013332D01*
X003375Y013290D01*
X003383Y013246D01*
X003387Y013202D01*
X003387Y013158D01*
X003383Y013114D01*
X003375Y013070D01*
X003363Y013028D01*
X003348Y012986D01*
X003329Y012946D01*
X003307Y012908D01*
X003281Y012872D01*
X003252Y012838D01*
X003220Y012807D01*
X003186Y012779D01*
X003150Y012755D01*
X003111Y012733D01*
X003071Y012715D01*
X003029Y012701D01*
X002986Y012690D01*
X002942Y012683D01*
X002898Y012680D01*
X002854Y012681D01*
X002810Y012686D01*
X002767Y012695D01*
X002724Y012707D01*
X002683Y012724D01*
X002643Y012743D01*
X002606Y012767D01*
X002570Y012793D01*
X002537Y012823D01*
X002507Y012855D01*
X002480Y012890D01*
X002456Y012927D01*
X002435Y012966D01*
X002418Y013007D01*
X002405Y013049D01*
X002395Y013092D01*
X002389Y013136D01*
X002387Y013180D01*
X031887Y013180D02*
X031889Y013224D01*
X031895Y013268D01*
X031905Y013311D01*
X031918Y013353D01*
X031935Y013394D01*
X031956Y013433D01*
X031980Y013470D01*
X032007Y013505D01*
X032037Y013537D01*
X032070Y013567D01*
X032106Y013593D01*
X032143Y013617D01*
X032183Y013636D01*
X032224Y013653D01*
X032267Y013665D01*
X032310Y013674D01*
X032354Y013679D01*
X032398Y013680D01*
X032442Y013677D01*
X032486Y013670D01*
X032529Y013659D01*
X032571Y013645D01*
X032611Y013627D01*
X032650Y013605D01*
X032686Y013581D01*
X032720Y013553D01*
X032752Y013522D01*
X032781Y013488D01*
X032807Y013452D01*
X032829Y013414D01*
X032848Y013374D01*
X032863Y013332D01*
X032875Y013290D01*
X032883Y013246D01*
X032887Y013202D01*
X032887Y013158D01*
X032883Y013114D01*
X032875Y013070D01*
X032863Y013028D01*
X032848Y012986D01*
X032829Y012946D01*
X032807Y012908D01*
X032781Y012872D01*
X032752Y012838D01*
X032720Y012807D01*
X032686Y012779D01*
X032650Y012755D01*
X032611Y012733D01*
X032571Y012715D01*
X032529Y012701D01*
X032486Y012690D01*
X032442Y012683D01*
X032398Y012680D01*
X032354Y012681D01*
X032310Y012686D01*
X032267Y012695D01*
X032224Y012707D01*
X032183Y012724D01*
X032143Y012743D01*
X032106Y012767D01*
X032070Y012793D01*
X032037Y012823D01*
X032007Y012855D01*
X031980Y012890D01*
X031956Y012927D01*
X031935Y012966D01*
X031918Y013007D01*
X031905Y013049D01*
X031895Y013092D01*
X031889Y013136D01*
X031887Y013180D01*
X031887Y001180D02*
X031889Y001224D01*
X031895Y001268D01*
X031905Y001311D01*
X031918Y001353D01*
X031935Y001394D01*
X031956Y001433D01*
X031980Y001470D01*
X032007Y001505D01*
X032037Y001537D01*
X032070Y001567D01*
X032106Y001593D01*
X032143Y001617D01*
X032183Y001636D01*
X032224Y001653D01*
X032267Y001665D01*
X032310Y001674D01*
X032354Y001679D01*
X032398Y001680D01*
X032442Y001677D01*
X032486Y001670D01*
X032529Y001659D01*
X032571Y001645D01*
X032611Y001627D01*
X032650Y001605D01*
X032686Y001581D01*
X032720Y001553D01*
X032752Y001522D01*
X032781Y001488D01*
X032807Y001452D01*
X032829Y001414D01*
X032848Y001374D01*
X032863Y001332D01*
X032875Y001290D01*
X032883Y001246D01*
X032887Y001202D01*
X032887Y001158D01*
X032883Y001114D01*
X032875Y001070D01*
X032863Y001028D01*
X032848Y000986D01*
X032829Y000946D01*
X032807Y000908D01*
X032781Y000872D01*
X032752Y000838D01*
X032720Y000807D01*
X032686Y000779D01*
X032650Y000755D01*
X032611Y000733D01*
X032571Y000715D01*
X032529Y000701D01*
X032486Y000690D01*
X032442Y000683D01*
X032398Y000680D01*
X032354Y000681D01*
X032310Y000686D01*
X032267Y000695D01*
X032224Y000707D01*
X032183Y000724D01*
X032143Y000743D01*
X032106Y000767D01*
X032070Y000793D01*
X032037Y000823D01*
X032007Y000855D01*
X031980Y000890D01*
X031956Y000927D01*
X031935Y000966D01*
X031918Y001007D01*
X031905Y001049D01*
X031895Y001092D01*
X031889Y001136D01*
X031887Y001180D01*
D11*
X025637Y001180D03*
X024637Y001180D03*
X023637Y001180D03*
X022637Y001180D03*
X021637Y001180D03*
X020637Y001180D03*
X019637Y001180D03*
X018637Y001180D03*
X017637Y001180D03*
X016637Y001180D03*
X015637Y001180D03*
X014637Y001180D03*
X013637Y001180D03*
X012637Y001180D03*
X011637Y001180D03*
X010637Y001180D03*
X009637Y001180D03*
X009637Y002180D03*
X010637Y002180D03*
X011637Y002180D03*
X012637Y002180D03*
X013637Y002180D03*
X014637Y002180D03*
X015637Y002180D03*
X016637Y002180D03*
X017637Y002180D03*
X018637Y002180D03*
X019637Y002180D03*
X020637Y002180D03*
X021637Y002180D03*
X022637Y002180D03*
X023637Y002180D03*
X024637Y002180D03*
X025637Y002180D03*
D12*
X031837Y004180D02*
X032437Y004180D01*
X032437Y005180D02*
X031837Y005180D01*
X031837Y006180D02*
X032437Y006180D01*
X032437Y007180D02*
X031837Y007180D01*
X029637Y009380D02*
X029637Y009980D01*
X027637Y009980D02*
X027637Y009380D01*
X031837Y010180D02*
X032437Y010180D01*
X032437Y011180D02*
X031837Y011180D01*
X028937Y011680D02*
X028337Y011680D01*
X028262Y012880D02*
X028262Y013480D01*
X029262Y013480D02*
X029262Y012880D01*
X030262Y012880D02*
X030262Y013480D01*
X027262Y013480D02*
X027262Y012880D01*
X026262Y012880D02*
X026262Y013480D01*
X025262Y013480D02*
X025262Y012880D01*
X024262Y012880D02*
X024262Y013480D01*
X023262Y013480D02*
X023262Y012880D01*
X022262Y012880D02*
X022262Y013480D01*
X021262Y013480D02*
X021262Y012880D01*
X020262Y012880D02*
X020262Y013480D01*
X019262Y013480D02*
X019262Y012880D01*
X018262Y012880D02*
X018262Y013480D01*
X017262Y013480D02*
X017262Y012880D01*
X016262Y012880D02*
X016262Y013480D01*
X015262Y013480D02*
X015262Y012880D01*
X013637Y004480D02*
X013637Y003880D01*
X012637Y003880D02*
X012637Y004480D01*
X011637Y004480D02*
X011637Y003880D01*
D13*
X011347Y006430D03*
X011347Y006930D03*
X011347Y007430D03*
X011347Y007930D03*
X011347Y008430D03*
X011347Y008930D03*
X011347Y009430D03*
X011347Y009930D03*
X008927Y009930D03*
X008927Y009430D03*
X008927Y008930D03*
X008927Y008430D03*
X008927Y007930D03*
X008927Y007430D03*
X008927Y006930D03*
X008927Y006430D03*
D14*
X017034Y007490D03*
X017349Y007490D03*
X017664Y007490D03*
X017979Y007490D03*
X018294Y007490D03*
X018609Y007490D03*
X018924Y007490D03*
X019239Y007490D03*
X019239Y010870D03*
X018924Y010870D03*
X018609Y010870D03*
X018294Y010870D03*
X017979Y010870D03*
X017664Y010870D03*
X017349Y010870D03*
X017034Y010870D03*
D15*
X016447Y010282D03*
X016447Y009967D03*
X016447Y009652D03*
X016447Y009337D03*
X016447Y009023D03*
X016447Y008708D03*
X016447Y008393D03*
X016447Y008078D03*
X019827Y008078D03*
X019827Y008393D03*
X019827Y008708D03*
X019827Y009023D03*
X019827Y009337D03*
X019827Y009652D03*
X019827Y009967D03*
X019827Y010282D03*
D16*
X005387Y007554D03*
X005387Y006806D03*
D17*
X016137Y006400D02*
X016137Y005960D01*
X018137Y005960D02*
X018137Y006400D01*
D18*
X018511Y004680D03*
X017763Y004680D03*
X016511Y004680D03*
X015763Y004680D03*
D19*
X007387Y012180D03*
D20*
X008387Y012180D03*
X009387Y012180D03*
X010387Y012180D03*
X011387Y012180D03*
X011387Y013180D03*
X010387Y013180D03*
X009387Y013180D03*
X008387Y013180D03*
X007387Y013180D03*
D21*
X007844Y013177D02*
X008368Y013177D01*
X008368Y013162D02*
X007910Y013162D01*
X007910Y012982D01*
X008189Y012703D01*
X008368Y012703D01*
X008368Y013162D01*
X008368Y013198D01*
X007910Y013198D01*
X007910Y013378D01*
X008189Y013657D01*
X008368Y013657D01*
X008368Y013198D01*
X008405Y013198D01*
X008864Y013198D01*
X008864Y013378D01*
X008584Y013657D01*
X008405Y013657D01*
X008405Y013198D01*
X008405Y013162D01*
X008864Y013162D01*
X008864Y012982D01*
X008584Y012703D01*
X008405Y012703D01*
X008405Y013162D01*
X008368Y013162D01*
X008405Y013177D02*
X009368Y013177D01*
X009368Y013162D02*
X008910Y013162D01*
X008910Y012982D01*
X009189Y012703D01*
X009368Y012703D01*
X009368Y013162D01*
X009368Y013198D01*
X008910Y013198D01*
X008910Y013378D01*
X009189Y013657D01*
X009368Y013657D01*
X009368Y013198D01*
X009405Y013198D01*
X009864Y013198D01*
X009864Y013378D01*
X009584Y013657D01*
X009405Y013657D01*
X009405Y013198D01*
X009405Y013162D01*
X009864Y013162D01*
X009864Y012982D01*
X009584Y012703D01*
X009405Y012703D01*
X009405Y013162D01*
X009368Y013162D01*
X009405Y013177D02*
X010368Y013177D01*
X010368Y013162D02*
X009910Y013162D01*
X009910Y012982D01*
X010189Y012703D01*
X010368Y012703D01*
X010368Y013162D01*
X010368Y013198D01*
X009910Y013198D01*
X009910Y013378D01*
X010189Y013657D01*
X010368Y013657D01*
X010368Y013198D01*
X010405Y013198D01*
X010864Y013198D01*
X010864Y013378D01*
X010584Y013657D01*
X010405Y013657D01*
X010405Y013198D01*
X010405Y013162D01*
X010864Y013162D01*
X010864Y012982D01*
X010584Y012703D01*
X010405Y012703D01*
X010405Y013162D01*
X010368Y013162D01*
X010405Y013177D02*
X011368Y013177D01*
X011368Y013162D02*
X010910Y013162D01*
X010910Y012982D01*
X011189Y012703D01*
X011368Y012703D01*
X011368Y013162D01*
X011368Y013198D01*
X010910Y013198D01*
X010910Y013378D01*
X011189Y013657D01*
X011368Y013657D01*
X011368Y013198D01*
X011405Y013198D01*
X011864Y013198D01*
X011864Y013267D01*
X012070Y013061D01*
X012100Y012988D01*
X012195Y012893D01*
X012268Y012863D01*
X012711Y012420D01*
X011793Y012420D01*
X011576Y012637D01*
X011198Y012637D01*
X010930Y012369D01*
X010930Y011991D01*
X011198Y011723D01*
X011576Y011723D01*
X011793Y011940D01*
X012787Y011940D01*
X013307Y011420D01*
X011125Y011420D01*
X011079Y011467D01*
X010954Y011518D01*
X010819Y011518D01*
X010695Y011467D01*
X010627Y011399D01*
X010627Y011774D01*
X010844Y011991D01*
X010844Y012369D01*
X010576Y012637D01*
X010198Y012637D01*
X009930Y012369D01*
X009930Y011991D01*
X010147Y011774D01*
X010147Y011649D01*
X010079Y011717D01*
X009954Y011768D01*
X009819Y011768D01*
X009695Y011717D01*
X009648Y011670D01*
X008236Y011670D01*
X007844Y012063D01*
X007844Y012543D01*
X008104Y012543D01*
X008198Y012637D02*
X007930Y012369D01*
X007930Y011991D01*
X008198Y011723D01*
X008576Y011723D01*
X008844Y011991D01*
X008844Y012369D01*
X008576Y012637D01*
X008198Y012637D01*
X008032Y012860D02*
X007713Y012860D01*
X007844Y012991D02*
X007576Y012723D01*
X007198Y012723D01*
X006930Y012991D01*
X006930Y013369D01*
X007198Y013637D01*
X007576Y013637D01*
X007844Y013369D01*
X007844Y012991D01*
X007844Y013019D02*
X007910Y013019D01*
X007910Y013336D02*
X007844Y013336D01*
X007719Y013494D02*
X008026Y013494D01*
X008368Y013494D02*
X008405Y013494D01*
X008405Y013336D02*
X008368Y013336D01*
X008747Y013494D02*
X009026Y013494D01*
X008910Y013336D02*
X008864Y013336D01*
X008864Y013019D02*
X008910Y013019D01*
X009032Y012860D02*
X008741Y012860D01*
X008405Y012860D02*
X008368Y012860D01*
X008368Y013019D02*
X008405Y013019D01*
X007844Y012543D02*
X007750Y012637D01*
X007024Y012637D01*
X006930Y012543D01*
X003636Y012543D01*
X003718Y012625D02*
X003867Y012985D01*
X003867Y013375D01*
X003734Y013696D01*
X011887Y013696D01*
X011819Y013629D01*
X011777Y013526D01*
X011777Y013464D01*
X011584Y013657D01*
X011405Y013657D01*
X011405Y013198D01*
X011405Y013162D01*
X011864Y013162D01*
X011864Y012982D01*
X011584Y012703D01*
X011405Y012703D01*
X011405Y013162D01*
X011368Y013162D01*
X011405Y013177D02*
X011954Y013177D01*
X011864Y013019D02*
X012087Y013019D01*
X012271Y012860D02*
X011741Y012860D01*
X011405Y012860D02*
X011368Y012860D01*
X011368Y013019D02*
X011405Y013019D01*
X011032Y012860D02*
X010741Y012860D01*
X010864Y013019D02*
X010910Y013019D01*
X010405Y013019D02*
X010368Y013019D01*
X010368Y012860D02*
X010405Y012860D01*
X010032Y012860D02*
X009741Y012860D01*
X009864Y013019D02*
X009910Y013019D01*
X009405Y013019D02*
X009368Y013019D01*
X009368Y012860D02*
X009405Y012860D01*
X009576Y012637D02*
X009198Y012637D01*
X008930Y012369D01*
X008930Y011991D01*
X009198Y011723D01*
X009576Y011723D01*
X009844Y011991D01*
X009844Y012369D01*
X009576Y012637D01*
X009670Y012543D02*
X010104Y012543D01*
X009945Y012385D02*
X009828Y012385D01*
X009844Y012226D02*
X009930Y012226D01*
X009930Y012068D02*
X009844Y012068D01*
X009762Y011909D02*
X010012Y011909D01*
X009997Y011751D02*
X010147Y011751D01*
X009776Y011751D02*
X009603Y011751D01*
X009170Y011751D02*
X008603Y011751D01*
X008762Y011909D02*
X009012Y011909D01*
X008930Y012068D02*
X008844Y012068D01*
X008844Y012226D02*
X008930Y012226D01*
X008945Y012385D02*
X008828Y012385D01*
X008670Y012543D02*
X009104Y012543D01*
X007945Y012385D02*
X007844Y012385D01*
X007844Y012226D02*
X007930Y012226D01*
X007930Y012068D02*
X007844Y012068D01*
X007387Y012180D02*
X008137Y011430D01*
X009887Y011430D01*
X010147Y011211D02*
X010147Y011029D01*
X010001Y010883D01*
X009933Y010816D01*
X009897Y010728D01*
X009897Y009279D01*
X009787Y009170D01*
X009443Y009170D01*
X009433Y009180D01*
X009487Y009234D01*
X009487Y009626D01*
X009433Y009680D01*
X009487Y009734D01*
X009487Y010126D01*
X009393Y010220D01*
X008461Y010220D01*
X008367Y010126D01*
X008367Y009734D01*
X008421Y009680D01*
X008411Y009670D01*
X007339Y009670D01*
X007251Y009633D01*
X007183Y009566D01*
X007147Y009478D01*
X007147Y007899D01*
X007079Y007967D01*
X006954Y008018D01*
X006819Y008018D01*
X006695Y007967D01*
X006688Y007960D01*
X005758Y007960D01*
X005748Y007970D01*
X005025Y007970D01*
X004932Y007876D01*
X004932Y007232D01*
X004969Y007194D01*
X004947Y007172D01*
X004924Y007131D01*
X004912Y007086D01*
X004912Y006854D01*
X005339Y006854D01*
X005339Y006758D01*
X005435Y006758D01*
X005435Y006854D01*
X005862Y006854D01*
X005862Y007086D01*
X005850Y007131D01*
X005826Y007172D01*
X005804Y007194D01*
X005842Y007232D01*
X005842Y007400D01*
X006688Y007400D01*
X006695Y007393D01*
X006819Y007342D01*
X006954Y007342D01*
X007079Y007393D01*
X007147Y007461D01*
X007147Y007294D01*
X007100Y007247D01*
X007048Y007122D01*
X007048Y006988D01*
X007100Y006863D01*
X007195Y006768D01*
X007319Y006717D01*
X007454Y006717D01*
X007579Y006768D01*
X007674Y006863D01*
X007725Y006988D01*
X007725Y007122D01*
X007674Y007247D01*
X007627Y007294D01*
X007627Y007961D01*
X007695Y007893D01*
X007819Y007842D01*
X007886Y007842D01*
X008001Y007727D01*
X008089Y007690D01*
X008411Y007690D01*
X008421Y007680D01*
X008367Y007626D01*
X008367Y007234D01*
X008421Y007180D01*
X008367Y007126D01*
X008367Y006734D01*
X008421Y006680D01*
X008367Y006626D01*
X008367Y006234D01*
X008461Y006140D01*
X009393Y006140D01*
X009487Y006234D01*
X009487Y006626D01*
X009433Y006680D01*
X009487Y006734D01*
X009487Y007126D01*
X009433Y007180D01*
X009443Y007190D01*
X009787Y007190D01*
X009897Y007081D01*
X009897Y006132D01*
X009933Y006044D01*
X010433Y005544D01*
X010501Y005477D01*
X010589Y005440D01*
X011557Y005440D01*
X011001Y004883D01*
X010933Y004816D01*
X010897Y004728D01*
X010897Y003632D01*
X010933Y003544D01*
X011933Y002544D01*
X012001Y002477D01*
X012089Y002440D01*
X012246Y002440D01*
X012177Y002371D01*
X012177Y001989D01*
X012446Y001720D01*
X012827Y001720D01*
X013097Y001989D01*
X013097Y002371D01*
X012877Y002591D01*
X012877Y002728D01*
X012840Y002816D01*
X012773Y002883D01*
X012685Y002920D01*
X012236Y002920D01*
X012216Y002940D01*
X013037Y002940D01*
X013392Y002586D01*
X013177Y002371D01*
X013177Y001989D01*
X013446Y001720D01*
X013827Y001720D01*
X014097Y001989D01*
X014097Y002371D01*
X013877Y002591D01*
X013877Y002728D01*
X013840Y002816D01*
X013773Y002883D01*
X013273Y003383D01*
X013185Y003420D01*
X012236Y003420D01*
X012030Y003627D01*
X012097Y003788D01*
X012097Y004571D01*
X012027Y004741D01*
X011897Y004870D01*
X011734Y004938D01*
X012397Y005601D01*
X012397Y004878D01*
X012376Y004870D01*
X012247Y004741D01*
X012177Y004571D01*
X012177Y003788D01*
X012247Y003619D01*
X012376Y003490D01*
X012545Y003420D01*
X012728Y003420D01*
X012897Y003490D01*
X013027Y003619D01*
X013097Y003788D01*
X013097Y004571D01*
X013027Y004741D01*
X012897Y004870D01*
X012877Y004878D01*
X012877Y005581D01*
X014397Y007101D01*
X014397Y004132D01*
X014433Y004044D01*
X014501Y003977D01*
X015501Y002977D01*
X015589Y002940D01*
X016037Y002940D01*
X016392Y002586D01*
X016177Y002371D01*
X016177Y001989D01*
X016446Y001720D01*
X016827Y001720D01*
X017097Y001989D01*
X017097Y002371D01*
X016877Y002591D01*
X016877Y002728D01*
X016840Y002816D01*
X016340Y003316D01*
X016273Y003383D01*
X016185Y003420D01*
X015736Y003420D01*
X015716Y003440D01*
X016537Y003440D01*
X017392Y002586D01*
X017177Y002371D01*
X017177Y001989D01*
X017446Y001720D01*
X017827Y001720D01*
X018097Y001989D01*
X018097Y002371D01*
X017877Y002591D01*
X017877Y002728D01*
X017840Y002816D01*
X016840Y003816D01*
X016773Y003883D01*
X016685Y003920D01*
X015736Y003920D01*
X015377Y004279D01*
X015377Y004289D01*
X015441Y004225D01*
X015755Y004225D01*
X015839Y004190D01*
X015935Y004190D01*
X016018Y004225D01*
X016085Y004225D01*
X016123Y004262D01*
X016144Y004241D01*
X016185Y004217D01*
X016231Y004205D01*
X016463Y004205D01*
X016463Y004632D01*
X016559Y004632D01*
X016559Y004728D01*
X016947Y004728D01*
X016947Y004999D01*
X016934Y005045D01*
X016911Y005086D01*
X016877Y005119D01*
X016836Y005143D01*
X016790Y005155D01*
X016559Y005155D01*
X016559Y004728D01*
X016463Y004728D01*
X016463Y005155D01*
X016231Y005155D01*
X016213Y005150D01*
X016362Y005596D01*
X016377Y005632D01*
X016377Y005641D01*
X016380Y005649D01*
X016379Y005664D01*
X016459Y005745D01*
X016517Y005884D01*
X016517Y005999D01*
X017054Y006088D01*
X017082Y006088D01*
X017101Y006095D01*
X017121Y006099D01*
X017134Y006107D01*
X017140Y006091D01*
X017144Y006087D01*
X017146Y006081D01*
X017176Y006052D01*
X017204Y006021D01*
X017209Y006018D01*
X017213Y006014D01*
X017252Y005998D01*
X017290Y005980D01*
X017296Y005980D01*
X017302Y005977D01*
X017344Y005977D01*
X017757Y005958D01*
X017757Y005884D01*
X017815Y005745D01*
X017897Y005663D01*
X017897Y005632D01*
X017933Y005544D01*
X018342Y005135D01*
X018189Y005135D01*
X018151Y005098D01*
X018129Y005119D01*
X018088Y005143D01*
X018042Y005155D01*
X017811Y005155D01*
X017811Y004728D01*
X017715Y004728D01*
X017715Y005155D01*
X017483Y005155D01*
X017437Y005143D01*
X017396Y005119D01*
X017363Y005086D01*
X017339Y005045D01*
X017327Y004999D01*
X017327Y004728D01*
X017715Y004728D01*
X017715Y004632D01*
X017811Y004632D01*
X017811Y004205D01*
X018042Y004205D01*
X018088Y004217D01*
X018129Y004241D01*
X018151Y004262D01*
X018189Y004225D01*
X018833Y004225D01*
X018897Y004289D01*
X018897Y003779D01*
X018433Y003316D01*
X018397Y003228D01*
X018397Y002591D01*
X018177Y002371D01*
X018177Y001989D01*
X018446Y001720D01*
X018827Y001720D01*
X019097Y001989D01*
X019097Y002371D01*
X018877Y002591D01*
X018877Y003081D01*
X019340Y003544D01*
X019377Y003632D01*
X019377Y005978D01*
X019340Y006066D01*
X019273Y006133D01*
X019164Y006242D01*
X019164Y006313D01*
X019397Y006081D01*
X019397Y004882D01*
X019433Y004794D01*
X021397Y002831D01*
X021397Y002591D01*
X021177Y002371D01*
X021177Y001989D01*
X021446Y001720D01*
X021827Y001720D01*
X022097Y001989D01*
X022097Y002371D01*
X021877Y002591D01*
X021877Y002978D01*
X021840Y003066D01*
X021773Y003133D01*
X019877Y005029D01*
X019877Y006101D01*
X019897Y006081D01*
X019897Y005132D01*
X019933Y005044D01*
X022392Y002586D01*
X022177Y002371D01*
X022177Y001989D01*
X022446Y001720D01*
X022827Y001720D01*
X023097Y001989D01*
X023097Y002371D01*
X022877Y002591D01*
X022877Y002728D01*
X022840Y002816D01*
X022773Y002883D01*
X020377Y005279D01*
X020377Y006228D01*
X020340Y006316D01*
X020273Y006383D01*
X020067Y006589D01*
X020067Y007808D01*
X020143Y007808D01*
X020237Y007901D01*
X020237Y008153D01*
X020325Y008153D01*
X020397Y008081D01*
X020397Y005472D01*
X020395Y005467D01*
X020397Y005425D01*
X020397Y005382D01*
X020399Y005377D01*
X020399Y005372D01*
X020417Y005333D01*
X020433Y005294D01*
X020437Y005290D01*
X020439Y005285D01*
X020471Y005257D01*
X020501Y005227D01*
X020506Y005224D01*
X023388Y002582D01*
X023177Y002371D01*
X023177Y001989D01*
X023446Y001720D01*
X023827Y001720D01*
X024097Y001989D01*
X024097Y002371D01*
X023877Y002591D01*
X023877Y002638D01*
X023879Y002643D01*
X023877Y002685D01*
X023877Y002728D01*
X023875Y002733D01*
X023875Y002738D01*
X023857Y002777D01*
X023840Y002816D01*
X023836Y002820D01*
X023834Y002825D01*
X023803Y002853D01*
X023773Y002883D01*
X023768Y002886D01*
X020877Y005536D01*
X020877Y008101D01*
X020897Y008081D01*
X020897Y005718D01*
X020894Y005709D01*
X020897Y005671D01*
X020897Y005632D01*
X020900Y005623D01*
X020901Y005614D01*
X020919Y005580D01*
X020933Y005544D01*
X020940Y005537D01*
X020944Y005529D01*
X020974Y005504D01*
X021001Y005477D01*
X021010Y005473D01*
X024386Y002579D01*
X024177Y002371D01*
X024177Y001989D01*
X024446Y001720D01*
X024827Y001720D01*
X025097Y001989D01*
X025097Y002371D01*
X024877Y002591D01*
X024877Y002642D01*
X024880Y002651D01*
X024877Y002689D01*
X024877Y002728D01*
X024873Y002737D01*
X024872Y002746D01*
X024855Y002780D01*
X024840Y002816D01*
X024834Y002823D01*
X024829Y002831D01*
X024800Y002856D01*
X024773Y002883D01*
X024764Y002887D01*
X022029Y005232D01*
X022114Y005232D01*
X022239Y005283D01*
X022334Y005378D01*
X022385Y005503D01*
X022385Y005637D01*
X022334Y005762D01*
X022261Y005834D01*
X022093Y007505D01*
X022100Y007488D01*
X022195Y007393D01*
X022319Y007342D01*
X022356Y007342D01*
X023298Y006211D01*
X023298Y006113D01*
X023350Y005988D01*
X023445Y005893D01*
X023569Y005842D01*
X023704Y005842D01*
X023829Y005893D01*
X023924Y005988D01*
X023975Y006113D01*
X023975Y006247D01*
X023924Y006372D01*
X023829Y006467D01*
X023704Y006518D01*
X023667Y006518D01*
X022725Y007649D01*
X022725Y007747D01*
X022674Y007872D01*
X022579Y007967D01*
X022454Y008018D01*
X022319Y008018D01*
X022195Y007967D01*
X022100Y007872D01*
X022065Y007786D01*
X022060Y007834D01*
X022084Y007858D01*
X022135Y007983D01*
X022135Y008117D01*
X022084Y008242D01*
X021989Y008337D01*
X021864Y008388D01*
X021729Y008388D01*
X021605Y008337D01*
X021510Y008242D01*
X021458Y008117D01*
X021458Y007983D01*
X021510Y007858D01*
X021582Y007786D01*
X021784Y005786D01*
X021760Y005762D01*
X021708Y005637D01*
X021708Y005506D01*
X021377Y005790D01*
X021377Y008228D01*
X021340Y008316D01*
X021273Y008383D01*
X021061Y008595D01*
X021069Y008592D01*
X021204Y008592D01*
X021329Y008643D01*
X021424Y008738D01*
X021475Y008863D01*
X021475Y008997D01*
X021424Y009122D01*
X021377Y009169D01*
X021377Y009601D01*
X024433Y006544D01*
X024501Y006477D01*
X024589Y006440D01*
X026537Y006440D01*
X027933Y005044D01*
X028001Y004977D01*
X028089Y004940D01*
X029418Y004940D01*
X029350Y004872D01*
X029298Y004747D01*
X029298Y004613D01*
X029350Y004488D01*
X029445Y004393D01*
X029569Y004342D01*
X029636Y004342D01*
X029933Y004044D01*
X030001Y003977D01*
X030089Y003940D01*
X031438Y003940D01*
X031447Y003919D01*
X031576Y003790D01*
X031745Y003720D01*
X032528Y003720D01*
X032697Y003790D01*
X032777Y003870D01*
X032777Y002079D01*
X032582Y002160D01*
X032192Y002160D01*
X031832Y002011D01*
X031556Y001735D01*
X031407Y001375D01*
X031407Y000985D01*
X031541Y000660D01*
X003732Y000660D01*
X003867Y000985D01*
X003867Y001375D01*
X003718Y001735D01*
X003442Y002011D01*
X003082Y002160D01*
X002692Y002160D01*
X002367Y002025D01*
X002367Y012335D01*
X002692Y012200D01*
X003082Y012200D01*
X003442Y012349D01*
X003718Y012625D01*
X003749Y012702D02*
X012429Y012702D01*
X012588Y012543D02*
X011670Y012543D01*
X011104Y012543D02*
X010670Y012543D01*
X010828Y012385D02*
X010945Y012385D01*
X010930Y012226D02*
X010844Y012226D01*
X010844Y012068D02*
X010930Y012068D01*
X010387Y012180D02*
X010387Y010930D01*
X010637Y010930D01*
X010887Y010680D01*
X012137Y010680D01*
X013137Y009680D01*
X013637Y008930D02*
X011347Y008930D01*
X010787Y008876D02*
X010787Y008734D01*
X010841Y008680D01*
X010787Y008626D01*
X010787Y008234D01*
X010841Y008180D01*
X010787Y008126D01*
X010787Y007734D01*
X010841Y007680D01*
X010787Y007626D01*
X010787Y007234D01*
X010841Y007180D01*
X010787Y007126D01*
X010787Y006734D01*
X010826Y006694D01*
X010803Y006671D01*
X010779Y006629D01*
X010767Y006584D01*
X010767Y006430D01*
X010767Y006276D01*
X010779Y006231D01*
X010803Y006189D01*
X010836Y006156D01*
X010877Y006132D01*
X010923Y006120D01*
X011347Y006120D01*
X011737Y006120D01*
X011537Y005920D01*
X010736Y005920D01*
X010377Y006279D01*
X010377Y007228D01*
X010340Y007316D01*
X010023Y007633D01*
X009935Y007670D01*
X009443Y007670D01*
X009433Y007680D01*
X009487Y007734D01*
X009487Y008126D01*
X009433Y008180D01*
X009487Y008234D01*
X009487Y008626D01*
X009433Y008680D01*
X009443Y008690D01*
X009935Y008690D01*
X010023Y008727D01*
X010273Y008977D01*
X010331Y009035D01*
X010350Y008988D01*
X010445Y008893D01*
X010569Y008842D01*
X010704Y008842D01*
X010787Y008876D01*
X010787Y008739D02*
X010035Y008739D01*
X010194Y008898D02*
X010441Y008898D01*
X010637Y009180D02*
X010887Y009430D01*
X011347Y009430D01*
X010137Y009180D02*
X010137Y010680D01*
X010387Y010930D01*
X010147Y011117D02*
X010014Y011117D01*
X009954Y011092D02*
X010079Y011143D01*
X010147Y011211D01*
X009954Y011092D02*
X009819Y011092D01*
X009695Y011143D01*
X009648Y011190D01*
X008089Y011190D01*
X008001Y011227D01*
X007504Y011723D01*
X007024Y011723D01*
X006930Y011817D01*
X006930Y012543D01*
X006930Y012385D02*
X003477Y012385D01*
X003145Y012226D02*
X006930Y012226D01*
X006930Y012068D02*
X002367Y012068D01*
X002367Y012226D02*
X002629Y012226D01*
X002367Y011909D02*
X006930Y011909D01*
X006996Y011751D02*
X002367Y011751D01*
X002367Y011592D02*
X007635Y011592D01*
X007794Y011434D02*
X002367Y011434D01*
X002367Y011275D02*
X007952Y011275D01*
X008156Y011751D02*
X008170Y011751D01*
X008012Y011909D02*
X007997Y011909D01*
X009759Y011117D02*
X002367Y011117D01*
X002367Y010958D02*
X010075Y010958D01*
X010001Y010883D02*
X010001Y010883D01*
X009927Y010800D02*
X002367Y010800D01*
X002367Y010641D02*
X009897Y010641D01*
X009897Y010483D02*
X002367Y010483D01*
X002367Y010324D02*
X009897Y010324D01*
X009897Y010166D02*
X009448Y010166D01*
X009487Y010007D02*
X009897Y010007D01*
X009897Y009849D02*
X009487Y009849D01*
X009443Y009690D02*
X009897Y009690D01*
X009897Y009532D02*
X009487Y009532D01*
X009487Y009373D02*
X009897Y009373D01*
X009832Y009215D02*
X009468Y009215D01*
X009887Y008930D02*
X008927Y008930D01*
X008927Y009430D02*
X007387Y009430D01*
X007387Y007055D01*
X007712Y007154D02*
X008395Y007154D01*
X008367Y006996D02*
X007725Y006996D01*
X007647Y006837D02*
X008367Y006837D01*
X008419Y006679D02*
X005862Y006679D01*
X005862Y006758D02*
X005435Y006758D01*
X005435Y006370D01*
X005706Y006370D01*
X005752Y006382D01*
X005793Y006406D01*
X005826Y006440D01*
X005850Y006481D01*
X005862Y006526D01*
X005862Y006758D01*
X005862Y006996D02*
X007048Y006996D01*
X007062Y007154D02*
X005837Y007154D01*
X005842Y007313D02*
X007147Y007313D01*
X007627Y007313D02*
X008367Y007313D01*
X008927Y007430D02*
X009887Y007430D01*
X010137Y007180D01*
X010137Y006180D01*
X010637Y005680D01*
X011637Y005680D01*
X015637Y009680D01*
X016419Y009680D01*
X016447Y009652D01*
X016409Y009930D02*
X016447Y009967D01*
X016409Y009930D02*
X015387Y009930D01*
X014387Y008930D01*
X013637Y008930D01*
X013637Y010930D01*
X013387Y011180D01*
X010887Y011180D01*
X011112Y011434D02*
X013294Y011434D01*
X013135Y011592D02*
X010627Y011592D01*
X010627Y011434D02*
X010662Y011434D01*
X010627Y011751D02*
X011170Y011751D01*
X011012Y011909D02*
X010762Y011909D01*
X011387Y012180D02*
X012887Y012180D01*
X013887Y011180D01*
X013887Y010680D01*
X014137Y010430D01*
X016299Y010430D01*
X016447Y010282D01*
X017589Y010324D02*
X019417Y010324D01*
X019417Y010459D02*
X019417Y009780D01*
X019406Y009762D01*
X019404Y009744D01*
X019397Y009728D01*
X019397Y009697D01*
X019392Y009667D01*
X019397Y009650D01*
X019397Y009632D01*
X019408Y009604D01*
X019416Y009575D01*
X019417Y009574D01*
X019417Y009348D01*
X019344Y009378D01*
X019209Y009378D01*
X019085Y009327D01*
X018990Y009232D01*
X018938Y009107D01*
X018938Y008973D01*
X018990Y008848D01*
X019085Y008753D01*
X019209Y008702D01*
X019344Y008702D01*
X019417Y008732D01*
X019417Y007901D01*
X019511Y007808D01*
X019587Y007808D01*
X019587Y006569D01*
X019479Y006677D01*
X019479Y007144D01*
X019509Y007174D01*
X019509Y007806D01*
X019415Y007900D01*
X018802Y007900D01*
X018789Y007908D01*
X018743Y007920D01*
X018609Y007920D01*
X018534Y007920D01*
X018534Y008070D01*
X018498Y008158D01*
X018340Y008316D01*
X018273Y008383D01*
X018185Y008420D01*
X017877Y008420D01*
X017877Y009228D01*
X017840Y009316D01*
X017773Y009383D01*
X017589Y009567D01*
X017589Y010460D01*
X018101Y010460D01*
X018115Y010452D01*
X018161Y010440D01*
X018294Y010440D01*
X018294Y010870D01*
X018294Y011300D01*
X018161Y011300D01*
X018115Y011288D01*
X018101Y011280D01*
X017584Y011280D01*
X017635Y011403D01*
X017635Y011537D01*
X017584Y011662D01*
X017489Y011757D01*
X017364Y011808D01*
X017229Y011808D01*
X017185Y011790D01*
X014133Y011790D01*
X012725Y013198D01*
X012725Y013247D01*
X012674Y013372D01*
X012579Y013467D01*
X012454Y013518D01*
X012404Y013518D01*
X012227Y013696D01*
X014833Y013696D01*
X014817Y013664D01*
X014794Y013592D01*
X014782Y013518D01*
X014782Y013200D01*
X015242Y013200D01*
X015242Y013160D01*
X015282Y013160D01*
X015282Y013200D01*
X015742Y013200D01*
X015742Y013518D01*
X015730Y013592D01*
X015707Y013664D01*
X015690Y013696D01*
X015853Y013696D01*
X015802Y013571D01*
X015802Y012788D01*
X015872Y012619D01*
X016001Y012490D01*
X016170Y012420D01*
X016353Y012420D01*
X016522Y012490D01*
X016652Y012619D01*
X016722Y012788D01*
X016722Y013571D01*
X016670Y013696D01*
X016853Y013696D01*
X016802Y013571D01*
X016802Y012788D01*
X016872Y012619D01*
X017001Y012490D01*
X017170Y012420D01*
X017353Y012420D01*
X017522Y012490D01*
X017652Y012619D01*
X017722Y012788D01*
X017722Y013571D01*
X017670Y013696D01*
X017853Y013696D01*
X017802Y013571D01*
X017802Y012788D01*
X017872Y012619D01*
X018001Y012490D01*
X018170Y012420D01*
X018353Y012420D01*
X018522Y012490D01*
X018652Y012619D01*
X018722Y012788D01*
X018722Y013571D01*
X018670Y013696D01*
X018853Y013696D01*
X018802Y013571D01*
X018802Y012788D01*
X018872Y012619D01*
X019001Y012490D01*
X019170Y012420D01*
X019353Y012420D01*
X019522Y012490D01*
X019652Y012619D01*
X019722Y012788D01*
X019722Y013571D01*
X019670Y013696D01*
X019853Y013696D01*
X019802Y013571D01*
X019802Y012788D01*
X019872Y012619D01*
X020001Y012490D01*
X020170Y012420D01*
X020353Y012420D01*
X020522Y012490D01*
X020652Y012619D01*
X020722Y012788D01*
X020722Y013571D01*
X020670Y013696D01*
X020853Y013696D01*
X020802Y013571D01*
X020802Y012788D01*
X020872Y012619D01*
X021001Y012490D01*
X021170Y012420D01*
X021353Y012420D01*
X021522Y012490D01*
X021652Y012619D01*
X021722Y012788D01*
X021722Y013571D01*
X021670Y013696D01*
X021853Y013696D01*
X021802Y013571D01*
X021802Y012788D01*
X021872Y012619D01*
X022001Y012490D01*
X022170Y012420D01*
X022353Y012420D01*
X022522Y012490D01*
X022652Y012619D01*
X022722Y012788D01*
X022722Y013571D01*
X022670Y013696D01*
X022853Y013696D01*
X022802Y013571D01*
X022802Y012788D01*
X022872Y012619D01*
X023001Y012490D01*
X023170Y012420D01*
X023353Y012420D01*
X023522Y012490D01*
X023652Y012619D01*
X023722Y012788D01*
X023722Y013571D01*
X023670Y013696D01*
X023853Y013696D01*
X023802Y013571D01*
X023802Y012788D01*
X023872Y012619D01*
X024001Y012490D01*
X024170Y012420D01*
X024353Y012420D01*
X024522Y012490D01*
X024652Y012619D01*
X024722Y012788D01*
X024722Y013571D01*
X024670Y013696D01*
X024853Y013696D01*
X024802Y013571D01*
X024802Y012788D01*
X024872Y012619D01*
X025001Y012490D01*
X025170Y012420D01*
X025353Y012420D01*
X025522Y012490D01*
X025652Y012619D01*
X025722Y012788D01*
X025722Y013571D01*
X025670Y013696D01*
X025853Y013696D01*
X025802Y013571D01*
X025802Y012788D01*
X025872Y012619D01*
X026001Y012490D01*
X026170Y012420D01*
X026353Y012420D01*
X026522Y012490D01*
X026652Y012619D01*
X026722Y012788D01*
X026722Y013571D01*
X026670Y013696D01*
X026853Y013696D01*
X026802Y013571D01*
X026802Y012788D01*
X026872Y012619D01*
X027001Y012490D01*
X027170Y012420D01*
X027353Y012420D01*
X027522Y012490D01*
X027652Y012619D01*
X027722Y012788D01*
X027722Y013571D01*
X027670Y013696D01*
X027853Y013696D01*
X027802Y013571D01*
X027802Y012788D01*
X027872Y012619D01*
X028001Y012490D01*
X028170Y012420D01*
X028353Y012420D01*
X028522Y012490D01*
X028652Y012619D01*
X028722Y012788D01*
X028722Y013571D01*
X028670Y013696D01*
X028853Y013696D01*
X028802Y013571D01*
X028802Y012788D01*
X028872Y012619D01*
X029001Y012490D01*
X029170Y012420D01*
X029353Y012420D01*
X029522Y012490D01*
X029652Y012619D01*
X029722Y012788D01*
X029722Y013571D01*
X029670Y013696D01*
X029833Y013696D01*
X029817Y013664D01*
X029794Y013592D01*
X029782Y013518D01*
X029782Y013200D01*
X030242Y013200D01*
X030242Y013160D01*
X030282Y013160D01*
X030282Y013200D01*
X030742Y013200D01*
X030742Y013518D01*
X030730Y013592D01*
X030707Y013664D01*
X030690Y013696D01*
X031540Y013696D01*
X031407Y013375D01*
X031407Y012985D01*
X031556Y012625D01*
X031832Y012349D01*
X032192Y012200D01*
X032582Y012200D01*
X032777Y012281D01*
X032777Y011490D01*
X032697Y011570D01*
X032528Y011640D01*
X031745Y011640D01*
X031576Y011570D01*
X031447Y011441D01*
X031377Y011271D01*
X031377Y011088D01*
X031447Y010919D01*
X031576Y010790D01*
X031745Y010720D01*
X032528Y010720D01*
X032697Y010790D01*
X032777Y010870D01*
X032777Y010519D01*
X032750Y010546D01*
X032688Y010591D01*
X032621Y010625D01*
X032549Y010648D01*
X032475Y010660D01*
X032157Y010660D01*
X032157Y010200D01*
X032117Y010200D01*
X032117Y010660D01*
X031799Y010660D01*
X031724Y010648D01*
X031653Y010625D01*
X031585Y010591D01*
X031524Y010546D01*
X031471Y010493D01*
X031426Y010432D01*
X031392Y010364D01*
X031369Y010292D01*
X031357Y010218D01*
X031357Y010200D01*
X032117Y010200D01*
X032117Y010160D01*
X032157Y010160D01*
X032157Y009700D01*
X032475Y009700D01*
X032549Y009712D01*
X032621Y009735D01*
X032688Y009769D01*
X032750Y009814D01*
X032777Y009841D01*
X032777Y007519D01*
X032750Y007546D01*
X032688Y007591D01*
X032621Y007625D01*
X032549Y007648D01*
X032475Y007660D01*
X032157Y007660D01*
X032157Y007200D01*
X032117Y007200D01*
X032117Y007660D01*
X031799Y007660D01*
X031724Y007648D01*
X031653Y007625D01*
X031585Y007591D01*
X031524Y007546D01*
X031471Y007493D01*
X031426Y007432D01*
X031392Y007364D01*
X031369Y007292D01*
X031357Y007218D01*
X031357Y007200D01*
X032117Y007200D01*
X032117Y007160D01*
X032157Y007160D01*
X032157Y006700D01*
X032475Y006700D01*
X032549Y006712D01*
X032621Y006735D01*
X032688Y006769D01*
X032750Y006814D01*
X032777Y006841D01*
X032777Y006490D01*
X032697Y006570D01*
X032528Y006640D01*
X031745Y006640D01*
X031576Y006570D01*
X031447Y006441D01*
X031438Y006420D01*
X028236Y006420D01*
X026773Y007883D01*
X026685Y007920D01*
X024736Y007920D01*
X021773Y010883D01*
X021685Y010920D01*
X020193Y010920D01*
X019779Y011127D01*
X019773Y011133D01*
X019737Y011148D01*
X019701Y011166D01*
X019693Y011167D01*
X019685Y011170D01*
X019645Y011170D01*
X019606Y011173D01*
X019598Y011170D01*
X019574Y011170D01*
X019523Y011221D01*
X019440Y011255D01*
X019415Y011280D01*
X018487Y011280D01*
X018474Y011288D01*
X018428Y011300D01*
X018294Y011300D01*
X018294Y010870D01*
X018294Y010870D01*
X018294Y010870D01*
X018294Y010440D01*
X018428Y010440D01*
X018474Y010452D01*
X018487Y010460D01*
X019415Y010460D01*
X019509Y010554D01*
X019509Y010690D01*
X019580Y010690D01*
X019855Y010552D01*
X019511Y010552D01*
X019417Y010459D01*
X019438Y010483D02*
X019441Y010483D01*
X019509Y010641D02*
X019678Y010641D01*
X019387Y011018D02*
X019239Y010870D01*
X019387Y010930D02*
X019387Y011018D01*
X019387Y010930D02*
X019637Y010930D01*
X020137Y010680D01*
X021637Y010680D01*
X024637Y007680D01*
X026637Y007680D01*
X028137Y006180D01*
X032137Y006180D01*
X032747Y006520D02*
X032777Y006520D01*
X032777Y006679D02*
X027978Y006679D01*
X027819Y006837D02*
X031501Y006837D01*
X031524Y006814D02*
X031585Y006769D01*
X031653Y006735D01*
X031724Y006712D01*
X031799Y006700D01*
X032117Y006700D01*
X032117Y007160D01*
X031357Y007160D01*
X031357Y007142D01*
X031369Y007068D01*
X031392Y006996D01*
X031426Y006928D01*
X031471Y006867D01*
X031524Y006814D01*
X031392Y006996D02*
X027661Y006996D01*
X027502Y007154D02*
X031357Y007154D01*
X031375Y007313D02*
X027344Y007313D01*
X027185Y007471D02*
X031455Y007471D01*
X031667Y007630D02*
X027027Y007630D01*
X026868Y007788D02*
X032777Y007788D01*
X032777Y007630D02*
X032607Y007630D01*
X032157Y007630D02*
X032117Y007630D01*
X032117Y007471D02*
X032157Y007471D01*
X032157Y007313D02*
X032117Y007313D01*
X032117Y007154D02*
X032157Y007154D01*
X032157Y006996D02*
X032117Y006996D01*
X032117Y006837D02*
X032157Y006837D01*
X032773Y006837D02*
X032777Y006837D01*
X031526Y006520D02*
X028136Y006520D01*
X026933Y006045D02*
X023947Y006045D01*
X023975Y006203D02*
X026774Y006203D01*
X026616Y006362D02*
X023928Y006362D01*
X023666Y006520D02*
X024457Y006520D01*
X024299Y006679D02*
X023534Y006679D01*
X023402Y006837D02*
X024140Y006837D01*
X023982Y006996D02*
X023270Y006996D01*
X023138Y007154D02*
X023823Y007154D01*
X023665Y007313D02*
X023005Y007313D01*
X022513Y007154D02*
X022128Y007154D01*
X022112Y007313D02*
X022381Y007313D01*
X022117Y007471D02*
X022096Y007471D01*
X022387Y007680D02*
X023637Y006180D01*
X023327Y006045D02*
X022240Y006045D01*
X022224Y006203D02*
X023298Y006203D01*
X023173Y006362D02*
X022208Y006362D01*
X022192Y006520D02*
X023041Y006520D01*
X022909Y006679D02*
X022176Y006679D01*
X022160Y006837D02*
X022777Y006837D01*
X022645Y006996D02*
X022144Y006996D01*
X021662Y006996D02*
X021377Y006996D01*
X021377Y007154D02*
X021646Y007154D01*
X021630Y007313D02*
X021377Y007313D01*
X021377Y007471D02*
X021614Y007471D01*
X021598Y007630D02*
X021377Y007630D01*
X021377Y007788D02*
X021580Y007788D01*
X021473Y007947D02*
X021377Y007947D01*
X021377Y008105D02*
X021458Y008105D01*
X021532Y008264D02*
X021362Y008264D01*
X021234Y008422D02*
X022555Y008422D01*
X022397Y008581D02*
X021076Y008581D01*
X021424Y008739D02*
X022238Y008739D01*
X022080Y008898D02*
X021475Y008898D01*
X021137Y008930D02*
X021137Y009680D01*
X019637Y009680D01*
X019827Y009652D01*
X019417Y009532D02*
X017625Y009532D01*
X017589Y009690D02*
X019396Y009690D01*
X019417Y009849D02*
X017589Y009849D01*
X017589Y010007D02*
X019417Y010007D01*
X019417Y010166D02*
X017589Y010166D01*
X018294Y010483D02*
X018294Y010483D01*
X018294Y010641D02*
X018294Y010641D01*
X018294Y010800D02*
X018294Y010800D01*
X018287Y010840D02*
X018287Y008410D01*
X018557Y008140D01*
X018557Y008010D01*
X018534Y007947D02*
X019417Y007947D01*
X019417Y008105D02*
X018520Y008105D01*
X018393Y008264D02*
X019417Y008264D01*
X019417Y008422D02*
X017877Y008422D01*
X017877Y008581D02*
X019417Y008581D01*
X019119Y008739D02*
X017877Y008739D01*
X017877Y008898D02*
X018970Y008898D01*
X018938Y009056D02*
X017877Y009056D01*
X017877Y009215D02*
X018983Y009215D01*
X019196Y009373D02*
X017783Y009373D01*
X017637Y009180D02*
X017349Y009467D01*
X017349Y010870D01*
X017034Y010870D02*
X016947Y010870D01*
X016637Y010930D01*
X014637Y010930D01*
X012977Y011751D02*
X011603Y011751D01*
X011762Y011909D02*
X012818Y011909D01*
X013697Y012226D02*
X032129Y012226D01*
X031796Y012385D02*
X013538Y012385D01*
X013380Y012543D02*
X014920Y012543D01*
X014896Y012567D02*
X014949Y012514D01*
X015010Y012469D01*
X015078Y012435D01*
X015149Y012412D01*
X015224Y012400D01*
X015242Y012400D01*
X015242Y013160D01*
X014782Y013160D01*
X014782Y012842D01*
X014794Y012768D01*
X014817Y012696D01*
X014851Y012628D01*
X014896Y012567D01*
X014815Y012702D02*
X013221Y012702D01*
X013063Y012860D02*
X014782Y012860D01*
X014782Y013019D02*
X012904Y013019D01*
X012746Y013177D02*
X015242Y013177D01*
X015262Y013180D02*
X015137Y012680D01*
X015637Y012180D01*
X017387Y012180D01*
X018637Y012180D01*
X018287Y011830D01*
X018287Y011110D01*
X018294Y011117D02*
X018294Y011117D01*
X018294Y011275D02*
X018294Y011275D01*
X018294Y010958D02*
X018294Y010958D01*
X017635Y011434D02*
X027941Y011434D01*
X027947Y011419D02*
X028076Y011290D01*
X028245Y011220D01*
X029028Y011220D01*
X029197Y011290D01*
X029327Y011419D01*
X029397Y011588D01*
X029397Y011771D01*
X029327Y011941D01*
X029197Y012070D01*
X029028Y012140D01*
X028245Y012140D01*
X028076Y012070D01*
X027947Y011941D01*
X027877Y011771D01*
X027877Y011588D01*
X027947Y011419D01*
X027877Y011592D02*
X017613Y011592D01*
X017495Y011751D02*
X027877Y011751D01*
X027934Y011909D02*
X014014Y011909D01*
X013855Y012068D02*
X028074Y012068D01*
X027948Y012543D02*
X027575Y012543D01*
X027686Y012702D02*
X027838Y012702D01*
X027802Y012860D02*
X027722Y012860D01*
X027722Y013019D02*
X027802Y013019D01*
X027802Y013177D02*
X027722Y013177D01*
X027722Y013336D02*
X027802Y013336D01*
X027802Y013494D02*
X027722Y013494D01*
X027688Y013653D02*
X027835Y013653D01*
X028688Y013653D02*
X028835Y013653D01*
X028802Y013494D02*
X028722Y013494D01*
X028722Y013336D02*
X028802Y013336D01*
X028802Y013177D02*
X028722Y013177D01*
X028722Y013019D02*
X028802Y013019D01*
X028802Y012860D02*
X028722Y012860D01*
X028686Y012702D02*
X028838Y012702D01*
X028948Y012543D02*
X028575Y012543D01*
X029200Y012068D02*
X032777Y012068D01*
X032777Y012226D02*
X032645Y012226D01*
X032777Y011909D02*
X029340Y011909D01*
X029397Y011751D02*
X032777Y011751D01*
X032777Y011592D02*
X032644Y011592D01*
X031629Y011592D02*
X029397Y011592D01*
X029333Y011434D02*
X031444Y011434D01*
X031378Y011275D02*
X029161Y011275D01*
X028112Y011275D02*
X019420Y011275D01*
X019800Y011117D02*
X031377Y011117D01*
X031431Y010958D02*
X020117Y010958D01*
X019827Y010282D02*
X021534Y010282D01*
X024637Y007180D01*
X026637Y007180D01*
X028137Y005680D01*
X029637Y005680D01*
X028137Y005180D02*
X032137Y005180D01*
X032137Y004180D02*
X030137Y004180D01*
X029637Y004680D01*
X029379Y004460D02*
X022929Y004460D01*
X022745Y004618D02*
X029298Y004618D01*
X029310Y004777D02*
X022560Y004777D01*
X022375Y004935D02*
X029413Y004935D01*
X028137Y005180D02*
X026637Y006680D01*
X024637Y006680D01*
X021349Y009967D01*
X019827Y009967D01*
X019827Y009337D02*
X020479Y009337D01*
X020637Y009180D01*
X020609Y008708D02*
X019827Y008708D01*
X019827Y008393D02*
X020424Y008393D01*
X020637Y008180D01*
X020637Y005430D01*
X023637Y002680D01*
X023637Y002180D01*
X023177Y002241D02*
X023097Y002241D01*
X023097Y002082D02*
X023177Y002082D01*
X023243Y001924D02*
X023031Y001924D01*
X022872Y001765D02*
X023401Y001765D01*
X023438Y001660D02*
X023157Y001379D01*
X023157Y001200D01*
X023617Y001200D01*
X023617Y001660D01*
X023438Y001660D01*
X023384Y001607D02*
X022889Y001607D01*
X022836Y001660D02*
X022657Y001660D01*
X022657Y001200D01*
X023117Y001200D01*
X023117Y001379D01*
X022836Y001660D01*
X022657Y001607D02*
X022617Y001607D01*
X022617Y001660D02*
X022438Y001660D01*
X022157Y001379D01*
X022157Y001200D01*
X022617Y001200D01*
X022617Y001660D01*
X022617Y001448D02*
X022657Y001448D01*
X022384Y001607D02*
X021889Y001607D01*
X021836Y001660D02*
X021657Y001660D01*
X021657Y001200D01*
X022117Y001200D01*
X022117Y001379D01*
X021836Y001660D01*
X021872Y001765D02*
X022401Y001765D01*
X022243Y001924D02*
X022031Y001924D01*
X022097Y002082D02*
X022177Y002082D01*
X022177Y002241D02*
X022097Y002241D01*
X022068Y002399D02*
X022205Y002399D01*
X022364Y002558D02*
X021910Y002558D01*
X021877Y002716D02*
X022261Y002716D01*
X022637Y002680D02*
X022637Y002180D01*
X022910Y002558D02*
X023364Y002558D01*
X023242Y002716D02*
X022877Y002716D01*
X022637Y002680D02*
X020137Y005180D01*
X020137Y006180D01*
X019827Y006490D01*
X019827Y008078D01*
X020237Y008105D02*
X020372Y008105D01*
X020397Y007947D02*
X020237Y007947D01*
X020397Y007788D02*
X020067Y007788D01*
X020067Y007630D02*
X020397Y007630D01*
X020397Y007471D02*
X020067Y007471D01*
X020067Y007313D02*
X020397Y007313D01*
X020397Y007154D02*
X020067Y007154D01*
X020067Y006996D02*
X020397Y006996D01*
X020397Y006837D02*
X020067Y006837D01*
X020067Y006679D02*
X020397Y006679D01*
X020397Y006520D02*
X020136Y006520D01*
X020295Y006362D02*
X020397Y006362D01*
X020397Y006203D02*
X020377Y006203D01*
X020377Y006045D02*
X020397Y006045D01*
X020877Y006045D02*
X020897Y006045D01*
X020897Y006203D02*
X020877Y006203D01*
X020877Y006362D02*
X020897Y006362D01*
X020897Y006520D02*
X020877Y006520D01*
X020877Y006679D02*
X020897Y006679D01*
X020897Y006837D02*
X020877Y006837D01*
X020877Y006996D02*
X020897Y006996D01*
X020897Y007154D02*
X020877Y007154D01*
X020877Y007313D02*
X020897Y007313D01*
X020897Y007471D02*
X020877Y007471D01*
X020877Y007630D02*
X020897Y007630D01*
X020897Y007788D02*
X020877Y007788D01*
X020877Y007947D02*
X020897Y007947D01*
X021137Y008180D02*
X021137Y005680D01*
X024637Y002680D01*
X024637Y002180D01*
X024177Y002241D02*
X024097Y002241D01*
X024097Y002082D02*
X024177Y002082D01*
X024243Y001924D02*
X024031Y001924D01*
X023872Y001765D02*
X024401Y001765D01*
X024438Y001660D02*
X024157Y001379D01*
X024157Y001200D01*
X024617Y001200D01*
X024617Y001660D01*
X024438Y001660D01*
X024384Y001607D02*
X023889Y001607D01*
X023836Y001660D02*
X023657Y001660D01*
X023657Y001200D01*
X024117Y001200D01*
X024117Y001379D01*
X023836Y001660D01*
X023657Y001607D02*
X023617Y001607D01*
X023617Y001448D02*
X023657Y001448D01*
X023226Y001448D02*
X023048Y001448D01*
X023117Y001290D02*
X023157Y001290D01*
X023157Y001160D02*
X023157Y000981D01*
X023438Y000700D01*
X023617Y000700D01*
X023617Y001160D01*
X023657Y001160D01*
X023657Y001200D01*
X023617Y001200D01*
X023617Y001160D01*
X023157Y001160D01*
X023157Y001131D02*
X023117Y001131D01*
X023117Y001160D02*
X023117Y000981D01*
X022836Y000700D01*
X022657Y000700D01*
X022657Y001160D01*
X022657Y001200D01*
X022617Y001200D01*
X022617Y001160D01*
X022657Y001160D01*
X023117Y001160D01*
X022637Y001180D02*
X023637Y001180D01*
X024637Y001180D01*
X025637Y001180D01*
X025657Y001200D02*
X026117Y001200D01*
X026117Y001379D01*
X025836Y001660D01*
X025657Y001660D01*
X025657Y001200D01*
X025657Y001160D01*
X026117Y001160D01*
X026117Y000981D01*
X025836Y000700D01*
X025657Y000700D01*
X025657Y001160D01*
X025617Y001160D01*
X025617Y000700D01*
X025438Y000700D01*
X025157Y000981D01*
X025157Y001160D01*
X025617Y001160D01*
X025617Y001200D01*
X025617Y001660D01*
X025438Y001660D01*
X025157Y001379D01*
X025157Y001200D01*
X025617Y001200D01*
X025657Y001200D01*
X025657Y001131D02*
X025617Y001131D01*
X025617Y000973D02*
X025657Y000973D01*
X025657Y000814D02*
X025617Y000814D01*
X025324Y000814D02*
X024950Y000814D01*
X024836Y000700D02*
X024657Y000700D01*
X024657Y001160D01*
X024657Y001200D01*
X025117Y001200D01*
X025117Y001379D01*
X024836Y001660D01*
X024657Y001660D01*
X024657Y001200D01*
X024617Y001200D01*
X024617Y001160D01*
X024657Y001160D01*
X025117Y001160D01*
X025117Y000981D01*
X024836Y000700D01*
X024657Y000814D02*
X024617Y000814D01*
X024617Y000700D02*
X024617Y001160D01*
X024157Y001160D01*
X024157Y000981D01*
X024438Y000700D01*
X024617Y000700D01*
X024324Y000814D02*
X023950Y000814D01*
X023836Y000700D02*
X023657Y000700D01*
X023657Y001160D01*
X024117Y001160D01*
X024117Y000981D01*
X023836Y000700D01*
X023657Y000814D02*
X023617Y000814D01*
X023617Y000973D02*
X023657Y000973D01*
X023657Y001131D02*
X023617Y001131D01*
X023617Y001290D02*
X023657Y001290D01*
X024048Y001448D02*
X024226Y001448D01*
X024617Y001448D02*
X024657Y001448D01*
X024657Y001607D02*
X024617Y001607D01*
X024889Y001607D02*
X025384Y001607D01*
X025446Y001720D02*
X025827Y001720D01*
X026097Y001989D01*
X026097Y002371D01*
X025827Y002640D01*
X025446Y002640D01*
X025177Y002371D01*
X025177Y001989D01*
X025446Y001720D01*
X025401Y001765D02*
X024872Y001765D01*
X025031Y001924D02*
X025243Y001924D01*
X025177Y002082D02*
X025097Y002082D01*
X025097Y002241D02*
X025177Y002241D01*
X025205Y002399D02*
X025068Y002399D01*
X024910Y002558D02*
X025364Y002558D01*
X025910Y002558D02*
X032777Y002558D01*
X032777Y002716D02*
X024877Y002716D01*
X024364Y002558D02*
X023910Y002558D01*
X023877Y002716D02*
X024226Y002716D01*
X024041Y002875D02*
X023782Y002875D01*
X023856Y003033D02*
X023607Y003033D01*
X023671Y003192D02*
X023434Y003192D01*
X023486Y003350D02*
X023261Y003350D01*
X023301Y003509D02*
X023088Y003509D01*
X023117Y003667D02*
X022915Y003667D01*
X022932Y003826D02*
X022742Y003826D01*
X022747Y003984D02*
X022569Y003984D01*
X022562Y004143D02*
X022397Y004143D01*
X022377Y004301D02*
X022224Y004301D01*
X021686Y004143D02*
X021514Y004143D01*
X021513Y004301D02*
X021355Y004301D01*
X021340Y004460D02*
X021197Y004460D01*
X021167Y004618D02*
X021038Y004618D01*
X020995Y004777D02*
X020880Y004777D01*
X020822Y004935D02*
X020721Y004935D01*
X020649Y005094D02*
X020563Y005094D01*
X020475Y005252D02*
X020404Y005252D01*
X020397Y005411D02*
X020377Y005411D01*
X020377Y005569D02*
X020397Y005569D01*
X020397Y005728D02*
X020377Y005728D01*
X020377Y005886D02*
X020397Y005886D01*
X020877Y005886D02*
X020897Y005886D01*
X020897Y005728D02*
X020877Y005728D01*
X020877Y005569D02*
X020923Y005569D01*
X021013Y005411D02*
X021082Y005411D01*
X021186Y005252D02*
X021267Y005252D01*
X021359Y005094D02*
X021452Y005094D01*
X021532Y004935D02*
X021637Y004935D01*
X021705Y004777D02*
X021822Y004777D01*
X021878Y004618D02*
X022007Y004618D01*
X022051Y004460D02*
X022192Y004460D01*
X023114Y004301D02*
X029676Y004301D01*
X029835Y004143D02*
X023299Y004143D01*
X023484Y003984D02*
X029993Y003984D01*
X029933Y004044D02*
X029933Y004044D01*
X031541Y003826D02*
X023669Y003826D01*
X023854Y003667D02*
X032777Y003667D01*
X032777Y003509D02*
X024039Y003509D01*
X024224Y003350D02*
X032777Y003350D01*
X032777Y003192D02*
X024409Y003192D01*
X024594Y003033D02*
X032777Y003033D01*
X032777Y002875D02*
X024782Y002875D01*
X024205Y002399D02*
X024068Y002399D01*
X023205Y002399D02*
X023068Y002399D01*
X023069Y002875D02*
X022782Y002875D01*
X022897Y003033D02*
X022623Y003033D01*
X022724Y003192D02*
X022465Y003192D01*
X022551Y003350D02*
X022306Y003350D01*
X022378Y003509D02*
X022148Y003509D01*
X022205Y003667D02*
X021989Y003667D01*
X022032Y003826D02*
X021831Y003826D01*
X021859Y003984D02*
X021672Y003984D01*
X021152Y003826D02*
X021081Y003826D01*
X020993Y003984D02*
X020922Y003984D01*
X020835Y004143D02*
X020764Y004143D01*
X020676Y004301D02*
X020605Y004301D01*
X020085Y004143D02*
X019377Y004143D01*
X019377Y004301D02*
X019926Y004301D01*
X019768Y004460D02*
X019377Y004460D01*
X019377Y004618D02*
X019609Y004618D01*
X019451Y004777D02*
X019377Y004777D01*
X019377Y004935D02*
X019397Y004935D01*
X019397Y005094D02*
X019377Y005094D01*
X019377Y005252D02*
X019397Y005252D01*
X019397Y005411D02*
X019377Y005411D01*
X019377Y005569D02*
X019397Y005569D01*
X019397Y005728D02*
X019377Y005728D01*
X019377Y005886D02*
X019397Y005886D01*
X019137Y005930D02*
X019137Y003680D01*
X018637Y003180D01*
X018637Y002180D01*
X018177Y002241D02*
X018097Y002241D01*
X018097Y002082D02*
X018177Y002082D01*
X018243Y001924D02*
X018031Y001924D01*
X017872Y001765D02*
X018401Y001765D01*
X018438Y001660D02*
X018157Y001379D01*
X018157Y001200D01*
X018617Y001200D01*
X018617Y001660D01*
X018438Y001660D01*
X018384Y001607D02*
X017889Y001607D01*
X017836Y001660D02*
X017657Y001660D01*
X017657Y001200D01*
X018117Y001200D01*
X018117Y001379D01*
X017836Y001660D01*
X017657Y001607D02*
X017617Y001607D01*
X017617Y001660D02*
X017438Y001660D01*
X017157Y001379D01*
X017157Y001200D01*
X017617Y001200D01*
X017617Y001660D01*
X017617Y001448D02*
X017657Y001448D01*
X017384Y001607D02*
X016889Y001607D01*
X016836Y001660D02*
X016657Y001660D01*
X016657Y001200D01*
X017117Y001200D01*
X017117Y001379D01*
X016836Y001660D01*
X016872Y001765D02*
X017401Y001765D01*
X017243Y001924D02*
X017031Y001924D01*
X017097Y002082D02*
X017177Y002082D01*
X017177Y002241D02*
X017097Y002241D01*
X017068Y002399D02*
X017205Y002399D01*
X017364Y002558D02*
X016910Y002558D01*
X016877Y002716D02*
X017261Y002716D01*
X017637Y002680D02*
X016637Y003680D01*
X015637Y003680D01*
X015137Y004180D01*
X015137Y007180D01*
X015637Y007680D01*
X016049Y007680D01*
X016447Y008078D01*
X016447Y008393D02*
X016409Y008430D01*
X016137Y008430D01*
X015887Y008180D01*
X015637Y008180D01*
X014637Y007180D01*
X014637Y004180D01*
X015637Y003180D01*
X016137Y003180D01*
X016637Y002680D01*
X016637Y002180D01*
X016177Y002241D02*
X016097Y002241D01*
X016097Y002371D02*
X015827Y002640D01*
X015446Y002640D01*
X015177Y002371D01*
X015177Y001989D01*
X015446Y001720D01*
X015827Y001720D01*
X016097Y001989D01*
X016097Y002371D01*
X016068Y002399D02*
X016205Y002399D01*
X016364Y002558D02*
X015910Y002558D01*
X016261Y002716D02*
X014877Y002716D01*
X014877Y002591D02*
X014877Y003228D01*
X014840Y003316D01*
X014097Y004059D01*
X014097Y004571D01*
X014027Y004741D01*
X013897Y004870D01*
X013728Y004940D01*
X013545Y004940D01*
X013376Y004870D01*
X013247Y004741D01*
X013177Y004571D01*
X013177Y003788D01*
X013247Y003619D01*
X013376Y003490D01*
X013545Y003420D01*
X013728Y003420D01*
X013897Y003490D01*
X013942Y003535D01*
X014397Y003081D01*
X014397Y002591D01*
X014177Y002371D01*
X014177Y001989D01*
X014446Y001720D01*
X014827Y001720D01*
X015097Y001989D01*
X015097Y002371D01*
X014877Y002591D01*
X014910Y002558D02*
X015364Y002558D01*
X015205Y002399D02*
X015068Y002399D01*
X015097Y002241D02*
X015177Y002241D01*
X015177Y002082D02*
X015097Y002082D01*
X015031Y001924D02*
X015243Y001924D01*
X015401Y001765D02*
X014872Y001765D01*
X014836Y001660D02*
X014657Y001660D01*
X014657Y001200D01*
X015117Y001200D01*
X015117Y001379D01*
X014836Y001660D01*
X014889Y001607D02*
X015384Y001607D01*
X015438Y001660D02*
X015157Y001379D01*
X015157Y001200D01*
X015617Y001200D01*
X015617Y001660D01*
X015438Y001660D01*
X015617Y001607D02*
X015657Y001607D01*
X015657Y001660D02*
X015836Y001660D01*
X016117Y001379D01*
X016117Y001200D01*
X015657Y001200D01*
X015657Y001160D01*
X016117Y001160D01*
X016117Y000981D01*
X015836Y000700D01*
X015657Y000700D01*
X015657Y001160D01*
X015617Y001160D01*
X015617Y000700D01*
X015438Y000700D01*
X015157Y000981D01*
X015157Y001160D01*
X015617Y001160D01*
X015617Y001200D01*
X015657Y001200D01*
X015657Y001660D01*
X015657Y001448D02*
X015617Y001448D01*
X015889Y001607D02*
X016384Y001607D01*
X016438Y001660D02*
X016157Y001379D01*
X016157Y001200D01*
X016617Y001200D01*
X016617Y001660D01*
X016438Y001660D01*
X016401Y001765D02*
X015872Y001765D01*
X016031Y001924D02*
X016243Y001924D01*
X016177Y002082D02*
X016097Y002082D01*
X016617Y001607D02*
X016657Y001607D01*
X016657Y001448D02*
X016617Y001448D01*
X016226Y001448D02*
X016048Y001448D01*
X016117Y001290D02*
X016157Y001290D01*
X016157Y001160D02*
X016157Y000981D01*
X016438Y000700D01*
X016617Y000700D01*
X016617Y001160D01*
X016657Y001160D01*
X016657Y001200D01*
X016617Y001200D01*
X016617Y001160D01*
X016157Y001160D01*
X016157Y001131D02*
X016117Y001131D01*
X016108Y000973D02*
X016165Y000973D01*
X016324Y000814D02*
X015950Y000814D01*
X015657Y000814D02*
X015617Y000814D01*
X015617Y000973D02*
X015657Y000973D01*
X015657Y001131D02*
X015617Y001131D01*
X015637Y001180D02*
X016637Y001180D01*
X017637Y001180D01*
X018637Y001180D01*
X019637Y001180D01*
X020637Y001180D01*
X021637Y001180D01*
X022637Y001180D01*
X022617Y001160D02*
X022617Y000700D01*
X022438Y000700D01*
X022157Y000981D01*
X022157Y001160D01*
X022617Y001160D01*
X022617Y001131D02*
X022657Y001131D01*
X022657Y000973D02*
X022617Y000973D01*
X022617Y000814D02*
X022657Y000814D01*
X022950Y000814D02*
X023324Y000814D01*
X023165Y000973D02*
X023108Y000973D01*
X022657Y001290D02*
X022617Y001290D01*
X022157Y001290D02*
X022117Y001290D01*
X022117Y001160D02*
X021657Y001160D01*
X021657Y001200D01*
X021617Y001200D01*
X021617Y001660D01*
X021438Y001660D01*
X021157Y001379D01*
X021157Y001200D01*
X021617Y001200D01*
X021617Y001160D01*
X021657Y001160D01*
X021657Y000700D01*
X021836Y000700D01*
X022117Y000981D01*
X022117Y001160D01*
X022117Y001131D02*
X022157Y001131D01*
X022165Y000973D02*
X022108Y000973D01*
X021950Y000814D02*
X022324Y000814D01*
X021657Y000814D02*
X021617Y000814D01*
X021617Y000700D02*
X021617Y001160D01*
X021157Y001160D01*
X021157Y000981D01*
X021438Y000700D01*
X021617Y000700D01*
X021324Y000814D02*
X020950Y000814D01*
X020836Y000700D02*
X020657Y000700D01*
X020657Y001160D01*
X020657Y001200D01*
X021117Y001200D01*
X021117Y001379D01*
X020836Y001660D01*
X020657Y001660D01*
X020657Y001200D01*
X020617Y001200D01*
X020617Y001660D01*
X020438Y001660D01*
X020157Y001379D01*
X020157Y001200D01*
X020617Y001200D01*
X020617Y001160D01*
X020657Y001160D01*
X021117Y001160D01*
X021117Y000981D01*
X020836Y000700D01*
X020657Y000814D02*
X020617Y000814D01*
X020617Y000700D02*
X020617Y001160D01*
X020157Y001160D01*
X020157Y000981D01*
X020438Y000700D01*
X020617Y000700D01*
X020324Y000814D02*
X019950Y000814D01*
X019836Y000700D02*
X019657Y000700D01*
X019657Y001160D01*
X019657Y001200D01*
X020117Y001200D01*
X020117Y001379D01*
X019836Y001660D01*
X019657Y001660D01*
X019657Y001200D01*
X019617Y001200D01*
X019617Y001660D01*
X019438Y001660D01*
X019157Y001379D01*
X019157Y001200D01*
X019617Y001200D01*
X019617Y001160D01*
X019657Y001160D01*
X020117Y001160D01*
X020117Y000981D01*
X019836Y000700D01*
X019657Y000814D02*
X019617Y000814D01*
X019617Y000700D02*
X019617Y001160D01*
X019157Y001160D01*
X019157Y000981D01*
X019438Y000700D01*
X019617Y000700D01*
X019324Y000814D02*
X018950Y000814D01*
X018836Y000700D02*
X018657Y000700D01*
X018657Y001160D01*
X018657Y001200D01*
X019117Y001200D01*
X019117Y001379D01*
X018836Y001660D01*
X018657Y001660D01*
X018657Y001200D01*
X018617Y001200D01*
X018617Y001160D01*
X018657Y001160D01*
X019117Y001160D01*
X019117Y000981D01*
X018836Y000700D01*
X018657Y000814D02*
X018617Y000814D01*
X018617Y000700D02*
X018617Y001160D01*
X018157Y001160D01*
X018157Y000981D01*
X018438Y000700D01*
X018617Y000700D01*
X018324Y000814D02*
X017950Y000814D01*
X017836Y000700D02*
X017657Y000700D01*
X017657Y001160D01*
X017657Y001200D01*
X017617Y001200D01*
X017617Y001160D01*
X017657Y001160D01*
X018117Y001160D01*
X018117Y000981D01*
X017836Y000700D01*
X017657Y000814D02*
X017617Y000814D01*
X017617Y000700D02*
X017617Y001160D01*
X017157Y001160D01*
X017157Y000981D01*
X017438Y000700D01*
X017617Y000700D01*
X017324Y000814D02*
X016950Y000814D01*
X016836Y000700D02*
X016657Y000700D01*
X016657Y001160D01*
X017117Y001160D01*
X017117Y000981D01*
X016836Y000700D01*
X016657Y000814D02*
X016617Y000814D01*
X016617Y000973D02*
X016657Y000973D01*
X016657Y001131D02*
X016617Y001131D01*
X016617Y001290D02*
X016657Y001290D01*
X017048Y001448D02*
X017226Y001448D01*
X017157Y001290D02*
X017117Y001290D01*
X017117Y001131D02*
X017157Y001131D01*
X017165Y000973D02*
X017108Y000973D01*
X017617Y000973D02*
X017657Y000973D01*
X017657Y001131D02*
X017617Y001131D01*
X017637Y001180D02*
X018137Y001680D01*
X018137Y002680D01*
X017763Y003054D01*
X017763Y004680D01*
X016511Y004680D01*
X016559Y004632D02*
X016559Y004205D01*
X016790Y004205D01*
X016836Y004217D01*
X016877Y004241D01*
X016911Y004274D01*
X016934Y004315D01*
X016947Y004361D01*
X016947Y004632D01*
X016559Y004632D01*
X016559Y004618D02*
X016463Y004618D01*
X016463Y004460D02*
X016559Y004460D01*
X016947Y004460D02*
X017327Y004460D01*
X017327Y004361D02*
X017339Y004315D01*
X017363Y004274D01*
X017396Y004241D01*
X017437Y004217D01*
X017483Y004205D01*
X017715Y004205D01*
X017715Y004632D01*
X017327Y004632D01*
X017327Y004361D01*
X017347Y004301D02*
X016926Y004301D01*
X016559Y004301D02*
X016463Y004301D01*
X015887Y004430D02*
X015887Y004556D01*
X015763Y004680D01*
X015887Y004556D02*
X015887Y004930D01*
X016137Y005680D01*
X016137Y006180D01*
X017034Y006328D01*
X017034Y007490D01*
X017349Y007490D02*
X017349Y006217D01*
X018137Y006180D01*
X018137Y005680D01*
X018637Y005180D01*
X018637Y004806D01*
X018511Y004680D01*
X017811Y004618D02*
X017715Y004618D01*
X017715Y004460D02*
X017811Y004460D01*
X017811Y004301D02*
X017715Y004301D01*
X017327Y004618D02*
X016947Y004618D01*
X016947Y004777D02*
X017327Y004777D01*
X017327Y004935D02*
X016947Y004935D01*
X016903Y005094D02*
X017371Y005094D01*
X017715Y005094D02*
X017811Y005094D01*
X017811Y004935D02*
X017715Y004935D01*
X017715Y004777D02*
X017811Y004777D01*
X018225Y005252D02*
X016247Y005252D01*
X016300Y005411D02*
X018067Y005411D01*
X017923Y005569D02*
X016353Y005569D01*
X016442Y005728D02*
X017832Y005728D01*
X017757Y005886D02*
X016517Y005886D01*
X016792Y006045D02*
X017182Y006045D01*
X017589Y006446D02*
X017589Y007080D01*
X017786Y007080D01*
X017800Y007072D01*
X017846Y007060D01*
X017979Y007060D01*
X017979Y007490D01*
X017979Y007490D01*
X017979Y007920D01*
X017877Y007920D01*
X017877Y007940D01*
X018037Y007940D01*
X018054Y007923D01*
X018054Y007920D01*
X017979Y007920D01*
X017979Y007490D01*
X017979Y007490D01*
X017979Y007060D01*
X018113Y007060D01*
X018159Y007072D01*
X018172Y007080D01*
X018416Y007080D01*
X018430Y007072D01*
X018476Y007060D01*
X018609Y007060D01*
X018609Y007490D01*
X018609Y007490D01*
X018609Y007920D01*
X018609Y007490D01*
X018609Y007490D01*
X018609Y007060D01*
X018684Y007060D01*
X018684Y006095D01*
X018721Y006007D01*
X018897Y005831D01*
X018897Y005071D01*
X018877Y005091D01*
X018877Y005228D01*
X018840Y005316D01*
X018773Y005383D01*
X018435Y005721D01*
X018459Y005745D01*
X018517Y005884D01*
X018517Y006476D01*
X018459Y006615D01*
X018352Y006722D01*
X018212Y006780D01*
X018061Y006780D01*
X017922Y006722D01*
X017815Y006615D01*
X017757Y006476D01*
X017757Y006438D01*
X017589Y006446D01*
X017589Y006520D02*
X017775Y006520D01*
X017878Y006679D02*
X017589Y006679D01*
X017589Y006837D02*
X018684Y006837D01*
X018557Y006900D02*
X018557Y006920D01*
X018557Y006900D02*
X018467Y006810D01*
X018107Y006810D01*
X018017Y006900D01*
X018017Y006920D01*
X017979Y007154D02*
X017979Y007154D01*
X017979Y007313D02*
X017979Y007313D01*
X017979Y007471D02*
X017979Y007471D01*
X017979Y007630D02*
X017979Y007630D01*
X017979Y007788D02*
X017979Y007788D01*
X018294Y008023D02*
X018137Y008180D01*
X017637Y008180D01*
X017637Y007518D01*
X017664Y007490D01*
X018294Y007490D02*
X018294Y008023D01*
X018609Y007788D02*
X018609Y007788D01*
X018609Y007630D02*
X018609Y007630D01*
X018609Y007471D02*
X018609Y007471D01*
X018924Y007490D02*
X018924Y006143D01*
X019137Y005930D01*
X019349Y006045D02*
X019397Y006045D01*
X019274Y006203D02*
X019203Y006203D01*
X019239Y006578D02*
X019637Y006180D01*
X019637Y004930D01*
X021637Y002930D01*
X021637Y002180D01*
X021177Y002241D02*
X021097Y002241D01*
X021097Y002371D02*
X020827Y002640D01*
X020446Y002640D01*
X020177Y002371D01*
X020177Y001989D01*
X020446Y001720D01*
X020827Y001720D01*
X021097Y001989D01*
X021097Y002371D01*
X021068Y002399D02*
X021205Y002399D01*
X021364Y002558D02*
X020910Y002558D01*
X020364Y002558D02*
X019910Y002558D01*
X019827Y002640D02*
X019446Y002640D01*
X019177Y002371D01*
X019177Y001989D01*
X019446Y001720D01*
X019827Y001720D01*
X020097Y001989D01*
X020097Y002371D01*
X019827Y002640D01*
X019364Y002558D02*
X018910Y002558D01*
X018877Y002716D02*
X021397Y002716D01*
X021353Y002875D02*
X018877Y002875D01*
X018877Y003033D02*
X021194Y003033D01*
X021036Y003192D02*
X018988Y003192D01*
X019146Y003350D02*
X020877Y003350D01*
X020719Y003509D02*
X019305Y003509D01*
X019377Y003667D02*
X020560Y003667D01*
X020402Y003826D02*
X019377Y003826D01*
X019377Y003984D02*
X020243Y003984D01*
X021239Y003667D02*
X021310Y003667D01*
X021398Y003509D02*
X021469Y003509D01*
X021556Y003350D02*
X021627Y003350D01*
X021715Y003192D02*
X021786Y003192D01*
X021854Y003033D02*
X021944Y003033D01*
X021877Y002875D02*
X022103Y002875D01*
X021177Y002082D02*
X021097Y002082D01*
X021031Y001924D02*
X021243Y001924D01*
X021401Y001765D02*
X020872Y001765D01*
X020889Y001607D02*
X021384Y001607D01*
X021226Y001448D02*
X021048Y001448D01*
X021617Y001448D02*
X021657Y001448D01*
X021657Y001607D02*
X021617Y001607D01*
X022048Y001448D02*
X022226Y001448D01*
X021657Y001290D02*
X021617Y001290D01*
X021617Y001131D02*
X021657Y001131D01*
X021657Y000973D02*
X021617Y000973D01*
X021165Y000973D02*
X021108Y000973D01*
X021117Y001131D02*
X021157Y001131D01*
X021157Y001290D02*
X021117Y001290D01*
X020657Y001290D02*
X020617Y001290D01*
X020617Y001131D02*
X020657Y001131D01*
X020657Y000973D02*
X020617Y000973D01*
X020165Y000973D02*
X020108Y000973D01*
X020117Y001131D02*
X020157Y001131D01*
X020157Y001290D02*
X020117Y001290D01*
X020048Y001448D02*
X020226Y001448D01*
X020384Y001607D02*
X019889Y001607D01*
X019872Y001765D02*
X020401Y001765D01*
X020243Y001924D02*
X020031Y001924D01*
X020097Y002082D02*
X020177Y002082D01*
X020177Y002241D02*
X020097Y002241D01*
X020068Y002399D02*
X020205Y002399D01*
X019205Y002399D02*
X019068Y002399D01*
X019097Y002241D02*
X019177Y002241D01*
X019177Y002082D02*
X019097Y002082D01*
X019031Y001924D02*
X019243Y001924D01*
X019401Y001765D02*
X018872Y001765D01*
X018889Y001607D02*
X019384Y001607D01*
X019226Y001448D02*
X019048Y001448D01*
X019617Y001448D02*
X019657Y001448D01*
X019657Y001607D02*
X019617Y001607D01*
X019617Y001290D02*
X019657Y001290D01*
X019657Y001131D02*
X019617Y001131D01*
X019617Y000973D02*
X019657Y000973D01*
X019165Y000973D02*
X019108Y000973D01*
X019117Y001131D02*
X019157Y001131D01*
X019157Y001290D02*
X019117Y001290D01*
X018657Y001290D02*
X018617Y001290D01*
X018617Y001131D02*
X018657Y001131D01*
X018657Y000973D02*
X018617Y000973D01*
X018165Y000973D02*
X018108Y000973D01*
X018117Y001131D02*
X018157Y001131D01*
X018157Y001290D02*
X018117Y001290D01*
X018048Y001448D02*
X018226Y001448D01*
X018617Y001448D02*
X018657Y001448D01*
X018657Y001607D02*
X018617Y001607D01*
X017657Y001290D02*
X017617Y001290D01*
X015657Y001290D02*
X015617Y001290D01*
X015637Y001180D02*
X014637Y001180D01*
X013637Y001180D01*
X012637Y001180D01*
X011637Y001180D01*
X010637Y001180D01*
X009637Y001180D01*
X009657Y001200D02*
X010117Y001200D01*
X010117Y001379D01*
X009836Y001660D01*
X009657Y001660D01*
X009657Y001200D01*
X009657Y001160D01*
X010117Y001160D01*
X010117Y000981D01*
X009836Y000700D01*
X009657Y000700D01*
X009657Y001160D01*
X009617Y001160D01*
X009617Y000700D01*
X009438Y000700D01*
X009157Y000981D01*
X009157Y001160D01*
X009617Y001160D01*
X009617Y001200D01*
X009617Y001660D01*
X009438Y001660D01*
X009157Y001379D01*
X009157Y001200D01*
X009617Y001200D01*
X009657Y001200D01*
X009657Y001131D02*
X009617Y001131D01*
X009617Y000973D02*
X009657Y000973D01*
X009657Y000814D02*
X009617Y000814D01*
X009324Y000814D02*
X003796Y000814D01*
X003862Y000973D02*
X009165Y000973D01*
X009157Y001131D02*
X003867Y001131D01*
X003867Y001290D02*
X009157Y001290D01*
X009617Y001290D02*
X009657Y001290D01*
X009657Y001448D02*
X009617Y001448D01*
X009617Y001607D02*
X009657Y001607D01*
X009827Y001720D02*
X009446Y001720D01*
X009177Y001989D01*
X009177Y002371D01*
X009446Y002640D01*
X009827Y002640D01*
X010097Y002371D01*
X010097Y001989D01*
X009827Y001720D01*
X009872Y001765D02*
X010401Y001765D01*
X010446Y001720D02*
X010177Y001989D01*
X010177Y002371D01*
X010446Y002640D01*
X010827Y002640D01*
X011097Y002371D01*
X011097Y001989D01*
X010827Y001720D01*
X010446Y001720D01*
X010438Y001660D02*
X010157Y001379D01*
X010157Y001200D01*
X010617Y001200D01*
X010617Y001660D01*
X010438Y001660D01*
X010384Y001607D02*
X009889Y001607D01*
X010048Y001448D02*
X010226Y001448D01*
X010617Y001448D02*
X010657Y001448D01*
X010657Y001607D02*
X010617Y001607D01*
X010657Y001660D02*
X010836Y001660D01*
X011117Y001379D01*
X011117Y001200D01*
X010657Y001200D01*
X010657Y001160D01*
X011117Y001160D01*
X011117Y000981D01*
X010836Y000700D01*
X010657Y000700D01*
X010657Y001160D01*
X010617Y001160D01*
X010617Y000700D01*
X010438Y000700D01*
X010157Y000981D01*
X010157Y001160D01*
X010617Y001160D01*
X010617Y001200D01*
X010657Y001200D01*
X010657Y001660D01*
X010889Y001607D02*
X011384Y001607D01*
X011438Y001660D02*
X011157Y001379D01*
X011157Y001200D01*
X011617Y001200D01*
X011617Y001660D01*
X011438Y001660D01*
X011446Y001720D02*
X011827Y001720D01*
X012097Y001989D01*
X012097Y002371D01*
X011827Y002640D01*
X011446Y002640D01*
X011177Y002371D01*
X011177Y001989D01*
X011446Y001720D01*
X011401Y001765D02*
X010872Y001765D01*
X011031Y001924D02*
X011243Y001924D01*
X011177Y002082D02*
X011097Y002082D01*
X011097Y002241D02*
X011177Y002241D01*
X011205Y002399D02*
X011068Y002399D01*
X010910Y002558D02*
X011364Y002558D01*
X011761Y002716D02*
X002367Y002716D01*
X002367Y002558D02*
X009364Y002558D01*
X009205Y002399D02*
X002367Y002399D01*
X002367Y002241D02*
X009177Y002241D01*
X009177Y002082D02*
X003270Y002082D01*
X003529Y001924D02*
X009243Y001924D01*
X009401Y001765D02*
X003688Y001765D01*
X003771Y001607D02*
X009384Y001607D01*
X009226Y001448D02*
X003837Y001448D01*
X002504Y002082D02*
X002367Y002082D01*
X002367Y002875D02*
X011603Y002875D01*
X011444Y003033D02*
X002367Y003033D01*
X002367Y003192D02*
X011286Y003192D01*
X011127Y003350D02*
X002367Y003350D01*
X002367Y003509D02*
X010969Y003509D01*
X010897Y003667D02*
X002367Y003667D01*
X002367Y003826D02*
X010897Y003826D01*
X010897Y003984D02*
X002367Y003984D01*
X002367Y004143D02*
X010897Y004143D01*
X010897Y004301D02*
X002367Y004301D01*
X002367Y004460D02*
X010897Y004460D01*
X010897Y004618D02*
X002367Y004618D01*
X002367Y004777D02*
X010917Y004777D01*
X011052Y004935D02*
X002367Y004935D01*
X002367Y005094D02*
X011211Y005094D01*
X011369Y005252D02*
X002367Y005252D01*
X002367Y005411D02*
X011528Y005411D01*
X011890Y005094D02*
X012397Y005094D01*
X012397Y005252D02*
X012048Y005252D01*
X012207Y005411D02*
X012397Y005411D01*
X012397Y005569D02*
X012365Y005569D01*
X012637Y005680D02*
X015637Y008680D01*
X016419Y008680D01*
X016447Y008708D01*
X016447Y009023D02*
X015479Y009023D01*
X011137Y004680D01*
X011137Y003680D01*
X012137Y002680D01*
X012637Y002680D01*
X012637Y002180D01*
X012177Y002241D02*
X012097Y002241D01*
X012097Y002082D02*
X012177Y002082D01*
X012243Y001924D02*
X012031Y001924D01*
X011872Y001765D02*
X012401Y001765D01*
X012438Y001660D02*
X012157Y001379D01*
X012157Y001200D01*
X012617Y001200D01*
X012617Y001660D01*
X012438Y001660D01*
X012384Y001607D02*
X011889Y001607D01*
X011836Y001660D02*
X011657Y001660D01*
X011657Y001200D01*
X012117Y001200D01*
X012117Y001379D01*
X011836Y001660D01*
X011657Y001607D02*
X011617Y001607D01*
X011617Y001448D02*
X011657Y001448D01*
X011226Y001448D02*
X011048Y001448D01*
X011117Y001290D02*
X011157Y001290D01*
X011157Y001160D02*
X011157Y000981D01*
X011438Y000700D01*
X011617Y000700D01*
X011617Y001160D01*
X011657Y001160D01*
X011657Y001200D01*
X011617Y001200D01*
X011617Y001160D01*
X011157Y001160D01*
X011157Y001131D02*
X011117Y001131D01*
X011108Y000973D02*
X011165Y000973D01*
X011324Y000814D02*
X010950Y000814D01*
X010657Y000814D02*
X010617Y000814D01*
X010617Y000973D02*
X010657Y000973D01*
X010657Y001131D02*
X010617Y001131D01*
X010617Y001290D02*
X010657Y001290D01*
X010157Y001290D02*
X010117Y001290D01*
X010117Y001131D02*
X010157Y001131D01*
X010165Y000973D02*
X010108Y000973D01*
X009950Y000814D02*
X010324Y000814D01*
X011617Y000814D02*
X011657Y000814D01*
X011657Y000700D02*
X011836Y000700D01*
X012117Y000981D01*
X012117Y001160D01*
X011657Y001160D01*
X011657Y000700D01*
X011950Y000814D02*
X012324Y000814D01*
X012438Y000700D02*
X012157Y000981D01*
X012157Y001160D01*
X012617Y001160D01*
X012657Y001160D01*
X012657Y001200D01*
X013117Y001200D01*
X013117Y001379D01*
X012836Y001660D01*
X012657Y001660D01*
X012657Y001200D01*
X012617Y001200D01*
X012617Y001160D01*
X012617Y000700D01*
X012438Y000700D01*
X012617Y000814D02*
X012657Y000814D01*
X012657Y000700D02*
X012836Y000700D01*
X013117Y000981D01*
X013117Y001160D01*
X012657Y001160D01*
X012657Y000700D01*
X012950Y000814D02*
X013324Y000814D01*
X013438Y000700D02*
X013157Y000981D01*
X013157Y001160D01*
X013617Y001160D01*
X013657Y001160D01*
X013657Y001200D01*
X014117Y001200D01*
X014117Y001379D01*
X013836Y001660D01*
X013657Y001660D01*
X013657Y001200D01*
X013617Y001200D01*
X013617Y001660D01*
X013438Y001660D01*
X013157Y001379D01*
X013157Y001200D01*
X013617Y001200D01*
X013617Y001160D01*
X013617Y000700D01*
X013438Y000700D01*
X013617Y000814D02*
X013657Y000814D01*
X013657Y000700D02*
X013836Y000700D01*
X014117Y000981D01*
X014117Y001160D01*
X013657Y001160D01*
X013657Y000700D01*
X013950Y000814D02*
X014324Y000814D01*
X014438Y000700D02*
X014157Y000981D01*
X014157Y001160D01*
X014617Y001160D01*
X014657Y001160D01*
X014657Y001200D01*
X014617Y001200D01*
X014617Y001660D01*
X014438Y001660D01*
X014157Y001379D01*
X014157Y001200D01*
X014617Y001200D01*
X014617Y001160D01*
X014617Y000700D01*
X014438Y000700D01*
X014617Y000814D02*
X014657Y000814D01*
X014657Y000700D02*
X014836Y000700D01*
X015117Y000981D01*
X015117Y001160D01*
X014657Y001160D01*
X014657Y000700D01*
X014950Y000814D02*
X015324Y000814D01*
X015165Y000973D02*
X015108Y000973D01*
X015117Y001131D02*
X015157Y001131D01*
X015157Y001290D02*
X015117Y001290D01*
X015048Y001448D02*
X015226Y001448D01*
X014657Y001448D02*
X014617Y001448D01*
X014617Y001607D02*
X014657Y001607D01*
X014384Y001607D02*
X013889Y001607D01*
X013872Y001765D02*
X014401Y001765D01*
X014243Y001924D02*
X014031Y001924D01*
X014097Y002082D02*
X014177Y002082D01*
X014177Y002241D02*
X014097Y002241D01*
X014068Y002399D02*
X014205Y002399D01*
X014364Y002558D02*
X013910Y002558D01*
X013877Y002716D02*
X014397Y002716D01*
X014397Y002875D02*
X013782Y002875D01*
X013623Y003033D02*
X014397Y003033D01*
X014286Y003192D02*
X013465Y003192D01*
X013306Y003350D02*
X014127Y003350D01*
X013969Y003509D02*
X013916Y003509D01*
X013358Y003509D02*
X012916Y003509D01*
X013046Y003667D02*
X013227Y003667D01*
X013177Y003826D02*
X013097Y003826D01*
X013097Y003984D02*
X013177Y003984D01*
X013177Y004143D02*
X013097Y004143D01*
X013097Y004301D02*
X013177Y004301D01*
X013637Y004180D02*
X014637Y003180D01*
X014637Y002180D01*
X013637Y002180D02*
X013637Y002680D01*
X013137Y003180D01*
X012137Y003180D01*
X011637Y003680D01*
X011637Y004180D01*
X012097Y004143D02*
X012177Y004143D01*
X012177Y004301D02*
X012097Y004301D01*
X012637Y004180D02*
X012637Y005680D01*
X012877Y005569D02*
X014397Y005569D01*
X014397Y005411D02*
X012877Y005411D01*
X012877Y005252D02*
X014397Y005252D01*
X014397Y005094D02*
X012877Y005094D01*
X012877Y004935D02*
X013533Y004935D01*
X013740Y004935D02*
X014397Y004935D01*
X014397Y004777D02*
X013991Y004777D01*
X014078Y004618D02*
X014397Y004618D01*
X014397Y004460D02*
X014097Y004460D01*
X014097Y004301D02*
X014397Y004301D01*
X014397Y004143D02*
X014097Y004143D01*
X014172Y003984D02*
X014493Y003984D01*
X014652Y003826D02*
X014331Y003826D01*
X014489Y003667D02*
X014810Y003667D01*
X014969Y003509D02*
X014648Y003509D01*
X014806Y003350D02*
X015127Y003350D01*
X015286Y003192D02*
X014877Y003192D01*
X014877Y003033D02*
X015444Y003033D01*
X014877Y002875D02*
X016103Y002875D01*
X016623Y003033D02*
X016944Y003033D01*
X016786Y003192D02*
X016465Y003192D01*
X016306Y003350D02*
X016627Y003350D01*
X016989Y003667D02*
X018784Y003667D01*
X018897Y003826D02*
X016831Y003826D01*
X016840Y003816D02*
X016840Y003816D01*
X017148Y003509D02*
X018626Y003509D01*
X018467Y003350D02*
X017306Y003350D01*
X017465Y003192D02*
X018397Y003192D01*
X018397Y003033D02*
X017623Y003033D01*
X017782Y002875D02*
X018397Y002875D01*
X018397Y002716D02*
X017877Y002716D01*
X017910Y002558D02*
X018364Y002558D01*
X018205Y002399D02*
X018068Y002399D01*
X017637Y002180D02*
X017637Y002680D01*
X017103Y002875D02*
X016782Y002875D01*
X015672Y003984D02*
X018897Y003984D01*
X018897Y004143D02*
X015514Y004143D01*
X016463Y004777D02*
X016559Y004777D01*
X016559Y004935D02*
X016463Y004935D01*
X016463Y005094D02*
X016559Y005094D01*
X018442Y005728D02*
X018897Y005728D01*
X018897Y005569D02*
X018587Y005569D01*
X018746Y005411D02*
X018897Y005411D01*
X018897Y005252D02*
X018867Y005252D01*
X018877Y005094D02*
X018897Y005094D01*
X019877Y005094D02*
X019913Y005094D01*
X019897Y005252D02*
X019877Y005252D01*
X019877Y005411D02*
X019897Y005411D01*
X019897Y005569D02*
X019877Y005569D01*
X019877Y005728D02*
X019897Y005728D01*
X019897Y005886D02*
X019877Y005886D01*
X019877Y006045D02*
X019897Y006045D01*
X019239Y006578D02*
X019239Y007490D01*
X019509Y007471D02*
X019587Y007471D01*
X019587Y007630D02*
X019509Y007630D01*
X019509Y007788D02*
X019587Y007788D01*
X019587Y007313D02*
X019509Y007313D01*
X019489Y007154D02*
X019587Y007154D01*
X019587Y006996D02*
X019479Y006996D01*
X019479Y006837D02*
X019587Y006837D01*
X019587Y006679D02*
X019479Y006679D01*
X018684Y006679D02*
X018396Y006679D01*
X018498Y006520D02*
X018684Y006520D01*
X018684Y006362D02*
X018517Y006362D01*
X018517Y006203D02*
X018684Y006203D01*
X018705Y006045D02*
X018517Y006045D01*
X018517Y005886D02*
X018841Y005886D01*
X019971Y004935D02*
X020042Y004935D01*
X020130Y004777D02*
X020201Y004777D01*
X020288Y004618D02*
X020359Y004618D01*
X020447Y004460D02*
X020518Y004460D01*
X022190Y005094D02*
X027884Y005094D01*
X027725Y005252D02*
X022163Y005252D01*
X022347Y005411D02*
X027567Y005411D01*
X027408Y005569D02*
X022385Y005569D01*
X022348Y005728D02*
X027250Y005728D01*
X027091Y005886D02*
X023811Y005886D01*
X023462Y005886D02*
X022256Y005886D01*
X021774Y005886D02*
X021377Y005886D01*
X021450Y005728D02*
X021746Y005728D01*
X021708Y005569D02*
X021635Y005569D01*
X022047Y005570D02*
X021797Y008050D01*
X022120Y007947D02*
X022175Y007947D01*
X022135Y008105D02*
X022872Y008105D01*
X022714Y008264D02*
X022062Y008264D01*
X022599Y007947D02*
X023031Y007947D01*
X023189Y007788D02*
X022708Y007788D01*
X022741Y007630D02*
X023348Y007630D01*
X023506Y007471D02*
X022873Y007471D01*
X022065Y007788D02*
X022064Y007788D01*
X021137Y008180D02*
X020609Y008708D01*
X021451Y009056D02*
X021921Y009056D01*
X021763Y009215D02*
X021377Y009215D01*
X021377Y009373D02*
X021604Y009373D01*
X021446Y009532D02*
X021377Y009532D01*
X022649Y010007D02*
X027157Y010007D01*
X027157Y010018D02*
X027157Y009700D01*
X027617Y009700D01*
X027617Y010460D01*
X027599Y010460D01*
X027524Y010448D01*
X027453Y010425D01*
X027385Y010391D01*
X027324Y010346D01*
X027271Y010293D01*
X027226Y010232D01*
X027192Y010164D01*
X027169Y010092D01*
X027157Y010018D01*
X027193Y010166D02*
X022491Y010166D01*
X022332Y010324D02*
X027302Y010324D01*
X027617Y010324D02*
X027657Y010324D01*
X027657Y010460D02*
X027657Y009700D01*
X028117Y009700D01*
X028117Y010018D01*
X028105Y010092D01*
X028082Y010164D01*
X028047Y010232D01*
X028003Y010293D01*
X027950Y010346D01*
X027888Y010391D01*
X027821Y010425D01*
X027749Y010448D01*
X027675Y010460D01*
X027657Y010460D01*
X027972Y010324D02*
X029330Y010324D01*
X029376Y010370D02*
X029247Y010241D01*
X029177Y010071D01*
X029177Y009288D01*
X029247Y009119D01*
X029376Y008990D01*
X029545Y008920D01*
X029728Y008920D01*
X029897Y008990D01*
X030027Y009119D01*
X030097Y009288D01*
X030097Y010071D01*
X030027Y010241D01*
X029897Y010370D01*
X029728Y010440D01*
X029545Y010440D01*
X029376Y010370D01*
X029943Y010324D02*
X031379Y010324D01*
X031357Y010160D02*
X031357Y010142D01*
X031369Y010068D01*
X031392Y009996D01*
X031426Y009928D01*
X031471Y009867D01*
X031524Y009814D01*
X031585Y009769D01*
X031653Y009735D01*
X031724Y009712D01*
X031799Y009700D01*
X032117Y009700D01*
X032117Y010160D01*
X031357Y010160D01*
X031388Y010007D02*
X030097Y010007D01*
X030097Y009849D02*
X031489Y009849D01*
X032117Y009849D02*
X032157Y009849D01*
X032157Y010007D02*
X032117Y010007D01*
X032117Y010166D02*
X030058Y010166D01*
X030097Y009690D02*
X032777Y009690D01*
X032777Y009532D02*
X030097Y009532D01*
X030097Y009373D02*
X032777Y009373D01*
X032777Y009215D02*
X030066Y009215D01*
X029963Y009056D02*
X032777Y009056D01*
X032777Y008898D02*
X023759Y008898D01*
X023917Y008739D02*
X032777Y008739D01*
X032777Y008581D02*
X024076Y008581D01*
X024234Y008422D02*
X032777Y008422D01*
X032777Y008264D02*
X024393Y008264D01*
X024551Y008105D02*
X032777Y008105D01*
X032777Y007947D02*
X024710Y007947D01*
X027271Y009067D02*
X027324Y009014D01*
X027385Y008969D01*
X027453Y008935D01*
X027524Y008912D01*
X027599Y008900D01*
X027617Y008900D01*
X027617Y009660D01*
X027657Y009660D01*
X027657Y009700D01*
X027617Y009700D01*
X027617Y009660D01*
X027157Y009660D01*
X027157Y009342D01*
X027169Y009268D01*
X027192Y009196D01*
X027226Y009128D01*
X027271Y009067D01*
X027282Y009056D02*
X023600Y009056D01*
X023442Y009215D02*
X027186Y009215D01*
X027157Y009373D02*
X023283Y009373D01*
X023125Y009532D02*
X027157Y009532D01*
X027617Y009532D02*
X027657Y009532D01*
X027657Y009660D02*
X027657Y008900D01*
X027675Y008900D01*
X027749Y008912D01*
X027821Y008935D01*
X027888Y008969D01*
X027950Y009014D01*
X028003Y009067D01*
X028047Y009128D01*
X028082Y009196D01*
X028105Y009268D01*
X028117Y009342D01*
X028117Y009660D01*
X027657Y009660D01*
X027657Y009690D02*
X029177Y009690D01*
X029177Y009532D02*
X028117Y009532D01*
X028117Y009373D02*
X029177Y009373D01*
X029207Y009215D02*
X028088Y009215D01*
X027992Y009056D02*
X029310Y009056D01*
X029177Y009849D02*
X028117Y009849D01*
X028117Y010007D02*
X029177Y010007D01*
X029216Y010166D02*
X028081Y010166D01*
X027657Y010166D02*
X027617Y010166D01*
X027617Y010007D02*
X027657Y010007D01*
X027657Y009849D02*
X027617Y009849D01*
X027617Y009690D02*
X022966Y009690D01*
X022808Y009849D02*
X027157Y009849D01*
X027617Y009373D02*
X027657Y009373D01*
X027657Y009215D02*
X027617Y009215D01*
X027617Y009056D02*
X027657Y009056D01*
X031463Y010483D02*
X022174Y010483D01*
X022015Y010641D02*
X031702Y010641D01*
X031567Y010800D02*
X021857Y010800D01*
X021637Y011680D02*
X019637Y011680D01*
X019137Y012180D01*
X018637Y012180D01*
X018575Y012543D02*
X018948Y012543D01*
X018838Y012702D02*
X018686Y012702D01*
X018722Y012860D02*
X018802Y012860D01*
X018802Y013019D02*
X018722Y013019D01*
X018722Y013177D02*
X018802Y013177D01*
X018802Y013336D02*
X018722Y013336D01*
X018722Y013494D02*
X018802Y013494D01*
X018835Y013653D02*
X018688Y013653D01*
X017835Y013653D02*
X017688Y013653D01*
X017722Y013494D02*
X017802Y013494D01*
X017802Y013336D02*
X017722Y013336D01*
X017722Y013177D02*
X017802Y013177D01*
X017802Y013019D02*
X017722Y013019D01*
X017722Y012860D02*
X017802Y012860D01*
X017838Y012702D02*
X017686Y012702D01*
X017575Y012543D02*
X017948Y012543D01*
X016948Y012543D02*
X016575Y012543D01*
X016686Y012702D02*
X016838Y012702D01*
X016802Y012860D02*
X016722Y012860D01*
X016722Y013019D02*
X016802Y013019D01*
X016802Y013177D02*
X016722Y013177D01*
X016722Y013336D02*
X016802Y013336D01*
X016802Y013494D02*
X016722Y013494D01*
X016688Y013653D02*
X016835Y013653D01*
X015835Y013653D02*
X015710Y013653D01*
X015742Y013494D02*
X015802Y013494D01*
X015802Y013336D02*
X015742Y013336D01*
X015802Y013177D02*
X015282Y013177D01*
X015282Y013160D02*
X015742Y013160D01*
X015742Y012842D01*
X015730Y012768D01*
X015707Y012696D01*
X015672Y012628D01*
X015628Y012567D01*
X015575Y012514D01*
X015513Y012469D01*
X015446Y012435D01*
X015374Y012412D01*
X015300Y012400D01*
X015282Y012400D01*
X015282Y013160D01*
X015282Y013019D02*
X015242Y013019D01*
X015242Y012860D02*
X015282Y012860D01*
X015282Y012702D02*
X015242Y012702D01*
X015242Y012543D02*
X015282Y012543D01*
X015604Y012543D02*
X015948Y012543D01*
X015838Y012702D02*
X015709Y012702D01*
X015742Y012860D02*
X015802Y012860D01*
X015802Y013019D02*
X015742Y013019D01*
X014782Y013336D02*
X012689Y013336D01*
X012513Y013494D02*
X014782Y013494D01*
X014813Y013653D02*
X012270Y013653D01*
X011843Y013653D02*
X011589Y013653D01*
X011405Y013653D02*
X011368Y013653D01*
X011185Y013653D02*
X010589Y013653D01*
X010405Y013653D02*
X010368Y013653D01*
X010185Y013653D02*
X009589Y013653D01*
X009405Y013653D02*
X009368Y013653D01*
X009185Y013653D02*
X008589Y013653D01*
X008405Y013653D02*
X008368Y013653D01*
X008185Y013653D02*
X003752Y013653D01*
X003817Y013494D02*
X007055Y013494D01*
X006930Y013336D02*
X003867Y013336D01*
X003867Y013177D02*
X006930Y013177D01*
X006930Y013019D02*
X003867Y013019D01*
X003815Y012860D02*
X007061Y012860D01*
X009368Y013336D02*
X009405Y013336D01*
X009405Y013494D02*
X009368Y013494D01*
X009747Y013494D02*
X010026Y013494D01*
X009910Y013336D02*
X009864Y013336D01*
X010368Y013336D02*
X010405Y013336D01*
X010405Y013494D02*
X010368Y013494D01*
X010747Y013494D02*
X011026Y013494D01*
X010910Y013336D02*
X010864Y013336D01*
X011368Y013336D02*
X011405Y013336D01*
X011405Y013494D02*
X011368Y013494D01*
X011747Y013494D02*
X011777Y013494D01*
X012367Y013160D02*
X012387Y013180D01*
X008406Y010166D02*
X002367Y010166D01*
X002367Y010007D02*
X008367Y010007D01*
X008367Y009849D02*
X002367Y009849D01*
X002367Y009690D02*
X008411Y009690D01*
X007169Y009532D02*
X002367Y009532D01*
X002367Y009373D02*
X007147Y009373D01*
X007147Y009215D02*
X002367Y009215D01*
X002367Y009056D02*
X007147Y009056D01*
X007147Y008898D02*
X002367Y008898D01*
X002367Y008739D02*
X007147Y008739D01*
X007147Y008581D02*
X002367Y008581D01*
X002367Y008422D02*
X007147Y008422D01*
X007147Y008264D02*
X002367Y008264D01*
X002367Y008105D02*
X007147Y008105D01*
X007147Y007947D02*
X007099Y007947D01*
X007627Y007947D02*
X007642Y007947D01*
X007627Y007788D02*
X007939Y007788D01*
X008137Y007930D02*
X007887Y008180D01*
X008137Y007930D02*
X008927Y007930D01*
X009487Y007947D02*
X010787Y007947D01*
X010787Y008105D02*
X009487Y008105D01*
X009487Y008264D02*
X010787Y008264D01*
X010787Y008422D02*
X009487Y008422D01*
X009487Y008581D02*
X010787Y008581D01*
X010137Y009180D02*
X009887Y008930D01*
X011853Y008680D02*
X011863Y008690D01*
X014307Y008690D01*
X011927Y006309D01*
X011927Y006430D01*
X011927Y006584D01*
X011915Y006629D01*
X011891Y006671D01*
X011867Y006694D01*
X011907Y006734D01*
X011907Y007126D01*
X011853Y007180D01*
X011907Y007234D01*
X011907Y007626D01*
X011853Y007680D01*
X011907Y007734D01*
X011907Y008126D01*
X011853Y008180D01*
X011907Y008234D01*
X011907Y008626D01*
X011853Y008680D01*
X011907Y008581D02*
X014198Y008581D01*
X014039Y008422D02*
X011907Y008422D01*
X011907Y008264D02*
X013881Y008264D01*
X013722Y008105D02*
X011907Y008105D01*
X011907Y007947D02*
X013564Y007947D01*
X013405Y007788D02*
X011907Y007788D01*
X011904Y007630D02*
X013247Y007630D01*
X013088Y007471D02*
X011907Y007471D01*
X011907Y007313D02*
X012930Y007313D01*
X012771Y007154D02*
X011879Y007154D01*
X011907Y006996D02*
X012613Y006996D01*
X012454Y006837D02*
X011907Y006837D01*
X011883Y006679D02*
X012296Y006679D01*
X012137Y006520D02*
X011927Y006520D01*
X011927Y006430D02*
X011347Y006430D01*
X011347Y006430D01*
X011927Y006430D01*
X011927Y006362D02*
X011979Y006362D01*
X011347Y006362D02*
X011347Y006362D01*
X011347Y006430D02*
X011347Y006120D01*
X011347Y006430D01*
X011347Y006430D01*
X010547Y006430D01*
X010377Y006362D02*
X010767Y006362D01*
X010767Y006430D02*
X011347Y006430D01*
X011347Y006430D01*
X010767Y006430D01*
X010767Y006520D02*
X010377Y006520D01*
X010377Y006679D02*
X010811Y006679D01*
X010787Y006837D02*
X010377Y006837D01*
X010377Y006996D02*
X010787Y006996D01*
X010815Y007154D02*
X010377Y007154D01*
X010342Y007313D02*
X010787Y007313D01*
X010787Y007471D02*
X010185Y007471D01*
X010027Y007630D02*
X010790Y007630D01*
X010787Y007788D02*
X009487Y007788D01*
X008370Y007630D02*
X007627Y007630D01*
X007627Y007471D02*
X008367Y007471D01*
X009459Y007154D02*
X009823Y007154D01*
X009897Y006996D02*
X009487Y006996D01*
X009487Y006837D02*
X009897Y006837D01*
X009897Y006679D02*
X009435Y006679D01*
X009487Y006520D02*
X009897Y006520D01*
X009897Y006362D02*
X009487Y006362D01*
X009456Y006203D02*
X009897Y006203D01*
X009933Y006045D02*
X002367Y006045D01*
X002367Y006203D02*
X008398Y006203D01*
X008367Y006362D02*
X002367Y006362D01*
X002367Y006520D02*
X004913Y006520D01*
X004912Y006526D02*
X004924Y006481D01*
X004947Y006440D01*
X004981Y006406D01*
X005022Y006382D01*
X005068Y006370D01*
X005339Y006370D01*
X005339Y006758D01*
X004912Y006758D01*
X004912Y006526D01*
X004912Y006679D02*
X002367Y006679D01*
X002367Y006837D02*
X005339Y006837D01*
X005435Y006837D02*
X007126Y006837D01*
X008367Y006520D02*
X005860Y006520D01*
X005435Y006520D02*
X005339Y006520D01*
X005339Y006679D02*
X005435Y006679D01*
X004912Y006996D02*
X002367Y006996D01*
X002367Y007154D02*
X004937Y007154D01*
X004932Y007313D02*
X002367Y007313D01*
X002367Y007471D02*
X004932Y007471D01*
X004932Y007630D02*
X002367Y007630D01*
X002367Y007788D02*
X004932Y007788D01*
X005002Y007947D02*
X002367Y007947D01*
X005387Y007554D02*
X005511Y007554D01*
X005637Y007680D01*
X002367Y005886D02*
X010091Y005886D01*
X010250Y005728D02*
X002367Y005728D01*
X002367Y005569D02*
X010408Y005569D01*
X010433Y005544D02*
X010433Y005544D01*
X010612Y006045D02*
X011662Y006045D01*
X011347Y006203D02*
X011347Y006203D01*
X010795Y006203D02*
X010453Y006203D01*
X013024Y005728D02*
X014397Y005728D01*
X014397Y005886D02*
X013182Y005886D01*
X013341Y006045D02*
X014397Y006045D01*
X014397Y006203D02*
X013499Y006203D01*
X013658Y006362D02*
X014397Y006362D01*
X014397Y006520D02*
X013816Y006520D01*
X013975Y006679D02*
X014397Y006679D01*
X014397Y006837D02*
X014133Y006837D01*
X014292Y006996D02*
X014397Y006996D01*
X017589Y006996D02*
X018684Y006996D01*
X018609Y007154D02*
X018609Y007154D01*
X018609Y007313D02*
X018609Y007313D01*
X017637Y008180D02*
X017637Y009180D01*
X019357Y009373D02*
X019417Y009373D01*
X021637Y011680D02*
X022137Y012180D01*
X021948Y012543D02*
X021575Y012543D01*
X021686Y012702D02*
X021838Y012702D01*
X021802Y012860D02*
X021722Y012860D01*
X021722Y013019D02*
X021802Y013019D01*
X021802Y013177D02*
X021722Y013177D01*
X021722Y013336D02*
X021802Y013336D01*
X021802Y013494D02*
X021722Y013494D01*
X021688Y013653D02*
X021835Y013653D01*
X022688Y013653D02*
X022835Y013653D01*
X022802Y013494D02*
X022722Y013494D01*
X022722Y013336D02*
X022802Y013336D01*
X022802Y013177D02*
X022722Y013177D01*
X022722Y013019D02*
X022802Y013019D01*
X022802Y012860D02*
X022722Y012860D01*
X022686Y012702D02*
X022838Y012702D01*
X022948Y012543D02*
X022575Y012543D01*
X023575Y012543D02*
X023948Y012543D01*
X023838Y012702D02*
X023686Y012702D01*
X023722Y012860D02*
X023802Y012860D01*
X023802Y013019D02*
X023722Y013019D01*
X023722Y013177D02*
X023802Y013177D01*
X023802Y013336D02*
X023722Y013336D01*
X023722Y013494D02*
X023802Y013494D01*
X023835Y013653D02*
X023688Y013653D01*
X024688Y013653D02*
X024835Y013653D01*
X024802Y013494D02*
X024722Y013494D01*
X024722Y013336D02*
X024802Y013336D01*
X024802Y013177D02*
X024722Y013177D01*
X024722Y013019D02*
X024802Y013019D01*
X024802Y012860D02*
X024722Y012860D01*
X024686Y012702D02*
X024838Y012702D01*
X024948Y012543D02*
X024575Y012543D01*
X025575Y012543D02*
X025948Y012543D01*
X025838Y012702D02*
X025686Y012702D01*
X025722Y012860D02*
X025802Y012860D01*
X025802Y013019D02*
X025722Y013019D01*
X025722Y013177D02*
X025802Y013177D01*
X025802Y013336D02*
X025722Y013336D01*
X025722Y013494D02*
X025802Y013494D01*
X025835Y013653D02*
X025688Y013653D01*
X026688Y013653D02*
X026835Y013653D01*
X026802Y013494D02*
X026722Y013494D01*
X026722Y013336D02*
X026802Y013336D01*
X026802Y013177D02*
X026722Y013177D01*
X026722Y013019D02*
X026802Y013019D01*
X026802Y012860D02*
X026722Y012860D01*
X026686Y012702D02*
X026838Y012702D01*
X026948Y012543D02*
X026575Y012543D01*
X029575Y012543D02*
X029920Y012543D01*
X029896Y012567D02*
X029949Y012514D01*
X030010Y012469D01*
X030078Y012435D01*
X030149Y012412D01*
X030224Y012400D01*
X030242Y012400D01*
X030242Y013160D01*
X029782Y013160D01*
X029782Y012842D01*
X029794Y012768D01*
X029817Y012696D01*
X029851Y012628D01*
X029896Y012567D01*
X029815Y012702D02*
X029686Y012702D01*
X029722Y012860D02*
X029782Y012860D01*
X029782Y013019D02*
X029722Y013019D01*
X029722Y013177D02*
X030242Y013177D01*
X030282Y013177D02*
X031407Y013177D01*
X031407Y013019D02*
X030742Y013019D01*
X030742Y013160D02*
X030742Y012842D01*
X030730Y012768D01*
X030707Y012696D01*
X030672Y012628D01*
X030628Y012567D01*
X030575Y012514D01*
X030513Y012469D01*
X030446Y012435D01*
X030374Y012412D01*
X030300Y012400D01*
X030282Y012400D01*
X030282Y013160D01*
X030742Y013160D01*
X030742Y013336D02*
X031407Y013336D01*
X031456Y013494D02*
X030742Y013494D01*
X030710Y013653D02*
X031522Y013653D01*
X030282Y013019D02*
X030242Y013019D01*
X030242Y012860D02*
X030282Y012860D01*
X030282Y012702D02*
X030242Y012702D01*
X030242Y012543D02*
X030282Y012543D01*
X030604Y012543D02*
X031638Y012543D01*
X031524Y012702D02*
X030709Y012702D01*
X030742Y012860D02*
X031459Y012860D01*
X029782Y013336D02*
X029722Y013336D01*
X029722Y013494D02*
X029782Y013494D01*
X029813Y013653D02*
X029688Y013653D01*
X032707Y010800D02*
X032777Y010800D01*
X032777Y010641D02*
X032571Y010641D01*
X032157Y010641D02*
X032117Y010641D01*
X032117Y010483D02*
X032157Y010483D01*
X032157Y010324D02*
X032117Y010324D01*
X021694Y006679D02*
X021377Y006679D01*
X021377Y006837D02*
X021678Y006837D01*
X021710Y006520D02*
X021377Y006520D01*
X021377Y006362D02*
X021726Y006362D01*
X021742Y006203D02*
X021377Y006203D01*
X021377Y006045D02*
X021758Y006045D01*
X013364Y002558D02*
X012910Y002558D01*
X012877Y002716D02*
X013261Y002716D01*
X013103Y002875D02*
X012782Y002875D01*
X011920Y002558D02*
X011910Y002558D01*
X012068Y002399D02*
X012205Y002399D01*
X013068Y002399D02*
X013205Y002399D01*
X013177Y002241D02*
X013097Y002241D01*
X013097Y002082D02*
X013177Y002082D01*
X013243Y001924D02*
X013031Y001924D01*
X012872Y001765D02*
X013401Y001765D01*
X013384Y001607D02*
X012889Y001607D01*
X013048Y001448D02*
X013226Y001448D01*
X013617Y001448D02*
X013657Y001448D01*
X013657Y001607D02*
X013617Y001607D01*
X014048Y001448D02*
X014226Y001448D01*
X014157Y001290D02*
X014117Y001290D01*
X014117Y001131D02*
X014157Y001131D01*
X014165Y000973D02*
X014108Y000973D01*
X014617Y000973D02*
X014657Y000973D01*
X014657Y001131D02*
X014617Y001131D01*
X014617Y001290D02*
X014657Y001290D01*
X013657Y001290D02*
X013617Y001290D01*
X013617Y001131D02*
X013657Y001131D01*
X013657Y000973D02*
X013617Y000973D01*
X013165Y000973D02*
X013108Y000973D01*
X013117Y001131D02*
X013157Y001131D01*
X013157Y001290D02*
X013117Y001290D01*
X012657Y001290D02*
X012617Y001290D01*
X012617Y001131D02*
X012657Y001131D01*
X012657Y000973D02*
X012617Y000973D01*
X012165Y000973D02*
X012108Y000973D01*
X012117Y001131D02*
X012157Y001131D01*
X012157Y001290D02*
X012117Y001290D01*
X012048Y001448D02*
X012226Y001448D01*
X012617Y001448D02*
X012657Y001448D01*
X012657Y001607D02*
X012617Y001607D01*
X011657Y001290D02*
X011617Y001290D01*
X011617Y001131D02*
X011657Y001131D01*
X011657Y000973D02*
X011617Y000973D01*
X010243Y001924D02*
X010031Y001924D01*
X010097Y002082D02*
X010177Y002082D01*
X010177Y002241D02*
X010097Y002241D01*
X010068Y002399D02*
X010205Y002399D01*
X010364Y002558D02*
X009910Y002558D01*
X012148Y003509D02*
X012358Y003509D01*
X012227Y003667D02*
X012046Y003667D01*
X012097Y003826D02*
X012177Y003826D01*
X012177Y003984D02*
X012097Y003984D01*
X012097Y004460D02*
X012177Y004460D01*
X012196Y004618D02*
X012078Y004618D01*
X011991Y004777D02*
X012283Y004777D01*
X012397Y004935D02*
X011740Y004935D01*
X012991Y004777D02*
X013283Y004777D01*
X013196Y004618D02*
X013078Y004618D01*
X013097Y004460D02*
X013177Y004460D01*
X020617Y001607D02*
X020657Y001607D01*
X020657Y001448D02*
X020617Y001448D01*
X024117Y001290D02*
X024157Y001290D01*
X024157Y001131D02*
X024117Y001131D01*
X024108Y000973D02*
X024165Y000973D01*
X024617Y000973D02*
X024657Y000973D01*
X024657Y001131D02*
X024617Y001131D01*
X024617Y001290D02*
X024657Y001290D01*
X025048Y001448D02*
X025226Y001448D01*
X025617Y001448D02*
X025657Y001448D01*
X025657Y001607D02*
X025617Y001607D01*
X025889Y001607D02*
X031503Y001607D01*
X031437Y001448D02*
X026048Y001448D01*
X026117Y001290D02*
X031407Y001290D01*
X031407Y001131D02*
X026117Y001131D01*
X026108Y000973D02*
X031412Y000973D01*
X031478Y000814D02*
X025950Y000814D01*
X025165Y000973D02*
X025108Y000973D01*
X025117Y001131D02*
X025157Y001131D01*
X025157Y001290D02*
X025117Y001290D01*
X025617Y001290D02*
X025657Y001290D01*
X025872Y001765D02*
X031586Y001765D01*
X031744Y001924D02*
X026031Y001924D01*
X026097Y002082D02*
X032004Y002082D01*
X032770Y002082D02*
X032777Y002082D01*
X032777Y002241D02*
X026097Y002241D01*
X026068Y002399D02*
X032777Y002399D01*
X032733Y003826D02*
X032777Y003826D01*
X020948Y012543D02*
X020575Y012543D01*
X020686Y012702D02*
X020838Y012702D01*
X020802Y012860D02*
X020722Y012860D01*
X020722Y013019D02*
X020802Y013019D01*
X020802Y013177D02*
X020722Y013177D01*
X020722Y013336D02*
X020802Y013336D01*
X020802Y013494D02*
X020722Y013494D01*
X020688Y013653D02*
X020835Y013653D01*
X019835Y013653D02*
X019688Y013653D01*
X019722Y013494D02*
X019802Y013494D01*
X019802Y013336D02*
X019722Y013336D01*
X019722Y013177D02*
X019802Y013177D01*
X019802Y013019D02*
X019722Y013019D01*
X019722Y012860D02*
X019802Y012860D01*
X019838Y012702D02*
X019686Y012702D01*
X019575Y012543D02*
X019948Y012543D01*
D22*
X014057Y011470D02*
X012367Y013160D01*
X012057Y013470D01*
X012387Y009930D02*
X011347Y009930D01*
X012387Y009930D02*
X012637Y009680D01*
X006887Y007680D02*
X005637Y007680D01*
X030137Y010680D02*
X032137Y010180D01*
D23*
X030137Y010680D03*
X022387Y007680D03*
X021797Y008050D03*
X021137Y008930D03*
X020637Y009180D03*
X019277Y009040D03*
X014637Y010930D03*
X014137Y010430D03*
X013137Y009680D03*
X012637Y009680D03*
X010637Y009180D03*
X007887Y008180D03*
X006887Y007680D03*
X007387Y007055D03*
X010547Y006430D03*
X010887Y011180D03*
X009887Y011430D03*
X012387Y013180D03*
X017297Y011470D03*
X017387Y012180D03*
X022137Y012180D03*
X023637Y006180D03*
X022047Y005570D03*
X029637Y005680D03*
X029637Y004680D03*
D24*
X019827Y009023D02*
X019817Y009040D01*
X019277Y009040D01*
X018557Y008010D02*
X018609Y007490D01*
X018557Y006920D01*
X018017Y006920D02*
X017979Y007490D01*
X018287Y010840D02*
X018294Y010870D01*
X018287Y010930D01*
X018287Y011110D01*
X017349Y010870D02*
X017297Y010930D01*
X017297Y011470D01*
X009637Y001180D02*
X009557Y001210D01*
D25*
X014057Y011470D02*
X017297Y011470D01*
M02*
