G75*
%MOIN*%
%OFA0B0*%
%FSLAX24Y24*%
%IPPOS*%
%LPD*%
%AMOC8*
5,1,8,0,0,1.08239X$1,22.5*
%
%ADD10C,0.0000*%
%ADD11C,0.0060*%
%ADD12C,0.0020*%
%ADD13C,0.0050*%
%ADD14C,0.0010*%
%ADD15C,0.0040*%
D10*
X001887Y000180D02*
X001887Y014176D01*
X033257Y014176D01*
X033257Y000180D01*
X001887Y000180D01*
X002387Y001180D02*
X002389Y001224D01*
X002395Y001268D01*
X002405Y001311D01*
X002418Y001353D01*
X002435Y001394D01*
X002456Y001433D01*
X002480Y001470D01*
X002507Y001505D01*
X002537Y001537D01*
X002570Y001567D01*
X002606Y001593D01*
X002643Y001617D01*
X002683Y001636D01*
X002724Y001653D01*
X002767Y001665D01*
X002810Y001674D01*
X002854Y001679D01*
X002898Y001680D01*
X002942Y001677D01*
X002986Y001670D01*
X003029Y001659D01*
X003071Y001645D01*
X003111Y001627D01*
X003150Y001605D01*
X003186Y001581D01*
X003220Y001553D01*
X003252Y001522D01*
X003281Y001488D01*
X003307Y001452D01*
X003329Y001414D01*
X003348Y001374D01*
X003363Y001332D01*
X003375Y001290D01*
X003383Y001246D01*
X003387Y001202D01*
X003387Y001158D01*
X003383Y001114D01*
X003375Y001070D01*
X003363Y001028D01*
X003348Y000986D01*
X003329Y000946D01*
X003307Y000908D01*
X003281Y000872D01*
X003252Y000838D01*
X003220Y000807D01*
X003186Y000779D01*
X003150Y000755D01*
X003111Y000733D01*
X003071Y000715D01*
X003029Y000701D01*
X002986Y000690D01*
X002942Y000683D01*
X002898Y000680D01*
X002854Y000681D01*
X002810Y000686D01*
X002767Y000695D01*
X002724Y000707D01*
X002683Y000724D01*
X002643Y000743D01*
X002606Y000767D01*
X002570Y000793D01*
X002537Y000823D01*
X002507Y000855D01*
X002480Y000890D01*
X002456Y000927D01*
X002435Y000966D01*
X002418Y001007D01*
X002405Y001049D01*
X002395Y001092D01*
X002389Y001136D01*
X002387Y001180D01*
X002387Y013180D02*
X002389Y013224D01*
X002395Y013268D01*
X002405Y013311D01*
X002418Y013353D01*
X002435Y013394D01*
X002456Y013433D01*
X002480Y013470D01*
X002507Y013505D01*
X002537Y013537D01*
X002570Y013567D01*
X002606Y013593D01*
X002643Y013617D01*
X002683Y013636D01*
X002724Y013653D01*
X002767Y013665D01*
X002810Y013674D01*
X002854Y013679D01*
X002898Y013680D01*
X002942Y013677D01*
X002986Y013670D01*
X003029Y013659D01*
X003071Y013645D01*
X003111Y013627D01*
X003150Y013605D01*
X003186Y013581D01*
X003220Y013553D01*
X003252Y013522D01*
X003281Y013488D01*
X003307Y013452D01*
X003329Y013414D01*
X003348Y013374D01*
X003363Y013332D01*
X003375Y013290D01*
X003383Y013246D01*
X003387Y013202D01*
X003387Y013158D01*
X003383Y013114D01*
X003375Y013070D01*
X003363Y013028D01*
X003348Y012986D01*
X003329Y012946D01*
X003307Y012908D01*
X003281Y012872D01*
X003252Y012838D01*
X003220Y012807D01*
X003186Y012779D01*
X003150Y012755D01*
X003111Y012733D01*
X003071Y012715D01*
X003029Y012701D01*
X002986Y012690D01*
X002942Y012683D01*
X002898Y012680D01*
X002854Y012681D01*
X002810Y012686D01*
X002767Y012695D01*
X002724Y012707D01*
X002683Y012724D01*
X002643Y012743D01*
X002606Y012767D01*
X002570Y012793D01*
X002537Y012823D01*
X002507Y012855D01*
X002480Y012890D01*
X002456Y012927D01*
X002435Y012966D01*
X002418Y013007D01*
X002405Y013049D01*
X002395Y013092D01*
X002389Y013136D01*
X002387Y013180D01*
X031887Y013180D02*
X031889Y013224D01*
X031895Y013268D01*
X031905Y013311D01*
X031918Y013353D01*
X031935Y013394D01*
X031956Y013433D01*
X031980Y013470D01*
X032007Y013505D01*
X032037Y013537D01*
X032070Y013567D01*
X032106Y013593D01*
X032143Y013617D01*
X032183Y013636D01*
X032224Y013653D01*
X032267Y013665D01*
X032310Y013674D01*
X032354Y013679D01*
X032398Y013680D01*
X032442Y013677D01*
X032486Y013670D01*
X032529Y013659D01*
X032571Y013645D01*
X032611Y013627D01*
X032650Y013605D01*
X032686Y013581D01*
X032720Y013553D01*
X032752Y013522D01*
X032781Y013488D01*
X032807Y013452D01*
X032829Y013414D01*
X032848Y013374D01*
X032863Y013332D01*
X032875Y013290D01*
X032883Y013246D01*
X032887Y013202D01*
X032887Y013158D01*
X032883Y013114D01*
X032875Y013070D01*
X032863Y013028D01*
X032848Y012986D01*
X032829Y012946D01*
X032807Y012908D01*
X032781Y012872D01*
X032752Y012838D01*
X032720Y012807D01*
X032686Y012779D01*
X032650Y012755D01*
X032611Y012733D01*
X032571Y012715D01*
X032529Y012701D01*
X032486Y012690D01*
X032442Y012683D01*
X032398Y012680D01*
X032354Y012681D01*
X032310Y012686D01*
X032267Y012695D01*
X032224Y012707D01*
X032183Y012724D01*
X032143Y012743D01*
X032106Y012767D01*
X032070Y012793D01*
X032037Y012823D01*
X032007Y012855D01*
X031980Y012890D01*
X031956Y012927D01*
X031935Y012966D01*
X031918Y013007D01*
X031905Y013049D01*
X031895Y013092D01*
X031889Y013136D01*
X031887Y013180D01*
X031887Y001180D02*
X031889Y001224D01*
X031895Y001268D01*
X031905Y001311D01*
X031918Y001353D01*
X031935Y001394D01*
X031956Y001433D01*
X031980Y001470D01*
X032007Y001505D01*
X032037Y001537D01*
X032070Y001567D01*
X032106Y001593D01*
X032143Y001617D01*
X032183Y001636D01*
X032224Y001653D01*
X032267Y001665D01*
X032310Y001674D01*
X032354Y001679D01*
X032398Y001680D01*
X032442Y001677D01*
X032486Y001670D01*
X032529Y001659D01*
X032571Y001645D01*
X032611Y001627D01*
X032650Y001605D01*
X032686Y001581D01*
X032720Y001553D01*
X032752Y001522D01*
X032781Y001488D01*
X032807Y001452D01*
X032829Y001414D01*
X032848Y001374D01*
X032863Y001332D01*
X032875Y001290D01*
X032883Y001246D01*
X032887Y001202D01*
X032887Y001158D01*
X032883Y001114D01*
X032875Y001070D01*
X032863Y001028D01*
X032848Y000986D01*
X032829Y000946D01*
X032807Y000908D01*
X032781Y000872D01*
X032752Y000838D01*
X032720Y000807D01*
X032686Y000779D01*
X032650Y000755D01*
X032611Y000733D01*
X032571Y000715D01*
X032529Y000701D01*
X032486Y000690D01*
X032442Y000683D01*
X032398Y000680D01*
X032354Y000681D01*
X032310Y000686D01*
X032267Y000695D01*
X032224Y000707D01*
X032183Y000724D01*
X032143Y000743D01*
X032106Y000767D01*
X032070Y000793D01*
X032037Y000823D01*
X032007Y000855D01*
X031980Y000890D01*
X031956Y000927D01*
X031935Y000966D01*
X031918Y001007D01*
X031905Y001049D01*
X031895Y001092D01*
X031889Y001136D01*
X031887Y001180D01*
D11*
X019517Y007940D02*
X019377Y007800D01*
X016757Y007800D01*
X016757Y010560D01*
X019517Y010560D01*
X019517Y007940D01*
X019076Y008100D02*
X019078Y008123D01*
X019084Y008146D01*
X019093Y008167D01*
X019106Y008187D01*
X019122Y008204D01*
X019140Y008218D01*
X019160Y008229D01*
X019182Y008237D01*
X019205Y008241D01*
X019229Y008241D01*
X019252Y008237D01*
X019274Y008229D01*
X019294Y008218D01*
X019312Y008204D01*
X019328Y008187D01*
X019341Y008167D01*
X019350Y008146D01*
X019356Y008123D01*
X019358Y008100D01*
X019356Y008077D01*
X019350Y008054D01*
X019341Y008033D01*
X019328Y008013D01*
X019312Y007996D01*
X019294Y007982D01*
X019274Y007971D01*
X019252Y007963D01*
X019229Y007959D01*
X019205Y007959D01*
X019182Y007963D01*
X019160Y007971D01*
X019140Y007982D01*
X019122Y007996D01*
X019106Y008013D01*
X019093Y008033D01*
X019084Y008054D01*
X019078Y008077D01*
X019076Y008100D01*
X010907Y006330D02*
X010907Y010030D01*
X010905Y010053D01*
X010900Y010076D01*
X010891Y010098D01*
X010878Y010118D01*
X010863Y010136D01*
X010845Y010151D01*
X010825Y010164D01*
X010803Y010173D01*
X010780Y010178D01*
X010757Y010180D01*
X010337Y010180D01*
X009937Y010180D01*
X009517Y010180D01*
X009494Y010178D01*
X009471Y010173D01*
X009449Y010164D01*
X009429Y010151D01*
X009411Y010136D01*
X009396Y010118D01*
X009383Y010098D01*
X009374Y010076D01*
X009369Y010053D01*
X009367Y010030D01*
X009367Y006330D01*
X009369Y006307D01*
X009374Y006284D01*
X009383Y006262D01*
X009396Y006242D01*
X009411Y006224D01*
X009429Y006209D01*
X009449Y006196D01*
X009471Y006187D01*
X009494Y006182D01*
X009517Y006180D01*
X010757Y006180D01*
X010780Y006182D01*
X010803Y006187D01*
X010825Y006196D01*
X010845Y006209D01*
X010863Y006224D01*
X010878Y006242D01*
X010891Y006262D01*
X010900Y006284D01*
X010905Y006307D01*
X010907Y006330D01*
X010337Y010180D02*
X010335Y010153D01*
X010330Y010126D01*
X010320Y010100D01*
X010308Y010076D01*
X010292Y010054D01*
X010274Y010034D01*
X010252Y010017D01*
X010229Y010002D01*
X010204Y009992D01*
X010178Y009984D01*
X010151Y009980D01*
X010123Y009980D01*
X010096Y009984D01*
X010070Y009992D01*
X010045Y010002D01*
X010022Y010017D01*
X010000Y010034D01*
X009982Y010054D01*
X009966Y010076D01*
X009954Y010100D01*
X009944Y010126D01*
X009939Y010153D01*
X009937Y010180D01*
D12*
X010767Y010180D02*
X010767Y006180D01*
D13*
X010337Y008855D02*
X010187Y008855D01*
X010112Y008930D01*
X010112Y009305D01*
X009951Y009230D02*
X009876Y009305D01*
X009726Y009305D01*
X009651Y009230D01*
X009651Y009155D01*
X009951Y008855D01*
X009651Y008855D01*
X010337Y008855D02*
X010412Y008930D01*
X010412Y009305D01*
D14*
X017706Y010010D02*
X017731Y009985D01*
X017806Y009985D01*
X017853Y009985D02*
X017853Y009960D01*
X017878Y009935D01*
X017928Y009935D01*
X017953Y009960D01*
X017953Y009985D01*
X017928Y010010D01*
X017878Y010010D01*
X017853Y009985D01*
X017878Y010010D02*
X017853Y010035D01*
X017853Y010060D01*
X017878Y010085D01*
X017928Y010085D01*
X017953Y010060D01*
X017953Y010035D01*
X017928Y010010D01*
X018000Y010035D02*
X018000Y010060D01*
X018025Y010085D01*
X018076Y010085D01*
X018101Y010060D01*
X018148Y010060D02*
X018148Y010035D01*
X018173Y010010D01*
X018148Y009985D01*
X018148Y009960D01*
X018173Y009935D01*
X018223Y009935D01*
X018248Y009960D01*
X018295Y009935D02*
X018295Y010035D01*
X018345Y010085D01*
X018395Y010035D01*
X018395Y009935D01*
X018442Y009960D02*
X018442Y010010D01*
X018492Y010010D01*
X018442Y009960D02*
X018467Y009935D01*
X018517Y009935D01*
X018543Y009960D01*
X018543Y010060D01*
X018517Y010085D01*
X018467Y010085D01*
X018442Y010060D01*
X018395Y010010D02*
X018295Y010010D01*
X018248Y010060D02*
X018223Y010085D01*
X018173Y010085D01*
X018148Y010060D01*
X018173Y010010D02*
X018198Y010010D01*
X018101Y009935D02*
X018000Y010035D01*
X018000Y009935D02*
X018101Y009935D01*
X017806Y009935D02*
X017806Y010085D01*
X017731Y010085D01*
X017706Y010060D01*
X017706Y010010D01*
X018590Y009935D02*
X018690Y009935D01*
X018690Y010085D01*
X018590Y010085D01*
X018640Y010010D02*
X018690Y010010D01*
X018737Y010085D02*
X018737Y009935D01*
X018837Y009935D02*
X018837Y010085D01*
X018787Y010035D01*
X018737Y010085D01*
X018884Y010085D02*
X018984Y010085D01*
X018934Y010085D02*
X018934Y009935D01*
X019032Y009935D02*
X019032Y010035D01*
X019082Y010085D01*
X019132Y010035D01*
X019132Y009935D01*
X019132Y010010D02*
X019032Y010010D01*
X019057Y010185D02*
X019032Y010210D01*
X019032Y010335D01*
X018984Y010285D02*
X018934Y010335D01*
X018934Y010185D01*
X018984Y010185D02*
X018884Y010185D01*
X019057Y010185D02*
X019107Y010185D01*
X019132Y010210D01*
X019132Y010335D01*
D15*
X005867Y006084D02*
X005867Y005777D01*
X005790Y005700D01*
X005637Y005700D01*
X005560Y005777D01*
X005406Y005930D02*
X005099Y005930D01*
X005176Y005700D02*
X005176Y006160D01*
X005406Y005930D01*
X005560Y006084D02*
X005637Y006160D01*
X005790Y006160D01*
X005867Y006084D01*
X015770Y004160D02*
X016077Y004160D01*
X016077Y003930D01*
X015924Y004007D01*
X015847Y004007D01*
X015770Y003930D01*
X015770Y003777D01*
X015847Y003700D01*
X016000Y003700D01*
X016077Y003777D01*
X016231Y003777D02*
X016307Y003700D01*
X016461Y003700D01*
X016538Y003777D01*
X016538Y004084D01*
X016461Y004160D01*
X016307Y004160D01*
X016231Y004084D01*
X017770Y004160D02*
X017924Y004084D01*
X018077Y003930D01*
X017847Y003930D01*
X017770Y003853D01*
X017770Y003777D01*
X017847Y003700D01*
X018000Y003700D01*
X018077Y003777D01*
X018077Y003930D01*
X018231Y003777D02*
X018307Y003700D01*
X018461Y003700D01*
X018538Y003777D01*
X018538Y004084D01*
X018461Y004160D01*
X018307Y004160D01*
X018231Y004084D01*
M02*
