G75*
%MOIN*%
%OFA0B0*%
%FSLAX24Y24*%
%IPPOS*%
%LPD*%
%AMOC8*
5,1,8,0,0,1.08239X$1,22.5*
%
%ADD10C,0.0000*%
%ADD11R,0.0286X0.0916*%
%ADD12OC8,0.0650*%
%ADD13C,0.0650*%
%ADD14R,0.0530X0.0930*%
%ADD15R,0.1467X0.0916*%
%ADD16R,0.0562X0.0641*%
%ADD17R,0.0641X0.0562*%
%ADD18C,0.0490*%
%ADD19R,0.0680X0.0510*%
%ADD20R,0.0720X0.0060*%
%ADD21C,0.1050*%
%ADD22C,0.0182*%
%ADD23C,0.0330*%
%ADD24C,0.0301*%
%ADD25R,0.0644X0.0644*%
%ADD26OC8,0.0644*%
D10*
X001887Y000180D02*
X001887Y014176D01*
X033257Y014176D01*
X033257Y000180D01*
X001887Y000180D01*
X002387Y001180D02*
X002389Y001224D01*
X002395Y001268D01*
X002405Y001311D01*
X002418Y001353D01*
X002435Y001394D01*
X002456Y001433D01*
X002480Y001470D01*
X002507Y001505D01*
X002537Y001537D01*
X002570Y001567D01*
X002606Y001593D01*
X002643Y001617D01*
X002683Y001636D01*
X002724Y001653D01*
X002767Y001665D01*
X002810Y001674D01*
X002854Y001679D01*
X002898Y001680D01*
X002942Y001677D01*
X002986Y001670D01*
X003029Y001659D01*
X003071Y001645D01*
X003111Y001627D01*
X003150Y001605D01*
X003186Y001581D01*
X003220Y001553D01*
X003252Y001522D01*
X003281Y001488D01*
X003307Y001452D01*
X003329Y001414D01*
X003348Y001374D01*
X003363Y001332D01*
X003375Y001290D01*
X003383Y001246D01*
X003387Y001202D01*
X003387Y001158D01*
X003383Y001114D01*
X003375Y001070D01*
X003363Y001028D01*
X003348Y000986D01*
X003329Y000946D01*
X003307Y000908D01*
X003281Y000872D01*
X003252Y000838D01*
X003220Y000807D01*
X003186Y000779D01*
X003150Y000755D01*
X003111Y000733D01*
X003071Y000715D01*
X003029Y000701D01*
X002986Y000690D01*
X002942Y000683D01*
X002898Y000680D01*
X002854Y000681D01*
X002810Y000686D01*
X002767Y000695D01*
X002724Y000707D01*
X002683Y000724D01*
X002643Y000743D01*
X002606Y000767D01*
X002570Y000793D01*
X002537Y000823D01*
X002507Y000855D01*
X002480Y000890D01*
X002456Y000927D01*
X002435Y000966D01*
X002418Y001007D01*
X002405Y001049D01*
X002395Y001092D01*
X002389Y001136D01*
X002387Y001180D01*
X002387Y013180D02*
X002389Y013224D01*
X002395Y013268D01*
X002405Y013311D01*
X002418Y013353D01*
X002435Y013394D01*
X002456Y013433D01*
X002480Y013470D01*
X002507Y013505D01*
X002537Y013537D01*
X002570Y013567D01*
X002606Y013593D01*
X002643Y013617D01*
X002683Y013636D01*
X002724Y013653D01*
X002767Y013665D01*
X002810Y013674D01*
X002854Y013679D01*
X002898Y013680D01*
X002942Y013677D01*
X002986Y013670D01*
X003029Y013659D01*
X003071Y013645D01*
X003111Y013627D01*
X003150Y013605D01*
X003186Y013581D01*
X003220Y013553D01*
X003252Y013522D01*
X003281Y013488D01*
X003307Y013452D01*
X003329Y013414D01*
X003348Y013374D01*
X003363Y013332D01*
X003375Y013290D01*
X003383Y013246D01*
X003387Y013202D01*
X003387Y013158D01*
X003383Y013114D01*
X003375Y013070D01*
X003363Y013028D01*
X003348Y012986D01*
X003329Y012946D01*
X003307Y012908D01*
X003281Y012872D01*
X003252Y012838D01*
X003220Y012807D01*
X003186Y012779D01*
X003150Y012755D01*
X003111Y012733D01*
X003071Y012715D01*
X003029Y012701D01*
X002986Y012690D01*
X002942Y012683D01*
X002898Y012680D01*
X002854Y012681D01*
X002810Y012686D01*
X002767Y012695D01*
X002724Y012707D01*
X002683Y012724D01*
X002643Y012743D01*
X002606Y012767D01*
X002570Y012793D01*
X002537Y012823D01*
X002507Y012855D01*
X002480Y012890D01*
X002456Y012927D01*
X002435Y012966D01*
X002418Y013007D01*
X002405Y013049D01*
X002395Y013092D01*
X002389Y013136D01*
X002387Y013180D01*
X031887Y013180D02*
X031889Y013224D01*
X031895Y013268D01*
X031905Y013311D01*
X031918Y013353D01*
X031935Y013394D01*
X031956Y013433D01*
X031980Y013470D01*
X032007Y013505D01*
X032037Y013537D01*
X032070Y013567D01*
X032106Y013593D01*
X032143Y013617D01*
X032183Y013636D01*
X032224Y013653D01*
X032267Y013665D01*
X032310Y013674D01*
X032354Y013679D01*
X032398Y013680D01*
X032442Y013677D01*
X032486Y013670D01*
X032529Y013659D01*
X032571Y013645D01*
X032611Y013627D01*
X032650Y013605D01*
X032686Y013581D01*
X032720Y013553D01*
X032752Y013522D01*
X032781Y013488D01*
X032807Y013452D01*
X032829Y013414D01*
X032848Y013374D01*
X032863Y013332D01*
X032875Y013290D01*
X032883Y013246D01*
X032887Y013202D01*
X032887Y013158D01*
X032883Y013114D01*
X032875Y013070D01*
X032863Y013028D01*
X032848Y012986D01*
X032829Y012946D01*
X032807Y012908D01*
X032781Y012872D01*
X032752Y012838D01*
X032720Y012807D01*
X032686Y012779D01*
X032650Y012755D01*
X032611Y012733D01*
X032571Y012715D01*
X032529Y012701D01*
X032486Y012690D01*
X032442Y012683D01*
X032398Y012680D01*
X032354Y012681D01*
X032310Y012686D01*
X032267Y012695D01*
X032224Y012707D01*
X032183Y012724D01*
X032143Y012743D01*
X032106Y012767D01*
X032070Y012793D01*
X032037Y012823D01*
X032007Y012855D01*
X031980Y012890D01*
X031956Y012927D01*
X031935Y012966D01*
X031918Y013007D01*
X031905Y013049D01*
X031895Y013092D01*
X031889Y013136D01*
X031887Y013180D01*
X031887Y001180D02*
X031889Y001224D01*
X031895Y001268D01*
X031905Y001311D01*
X031918Y001353D01*
X031935Y001394D01*
X031956Y001433D01*
X031980Y001470D01*
X032007Y001505D01*
X032037Y001537D01*
X032070Y001567D01*
X032106Y001593D01*
X032143Y001617D01*
X032183Y001636D01*
X032224Y001653D01*
X032267Y001665D01*
X032310Y001674D01*
X032354Y001679D01*
X032398Y001680D01*
X032442Y001677D01*
X032486Y001670D01*
X032529Y001659D01*
X032571Y001645D01*
X032611Y001627D01*
X032650Y001605D01*
X032686Y001581D01*
X032720Y001553D01*
X032752Y001522D01*
X032781Y001488D01*
X032807Y001452D01*
X032829Y001414D01*
X032848Y001374D01*
X032863Y001332D01*
X032875Y001290D01*
X032883Y001246D01*
X032887Y001202D01*
X032887Y001158D01*
X032883Y001114D01*
X032875Y001070D01*
X032863Y001028D01*
X032848Y000986D01*
X032829Y000946D01*
X032807Y000908D01*
X032781Y000872D01*
X032752Y000838D01*
X032720Y000807D01*
X032686Y000779D01*
X032650Y000755D01*
X032611Y000733D01*
X032571Y000715D01*
X032529Y000701D01*
X032486Y000690D01*
X032442Y000683D01*
X032398Y000680D01*
X032354Y000681D01*
X032310Y000686D01*
X032267Y000695D01*
X032224Y000707D01*
X032183Y000724D01*
X032143Y000743D01*
X032106Y000767D01*
X032070Y000793D01*
X032037Y000823D01*
X032007Y000855D01*
X031980Y000890D01*
X031956Y000927D01*
X031935Y000966D01*
X031918Y001007D01*
X031905Y001049D01*
X031895Y001092D01*
X031889Y001136D01*
X031887Y001180D01*
D11*
X021387Y007869D03*
X020887Y007869D03*
X020387Y007869D03*
X019887Y007869D03*
X019387Y007869D03*
X018887Y007869D03*
X018387Y007869D03*
X017887Y007869D03*
X017887Y011491D03*
X018387Y011491D03*
X018887Y011491D03*
X019387Y011491D03*
X019887Y011491D03*
X020387Y011491D03*
X020887Y011491D03*
X021387Y011491D03*
D12*
X021637Y002180D03*
X022637Y002180D03*
X023637Y002180D03*
X024637Y002180D03*
X025637Y002180D03*
X025637Y001180D03*
X024637Y001180D03*
X023637Y001180D03*
X022637Y001180D03*
X021637Y001180D03*
X020637Y001180D03*
X019637Y001180D03*
X018637Y001180D03*
X017637Y001180D03*
X016637Y001180D03*
X015637Y001180D03*
X014637Y001180D03*
X013637Y001180D03*
X012637Y001180D03*
X011637Y001180D03*
X010637Y001180D03*
X009637Y001180D03*
X009637Y002180D03*
X010637Y002180D03*
X011637Y002180D03*
X012637Y002180D03*
X013637Y002180D03*
X014637Y002180D03*
X015637Y002180D03*
X016637Y002180D03*
X017637Y002180D03*
X018637Y002180D03*
X019637Y002180D03*
X020637Y002180D03*
D13*
X013637Y003880D02*
X013637Y004480D01*
X012637Y004480D02*
X012637Y003880D01*
X011637Y003880D02*
X011637Y004480D01*
X027637Y009380D02*
X027637Y009980D01*
X029637Y009980D02*
X029637Y009380D01*
X031837Y010180D02*
X032437Y010180D01*
X032437Y011180D02*
X031837Y011180D01*
X028937Y011680D02*
X028337Y011680D01*
X028262Y012880D02*
X028262Y013480D01*
X029262Y013480D02*
X029262Y012880D01*
X030262Y012880D02*
X030262Y013480D01*
X027262Y013480D02*
X027262Y012880D01*
X026262Y012880D02*
X026262Y013480D01*
X025262Y013480D02*
X025262Y012880D01*
X024262Y012880D02*
X024262Y013480D01*
X023262Y013480D02*
X023262Y012880D01*
X022262Y012880D02*
X022262Y013480D01*
X021262Y013480D02*
X021262Y012880D01*
X020262Y012880D02*
X020262Y013480D01*
X019262Y013480D02*
X019262Y012880D01*
X018262Y012880D02*
X018262Y013480D01*
X017262Y013480D02*
X017262Y012880D01*
X016262Y012880D02*
X016262Y013480D01*
X015262Y013480D02*
X015262Y012880D01*
X031837Y007180D02*
X032437Y007180D01*
X032437Y006180D02*
X031837Y006180D01*
X031837Y005180D02*
X032437Y005180D01*
X032437Y004180D02*
X031837Y004180D01*
D14*
X028547Y005400D03*
X027637Y005400D03*
X026727Y005400D03*
D15*
X027637Y002960D03*
D16*
X027511Y006680D03*
X026763Y006680D03*
X026763Y007680D03*
X027511Y007680D03*
X030263Y008680D03*
X031011Y008680D03*
D17*
X015637Y011306D03*
X015637Y012054D03*
X011387Y007304D03*
X011387Y006556D03*
D18*
X016137Y006400D02*
X016137Y005960D01*
X018137Y005960D02*
X018137Y006400D01*
D19*
X016637Y011380D03*
X016637Y011980D03*
X023137Y012230D03*
X024137Y012230D03*
X025137Y012230D03*
X025137Y011630D03*
X024137Y011630D03*
X023137Y011630D03*
D20*
X023137Y011930D03*
X024137Y011930D03*
X025137Y011930D03*
X016637Y011680D03*
D21*
X002887Y013180D03*
X002887Y001180D03*
X032387Y001180D03*
X032387Y013180D03*
D22*
X009114Y008820D02*
X009114Y008638D01*
X008616Y008638D01*
X008616Y008820D01*
X009114Y008820D01*
X009114Y008819D02*
X008616Y008819D01*
X008616Y008387D02*
X008616Y008205D01*
X008616Y008387D02*
X009114Y008387D01*
X009114Y008205D01*
X008616Y008205D01*
X008616Y008386D02*
X009114Y008386D01*
X008616Y007954D02*
X008616Y007772D01*
X008616Y007954D02*
X009114Y007954D01*
X009114Y007772D01*
X008616Y007772D01*
X008616Y007953D02*
X009114Y007953D01*
X008616Y007521D02*
X008616Y007339D01*
X008616Y007521D02*
X009114Y007521D01*
X009114Y007339D01*
X008616Y007339D01*
X008616Y007520D02*
X009114Y007520D01*
X008616Y007088D02*
X008616Y006906D01*
X008616Y007088D02*
X009114Y007088D01*
X009114Y006906D01*
X008616Y006906D01*
X008616Y007087D02*
X009114Y007087D01*
X008616Y006655D02*
X008616Y006473D01*
X008616Y006655D02*
X009114Y006655D01*
X009114Y006473D01*
X008616Y006473D01*
X008616Y006654D02*
X009114Y006654D01*
X008616Y006222D02*
X008616Y006040D01*
X008616Y006222D02*
X009114Y006222D01*
X009114Y006040D01*
X008616Y006040D01*
X008616Y006221D02*
X009114Y006221D01*
X008616Y005789D02*
X008616Y005607D01*
X008616Y005789D02*
X009114Y005789D01*
X009114Y005607D01*
X008616Y005607D01*
X008616Y005788D02*
X009114Y005788D01*
D23*
X007470Y005050D02*
X007470Y004720D01*
X007470Y005050D02*
X008292Y005050D01*
X008292Y004720D01*
X007470Y004720D01*
X007470Y005049D02*
X008292Y005049D01*
X004576Y005050D02*
X004576Y004720D01*
X004576Y005050D02*
X005122Y005050D01*
X005122Y004720D01*
X004576Y004720D01*
X004576Y005049D02*
X005122Y005049D01*
X008513Y009499D02*
X008513Y009849D01*
X008843Y009849D01*
X008843Y009499D01*
X008513Y009499D01*
X008513Y009828D02*
X008843Y009828D01*
D24*
X007770Y010729D02*
X007770Y011029D01*
X008700Y011029D01*
X008700Y010729D01*
X007770Y010729D01*
X007770Y011029D02*
X008700Y011029D01*
X004010Y011029D02*
X004010Y010729D01*
X004010Y011029D02*
X004940Y011029D01*
X004940Y010729D01*
X004010Y010729D01*
X004010Y011029D02*
X004940Y011029D01*
X002337Y010753D02*
X002337Y010453D01*
X002337Y010753D02*
X002835Y010753D01*
X002835Y010453D01*
X002337Y010453D01*
X002337Y010753D02*
X002835Y010753D01*
X002730Y005005D02*
X002730Y004705D01*
X002730Y005005D02*
X003228Y005005D01*
X003228Y004705D01*
X002730Y004705D01*
X002730Y005005D02*
X003228Y005005D01*
D25*
X007387Y012180D03*
D26*
X008387Y012180D03*
X009387Y012180D03*
X010387Y012180D03*
X011387Y012180D03*
X011387Y013180D03*
X010387Y013180D03*
X009387Y013180D03*
X008387Y013180D03*
X007387Y013180D03*
M02*
