G75*
%MOIN*%
%OFA0B0*%
%FSLAX24Y24*%
%IPPOS*%
%LPD*%
%AMOC8*
5,1,8,0,0,1.08239X$1,22.5*
%
%ADD10C,0.0000*%
%ADD11C,0.0060*%
%ADD12C,0.0020*%
%ADD13C,0.0010*%
%ADD14C,0.0050*%
D10*
X000160Y000550D02*
X000160Y014546D01*
X039280Y014546D01*
X039280Y000550D01*
X000160Y000550D01*
X000660Y001550D02*
X000662Y001594D01*
X000668Y001638D01*
X000678Y001681D01*
X000691Y001723D01*
X000708Y001764D01*
X000729Y001803D01*
X000753Y001840D01*
X000780Y001875D01*
X000810Y001907D01*
X000843Y001937D01*
X000879Y001963D01*
X000916Y001987D01*
X000956Y002006D01*
X000997Y002023D01*
X001040Y002035D01*
X001083Y002044D01*
X001127Y002049D01*
X001171Y002050D01*
X001215Y002047D01*
X001259Y002040D01*
X001302Y002029D01*
X001344Y002015D01*
X001384Y001997D01*
X001423Y001975D01*
X001459Y001951D01*
X001493Y001923D01*
X001525Y001892D01*
X001554Y001858D01*
X001580Y001822D01*
X001602Y001784D01*
X001621Y001744D01*
X001636Y001702D01*
X001648Y001660D01*
X001656Y001616D01*
X001660Y001572D01*
X001660Y001528D01*
X001656Y001484D01*
X001648Y001440D01*
X001636Y001398D01*
X001621Y001356D01*
X001602Y001316D01*
X001580Y001278D01*
X001554Y001242D01*
X001525Y001208D01*
X001493Y001177D01*
X001459Y001149D01*
X001423Y001125D01*
X001384Y001103D01*
X001344Y001085D01*
X001302Y001071D01*
X001259Y001060D01*
X001215Y001053D01*
X001171Y001050D01*
X001127Y001051D01*
X001083Y001056D01*
X001040Y001065D01*
X000997Y001077D01*
X000956Y001094D01*
X000916Y001113D01*
X000879Y001137D01*
X000843Y001163D01*
X000810Y001193D01*
X000780Y001225D01*
X000753Y001260D01*
X000729Y001297D01*
X000708Y001336D01*
X000691Y001377D01*
X000678Y001419D01*
X000668Y001462D01*
X000662Y001506D01*
X000660Y001550D01*
X001849Y006099D02*
X001851Y006125D01*
X001857Y006151D01*
X001867Y006176D01*
X001880Y006199D01*
X001896Y006219D01*
X001916Y006237D01*
X001938Y006252D01*
X001961Y006264D01*
X001987Y006272D01*
X002013Y006276D01*
X002039Y006276D01*
X002065Y006272D01*
X002091Y006264D01*
X002115Y006252D01*
X002136Y006237D01*
X002156Y006219D01*
X002172Y006199D01*
X002185Y006176D01*
X002195Y006151D01*
X002201Y006125D01*
X002203Y006099D01*
X002201Y006073D01*
X002195Y006047D01*
X002185Y006022D01*
X002172Y005999D01*
X002156Y005979D01*
X002136Y005961D01*
X002114Y005946D01*
X002091Y005934D01*
X002065Y005926D01*
X002039Y005922D01*
X002013Y005922D01*
X001987Y005926D01*
X001961Y005934D01*
X001937Y005946D01*
X001916Y005961D01*
X001896Y005979D01*
X001880Y005999D01*
X001867Y006022D01*
X001857Y006047D01*
X001851Y006073D01*
X001849Y006099D01*
X001849Y009249D02*
X001851Y009275D01*
X001857Y009301D01*
X001867Y009326D01*
X001880Y009349D01*
X001896Y009369D01*
X001916Y009387D01*
X001938Y009402D01*
X001961Y009414D01*
X001987Y009422D01*
X002013Y009426D01*
X002039Y009426D01*
X002065Y009422D01*
X002091Y009414D01*
X002115Y009402D01*
X002136Y009387D01*
X002156Y009369D01*
X002172Y009349D01*
X002185Y009326D01*
X002195Y009301D01*
X002201Y009275D01*
X002203Y009249D01*
X002201Y009223D01*
X002195Y009197D01*
X002185Y009172D01*
X002172Y009149D01*
X002156Y009129D01*
X002136Y009111D01*
X002114Y009096D01*
X002091Y009084D01*
X002065Y009076D01*
X002039Y009072D01*
X002013Y009072D01*
X001987Y009076D01*
X001961Y009084D01*
X001937Y009096D01*
X001916Y009111D01*
X001896Y009129D01*
X001880Y009149D01*
X001867Y009172D01*
X001857Y009197D01*
X001851Y009223D01*
X001849Y009249D01*
X000660Y013550D02*
X000662Y013594D01*
X000668Y013638D01*
X000678Y013681D01*
X000691Y013723D01*
X000708Y013764D01*
X000729Y013803D01*
X000753Y013840D01*
X000780Y013875D01*
X000810Y013907D01*
X000843Y013937D01*
X000879Y013963D01*
X000916Y013987D01*
X000956Y014006D01*
X000997Y014023D01*
X001040Y014035D01*
X001083Y014044D01*
X001127Y014049D01*
X001171Y014050D01*
X001215Y014047D01*
X001259Y014040D01*
X001302Y014029D01*
X001344Y014015D01*
X001384Y013997D01*
X001423Y013975D01*
X001459Y013951D01*
X001493Y013923D01*
X001525Y013892D01*
X001554Y013858D01*
X001580Y013822D01*
X001602Y013784D01*
X001621Y013744D01*
X001636Y013702D01*
X001648Y013660D01*
X001656Y013616D01*
X001660Y013572D01*
X001660Y013528D01*
X001656Y013484D01*
X001648Y013440D01*
X001636Y013398D01*
X001621Y013356D01*
X001602Y013316D01*
X001580Y013278D01*
X001554Y013242D01*
X001525Y013208D01*
X001493Y013177D01*
X001459Y013149D01*
X001423Y013125D01*
X001384Y013103D01*
X001344Y013085D01*
X001302Y013071D01*
X001259Y013060D01*
X001215Y013053D01*
X001171Y013050D01*
X001127Y013051D01*
X001083Y013056D01*
X001040Y013065D01*
X000997Y013077D01*
X000956Y013094D01*
X000916Y013113D01*
X000879Y013137D01*
X000843Y013163D01*
X000810Y013193D01*
X000780Y013225D01*
X000753Y013260D01*
X000729Y013297D01*
X000708Y013336D01*
X000691Y013377D01*
X000678Y013419D01*
X000668Y013462D01*
X000662Y013506D01*
X000660Y013550D01*
X030160Y013550D02*
X030162Y013594D01*
X030168Y013638D01*
X030178Y013681D01*
X030191Y013723D01*
X030208Y013764D01*
X030229Y013803D01*
X030253Y013840D01*
X030280Y013875D01*
X030310Y013907D01*
X030343Y013937D01*
X030379Y013963D01*
X030416Y013987D01*
X030456Y014006D01*
X030497Y014023D01*
X030540Y014035D01*
X030583Y014044D01*
X030627Y014049D01*
X030671Y014050D01*
X030715Y014047D01*
X030759Y014040D01*
X030802Y014029D01*
X030844Y014015D01*
X030884Y013997D01*
X030923Y013975D01*
X030959Y013951D01*
X030993Y013923D01*
X031025Y013892D01*
X031054Y013858D01*
X031080Y013822D01*
X031102Y013784D01*
X031121Y013744D01*
X031136Y013702D01*
X031148Y013660D01*
X031156Y013616D01*
X031160Y013572D01*
X031160Y013528D01*
X031156Y013484D01*
X031148Y013440D01*
X031136Y013398D01*
X031121Y013356D01*
X031102Y013316D01*
X031080Y013278D01*
X031054Y013242D01*
X031025Y013208D01*
X030993Y013177D01*
X030959Y013149D01*
X030923Y013125D01*
X030884Y013103D01*
X030844Y013085D01*
X030802Y013071D01*
X030759Y013060D01*
X030715Y013053D01*
X030671Y013050D01*
X030627Y013051D01*
X030583Y013056D01*
X030540Y013065D01*
X030497Y013077D01*
X030456Y013094D01*
X030416Y013113D01*
X030379Y013137D01*
X030343Y013163D01*
X030310Y013193D01*
X030280Y013225D01*
X030253Y013260D01*
X030229Y013297D01*
X030208Y013336D01*
X030191Y013377D01*
X030178Y013419D01*
X030168Y013462D01*
X030162Y013506D01*
X030160Y013550D01*
X030160Y001550D02*
X030162Y001594D01*
X030168Y001638D01*
X030178Y001681D01*
X030191Y001723D01*
X030208Y001764D01*
X030229Y001803D01*
X030253Y001840D01*
X030280Y001875D01*
X030310Y001907D01*
X030343Y001937D01*
X030379Y001963D01*
X030416Y001987D01*
X030456Y002006D01*
X030497Y002023D01*
X030540Y002035D01*
X030583Y002044D01*
X030627Y002049D01*
X030671Y002050D01*
X030715Y002047D01*
X030759Y002040D01*
X030802Y002029D01*
X030844Y002015D01*
X030884Y001997D01*
X030923Y001975D01*
X030959Y001951D01*
X030993Y001923D01*
X031025Y001892D01*
X031054Y001858D01*
X031080Y001822D01*
X031102Y001784D01*
X031121Y001744D01*
X031136Y001702D01*
X031148Y001660D01*
X031156Y001616D01*
X031160Y001572D01*
X031160Y001528D01*
X031156Y001484D01*
X031148Y001440D01*
X031136Y001398D01*
X031121Y001356D01*
X031102Y001316D01*
X031080Y001278D01*
X031054Y001242D01*
X031025Y001208D01*
X030993Y001177D01*
X030959Y001149D01*
X030923Y001125D01*
X030884Y001103D01*
X030844Y001085D01*
X030802Y001071D01*
X030759Y001060D01*
X030715Y001053D01*
X030671Y001050D01*
X030627Y001051D01*
X030583Y001056D01*
X030540Y001065D01*
X030497Y001077D01*
X030456Y001094D01*
X030416Y001113D01*
X030379Y001137D01*
X030343Y001163D01*
X030310Y001193D01*
X030280Y001225D01*
X030253Y001260D01*
X030229Y001297D01*
X030208Y001336D01*
X030191Y001377D01*
X030178Y001419D01*
X030168Y001462D01*
X030162Y001506D01*
X030160Y001550D01*
D11*
X017790Y008310D02*
X017650Y008170D01*
X015030Y008170D01*
X015030Y010930D01*
X017790Y010930D01*
X017790Y008310D01*
X017349Y008470D02*
X017351Y008493D01*
X017357Y008516D01*
X017366Y008537D01*
X017379Y008557D01*
X017395Y008574D01*
X017413Y008588D01*
X017433Y008599D01*
X017455Y008607D01*
X017478Y008611D01*
X017502Y008611D01*
X017525Y008607D01*
X017547Y008599D01*
X017567Y008588D01*
X017585Y008574D01*
X017601Y008557D01*
X017614Y008537D01*
X017623Y008516D01*
X017629Y008493D01*
X017631Y008470D01*
X017629Y008447D01*
X017623Y008424D01*
X017614Y008403D01*
X017601Y008383D01*
X017585Y008366D01*
X017567Y008352D01*
X017547Y008341D01*
X017525Y008333D01*
X017502Y008329D01*
X017478Y008329D01*
X017455Y008333D01*
X017433Y008341D01*
X017413Y008352D01*
X017395Y008366D01*
X017379Y008383D01*
X017366Y008403D01*
X017357Y008424D01*
X017351Y008447D01*
X017349Y008470D01*
X009180Y006700D02*
X009180Y010400D01*
X009178Y010423D01*
X009173Y010446D01*
X009164Y010468D01*
X009151Y010488D01*
X009136Y010506D01*
X009118Y010521D01*
X009098Y010534D01*
X009076Y010543D01*
X009053Y010548D01*
X009030Y010550D01*
X008610Y010550D01*
X008210Y010550D01*
X007790Y010550D01*
X007767Y010548D01*
X007744Y010543D01*
X007722Y010534D01*
X007702Y010521D01*
X007684Y010506D01*
X007669Y010488D01*
X007656Y010468D01*
X007647Y010446D01*
X007642Y010423D01*
X007640Y010400D01*
X007640Y006700D01*
X007642Y006677D01*
X007647Y006654D01*
X007656Y006632D01*
X007669Y006612D01*
X007684Y006594D01*
X007702Y006579D01*
X007722Y006566D01*
X007744Y006557D01*
X007767Y006552D01*
X007790Y006550D01*
X009030Y006550D01*
X009053Y006552D01*
X009076Y006557D01*
X009098Y006566D01*
X009118Y006579D01*
X009136Y006594D01*
X009151Y006612D01*
X009164Y006632D01*
X009173Y006654D01*
X009178Y006677D01*
X009180Y006700D01*
X008610Y010550D02*
X008608Y010523D01*
X008603Y010496D01*
X008593Y010470D01*
X008581Y010446D01*
X008565Y010424D01*
X008547Y010404D01*
X008525Y010387D01*
X008502Y010372D01*
X008477Y010362D01*
X008451Y010354D01*
X008424Y010350D01*
X008396Y010350D01*
X008369Y010354D01*
X008343Y010362D01*
X008318Y010372D01*
X008295Y010387D01*
X008273Y010404D01*
X008255Y010424D01*
X008239Y010446D01*
X008227Y010470D01*
X008217Y010496D01*
X008212Y010523D01*
X008210Y010550D01*
D12*
X009040Y010550D02*
X009040Y006550D01*
X004900Y006243D02*
X004900Y006097D01*
X004863Y006060D01*
X004790Y006060D01*
X004753Y006097D01*
X004679Y006170D02*
X004569Y006280D01*
X004569Y006060D01*
X004532Y006170D02*
X004679Y006170D01*
X004753Y006243D02*
X004790Y006280D01*
X004863Y006280D01*
X004900Y006243D01*
X008332Y009210D02*
X008479Y009210D01*
X008332Y009357D01*
X008332Y009393D01*
X008369Y009430D01*
X008442Y009430D01*
X008479Y009393D01*
X008553Y009430D02*
X008553Y009247D01*
X008590Y009210D01*
X008663Y009210D01*
X008700Y009247D01*
X008700Y009430D01*
X021420Y007266D02*
X021420Y007193D01*
X021457Y007156D01*
X021457Y007082D02*
X021420Y007045D01*
X021420Y006972D01*
X021457Y006935D01*
X021603Y006935D01*
X021640Y006972D01*
X021640Y007045D01*
X021603Y007082D01*
X021603Y007156D02*
X021640Y007193D01*
X021640Y007266D01*
X021603Y007303D01*
X021567Y007303D01*
X021530Y007266D01*
X021493Y007303D01*
X021457Y007303D01*
X021420Y007266D01*
X021530Y007266D02*
X021530Y007229D01*
X016592Y004253D02*
X016592Y004107D01*
X016555Y004070D01*
X016482Y004070D01*
X016445Y004107D01*
X016371Y004107D02*
X016334Y004070D01*
X016261Y004070D01*
X016224Y004107D01*
X016224Y004143D01*
X016261Y004180D01*
X016371Y004180D01*
X016371Y004107D01*
X016371Y004180D02*
X016298Y004253D01*
X016224Y004290D01*
X016445Y004253D02*
X016482Y004290D01*
X016555Y004290D01*
X016592Y004253D01*
X014592Y004253D02*
X014592Y004107D01*
X014555Y004070D01*
X014482Y004070D01*
X014445Y004107D01*
X014371Y004107D02*
X014334Y004070D01*
X014261Y004070D01*
X014224Y004107D01*
X014224Y004180D01*
X014261Y004217D01*
X014298Y004217D01*
X014371Y004180D01*
X014371Y004290D01*
X014224Y004290D01*
X014445Y004253D02*
X014482Y004290D01*
X014555Y004290D01*
X014592Y004253D01*
D13*
X016079Y010305D02*
X016079Y010455D01*
X016004Y010455D01*
X015979Y010430D01*
X015979Y010380D01*
X016004Y010355D01*
X016079Y010355D01*
X016126Y010355D02*
X016126Y010330D01*
X016151Y010305D01*
X016201Y010305D01*
X016226Y010330D01*
X016226Y010355D01*
X016201Y010380D01*
X016151Y010380D01*
X016126Y010355D01*
X016151Y010380D02*
X016126Y010405D01*
X016126Y010430D01*
X016151Y010455D01*
X016201Y010455D01*
X016226Y010430D01*
X016226Y010405D01*
X016201Y010380D01*
X016274Y010405D02*
X016274Y010430D01*
X016299Y010455D01*
X016349Y010455D01*
X016374Y010430D01*
X016421Y010430D02*
X016421Y010405D01*
X016446Y010380D01*
X016421Y010355D01*
X016421Y010330D01*
X016446Y010305D01*
X016496Y010305D01*
X016521Y010330D01*
X016568Y010305D02*
X016568Y010405D01*
X016618Y010455D01*
X016668Y010405D01*
X016668Y010305D01*
X016716Y010330D02*
X016716Y010380D01*
X016766Y010380D01*
X016816Y010330D02*
X016791Y010305D01*
X016741Y010305D01*
X016716Y010330D01*
X016668Y010380D02*
X016568Y010380D01*
X016521Y010430D02*
X016496Y010455D01*
X016446Y010455D01*
X016421Y010430D01*
X016446Y010380D02*
X016471Y010380D01*
X016374Y010305D02*
X016274Y010405D01*
X016274Y010305D02*
X016374Y010305D01*
X016716Y010430D02*
X016741Y010455D01*
X016791Y010455D01*
X016816Y010430D01*
X016816Y010330D01*
X016863Y010305D02*
X016963Y010305D01*
X016963Y010455D01*
X016863Y010455D01*
X016913Y010380D02*
X016963Y010380D01*
X017010Y010455D02*
X017010Y010305D01*
X017110Y010305D02*
X017110Y010455D01*
X017060Y010405D01*
X017010Y010455D01*
X017158Y010455D02*
X017258Y010455D01*
X017208Y010455D02*
X017208Y010305D01*
X017305Y010305D02*
X017305Y010405D01*
X017355Y010455D01*
X017405Y010405D01*
X017405Y010305D01*
X017405Y010380D02*
X017305Y010380D01*
X017330Y010555D02*
X017305Y010580D01*
X017305Y010705D01*
X017258Y010655D02*
X017208Y010705D01*
X017208Y010555D01*
X017258Y010555D02*
X017158Y010555D01*
X017330Y010555D02*
X017380Y010555D01*
X017405Y010580D01*
X017405Y010705D01*
D14*
X032562Y010241D02*
X032562Y005359D01*
X037758Y005359D01*
X037758Y010241D01*
X032562Y010241D01*
X034569Y008824D02*
X034569Y006776D01*
X033979Y007800D02*
X033981Y007869D01*
X033987Y007937D01*
X033997Y008005D01*
X034011Y008072D01*
X034029Y008139D01*
X034050Y008204D01*
X034076Y008268D01*
X034105Y008330D01*
X034137Y008390D01*
X034173Y008449D01*
X034213Y008505D01*
X034255Y008559D01*
X034301Y008610D01*
X034350Y008659D01*
X034401Y008705D01*
X034455Y008747D01*
X034511Y008787D01*
X034569Y008823D01*
X034630Y008855D01*
X034692Y008884D01*
X034756Y008910D01*
X034821Y008931D01*
X034888Y008949D01*
X034955Y008963D01*
X035023Y008973D01*
X035091Y008979D01*
X035160Y008981D01*
X035229Y008979D01*
X035297Y008973D01*
X035365Y008963D01*
X035432Y008949D01*
X035499Y008931D01*
X035564Y008910D01*
X035628Y008884D01*
X035690Y008855D01*
X035750Y008823D01*
X035809Y008787D01*
X035865Y008747D01*
X035919Y008705D01*
X035970Y008659D01*
X036019Y008610D01*
X036065Y008559D01*
X036107Y008505D01*
X036147Y008449D01*
X036183Y008390D01*
X036215Y008330D01*
X036244Y008268D01*
X036270Y008204D01*
X036291Y008139D01*
X036309Y008072D01*
X036323Y008005D01*
X036333Y007937D01*
X036339Y007869D01*
X036341Y007800D01*
X036339Y007731D01*
X036333Y007663D01*
X036323Y007595D01*
X036309Y007528D01*
X036291Y007461D01*
X036270Y007396D01*
X036244Y007332D01*
X036215Y007270D01*
X036183Y007209D01*
X036147Y007151D01*
X036107Y007095D01*
X036065Y007041D01*
X036019Y006990D01*
X035970Y006941D01*
X035919Y006895D01*
X035865Y006853D01*
X035809Y006813D01*
X035751Y006777D01*
X035690Y006745D01*
X035628Y006716D01*
X035564Y006690D01*
X035499Y006669D01*
X035432Y006651D01*
X035365Y006637D01*
X035297Y006627D01*
X035229Y006621D01*
X035160Y006619D01*
X035091Y006621D01*
X035023Y006627D01*
X034955Y006637D01*
X034888Y006651D01*
X034821Y006669D01*
X034756Y006690D01*
X034692Y006716D01*
X034630Y006745D01*
X034569Y006777D01*
X034511Y006813D01*
X034455Y006853D01*
X034401Y006895D01*
X034350Y006941D01*
X034301Y006990D01*
X034255Y007041D01*
X034213Y007095D01*
X034173Y007151D01*
X034137Y007209D01*
X034105Y007270D01*
X034076Y007332D01*
X034050Y007396D01*
X034029Y007461D01*
X034011Y007528D01*
X033997Y007595D01*
X033987Y007663D01*
X033981Y007731D01*
X033979Y007800D01*
M02*
