%
M48
M72
T01C0.0197
T02C0.0240
T03C0.0394
T04C0.0400
T05C0.1000
%
T01
X10547Y6430
X7387Y7055
X6887Y7680
X7887Y8180
X10637Y9180
X12637Y9680
X13137Y9680
X14137Y10430
X14637Y10930
X17297Y11470
X17387Y12180
X22137Y12180
X20637Y9180
X21137Y8930
X21797Y8050
X22387Y7680
X23637Y6180
X22047Y5570
X29637Y5680
X29637Y4680
X19277Y9040
X10887Y11180
X9887Y11430
X12387Y13180
X30137Y10680
T02
X16137Y6180
X18137Y6180
T03
X7387Y12180
X8387Y12180
X9387Y12180
X10387Y12180
X11387Y12180
X11387Y13180
X10387Y13180
X9387Y13180
X8387Y13180
X7387Y13180
T04
X9637Y1180
X10637Y1180
X11637Y1180
X12637Y1180
X13637Y1180
X14637Y1180
X15637Y1180
X16637Y1180
X17637Y1180
X18637Y1180
X19637Y1180
X20637Y1180
X21637Y1180
X22637Y1180
X23637Y1180
X24637Y1180
X25637Y1180
X25637Y2180
X24637Y2180
X23637Y2180
X22637Y2180
X21637Y2180
X20637Y2180
X19637Y2180
X18637Y2180
X17637Y2180
X16637Y2180
X15637Y2180
X14637Y2180
X13637Y2180
X12637Y2180
X11637Y2180
X10637Y2180
X9637Y2180
X11637Y4180
X12637Y4180
X13637Y4180
X27637Y9680
X29637Y9680
X32137Y10180
X32137Y11180
X28637Y11680
X28262Y13180
X29262Y13180
X30262Y13180
X27262Y13180
X26262Y13180
X25262Y13180
X24262Y13180
X23262Y13180
X22262Y13180
X21262Y13180
X20262Y13180
X19262Y13180
X18262Y13180
X17262Y13180
X16262Y13180
X15262Y13180
X32137Y7180
X32137Y6180
X32137Y5180
X32137Y4180
T05
X2887Y1180
X2887Y13180
X32387Y13180
X32387Y1180
M30
