%
M48
M72
T01C0.0138
T02C0.0197
T03C0.0236
T04C0.0240
T05C0.0315
T06C0.0320
T07C0.0354
T08C0.0394
T09C0.0400
T10C0.0866
T11C0.1000
%
T01
X6910Y4300
X7910Y7050
T02
X3660Y1550
X4160Y1550
X4660Y1550
X5160Y1550
X5160Y2050
X4660Y2050
X4160Y2050
X3660Y2050
X7910Y4050
X4410Y5300
X3910Y5300
X4910Y7050
X6910Y6050
X7660Y6050
X8820Y6800
X10320Y8050
X11820Y8800
X12535Y9800
X11410Y10050
X10910Y10050
X12410Y10800
X12910Y11300
X15570Y11840
X12660Y12800
X10660Y13550
X8160Y11800
X9160Y11550
X8910Y9550
X8160Y8800
X5160Y8175
X3160Y12050
X3160Y12550
X16410Y10050
X16410Y9550
X17550Y9410
X20070Y8170
X21160Y8050
X22910Y7300
X21410Y6550
X20070Y6065
X22910Y5300
X17035Y6050
X14410Y7300
X12070Y3800
X13445Y3300
X26410Y2050
X26910Y2050
X27410Y2050
X27910Y2050
X27910Y1550
X27410Y1550
X26910Y1550
X26410Y1550
X29410Y2800
X29410Y3550
X29410Y6050
X28660Y7300
X25410Y9550
T03
X10910Y4050
X19410Y9300
X18910Y9550
X21410Y9300
X21410Y9800
T04
X14410Y5800
X16410Y5800
T05
X36091Y12050
X34910Y13940
T06
X27160Y9800
X27160Y10800
X27160Y11800
T07
X2026Y6099
X2026Y9249
T08
X5660Y12550
X6660Y12550
X7660Y12550
X8660Y12550
X9660Y12550
X9660Y13550
X8660Y13550
X7660Y13550
X6660Y13550
X5660Y13550
X33729Y12050
X32404Y8784
X32404Y6816
X38113Y6816
X38113Y7800
X38113Y8784
T09
X7910Y1550
X8910Y1550
X9910Y1550
X10910Y1550
X11910Y1550
X12910Y1550
X13910Y1550
X14910Y1550
X15910Y1550
X16910Y1550
X17910Y1550
X18910Y1550
X19910Y1550
X20910Y1550
X21910Y1550
X22910Y1550
X23910Y1550
X23910Y2550
X22910Y2550
X21910Y2550
X20910Y2550
X19910Y2550
X18910Y2550
X17910Y2550
X16910Y2550
X15910Y2550
X14910Y2550
X13910Y2550
X12910Y2550
X11910Y2550
X10910Y2550
X9910Y2550
X8910Y2550
X7910Y2550
X910Y4800
X910Y5800
X910Y6800
X910Y7800
X910Y8800
X910Y9800
X13535Y13550
X14535Y13550
X15535Y13550
X16535Y13550
X17535Y13550
X18535Y13550
X19535Y13550
X20535Y13550
X21535Y13550
X22535Y13550
X23535Y13550
X24535Y13550
X25535Y13550
X26535Y13550
X27535Y13550
X28535Y13550
X30410Y11550
X30410Y10550
X33880Y9190
X36440Y9190
X36440Y7410
X33880Y7410
X33880Y6190
X36440Y6190
X36440Y4410
X33880Y4410
X33880Y3190
X36440Y3190
X36440Y1410
X33880Y1410
X30410Y4550
X30410Y5550
X30410Y6550
X30410Y7550
T10
X35160Y5398
X35160Y10202
T11
X1160Y13550
X1160Y1550
X30660Y1550
X30660Y13550
M30
