%
M48
M72
T01C0.0197
T02C0.0236
T03C0.0240
T04C0.0394
T05C0.0400
T06C0.1000
%
T01
X5788Y1180
X6288Y1180
X6788Y1180
X7288Y1180
X7288Y1680
X6788Y1680
X6288Y1680
X5788Y1680
X10038Y3680
X9538Y5680
X8538Y5680
X6788Y6680
X7288Y7305
X5788Y7180
X5788Y7680
X5788Y8180
X11038Y9180
X13038Y9680
X13538Y9680
X14663Y9430
X14538Y10430
X15038Y10930
X17698Y11470
X17788Y12180
X14788Y12430
X12788Y13180
X10288Y11430
X11288Y11180
X5288Y11680
X5288Y13180
X16538Y6930
X19678Y9040
X18538Y9180
X18538Y9680
X21038Y9180
X21538Y9305
X22198Y8050
X22788Y7680
X25038Y6930
X24038Y6180
X22198Y5695
X25038Y4930
X30038Y4680
X30788Y4680
X30788Y3680
X30788Y2680
X30038Y1680
X29538Y1680
X29038Y1680
X28538Y1680
X28538Y1180
X29038Y1180
X29538Y1180
X30038Y1180
X30788Y5680
X30038Y5680
X30788Y6680
X25038Y9430
X29038Y9680
X22538Y12180
X10948Y6430
T02
X13038Y4930
X9538Y10680
T03
X16538Y5430
X18538Y5430
T04
X7788Y13180
X8788Y13180
X9788Y13180
X10788Y13180
X11788Y13180
X11788Y12180
X10788Y12180
X9788Y12180
X8788Y12180
X7788Y12180
T05
X10038Y1180
X11038Y1180
X12038Y1180
X13038Y1180
X14038Y1180
X15038Y1180
X16038Y1180
X17038Y1180
X18038Y1180
X19038Y1180
X20038Y1180
X21038Y1180
X22038Y1180
X23038Y1180
X24038Y1180
X25038Y1180
X26038Y1180
X26038Y2180
X25038Y2180
X24038Y2180
X23038Y2180
X22038Y2180
X21038Y2180
X20038Y2180
X19038Y2180
X18038Y2180
X17038Y2180
X16038Y2180
X15038Y2180
X14038Y2180
X13038Y2180
X12038Y2180
X11038Y2180
X10038Y2180
X28038Y9680
X30038Y9680
X32538Y10180
X32538Y11180
X29038Y11680
X28663Y13180
X27663Y13180
X26663Y13180
X25663Y13180
X24663Y13180
X23663Y13180
X22663Y13180
X21663Y13180
X20663Y13180
X19663Y13180
X18663Y13180
X17663Y13180
X16663Y13180
X15663Y13180
X8538Y10680
X7538Y10680
X6538Y10680
X5538Y10680
X4538Y10680
X3538Y10680
X29663Y13180
X30663Y13180
X32538Y7180
X32538Y6180
X32538Y5180
X32538Y4180
T06
X3288Y1180
X3288Y13180
X32788Y13180
X32788Y1180
M30
