G75*
%MOIN*%
%OFA0B0*%
%FSLAX25Y25*%
%IPPOS*%
%LPD*%
%AMOC8*
5,1,8,0,0,1.08239X$1,22.5*
%
%ADD10C,0.00000*%
%ADD11R,0.08000X0.02600*%
%ADD12R,0.02200X0.05000*%
%ADD13R,0.05000X0.02200*%
%ADD14R,0.05906X0.05118*%
%ADD15R,0.05118X0.05906*%
D10*
X0001600Y0001600D02*
X0001600Y0141561D01*
X0392801Y0141561D01*
X0392801Y0001600D01*
X0001600Y0001600D01*
X0006600Y0011600D02*
X0006602Y0011741D01*
X0006608Y0011882D01*
X0006618Y0012022D01*
X0006632Y0012162D01*
X0006650Y0012302D01*
X0006671Y0012441D01*
X0006697Y0012580D01*
X0006726Y0012718D01*
X0006760Y0012854D01*
X0006797Y0012990D01*
X0006838Y0013125D01*
X0006883Y0013259D01*
X0006932Y0013391D01*
X0006984Y0013522D01*
X0007040Y0013651D01*
X0007100Y0013778D01*
X0007163Y0013904D01*
X0007229Y0014028D01*
X0007300Y0014151D01*
X0007373Y0014271D01*
X0007450Y0014389D01*
X0007530Y0014505D01*
X0007614Y0014618D01*
X0007700Y0014729D01*
X0007790Y0014838D01*
X0007883Y0014944D01*
X0007978Y0015047D01*
X0008077Y0015148D01*
X0008178Y0015246D01*
X0008282Y0015341D01*
X0008389Y0015433D01*
X0008498Y0015522D01*
X0008610Y0015607D01*
X0008724Y0015690D01*
X0008840Y0015770D01*
X0008959Y0015846D01*
X0009080Y0015918D01*
X0009202Y0015988D01*
X0009327Y0016053D01*
X0009453Y0016116D01*
X0009581Y0016174D01*
X0009711Y0016229D01*
X0009842Y0016281D01*
X0009975Y0016328D01*
X0010109Y0016372D01*
X0010244Y0016413D01*
X0010380Y0016449D01*
X0010517Y0016481D01*
X0010655Y0016510D01*
X0010793Y0016535D01*
X0010933Y0016555D01*
X0011073Y0016572D01*
X0011213Y0016585D01*
X0011354Y0016594D01*
X0011494Y0016599D01*
X0011635Y0016600D01*
X0011776Y0016597D01*
X0011917Y0016590D01*
X0012057Y0016579D01*
X0012197Y0016564D01*
X0012337Y0016545D01*
X0012476Y0016523D01*
X0012614Y0016496D01*
X0012752Y0016466D01*
X0012888Y0016431D01*
X0013024Y0016393D01*
X0013158Y0016351D01*
X0013292Y0016305D01*
X0013424Y0016256D01*
X0013554Y0016202D01*
X0013683Y0016145D01*
X0013810Y0016085D01*
X0013936Y0016021D01*
X0014059Y0015953D01*
X0014181Y0015882D01*
X0014301Y0015808D01*
X0014418Y0015730D01*
X0014533Y0015649D01*
X0014646Y0015565D01*
X0014757Y0015478D01*
X0014865Y0015387D01*
X0014970Y0015294D01*
X0015073Y0015197D01*
X0015173Y0015098D01*
X0015270Y0014996D01*
X0015364Y0014891D01*
X0015455Y0014784D01*
X0015543Y0014674D01*
X0015628Y0014562D01*
X0015710Y0014447D01*
X0015789Y0014330D01*
X0015864Y0014211D01*
X0015936Y0014090D01*
X0016004Y0013967D01*
X0016069Y0013842D01*
X0016131Y0013715D01*
X0016188Y0013586D01*
X0016243Y0013456D01*
X0016293Y0013325D01*
X0016340Y0013192D01*
X0016383Y0013058D01*
X0016422Y0012922D01*
X0016457Y0012786D01*
X0016489Y0012649D01*
X0016516Y0012511D01*
X0016540Y0012372D01*
X0016560Y0012232D01*
X0016576Y0012092D01*
X0016588Y0011952D01*
X0016596Y0011811D01*
X0016600Y0011670D01*
X0016600Y0011530D01*
X0016596Y0011389D01*
X0016588Y0011248D01*
X0016576Y0011108D01*
X0016560Y0010968D01*
X0016540Y0010828D01*
X0016516Y0010689D01*
X0016489Y0010551D01*
X0016457Y0010414D01*
X0016422Y0010278D01*
X0016383Y0010142D01*
X0016340Y0010008D01*
X0016293Y0009875D01*
X0016243Y0009744D01*
X0016188Y0009614D01*
X0016131Y0009485D01*
X0016069Y0009358D01*
X0016004Y0009233D01*
X0015936Y0009110D01*
X0015864Y0008989D01*
X0015789Y0008870D01*
X0015710Y0008753D01*
X0015628Y0008638D01*
X0015543Y0008526D01*
X0015455Y0008416D01*
X0015364Y0008309D01*
X0015270Y0008204D01*
X0015173Y0008102D01*
X0015073Y0008003D01*
X0014970Y0007906D01*
X0014865Y0007813D01*
X0014757Y0007722D01*
X0014646Y0007635D01*
X0014533Y0007551D01*
X0014418Y0007470D01*
X0014301Y0007392D01*
X0014181Y0007318D01*
X0014059Y0007247D01*
X0013936Y0007179D01*
X0013810Y0007115D01*
X0013683Y0007055D01*
X0013554Y0006998D01*
X0013424Y0006944D01*
X0013292Y0006895D01*
X0013158Y0006849D01*
X0013024Y0006807D01*
X0012888Y0006769D01*
X0012752Y0006734D01*
X0012614Y0006704D01*
X0012476Y0006677D01*
X0012337Y0006655D01*
X0012197Y0006636D01*
X0012057Y0006621D01*
X0011917Y0006610D01*
X0011776Y0006603D01*
X0011635Y0006600D01*
X0011494Y0006601D01*
X0011354Y0006606D01*
X0011213Y0006615D01*
X0011073Y0006628D01*
X0010933Y0006645D01*
X0010793Y0006665D01*
X0010655Y0006690D01*
X0010517Y0006719D01*
X0010380Y0006751D01*
X0010244Y0006787D01*
X0010109Y0006828D01*
X0009975Y0006872D01*
X0009842Y0006919D01*
X0009711Y0006971D01*
X0009581Y0007026D01*
X0009453Y0007084D01*
X0009327Y0007147D01*
X0009202Y0007212D01*
X0009080Y0007282D01*
X0008959Y0007354D01*
X0008840Y0007430D01*
X0008724Y0007510D01*
X0008610Y0007593D01*
X0008498Y0007678D01*
X0008389Y0007767D01*
X0008282Y0007859D01*
X0008178Y0007954D01*
X0008077Y0008052D01*
X0007978Y0008153D01*
X0007883Y0008256D01*
X0007790Y0008362D01*
X0007700Y0008471D01*
X0007614Y0008582D01*
X0007530Y0008695D01*
X0007450Y0008811D01*
X0007373Y0008929D01*
X0007300Y0009049D01*
X0007229Y0009172D01*
X0007163Y0009296D01*
X0007100Y0009422D01*
X0007040Y0009549D01*
X0006984Y0009678D01*
X0006932Y0009809D01*
X0006883Y0009941D01*
X0006838Y0010075D01*
X0006797Y0010210D01*
X0006760Y0010346D01*
X0006726Y0010482D01*
X0006697Y0010620D01*
X0006671Y0010759D01*
X0006650Y0010898D01*
X0006632Y0011038D01*
X0006618Y0011178D01*
X0006608Y0011318D01*
X0006602Y0011459D01*
X0006600Y0011600D01*
X0018489Y0057092D02*
X0018491Y0057176D01*
X0018497Y0057259D01*
X0018507Y0057342D01*
X0018521Y0057425D01*
X0018538Y0057507D01*
X0018560Y0057588D01*
X0018585Y0057667D01*
X0018614Y0057746D01*
X0018647Y0057823D01*
X0018683Y0057898D01*
X0018723Y0057972D01*
X0018766Y0058044D01*
X0018813Y0058113D01*
X0018863Y0058180D01*
X0018916Y0058245D01*
X0018972Y0058307D01*
X0019030Y0058367D01*
X0019092Y0058424D01*
X0019156Y0058477D01*
X0019223Y0058528D01*
X0019292Y0058575D01*
X0019363Y0058620D01*
X0019436Y0058660D01*
X0019511Y0058697D01*
X0019588Y0058731D01*
X0019666Y0058761D01*
X0019745Y0058787D01*
X0019826Y0058810D01*
X0019908Y0058828D01*
X0019990Y0058843D01*
X0020073Y0058854D01*
X0020156Y0058861D01*
X0020240Y0058864D01*
X0020324Y0058863D01*
X0020407Y0058858D01*
X0020491Y0058849D01*
X0020573Y0058836D01*
X0020655Y0058820D01*
X0020736Y0058799D01*
X0020817Y0058775D01*
X0020895Y0058747D01*
X0020973Y0058715D01*
X0021049Y0058679D01*
X0021123Y0058640D01*
X0021195Y0058598D01*
X0021265Y0058552D01*
X0021333Y0058503D01*
X0021398Y0058451D01*
X0021461Y0058396D01*
X0021521Y0058338D01*
X0021579Y0058277D01*
X0021633Y0058213D01*
X0021685Y0058147D01*
X0021733Y0058079D01*
X0021778Y0058008D01*
X0021819Y0057935D01*
X0021858Y0057861D01*
X0021892Y0057785D01*
X0021923Y0057707D01*
X0021950Y0057628D01*
X0021974Y0057547D01*
X0021993Y0057466D01*
X0022009Y0057384D01*
X0022021Y0057301D01*
X0022029Y0057217D01*
X0022033Y0057134D01*
X0022033Y0057050D01*
X0022029Y0056967D01*
X0022021Y0056883D01*
X0022009Y0056800D01*
X0021993Y0056718D01*
X0021974Y0056637D01*
X0021950Y0056556D01*
X0021923Y0056477D01*
X0021892Y0056399D01*
X0021858Y0056323D01*
X0021819Y0056249D01*
X0021778Y0056176D01*
X0021733Y0056105D01*
X0021685Y0056037D01*
X0021633Y0055971D01*
X0021579Y0055907D01*
X0021521Y0055846D01*
X0021461Y0055788D01*
X0021398Y0055733D01*
X0021333Y0055681D01*
X0021265Y0055632D01*
X0021195Y0055586D01*
X0021123Y0055544D01*
X0021049Y0055505D01*
X0020973Y0055469D01*
X0020895Y0055437D01*
X0020817Y0055409D01*
X0020736Y0055385D01*
X0020655Y0055364D01*
X0020573Y0055348D01*
X0020491Y0055335D01*
X0020407Y0055326D01*
X0020324Y0055321D01*
X0020240Y0055320D01*
X0020156Y0055323D01*
X0020073Y0055330D01*
X0019990Y0055341D01*
X0019908Y0055356D01*
X0019826Y0055374D01*
X0019745Y0055397D01*
X0019666Y0055423D01*
X0019588Y0055453D01*
X0019511Y0055487D01*
X0019436Y0055524D01*
X0019363Y0055564D01*
X0019292Y0055609D01*
X0019223Y0055656D01*
X0019156Y0055707D01*
X0019092Y0055760D01*
X0019030Y0055817D01*
X0018972Y0055877D01*
X0018916Y0055939D01*
X0018863Y0056004D01*
X0018813Y0056071D01*
X0018766Y0056140D01*
X0018723Y0056212D01*
X0018683Y0056286D01*
X0018647Y0056361D01*
X0018614Y0056438D01*
X0018585Y0056517D01*
X0018560Y0056596D01*
X0018538Y0056677D01*
X0018521Y0056759D01*
X0018507Y0056842D01*
X0018497Y0056925D01*
X0018491Y0057008D01*
X0018489Y0057092D01*
X0018489Y0088588D02*
X0018491Y0088672D01*
X0018497Y0088755D01*
X0018507Y0088838D01*
X0018521Y0088921D01*
X0018538Y0089003D01*
X0018560Y0089084D01*
X0018585Y0089163D01*
X0018614Y0089242D01*
X0018647Y0089319D01*
X0018683Y0089394D01*
X0018723Y0089468D01*
X0018766Y0089540D01*
X0018813Y0089609D01*
X0018863Y0089676D01*
X0018916Y0089741D01*
X0018972Y0089803D01*
X0019030Y0089863D01*
X0019092Y0089920D01*
X0019156Y0089973D01*
X0019223Y0090024D01*
X0019292Y0090071D01*
X0019363Y0090116D01*
X0019436Y0090156D01*
X0019511Y0090193D01*
X0019588Y0090227D01*
X0019666Y0090257D01*
X0019745Y0090283D01*
X0019826Y0090306D01*
X0019908Y0090324D01*
X0019990Y0090339D01*
X0020073Y0090350D01*
X0020156Y0090357D01*
X0020240Y0090360D01*
X0020324Y0090359D01*
X0020407Y0090354D01*
X0020491Y0090345D01*
X0020573Y0090332D01*
X0020655Y0090316D01*
X0020736Y0090295D01*
X0020817Y0090271D01*
X0020895Y0090243D01*
X0020973Y0090211D01*
X0021049Y0090175D01*
X0021123Y0090136D01*
X0021195Y0090094D01*
X0021265Y0090048D01*
X0021333Y0089999D01*
X0021398Y0089947D01*
X0021461Y0089892D01*
X0021521Y0089834D01*
X0021579Y0089773D01*
X0021633Y0089709D01*
X0021685Y0089643D01*
X0021733Y0089575D01*
X0021778Y0089504D01*
X0021819Y0089431D01*
X0021858Y0089357D01*
X0021892Y0089281D01*
X0021923Y0089203D01*
X0021950Y0089124D01*
X0021974Y0089043D01*
X0021993Y0088962D01*
X0022009Y0088880D01*
X0022021Y0088797D01*
X0022029Y0088713D01*
X0022033Y0088630D01*
X0022033Y0088546D01*
X0022029Y0088463D01*
X0022021Y0088379D01*
X0022009Y0088296D01*
X0021993Y0088214D01*
X0021974Y0088133D01*
X0021950Y0088052D01*
X0021923Y0087973D01*
X0021892Y0087895D01*
X0021858Y0087819D01*
X0021819Y0087745D01*
X0021778Y0087672D01*
X0021733Y0087601D01*
X0021685Y0087533D01*
X0021633Y0087467D01*
X0021579Y0087403D01*
X0021521Y0087342D01*
X0021461Y0087284D01*
X0021398Y0087229D01*
X0021333Y0087177D01*
X0021265Y0087128D01*
X0021195Y0087082D01*
X0021123Y0087040D01*
X0021049Y0087001D01*
X0020973Y0086965D01*
X0020895Y0086933D01*
X0020817Y0086905D01*
X0020736Y0086881D01*
X0020655Y0086860D01*
X0020573Y0086844D01*
X0020491Y0086831D01*
X0020407Y0086822D01*
X0020324Y0086817D01*
X0020240Y0086816D01*
X0020156Y0086819D01*
X0020073Y0086826D01*
X0019990Y0086837D01*
X0019908Y0086852D01*
X0019826Y0086870D01*
X0019745Y0086893D01*
X0019666Y0086919D01*
X0019588Y0086949D01*
X0019511Y0086983D01*
X0019436Y0087020D01*
X0019363Y0087060D01*
X0019292Y0087105D01*
X0019223Y0087152D01*
X0019156Y0087203D01*
X0019092Y0087256D01*
X0019030Y0087313D01*
X0018972Y0087373D01*
X0018916Y0087435D01*
X0018863Y0087500D01*
X0018813Y0087567D01*
X0018766Y0087636D01*
X0018723Y0087708D01*
X0018683Y0087782D01*
X0018647Y0087857D01*
X0018614Y0087934D01*
X0018585Y0088013D01*
X0018560Y0088092D01*
X0018538Y0088173D01*
X0018521Y0088255D01*
X0018507Y0088338D01*
X0018497Y0088421D01*
X0018491Y0088504D01*
X0018489Y0088588D01*
X0006600Y0131600D02*
X0006602Y0131741D01*
X0006608Y0131882D01*
X0006618Y0132022D01*
X0006632Y0132162D01*
X0006650Y0132302D01*
X0006671Y0132441D01*
X0006697Y0132580D01*
X0006726Y0132718D01*
X0006760Y0132854D01*
X0006797Y0132990D01*
X0006838Y0133125D01*
X0006883Y0133259D01*
X0006932Y0133391D01*
X0006984Y0133522D01*
X0007040Y0133651D01*
X0007100Y0133778D01*
X0007163Y0133904D01*
X0007229Y0134028D01*
X0007300Y0134151D01*
X0007373Y0134271D01*
X0007450Y0134389D01*
X0007530Y0134505D01*
X0007614Y0134618D01*
X0007700Y0134729D01*
X0007790Y0134838D01*
X0007883Y0134944D01*
X0007978Y0135047D01*
X0008077Y0135148D01*
X0008178Y0135246D01*
X0008282Y0135341D01*
X0008389Y0135433D01*
X0008498Y0135522D01*
X0008610Y0135607D01*
X0008724Y0135690D01*
X0008840Y0135770D01*
X0008959Y0135846D01*
X0009080Y0135918D01*
X0009202Y0135988D01*
X0009327Y0136053D01*
X0009453Y0136116D01*
X0009581Y0136174D01*
X0009711Y0136229D01*
X0009842Y0136281D01*
X0009975Y0136328D01*
X0010109Y0136372D01*
X0010244Y0136413D01*
X0010380Y0136449D01*
X0010517Y0136481D01*
X0010655Y0136510D01*
X0010793Y0136535D01*
X0010933Y0136555D01*
X0011073Y0136572D01*
X0011213Y0136585D01*
X0011354Y0136594D01*
X0011494Y0136599D01*
X0011635Y0136600D01*
X0011776Y0136597D01*
X0011917Y0136590D01*
X0012057Y0136579D01*
X0012197Y0136564D01*
X0012337Y0136545D01*
X0012476Y0136523D01*
X0012614Y0136496D01*
X0012752Y0136466D01*
X0012888Y0136431D01*
X0013024Y0136393D01*
X0013158Y0136351D01*
X0013292Y0136305D01*
X0013424Y0136256D01*
X0013554Y0136202D01*
X0013683Y0136145D01*
X0013810Y0136085D01*
X0013936Y0136021D01*
X0014059Y0135953D01*
X0014181Y0135882D01*
X0014301Y0135808D01*
X0014418Y0135730D01*
X0014533Y0135649D01*
X0014646Y0135565D01*
X0014757Y0135478D01*
X0014865Y0135387D01*
X0014970Y0135294D01*
X0015073Y0135197D01*
X0015173Y0135098D01*
X0015270Y0134996D01*
X0015364Y0134891D01*
X0015455Y0134784D01*
X0015543Y0134674D01*
X0015628Y0134562D01*
X0015710Y0134447D01*
X0015789Y0134330D01*
X0015864Y0134211D01*
X0015936Y0134090D01*
X0016004Y0133967D01*
X0016069Y0133842D01*
X0016131Y0133715D01*
X0016188Y0133586D01*
X0016243Y0133456D01*
X0016293Y0133325D01*
X0016340Y0133192D01*
X0016383Y0133058D01*
X0016422Y0132922D01*
X0016457Y0132786D01*
X0016489Y0132649D01*
X0016516Y0132511D01*
X0016540Y0132372D01*
X0016560Y0132232D01*
X0016576Y0132092D01*
X0016588Y0131952D01*
X0016596Y0131811D01*
X0016600Y0131670D01*
X0016600Y0131530D01*
X0016596Y0131389D01*
X0016588Y0131248D01*
X0016576Y0131108D01*
X0016560Y0130968D01*
X0016540Y0130828D01*
X0016516Y0130689D01*
X0016489Y0130551D01*
X0016457Y0130414D01*
X0016422Y0130278D01*
X0016383Y0130142D01*
X0016340Y0130008D01*
X0016293Y0129875D01*
X0016243Y0129744D01*
X0016188Y0129614D01*
X0016131Y0129485D01*
X0016069Y0129358D01*
X0016004Y0129233D01*
X0015936Y0129110D01*
X0015864Y0128989D01*
X0015789Y0128870D01*
X0015710Y0128753D01*
X0015628Y0128638D01*
X0015543Y0128526D01*
X0015455Y0128416D01*
X0015364Y0128309D01*
X0015270Y0128204D01*
X0015173Y0128102D01*
X0015073Y0128003D01*
X0014970Y0127906D01*
X0014865Y0127813D01*
X0014757Y0127722D01*
X0014646Y0127635D01*
X0014533Y0127551D01*
X0014418Y0127470D01*
X0014301Y0127392D01*
X0014181Y0127318D01*
X0014059Y0127247D01*
X0013936Y0127179D01*
X0013810Y0127115D01*
X0013683Y0127055D01*
X0013554Y0126998D01*
X0013424Y0126944D01*
X0013292Y0126895D01*
X0013158Y0126849D01*
X0013024Y0126807D01*
X0012888Y0126769D01*
X0012752Y0126734D01*
X0012614Y0126704D01*
X0012476Y0126677D01*
X0012337Y0126655D01*
X0012197Y0126636D01*
X0012057Y0126621D01*
X0011917Y0126610D01*
X0011776Y0126603D01*
X0011635Y0126600D01*
X0011494Y0126601D01*
X0011354Y0126606D01*
X0011213Y0126615D01*
X0011073Y0126628D01*
X0010933Y0126645D01*
X0010793Y0126665D01*
X0010655Y0126690D01*
X0010517Y0126719D01*
X0010380Y0126751D01*
X0010244Y0126787D01*
X0010109Y0126828D01*
X0009975Y0126872D01*
X0009842Y0126919D01*
X0009711Y0126971D01*
X0009581Y0127026D01*
X0009453Y0127084D01*
X0009327Y0127147D01*
X0009202Y0127212D01*
X0009080Y0127282D01*
X0008959Y0127354D01*
X0008840Y0127430D01*
X0008724Y0127510D01*
X0008610Y0127593D01*
X0008498Y0127678D01*
X0008389Y0127767D01*
X0008282Y0127859D01*
X0008178Y0127954D01*
X0008077Y0128052D01*
X0007978Y0128153D01*
X0007883Y0128256D01*
X0007790Y0128362D01*
X0007700Y0128471D01*
X0007614Y0128582D01*
X0007530Y0128695D01*
X0007450Y0128811D01*
X0007373Y0128929D01*
X0007300Y0129049D01*
X0007229Y0129172D01*
X0007163Y0129296D01*
X0007100Y0129422D01*
X0007040Y0129549D01*
X0006984Y0129678D01*
X0006932Y0129809D01*
X0006883Y0129941D01*
X0006838Y0130075D01*
X0006797Y0130210D01*
X0006760Y0130346D01*
X0006726Y0130482D01*
X0006697Y0130620D01*
X0006671Y0130759D01*
X0006650Y0130898D01*
X0006632Y0131038D01*
X0006618Y0131178D01*
X0006608Y0131318D01*
X0006602Y0131459D01*
X0006600Y0131600D01*
X0301600Y0131600D02*
X0301602Y0131741D01*
X0301608Y0131882D01*
X0301618Y0132022D01*
X0301632Y0132162D01*
X0301650Y0132302D01*
X0301671Y0132441D01*
X0301697Y0132580D01*
X0301726Y0132718D01*
X0301760Y0132854D01*
X0301797Y0132990D01*
X0301838Y0133125D01*
X0301883Y0133259D01*
X0301932Y0133391D01*
X0301984Y0133522D01*
X0302040Y0133651D01*
X0302100Y0133778D01*
X0302163Y0133904D01*
X0302229Y0134028D01*
X0302300Y0134151D01*
X0302373Y0134271D01*
X0302450Y0134389D01*
X0302530Y0134505D01*
X0302614Y0134618D01*
X0302700Y0134729D01*
X0302790Y0134838D01*
X0302883Y0134944D01*
X0302978Y0135047D01*
X0303077Y0135148D01*
X0303178Y0135246D01*
X0303282Y0135341D01*
X0303389Y0135433D01*
X0303498Y0135522D01*
X0303610Y0135607D01*
X0303724Y0135690D01*
X0303840Y0135770D01*
X0303959Y0135846D01*
X0304080Y0135918D01*
X0304202Y0135988D01*
X0304327Y0136053D01*
X0304453Y0136116D01*
X0304581Y0136174D01*
X0304711Y0136229D01*
X0304842Y0136281D01*
X0304975Y0136328D01*
X0305109Y0136372D01*
X0305244Y0136413D01*
X0305380Y0136449D01*
X0305517Y0136481D01*
X0305655Y0136510D01*
X0305793Y0136535D01*
X0305933Y0136555D01*
X0306073Y0136572D01*
X0306213Y0136585D01*
X0306354Y0136594D01*
X0306494Y0136599D01*
X0306635Y0136600D01*
X0306776Y0136597D01*
X0306917Y0136590D01*
X0307057Y0136579D01*
X0307197Y0136564D01*
X0307337Y0136545D01*
X0307476Y0136523D01*
X0307614Y0136496D01*
X0307752Y0136466D01*
X0307888Y0136431D01*
X0308024Y0136393D01*
X0308158Y0136351D01*
X0308292Y0136305D01*
X0308424Y0136256D01*
X0308554Y0136202D01*
X0308683Y0136145D01*
X0308810Y0136085D01*
X0308936Y0136021D01*
X0309059Y0135953D01*
X0309181Y0135882D01*
X0309301Y0135808D01*
X0309418Y0135730D01*
X0309533Y0135649D01*
X0309646Y0135565D01*
X0309757Y0135478D01*
X0309865Y0135387D01*
X0309970Y0135294D01*
X0310073Y0135197D01*
X0310173Y0135098D01*
X0310270Y0134996D01*
X0310364Y0134891D01*
X0310455Y0134784D01*
X0310543Y0134674D01*
X0310628Y0134562D01*
X0310710Y0134447D01*
X0310789Y0134330D01*
X0310864Y0134211D01*
X0310936Y0134090D01*
X0311004Y0133967D01*
X0311069Y0133842D01*
X0311131Y0133715D01*
X0311188Y0133586D01*
X0311243Y0133456D01*
X0311293Y0133325D01*
X0311340Y0133192D01*
X0311383Y0133058D01*
X0311422Y0132922D01*
X0311457Y0132786D01*
X0311489Y0132649D01*
X0311516Y0132511D01*
X0311540Y0132372D01*
X0311560Y0132232D01*
X0311576Y0132092D01*
X0311588Y0131952D01*
X0311596Y0131811D01*
X0311600Y0131670D01*
X0311600Y0131530D01*
X0311596Y0131389D01*
X0311588Y0131248D01*
X0311576Y0131108D01*
X0311560Y0130968D01*
X0311540Y0130828D01*
X0311516Y0130689D01*
X0311489Y0130551D01*
X0311457Y0130414D01*
X0311422Y0130278D01*
X0311383Y0130142D01*
X0311340Y0130008D01*
X0311293Y0129875D01*
X0311243Y0129744D01*
X0311188Y0129614D01*
X0311131Y0129485D01*
X0311069Y0129358D01*
X0311004Y0129233D01*
X0310936Y0129110D01*
X0310864Y0128989D01*
X0310789Y0128870D01*
X0310710Y0128753D01*
X0310628Y0128638D01*
X0310543Y0128526D01*
X0310455Y0128416D01*
X0310364Y0128309D01*
X0310270Y0128204D01*
X0310173Y0128102D01*
X0310073Y0128003D01*
X0309970Y0127906D01*
X0309865Y0127813D01*
X0309757Y0127722D01*
X0309646Y0127635D01*
X0309533Y0127551D01*
X0309418Y0127470D01*
X0309301Y0127392D01*
X0309181Y0127318D01*
X0309059Y0127247D01*
X0308936Y0127179D01*
X0308810Y0127115D01*
X0308683Y0127055D01*
X0308554Y0126998D01*
X0308424Y0126944D01*
X0308292Y0126895D01*
X0308158Y0126849D01*
X0308024Y0126807D01*
X0307888Y0126769D01*
X0307752Y0126734D01*
X0307614Y0126704D01*
X0307476Y0126677D01*
X0307337Y0126655D01*
X0307197Y0126636D01*
X0307057Y0126621D01*
X0306917Y0126610D01*
X0306776Y0126603D01*
X0306635Y0126600D01*
X0306494Y0126601D01*
X0306354Y0126606D01*
X0306213Y0126615D01*
X0306073Y0126628D01*
X0305933Y0126645D01*
X0305793Y0126665D01*
X0305655Y0126690D01*
X0305517Y0126719D01*
X0305380Y0126751D01*
X0305244Y0126787D01*
X0305109Y0126828D01*
X0304975Y0126872D01*
X0304842Y0126919D01*
X0304711Y0126971D01*
X0304581Y0127026D01*
X0304453Y0127084D01*
X0304327Y0127147D01*
X0304202Y0127212D01*
X0304080Y0127282D01*
X0303959Y0127354D01*
X0303840Y0127430D01*
X0303724Y0127510D01*
X0303610Y0127593D01*
X0303498Y0127678D01*
X0303389Y0127767D01*
X0303282Y0127859D01*
X0303178Y0127954D01*
X0303077Y0128052D01*
X0302978Y0128153D01*
X0302883Y0128256D01*
X0302790Y0128362D01*
X0302700Y0128471D01*
X0302614Y0128582D01*
X0302530Y0128695D01*
X0302450Y0128811D01*
X0302373Y0128929D01*
X0302300Y0129049D01*
X0302229Y0129172D01*
X0302163Y0129296D01*
X0302100Y0129422D01*
X0302040Y0129549D01*
X0301984Y0129678D01*
X0301932Y0129809D01*
X0301883Y0129941D01*
X0301838Y0130075D01*
X0301797Y0130210D01*
X0301760Y0130346D01*
X0301726Y0130482D01*
X0301697Y0130620D01*
X0301671Y0130759D01*
X0301650Y0130898D01*
X0301632Y0131038D01*
X0301618Y0131178D01*
X0301608Y0131318D01*
X0301602Y0131459D01*
X0301600Y0131600D01*
X0347466Y0101265D02*
X0355734Y0101265D01*
X0355851Y0101263D01*
X0355968Y0101257D01*
X0356085Y0101248D01*
X0356201Y0101234D01*
X0356317Y0101217D01*
X0356432Y0101195D01*
X0356547Y0101170D01*
X0356660Y0101142D01*
X0356773Y0101109D01*
X0356884Y0101073D01*
X0356995Y0101033D01*
X0357103Y0100990D01*
X0357211Y0100943D01*
X0357316Y0100892D01*
X0357420Y0100838D01*
X0357522Y0100781D01*
X0357623Y0100720D01*
X0357721Y0100656D01*
X0357817Y0100588D01*
X0357910Y0100518D01*
X0358001Y0100444D01*
X0358090Y0100368D01*
X0358176Y0100289D01*
X0358260Y0100206D01*
X0358341Y0100122D01*
X0358419Y0100034D01*
X0358494Y0099944D01*
X0358566Y0099852D01*
X0358634Y0099757D01*
X0358700Y0099660D01*
X0358763Y0099561D01*
X0358822Y0099460D01*
X0358877Y0099357D01*
X0358930Y0099252D01*
X0358979Y0099145D01*
X0359024Y0099037D01*
X0359066Y0098928D01*
X0359104Y0098817D01*
X0359138Y0098705D01*
X0359169Y0098592D01*
X0359195Y0098478D01*
X0359219Y0098363D01*
X0359238Y0098247D01*
X0359253Y0098131D01*
X0359265Y0098015D01*
X0359273Y0097898D01*
X0359277Y0097781D01*
X0359277Y0097663D01*
X0359273Y0097546D01*
X0359265Y0097429D01*
X0359253Y0097313D01*
X0359238Y0097197D01*
X0359219Y0097081D01*
X0359195Y0096966D01*
X0359169Y0096852D01*
X0359138Y0096739D01*
X0359104Y0096627D01*
X0359066Y0096516D01*
X0359024Y0096407D01*
X0358979Y0096299D01*
X0358930Y0096192D01*
X0358877Y0096087D01*
X0358822Y0095984D01*
X0358763Y0095883D01*
X0358700Y0095784D01*
X0358634Y0095687D01*
X0358566Y0095592D01*
X0358494Y0095500D01*
X0358419Y0095410D01*
X0358341Y0095322D01*
X0358260Y0095238D01*
X0358176Y0095155D01*
X0358090Y0095076D01*
X0358001Y0095000D01*
X0357910Y0094926D01*
X0357817Y0094856D01*
X0357721Y0094788D01*
X0357623Y0094724D01*
X0357522Y0094663D01*
X0357420Y0094606D01*
X0357316Y0094552D01*
X0357211Y0094501D01*
X0357103Y0094454D01*
X0356995Y0094411D01*
X0356884Y0094371D01*
X0356773Y0094335D01*
X0356660Y0094302D01*
X0356547Y0094274D01*
X0356432Y0094249D01*
X0356317Y0094227D01*
X0356201Y0094210D01*
X0356085Y0094196D01*
X0355968Y0094187D01*
X0355851Y0094181D01*
X0355734Y0094179D01*
X0347466Y0094179D01*
X0347349Y0094181D01*
X0347232Y0094187D01*
X0347115Y0094196D01*
X0346999Y0094210D01*
X0346883Y0094227D01*
X0346768Y0094249D01*
X0346653Y0094274D01*
X0346540Y0094302D01*
X0346427Y0094335D01*
X0346316Y0094371D01*
X0346205Y0094411D01*
X0346097Y0094454D01*
X0345989Y0094501D01*
X0345884Y0094552D01*
X0345780Y0094606D01*
X0345678Y0094663D01*
X0345577Y0094724D01*
X0345479Y0094788D01*
X0345383Y0094856D01*
X0345290Y0094926D01*
X0345199Y0095000D01*
X0345110Y0095076D01*
X0345024Y0095155D01*
X0344940Y0095238D01*
X0344859Y0095322D01*
X0344781Y0095410D01*
X0344706Y0095500D01*
X0344634Y0095592D01*
X0344566Y0095687D01*
X0344500Y0095784D01*
X0344437Y0095883D01*
X0344378Y0095984D01*
X0344323Y0096087D01*
X0344270Y0096192D01*
X0344221Y0096299D01*
X0344176Y0096407D01*
X0344134Y0096516D01*
X0344096Y0096627D01*
X0344062Y0096739D01*
X0344031Y0096852D01*
X0344005Y0096966D01*
X0343981Y0097081D01*
X0343962Y0097197D01*
X0343947Y0097313D01*
X0343935Y0097429D01*
X0343927Y0097546D01*
X0343923Y0097663D01*
X0343923Y0097781D01*
X0343927Y0097898D01*
X0343935Y0098015D01*
X0343947Y0098131D01*
X0343962Y0098247D01*
X0343981Y0098363D01*
X0344005Y0098478D01*
X0344031Y0098592D01*
X0344062Y0098705D01*
X0344096Y0098817D01*
X0344134Y0098928D01*
X0344176Y0099037D01*
X0344221Y0099145D01*
X0344270Y0099252D01*
X0344323Y0099357D01*
X0344378Y0099460D01*
X0344437Y0099561D01*
X0344500Y0099660D01*
X0344566Y0099757D01*
X0344634Y0099852D01*
X0344706Y0099944D01*
X0344781Y0100034D01*
X0344859Y0100122D01*
X0344940Y0100206D01*
X0345024Y0100289D01*
X0345110Y0100368D01*
X0345199Y0100444D01*
X0345290Y0100518D01*
X0345383Y0100588D01*
X0345479Y0100656D01*
X0345577Y0100720D01*
X0345678Y0100781D01*
X0345780Y0100838D01*
X0345884Y0100892D01*
X0345989Y0100943D01*
X0346097Y0100990D01*
X0346205Y0101033D01*
X0346316Y0101073D01*
X0346427Y0101109D01*
X0346540Y0101142D01*
X0346653Y0101170D01*
X0346768Y0101195D01*
X0346883Y0101217D01*
X0346999Y0101234D01*
X0347115Y0101248D01*
X0347232Y0101257D01*
X0347349Y0101263D01*
X0347466Y0101265D01*
X0347466Y0054021D02*
X0355734Y0054021D01*
X0355851Y0054019D01*
X0355968Y0054013D01*
X0356085Y0054004D01*
X0356201Y0053990D01*
X0356317Y0053973D01*
X0356432Y0053951D01*
X0356547Y0053926D01*
X0356660Y0053898D01*
X0356773Y0053865D01*
X0356884Y0053829D01*
X0356995Y0053789D01*
X0357103Y0053746D01*
X0357211Y0053699D01*
X0357316Y0053648D01*
X0357420Y0053594D01*
X0357522Y0053537D01*
X0357623Y0053476D01*
X0357721Y0053412D01*
X0357817Y0053344D01*
X0357910Y0053274D01*
X0358001Y0053200D01*
X0358090Y0053124D01*
X0358176Y0053045D01*
X0358260Y0052962D01*
X0358341Y0052878D01*
X0358419Y0052790D01*
X0358494Y0052700D01*
X0358566Y0052608D01*
X0358634Y0052513D01*
X0358700Y0052416D01*
X0358763Y0052317D01*
X0358822Y0052216D01*
X0358877Y0052113D01*
X0358930Y0052008D01*
X0358979Y0051901D01*
X0359024Y0051793D01*
X0359066Y0051684D01*
X0359104Y0051573D01*
X0359138Y0051461D01*
X0359169Y0051348D01*
X0359195Y0051234D01*
X0359219Y0051119D01*
X0359238Y0051003D01*
X0359253Y0050887D01*
X0359265Y0050771D01*
X0359273Y0050654D01*
X0359277Y0050537D01*
X0359277Y0050419D01*
X0359273Y0050302D01*
X0359265Y0050185D01*
X0359253Y0050069D01*
X0359238Y0049953D01*
X0359219Y0049837D01*
X0359195Y0049722D01*
X0359169Y0049608D01*
X0359138Y0049495D01*
X0359104Y0049383D01*
X0359066Y0049272D01*
X0359024Y0049163D01*
X0358979Y0049055D01*
X0358930Y0048948D01*
X0358877Y0048843D01*
X0358822Y0048740D01*
X0358763Y0048639D01*
X0358700Y0048540D01*
X0358634Y0048443D01*
X0358566Y0048348D01*
X0358494Y0048256D01*
X0358419Y0048166D01*
X0358341Y0048078D01*
X0358260Y0047994D01*
X0358176Y0047911D01*
X0358090Y0047832D01*
X0358001Y0047756D01*
X0357910Y0047682D01*
X0357817Y0047612D01*
X0357721Y0047544D01*
X0357623Y0047480D01*
X0357522Y0047419D01*
X0357420Y0047362D01*
X0357316Y0047308D01*
X0357211Y0047257D01*
X0357103Y0047210D01*
X0356995Y0047167D01*
X0356884Y0047127D01*
X0356773Y0047091D01*
X0356660Y0047058D01*
X0356547Y0047030D01*
X0356432Y0047005D01*
X0356317Y0046983D01*
X0356201Y0046966D01*
X0356085Y0046952D01*
X0355968Y0046943D01*
X0355851Y0046937D01*
X0355734Y0046935D01*
X0347466Y0046935D01*
X0347349Y0046937D01*
X0347232Y0046943D01*
X0347115Y0046952D01*
X0346999Y0046966D01*
X0346883Y0046983D01*
X0346768Y0047005D01*
X0346653Y0047030D01*
X0346540Y0047058D01*
X0346427Y0047091D01*
X0346316Y0047127D01*
X0346205Y0047167D01*
X0346097Y0047210D01*
X0345989Y0047257D01*
X0345884Y0047308D01*
X0345780Y0047362D01*
X0345678Y0047419D01*
X0345577Y0047480D01*
X0345479Y0047544D01*
X0345383Y0047612D01*
X0345290Y0047682D01*
X0345199Y0047756D01*
X0345110Y0047832D01*
X0345024Y0047911D01*
X0344940Y0047994D01*
X0344859Y0048078D01*
X0344781Y0048166D01*
X0344706Y0048256D01*
X0344634Y0048348D01*
X0344566Y0048443D01*
X0344500Y0048540D01*
X0344437Y0048639D01*
X0344378Y0048740D01*
X0344323Y0048843D01*
X0344270Y0048948D01*
X0344221Y0049055D01*
X0344176Y0049163D01*
X0344134Y0049272D01*
X0344096Y0049383D01*
X0344062Y0049495D01*
X0344031Y0049608D01*
X0344005Y0049722D01*
X0343981Y0049837D01*
X0343962Y0049953D01*
X0343947Y0050069D01*
X0343935Y0050185D01*
X0343927Y0050302D01*
X0343923Y0050419D01*
X0343923Y0050537D01*
X0343927Y0050654D01*
X0343935Y0050771D01*
X0343947Y0050887D01*
X0343962Y0051003D01*
X0343981Y0051119D01*
X0344005Y0051234D01*
X0344031Y0051348D01*
X0344062Y0051461D01*
X0344096Y0051573D01*
X0344134Y0051684D01*
X0344176Y0051793D01*
X0344221Y0051901D01*
X0344270Y0052008D01*
X0344323Y0052113D01*
X0344378Y0052216D01*
X0344437Y0052317D01*
X0344500Y0052416D01*
X0344566Y0052513D01*
X0344634Y0052608D01*
X0344706Y0052700D01*
X0344781Y0052790D01*
X0344859Y0052878D01*
X0344940Y0052962D01*
X0345024Y0053045D01*
X0345110Y0053124D01*
X0345199Y0053200D01*
X0345290Y0053274D01*
X0345383Y0053344D01*
X0345479Y0053412D01*
X0345577Y0053476D01*
X0345678Y0053537D01*
X0345780Y0053594D01*
X0345884Y0053648D01*
X0345989Y0053699D01*
X0346097Y0053746D01*
X0346205Y0053789D01*
X0346316Y0053829D01*
X0346427Y0053865D01*
X0346540Y0053898D01*
X0346653Y0053926D01*
X0346768Y0053951D01*
X0346883Y0053973D01*
X0346999Y0053990D01*
X0347115Y0054004D01*
X0347232Y0054013D01*
X0347349Y0054019D01*
X0347466Y0054021D01*
X0301600Y0011600D02*
X0301602Y0011741D01*
X0301608Y0011882D01*
X0301618Y0012022D01*
X0301632Y0012162D01*
X0301650Y0012302D01*
X0301671Y0012441D01*
X0301697Y0012580D01*
X0301726Y0012718D01*
X0301760Y0012854D01*
X0301797Y0012990D01*
X0301838Y0013125D01*
X0301883Y0013259D01*
X0301932Y0013391D01*
X0301984Y0013522D01*
X0302040Y0013651D01*
X0302100Y0013778D01*
X0302163Y0013904D01*
X0302229Y0014028D01*
X0302300Y0014151D01*
X0302373Y0014271D01*
X0302450Y0014389D01*
X0302530Y0014505D01*
X0302614Y0014618D01*
X0302700Y0014729D01*
X0302790Y0014838D01*
X0302883Y0014944D01*
X0302978Y0015047D01*
X0303077Y0015148D01*
X0303178Y0015246D01*
X0303282Y0015341D01*
X0303389Y0015433D01*
X0303498Y0015522D01*
X0303610Y0015607D01*
X0303724Y0015690D01*
X0303840Y0015770D01*
X0303959Y0015846D01*
X0304080Y0015918D01*
X0304202Y0015988D01*
X0304327Y0016053D01*
X0304453Y0016116D01*
X0304581Y0016174D01*
X0304711Y0016229D01*
X0304842Y0016281D01*
X0304975Y0016328D01*
X0305109Y0016372D01*
X0305244Y0016413D01*
X0305380Y0016449D01*
X0305517Y0016481D01*
X0305655Y0016510D01*
X0305793Y0016535D01*
X0305933Y0016555D01*
X0306073Y0016572D01*
X0306213Y0016585D01*
X0306354Y0016594D01*
X0306494Y0016599D01*
X0306635Y0016600D01*
X0306776Y0016597D01*
X0306917Y0016590D01*
X0307057Y0016579D01*
X0307197Y0016564D01*
X0307337Y0016545D01*
X0307476Y0016523D01*
X0307614Y0016496D01*
X0307752Y0016466D01*
X0307888Y0016431D01*
X0308024Y0016393D01*
X0308158Y0016351D01*
X0308292Y0016305D01*
X0308424Y0016256D01*
X0308554Y0016202D01*
X0308683Y0016145D01*
X0308810Y0016085D01*
X0308936Y0016021D01*
X0309059Y0015953D01*
X0309181Y0015882D01*
X0309301Y0015808D01*
X0309418Y0015730D01*
X0309533Y0015649D01*
X0309646Y0015565D01*
X0309757Y0015478D01*
X0309865Y0015387D01*
X0309970Y0015294D01*
X0310073Y0015197D01*
X0310173Y0015098D01*
X0310270Y0014996D01*
X0310364Y0014891D01*
X0310455Y0014784D01*
X0310543Y0014674D01*
X0310628Y0014562D01*
X0310710Y0014447D01*
X0310789Y0014330D01*
X0310864Y0014211D01*
X0310936Y0014090D01*
X0311004Y0013967D01*
X0311069Y0013842D01*
X0311131Y0013715D01*
X0311188Y0013586D01*
X0311243Y0013456D01*
X0311293Y0013325D01*
X0311340Y0013192D01*
X0311383Y0013058D01*
X0311422Y0012922D01*
X0311457Y0012786D01*
X0311489Y0012649D01*
X0311516Y0012511D01*
X0311540Y0012372D01*
X0311560Y0012232D01*
X0311576Y0012092D01*
X0311588Y0011952D01*
X0311596Y0011811D01*
X0311600Y0011670D01*
X0311600Y0011530D01*
X0311596Y0011389D01*
X0311588Y0011248D01*
X0311576Y0011108D01*
X0311560Y0010968D01*
X0311540Y0010828D01*
X0311516Y0010689D01*
X0311489Y0010551D01*
X0311457Y0010414D01*
X0311422Y0010278D01*
X0311383Y0010142D01*
X0311340Y0010008D01*
X0311293Y0009875D01*
X0311243Y0009744D01*
X0311188Y0009614D01*
X0311131Y0009485D01*
X0311069Y0009358D01*
X0311004Y0009233D01*
X0310936Y0009110D01*
X0310864Y0008989D01*
X0310789Y0008870D01*
X0310710Y0008753D01*
X0310628Y0008638D01*
X0310543Y0008526D01*
X0310455Y0008416D01*
X0310364Y0008309D01*
X0310270Y0008204D01*
X0310173Y0008102D01*
X0310073Y0008003D01*
X0309970Y0007906D01*
X0309865Y0007813D01*
X0309757Y0007722D01*
X0309646Y0007635D01*
X0309533Y0007551D01*
X0309418Y0007470D01*
X0309301Y0007392D01*
X0309181Y0007318D01*
X0309059Y0007247D01*
X0308936Y0007179D01*
X0308810Y0007115D01*
X0308683Y0007055D01*
X0308554Y0006998D01*
X0308424Y0006944D01*
X0308292Y0006895D01*
X0308158Y0006849D01*
X0308024Y0006807D01*
X0307888Y0006769D01*
X0307752Y0006734D01*
X0307614Y0006704D01*
X0307476Y0006677D01*
X0307337Y0006655D01*
X0307197Y0006636D01*
X0307057Y0006621D01*
X0306917Y0006610D01*
X0306776Y0006603D01*
X0306635Y0006600D01*
X0306494Y0006601D01*
X0306354Y0006606D01*
X0306213Y0006615D01*
X0306073Y0006628D01*
X0305933Y0006645D01*
X0305793Y0006665D01*
X0305655Y0006690D01*
X0305517Y0006719D01*
X0305380Y0006751D01*
X0305244Y0006787D01*
X0305109Y0006828D01*
X0304975Y0006872D01*
X0304842Y0006919D01*
X0304711Y0006971D01*
X0304581Y0007026D01*
X0304453Y0007084D01*
X0304327Y0007147D01*
X0304202Y0007212D01*
X0304080Y0007282D01*
X0303959Y0007354D01*
X0303840Y0007430D01*
X0303724Y0007510D01*
X0303610Y0007593D01*
X0303498Y0007678D01*
X0303389Y0007767D01*
X0303282Y0007859D01*
X0303178Y0007954D01*
X0303077Y0008052D01*
X0302978Y0008153D01*
X0302883Y0008256D01*
X0302790Y0008362D01*
X0302700Y0008471D01*
X0302614Y0008582D01*
X0302530Y0008695D01*
X0302450Y0008811D01*
X0302373Y0008929D01*
X0302300Y0009049D01*
X0302229Y0009172D01*
X0302163Y0009296D01*
X0302100Y0009422D01*
X0302040Y0009549D01*
X0301984Y0009678D01*
X0301932Y0009809D01*
X0301883Y0009941D01*
X0301838Y0010075D01*
X0301797Y0010210D01*
X0301760Y0010346D01*
X0301726Y0010482D01*
X0301697Y0010620D01*
X0301671Y0010759D01*
X0301650Y0010898D01*
X0301632Y0011038D01*
X0301618Y0011178D01*
X0301608Y0011318D01*
X0301602Y0011459D01*
X0301600Y0011600D01*
D11*
X0096200Y0064100D03*
X0096200Y0069100D03*
X0096200Y0074100D03*
X0096200Y0079100D03*
X0096200Y0084100D03*
X0096200Y0089100D03*
X0096200Y0094100D03*
X0096200Y0099100D03*
X0072000Y0099100D03*
X0072000Y0094100D03*
X0072000Y0089100D03*
X0072000Y0084100D03*
X0072000Y0079100D03*
X0072000Y0074100D03*
X0072000Y0069100D03*
X0072000Y0064100D03*
D12*
X0153076Y0074700D03*
X0156226Y0074700D03*
X0159376Y0074700D03*
X0162525Y0074700D03*
X0165675Y0074700D03*
X0168824Y0074700D03*
X0171974Y0074700D03*
X0175124Y0074700D03*
X0175124Y0108500D03*
X0171974Y0108500D03*
X0168824Y0108500D03*
X0165675Y0108500D03*
X0162525Y0108500D03*
X0159376Y0108500D03*
X0156226Y0108500D03*
X0153076Y0108500D03*
D13*
X0147200Y0102624D03*
X0147200Y0099474D03*
X0147200Y0096324D03*
X0147200Y0093175D03*
X0147200Y0090025D03*
X0147200Y0086876D03*
X0147200Y0083726D03*
X0147200Y0080576D03*
X0181000Y0080576D03*
X0181000Y0083726D03*
X0181000Y0086876D03*
X0181000Y0090025D03*
X0181000Y0093175D03*
X0181000Y0096324D03*
X0181000Y0099474D03*
X0181000Y0102624D03*
D14*
X0221600Y0070340D03*
X0221600Y0062860D03*
X0054100Y0062840D03*
X0054100Y0055360D03*
D15*
X0140360Y0044100D03*
X0147840Y0044100D03*
X0160360Y0044100D03*
X0167840Y0044100D03*
X0220360Y0084100D03*
X0227840Y0084100D03*
X0227840Y0094100D03*
X0220360Y0094100D03*
M02*
