G75*
%MOIN*%
%OFA0B0*%
%FSLAX24Y24*%
%IPPOS*%
%LPD*%
%AMOC8*
5,1,8,0,0,1.08239X$1,22.5*
%
%ADD10C,0.0000*%
%ADD11C,0.0040*%
%ADD12C,0.0090*%
%ADD13C,0.0020*%
%ADD14C,0.0060*%
%ADD15C,0.0080*%
%ADD16C,0.0050*%
%ADD17R,0.0020X0.0002*%
%ADD18R,0.0025X0.0003*%
%ADD19R,0.0030X0.0002*%
%ADD20R,0.0035X0.0003*%
%ADD21R,0.0042X0.0002*%
%ADD22R,0.0050X0.0003*%
%ADD23R,0.0060X0.0002*%
%ADD24R,0.0065X0.0003*%
%ADD25R,0.0067X0.0002*%
%ADD26R,0.0070X0.0003*%
%ADD27R,0.0072X0.0002*%
%ADD28R,0.0072X0.0003*%
%ADD29R,0.0075X0.0002*%
%ADD30R,0.0075X0.0003*%
%ADD31R,0.0012X0.0002*%
%ADD32R,0.0003X0.0002*%
%ADD33R,0.0010X0.0002*%
%ADD34R,0.0008X0.0002*%
%ADD35R,0.0002X0.0002*%
%ADD36R,0.0005X0.0002*%
%ADD37R,0.0007X0.0002*%
%ADD38R,0.0007X0.0003*%
%ADD39R,0.0083X0.0003*%
%ADD40R,0.0068X0.0003*%
%ADD41R,0.0078X0.0003*%
%ADD42R,0.0010X0.0003*%
%ADD43R,0.0005X0.0003*%
%ADD44R,0.0080X0.0003*%
%ADD45R,0.0038X0.0002*%
%ADD46R,0.0033X0.0002*%
%ADD47R,0.0043X0.0002*%
%ADD48R,0.0015X0.0002*%
%ADD49R,0.0093X0.0002*%
%ADD50R,0.0080X0.0002*%
%ADD51R,0.0090X0.0002*%
%ADD52R,0.0052X0.0003*%
%ADD53R,0.0077X0.0003*%
%ADD54R,0.0053X0.0003*%
%ADD55R,0.0018X0.0003*%
%ADD56R,0.0020X0.0003*%
%ADD57R,0.0097X0.0003*%
%ADD58R,0.0100X0.0003*%
%ADD59R,0.0085X0.0003*%
%ADD60R,0.0098X0.0003*%
%ADD61R,0.0023X0.0003*%
%ADD62R,0.0068X0.0002*%
%ADD63R,0.0077X0.0002*%
%ADD64R,0.0063X0.0002*%
%ADD65R,0.0023X0.0002*%
%ADD66R,0.0022X0.0002*%
%ADD67R,0.0105X0.0002*%
%ADD68R,0.0028X0.0002*%
%ADD69R,0.0025X0.0002*%
%ADD70R,0.0110X0.0002*%
%ADD71R,0.0092X0.0002*%
%ADD72R,0.0082X0.0003*%
%ADD73R,0.0017X0.0003*%
%ADD74R,0.0030X0.0003*%
%ADD75R,0.0027X0.0003*%
%ADD76R,0.0108X0.0003*%
%ADD77R,0.0033X0.0003*%
%ADD78R,0.0118X0.0003*%
%ADD79R,0.0113X0.0003*%
%ADD80R,0.0028X0.0003*%
%ADD81R,0.0102X0.0002*%
%ADD82R,0.0085X0.0002*%
%ADD83R,0.0103X0.0002*%
%ADD84R,0.0100X0.0002*%
%ADD85R,0.0037X0.0002*%
%ADD86R,0.0035X0.0002*%
%ADD87R,0.0117X0.0002*%
%ADD88R,0.0132X0.0002*%
%ADD89R,0.0108X0.0002*%
%ADD90R,0.0118X0.0002*%
%ADD91R,0.0128X0.0002*%
%ADD92R,0.0122X0.0003*%
%ADD93R,0.0205X0.0003*%
%ADD94R,0.0120X0.0003*%
%ADD95R,0.0040X0.0003*%
%ADD96R,0.0042X0.0003*%
%ADD97R,0.0043X0.0003*%
%ADD98R,0.0125X0.0003*%
%ADD99R,0.0142X0.0003*%
%ADD100R,0.0123X0.0003*%
%ADD101R,0.0128X0.0003*%
%ADD102R,0.0045X0.0003*%
%ADD103R,0.0135X0.0002*%
%ADD104R,0.0210X0.0002*%
%ADD105R,0.0048X0.0002*%
%ADD106R,0.0047X0.0002*%
%ADD107R,0.0045X0.0002*%
%ADD108R,0.0133X0.0002*%
%ADD109R,0.0055X0.0002*%
%ADD110R,0.0150X0.0002*%
%ADD111R,0.0262X0.0002*%
%ADD112R,0.0130X0.0002*%
%ADD113R,0.0050X0.0002*%
%ADD114R,0.0152X0.0002*%
%ADD115R,0.0215X0.0003*%
%ADD116R,0.0143X0.0003*%
%ADD117R,0.0055X0.0003*%
%ADD118R,0.0047X0.0003*%
%ADD119R,0.0135X0.0003*%
%ADD120R,0.0058X0.0003*%
%ADD121R,0.0158X0.0003*%
%ADD122R,0.0268X0.0003*%
%ADD123R,0.0132X0.0003*%
%ADD124R,0.0148X0.0002*%
%ADD125R,0.0217X0.0002*%
%ADD126R,0.0147X0.0002*%
%ADD127R,0.0058X0.0002*%
%ADD128R,0.0053X0.0002*%
%ADD129R,0.0138X0.0002*%
%ADD130R,0.0052X0.0002*%
%ADD131R,0.0162X0.0002*%
%ADD132R,0.0272X0.0002*%
%ADD133R,0.0152X0.0003*%
%ADD134R,0.0220X0.0003*%
%ADD135R,0.0153X0.0003*%
%ADD136R,0.0062X0.0003*%
%ADD137R,0.0063X0.0003*%
%ADD138R,0.0140X0.0003*%
%ADD139R,0.0060X0.0003*%
%ADD140R,0.0168X0.0003*%
%ADD141R,0.0278X0.0003*%
%ADD142R,0.0137X0.0003*%
%ADD143R,0.0165X0.0003*%
%ADD144R,0.0160X0.0002*%
%ADD145R,0.0222X0.0002*%
%ADD146R,0.0140X0.0002*%
%ADD147R,0.0172X0.0002*%
%ADD148R,0.0282X0.0002*%
%ADD149R,0.0170X0.0003*%
%ADD150R,0.0227X0.0003*%
%ADD151R,0.0167X0.0003*%
%ADD152R,0.0073X0.0003*%
%ADD153R,0.0180X0.0003*%
%ADD154R,0.0288X0.0003*%
%ADD155R,0.0178X0.0003*%
%ADD156R,0.0180X0.0002*%
%ADD157R,0.0235X0.0002*%
%ADD158R,0.0177X0.0002*%
%ADD159R,0.0078X0.0002*%
%ADD160R,0.0145X0.0002*%
%ADD161R,0.0057X0.0002*%
%ADD162R,0.0185X0.0002*%
%ADD163R,0.0292X0.0002*%
%ADD164R,0.0182X0.0002*%
%ADD165R,0.0188X0.0003*%
%ADD166R,0.0237X0.0003*%
%ADD167R,0.0183X0.0003*%
%ADD168R,0.0148X0.0003*%
%ADD169R,0.0057X0.0003*%
%ADD170R,0.0190X0.0003*%
%ADD171R,0.0295X0.0003*%
%ADD172R,0.0192X0.0002*%
%ADD173R,0.0240X0.0002*%
%ADD174R,0.0187X0.0002*%
%ADD175R,0.0195X0.0002*%
%ADD176R,0.0298X0.0002*%
%ADD177R,0.0198X0.0003*%
%ADD178R,0.0242X0.0003*%
%ADD179R,0.0193X0.0003*%
%ADD180R,0.0147X0.0003*%
%ADD181R,0.0200X0.0003*%
%ADD182R,0.0300X0.0003*%
%ADD183R,0.0150X0.0003*%
%ADD184R,0.0202X0.0002*%
%ADD185R,0.0242X0.0002*%
%ADD186R,0.0197X0.0002*%
%ADD187R,0.0205X0.0002*%
%ADD188R,0.0302X0.0002*%
%ADD189R,0.0200X0.0002*%
%ADD190R,0.0208X0.0003*%
%ADD191R,0.0245X0.0003*%
%ADD192R,0.0203X0.0003*%
%ADD193R,0.0210X0.0003*%
%ADD194R,0.0302X0.0003*%
%ADD195R,0.0202X0.0003*%
%ADD196R,0.0247X0.0002*%
%ADD197R,0.0207X0.0002*%
%ADD198R,0.0155X0.0002*%
%ADD199R,0.0215X0.0002*%
%ADD200R,0.0308X0.0002*%
%ADD201R,0.0252X0.0003*%
%ADD202R,0.0213X0.0003*%
%ADD203R,0.0155X0.0003*%
%ADD204R,0.0312X0.0003*%
%ADD205R,0.0220X0.0002*%
%ADD206R,0.0255X0.0002*%
%ADD207R,0.0158X0.0002*%
%ADD208R,0.0315X0.0002*%
%ADD209R,0.0153X0.0002*%
%ADD210R,0.0222X0.0003*%
%ADD211R,0.0257X0.0003*%
%ADD212R,0.0095X0.0003*%
%ADD213R,0.0102X0.0003*%
%ADD214R,0.0318X0.0003*%
%ADD215R,0.0107X0.0003*%
%ADD216R,0.0228X0.0002*%
%ADD217R,0.0257X0.0002*%
%ADD218R,0.0223X0.0002*%
%ADD219R,0.0095X0.0002*%
%ADD220R,0.0122X0.0002*%
%ADD221R,0.0082X0.0002*%
%ADD222R,0.0087X0.0002*%
%ADD223R,0.0098X0.0002*%
%ADD224R,0.0232X0.0003*%
%ADD225R,0.0260X0.0003*%
%ADD226R,0.0087X0.0003*%
%ADD227R,0.0238X0.0002*%
%ADD228R,0.0260X0.0002*%
%ADD229R,0.0233X0.0002*%
%ADD230R,0.0083X0.0002*%
%ADD231R,0.0073X0.0002*%
%ADD232R,0.0240X0.0003*%
%ADD233R,0.0262X0.0003*%
%ADD234R,0.0088X0.0003*%
%ADD235R,0.0245X0.0002*%
%ADD236R,0.0265X0.0002*%
%ADD237R,0.0243X0.0002*%
%ADD238R,0.0070X0.0002*%
%ADD239R,0.0065X0.0002*%
%ADD240R,0.0247X0.0003*%
%ADD241R,0.0265X0.0003*%
%ADD242R,0.0243X0.0003*%
%ADD243R,0.0250X0.0002*%
%ADD244R,0.0267X0.0002*%
%ADD245R,0.0250X0.0003*%
%ADD246R,0.0270X0.0003*%
%ADD247R,0.0067X0.0003*%
%ADD248R,0.0253X0.0002*%
%ADD249R,0.0062X0.0002*%
%ADD250R,0.0115X0.0003*%
%ADD251R,0.0130X0.0003*%
%ADD252R,0.0107X0.0002*%
%ADD253R,0.0105X0.0003*%
%ADD254R,0.0117X0.0003*%
%ADD255R,0.0115X0.0002*%
%ADD256R,0.0097X0.0002*%
%ADD257R,0.0103X0.0003*%
%ADD258R,0.0112X0.0003*%
%ADD259R,0.0090X0.0003*%
%ADD260R,0.0093X0.0003*%
%ADD261R,0.0092X0.0003*%
%ADD262R,0.0088X0.0002*%
%ADD263R,0.0012X0.0003*%
%ADD264R,0.0120X0.0002*%
%ADD265R,0.0125X0.0002*%
%ADD266R,0.0127X0.0002*%
%ADD267R,0.0127X0.0003*%
%ADD268R,0.0160X0.0003*%
%ADD269R,0.0163X0.0002*%
%ADD270R,0.0170X0.0002*%
%ADD271R,0.0145X0.0003*%
%ADD272R,0.0175X0.0002*%
%ADD273R,0.0188X0.0002*%
%ADD274R,0.0185X0.0003*%
%ADD275R,0.0207X0.0003*%
%ADD276R,0.0195X0.0003*%
%ADD277R,0.0208X0.0002*%
%ADD278R,0.0190X0.0002*%
%ADD279R,0.0187X0.0003*%
%ADD280R,0.0175X0.0003*%
%ADD281R,0.0173X0.0003*%
%ADD282R,0.0165X0.0002*%
%ADD283R,0.0235X0.0003*%
%ADD284R,0.0248X0.0003*%
%ADD285R,0.0143X0.0002*%
%ADD286R,0.0255X0.0003*%
%ADD287R,0.0275X0.0002*%
%ADD288R,0.0113X0.0002*%
%ADD289R,0.0110X0.0003*%
%ADD290R,0.0013X0.0002*%
%ADD291R,0.0178X0.0002*%
%ADD292R,0.0015X0.0003*%
%ADD293R,0.0040X0.0002*%
%ADD294R,0.0027X0.0002*%
%ADD295R,0.0048X0.0003*%
%ADD296R,0.0032X0.0003*%
%ADD297R,0.0038X0.0003*%
%ADD298R,0.0138X0.0003*%
%ADD299R,0.0123X0.0002*%
%ADD300R,0.0212X0.0002*%
%ADD301R,0.0238X0.0003*%
%ADD302R,0.0252X0.0002*%
%ADD303R,0.0258X0.0002*%
%ADD304R,0.0203X0.0002*%
%ADD305R,0.0197X0.0003*%
%ADD306R,0.0198X0.0002*%
%ADD307R,0.0230X0.0003*%
%ADD308R,0.0233X0.0003*%
%ADD309R,0.0193X0.0002*%
%ADD310R,0.0230X0.0002*%
%ADD311R,0.0223X0.0003*%
%ADD312R,0.0228X0.0003*%
%ADD313R,0.0182X0.0003*%
%ADD314R,0.0218X0.0003*%
%ADD315R,0.0172X0.0003*%
%ADD316R,0.0227X0.0002*%
%ADD317R,0.0167X0.0002*%
%ADD318R,0.0218X0.0002*%
%ADD319R,0.0168X0.0002*%
%ADD320R,0.0225X0.0003*%
%ADD321R,0.0163X0.0003*%
%ADD322R,0.0162X0.0003*%
%ADD323R,0.0157X0.0002*%
%ADD324R,0.0213X0.0002*%
%ADD325R,0.0137X0.0002*%
%ADD326R,0.0112X0.0002*%
%ADD327R,0.0192X0.0003*%
%ADD328R,0.0017X0.0002*%
%ADD329R,0.0013X0.0003*%
%ADD330R,0.0022X0.0003*%
%ADD331R,0.0037X0.0003*%
%ADD332R,0.0032X0.0002*%
%ADD333R,0.0157X0.0003*%
%ADD334R,0.0217X0.0003*%
%ADD335R,0.0177X0.0003*%
%ADD336R,0.0183X0.0002*%
%ADD337R,0.0272X0.0003*%
%ADD338R,0.0280X0.0002*%
%ADD339R,0.0285X0.0003*%
%ADD340R,0.0287X0.0002*%
%ADD341R,0.0293X0.0003*%
%ADD342R,0.0212X0.0003*%
%ADD343R,0.0300X0.0002*%
%ADD344R,0.0310X0.0003*%
%ADD345R,0.0318X0.0002*%
%ADD346R,0.0322X0.0003*%
%ADD347R,0.0328X0.0002*%
%ADD348R,0.0332X0.0003*%
%ADD349R,0.0253X0.0003*%
%ADD350R,0.0340X0.0002*%
%ADD351R,0.0345X0.0003*%
%ADD352R,0.0263X0.0003*%
%ADD353R,0.0353X0.0002*%
%ADD354R,0.0270X0.0002*%
%ADD355R,0.0360X0.0003*%
%ADD356R,0.0365X0.0002*%
%ADD357R,0.0370X0.0003*%
%ADD358R,0.0372X0.0002*%
%ADD359R,0.0380X0.0003*%
%ADD360R,0.0298X0.0003*%
%ADD361R,0.0390X0.0002*%
%ADD362R,0.0305X0.0002*%
%ADD363R,0.0397X0.0003*%
%ADD364R,0.0008X0.0003*%
%ADD365R,0.0315X0.0003*%
%ADD366R,0.0403X0.0002*%
%ADD367R,0.0320X0.0002*%
%ADD368R,0.0405X0.0003*%
%ADD369R,0.0323X0.0003*%
%ADD370R,0.0410X0.0002*%
%ADD371R,0.0327X0.0002*%
%ADD372R,0.0418X0.0003*%
%ADD373R,0.0335X0.0003*%
%ADD374R,0.0422X0.0002*%
%ADD375R,0.0430X0.0003*%
%ADD376R,0.0348X0.0003*%
%ADD377R,0.0437X0.0002*%
%ADD378R,0.0355X0.0002*%
%ADD379R,0.0445X0.0003*%
%ADD380R,0.0450X0.0002*%
%ADD381R,0.0452X0.0003*%
%ADD382R,0.0367X0.0003*%
%ADD383R,0.0458X0.0002*%
%ADD384R,0.0373X0.0002*%
%ADD385R,0.0462X0.0003*%
%ADD386R,0.0470X0.0002*%
%ADD387R,0.0385X0.0002*%
%ADD388R,0.0480X0.0003*%
%ADD389R,0.0392X0.0003*%
%ADD390R,0.0483X0.0002*%
%ADD391R,0.0398X0.0002*%
%ADD392R,0.0487X0.0003*%
%ADD393R,0.0402X0.0003*%
%ADD394R,0.0495X0.0002*%
%ADD395R,0.0405X0.0002*%
%ADD396R,0.0500X0.0003*%
%ADD397R,0.0410X0.0003*%
%ADD398R,0.0508X0.0002*%
%ADD399R,0.0417X0.0002*%
%ADD400R,0.0515X0.0003*%
%ADD401R,0.0425X0.0003*%
%ADD402R,0.0523X0.0002*%
%ADD403R,0.0430X0.0002*%
%ADD404R,0.0527X0.0003*%
%ADD405R,0.0438X0.0003*%
%ADD406R,0.0533X0.0002*%
%ADD407R,0.0442X0.0002*%
%ADD408R,0.0535X0.0003*%
%ADD409R,0.0540X0.0002*%
%ADD410R,0.0548X0.0003*%
%ADD411R,0.0457X0.0003*%
%ADD412R,0.0555X0.0002*%
%ADD413R,0.0465X0.0002*%
%ADD414R,0.0560X0.0003*%
%ADD415R,0.0472X0.0003*%
%ADD416R,0.0565X0.0002*%
%ADD417R,0.0478X0.0002*%
%ADD418R,0.0570X0.0003*%
%ADD419R,0.0817X0.0002*%
%ADD420R,0.0482X0.0002*%
%ADD421R,0.0820X0.0003*%
%ADD422R,0.0490X0.0003*%
%ADD423R,0.0825X0.0002*%
%ADD424R,0.0497X0.0002*%
%ADD425R,0.0828X0.0003*%
%ADD426R,0.0502X0.0003*%
%ADD427R,0.0830X0.0002*%
%ADD428R,0.0835X0.0003*%
%ADD429R,0.0512X0.0003*%
%ADD430R,0.0835X0.0002*%
%ADD431R,0.0225X0.0002*%
%ADD432R,0.0518X0.0002*%
%ADD433R,0.0840X0.0003*%
%ADD434R,0.0522X0.0003*%
%ADD435R,0.0840X0.0002*%
%ADD436R,0.0530X0.0002*%
%ADD437R,0.0845X0.0003*%
%ADD438R,0.0537X0.0003*%
%ADD439R,0.0845X0.0002*%
%ADD440R,0.0542X0.0002*%
%ADD441R,0.0848X0.0003*%
%ADD442R,0.0550X0.0003*%
%ADD443R,0.0850X0.0002*%
%ADD444R,0.0850X0.0003*%
%ADD445R,0.0823X0.0003*%
%ADD446R,0.0852X0.0002*%
%ADD447R,0.0852X0.0003*%
%ADD448R,0.0832X0.0002*%
%ADD449R,0.0855X0.0003*%
%ADD450R,0.0855X0.0002*%
%ADD451R,0.0837X0.0003*%
%ADD452R,0.0843X0.0003*%
%ADD453R,0.0848X0.0002*%
%ADD454R,0.0858X0.0003*%
%ADD455R,0.0860X0.0002*%
%ADD456R,0.0857X0.0003*%
%ADD457R,0.0860X0.0003*%
%ADD458R,0.0865X0.0002*%
%ADD459R,0.0865X0.0003*%
%ADD460R,0.0853X0.0002*%
%ADD461R,0.0867X0.0003*%
%ADD462R,0.0867X0.0002*%
%ADD463R,0.0870X0.0003*%
%ADD464R,0.0870X0.0002*%
%ADD465R,0.0847X0.0002*%
%ADD466R,0.0868X0.0002*%
%ADD467R,0.0842X0.0002*%
%ADD468R,0.0838X0.0002*%
%ADD469R,0.0868X0.0003*%
%ADD470R,0.0838X0.0003*%
%ADD471R,0.0837X0.0002*%
%ADD472R,0.0833X0.0003*%
%ADD473R,0.0833X0.0002*%
%ADD474R,0.0863X0.0002*%
%ADD475R,0.0830X0.0003*%
%ADD476R,0.0863X0.0003*%
%ADD477R,0.0862X0.0002*%
%ADD478R,0.0827X0.0002*%
%ADD479R,0.0857X0.0002*%
%ADD480R,0.0827X0.0003*%
%ADD481R,0.0858X0.0002*%
%ADD482R,0.0825X0.0003*%
%ADD483R,0.0823X0.0002*%
%ADD484R,0.0822X0.0002*%
%ADD485R,0.0853X0.0003*%
%ADD486R,0.0820X0.0002*%
%ADD487R,0.0817X0.0003*%
%ADD488R,0.0818X0.0002*%
%ADD489R,0.0815X0.0003*%
%ADD490R,0.0847X0.0003*%
%ADD491R,0.0815X0.0002*%
%ADD492R,0.0812X0.0003*%
%ADD493R,0.0813X0.0003*%
%ADD494R,0.0808X0.0002*%
%ADD495R,0.0805X0.0003*%
%ADD496R,0.0805X0.0002*%
%ADD497R,0.0842X0.0003*%
%ADD498R,0.0802X0.0003*%
%ADD499R,0.0803X0.0003*%
%ADD500R,0.0802X0.0002*%
%ADD501R,0.0800X0.0002*%
%ADD502R,0.0800X0.0003*%
%ADD503R,0.0797X0.0003*%
%ADD504R,0.0798X0.0003*%
%ADD505R,0.0832X0.0003*%
%ADD506R,0.0798X0.0002*%
%ADD507R,0.0795X0.0003*%
%ADD508R,0.0795X0.0002*%
%ADD509R,0.0792X0.0003*%
%ADD510R,0.0790X0.0002*%
%ADD511R,0.0787X0.0003*%
%ADD512R,0.0788X0.0002*%
%ADD513R,0.0788X0.0003*%
%ADD514R,0.0785X0.0002*%
%ADD515R,0.0785X0.0003*%
%ADD516R,0.0783X0.0002*%
%ADD517R,0.0782X0.0003*%
%ADD518R,0.0822X0.0003*%
%ADD519R,0.0780X0.0002*%
%ADD520R,0.0783X0.0003*%
%ADD521R,0.0780X0.0003*%
%ADD522R,0.0777X0.0003*%
%ADD523R,0.0777X0.0002*%
%ADD524R,0.0775X0.0003*%
%ADD525R,0.0818X0.0003*%
%ADD526R,0.0772X0.0002*%
%ADD527R,0.0773X0.0003*%
%ADD528R,0.0770X0.0002*%
%ADD529R,0.0770X0.0003*%
%ADD530R,0.0767X0.0002*%
%ADD531R,0.0812X0.0002*%
%ADD532R,0.0768X0.0003*%
%ADD533R,0.0807X0.0002*%
%ADD534R,0.0765X0.0003*%
%ADD535R,0.0765X0.0002*%
%ADD536R,0.0763X0.0002*%
%ADD537R,0.0762X0.0002*%
%ADD538R,0.0760X0.0003*%
%ADD539R,0.0760X0.0002*%
%ADD540R,0.0758X0.0003*%
%ADD541R,0.0755X0.0002*%
%ADD542R,0.0803X0.0002*%
%ADD543R,0.0755X0.0003*%
%ADD544R,0.0753X0.0002*%
%ADD545R,0.0752X0.0002*%
%ADD546R,0.0750X0.0003*%
%ADD547R,0.0750X0.0002*%
%ADD548R,0.0747X0.0003*%
%ADD549R,0.0748X0.0002*%
%ADD550R,0.0792X0.0002*%
%ADD551R,0.0745X0.0003*%
%ADD552R,0.0747X0.0002*%
%ADD553R,0.0793X0.0002*%
%ADD554R,0.0790X0.0003*%
%ADD555R,0.0745X0.0002*%
%ADD556R,0.0748X0.0003*%
%ADD557R,0.0752X0.0003*%
%ADD558R,0.0758X0.0002*%
%ADD559R,0.0782X0.0002*%
%ADD560R,0.0778X0.0003*%
%ADD561R,0.0775X0.0002*%
%ADD562R,0.0778X0.0002*%
%ADD563R,0.0787X0.0002*%
%ADD564R,0.0808X0.0003*%
%ADD565R,0.0810X0.0002*%
%ADD566R,0.0797X0.0002*%
%ADD567R,0.0828X0.0002*%
%ADD568R,0.0872X0.0002*%
%ADD569R,0.0872X0.0003*%
%ADD570R,0.0875X0.0002*%
%ADD571R,0.0880X0.0003*%
%ADD572R,0.0880X0.0002*%
%ADD573R,0.0883X0.0003*%
%ADD574R,0.0887X0.0002*%
%ADD575R,0.0887X0.0003*%
%ADD576R,0.0890X0.0002*%
%ADD577R,0.0873X0.0002*%
%ADD578R,0.0893X0.0003*%
%ADD579R,0.0875X0.0003*%
%ADD580R,0.0895X0.0002*%
%ADD581R,0.0877X0.0002*%
%ADD582R,0.0895X0.0003*%
%ADD583R,0.0898X0.0002*%
%ADD584R,0.0898X0.0003*%
%ADD585R,0.0900X0.0002*%
%ADD586R,0.0883X0.0002*%
%ADD587R,0.0902X0.0003*%
%ADD588R,0.0885X0.0003*%
%ADD589R,0.0902X0.0002*%
%ADD590R,0.0885X0.0002*%
%ADD591R,0.0905X0.0003*%
%ADD592R,0.0905X0.0002*%
%ADD593R,0.0907X0.0003*%
%ADD594R,0.0890X0.0003*%
%ADD595R,0.0910X0.0002*%
%ADD596R,0.0893X0.0002*%
%ADD597R,0.0913X0.0003*%
%ADD598R,0.0913X0.0002*%
%ADD599R,0.0897X0.0002*%
%ADD600R,0.0917X0.0003*%
%ADD601R,0.0900X0.0003*%
%ADD602R,0.0917X0.0002*%
%ADD603R,0.0903X0.0002*%
%ADD604R,0.0920X0.0003*%
%ADD605R,0.0920X0.0002*%
%ADD606R,0.0907X0.0002*%
%ADD607R,0.0923X0.0003*%
%ADD608R,0.0923X0.0002*%
%ADD609R,0.0925X0.0003*%
%ADD610R,0.0925X0.0002*%
%ADD611R,0.0922X0.0003*%
%ADD612R,0.0915X0.0002*%
%ADD613R,0.0912X0.0003*%
%ADD614R,0.0892X0.0002*%
%ADD615R,0.0878X0.0002*%
%ADD616R,0.0877X0.0003*%
%ADD617R,0.0843X0.0002*%
%ADD618R,0.0810X0.0003*%
%ADD619R,0.0793X0.0003*%
%ADD620R,0.0773X0.0002*%
%ADD621R,0.0935X0.0002*%
%ADD622R,0.0950X0.0003*%
%ADD623R,0.0960X0.0002*%
%ADD624R,0.0967X0.0003*%
%ADD625R,0.0975X0.0002*%
%ADD626R,0.0983X0.0003*%
%ADD627R,0.1000X0.0002*%
%ADD628R,0.1022X0.0003*%
%ADD629R,0.1037X0.0002*%
%ADD630R,0.1050X0.0003*%
%ADD631R,0.0878X0.0003*%
%ADD632R,0.1055X0.0002*%
%ADD633R,0.1063X0.0003*%
%ADD634R,0.0892X0.0003*%
%ADD635R,0.1075X0.0002*%
%ADD636R,0.1095X0.0003*%
%ADD637R,0.0928X0.0003*%
%ADD638R,0.1115X0.0002*%
%ADD639R,0.0950X0.0002*%
%ADD640R,0.1122X0.0003*%
%ADD641R,0.0965X0.0003*%
%ADD642R,0.1128X0.0002*%
%ADD643R,0.1130X0.0003*%
%ADD644R,0.0982X0.0003*%
%ADD645R,0.1132X0.0002*%
%ADD646R,0.0992X0.0002*%
%ADD647R,0.1135X0.0003*%
%ADD648R,0.1010X0.0003*%
%ADD649R,0.1135X0.0002*%
%ADD650R,0.1033X0.0002*%
%ADD651R,0.1138X0.0003*%
%ADD652R,0.1055X0.0003*%
%ADD653R,0.1140X0.0002*%
%ADD654R,0.1065X0.0002*%
%ADD655R,0.1140X0.0003*%
%ADD656R,0.1075X0.0003*%
%ADD657R,0.1083X0.0002*%
%ADD658R,0.1092X0.0003*%
%ADD659R,0.1137X0.0002*%
%ADD660R,0.1108X0.0002*%
%ADD661R,0.1137X0.0003*%
%ADD662R,0.1118X0.0003*%
%ADD663R,0.1138X0.0002*%
%ADD664R,0.1117X0.0002*%
%ADD665R,0.1120X0.0003*%
%ADD666R,0.1122X0.0002*%
%ADD667R,0.1123X0.0003*%
%ADD668R,0.1133X0.0002*%
%ADD669R,0.1125X0.0002*%
%ADD670R,0.1133X0.0003*%
%ADD671R,0.1128X0.0003*%
%ADD672R,0.1130X0.0002*%
%ADD673R,0.1125X0.0003*%
%ADD674R,0.1123X0.0002*%
%ADD675R,0.1127X0.0003*%
%ADD676R,0.1120X0.0002*%
%ADD677R,0.1118X0.0002*%
%ADD678R,0.1117X0.0003*%
%ADD679R,0.1115X0.0003*%
%ADD680R,0.1112X0.0003*%
%ADD681R,0.1112X0.0002*%
%ADD682R,0.1110X0.0002*%
%ADD683R,0.1110X0.0003*%
%ADD684R,0.1107X0.0002*%
%ADD685R,0.1107X0.0003*%
%ADD686R,0.1105X0.0003*%
%ADD687R,0.1105X0.0002*%
%ADD688R,0.1108X0.0003*%
%ADD689R,0.1113X0.0003*%
%ADD690R,0.1113X0.0002*%
%ADD691R,0.1127X0.0002*%
%ADD692R,0.1132X0.0003*%
%ADD693R,0.1143X0.0003*%
%ADD694R,0.1143X0.0002*%
%ADD695R,0.1145X0.0003*%
%ADD696R,0.1148X0.0002*%
%ADD697R,0.1088X0.0003*%
%ADD698R,0.1067X0.0002*%
%ADD699R,0.1147X0.0002*%
%ADD700R,0.1042X0.0003*%
%ADD701R,0.1147X0.0003*%
%ADD702R,0.1027X0.0002*%
%ADD703R,0.1145X0.0002*%
%ADD704R,0.1020X0.0003*%
%ADD705R,0.1148X0.0003*%
%ADD706R,0.1010X0.0002*%
%ADD707R,0.1002X0.0003*%
%ADD708R,0.0985X0.0002*%
%ADD709R,0.0960X0.0003*%
%ADD710R,0.1142X0.0003*%
%ADD711R,0.0945X0.0002*%
%ADD712R,0.0932X0.0003*%
%ADD713R,0.0918X0.0003*%
%ADD714R,0.1097X0.0003*%
%ADD715R,0.1065X0.0003*%
%ADD716R,0.1042X0.0002*%
%ADD717R,0.1033X0.0003*%
%ADD718R,0.1012X0.0002*%
%ADD719R,0.0992X0.0003*%
%ADD720R,0.0983X0.0002*%
%ADD721R,0.0975X0.0003*%
%ADD722R,0.0970X0.0002*%
%ADD723R,0.0962X0.0003*%
%ADD724R,0.0948X0.0002*%
%ADD725R,0.0927X0.0003*%
%ADD726R,0.0903X0.0003*%
%ADD727R,0.0862X0.0003*%
%ADD728R,0.0882X0.0003*%
%ADD729R,0.0888X0.0003*%
%ADD730R,0.0897X0.0003*%
%ADD731R,0.0912X0.0002*%
%ADD732R,0.0933X0.0003*%
%ADD733R,0.0940X0.0002*%
%ADD734R,0.0945X0.0003*%
%ADD735R,0.0947X0.0003*%
%ADD736R,0.0952X0.0002*%
%ADD737R,0.0952X0.0003*%
%ADD738R,0.0955X0.0003*%
%ADD739R,0.0957X0.0002*%
%ADD740R,0.0970X0.0003*%
%ADD741R,0.1018X0.0003*%
%ADD742R,0.1030X0.0003*%
%ADD743R,0.1035X0.0002*%
%ADD744R,0.1050X0.0002*%
%ADD745R,0.2115X0.0003*%
%ADD746R,0.2113X0.0002*%
%ADD747R,0.2110X0.0003*%
%ADD748R,0.2110X0.0002*%
%ADD749R,0.2107X0.0003*%
%ADD750R,0.2103X0.0002*%
%ADD751R,0.2100X0.0003*%
%ADD752R,0.2097X0.0002*%
%ADD753R,0.2093X0.0003*%
%ADD754R,0.2093X0.0002*%
%ADD755R,0.2090X0.0003*%
%ADD756R,0.2087X0.0002*%
%ADD757R,0.2085X0.0003*%
%ADD758R,0.2085X0.0002*%
%ADD759R,0.2080X0.0002*%
%ADD760R,0.2080X0.0003*%
%ADD761R,0.2075X0.0003*%
%ADD762R,0.2073X0.0002*%
%ADD763R,0.2070X0.0003*%
%ADD764R,0.2065X0.0002*%
%ADD765R,0.2063X0.0003*%
%ADD766R,0.2060X0.0002*%
%ADD767R,0.2055X0.0003*%
%ADD768R,0.2055X0.0002*%
%ADD769R,0.2050X0.0003*%
%ADD770R,0.2050X0.0002*%
%ADD771R,0.2047X0.0002*%
%ADD772R,0.2045X0.0003*%
%ADD773R,0.2043X0.0002*%
%ADD774R,0.2040X0.0003*%
%ADD775R,0.2037X0.0002*%
%ADD776R,0.2033X0.0003*%
%ADD777R,0.2033X0.0002*%
%ADD778R,0.2027X0.0003*%
%ADD779R,0.2025X0.0002*%
%ADD780R,0.2023X0.0003*%
%ADD781R,0.2020X0.0002*%
%ADD782R,0.2020X0.0003*%
%ADD783R,0.2015X0.0002*%
%ADD784R,0.2015X0.0003*%
%ADD785R,0.2013X0.0002*%
%ADD786R,0.2010X0.0003*%
%ADD787R,0.2007X0.0002*%
%ADD788R,0.2003X0.0003*%
%ADD789R,0.2000X0.0002*%
%ADD790R,0.1997X0.0003*%
%ADD791R,0.1993X0.0002*%
%ADD792R,0.1990X0.0003*%
%ADD793R,0.1987X0.0002*%
%ADD794R,0.1985X0.0003*%
%ADD795R,0.1985X0.0002*%
%ADD796R,0.1980X0.0003*%
%ADD797R,0.1980X0.0002*%
%ADD798R,0.1975X0.0003*%
%ADD799R,0.1973X0.0002*%
%ADD800R,0.1967X0.0003*%
%ADD801R,0.1963X0.0002*%
%ADD802R,0.1960X0.0003*%
%ADD803R,0.1957X0.0002*%
%ADD804R,0.1955X0.0003*%
%ADD805R,0.1950X0.0002*%
%ADD806R,0.1950X0.0003*%
%ADD807R,0.1947X0.0002*%
%ADD808R,0.1947X0.0003*%
%ADD809R,0.1943X0.0002*%
%ADD810R,0.1943X0.0003*%
%ADD811R,0.1940X0.0002*%
%ADD812R,0.1940X0.0003*%
%ADD813R,0.1937X0.0003*%
%ADD814R,0.1937X0.0002*%
%ADD815R,0.1945X0.0003*%
%ADD816R,0.1953X0.0002*%
%ADD817R,0.1957X0.0003*%
%ADD818R,0.1960X0.0002*%
%ADD819R,0.1965X0.0003*%
%ADD820R,0.1965X0.0002*%
%ADD821R,0.1970X0.0003*%
%ADD822R,0.1970X0.0002*%
%ADD823R,0.1983X0.0003*%
%ADD824R,0.1993X0.0003*%
%ADD825R,0.1995X0.0002*%
%ADD826R,0.2007X0.0003*%
%ADD827R,0.2017X0.0003*%
%ADD828R,0.2023X0.0002*%
%ADD829R,0.2030X0.0002*%
%ADD830R,0.2035X0.0002*%
%ADD831R,0.2037X0.0003*%
%ADD832R,0.2047X0.0003*%
%ADD833R,0.2067X0.0003*%
%ADD834R,0.2095X0.0002*%
%ADD835R,0.2097X0.0003*%
%ADD836R,0.2100X0.0002*%
%ADD837R,0.2103X0.0003*%
%ADD838R,0.2105X0.0002*%
%ADD839R,0.2112X0.0002*%
%ADD840R,0.2118X0.0003*%
%ADD841R,0.2122X0.0002*%
%ADD842R,0.2125X0.0003*%
%ADD843R,0.2130X0.0002*%
%ADD844R,0.2133X0.0003*%
%ADD845R,0.2135X0.0002*%
%ADD846R,0.2140X0.0003*%
%ADD847R,0.2142X0.0002*%
%ADD848R,0.2148X0.0003*%
%ADD849R,0.2150X0.0002*%
%ADD850R,0.2152X0.0003*%
%ADD851R,0.2158X0.0002*%
%ADD852R,0.2160X0.0003*%
%ADD853R,0.2165X0.0002*%
%ADD854R,0.2168X0.0003*%
%ADD855R,0.2170X0.0002*%
%ADD856R,0.2172X0.0003*%
%ADD857R,0.2178X0.0002*%
%ADD858R,0.2180X0.0003*%
%ADD859R,0.2185X0.0002*%
%ADD860R,0.2188X0.0003*%
%ADD861R,0.2192X0.0002*%
%ADD862R,0.2195X0.0003*%
%ADD863R,0.2200X0.0002*%
%ADD864R,0.2200X0.0003*%
%ADD865R,0.2205X0.0002*%
%ADD866R,0.2210X0.0003*%
%ADD867R,0.2215X0.0002*%
%ADD868R,0.2215X0.0003*%
%ADD869R,0.2220X0.0002*%
%ADD870R,0.2225X0.0003*%
%ADD871R,0.2228X0.0002*%
%ADD872R,0.2232X0.0003*%
%ADD873R,0.2232X0.0002*%
%ADD874R,0.2238X0.0003*%
%ADD875R,0.2242X0.0002*%
%ADD876R,0.2245X0.0003*%
%ADD877R,0.2250X0.0002*%
%ADD878R,0.2250X0.0003*%
%ADD879R,0.2255X0.0002*%
%ADD880R,0.2260X0.0003*%
%ADD881R,0.2262X0.0002*%
%ADD882R,0.2268X0.0003*%
%ADD883R,0.2268X0.0002*%
%ADD884R,0.2272X0.0003*%
%ADD885R,0.2275X0.0002*%
%ADD886R,0.2280X0.0003*%
%ADD887R,0.2283X0.0002*%
%ADD888R,0.2287X0.0003*%
%ADD889R,0.2290X0.0002*%
%ADD890R,0.2295X0.0003*%
%ADD891R,0.2298X0.0002*%
%ADD892R,0.2300X0.0003*%
%ADD893R,0.2305X0.0002*%
%ADD894R,0.2310X0.0003*%
%ADD895R,0.2313X0.0002*%
%ADD896R,0.2317X0.0003*%
%ADD897R,0.2317X0.0002*%
%ADD898R,0.2323X0.0003*%
%ADD899R,0.2325X0.0002*%
%ADD900R,0.2330X0.0003*%
%ADD901R,0.2335X0.0002*%
%ADD902R,0.2337X0.0003*%
%ADD903R,0.2343X0.0002*%
%ADD904R,0.2345X0.0003*%
%ADD905R,0.2347X0.0002*%
%ADD906R,0.2353X0.0003*%
%ADD907R,0.2353X0.0002*%
%ADD908R,0.2357X0.0003*%
%ADD909R,0.2360X0.0002*%
%ADD910R,0.2365X0.0003*%
%ADD911R,0.2367X0.0002*%
%ADD912R,0.2370X0.0003*%
%ADD913R,0.2373X0.0002*%
%ADD914R,0.2377X0.0003*%
%ADD915R,0.2380X0.0002*%
%ADD916R,0.2380X0.0003*%
%ADD917R,0.2382X0.0002*%
%ADD918R,0.2382X0.0003*%
%ADD919R,0.2378X0.0003*%
%ADD920R,0.2375X0.0002*%
%ADD921R,0.2368X0.0002*%
%ADD922R,0.2362X0.0003*%
%ADD923R,0.2355X0.0003*%
%ADD924R,0.2350X0.0002*%
%ADD925R,0.2348X0.0003*%
%ADD926R,0.2342X0.0002*%
%ADD927R,0.2340X0.0003*%
%ADD928R,0.0577X0.0003*%
%ADD929R,0.1740X0.0003*%
%ADD930R,0.0570X0.0002*%
%ADD931R,0.1732X0.0002*%
%ADD932R,0.0562X0.0003*%
%ADD933R,0.1723X0.0003*%
%ADD934R,0.0595X0.0002*%
%ADD935R,0.1100X0.0003*%
%ADD936R,0.0587X0.0003*%
%ADD937R,0.0545X0.0002*%
%ADD938R,0.1095X0.0002*%
%ADD939R,0.0583X0.0002*%
%ADD940R,0.0543X0.0003*%
%ADD941R,0.1087X0.0003*%
%ADD942R,0.0535X0.0002*%
%ADD943R,0.1080X0.0002*%
%ADD944R,0.0573X0.0002*%
%ADD945R,0.1067X0.0003*%
%ADD946R,0.0565X0.0003*%
%ADD947R,0.0520X0.0002*%
%ADD948R,0.1053X0.0002*%
%ADD949R,0.0558X0.0002*%
%ADD950R,0.1043X0.0003*%
%ADD951R,0.0512X0.0002*%
%ADD952R,0.0508X0.0003*%
%ADD953R,0.0545X0.0003*%
%ADD954R,0.0502X0.0002*%
%ADD955R,0.1023X0.0002*%
%ADD956R,0.0537X0.0002*%
%ADD957R,0.0495X0.0003*%
%ADD958R,0.1013X0.0003*%
%ADD959R,0.0533X0.0003*%
%ADD960R,0.0487X0.0002*%
%ADD961R,0.0997X0.0002*%
%ADD962R,0.0475X0.0002*%
%ADD963R,0.0973X0.0002*%
%ADD964R,0.0470X0.0003*%
%ADD965R,0.0505X0.0003*%
%ADD966R,0.0468X0.0002*%
%ADD967R,0.0500X0.0002*%
%ADD968R,0.0953X0.0003*%
%ADD969R,0.0455X0.0002*%
%ADD970R,0.0937X0.0002*%
%ADD971R,0.0440X0.0002*%
%ADD972R,0.0472X0.0002*%
%ADD973R,0.0437X0.0003*%
%ADD974R,0.0468X0.0003*%
%ADD975R,0.0433X0.0002*%
%ADD976R,0.0462X0.0002*%
%ADD977R,0.0427X0.0003*%
%ADD978R,0.0460X0.0003*%
%ADD979R,0.0420X0.0002*%
%ADD980R,0.0412X0.0003*%
%ADD981R,0.0447X0.0003*%
%ADD982R,0.0408X0.0002*%
%ADD983R,0.0400X0.0003*%
%ADD984R,0.0395X0.0002*%
%ADD985R,0.0813X0.0002*%
%ADD986R,0.0428X0.0002*%
%ADD987R,0.0390X0.0003*%
%ADD988R,0.0422X0.0003*%
%ADD989R,0.0387X0.0002*%
%ADD990R,0.0418X0.0002*%
%ADD991R,0.0365X0.0003*%
%ADD992R,0.0740X0.0003*%
%ADD993R,0.0395X0.0003*%
%ADD994R,0.0358X0.0002*%
%ADD995R,0.0727X0.0002*%
%ADD996R,0.0355X0.0003*%
%ADD997R,0.0720X0.0003*%
%ADD998R,0.0385X0.0003*%
%ADD999R,0.0350X0.0002*%
%ADD1000R,0.0710X0.0002*%
%ADD1001R,0.0380X0.0002*%
%ADD1002R,0.0700X0.0003*%
%ADD1003R,0.0378X0.0003*%
%ADD1004R,0.0683X0.0002*%
%ADD1005R,0.0370X0.0002*%
%ADD1006R,0.0333X0.0003*%
%ADD1007R,0.0652X0.0003*%
%ADD1008R,0.0363X0.0003*%
%ADD1009R,0.0323X0.0002*%
%ADD1010R,0.0628X0.0002*%
%ADD1011R,0.0317X0.0003*%
%ADD1012R,0.0612X0.0003*%
%ADD1013R,0.0347X0.0003*%
%ADD1014R,0.0602X0.0002*%
%ADD1015R,0.0343X0.0002*%
%ADD1016R,0.0592X0.0003*%
%ADD1017R,0.0340X0.0003*%
%ADD1018R,0.0575X0.0002*%
%ADD1019R,0.0335X0.0002*%
%ADD1020R,0.0328X0.0003*%
%ADD1021R,0.0288X0.0002*%
%ADD1022R,0.0553X0.0002*%
%ADD1023R,0.0280X0.0003*%
%ADD1024R,0.0547X0.0003*%
%ADD1025R,0.0295X0.0002*%
%ADD1026R,0.0540X0.0003*%
%ADD1027R,0.0290X0.0003*%
%ADD1028R,0.0277X0.0002*%
%ADD1029R,0.0273X0.0003*%
%ADD1030R,0.0538X0.0002*%
%ADD1031R,0.0538X0.0003*%
%ADD1032R,0.0532X0.0003*%
%ADD1033R,0.0532X0.0002*%
%ADD1034R,0.0528X0.0003*%
%ADD1035R,0.0528X0.0002*%
%ADD1036R,0.0525X0.0003*%
%ADD1037R,0.0525X0.0002*%
%ADD1038R,0.0133X0.0003*%
%ADD1039R,0.0523X0.0003*%
%ADD1040R,0.0517X0.0003*%
%ADD1041R,0.0517X0.0002*%
%ADD1042R,0.0515X0.0002*%
%ADD1043R,0.0513X0.0002*%
%ADD1044R,0.0513X0.0003*%
%ADD1045R,0.0510X0.0002*%
%ADD1046R,0.0507X0.0003*%
%ADD1047R,0.0507X0.0002*%
%ADD1048R,0.0505X0.0002*%
%ADD1049R,0.0497X0.0003*%
%ADD1050R,0.0493X0.0003*%
%ADD1051R,0.0493X0.0002*%
%ADD1052R,0.0490X0.0002*%
%ADD1053R,0.0485X0.0003*%
%ADD1054R,0.0485X0.0002*%
%ADD1055R,0.0480X0.0002*%
%ADD1056R,0.0477X0.0002*%
%ADD1057R,0.0477X0.0003*%
%ADD1058R,0.0475X0.0003*%
%ADD1059R,0.0473X0.0003*%
%ADD1060R,0.0473X0.0002*%
%ADD1061R,0.0467X0.0003*%
%ADD1062R,0.0467X0.0002*%
%ADD1063R,0.0465X0.0003*%
%ADD1064R,0.0463X0.0003*%
%ADD1065R,0.0460X0.0002*%
%ADD1066R,0.0455X0.0003*%
%ADD1067R,0.0452X0.0002*%
%ADD1068R,0.0450X0.0003*%
%ADD1069R,0.0448X0.0003*%
%ADD1070R,0.0448X0.0002*%
%ADD1071R,0.0445X0.0002*%
%ADD1072R,0.0442X0.0003*%
%ADD1073R,0.0438X0.0002*%
%ADD1074R,0.0435X0.0002*%
%ADD1075R,0.0432X0.0003*%
%ADD1076R,0.0432X0.0002*%
%ADD1077R,0.0428X0.0003*%
%ADD1078R,0.0425X0.0002*%
%ADD1079R,0.0412X0.0002*%
%ADD1080R,0.0388X0.0003*%
%ADD1081R,0.0373X0.0003*%
%ADD1082R,0.0363X0.0002*%
%ADD1083R,0.0350X0.0003*%
%ADD1084R,0.0322X0.0002*%
D10*
X002288Y000180D02*
X002288Y014176D01*
X033658Y014176D01*
X033658Y000180D01*
X002288Y000180D01*
X002788Y001180D02*
X002790Y001224D01*
X002796Y001268D01*
X002806Y001311D01*
X002819Y001353D01*
X002836Y001394D01*
X002857Y001433D01*
X002881Y001470D01*
X002908Y001505D01*
X002938Y001537D01*
X002971Y001567D01*
X003007Y001593D01*
X003044Y001617D01*
X003084Y001636D01*
X003125Y001653D01*
X003168Y001665D01*
X003211Y001674D01*
X003255Y001679D01*
X003299Y001680D01*
X003343Y001677D01*
X003387Y001670D01*
X003430Y001659D01*
X003472Y001645D01*
X003512Y001627D01*
X003551Y001605D01*
X003587Y001581D01*
X003621Y001553D01*
X003653Y001522D01*
X003682Y001488D01*
X003708Y001452D01*
X003730Y001414D01*
X003749Y001374D01*
X003764Y001332D01*
X003776Y001290D01*
X003784Y001246D01*
X003788Y001202D01*
X003788Y001158D01*
X003784Y001114D01*
X003776Y001070D01*
X003764Y001028D01*
X003749Y000986D01*
X003730Y000946D01*
X003708Y000908D01*
X003682Y000872D01*
X003653Y000838D01*
X003621Y000807D01*
X003587Y000779D01*
X003551Y000755D01*
X003512Y000733D01*
X003472Y000715D01*
X003430Y000701D01*
X003387Y000690D01*
X003343Y000683D01*
X003299Y000680D01*
X003255Y000681D01*
X003211Y000686D01*
X003168Y000695D01*
X003125Y000707D01*
X003084Y000724D01*
X003044Y000743D01*
X003007Y000767D01*
X002971Y000793D01*
X002938Y000823D01*
X002908Y000855D01*
X002881Y000890D01*
X002857Y000927D01*
X002836Y000966D01*
X002819Y001007D01*
X002806Y001049D01*
X002796Y001092D01*
X002790Y001136D01*
X002788Y001180D01*
X021288Y003167D02*
X021292Y003172D01*
X021293Y003172D02*
X021293Y003168D01*
X021294Y003167D01*
X021295Y003167D01*
X021296Y003168D01*
X021296Y003172D01*
X021298Y003170D02*
X021298Y003171D01*
X021301Y003171D01*
X021302Y003170D02*
X021303Y003171D01*
X021305Y003171D01*
X021305Y003170D01*
X021305Y003169D01*
X021302Y003169D01*
X021302Y003168D02*
X021302Y003170D01*
X021302Y003168D02*
X021303Y003167D01*
X021305Y003167D01*
X021307Y003167D02*
X021307Y003171D01*
X021308Y003171D02*
X021309Y003171D01*
X021308Y003171D02*
X021307Y003169D01*
X021310Y003170D02*
X021311Y003171D01*
X021314Y003171D01*
X021313Y003169D02*
X021311Y003169D01*
X021310Y003170D01*
X021310Y003167D02*
X021313Y003167D01*
X021314Y003168D01*
X021313Y003169D01*
X021315Y003167D02*
X021318Y003172D01*
X021320Y003170D02*
X021320Y003168D01*
X021320Y003167D01*
X021323Y003167D01*
X021323Y003171D01*
X021320Y003171D01*
X021320Y003170D01*
X021324Y003170D02*
X021325Y003171D01*
X021327Y003171D01*
X021327Y003170D01*
X021327Y003169D01*
X021324Y003169D01*
X021324Y003168D02*
X021324Y003170D01*
X021324Y003168D02*
X021325Y003167D01*
X021327Y003167D01*
X021329Y003168D02*
X021330Y003167D01*
X021331Y003167D01*
X021332Y003168D01*
X021332Y003170D01*
X021331Y003171D01*
X021330Y003171D01*
X021329Y003170D01*
X021329Y003168D01*
X021333Y003167D02*
X021333Y003171D01*
X021333Y003169D02*
X021335Y003171D01*
X021336Y003171D01*
X021337Y003170D02*
X021337Y003168D01*
X021338Y003167D01*
X021340Y003167D01*
X021340Y003171D01*
X021338Y003171D01*
X021337Y003170D01*
X021339Y003166D02*
X021340Y003166D01*
X021340Y003167D01*
X021342Y003168D02*
X021342Y003170D01*
X021342Y003171D01*
X021344Y003171D01*
X021345Y003170D01*
X021345Y003169D01*
X021342Y003169D01*
X021342Y003168D02*
X021342Y003167D01*
X021344Y003167D01*
X021346Y003167D02*
X021346Y003172D01*
X021347Y003171D02*
X021349Y003171D01*
X021350Y003170D01*
X021350Y003167D01*
X021351Y003168D02*
X021352Y003169D01*
X021354Y003169D01*
X021354Y003170D02*
X021354Y003167D01*
X021352Y003167D01*
X021351Y003168D01*
X021352Y003171D02*
X021353Y003171D01*
X021354Y003170D01*
X021355Y003170D02*
X021356Y003171D01*
X021359Y003171D01*
X021359Y003172D02*
X021359Y003167D01*
X021356Y003167D01*
X021355Y003168D01*
X021355Y003170D01*
X021360Y003172D02*
X021361Y003172D01*
X021361Y003167D01*
X021360Y003167D02*
X021362Y003167D01*
X021363Y003168D02*
X021363Y003170D01*
X021364Y003171D01*
X021365Y003171D01*
X021366Y003170D01*
X021366Y003169D01*
X021363Y003169D01*
X021363Y003168D02*
X021364Y003167D01*
X021365Y003167D01*
X021368Y003168D02*
X021368Y003167D01*
X021371Y003167D01*
X021370Y003166D01*
X021369Y003166D01*
X021371Y003167D02*
X021371Y003171D01*
X021368Y003171D02*
X021368Y003168D01*
X021372Y003167D02*
X021375Y003172D01*
X021377Y003172D02*
X021379Y003172D01*
X021380Y003172D01*
X021380Y003168D01*
X021379Y003167D01*
X021377Y003167D01*
X021377Y003172D01*
X021381Y003170D02*
X021381Y003168D01*
X021382Y003167D01*
X021384Y003167D01*
X021385Y003168D01*
X021385Y003170D01*
X021384Y003171D01*
X021382Y003171D01*
X021381Y003170D01*
X021386Y003170D02*
X021386Y003168D01*
X021387Y003167D01*
X021389Y003167D01*
X021390Y003168D02*
X021391Y003167D01*
X021394Y003167D01*
X021394Y003171D01*
X021395Y003171D02*
X021396Y003171D01*
X021397Y003170D01*
X021397Y003171D01*
X021398Y003170D01*
X021398Y003167D01*
X021397Y003167D02*
X021397Y003170D01*
X021395Y003171D02*
X021395Y003167D01*
X021400Y003168D02*
X021400Y003170D01*
X021400Y003171D01*
X021402Y003171D01*
X021403Y003170D01*
X021403Y003169D01*
X021400Y003169D01*
X021400Y003168D02*
X021400Y003167D01*
X021402Y003167D01*
X021404Y003167D02*
X021404Y003171D01*
X021407Y003171D01*
X021407Y003170D01*
X021407Y003167D01*
X021409Y003168D02*
X021410Y003167D01*
X021409Y003168D02*
X021409Y003172D01*
X021409Y003171D02*
X021410Y003171D01*
X021412Y003170D02*
X021413Y003171D01*
X021415Y003171D01*
X021414Y003169D02*
X021413Y003169D01*
X021412Y003170D01*
X021414Y003169D02*
X021415Y003168D01*
X021414Y003167D01*
X021412Y003167D01*
X021416Y003167D02*
X021420Y003172D01*
X021421Y003172D02*
X021424Y003167D01*
X021424Y003172D01*
X021425Y003172D02*
X021428Y003172D01*
X021429Y003172D01*
X021429Y003171D01*
X021428Y003170D01*
X021425Y003170D01*
X021425Y003172D02*
X021425Y003167D01*
X021428Y003167D01*
X021429Y003168D01*
X021429Y003169D01*
X021428Y003170D01*
X021430Y003171D02*
X021431Y003171D01*
X021431Y003167D01*
X021430Y003167D02*
X021432Y003167D01*
X021434Y003168D02*
X021435Y003167D01*
X021436Y003167D02*
X021438Y003169D01*
X021439Y003167D01*
X021439Y003172D01*
X021441Y003170D02*
X021441Y003168D01*
X021441Y003167D01*
X021443Y003167D01*
X021444Y003168D01*
X021444Y003170D01*
X021443Y003171D01*
X021441Y003171D01*
X021441Y003170D01*
X021445Y003171D02*
X021448Y003171D01*
X021448Y003170D01*
X021448Y003167D01*
X021450Y003168D02*
X021450Y003170D01*
X021451Y003171D01*
X021453Y003171D01*
X021453Y003172D02*
X021453Y003167D01*
X021451Y003167D01*
X021450Y003168D01*
X021454Y003168D02*
X021454Y003170D01*
X021455Y003171D01*
X021457Y003171D01*
X021458Y003170D01*
X021458Y003169D01*
X021454Y003169D01*
X021454Y003168D02*
X021455Y003167D01*
X021457Y003167D01*
X021459Y003167D02*
X021459Y003171D01*
X021461Y003171D02*
X021461Y003171D01*
X021459Y003169D01*
X021463Y003167D02*
X021466Y003172D01*
X021467Y003172D02*
X021469Y003171D01*
X021471Y003172D01*
X021471Y003167D01*
X021472Y003168D02*
X021472Y003170D01*
X021473Y003171D01*
X021474Y003171D01*
X021475Y003170D01*
X021475Y003169D01*
X021472Y003169D01*
X021472Y003168D02*
X021473Y003167D01*
X021474Y003167D01*
X021476Y003168D02*
X021476Y003170D01*
X021477Y003171D01*
X021480Y003171D01*
X021481Y003171D02*
X021482Y003171D01*
X021482Y003167D01*
X021481Y003167D02*
X021483Y003167D01*
X021484Y003168D02*
X021485Y003169D01*
X021487Y003169D01*
X021487Y003170D02*
X021487Y003167D01*
X021485Y003167D01*
X021484Y003168D01*
X021485Y003171D02*
X021486Y003171D01*
X021487Y003170D01*
X021489Y003167D02*
X021492Y003172D01*
X021493Y003172D02*
X021493Y003167D01*
X021496Y003167D01*
X021498Y003168D02*
X021499Y003169D01*
X021501Y003169D01*
X021501Y003170D02*
X021501Y003167D01*
X021499Y003167D01*
X021498Y003168D01*
X021499Y003171D02*
X021500Y003171D01*
X021501Y003170D01*
X021502Y003170D02*
X021502Y003168D01*
X021503Y003167D01*
X021506Y003167D01*
X021506Y003171D01*
X021503Y003171D01*
X021502Y003170D01*
X021504Y003166D02*
X021505Y003166D01*
X021506Y003167D01*
X021507Y003167D02*
X021508Y003167D01*
X021508Y003172D01*
X021507Y003172D01*
X021510Y003170D02*
X021511Y003171D01*
X021512Y003171D01*
X021513Y003170D01*
X021513Y003169D01*
X021510Y003169D01*
X021510Y003168D02*
X021510Y003170D01*
X021510Y003168D02*
X021511Y003167D01*
X021512Y003167D01*
X021514Y003167D02*
X021518Y003172D01*
X021519Y003172D02*
X021519Y003168D01*
X021520Y003167D01*
X021521Y003167D01*
X021522Y003168D01*
X021522Y003172D01*
X021521Y003172D01*
X021520Y003172D01*
X021519Y003172D01*
X021524Y003172D02*
X021524Y003171D01*
X021524Y003170D01*
X021526Y003170D01*
X021527Y003169D01*
X021527Y003168D01*
X021526Y003167D01*
X021524Y003167D01*
X021524Y003168D01*
X021524Y003172D02*
X021524Y003172D01*
X021526Y003172D01*
X021527Y003172D01*
X021528Y003172D02*
X021528Y003167D01*
X021528Y003170D02*
X021531Y003170D01*
X021531Y003172D02*
X021531Y003167D01*
X021533Y003167D02*
X021534Y003169D01*
X021536Y003167D01*
X021536Y003172D01*
X021537Y003172D02*
X021537Y003167D01*
X021541Y003167D01*
X021542Y003168D02*
X021543Y003167D01*
X021544Y003167D01*
X021545Y003168D01*
X021545Y003170D01*
X021544Y003171D01*
X021543Y003171D01*
X021542Y003170D01*
X021542Y003168D01*
X021546Y003168D02*
X021547Y003167D01*
X021550Y003167D01*
X021550Y003171D01*
X021547Y003171D01*
X021546Y003170D01*
X021546Y003168D01*
X021548Y003166D02*
X021549Y003166D01*
X021550Y003167D01*
X021551Y003168D02*
X021552Y003167D01*
X021553Y003167D01*
X021554Y003168D01*
X021554Y003170D01*
X021553Y003171D01*
X021552Y003171D01*
X021551Y003170D01*
X021551Y003168D01*
X021556Y003168D02*
X021556Y003168D01*
X021556Y003167D01*
X021556Y003167D01*
X021556Y003168D01*
X021558Y003167D02*
X021560Y003167D01*
X021561Y003168D01*
X021561Y003170D01*
X021560Y003171D01*
X021558Y003171D01*
X021558Y003172D02*
X021558Y003167D01*
X021562Y003167D02*
X021562Y003171D01*
X021563Y003171D01*
X021564Y003170D01*
X021565Y003171D01*
X021566Y003170D01*
X021566Y003167D01*
X021567Y003167D02*
X021569Y003167D01*
X021570Y003168D01*
X021570Y003170D01*
X021569Y003171D01*
X021567Y003171D01*
X021567Y003166D01*
X021564Y003167D02*
X021564Y003170D01*
X021533Y003172D02*
X021533Y003167D01*
X021496Y003172D02*
X021493Y003172D01*
X021493Y003170D02*
X021495Y003170D01*
X021482Y003173D02*
X021482Y003172D01*
X021480Y003172D02*
X021480Y003167D01*
X021477Y003167D01*
X021476Y003168D01*
X021467Y003167D02*
X021467Y003172D01*
X021445Y003167D02*
X021445Y003171D01*
X021436Y003172D02*
X021436Y003167D01*
X021434Y003168D02*
X021434Y003172D01*
X021433Y003171D02*
X021435Y003171D01*
X021431Y003173D02*
X021431Y003172D01*
X021421Y003172D02*
X021421Y003167D01*
X021390Y003171D02*
X021390Y003168D01*
X021389Y003171D02*
X021387Y003171D01*
X021386Y003170D01*
X021347Y003171D02*
X021346Y003170D01*
X021323Y003167D02*
X021322Y003166D01*
X021321Y003166D01*
X021301Y003168D02*
X021300Y003169D01*
X021298Y003169D01*
X021298Y003170D01*
X021298Y003167D02*
X021300Y003167D01*
X021301Y003168D01*
X032288Y001180D02*
X032290Y001224D01*
X032296Y001268D01*
X032306Y001311D01*
X032319Y001353D01*
X032336Y001394D01*
X032357Y001433D01*
X032381Y001470D01*
X032408Y001505D01*
X032438Y001537D01*
X032471Y001567D01*
X032507Y001593D01*
X032544Y001617D01*
X032584Y001636D01*
X032625Y001653D01*
X032668Y001665D01*
X032711Y001674D01*
X032755Y001679D01*
X032799Y001680D01*
X032843Y001677D01*
X032887Y001670D01*
X032930Y001659D01*
X032972Y001645D01*
X033012Y001627D01*
X033051Y001605D01*
X033087Y001581D01*
X033121Y001553D01*
X033153Y001522D01*
X033182Y001488D01*
X033208Y001452D01*
X033230Y001414D01*
X033249Y001374D01*
X033264Y001332D01*
X033276Y001290D01*
X033284Y001246D01*
X033288Y001202D01*
X033288Y001158D01*
X033284Y001114D01*
X033276Y001070D01*
X033264Y001028D01*
X033249Y000986D01*
X033230Y000946D01*
X033208Y000908D01*
X033182Y000872D01*
X033153Y000838D01*
X033121Y000807D01*
X033087Y000779D01*
X033051Y000755D01*
X033012Y000733D01*
X032972Y000715D01*
X032930Y000701D01*
X032887Y000690D01*
X032843Y000683D01*
X032799Y000680D01*
X032755Y000681D01*
X032711Y000686D01*
X032668Y000695D01*
X032625Y000707D01*
X032584Y000724D01*
X032544Y000743D01*
X032507Y000767D01*
X032471Y000793D01*
X032438Y000823D01*
X032408Y000855D01*
X032381Y000890D01*
X032357Y000927D01*
X032336Y000966D01*
X032319Y001007D01*
X032306Y001049D01*
X032296Y001092D01*
X032290Y001136D01*
X032288Y001180D01*
X032288Y013180D02*
X032290Y013224D01*
X032296Y013268D01*
X032306Y013311D01*
X032319Y013353D01*
X032336Y013394D01*
X032357Y013433D01*
X032381Y013470D01*
X032408Y013505D01*
X032438Y013537D01*
X032471Y013567D01*
X032507Y013593D01*
X032544Y013617D01*
X032584Y013636D01*
X032625Y013653D01*
X032668Y013665D01*
X032711Y013674D01*
X032755Y013679D01*
X032799Y013680D01*
X032843Y013677D01*
X032887Y013670D01*
X032930Y013659D01*
X032972Y013645D01*
X033012Y013627D01*
X033051Y013605D01*
X033087Y013581D01*
X033121Y013553D01*
X033153Y013522D01*
X033182Y013488D01*
X033208Y013452D01*
X033230Y013414D01*
X033249Y013374D01*
X033264Y013332D01*
X033276Y013290D01*
X033284Y013246D01*
X033288Y013202D01*
X033288Y013158D01*
X033284Y013114D01*
X033276Y013070D01*
X033264Y013028D01*
X033249Y012986D01*
X033230Y012946D01*
X033208Y012908D01*
X033182Y012872D01*
X033153Y012838D01*
X033121Y012807D01*
X033087Y012779D01*
X033051Y012755D01*
X033012Y012733D01*
X032972Y012715D01*
X032930Y012701D01*
X032887Y012690D01*
X032843Y012683D01*
X032799Y012680D01*
X032755Y012681D01*
X032711Y012686D01*
X032668Y012695D01*
X032625Y012707D01*
X032584Y012724D01*
X032544Y012743D01*
X032507Y012767D01*
X032471Y012793D01*
X032438Y012823D01*
X032408Y012855D01*
X032381Y012890D01*
X032357Y012927D01*
X032336Y012966D01*
X032319Y013007D01*
X032306Y013049D01*
X032296Y013092D01*
X032290Y013136D01*
X032288Y013180D01*
X002788Y013180D02*
X002790Y013224D01*
X002796Y013268D01*
X002806Y013311D01*
X002819Y013353D01*
X002836Y013394D01*
X002857Y013433D01*
X002881Y013470D01*
X002908Y013505D01*
X002938Y013537D01*
X002971Y013567D01*
X003007Y013593D01*
X003044Y013617D01*
X003084Y013636D01*
X003125Y013653D01*
X003168Y013665D01*
X003211Y013674D01*
X003255Y013679D01*
X003299Y013680D01*
X003343Y013677D01*
X003387Y013670D01*
X003430Y013659D01*
X003472Y013645D01*
X003512Y013627D01*
X003551Y013605D01*
X003587Y013581D01*
X003621Y013553D01*
X003653Y013522D01*
X003682Y013488D01*
X003708Y013452D01*
X003730Y013414D01*
X003749Y013374D01*
X003764Y013332D01*
X003776Y013290D01*
X003784Y013246D01*
X003788Y013202D01*
X003788Y013158D01*
X003784Y013114D01*
X003776Y013070D01*
X003764Y013028D01*
X003749Y012986D01*
X003730Y012946D01*
X003708Y012908D01*
X003682Y012872D01*
X003653Y012838D01*
X003621Y012807D01*
X003587Y012779D01*
X003551Y012755D01*
X003512Y012733D01*
X003472Y012715D01*
X003430Y012701D01*
X003387Y012690D01*
X003343Y012683D01*
X003299Y012680D01*
X003255Y012681D01*
X003211Y012686D01*
X003168Y012695D01*
X003125Y012707D01*
X003084Y012724D01*
X003044Y012743D01*
X003007Y012767D01*
X002971Y012793D01*
X002938Y012823D01*
X002908Y012855D01*
X002881Y012890D01*
X002857Y012927D01*
X002836Y012966D01*
X002819Y013007D01*
X002806Y013049D01*
X002796Y013092D01*
X002790Y013136D01*
X002788Y013180D01*
D11*
X003385Y011910D02*
X003308Y011834D01*
X003308Y011757D01*
X003385Y011680D01*
X003539Y011680D01*
X003615Y011603D01*
X003615Y011527D01*
X003539Y011450D01*
X003385Y011450D01*
X003308Y011527D01*
X003385Y011910D02*
X003539Y011910D01*
X003615Y011834D01*
X003769Y011910D02*
X003999Y011910D01*
X004076Y011834D01*
X004076Y011680D01*
X003999Y011603D01*
X003769Y011603D01*
X003769Y011450D02*
X003769Y011910D01*
X004229Y011910D02*
X004383Y011910D01*
X004306Y011910D02*
X004306Y011450D01*
X004229Y011450D02*
X004383Y011450D01*
X006808Y011700D02*
X007115Y011700D01*
X006962Y011700D02*
X006962Y012160D01*
X006808Y012007D01*
X006701Y012950D02*
X006701Y013410D01*
X006931Y013410D01*
X007008Y013334D01*
X007008Y013180D01*
X006931Y013103D01*
X006701Y013103D01*
X006547Y013103D02*
X006547Y013027D01*
X006471Y012950D01*
X006317Y012950D01*
X006240Y013027D01*
X006087Y012950D02*
X005933Y012950D01*
X006010Y012950D02*
X006010Y013410D01*
X005933Y013410D02*
X006087Y013410D01*
X006240Y013334D02*
X006317Y013410D01*
X006471Y013410D01*
X006547Y013334D01*
X006471Y013180D02*
X006317Y013180D01*
X006240Y013257D01*
X006240Y013334D01*
X006471Y013180D02*
X006547Y013103D01*
X011933Y010459D02*
X012010Y010535D01*
X012164Y010535D01*
X012240Y010459D01*
X012394Y010459D02*
X012471Y010535D01*
X012624Y010535D01*
X012701Y010459D01*
X012701Y010382D01*
X012394Y010075D01*
X012701Y010075D01*
X012240Y010152D02*
X012164Y010075D01*
X012010Y010075D01*
X011933Y010152D01*
X011933Y010459D01*
X015808Y010566D02*
X015808Y010720D01*
X015885Y010797D01*
X015961Y010797D01*
X016038Y010720D01*
X016115Y010797D01*
X016192Y010797D01*
X016268Y010720D01*
X016268Y010566D01*
X016192Y010490D01*
X016038Y010643D02*
X016038Y010720D01*
X015885Y010490D02*
X015808Y010566D01*
X015885Y010336D02*
X015808Y010259D01*
X015808Y010029D01*
X016268Y010029D01*
X016115Y010029D02*
X016115Y010259D01*
X016038Y010336D01*
X015885Y010336D01*
X016115Y010183D02*
X016268Y010336D01*
X016808Y010342D02*
X017115Y010035D01*
X017038Y010112D02*
X017268Y010342D01*
X017268Y010496D02*
X017268Y010803D01*
X017268Y010496D02*
X016808Y010496D01*
X016808Y010035D02*
X017268Y010035D01*
X017192Y009882D02*
X017268Y009805D01*
X017268Y009575D01*
X016808Y009575D01*
X016808Y009805D01*
X016885Y009882D01*
X016961Y009882D01*
X017038Y009805D01*
X017038Y009575D01*
X017038Y009805D02*
X017115Y009882D01*
X017192Y009882D01*
X018258Y010227D02*
X018335Y010150D01*
X018489Y010150D01*
X018565Y010227D01*
X018565Y010610D01*
X018719Y010534D02*
X018796Y010610D01*
X018949Y010610D01*
X019026Y010534D01*
X019026Y010457D01*
X018949Y010380D01*
X019026Y010303D01*
X019026Y010227D01*
X018949Y010150D01*
X018796Y010150D01*
X018719Y010227D01*
X018872Y010380D02*
X018949Y010380D01*
X018258Y010227D02*
X018258Y010610D01*
X023058Y010680D02*
X023365Y010680D01*
X023365Y010757D02*
X023365Y010450D01*
X023519Y010527D02*
X023596Y010450D01*
X023749Y010450D01*
X023826Y010527D01*
X023826Y010834D01*
X023519Y010527D01*
X023519Y010834D01*
X023596Y010910D01*
X023749Y010910D01*
X023826Y010834D01*
X023365Y010757D02*
X023212Y010910D01*
X023058Y010757D01*
X023058Y010450D01*
X024308Y010450D02*
X024308Y010757D01*
X024462Y010910D01*
X024615Y010757D01*
X024615Y010450D01*
X024769Y010450D02*
X025076Y010450D01*
X024922Y010450D02*
X024922Y010910D01*
X024769Y010757D01*
X024615Y010680D02*
X024308Y010680D01*
X025308Y010680D02*
X025615Y010680D01*
X025615Y010757D02*
X025615Y010450D01*
X025769Y010450D02*
X026076Y010757D01*
X026076Y010834D01*
X025999Y010910D01*
X025846Y010910D01*
X025769Y010834D01*
X025615Y010757D02*
X025462Y010910D01*
X025308Y010757D01*
X025308Y010450D01*
X025769Y010450D02*
X026076Y010450D01*
X024018Y009266D02*
X023942Y009342D01*
X023865Y009342D01*
X023788Y009266D01*
X023788Y009189D01*
X023788Y009266D02*
X023711Y009342D01*
X023635Y009342D01*
X023558Y009266D01*
X023558Y009112D01*
X023635Y009035D01*
X023635Y008882D02*
X023558Y008805D01*
X023558Y008652D01*
X023635Y008575D01*
X023942Y008575D01*
X024018Y008652D01*
X024018Y008805D01*
X023942Y008882D01*
X023942Y009035D02*
X024018Y009112D01*
X024018Y009266D01*
X026808Y008834D02*
X026808Y008527D01*
X026885Y008450D01*
X027039Y008450D01*
X027115Y008527D01*
X027269Y008527D02*
X027346Y008450D01*
X027499Y008450D01*
X027576Y008527D01*
X027576Y008834D01*
X027499Y008910D01*
X027346Y008910D01*
X027269Y008834D01*
X027269Y008527D01*
X027115Y008834D02*
X027039Y008910D01*
X026885Y008910D01*
X026808Y008834D01*
X027729Y008910D02*
X027729Y008450D01*
X028036Y008450D02*
X028036Y008910D01*
X028190Y008910D02*
X028496Y008910D01*
X028343Y008910D02*
X028343Y008450D01*
X028036Y008450D02*
X027729Y008910D01*
X028650Y008910D02*
X028880Y008910D01*
X028957Y008834D01*
X028957Y008680D01*
X028880Y008603D01*
X028650Y008603D01*
X028650Y008450D02*
X028650Y008910D01*
X029110Y008757D02*
X029264Y008910D01*
X029417Y008757D01*
X029417Y008450D01*
X029571Y008527D02*
X029647Y008450D01*
X029801Y008450D01*
X029878Y008527D01*
X029878Y008603D01*
X029801Y008680D01*
X029647Y008680D01*
X029571Y008757D01*
X029571Y008834D01*
X029647Y008910D01*
X029801Y008910D01*
X029878Y008834D01*
X030031Y008910D02*
X030338Y008910D01*
X030185Y008910D02*
X030185Y008450D01*
X029417Y008680D02*
X029110Y008680D01*
X029110Y008757D02*
X029110Y008450D01*
X028957Y008450D02*
X028803Y008603D01*
X031308Y007193D02*
X031385Y007269D01*
X031538Y007269D01*
X031615Y007193D01*
X031615Y006962D01*
X031768Y006962D02*
X031308Y006962D01*
X031308Y007193D01*
X031615Y007116D02*
X031768Y007269D01*
X031768Y006809D02*
X031768Y006502D01*
X031308Y006502D01*
X031308Y006809D01*
X031538Y006655D02*
X031538Y006502D01*
X031385Y006348D02*
X031308Y006272D01*
X031308Y006042D01*
X031768Y006042D01*
X031768Y006272D01*
X031692Y006348D01*
X031385Y006348D01*
X031385Y005888D02*
X031308Y005811D01*
X031308Y005658D01*
X031385Y005581D01*
X031692Y005581D01*
X031768Y005658D01*
X031768Y005811D01*
X031692Y005888D01*
X031385Y005888D01*
X031385Y005428D02*
X031308Y005351D01*
X031308Y005198D01*
X031385Y005121D01*
X031692Y005121D01*
X031768Y005198D01*
X031768Y005351D01*
X031692Y005428D01*
X031768Y004967D02*
X031308Y004967D01*
X031308Y004660D02*
X031768Y004967D01*
X031768Y004660D02*
X031308Y004660D01*
X031308Y004507D02*
X031308Y004200D01*
X031768Y004200D01*
X031768Y004507D01*
X031538Y004353D02*
X031538Y004200D01*
X027901Y004405D02*
X027594Y004405D01*
X027824Y004635D01*
X027824Y004175D01*
X027440Y004252D02*
X027440Y004635D01*
X027133Y004635D02*
X027133Y004252D01*
X027210Y004175D01*
X027364Y004175D01*
X027440Y004252D01*
X028885Y006700D02*
X029039Y006700D01*
X029115Y006777D01*
X029269Y006700D02*
X029576Y006700D01*
X029422Y006700D02*
X029422Y007160D01*
X029269Y007007D01*
X029115Y007084D02*
X029039Y007160D01*
X028885Y007160D01*
X028808Y007084D01*
X028808Y006777D01*
X028885Y006700D01*
X020776Y003410D02*
X020469Y003410D01*
X020469Y002950D01*
X020776Y002950D01*
X020316Y003103D02*
X020316Y003410D01*
X020469Y003180D02*
X020623Y003180D01*
X020316Y003103D02*
X020162Y002950D01*
X020009Y003103D01*
X020009Y003410D01*
X019855Y003410D02*
X019702Y003410D01*
X019779Y003410D02*
X019779Y002950D01*
X019855Y002950D02*
X019702Y002950D01*
X019548Y002950D02*
X019395Y003103D01*
X019472Y003103D02*
X019242Y003103D01*
X019242Y002950D02*
X019242Y003410D01*
X019472Y003410D01*
X019548Y003334D01*
X019548Y003180D01*
X019472Y003103D01*
X019088Y003027D02*
X019011Y002950D01*
X018781Y002950D01*
X018781Y003410D01*
X019011Y003410D01*
X019088Y003334D01*
X019088Y003027D01*
X018167Y003334D02*
X018014Y003180D01*
X018014Y002950D01*
X017707Y003180D02*
X017630Y003103D01*
X017400Y003103D01*
X017400Y002950D02*
X017400Y003410D01*
X017630Y003410D01*
X017707Y003334D01*
X017707Y003180D01*
X017860Y003334D02*
X018014Y003180D01*
X018167Y003334D02*
X018167Y003410D01*
X017860Y003410D02*
X017860Y003334D01*
X017246Y003334D02*
X017246Y003180D01*
X017170Y003103D01*
X016940Y003103D01*
X016940Y002950D02*
X016940Y003410D01*
X017170Y003410D01*
X017246Y003334D01*
X016786Y003334D02*
X016786Y003027D01*
X016709Y002950D01*
X016556Y002950D01*
X016479Y003027D01*
X016479Y003334D01*
X016556Y003410D01*
X016709Y003410D01*
X016786Y003334D01*
X016019Y003410D02*
X016019Y002950D01*
X016326Y002950D01*
X015712Y003180D02*
X015558Y003180D01*
X015558Y002950D02*
X015558Y003410D01*
X015865Y003410D01*
X009212Y001160D02*
X009212Y000700D01*
X009365Y000700D02*
X009058Y000700D01*
X009058Y001007D02*
X009212Y001160D01*
X007301Y004200D02*
X007071Y004200D01*
X007071Y004660D01*
X007301Y004660D01*
X007378Y004584D01*
X007378Y004277D01*
X007301Y004200D01*
X006917Y004200D02*
X006764Y004353D01*
X006841Y004353D02*
X006610Y004353D01*
X006610Y004200D02*
X006610Y004660D01*
X006841Y004660D01*
X006917Y004584D01*
X006917Y004430D01*
X006841Y004353D01*
X006457Y004430D02*
X006150Y004430D01*
X006150Y004507D02*
X006150Y004200D01*
X005996Y004277D02*
X005920Y004200D01*
X005766Y004200D01*
X005690Y004277D01*
X005690Y004584D01*
X005766Y004660D01*
X005920Y004660D01*
X005996Y004584D01*
X006150Y004507D02*
X006303Y004660D01*
X006457Y004507D01*
X006457Y004200D01*
X005076Y004277D02*
X005076Y004584D01*
X004999Y004660D01*
X004769Y004660D01*
X004769Y004200D01*
X004999Y004200D01*
X005076Y004277D01*
X004615Y004277D02*
X004539Y004200D01*
X004385Y004200D01*
X004308Y004277D01*
X004385Y004430D02*
X004539Y004430D01*
X004615Y004353D01*
X004615Y004277D01*
X004385Y004430D02*
X004308Y004507D01*
X004308Y004584D01*
X004385Y004660D01*
X004539Y004660D01*
X004615Y004584D01*
X013558Y012950D02*
X013865Y012950D01*
X014019Y013027D02*
X014096Y012950D01*
X014249Y012950D01*
X014326Y013027D01*
X014479Y012950D02*
X014709Y012950D01*
X014786Y013027D01*
X014786Y013334D01*
X014709Y013410D01*
X014479Y013410D01*
X014479Y012950D01*
X014019Y013027D02*
X014019Y013334D01*
X014096Y013410D01*
X014249Y013410D01*
X014326Y013334D01*
X013558Y013410D02*
X013558Y012950D01*
X031308Y012950D02*
X031615Y012950D01*
X031462Y012950D02*
X031462Y013410D01*
X031308Y013257D01*
X031308Y011217D02*
X031615Y011217D01*
X031768Y011064D01*
X031615Y010910D01*
X031308Y010910D01*
X031308Y010757D02*
X031308Y010450D01*
X031538Y010450D01*
X031461Y010603D01*
X031461Y010680D01*
X031538Y010757D01*
X031692Y010757D01*
X031768Y010680D01*
X031768Y010527D01*
X031692Y010450D01*
D12*
X016416Y008179D02*
X016338Y008179D01*
X016181Y008022D01*
X016181Y007865D02*
X016181Y008179D01*
X015979Y008100D02*
X015901Y008179D01*
X015744Y008179D01*
X015665Y008100D01*
X015665Y007943D01*
X015744Y007865D01*
X015901Y007865D01*
X015979Y007943D01*
X015979Y008100D01*
X015479Y008179D02*
X015322Y008179D01*
X015400Y008257D02*
X015400Y007943D01*
X015479Y007865D01*
X015120Y007865D02*
X014884Y007865D01*
X014806Y007943D01*
X014884Y008022D01*
X015120Y008022D01*
X015120Y008100D02*
X015120Y007865D01*
X014619Y007865D02*
X014462Y007865D01*
X014541Y007865D02*
X014541Y008335D01*
X014462Y008335D01*
X014260Y008179D02*
X014260Y007865D01*
X014025Y007865D01*
X013947Y007943D01*
X013947Y008179D01*
X013745Y008100D02*
X013745Y007865D01*
X013588Y007865D02*
X013588Y008100D01*
X013666Y008179D01*
X013745Y008100D01*
X013588Y008100D02*
X013509Y008179D01*
X013431Y008179D01*
X013431Y007865D01*
X013229Y007865D02*
X012915Y007865D01*
X012915Y008335D01*
X013229Y008335D01*
X013072Y008100D02*
X012915Y008100D01*
X012198Y007943D02*
X012198Y008257D01*
X012119Y008335D01*
X011884Y008335D01*
X011884Y007865D01*
X012119Y007865D01*
X012198Y007943D01*
X011682Y007943D02*
X011682Y008257D01*
X011604Y008335D01*
X011368Y008335D01*
X011368Y007865D01*
X011604Y007865D01*
X011682Y007943D01*
X011010Y008100D02*
X010853Y008100D01*
X010853Y007865D02*
X010853Y008335D01*
X011166Y008335D01*
X010135Y008335D02*
X009822Y007865D01*
X009620Y007865D02*
X009306Y007865D01*
X009306Y007943D01*
X009620Y008257D01*
X009620Y008335D01*
X009306Y008335D01*
X009822Y008335D02*
X010135Y007865D01*
X011025Y007495D02*
X011260Y007495D01*
X011338Y007417D01*
X011338Y007260D01*
X011260Y007182D01*
X011025Y007182D01*
X011025Y007025D02*
X011025Y007495D01*
X011540Y007417D02*
X011540Y007103D01*
X011619Y007025D01*
X011776Y007025D01*
X011854Y007103D01*
X012056Y007025D02*
X012291Y007025D01*
X012370Y007103D01*
X012370Y007182D01*
X012291Y007260D01*
X012056Y007260D01*
X012291Y007260D02*
X012370Y007339D01*
X012370Y007417D01*
X012291Y007495D01*
X012056Y007495D01*
X012056Y007025D01*
X011854Y007417D02*
X011776Y007495D01*
X011619Y007495D01*
X011540Y007417D01*
X013087Y007339D02*
X013244Y007025D01*
X013401Y007339D01*
X013603Y007339D02*
X013760Y007495D01*
X013760Y007025D01*
X013603Y007025D02*
X013917Y007025D01*
X014119Y007025D02*
X014197Y007025D01*
X014197Y007103D01*
X014119Y007103D01*
X014119Y007025D01*
X014376Y007025D02*
X014690Y007025D01*
X014533Y007025D02*
X014533Y007495D01*
X014376Y007339D01*
X014884Y008179D02*
X015041Y008179D01*
X015120Y008100D01*
D13*
X016188Y006130D02*
X018888Y006130D01*
X018939Y006128D01*
X018990Y006123D01*
X019040Y006113D01*
X019090Y006100D01*
X019138Y006084D01*
X019185Y006064D01*
X019231Y006040D01*
X019274Y006014D01*
X019316Y005984D01*
X019355Y005951D01*
X019392Y005916D01*
X019426Y005878D01*
X019457Y005837D01*
X019486Y005795D01*
X019511Y005750D01*
X019532Y005704D01*
X019551Y005656D01*
X019565Y005607D01*
X019576Y005557D01*
X019584Y005507D01*
X019588Y005456D01*
X019588Y005404D01*
X019584Y005353D01*
X019576Y005303D01*
X019565Y005253D01*
X019551Y005204D01*
X019532Y005156D01*
X019511Y005110D01*
X019486Y005065D01*
X019457Y005023D01*
X019426Y004982D01*
X019392Y004944D01*
X019355Y004909D01*
X019316Y004876D01*
X019274Y004846D01*
X019231Y004820D01*
X019185Y004796D01*
X019138Y004776D01*
X019090Y004760D01*
X019040Y004747D01*
X018990Y004737D01*
X018939Y004732D01*
X018888Y004730D01*
X016188Y004730D01*
X016137Y004732D01*
X016086Y004737D01*
X016036Y004747D01*
X015986Y004760D01*
X015938Y004776D01*
X015891Y004796D01*
X015845Y004820D01*
X015802Y004846D01*
X015760Y004876D01*
X015721Y004909D01*
X015684Y004944D01*
X015650Y004982D01*
X015619Y005023D01*
X015590Y005065D01*
X015565Y005110D01*
X015544Y005156D01*
X015525Y005204D01*
X015511Y005253D01*
X015500Y005303D01*
X015492Y005353D01*
X015488Y005404D01*
X015488Y005456D01*
X015492Y005507D01*
X015500Y005557D01*
X015511Y005607D01*
X015525Y005656D01*
X015544Y005704D01*
X015565Y005750D01*
X015590Y005795D01*
X015619Y005837D01*
X015650Y005878D01*
X015684Y005916D01*
X015721Y005951D01*
X015760Y005984D01*
X015802Y006014D01*
X015845Y006040D01*
X015891Y006064D01*
X015938Y006084D01*
X015986Y006100D01*
X016036Y006113D01*
X016086Y006123D01*
X016137Y006128D01*
X016188Y006130D01*
X013895Y003290D02*
X013785Y003290D01*
X013785Y003070D01*
X013895Y003070D01*
X013932Y003107D01*
X013932Y003143D01*
X013895Y003180D01*
X013785Y003180D01*
X013895Y003180D02*
X013932Y003217D01*
X013932Y003253D01*
X013895Y003290D01*
X013711Y003290D02*
X013564Y003070D01*
X013490Y003070D02*
X013490Y003217D01*
X013416Y003290D01*
X013343Y003217D01*
X013343Y003070D01*
X013343Y003180D02*
X013490Y003180D01*
X013048Y003070D02*
X012901Y003070D01*
X012901Y003290D01*
X013048Y003290D01*
X012974Y003180D02*
X012901Y003180D01*
X012827Y003143D02*
X012827Y003290D01*
X012827Y003143D02*
X012753Y003070D01*
X012680Y003143D01*
X012680Y003290D01*
X012606Y003290D02*
X012533Y003290D01*
X012569Y003290D02*
X012569Y003070D01*
X012533Y003070D02*
X012606Y003070D01*
X012459Y003070D02*
X012385Y003143D01*
X012422Y003143D02*
X012312Y003143D01*
X012312Y003070D02*
X012312Y003290D01*
X012422Y003290D01*
X012459Y003253D01*
X012459Y003180D01*
X012422Y003143D01*
X012238Y003107D02*
X012238Y003253D01*
X012201Y003290D01*
X012091Y003290D01*
X012091Y003070D01*
X012201Y003070D01*
X012238Y003107D01*
D14*
X012288Y002680D02*
X011788Y002680D01*
X011538Y002430D01*
X011538Y000930D01*
X011788Y000680D01*
X012288Y000680D01*
X012538Y000930D01*
X012538Y002430D01*
X012788Y002680D01*
X013288Y002680D01*
X013538Y002430D01*
X013538Y000930D01*
X013788Y000680D01*
X014288Y000680D01*
X014538Y000930D01*
X014538Y002430D01*
X014788Y002680D01*
X015288Y002680D01*
X015538Y002430D01*
X015538Y000930D01*
X015788Y000680D01*
X016288Y000680D01*
X016538Y000930D01*
X016538Y002430D01*
X016788Y002680D01*
X017288Y002680D01*
X017538Y002430D01*
X017538Y000930D01*
X017288Y000680D01*
X016788Y000680D01*
X016538Y000930D01*
X015538Y000930D02*
X015288Y000680D01*
X014788Y000680D01*
X014538Y000930D01*
X013538Y000930D02*
X013288Y000680D01*
X012788Y000680D01*
X012538Y000930D01*
X011538Y000930D02*
X011288Y000680D01*
X010788Y000680D01*
X010538Y000930D01*
X010538Y002430D01*
X010788Y002680D01*
X011288Y002680D01*
X011538Y002430D01*
X012288Y002680D02*
X012538Y002430D01*
X013538Y002430D02*
X013788Y002680D01*
X014288Y002680D01*
X014538Y002430D01*
X015538Y002430D02*
X015788Y002680D01*
X016288Y002680D01*
X016538Y002430D01*
X017538Y002430D02*
X017788Y002680D01*
X018288Y002680D01*
X018538Y002430D01*
X018538Y000930D01*
X018288Y000680D01*
X017788Y000680D01*
X017538Y000930D01*
X018538Y000930D02*
X018788Y000680D01*
X019288Y000680D01*
X019538Y000930D01*
X019538Y002430D01*
X019788Y002680D01*
X020288Y002680D01*
X020538Y002430D01*
X020538Y000930D01*
X020288Y000680D01*
X019788Y000680D01*
X019538Y000930D01*
X020538Y000930D02*
X020788Y000680D01*
X021288Y000680D01*
X021538Y000930D01*
X021538Y002430D01*
X021788Y002680D01*
X022288Y002680D01*
X022538Y002430D01*
X022538Y000930D01*
X022288Y000680D01*
X021788Y000680D01*
X021538Y000930D01*
X022538Y000930D02*
X022788Y000680D01*
X023288Y000680D01*
X023538Y000930D01*
X023538Y002430D01*
X023788Y002680D01*
X024288Y002680D01*
X024538Y002430D01*
X024538Y000930D01*
X024288Y000680D01*
X023788Y000680D01*
X023538Y000930D01*
X024538Y000930D02*
X024788Y000680D01*
X025288Y000680D01*
X025538Y000930D01*
X025538Y002430D01*
X025788Y002680D01*
X026288Y002680D01*
X026538Y002430D01*
X026538Y000930D01*
X026288Y000680D01*
X025788Y000680D01*
X025538Y000930D01*
X025538Y002430D02*
X025288Y002680D01*
X024788Y002680D01*
X024538Y002430D01*
X023538Y002430D02*
X023288Y002680D01*
X022788Y002680D01*
X022538Y002430D01*
X021538Y002430D02*
X021288Y002680D01*
X020788Y002680D01*
X020538Y002430D01*
X019538Y002430D02*
X019288Y002680D01*
X018788Y002680D01*
X018538Y002430D01*
X013988Y003755D02*
X013988Y004355D01*
X013986Y004372D01*
X013982Y004389D01*
X013975Y004405D01*
X013965Y004419D01*
X013952Y004432D01*
X013938Y004442D01*
X013922Y004449D01*
X013905Y004453D01*
X013888Y004455D01*
X012188Y004455D01*
X012171Y004453D01*
X012154Y004449D01*
X012138Y004442D01*
X012124Y004432D01*
X012111Y004419D01*
X012101Y004405D01*
X012094Y004389D01*
X012090Y004372D01*
X012088Y004355D01*
X012088Y003755D01*
X012090Y003738D01*
X012094Y003721D01*
X012101Y003705D01*
X012111Y003691D01*
X012124Y003678D01*
X012138Y003668D01*
X012154Y003661D01*
X012171Y003657D01*
X012188Y003655D01*
X013888Y003655D01*
X013905Y003657D01*
X013922Y003661D01*
X013938Y003668D01*
X013952Y003678D01*
X013965Y003691D01*
X013975Y003705D01*
X013982Y003721D01*
X013986Y003738D01*
X013988Y003755D01*
X016188Y004530D02*
X018888Y004530D01*
X018947Y004532D01*
X019005Y004538D01*
X019064Y004547D01*
X019121Y004561D01*
X019177Y004578D01*
X019232Y004599D01*
X019286Y004623D01*
X019338Y004651D01*
X019388Y004682D01*
X019436Y004716D01*
X019481Y004753D01*
X019524Y004794D01*
X019565Y004837D01*
X019602Y004882D01*
X019636Y004930D01*
X019667Y004980D01*
X019695Y005032D01*
X019719Y005086D01*
X019740Y005141D01*
X019757Y005197D01*
X019771Y005254D01*
X019780Y005313D01*
X019786Y005371D01*
X019788Y005430D01*
X019786Y005489D01*
X019780Y005547D01*
X019771Y005606D01*
X019757Y005663D01*
X019740Y005719D01*
X019719Y005774D01*
X019695Y005828D01*
X019667Y005880D01*
X019636Y005930D01*
X019602Y005978D01*
X019565Y006023D01*
X019524Y006066D01*
X019481Y006107D01*
X019436Y006144D01*
X019388Y006178D01*
X019338Y006209D01*
X019286Y006237D01*
X019232Y006261D01*
X019177Y006282D01*
X019121Y006299D01*
X019064Y006313D01*
X019005Y006322D01*
X018947Y006328D01*
X018888Y006330D01*
X016188Y006330D01*
X016129Y006328D01*
X016071Y006322D01*
X016012Y006313D01*
X015955Y006299D01*
X015899Y006282D01*
X015844Y006261D01*
X015790Y006237D01*
X015738Y006209D01*
X015688Y006178D01*
X015640Y006144D01*
X015595Y006107D01*
X015552Y006066D01*
X015511Y006023D01*
X015474Y005978D01*
X015440Y005930D01*
X015409Y005880D01*
X015381Y005828D01*
X015357Y005774D01*
X015336Y005719D01*
X015319Y005663D01*
X015305Y005606D01*
X015296Y005547D01*
X015290Y005489D01*
X015288Y005430D01*
X015290Y005371D01*
X015296Y005313D01*
X015305Y005254D01*
X015319Y005197D01*
X015336Y005141D01*
X015357Y005086D01*
X015381Y005032D01*
X015409Y004980D01*
X015440Y004930D01*
X015474Y004882D01*
X015511Y004837D01*
X015552Y004794D01*
X015595Y004753D01*
X015640Y004716D01*
X015688Y004682D01*
X015738Y004651D01*
X015790Y004623D01*
X015844Y004599D01*
X015899Y004578D01*
X015955Y004561D01*
X016012Y004547D01*
X016071Y004538D01*
X016129Y004532D01*
X016188Y004530D01*
X010538Y002430D02*
X010288Y002680D01*
X009788Y002680D01*
X009538Y002430D01*
X009538Y000930D01*
X009788Y000680D01*
X010288Y000680D01*
X010538Y000930D01*
X028388Y009180D02*
X029688Y009180D01*
X030388Y009180D02*
X030411Y009182D01*
X030434Y009187D01*
X030456Y009196D01*
X030476Y009209D01*
X030494Y009224D01*
X030509Y009242D01*
X030522Y009262D01*
X030531Y009284D01*
X030536Y009307D01*
X030538Y009330D01*
X032038Y009930D02*
X032038Y010430D01*
X032288Y010680D01*
X032038Y010930D01*
X032038Y011430D01*
X032288Y011680D01*
X032788Y011680D01*
X033038Y011430D01*
X033038Y010930D01*
X032788Y010680D01*
X033038Y010430D01*
X033038Y009930D01*
X032788Y009680D01*
X032288Y009680D01*
X032038Y009930D01*
X030538Y010080D02*
X030538Y012030D01*
X030536Y012053D01*
X030531Y012076D01*
X030522Y012098D01*
X030509Y012118D01*
X030494Y012136D01*
X030476Y012151D01*
X030456Y012164D01*
X030434Y012173D01*
X030411Y012178D01*
X030388Y012180D01*
X029388Y012180D01*
X028688Y012180D02*
X027688Y012180D01*
X027665Y012178D01*
X027642Y012173D01*
X027620Y012164D01*
X027600Y012151D01*
X027582Y012136D01*
X027567Y012118D01*
X027554Y012098D01*
X027545Y012076D01*
X027540Y012053D01*
X027538Y012030D01*
X027538Y010080D01*
X028488Y010130D02*
X028688Y010330D01*
X028938Y010330D02*
X028938Y010580D01*
X028688Y010580D01*
X028688Y010780D01*
X028938Y010780D01*
X028938Y011030D01*
X029138Y011030D01*
X029138Y010780D01*
X029388Y010780D01*
X029388Y010580D01*
X029138Y010580D01*
X029138Y010330D01*
X028938Y010330D01*
X029388Y010330D02*
X029588Y010130D01*
X029588Y010680D02*
X029788Y010680D01*
X029438Y011080D02*
X029538Y011180D01*
X028638Y011080D02*
X028538Y011180D01*
X028488Y010680D02*
X028288Y010680D01*
X025938Y011130D02*
X025938Y012230D01*
X025936Y012247D01*
X025932Y012264D01*
X025925Y012280D01*
X025915Y012294D01*
X025902Y012307D01*
X025888Y012317D01*
X025872Y012324D01*
X025855Y012328D01*
X025838Y012330D01*
X025238Y012330D01*
X025221Y012328D01*
X025204Y012324D01*
X025188Y012317D01*
X025174Y012307D01*
X025161Y012294D01*
X025151Y012280D01*
X025144Y012264D01*
X025140Y012247D01*
X025138Y012230D01*
X025138Y011130D01*
X025140Y011113D01*
X025144Y011096D01*
X025151Y011080D01*
X025161Y011066D01*
X025174Y011053D01*
X025188Y011043D01*
X025204Y011036D01*
X025221Y011032D01*
X025238Y011030D01*
X025838Y011030D01*
X025855Y011032D01*
X025872Y011036D01*
X025888Y011043D01*
X025902Y011053D01*
X025915Y011066D01*
X025925Y011080D01*
X025932Y011096D01*
X025936Y011113D01*
X025938Y011130D01*
X024938Y011130D02*
X024938Y012230D01*
X024936Y012247D01*
X024932Y012264D01*
X024925Y012280D01*
X024915Y012294D01*
X024902Y012307D01*
X024888Y012317D01*
X024872Y012324D01*
X024855Y012328D01*
X024838Y012330D01*
X024238Y012330D01*
X024221Y012328D01*
X024204Y012324D01*
X024188Y012317D01*
X024174Y012307D01*
X024161Y012294D01*
X024151Y012280D01*
X024144Y012264D01*
X024140Y012247D01*
X024138Y012230D01*
X024138Y011130D01*
X024140Y011113D01*
X024144Y011096D01*
X024151Y011080D01*
X024161Y011066D01*
X024174Y011053D01*
X024188Y011043D01*
X024204Y011036D01*
X024221Y011032D01*
X024238Y011030D01*
X024838Y011030D01*
X024855Y011032D01*
X024872Y011036D01*
X024888Y011043D01*
X024902Y011053D01*
X024915Y011066D01*
X024925Y011080D01*
X024932Y011096D01*
X024936Y011113D01*
X024938Y011130D01*
X023938Y011130D02*
X023938Y012230D01*
X023936Y012247D01*
X023932Y012264D01*
X023925Y012280D01*
X023915Y012294D01*
X023902Y012307D01*
X023888Y012317D01*
X023872Y012324D01*
X023855Y012328D01*
X023838Y012330D01*
X023238Y012330D01*
X023221Y012328D01*
X023204Y012324D01*
X023188Y012317D01*
X023174Y012307D01*
X023161Y012294D01*
X023151Y012280D01*
X023144Y012264D01*
X023140Y012247D01*
X023138Y012230D01*
X023138Y011130D01*
X023140Y011113D01*
X023144Y011096D01*
X023151Y011080D01*
X023161Y011066D01*
X023174Y011053D01*
X023188Y011043D01*
X023204Y011036D01*
X023221Y011032D01*
X023238Y011030D01*
X023838Y011030D01*
X023855Y011032D01*
X023872Y011036D01*
X023888Y011043D01*
X023902Y011053D01*
X023915Y011066D01*
X023925Y011080D01*
X023932Y011096D01*
X023936Y011113D01*
X023938Y011130D01*
X023913Y012680D02*
X023413Y012680D01*
X023163Y012930D01*
X023163Y013430D01*
X023413Y013680D01*
X023913Y013680D01*
X024163Y013430D01*
X024413Y013680D01*
X024913Y013680D01*
X025163Y013430D01*
X025413Y013680D01*
X025913Y013680D01*
X026163Y013430D01*
X026413Y013680D01*
X026913Y013680D01*
X027163Y013430D01*
X027413Y013680D01*
X027913Y013680D01*
X028163Y013430D01*
X028413Y013680D01*
X028913Y013680D01*
X029163Y013430D01*
X029413Y013680D01*
X029913Y013680D01*
X030163Y013430D01*
X030413Y013680D01*
X030913Y013680D01*
X031163Y013430D01*
X031163Y012930D01*
X030913Y012680D01*
X030413Y012680D01*
X030163Y012930D01*
X029913Y012680D01*
X029413Y012680D01*
X029163Y012930D01*
X029163Y013430D01*
X029163Y012930D02*
X028913Y012680D01*
X028413Y012680D01*
X028163Y012930D01*
X027913Y012680D01*
X027413Y012680D01*
X027163Y012930D01*
X026913Y012680D01*
X026413Y012680D01*
X026163Y012930D01*
X026163Y013430D01*
X026163Y012930D02*
X025913Y012680D01*
X025413Y012680D01*
X025163Y012930D01*
X024913Y012680D01*
X024413Y012680D01*
X024163Y012930D01*
X023913Y012680D01*
X024163Y012930D02*
X024163Y013430D01*
X023163Y013430D02*
X022913Y013680D01*
X022413Y013680D01*
X022163Y013430D01*
X021913Y013680D01*
X021413Y013680D01*
X021163Y013430D01*
X020913Y013680D01*
X020413Y013680D01*
X020163Y013430D01*
X020163Y012930D01*
X020413Y012680D01*
X020913Y012680D01*
X021163Y012930D01*
X021163Y013430D01*
X021163Y012930D02*
X021413Y012680D01*
X021913Y012680D01*
X022163Y012930D01*
X022163Y013430D01*
X022163Y012930D02*
X022413Y012680D01*
X022913Y012680D01*
X023163Y012930D01*
X025163Y012930D02*
X025163Y013430D01*
X027163Y013430D02*
X027163Y012930D01*
X028163Y012930D02*
X028163Y013430D01*
X030163Y013430D02*
X030163Y012930D01*
X032288Y010680D02*
X032788Y010680D01*
X027688Y009180D02*
X027665Y009182D01*
X027642Y009187D01*
X027620Y009196D01*
X027600Y009209D01*
X027582Y009224D01*
X027567Y009242D01*
X027554Y009262D01*
X027545Y009284D01*
X027540Y009307D01*
X027538Y009330D01*
X032038Y007430D02*
X032288Y007680D01*
X032788Y007680D01*
X033038Y007430D01*
X033038Y006930D01*
X032788Y006680D01*
X033038Y006430D01*
X033038Y005930D01*
X032788Y005680D01*
X033038Y005430D01*
X033038Y004930D01*
X032788Y004680D01*
X033038Y004430D01*
X033038Y003930D01*
X032788Y003680D01*
X032288Y003680D01*
X032038Y003930D01*
X032038Y004430D01*
X032288Y004680D01*
X032038Y004930D01*
X032038Y005430D01*
X032288Y005680D01*
X032788Y005680D01*
X032288Y005680D02*
X032038Y005930D01*
X032038Y006430D01*
X032288Y006680D01*
X032038Y006930D01*
X032038Y007430D01*
X032288Y006680D02*
X032788Y006680D01*
X032788Y004680D02*
X032288Y004680D01*
X017338Y011030D02*
X016738Y011030D01*
X016721Y011032D01*
X016704Y011036D01*
X016688Y011043D01*
X016674Y011053D01*
X016661Y011066D01*
X016651Y011080D01*
X016644Y011096D01*
X016640Y011113D01*
X016638Y011130D01*
X016638Y012230D01*
X016640Y012247D01*
X016644Y012264D01*
X016651Y012280D01*
X016661Y012294D01*
X016674Y012307D01*
X016688Y012317D01*
X016704Y012324D01*
X016721Y012328D01*
X016738Y012330D01*
X017338Y012330D01*
X017355Y012328D01*
X017372Y012324D01*
X017388Y012317D01*
X017402Y012307D01*
X017415Y012294D01*
X017425Y012280D01*
X017432Y012264D01*
X017436Y012247D01*
X017438Y012230D01*
X017438Y011130D01*
X017436Y011113D01*
X017432Y011096D01*
X017425Y011080D01*
X017415Y011066D01*
X017402Y011053D01*
X017388Y011043D01*
X017372Y011036D01*
X017355Y011032D01*
X017338Y011030D01*
X017413Y012680D02*
X017163Y012930D01*
X017163Y013430D01*
X017413Y013680D01*
X017913Y013680D01*
X018163Y013430D01*
X018413Y013680D01*
X018913Y013680D01*
X019163Y013430D01*
X019413Y013680D01*
X019913Y013680D01*
X020163Y013430D01*
X020163Y012930D02*
X019913Y012680D01*
X019413Y012680D01*
X019163Y012930D01*
X018913Y012680D01*
X018413Y012680D01*
X018163Y012930D01*
X017913Y012680D01*
X017413Y012680D01*
X017163Y012930D02*
X016913Y012680D01*
X016413Y012680D01*
X016163Y012930D01*
X015913Y012680D01*
X015413Y012680D01*
X015163Y012930D01*
X015163Y013430D01*
X015413Y013680D01*
X015913Y013680D01*
X016163Y013430D01*
X016413Y013680D01*
X016913Y013680D01*
X017163Y013430D01*
X016163Y013430D02*
X016163Y012930D01*
X018163Y012930D02*
X018163Y013430D01*
X019163Y013430D02*
X019163Y012930D01*
X012288Y013430D02*
X012288Y011930D01*
X012038Y011680D01*
X011538Y011680D01*
X011288Y011930D01*
X011288Y013430D01*
X011538Y013680D01*
X012038Y013680D01*
X012288Y013430D01*
X011288Y013430D02*
X011038Y013680D01*
X010538Y013680D01*
X010288Y013430D01*
X010288Y011930D01*
X010538Y011680D01*
X011038Y011680D01*
X011288Y011930D01*
X010288Y011930D02*
X010038Y011680D01*
X009538Y011680D01*
X009288Y011930D01*
X009288Y013430D01*
X009538Y013680D01*
X010038Y013680D01*
X010288Y013430D01*
X009288Y013430D02*
X009038Y013680D01*
X008538Y013680D01*
X008288Y013430D01*
X008288Y011930D01*
X008538Y011680D01*
X009038Y011680D01*
X009288Y011930D01*
X008288Y011930D02*
X008038Y011680D01*
X007538Y011680D01*
X007288Y011930D01*
X007288Y013430D01*
X007538Y013680D01*
X008038Y013680D01*
X008288Y013430D01*
X008288Y011180D02*
X008038Y010930D01*
X008038Y010430D01*
X008288Y010180D01*
X008788Y010180D01*
X009038Y010430D01*
X009038Y010930D01*
X008788Y011180D01*
X008288Y011180D01*
X008038Y010930D02*
X007788Y011180D01*
X007288Y011180D01*
X007038Y010930D01*
X007038Y010430D01*
X007288Y010180D01*
X007788Y010180D01*
X008038Y010430D01*
X007038Y010430D02*
X006788Y010180D01*
X006288Y010180D01*
X006038Y010430D01*
X005788Y010180D01*
X005288Y010180D01*
X005038Y010430D01*
X004788Y010180D01*
X004288Y010180D01*
X004038Y010430D01*
X003788Y010180D01*
X003288Y010180D01*
X003038Y010430D01*
X003038Y010930D01*
X003288Y011180D01*
X003788Y011180D01*
X004038Y010930D01*
X004288Y011180D01*
X004788Y011180D01*
X005038Y010930D01*
X005038Y010430D01*
X004038Y010430D02*
X004038Y010930D01*
X005038Y010930D02*
X005288Y011180D01*
X005788Y011180D01*
X006038Y010930D01*
X006288Y011180D01*
X006788Y011180D01*
X007038Y010930D01*
X006038Y010930D02*
X006038Y010430D01*
D15*
X026748Y004830D02*
X026748Y003530D01*
X029328Y003530D01*
X029328Y004830D01*
X026748Y004830D01*
D16*
X018074Y006505D02*
X017774Y006505D01*
X017924Y006505D02*
X017924Y006955D01*
X017774Y006805D01*
X017614Y006880D02*
X017614Y006580D01*
X017539Y006505D01*
X017388Y006505D01*
X017313Y006580D01*
X017313Y006880D01*
X017388Y006955D01*
X017539Y006955D01*
X017614Y006880D01*
X017464Y006655D02*
X017614Y006505D01*
X008038Y009180D02*
X008038Y003373D01*
X002330Y003373D01*
X002330Y009180D01*
X008038Y009180D01*
X026813Y011605D02*
X026813Y012055D01*
X027039Y012055D01*
X027114Y011980D01*
X027114Y011830D01*
X027039Y011755D01*
X026813Y011755D01*
X026964Y011755D02*
X027114Y011605D01*
X027274Y011605D02*
X027574Y011605D01*
X027424Y011605D02*
X027424Y012055D01*
X027274Y011905D01*
D17*
X022880Y007188D03*
X024230Y004923D03*
X024990Y004378D03*
X026030Y004143D03*
X021927Y003858D03*
D18*
X021927Y003860D03*
X023770Y004385D03*
X024600Y004515D03*
X024852Y004375D03*
X024990Y004375D03*
X025552Y004385D03*
X025905Y004385D03*
X024762Y004805D03*
X024230Y004925D03*
D19*
X022552Y004168D03*
X021927Y003863D03*
X025205Y004048D03*
X026027Y004138D03*
X024702Y007198D03*
D20*
X024232Y004930D03*
X026025Y004135D03*
X021930Y003865D03*
D21*
X021931Y003868D03*
X023311Y004508D03*
X024226Y004248D03*
X024701Y007193D03*
D22*
X024700Y007190D03*
X023385Y004920D03*
X023307Y004500D03*
X023515Y004025D03*
X023515Y004020D03*
X023515Y004015D03*
X023302Y004010D03*
X023867Y004005D03*
X024015Y004010D03*
X024977Y004360D03*
X025085Y004245D03*
X025297Y004015D03*
X025297Y004010D03*
X025442Y004010D03*
X026017Y004130D03*
X024762Y004815D03*
X022545Y004160D03*
X021935Y003870D03*
D23*
X021940Y003873D03*
X022540Y004153D03*
X022690Y004013D03*
X023307Y004278D03*
X023307Y004283D03*
X023307Y004373D03*
X023507Y004288D03*
X023510Y004283D03*
X023667Y004283D03*
X023662Y004108D03*
X023662Y004083D03*
X023872Y004083D03*
X023872Y004088D03*
X023872Y004093D03*
X023872Y004098D03*
X023872Y004103D03*
X023872Y004108D03*
X023872Y004113D03*
X023872Y004118D03*
X023872Y004123D03*
X023872Y004128D03*
X023872Y004133D03*
X023872Y004138D03*
X023872Y004143D03*
X023872Y004148D03*
X023872Y004153D03*
X023872Y004158D03*
X023872Y004163D03*
X023872Y004168D03*
X023872Y004258D03*
X023872Y004263D03*
X023872Y004268D03*
X023870Y004273D03*
X023870Y004278D03*
X024020Y004273D03*
X024020Y004268D03*
X024020Y004263D03*
X024222Y004283D03*
X024225Y004278D03*
X024372Y004248D03*
X024372Y004243D03*
X024372Y004238D03*
X024372Y004233D03*
X024372Y004228D03*
X024372Y004223D03*
X024372Y004218D03*
X024372Y004213D03*
X024372Y004208D03*
X024372Y004203D03*
X024372Y004198D03*
X024372Y004193D03*
X024372Y004188D03*
X024372Y004183D03*
X024372Y004178D03*
X024372Y004173D03*
X024372Y004168D03*
X024372Y004163D03*
X024372Y004158D03*
X024372Y004153D03*
X024372Y004148D03*
X024372Y004143D03*
X024372Y004138D03*
X024372Y004133D03*
X024372Y004128D03*
X024372Y004123D03*
X024580Y004088D03*
X024582Y004093D03*
X024585Y004098D03*
X024585Y004103D03*
X024585Y004108D03*
X024585Y004113D03*
X024585Y004128D03*
X024585Y004148D03*
X024585Y004183D03*
X024585Y004208D03*
X024585Y004213D03*
X024585Y004258D03*
X024585Y004263D03*
X024585Y004268D03*
X024585Y004273D03*
X024585Y004278D03*
X024585Y004378D03*
X024585Y004383D03*
X024585Y004388D03*
X024585Y004393D03*
X024585Y004408D03*
X024585Y004423D03*
X024585Y004428D03*
X024585Y004438D03*
X024585Y004448D03*
X024585Y004458D03*
X024585Y004463D03*
X024585Y004478D03*
X024585Y004483D03*
X024585Y004488D03*
X024762Y004818D03*
X025090Y004273D03*
X025090Y004268D03*
X025292Y004288D03*
X025295Y004283D03*
X025295Y004248D03*
X025295Y004183D03*
X025452Y004288D03*
X025652Y004283D03*
X025655Y004273D03*
X025655Y004268D03*
X025655Y004263D03*
X025802Y004263D03*
X025802Y004268D03*
X025805Y004278D03*
X025805Y004283D03*
X025802Y004258D03*
X025802Y004253D03*
X025802Y004248D03*
X025802Y004243D03*
X025802Y004238D03*
X025802Y004233D03*
X025802Y004228D03*
X025802Y004223D03*
X025802Y004218D03*
X025802Y004213D03*
X025802Y004208D03*
X025802Y004113D03*
X025802Y004108D03*
X025802Y004103D03*
X025805Y004093D03*
X026012Y004258D03*
X026007Y004283D03*
X024972Y004083D03*
X024972Y004078D03*
X024835Y004093D03*
X024835Y004113D03*
X024835Y004138D03*
X024835Y004143D03*
X024835Y004163D03*
X024835Y004168D03*
X024835Y004173D03*
X024702Y004078D03*
X024702Y004073D03*
X023872Y004073D03*
X023872Y004078D03*
X023872Y004068D03*
X023872Y004063D03*
X023872Y004058D03*
X023872Y004053D03*
X023872Y004048D03*
X023872Y004043D03*
X023872Y004038D03*
X023872Y004033D03*
X023872Y004028D03*
X023872Y004023D03*
X023872Y004018D03*
X022880Y007178D03*
D24*
X022880Y007175D03*
X024700Y007185D03*
X024387Y004300D03*
X024220Y004295D03*
X024217Y004300D03*
X024027Y004295D03*
X023870Y004250D03*
X023862Y004295D03*
X023870Y004175D03*
X023667Y004070D03*
X023505Y004295D03*
X023502Y004300D03*
X023310Y004290D03*
X024385Y004080D03*
X024387Y004075D03*
X024572Y004075D03*
X024705Y004060D03*
X024707Y004055D03*
X024837Y004075D03*
X024970Y004065D03*
X024970Y004060D03*
X025090Y004075D03*
X025092Y004070D03*
X025090Y004115D03*
X025102Y004300D03*
X025287Y004300D03*
X025455Y004295D03*
X025642Y004300D03*
X025647Y004295D03*
X025815Y004300D03*
X026002Y004295D03*
X026005Y004290D03*
X026002Y004075D03*
X026000Y004070D03*
X025810Y004080D03*
X025807Y004085D03*
X024582Y004285D03*
X021942Y003875D03*
D25*
X021943Y003878D03*
X022053Y003998D03*
X022693Y004018D03*
X022428Y004408D03*
X023668Y004068D03*
X023868Y004248D03*
X024033Y004303D03*
X024218Y004298D03*
X024388Y004303D03*
X024568Y004068D03*
X024708Y004053D03*
X024968Y004058D03*
X025093Y004068D03*
X025818Y004068D03*
D26*
X025820Y004065D03*
X025807Y004195D03*
X025822Y004310D03*
X025635Y004310D03*
X025290Y004240D03*
X025282Y004305D03*
X025095Y004120D03*
X025095Y004065D03*
X025097Y004060D03*
X025102Y004055D03*
X024837Y004065D03*
X024767Y003990D03*
X024567Y004065D03*
X024392Y004065D03*
X024392Y004305D03*
X024212Y004305D03*
X024035Y004305D03*
X023867Y004245D03*
X023855Y004305D03*
X023867Y004180D03*
X023672Y004125D03*
X023677Y004305D03*
X023682Y004310D03*
X023500Y004305D03*
X023312Y004295D03*
X022535Y004140D03*
X022535Y004135D03*
X022535Y004130D03*
X022322Y004240D03*
X022322Y004245D03*
X022322Y004250D03*
X022322Y004255D03*
X022322Y004260D03*
X021945Y003880D03*
X025990Y004060D03*
D27*
X025281Y004308D03*
X025111Y004313D03*
X025096Y004123D03*
X024836Y004063D03*
X024566Y004063D03*
X024211Y004308D03*
X024206Y004313D03*
X023866Y004243D03*
X023766Y004383D03*
X023676Y004053D03*
X022806Y004408D03*
X021946Y003883D03*
X021676Y004408D03*
D28*
X021946Y003885D03*
X022696Y004020D03*
X023496Y004310D03*
X023686Y004315D03*
X023851Y004310D03*
X024761Y004820D03*
X025826Y004315D03*
X026006Y004250D03*
X025986Y004055D03*
X025461Y004305D03*
X025101Y004130D03*
D29*
X025100Y004128D03*
X025105Y004053D03*
X025287Y004238D03*
X025277Y004313D03*
X025115Y004318D03*
X025467Y004313D03*
X025472Y004318D03*
X025550Y004383D03*
X025630Y004318D03*
X025810Y004133D03*
X025995Y004308D03*
X024577Y004298D03*
X024480Y004383D03*
X024397Y004313D03*
X024202Y004318D03*
X024040Y004313D03*
X023850Y004313D03*
X023495Y004313D03*
X023490Y004318D03*
X023315Y004303D03*
X022700Y004283D03*
X022532Y004123D03*
X022697Y004023D03*
X022325Y004273D03*
X022160Y004273D03*
X022160Y004268D03*
X022160Y004263D03*
X022160Y004258D03*
X022160Y004253D03*
X022160Y004248D03*
X022160Y004243D03*
X022160Y004238D03*
X022160Y004233D03*
X022160Y004228D03*
X022160Y004223D03*
X022160Y004218D03*
X022160Y004213D03*
X022160Y004208D03*
X022160Y004203D03*
X022160Y004198D03*
X022160Y004193D03*
X022160Y004188D03*
X022160Y004183D03*
X022160Y004178D03*
X022160Y004173D03*
X022160Y004168D03*
X022160Y004163D03*
X022160Y004158D03*
X022160Y004153D03*
X022160Y004148D03*
X022160Y004143D03*
X022160Y004138D03*
X022160Y004133D03*
X021947Y004133D03*
X021947Y004138D03*
X021947Y004143D03*
X021947Y004148D03*
X021947Y004153D03*
X021947Y004158D03*
X021947Y004163D03*
X021947Y004168D03*
X021947Y004173D03*
X021947Y004178D03*
X021947Y004183D03*
X021947Y004188D03*
X021947Y004193D03*
X021947Y004198D03*
X021947Y004203D03*
X021947Y004208D03*
X021947Y004213D03*
X021947Y004218D03*
X021947Y004223D03*
X021947Y004228D03*
X021947Y004233D03*
X021947Y004238D03*
X021947Y004243D03*
X021947Y004248D03*
X021947Y004253D03*
X021947Y004258D03*
X021947Y004263D03*
X021947Y004268D03*
X021947Y004273D03*
X021947Y004278D03*
X021947Y004128D03*
X021947Y003993D03*
X021947Y003988D03*
X021947Y003983D03*
X021947Y003978D03*
X021947Y003973D03*
X021947Y003968D03*
X021947Y003963D03*
X021947Y003958D03*
X021947Y003953D03*
X021947Y003948D03*
X021947Y003943D03*
X021947Y003938D03*
X021947Y003933D03*
X021947Y003928D03*
X021947Y003923D03*
X021947Y003918D03*
X021947Y003913D03*
X021947Y003908D03*
X021947Y003903D03*
X021947Y003898D03*
X021947Y003893D03*
X021947Y003888D03*
X021572Y004123D03*
X021570Y004128D03*
X021570Y004133D03*
X021570Y004138D03*
X021570Y004143D03*
X021570Y004148D03*
X021570Y004153D03*
X021570Y004158D03*
X021570Y004163D03*
X021570Y004168D03*
X021570Y004173D03*
X021570Y004178D03*
X021570Y004183D03*
X021570Y004188D03*
X021570Y004193D03*
X021570Y004198D03*
X021570Y004203D03*
X021570Y004208D03*
X021570Y004213D03*
X021570Y004218D03*
X021570Y004223D03*
X021570Y004228D03*
X021570Y004233D03*
X021570Y004238D03*
X021570Y004243D03*
X021570Y004248D03*
X021570Y004253D03*
X021570Y004258D03*
X021570Y004263D03*
X021570Y004268D03*
X021570Y004273D03*
X021570Y004278D03*
X021572Y004283D03*
X024245Y004943D03*
X024395Y004063D03*
X024562Y004058D03*
X024700Y007183D03*
D30*
X024395Y004310D03*
X024577Y004300D03*
X024712Y004050D03*
X025112Y004315D03*
X025280Y004310D03*
X025465Y004310D03*
X025470Y004315D03*
X025632Y004315D03*
X025990Y004315D03*
X025997Y004305D03*
X025825Y004060D03*
X024042Y004315D03*
X023865Y004240D03*
X023847Y004315D03*
X023692Y004320D03*
X023492Y004315D03*
X022697Y004025D03*
X022532Y004120D03*
X022325Y004230D03*
X022325Y004275D03*
X022160Y004270D03*
X022160Y004265D03*
X022160Y004260D03*
X022160Y004255D03*
X022160Y004250D03*
X022160Y004245D03*
X022160Y004240D03*
X022160Y004235D03*
X022160Y004230D03*
X022160Y004225D03*
X022160Y004220D03*
X022160Y004215D03*
X022160Y004210D03*
X022160Y004205D03*
X022160Y004200D03*
X022160Y004195D03*
X022160Y004190D03*
X022160Y004185D03*
X022160Y004180D03*
X022160Y004175D03*
X022160Y004170D03*
X022160Y004165D03*
X022160Y004160D03*
X022160Y004155D03*
X022160Y004150D03*
X022160Y004145D03*
X022160Y004140D03*
X022160Y004135D03*
X022160Y004130D03*
X021947Y004130D03*
X021947Y004135D03*
X021947Y004140D03*
X021947Y004145D03*
X021947Y004150D03*
X021947Y004155D03*
X021947Y004160D03*
X021947Y004165D03*
X021947Y004170D03*
X021947Y004175D03*
X021947Y004180D03*
X021947Y004185D03*
X021947Y004190D03*
X021947Y004195D03*
X021947Y004200D03*
X021947Y004205D03*
X021947Y004210D03*
X021947Y004215D03*
X021947Y004220D03*
X021947Y004225D03*
X021947Y004230D03*
X021947Y004235D03*
X021947Y004240D03*
X021947Y004245D03*
X021947Y004250D03*
X021947Y004255D03*
X021947Y004260D03*
X021947Y004265D03*
X021947Y004270D03*
X021947Y004275D03*
X021947Y004280D03*
X021947Y004125D03*
X021947Y003990D03*
X021947Y003985D03*
X021947Y003980D03*
X021947Y003975D03*
X021947Y003970D03*
X021947Y003965D03*
X021947Y003960D03*
X021947Y003955D03*
X021947Y003950D03*
X021947Y003945D03*
X021947Y003940D03*
X021947Y003935D03*
X021947Y003930D03*
X021947Y003925D03*
X021947Y003920D03*
X021947Y003915D03*
X021947Y003910D03*
X021947Y003905D03*
X021947Y003900D03*
X021947Y003895D03*
X021947Y003890D03*
X021572Y004125D03*
X021570Y004130D03*
X021570Y004135D03*
X021570Y004140D03*
X021570Y004145D03*
X021570Y004150D03*
X021570Y004155D03*
X021570Y004160D03*
X021570Y004165D03*
X021570Y004170D03*
X021570Y004175D03*
X021570Y004180D03*
X021570Y004185D03*
X021570Y004190D03*
X021570Y004195D03*
X021570Y004200D03*
X021570Y004205D03*
X021570Y004210D03*
X021570Y004215D03*
X021570Y004220D03*
X021570Y004225D03*
X021570Y004230D03*
X021570Y004235D03*
X021570Y004240D03*
X021570Y004245D03*
X021570Y004250D03*
X021570Y004255D03*
X021570Y004260D03*
X021570Y004265D03*
X021570Y004270D03*
X021570Y004275D03*
X021572Y004280D03*
D31*
X023736Y003988D03*
D32*
X023748Y003988D03*
X024468Y003988D03*
X024478Y003988D03*
D33*
X024755Y003988D03*
X024920Y003988D03*
X025067Y004228D03*
X024602Y004518D03*
X023320Y004518D03*
X023285Y003993D03*
X022680Y003998D03*
X023760Y003988D03*
X025887Y003988D03*
D34*
X025921Y003988D03*
X025171Y003988D03*
X024491Y003988D03*
X023771Y003988D03*
X024761Y004803D03*
D35*
X024776Y003988D03*
X025901Y003988D03*
D36*
X025190Y003988D03*
X025180Y003988D03*
D37*
X025908Y003988D03*
X022558Y004173D03*
D38*
X023498Y003990D03*
X023998Y003990D03*
X022863Y004775D03*
D39*
X022428Y004405D03*
X022528Y004300D03*
X022528Y004295D03*
X022528Y004275D03*
X022328Y004295D03*
X022328Y004135D03*
X022153Y004105D03*
X022153Y004300D03*
X022053Y004405D03*
X021953Y004300D03*
X021578Y004305D03*
X021578Y004105D03*
X023318Y004310D03*
X023753Y003990D03*
X024478Y003990D03*
X025108Y004050D03*
X025283Y004235D03*
X025268Y004320D03*
D40*
X025106Y004305D03*
X024966Y004055D03*
X024906Y003990D03*
X024836Y004070D03*
X024571Y004070D03*
X024581Y004290D03*
X024581Y004370D03*
X024031Y004300D03*
X023671Y004060D03*
X022536Y004145D03*
X025456Y004300D03*
X025806Y004125D03*
X025816Y004070D03*
X026001Y004300D03*
D41*
X025276Y004315D03*
X025106Y004135D03*
X025181Y003990D03*
X024961Y004050D03*
X024836Y004060D03*
X024396Y004060D03*
X023316Y004305D03*
X022911Y004285D03*
X022701Y004285D03*
X022701Y004290D03*
X022531Y004115D03*
X022326Y004120D03*
X022326Y004125D03*
X022326Y004280D03*
X022911Y004025D03*
X021781Y004120D03*
X021781Y004125D03*
X021781Y004130D03*
X021781Y004135D03*
X021781Y004140D03*
X021781Y004145D03*
X021781Y004150D03*
X021781Y004155D03*
X021781Y004160D03*
X021781Y004165D03*
X021781Y004170D03*
X021781Y004175D03*
X021781Y004180D03*
X021781Y004185D03*
X021781Y004190D03*
X021781Y004195D03*
X021781Y004200D03*
X021781Y004205D03*
X021781Y004210D03*
X021781Y004215D03*
X021781Y004220D03*
X021781Y004225D03*
X021781Y004230D03*
X021781Y004235D03*
X021781Y004240D03*
X021781Y004245D03*
X021781Y004250D03*
X021781Y004255D03*
X021781Y004260D03*
X021781Y004265D03*
X021781Y004270D03*
X021781Y004275D03*
X021781Y004280D03*
X022881Y007170D03*
D42*
X024855Y004380D03*
X025210Y004050D03*
X025282Y003990D03*
X023782Y004050D03*
D43*
X025427Y003990D03*
D44*
X025812Y004135D03*
X025910Y003990D03*
X025980Y004050D03*
X025982Y004320D03*
X025627Y004320D03*
X025120Y004320D03*
X024575Y004305D03*
X024405Y004320D03*
X024197Y004320D03*
X024047Y004320D03*
X023680Y004135D03*
X023680Y004050D03*
X023485Y004320D03*
X022912Y004280D03*
X022912Y004275D03*
X022912Y004270D03*
X022912Y004265D03*
X022912Y004260D03*
X022912Y004255D03*
X022912Y004250D03*
X022912Y004245D03*
X022912Y004240D03*
X022912Y004235D03*
X022912Y004230D03*
X022912Y004225D03*
X022912Y004220D03*
X022912Y004215D03*
X022912Y004210D03*
X022912Y004205D03*
X022912Y004200D03*
X022912Y004195D03*
X022912Y004190D03*
X022912Y004185D03*
X022912Y004180D03*
X022912Y004175D03*
X022912Y004170D03*
X022912Y004165D03*
X022912Y004160D03*
X022912Y004155D03*
X022912Y004150D03*
X022912Y004145D03*
X022912Y004140D03*
X022912Y004135D03*
X022912Y004130D03*
X022912Y004125D03*
X022912Y004120D03*
X022912Y004115D03*
X022912Y004110D03*
X022912Y004105D03*
X022912Y004100D03*
X022912Y004095D03*
X022912Y004090D03*
X022912Y004085D03*
X022912Y004080D03*
X022912Y004075D03*
X022912Y004070D03*
X022912Y004065D03*
X022912Y004060D03*
X022912Y004055D03*
X022912Y004050D03*
X022912Y004045D03*
X022912Y004040D03*
X022912Y004035D03*
X022912Y004030D03*
X022910Y004290D03*
X022910Y004295D03*
X022707Y004300D03*
X022705Y004295D03*
X022530Y004290D03*
X022530Y004285D03*
X022530Y004280D03*
X022530Y004110D03*
X022530Y004105D03*
X022430Y004000D03*
X022330Y004105D03*
X022327Y004110D03*
X022327Y004115D03*
X022327Y004130D03*
X022327Y004285D03*
X022327Y004290D03*
X022330Y004300D03*
X022157Y004290D03*
X022157Y004115D03*
X021950Y004110D03*
X021950Y004000D03*
X021777Y004105D03*
X021777Y004110D03*
X021780Y004115D03*
X021780Y004285D03*
X021780Y004290D03*
X021777Y004295D03*
X021777Y004300D03*
X021950Y004295D03*
X021577Y004300D03*
X021575Y004295D03*
X021575Y004115D03*
X021577Y004110D03*
X024245Y004945D03*
X024400Y004055D03*
X024560Y004055D03*
X024700Y007180D03*
D45*
X025291Y004003D03*
X023861Y004003D03*
X021676Y003993D03*
D46*
X022053Y003993D03*
X022893Y004003D03*
X023778Y004048D03*
X023313Y004513D03*
D47*
X022808Y004413D03*
X022428Y003993D03*
X024593Y004508D03*
X025648Y004243D03*
D48*
X025427Y003993D03*
X025282Y003993D03*
X024000Y003993D03*
X023852Y003993D03*
X023500Y003993D03*
D49*
X023753Y003993D03*
X024478Y003993D03*
X025278Y004233D03*
X025133Y004328D03*
X025908Y003993D03*
X023323Y004318D03*
X022338Y004318D03*
X022338Y004088D03*
X021768Y004318D03*
X024698Y007173D03*
D50*
X023377Y004933D03*
X023317Y004308D03*
X023862Y004238D03*
X024557Y004053D03*
X024767Y003993D03*
X024835Y004058D03*
X024905Y003993D03*
X022912Y004028D03*
X022912Y004033D03*
X022912Y004038D03*
X022912Y004043D03*
X022912Y004048D03*
X022912Y004053D03*
X022912Y004058D03*
X022912Y004063D03*
X022912Y004068D03*
X022912Y004073D03*
X022912Y004078D03*
X022912Y004083D03*
X022912Y004088D03*
X022912Y004093D03*
X022912Y004098D03*
X022912Y004103D03*
X022912Y004108D03*
X022912Y004113D03*
X022912Y004118D03*
X022912Y004123D03*
X022912Y004128D03*
X022912Y004133D03*
X022912Y004138D03*
X022912Y004143D03*
X022912Y004148D03*
X022912Y004153D03*
X022912Y004158D03*
X022912Y004163D03*
X022912Y004168D03*
X022912Y004173D03*
X022912Y004178D03*
X022912Y004183D03*
X022912Y004188D03*
X022912Y004193D03*
X022912Y004198D03*
X022912Y004203D03*
X022912Y004208D03*
X022912Y004213D03*
X022912Y004218D03*
X022912Y004223D03*
X022912Y004228D03*
X022912Y004233D03*
X022912Y004238D03*
X022912Y004243D03*
X022912Y004248D03*
X022912Y004253D03*
X022912Y004258D03*
X022912Y004263D03*
X022912Y004268D03*
X022912Y004273D03*
X022912Y004278D03*
X022912Y004283D03*
X022910Y004293D03*
X022530Y004288D03*
X022530Y004283D03*
X022530Y004108D03*
X022327Y004113D03*
X022327Y004118D03*
X022327Y004133D03*
X022327Y004288D03*
X022327Y004293D03*
X022157Y004293D03*
X022155Y004298D03*
X022157Y004113D03*
X022155Y004108D03*
X021950Y004113D03*
X021780Y004113D03*
X021780Y004118D03*
X021777Y004108D03*
X021780Y004288D03*
X021780Y004293D03*
X021777Y004298D03*
X021950Y004293D03*
X021577Y004298D03*
X021577Y004303D03*
X021575Y004293D03*
X021575Y004118D03*
X021577Y004113D03*
X021577Y004108D03*
D51*
X021585Y004093D03*
X021770Y004093D03*
X021772Y004098D03*
X021955Y004098D03*
X022335Y004093D03*
X022520Y004088D03*
X022525Y004308D03*
X022522Y004313D03*
X022335Y004313D03*
X021962Y004318D03*
X021772Y004313D03*
X021585Y004318D03*
X023685Y004048D03*
X023837Y004323D03*
X024052Y004323D03*
X025180Y003993D03*
X025975Y004048D03*
X025977Y004323D03*
X025622Y004323D03*
D52*
X025446Y004270D03*
X025086Y004250D03*
X024976Y004250D03*
X024976Y004255D03*
X024976Y004260D03*
X024976Y004265D03*
X024976Y004270D03*
X024976Y004275D03*
X024976Y004280D03*
X024976Y004285D03*
X024976Y004290D03*
X024976Y004295D03*
X024976Y004300D03*
X024976Y004305D03*
X024976Y004310D03*
X024976Y004315D03*
X024976Y004320D03*
X024976Y004325D03*
X024976Y004330D03*
X024976Y004335D03*
X024976Y004340D03*
X024976Y004345D03*
X024976Y004350D03*
X024976Y004355D03*
X024976Y004245D03*
X024976Y004240D03*
X024976Y004235D03*
X024976Y004230D03*
X024976Y004225D03*
X024976Y004220D03*
X024976Y004215D03*
X024976Y004210D03*
X024976Y004205D03*
X024976Y004200D03*
X024976Y004195D03*
X024976Y004190D03*
X024976Y004185D03*
X024976Y004180D03*
X024976Y004175D03*
X024976Y004170D03*
X024976Y004165D03*
X024976Y004160D03*
X024976Y004155D03*
X024976Y004150D03*
X024976Y004145D03*
X024976Y004140D03*
X024976Y004135D03*
X024976Y004130D03*
X024976Y004125D03*
X024976Y004120D03*
X024976Y004115D03*
X024976Y004110D03*
X024976Y004105D03*
X024976Y004100D03*
X024976Y004095D03*
X023661Y004265D03*
X023516Y004250D03*
X023516Y004245D03*
X023516Y004240D03*
X023516Y004235D03*
X023516Y004230D03*
X023516Y004225D03*
X023516Y004220D03*
X023516Y004215D03*
X023516Y004210D03*
X023516Y004205D03*
X023516Y004200D03*
X023516Y004195D03*
X023516Y004190D03*
X023516Y004185D03*
X023516Y004180D03*
X023516Y004175D03*
X023516Y004170D03*
X023516Y004165D03*
X023516Y004160D03*
X023516Y004155D03*
X023516Y004150D03*
X023516Y004145D03*
X023516Y004140D03*
X023516Y004135D03*
X023516Y004130D03*
X023516Y004125D03*
X023516Y004120D03*
X023516Y004115D03*
X023516Y004110D03*
X023516Y004105D03*
X023516Y004100D03*
X023516Y004095D03*
X023516Y004090D03*
X023516Y004085D03*
X023516Y004080D03*
X023516Y004075D03*
X023516Y004070D03*
X023516Y004065D03*
X023516Y004060D03*
X023516Y004055D03*
X023516Y004050D03*
X023516Y004045D03*
X023516Y004040D03*
X023516Y004035D03*
X023516Y004030D03*
X021676Y003995D03*
X026016Y004125D03*
D53*
X025828Y004055D03*
X025993Y004310D03*
X024563Y004060D03*
X024398Y004315D03*
X022863Y004795D03*
X022698Y004280D03*
X022698Y004275D03*
X022698Y004270D03*
X022698Y004265D03*
X022698Y004260D03*
X022698Y004255D03*
X022698Y004250D03*
X022698Y004245D03*
X022698Y004240D03*
X022698Y004235D03*
X022698Y004230D03*
X022698Y004225D03*
X022698Y004220D03*
X022698Y004215D03*
X022698Y004210D03*
X022698Y004205D03*
X022698Y004200D03*
X022698Y004195D03*
X022698Y004190D03*
X022698Y004185D03*
X022698Y004180D03*
X022698Y004175D03*
X022698Y004170D03*
X022698Y004165D03*
X022698Y004160D03*
X022698Y004155D03*
X022698Y004150D03*
X022698Y004145D03*
X022698Y004140D03*
X022698Y004135D03*
X022698Y004130D03*
X022698Y004125D03*
X022698Y004120D03*
X022698Y004115D03*
X022698Y004110D03*
X022698Y004105D03*
X022698Y004100D03*
X022698Y004095D03*
X022698Y004090D03*
X022698Y004085D03*
X022698Y004080D03*
X022698Y004075D03*
X022698Y004070D03*
X022698Y004065D03*
X022698Y004060D03*
X022698Y004055D03*
X022698Y004050D03*
X022698Y004045D03*
X022698Y004040D03*
X022698Y004035D03*
X022698Y004030D03*
X022158Y004120D03*
X022158Y004125D03*
X022158Y004275D03*
X022158Y004280D03*
X022158Y004285D03*
X021948Y004285D03*
X021948Y004290D03*
X021948Y004120D03*
X021948Y004115D03*
X021948Y003995D03*
X021573Y004120D03*
X021573Y004285D03*
X021573Y004290D03*
D54*
X022053Y003995D03*
X022428Y003995D03*
X023303Y004015D03*
X023303Y004020D03*
X023658Y004245D03*
X023658Y004250D03*
X024228Y004255D03*
X024228Y004260D03*
X024698Y004355D03*
X024698Y004360D03*
X024838Y004360D03*
X025298Y004265D03*
X025298Y004260D03*
X025298Y004170D03*
X025298Y004165D03*
X025298Y004160D03*
X025298Y004155D03*
X025298Y004150D03*
X025298Y004145D03*
X025298Y004140D03*
X025298Y004135D03*
X025298Y004130D03*
X025298Y004125D03*
X025298Y004120D03*
X025298Y004115D03*
X025298Y004110D03*
X025298Y004105D03*
X025298Y004100D03*
X025298Y004095D03*
X025298Y004090D03*
X025298Y004085D03*
X025298Y004080D03*
X025298Y004075D03*
X025298Y004070D03*
X025298Y004065D03*
X025298Y004060D03*
X025298Y004055D03*
X025298Y004050D03*
X025298Y004045D03*
X025298Y004040D03*
X025298Y004035D03*
X025298Y004030D03*
X025298Y004025D03*
X025298Y004020D03*
X025443Y004020D03*
X025443Y004015D03*
X025443Y004025D03*
X025443Y004030D03*
X025443Y004035D03*
X025443Y004040D03*
X025443Y004045D03*
X025443Y004050D03*
X025443Y004055D03*
X025443Y004060D03*
X025443Y004065D03*
X025443Y004070D03*
X025443Y004075D03*
X025443Y004080D03*
X025443Y004085D03*
X025443Y004090D03*
X025443Y004095D03*
X025443Y004100D03*
X025443Y004105D03*
X025443Y004110D03*
X025443Y004115D03*
X025443Y004120D03*
X025443Y004125D03*
X025443Y004130D03*
X025443Y004135D03*
X025443Y004140D03*
X025443Y004145D03*
X025443Y004150D03*
X025443Y004155D03*
X025443Y004160D03*
X025443Y004165D03*
X025443Y004170D03*
X025443Y004175D03*
X025443Y004180D03*
X025443Y004185D03*
X025443Y004190D03*
X025443Y004195D03*
X025443Y004200D03*
X025443Y004205D03*
X025443Y004210D03*
X025443Y004215D03*
X025443Y004220D03*
X025443Y004225D03*
X025443Y004230D03*
X025443Y004235D03*
X025443Y004240D03*
X025443Y004245D03*
X025443Y004250D03*
X025443Y004255D03*
X025443Y004260D03*
X025653Y004250D03*
D55*
X023286Y003995D03*
D56*
X023500Y003995D03*
X023855Y003995D03*
X024000Y003995D03*
X022890Y004000D03*
X022557Y004170D03*
X025640Y004235D03*
D57*
X025968Y004045D03*
X023833Y004325D03*
X023753Y003995D03*
X022888Y004325D03*
X022518Y004320D03*
X021588Y004085D03*
D58*
X021592Y004325D03*
X021760Y004325D03*
X021970Y004325D03*
X022137Y004325D03*
X022137Y004080D03*
X022337Y004145D03*
X022722Y004325D03*
X023692Y004145D03*
X024422Y004330D03*
X024565Y004320D03*
X025137Y004330D03*
X025275Y004230D03*
X024905Y004000D03*
X024767Y004000D03*
X024480Y003995D03*
X025847Y004330D03*
X025907Y003995D03*
D59*
X025835Y004050D03*
X024905Y003995D03*
X024767Y003995D03*
X024572Y004310D03*
X023842Y004320D03*
X022805Y004405D03*
X022712Y004310D03*
X022710Y004305D03*
X022527Y004100D03*
X022525Y004095D03*
X022150Y004100D03*
X022147Y004095D03*
X022052Y004000D03*
X021952Y004105D03*
X021775Y004100D03*
X021580Y004100D03*
X021775Y004305D03*
X021580Y004310D03*
X022147Y004310D03*
X022150Y004305D03*
D60*
X022511Y004080D03*
X023326Y004320D03*
X025121Y004145D03*
X025181Y003995D03*
X025821Y004140D03*
D61*
X026028Y004140D03*
X025428Y003995D03*
X025283Y003995D03*
X024713Y004375D03*
X024478Y004385D03*
D62*
X024836Y004068D03*
X025291Y004243D03*
X025286Y004303D03*
X025641Y004303D03*
X025821Y004308D03*
X025906Y004383D03*
X025806Y004128D03*
X025811Y004078D03*
X025816Y004073D03*
X025996Y004068D03*
X024241Y004938D03*
X023381Y004928D03*
X023501Y004303D03*
X023676Y004303D03*
X023856Y004303D03*
X023671Y004063D03*
X023311Y004293D03*
X022906Y004018D03*
X022536Y004148D03*
X021676Y003998D03*
D63*
X021948Y003998D03*
X021948Y004118D03*
X021948Y004123D03*
X021948Y004283D03*
X021948Y004288D03*
X022158Y004288D03*
X022158Y004283D03*
X022158Y004278D03*
X022158Y004128D03*
X022158Y004123D03*
X022158Y004118D03*
X022698Y004118D03*
X022698Y004123D03*
X022698Y004128D03*
X022698Y004133D03*
X022698Y004138D03*
X022698Y004143D03*
X022698Y004148D03*
X022698Y004153D03*
X022698Y004158D03*
X022698Y004163D03*
X022698Y004168D03*
X022698Y004173D03*
X022698Y004178D03*
X022698Y004183D03*
X022698Y004188D03*
X022698Y004193D03*
X022698Y004198D03*
X022698Y004203D03*
X022698Y004208D03*
X022698Y004213D03*
X022698Y004218D03*
X022698Y004223D03*
X022698Y004228D03*
X022698Y004233D03*
X022698Y004238D03*
X022698Y004243D03*
X022698Y004248D03*
X022698Y004253D03*
X022698Y004258D03*
X022698Y004263D03*
X022698Y004268D03*
X022698Y004273D03*
X022698Y004278D03*
X022703Y004293D03*
X022698Y004113D03*
X022698Y004108D03*
X022698Y004103D03*
X022698Y004098D03*
X022698Y004093D03*
X022698Y004088D03*
X022698Y004083D03*
X022698Y004078D03*
X022698Y004073D03*
X022698Y004068D03*
X022698Y004063D03*
X022698Y004058D03*
X022698Y004053D03*
X022698Y004048D03*
X022698Y004043D03*
X022698Y004038D03*
X022698Y004033D03*
X022698Y004028D03*
X021573Y004288D03*
X024043Y004318D03*
X024398Y004058D03*
X025273Y004318D03*
X025828Y004318D03*
X026003Y004248D03*
D64*
X026003Y004083D03*
X026003Y004078D03*
X025803Y004098D03*
X025803Y004118D03*
X025803Y004203D03*
X025803Y004273D03*
X025808Y004293D03*
X025653Y004278D03*
X025648Y004293D03*
X025453Y004293D03*
X025098Y004293D03*
X025088Y004108D03*
X025088Y004103D03*
X025088Y004098D03*
X025088Y004093D03*
X025088Y004088D03*
X025088Y004083D03*
X025088Y004078D03*
X024703Y004068D03*
X024703Y004063D03*
X024578Y004083D03*
X024383Y004083D03*
X024383Y004288D03*
X024583Y004283D03*
X024583Y004373D03*
X024023Y004288D03*
X023868Y004283D03*
X023863Y004293D03*
X023668Y004288D03*
X023503Y004298D03*
X023308Y004288D03*
X023663Y004078D03*
X022428Y003998D03*
D65*
X023288Y003998D03*
X024218Y004238D03*
X024853Y004378D03*
X023393Y004913D03*
D66*
X023646Y004233D03*
X023501Y003998D03*
D67*
X023752Y003998D03*
X023330Y004323D03*
X022882Y004333D03*
X022725Y004328D03*
X022510Y004328D03*
X021975Y004333D03*
X021752Y004073D03*
X021600Y004333D03*
X022340Y004148D03*
X022350Y004078D03*
X025180Y003998D03*
X025272Y004228D03*
X025550Y004378D03*
D68*
X024851Y004373D03*
X023856Y003998D03*
X022681Y004003D03*
D69*
X024002Y003998D03*
X024712Y004373D03*
X025072Y004233D03*
X025285Y003998D03*
X025430Y003998D03*
D70*
X025130Y004153D03*
X024905Y004003D03*
X024480Y003998D03*
X023847Y004228D03*
X023705Y004153D03*
X024480Y004373D03*
X024257Y004958D03*
X023365Y004943D03*
X022730Y004333D03*
X022505Y004333D03*
X022130Y004333D03*
X022130Y004073D03*
X021602Y004073D03*
X025827Y004148D03*
X025907Y003998D03*
X025987Y004233D03*
X024697Y007168D03*
X022882Y007158D03*
D71*
X022716Y004318D03*
X021956Y004093D03*
X024766Y003998D03*
X024836Y004053D03*
X024906Y003998D03*
D72*
X025476Y004320D03*
X025831Y004320D03*
X026001Y004245D03*
X024761Y004825D03*
X022906Y004300D03*
X022331Y004305D03*
X022156Y004295D03*
X022156Y004110D03*
X022331Y004100D03*
X021676Y004000D03*
D73*
X022678Y004000D03*
X023408Y004385D03*
X023643Y004230D03*
X025068Y004230D03*
X025193Y004385D03*
X023393Y004910D03*
D74*
X023390Y004915D03*
X024710Y004370D03*
X025075Y004235D03*
X025287Y004000D03*
X024005Y004000D03*
X023647Y004235D03*
X023290Y004000D03*
D75*
X023503Y004000D03*
X022863Y004780D03*
D76*
X022866Y004805D03*
X023411Y004375D03*
X024066Y004330D03*
X023751Y004000D03*
X022501Y004070D03*
X022351Y004075D03*
X022341Y004150D03*
X022516Y004265D03*
X024256Y004955D03*
X025906Y004375D03*
X025826Y004145D03*
D77*
X024848Y004370D03*
X023858Y004000D03*
D78*
X023711Y004155D03*
X024481Y004000D03*
X025266Y004220D03*
X025906Y004000D03*
X024556Y004325D03*
X022866Y004810D03*
X022736Y004335D03*
D79*
X022358Y004070D03*
X021748Y004070D03*
X023333Y004325D03*
X023363Y004945D03*
X025178Y004000D03*
D80*
X025431Y004000D03*
X023316Y004515D03*
D81*
X024061Y004328D03*
X023696Y004148D03*
X021756Y004078D03*
X021676Y004003D03*
X021756Y004328D03*
X021676Y004403D03*
D82*
X021582Y004313D03*
X021955Y004303D03*
X021957Y004308D03*
X022147Y004313D03*
X022332Y004308D03*
X022527Y004303D03*
X022527Y004273D03*
X022710Y004308D03*
X022712Y004313D03*
X022902Y004308D03*
X022905Y004303D03*
X022332Y004098D03*
X022150Y004098D03*
X022147Y004093D03*
X021952Y004003D03*
X023320Y004313D03*
X023480Y004323D03*
X023697Y004323D03*
X024410Y004323D03*
X025125Y004323D03*
X025110Y004138D03*
X024247Y004948D03*
D83*
X024123Y004378D03*
X025613Y004328D03*
X025823Y004143D03*
X022503Y004073D03*
X022133Y004078D03*
X022053Y004003D03*
X022348Y004328D03*
X022428Y004403D03*
X021593Y004328D03*
D84*
X021762Y004083D03*
X021972Y004328D03*
X022055Y004403D03*
X022135Y004328D03*
X022342Y004083D03*
X022430Y004003D03*
X022805Y004403D03*
X022887Y004328D03*
X023690Y004143D03*
X023830Y004328D03*
X023767Y004378D03*
X024480Y004378D03*
X025122Y004148D03*
X025255Y004328D03*
X025195Y004378D03*
X025487Y004328D03*
X025970Y004328D03*
X024760Y004833D03*
X022882Y007163D03*
D85*
X022863Y004783D03*
X022428Y004413D03*
X021678Y004413D03*
X023293Y004003D03*
X024223Y004243D03*
X025078Y004238D03*
D86*
X025435Y004003D03*
X024597Y004513D03*
X024007Y004003D03*
X023507Y004003D03*
D87*
X023748Y004003D03*
X023843Y004223D03*
X025548Y004373D03*
D88*
X024481Y004003D03*
X023836Y004218D03*
D89*
X024561Y004323D03*
X024766Y004003D03*
X021751Y004333D03*
X021596Y004078D03*
D90*
X022511Y004258D03*
X023336Y004328D03*
X023361Y004948D03*
X024261Y004963D03*
X025176Y004003D03*
D91*
X025156Y004168D03*
X025261Y004218D03*
X025906Y004003D03*
X023721Y004163D03*
X022506Y004253D03*
D92*
X021676Y004400D03*
X021676Y004005D03*
X025906Y004370D03*
D93*
X024752Y004875D03*
X023380Y004365D03*
X022805Y004370D03*
X022052Y004370D03*
X021677Y004370D03*
X022012Y004005D03*
X022872Y004845D03*
X022887Y007120D03*
D94*
X024697Y007165D03*
X024757Y004840D03*
X025137Y004155D03*
X022430Y004005D03*
X021745Y004335D03*
D95*
X022550Y004165D03*
X022685Y004005D03*
X024225Y004245D03*
X024762Y004810D03*
D96*
X025081Y004240D03*
X024011Y004005D03*
X023511Y004005D03*
X022896Y004005D03*
D97*
X023298Y004005D03*
X025293Y004005D03*
D98*
X025172Y004005D03*
X025145Y004160D03*
X025550Y004370D03*
X024262Y004965D03*
X023767Y004370D03*
X023840Y004220D03*
X023717Y004160D03*
X023747Y004005D03*
X023340Y004330D03*
X022350Y004155D03*
D99*
X022806Y004395D03*
X023746Y004175D03*
X024481Y004005D03*
X025906Y004005D03*
X025921Y004195D03*
X024756Y004850D03*
X023351Y004955D03*
X021676Y004010D03*
D100*
X022508Y004255D03*
X022428Y004400D03*
X022053Y004400D03*
X022803Y004400D03*
X024123Y004370D03*
X024478Y004370D03*
X025193Y004370D03*
X025978Y004225D03*
X024768Y004005D03*
D101*
X024901Y004005D03*
X025151Y004165D03*
X022866Y004815D03*
D102*
X023310Y004505D03*
X023775Y004045D03*
X024592Y004505D03*
X024842Y004365D03*
X024980Y004365D03*
X025650Y004245D03*
X025440Y004005D03*
D103*
X025170Y004013D03*
X025840Y004158D03*
X025967Y004218D03*
X025195Y004368D03*
X024757Y004848D03*
X023767Y004368D03*
X022805Y004398D03*
X022052Y004398D03*
X021677Y004008D03*
X022430Y004008D03*
X022867Y004818D03*
X023355Y004953D03*
X024697Y007158D03*
D104*
X022872Y004848D03*
X022430Y004368D03*
X022052Y004368D03*
X021677Y004368D03*
X021677Y004038D03*
X022015Y004008D03*
X023382Y004363D03*
X025907Y004038D03*
D105*
X025651Y004248D03*
X025296Y004008D03*
X023301Y004008D03*
X022686Y004008D03*
D106*
X022898Y004008D03*
X023308Y004503D03*
X024013Y004008D03*
X024978Y004363D03*
X025083Y004243D03*
X022878Y007183D03*
D107*
X024235Y004933D03*
X024762Y004813D03*
X026020Y004133D03*
X023512Y004008D03*
X022547Y004163D03*
D108*
X022353Y004158D03*
X023728Y004168D03*
X023743Y004008D03*
D109*
X023660Y004093D03*
X023660Y004098D03*
X023660Y004253D03*
X023660Y004258D03*
X023662Y004268D03*
X023662Y004273D03*
X023665Y004278D03*
X023515Y004268D03*
X023515Y004263D03*
X023515Y004258D03*
X023515Y004253D03*
X023512Y004278D03*
X023305Y004258D03*
X023305Y004253D03*
X023305Y004248D03*
X023305Y004243D03*
X023305Y004238D03*
X023305Y004233D03*
X023305Y004228D03*
X023305Y004223D03*
X023305Y004218D03*
X023305Y004213D03*
X023305Y004208D03*
X023305Y004203D03*
X023305Y004198D03*
X023305Y004193D03*
X023305Y004188D03*
X023305Y004183D03*
X023305Y004178D03*
X023305Y004173D03*
X023305Y004168D03*
X023305Y004163D03*
X023305Y004158D03*
X023305Y004153D03*
X023305Y004148D03*
X023305Y004143D03*
X023305Y004138D03*
X023305Y004133D03*
X023305Y004128D03*
X023305Y004123D03*
X023305Y004118D03*
X023305Y004113D03*
X023305Y004108D03*
X023305Y004103D03*
X023305Y004098D03*
X023305Y004093D03*
X023305Y004088D03*
X023305Y004083D03*
X023305Y004078D03*
X023305Y004073D03*
X023305Y004068D03*
X023305Y004063D03*
X023305Y004058D03*
X023305Y004053D03*
X023305Y004048D03*
X023305Y004043D03*
X023305Y004038D03*
X023305Y004033D03*
X023305Y004028D03*
X023870Y004008D03*
X024017Y004018D03*
X024375Y004103D03*
X024377Y004098D03*
X024375Y004268D03*
X024377Y004278D03*
X024230Y004263D03*
X024227Y004268D03*
X024697Y004268D03*
X024697Y004273D03*
X024697Y004278D03*
X024697Y004283D03*
X024697Y004288D03*
X024697Y004293D03*
X024697Y004298D03*
X024697Y004303D03*
X024697Y004308D03*
X024697Y004313D03*
X024697Y004318D03*
X024697Y004323D03*
X024697Y004328D03*
X024697Y004333D03*
X024697Y004338D03*
X024697Y004343D03*
X024697Y004348D03*
X024697Y004353D03*
X024697Y004263D03*
X024697Y004258D03*
X024697Y004253D03*
X024697Y004248D03*
X024697Y004243D03*
X024697Y004238D03*
X024697Y004233D03*
X024697Y004228D03*
X024697Y004223D03*
X024697Y004218D03*
X024697Y004213D03*
X024697Y004208D03*
X024697Y004203D03*
X024697Y004198D03*
X024697Y004193D03*
X024697Y004188D03*
X024697Y004183D03*
X024697Y004178D03*
X024697Y004173D03*
X024697Y004168D03*
X024697Y004163D03*
X024697Y004158D03*
X024697Y004153D03*
X024697Y004148D03*
X024697Y004143D03*
X024697Y004138D03*
X024697Y004133D03*
X024697Y004128D03*
X024697Y004123D03*
X024697Y004118D03*
X024697Y004113D03*
X024697Y004108D03*
X024697Y004103D03*
X024697Y004098D03*
X024697Y004093D03*
X024700Y004088D03*
X024837Y004203D03*
X024837Y004208D03*
X024837Y004213D03*
X024837Y004218D03*
X024837Y004223D03*
X024837Y004228D03*
X024837Y004233D03*
X024837Y004238D03*
X024837Y004243D03*
X024837Y004248D03*
X024837Y004253D03*
X024837Y004258D03*
X024837Y004263D03*
X024837Y004268D03*
X024837Y004273D03*
X024837Y004278D03*
X024837Y004283D03*
X024837Y004288D03*
X024837Y004293D03*
X024837Y004298D03*
X024837Y004303D03*
X024837Y004308D03*
X024837Y004313D03*
X024837Y004318D03*
X024837Y004323D03*
X024837Y004328D03*
X024837Y004333D03*
X024837Y004338D03*
X024837Y004343D03*
X024837Y004348D03*
X024837Y004353D03*
X024837Y004358D03*
X025087Y004253D03*
X025297Y004253D03*
X025297Y004273D03*
X025297Y004178D03*
X025297Y004173D03*
X025445Y004263D03*
X025445Y004268D03*
X025447Y004273D03*
X025655Y004253D03*
X026010Y004273D03*
X026012Y004263D03*
X026015Y004123D03*
X026015Y004118D03*
X026015Y004113D03*
X026012Y004108D03*
X026012Y004103D03*
X026010Y004098D03*
X023305Y004378D03*
X023305Y004383D03*
X023305Y004388D03*
X023305Y004393D03*
X023305Y004398D03*
X023305Y004403D03*
X023305Y004408D03*
X023305Y004413D03*
X023305Y004418D03*
X023305Y004423D03*
X023305Y004428D03*
X023305Y004433D03*
X023305Y004438D03*
X023305Y004443D03*
X023305Y004448D03*
X023305Y004453D03*
X023305Y004458D03*
X023305Y004463D03*
X023305Y004468D03*
X023305Y004473D03*
X023305Y004478D03*
X023305Y004483D03*
X023305Y004488D03*
X023305Y004493D03*
X023382Y004923D03*
D110*
X022430Y004393D03*
X021677Y004393D03*
X023727Y004033D03*
X024480Y004008D03*
X025250Y004208D03*
X024755Y004853D03*
D111*
X024836Y004008D03*
X022876Y004868D03*
D112*
X024265Y004968D03*
X025172Y004008D03*
D113*
X025297Y004013D03*
X025442Y004008D03*
X025085Y004248D03*
X024840Y004363D03*
X024700Y004363D03*
X024590Y004503D03*
X024227Y004253D03*
X023657Y004243D03*
X023515Y004023D03*
X023515Y004018D03*
X023515Y004013D03*
D114*
X022806Y004393D03*
X025151Y004038D03*
X025156Y004033D03*
X025906Y004008D03*
D115*
X025907Y004040D03*
X024480Y004040D03*
X024507Y004360D03*
X022430Y004365D03*
X021677Y004365D03*
X021677Y004040D03*
X022017Y004010D03*
D116*
X022428Y004010D03*
X022358Y004165D03*
X022053Y004395D03*
X022868Y004820D03*
X023733Y004020D03*
X025163Y004020D03*
D117*
X024975Y004090D03*
X024837Y004205D03*
X024837Y004210D03*
X024837Y004215D03*
X024837Y004220D03*
X024837Y004225D03*
X024837Y004230D03*
X024837Y004235D03*
X024837Y004240D03*
X024837Y004245D03*
X024837Y004250D03*
X024837Y004255D03*
X024837Y004260D03*
X024837Y004265D03*
X024837Y004270D03*
X024837Y004275D03*
X024837Y004280D03*
X024837Y004285D03*
X024837Y004290D03*
X024837Y004295D03*
X024837Y004300D03*
X024837Y004305D03*
X024837Y004310D03*
X024837Y004315D03*
X024837Y004320D03*
X024837Y004325D03*
X024837Y004330D03*
X024837Y004335D03*
X024837Y004340D03*
X024837Y004345D03*
X024837Y004350D03*
X024837Y004355D03*
X024697Y004350D03*
X024697Y004345D03*
X024697Y004340D03*
X024697Y004335D03*
X024697Y004330D03*
X024697Y004325D03*
X024697Y004320D03*
X024697Y004315D03*
X024697Y004310D03*
X024697Y004305D03*
X024697Y004300D03*
X024697Y004295D03*
X024697Y004290D03*
X024697Y004285D03*
X024697Y004280D03*
X024697Y004275D03*
X024697Y004270D03*
X024697Y004265D03*
X024697Y004260D03*
X024697Y004255D03*
X024697Y004250D03*
X024697Y004245D03*
X024697Y004240D03*
X024697Y004235D03*
X024697Y004230D03*
X024697Y004225D03*
X024697Y004220D03*
X024697Y004215D03*
X024697Y004210D03*
X024697Y004205D03*
X024697Y004200D03*
X024697Y004195D03*
X024697Y004190D03*
X024697Y004185D03*
X024697Y004180D03*
X024697Y004175D03*
X024697Y004170D03*
X024697Y004165D03*
X024697Y004160D03*
X024697Y004155D03*
X024697Y004150D03*
X024697Y004145D03*
X024697Y004140D03*
X024697Y004135D03*
X024697Y004130D03*
X024697Y004125D03*
X024697Y004120D03*
X024697Y004115D03*
X024697Y004110D03*
X024697Y004105D03*
X024697Y004100D03*
X024697Y004095D03*
X024697Y004090D03*
X024700Y004085D03*
X024377Y004095D03*
X024375Y004105D03*
X024377Y004275D03*
X024230Y004265D03*
X024227Y004270D03*
X023665Y004275D03*
X023662Y004270D03*
X023660Y004260D03*
X023660Y004255D03*
X023515Y004255D03*
X023515Y004260D03*
X023515Y004265D03*
X023515Y004270D03*
X023305Y004255D03*
X023305Y004250D03*
X023305Y004245D03*
X023305Y004240D03*
X023305Y004235D03*
X023305Y004230D03*
X023305Y004225D03*
X023305Y004220D03*
X023305Y004215D03*
X023305Y004210D03*
X023305Y004205D03*
X023305Y004200D03*
X023305Y004195D03*
X023305Y004190D03*
X023305Y004185D03*
X023305Y004180D03*
X023305Y004175D03*
X023305Y004170D03*
X023305Y004165D03*
X023305Y004160D03*
X023305Y004155D03*
X023305Y004150D03*
X023305Y004145D03*
X023305Y004140D03*
X023305Y004135D03*
X023305Y004130D03*
X023305Y004125D03*
X023305Y004120D03*
X023305Y004115D03*
X023305Y004110D03*
X023305Y004105D03*
X023305Y004100D03*
X023305Y004095D03*
X023305Y004090D03*
X023305Y004085D03*
X023305Y004080D03*
X023305Y004075D03*
X023305Y004070D03*
X023305Y004065D03*
X023305Y004060D03*
X023305Y004055D03*
X023305Y004050D03*
X023305Y004045D03*
X023305Y004040D03*
X023305Y004035D03*
X023305Y004030D03*
X023305Y004025D03*
X023660Y004090D03*
X023660Y004095D03*
X024017Y004020D03*
X024017Y004015D03*
X023305Y004380D03*
X023305Y004385D03*
X023305Y004390D03*
X023305Y004395D03*
X023305Y004400D03*
X023305Y004405D03*
X023305Y004410D03*
X023305Y004415D03*
X023305Y004420D03*
X023305Y004425D03*
X023305Y004430D03*
X023305Y004435D03*
X023305Y004440D03*
X023305Y004445D03*
X023305Y004450D03*
X023305Y004455D03*
X023305Y004460D03*
X023305Y004465D03*
X023305Y004470D03*
X023305Y004475D03*
X023305Y004480D03*
X023305Y004490D03*
X023305Y004495D03*
X022542Y004155D03*
X022687Y004010D03*
X022900Y004010D03*
X022430Y004410D03*
X024587Y004500D03*
X025087Y004255D03*
X025297Y004255D03*
X025297Y004270D03*
X025297Y004275D03*
X025297Y004175D03*
X025445Y004265D03*
X025447Y004275D03*
X025655Y004255D03*
X026012Y004265D03*
X026015Y004120D03*
X026015Y004115D03*
X026015Y004110D03*
X026012Y004105D03*
X022880Y007180D03*
D118*
X022863Y004785D03*
X023513Y004010D03*
D119*
X023742Y004010D03*
X023735Y004170D03*
X022355Y004160D03*
X025162Y004170D03*
X025257Y004215D03*
D120*
X025296Y004250D03*
X025296Y004280D03*
X025296Y004180D03*
X025091Y004275D03*
X025091Y004280D03*
X024836Y004200D03*
X024836Y004195D03*
X024836Y004190D03*
X024836Y004185D03*
X024836Y004180D03*
X024836Y004175D03*
X024836Y004165D03*
X024836Y004155D03*
X024836Y004145D03*
X024836Y004140D03*
X024836Y004125D03*
X024836Y004115D03*
X024836Y004105D03*
X024836Y004100D03*
X024836Y004095D03*
X024701Y004080D03*
X024586Y004115D03*
X024586Y004120D03*
X024586Y004125D03*
X024586Y004130D03*
X024586Y004150D03*
X024586Y004155D03*
X024586Y004170D03*
X024586Y004175D03*
X024586Y004180D03*
X024586Y004185D03*
X024586Y004190D03*
X024586Y004205D03*
X024586Y004210D03*
X024586Y004215D03*
X024586Y004220D03*
X024586Y004225D03*
X024586Y004235D03*
X024586Y004240D03*
X024586Y004250D03*
X024586Y004255D03*
X024586Y004400D03*
X024586Y004405D03*
X024586Y004410D03*
X024586Y004420D03*
X024586Y004425D03*
X024586Y004435D03*
X024586Y004440D03*
X024586Y004445D03*
X024586Y004450D03*
X024586Y004455D03*
X024586Y004460D03*
X024586Y004465D03*
X024586Y004470D03*
X024586Y004475D03*
X024586Y004495D03*
X024376Y004270D03*
X024226Y004275D03*
X024376Y004100D03*
X023871Y004010D03*
X023661Y004085D03*
X023661Y004100D03*
X023666Y004280D03*
X023511Y004280D03*
X023306Y004275D03*
X023306Y004270D03*
X023306Y004265D03*
X023306Y004260D03*
X023306Y004375D03*
X025656Y004260D03*
X026011Y004270D03*
X026011Y004100D03*
D121*
X025906Y004010D03*
X024481Y004010D03*
X024756Y004855D03*
X023346Y004965D03*
X022491Y004240D03*
X021676Y004390D03*
X024696Y007150D03*
D122*
X022421Y004220D03*
X024836Y004010D03*
D123*
X025171Y004010D03*
D124*
X025186Y004183D03*
X022361Y004168D03*
X021676Y004013D03*
X024696Y007153D03*
D125*
X024293Y005008D03*
X024123Y004333D03*
X022428Y004043D03*
X022018Y004013D03*
X025908Y004333D03*
D126*
X025158Y004028D03*
X023828Y004213D03*
X023728Y004028D03*
X022428Y004013D03*
X022053Y004393D03*
X022883Y007143D03*
D127*
X024701Y007188D03*
X024586Y004498D03*
X024586Y004493D03*
X024586Y004473D03*
X024586Y004468D03*
X024586Y004453D03*
X024586Y004443D03*
X024586Y004433D03*
X024586Y004418D03*
X024586Y004413D03*
X024586Y004403D03*
X024586Y004398D03*
X024586Y004253D03*
X024586Y004248D03*
X024586Y004243D03*
X024586Y004238D03*
X024586Y004233D03*
X024586Y004228D03*
X024586Y004223D03*
X024586Y004218D03*
X024586Y004203D03*
X024586Y004198D03*
X024586Y004193D03*
X024586Y004188D03*
X024586Y004178D03*
X024586Y004173D03*
X024586Y004168D03*
X024586Y004163D03*
X024586Y004158D03*
X024586Y004153D03*
X024586Y004143D03*
X024586Y004138D03*
X024586Y004133D03*
X024586Y004123D03*
X024586Y004118D03*
X024701Y004083D03*
X024836Y004098D03*
X024836Y004103D03*
X024836Y004108D03*
X024836Y004118D03*
X024836Y004123D03*
X024836Y004128D03*
X024836Y004133D03*
X024836Y004148D03*
X024836Y004153D03*
X024836Y004158D03*
X024836Y004178D03*
X024836Y004183D03*
X024836Y004188D03*
X024836Y004193D03*
X024836Y004198D03*
X025091Y004278D03*
X025096Y004288D03*
X025296Y004278D03*
X025451Y004283D03*
X025656Y004258D03*
X026011Y004268D03*
X024381Y004283D03*
X024376Y004273D03*
X024226Y004273D03*
X024381Y004088D03*
X023871Y004013D03*
X023661Y004088D03*
X023661Y004103D03*
X023306Y004263D03*
X023306Y004268D03*
X023306Y004273D03*
X022901Y004013D03*
D128*
X022543Y004158D03*
X023303Y004023D03*
X023303Y004018D03*
X023303Y004013D03*
X023658Y004248D03*
X024228Y004258D03*
X024698Y004358D03*
X025298Y004268D03*
X025298Y004263D03*
X025298Y004258D03*
X025298Y004168D03*
X025298Y004163D03*
X025298Y004158D03*
X025298Y004153D03*
X025298Y004148D03*
X025298Y004143D03*
X025298Y004138D03*
X025298Y004133D03*
X025298Y004128D03*
X025298Y004123D03*
X025298Y004118D03*
X025298Y004113D03*
X025298Y004108D03*
X025298Y004103D03*
X025298Y004098D03*
X025298Y004093D03*
X025298Y004088D03*
X025298Y004083D03*
X025298Y004078D03*
X025298Y004073D03*
X025298Y004068D03*
X025298Y004063D03*
X025298Y004058D03*
X025298Y004053D03*
X025298Y004048D03*
X025298Y004043D03*
X025298Y004038D03*
X025298Y004033D03*
X025298Y004028D03*
X025298Y004023D03*
X025298Y004018D03*
X025443Y004018D03*
X025443Y004023D03*
X025443Y004028D03*
X025443Y004033D03*
X025443Y004038D03*
X025443Y004043D03*
X025443Y004048D03*
X025443Y004053D03*
X025443Y004058D03*
X025443Y004063D03*
X025443Y004068D03*
X025443Y004073D03*
X025443Y004078D03*
X025443Y004083D03*
X025443Y004088D03*
X025443Y004093D03*
X025443Y004098D03*
X025443Y004103D03*
X025443Y004108D03*
X025443Y004113D03*
X025443Y004118D03*
X025443Y004123D03*
X025443Y004128D03*
X025443Y004133D03*
X025443Y004138D03*
X025443Y004143D03*
X025443Y004148D03*
X025443Y004153D03*
X025443Y004158D03*
X025443Y004163D03*
X025443Y004168D03*
X025443Y004173D03*
X025443Y004178D03*
X025443Y004183D03*
X025443Y004188D03*
X025443Y004193D03*
X025443Y004198D03*
X025443Y004203D03*
X025443Y004208D03*
X025443Y004213D03*
X025443Y004218D03*
X025443Y004223D03*
X025443Y004228D03*
X025443Y004233D03*
X025443Y004238D03*
X025443Y004243D03*
X025443Y004248D03*
X025443Y004253D03*
X025443Y004258D03*
X025443Y004013D03*
D129*
X025936Y004203D03*
X025906Y004368D03*
X025551Y004368D03*
X023741Y004013D03*
X022356Y004163D03*
X021676Y004398D03*
D130*
X023306Y004498D03*
X023516Y004248D03*
X023516Y004243D03*
X023516Y004238D03*
X023516Y004233D03*
X023516Y004228D03*
X023516Y004223D03*
X023516Y004218D03*
X023516Y004213D03*
X023516Y004208D03*
X023516Y004203D03*
X023516Y004198D03*
X023516Y004193D03*
X023516Y004188D03*
X023516Y004183D03*
X023516Y004178D03*
X023516Y004173D03*
X023516Y004168D03*
X023516Y004163D03*
X023516Y004158D03*
X023516Y004153D03*
X023516Y004148D03*
X023516Y004143D03*
X023516Y004138D03*
X023516Y004133D03*
X023516Y004128D03*
X023516Y004123D03*
X023516Y004118D03*
X023516Y004113D03*
X023516Y004108D03*
X023516Y004103D03*
X023516Y004098D03*
X023516Y004093D03*
X023516Y004088D03*
X023516Y004083D03*
X023516Y004078D03*
X023516Y004073D03*
X023516Y004068D03*
X023516Y004063D03*
X023516Y004058D03*
X023516Y004053D03*
X023516Y004048D03*
X023516Y004043D03*
X023516Y004038D03*
X023516Y004033D03*
X023516Y004028D03*
X023661Y004263D03*
X024016Y004013D03*
X024976Y004093D03*
X024976Y004098D03*
X024976Y004103D03*
X024976Y004108D03*
X024976Y004113D03*
X024976Y004118D03*
X024976Y004123D03*
X024976Y004128D03*
X024976Y004133D03*
X024976Y004138D03*
X024976Y004143D03*
X024976Y004148D03*
X024976Y004153D03*
X024976Y004158D03*
X024976Y004163D03*
X024976Y004168D03*
X024976Y004173D03*
X024976Y004178D03*
X024976Y004183D03*
X024976Y004188D03*
X024976Y004193D03*
X024976Y004198D03*
X024976Y004203D03*
X024976Y004208D03*
X024976Y004213D03*
X024976Y004218D03*
X024976Y004223D03*
X024976Y004228D03*
X024976Y004233D03*
X024976Y004238D03*
X024976Y004243D03*
X024976Y004248D03*
X024976Y004253D03*
X024976Y004258D03*
X024976Y004263D03*
X024976Y004268D03*
X024976Y004273D03*
X024976Y004278D03*
X024976Y004283D03*
X024976Y004288D03*
X024976Y004293D03*
X024976Y004298D03*
X024976Y004303D03*
X024976Y004308D03*
X024976Y004313D03*
X024976Y004318D03*
X024976Y004323D03*
X024976Y004328D03*
X024976Y004333D03*
X024976Y004338D03*
X024976Y004343D03*
X024976Y004348D03*
X024976Y004353D03*
X024976Y004358D03*
X026016Y004128D03*
D131*
X025906Y004013D03*
X024481Y004013D03*
X022806Y004388D03*
X021676Y004388D03*
D132*
X022046Y004068D03*
X024836Y004013D03*
D133*
X025146Y004045D03*
X025551Y004365D03*
X024271Y004975D03*
X023726Y004035D03*
X021676Y004015D03*
D134*
X022020Y004015D03*
X022427Y004045D03*
X022397Y004200D03*
X023327Y004990D03*
X024505Y004355D03*
X024692Y007125D03*
D135*
X022883Y007140D03*
X022363Y004170D03*
X022428Y004015D03*
X025148Y004040D03*
X025153Y004035D03*
D136*
X024971Y004070D03*
X024971Y004075D03*
X024836Y004080D03*
X024836Y004085D03*
X024576Y004080D03*
X024386Y004295D03*
X024221Y004290D03*
X024021Y004280D03*
X023871Y004270D03*
X023866Y004290D03*
X023871Y004170D03*
X023666Y004115D03*
X023666Y004075D03*
X023671Y004295D03*
X023506Y004290D03*
X022806Y004410D03*
X022691Y004015D03*
X023381Y004925D03*
X025291Y004290D03*
X025651Y004290D03*
X025651Y004285D03*
X025806Y004285D03*
X025811Y004295D03*
X026006Y004285D03*
X026011Y004255D03*
X025806Y004090D03*
D137*
X025803Y004095D03*
X025803Y004100D03*
X025803Y004120D03*
X025803Y004200D03*
X025803Y004275D03*
X025808Y004290D03*
X025653Y004280D03*
X025653Y004275D03*
X025453Y004290D03*
X025288Y004295D03*
X025293Y004245D03*
X025088Y004110D03*
X025088Y004105D03*
X025088Y004100D03*
X025088Y004095D03*
X025088Y004090D03*
X025088Y004085D03*
X025088Y004080D03*
X024703Y004070D03*
X024703Y004065D03*
X024383Y004290D03*
X024583Y004375D03*
X024023Y004290D03*
X023868Y004285D03*
X023868Y004280D03*
X023668Y004290D03*
X023508Y004285D03*
X023308Y004285D03*
X023663Y004110D03*
X022903Y004015D03*
X022538Y004150D03*
X026003Y004080D03*
D138*
X025945Y004205D03*
X025930Y004200D03*
X025962Y004215D03*
X025842Y004160D03*
X023832Y004215D03*
X023740Y004015D03*
X024697Y007155D03*
D139*
X024585Y004490D03*
X024585Y004485D03*
X024585Y004480D03*
X024585Y004430D03*
X024585Y004415D03*
X024585Y004395D03*
X024585Y004390D03*
X024585Y004385D03*
X024585Y004380D03*
X024585Y004280D03*
X024585Y004275D03*
X024585Y004270D03*
X024585Y004265D03*
X024585Y004260D03*
X024585Y004245D03*
X024585Y004230D03*
X024585Y004200D03*
X024585Y004195D03*
X024585Y004165D03*
X024585Y004160D03*
X024585Y004145D03*
X024585Y004140D03*
X024585Y004135D03*
X024585Y004110D03*
X024585Y004105D03*
X024585Y004100D03*
X024582Y004090D03*
X024580Y004085D03*
X024702Y004075D03*
X024835Y004090D03*
X024835Y004110D03*
X024835Y004120D03*
X024835Y004130D03*
X024835Y004135D03*
X024835Y004150D03*
X024835Y004160D03*
X024835Y004170D03*
X024972Y004080D03*
X025090Y004270D03*
X025097Y004290D03*
X025100Y004295D03*
X025292Y004285D03*
X025452Y004285D03*
X025655Y004270D03*
X025655Y004265D03*
X025802Y004265D03*
X025802Y004270D03*
X025802Y004260D03*
X025802Y004255D03*
X025802Y004250D03*
X025802Y004245D03*
X025802Y004240D03*
X025802Y004235D03*
X025802Y004230D03*
X025802Y004225D03*
X025802Y004220D03*
X025802Y004215D03*
X025802Y004210D03*
X025802Y004205D03*
X025805Y004280D03*
X025802Y004115D03*
X025802Y004110D03*
X025802Y004105D03*
X026005Y004085D03*
X026007Y004090D03*
X026007Y004280D03*
X024382Y004285D03*
X024372Y004250D03*
X024372Y004245D03*
X024372Y004240D03*
X024372Y004235D03*
X024372Y004230D03*
X024372Y004225D03*
X024372Y004220D03*
X024372Y004215D03*
X024372Y004210D03*
X024372Y004205D03*
X024372Y004200D03*
X024372Y004195D03*
X024372Y004190D03*
X024372Y004185D03*
X024372Y004180D03*
X024372Y004175D03*
X024372Y004170D03*
X024372Y004165D03*
X024372Y004160D03*
X024372Y004155D03*
X024372Y004150D03*
X024372Y004145D03*
X024372Y004140D03*
X024372Y004135D03*
X024372Y004130D03*
X024372Y004125D03*
X024382Y004085D03*
X024225Y004280D03*
X024222Y004285D03*
X024022Y004285D03*
X024020Y004275D03*
X024020Y004270D03*
X024020Y004265D03*
X023872Y004265D03*
X023872Y004260D03*
X023872Y004255D03*
X023870Y004275D03*
X023872Y004165D03*
X023872Y004160D03*
X023872Y004155D03*
X023872Y004150D03*
X023872Y004145D03*
X023872Y004140D03*
X023872Y004135D03*
X023872Y004130D03*
X023872Y004125D03*
X023872Y004120D03*
X023872Y004115D03*
X023872Y004110D03*
X023872Y004105D03*
X023872Y004100D03*
X023872Y004095D03*
X023872Y004090D03*
X023872Y004085D03*
X023872Y004080D03*
X023872Y004075D03*
X023872Y004070D03*
X023872Y004065D03*
X023872Y004060D03*
X023872Y004055D03*
X023872Y004050D03*
X023872Y004045D03*
X023872Y004040D03*
X023872Y004035D03*
X023872Y004030D03*
X023872Y004025D03*
X023872Y004020D03*
X023872Y004015D03*
X023662Y004080D03*
X023662Y004105D03*
X023667Y004285D03*
X023307Y004280D03*
X022052Y004410D03*
X021677Y004410D03*
D140*
X022486Y004235D03*
X024481Y004015D03*
D141*
X024836Y004015D03*
X024746Y004905D03*
X022426Y004225D03*
D142*
X024268Y004970D03*
X025168Y004015D03*
D143*
X025905Y004015D03*
X022870Y004830D03*
D144*
X022870Y004828D03*
X022430Y004388D03*
X022490Y004238D03*
X022052Y004388D03*
X021677Y004018D03*
X022427Y004018D03*
X025245Y004203D03*
D145*
X023326Y004993D03*
X022806Y004363D03*
X022021Y004018D03*
X021676Y004363D03*
D146*
X023742Y004173D03*
X023737Y004018D03*
X025165Y004018D03*
X025170Y004173D03*
X025925Y004198D03*
D147*
X025906Y004018D03*
X024481Y004018D03*
X022871Y004833D03*
D148*
X024746Y004908D03*
X024836Y004018D03*
D149*
X025195Y004355D03*
X025907Y004355D03*
X023767Y004355D03*
X022805Y004385D03*
X022430Y004385D03*
X022372Y004175D03*
X021677Y004020D03*
X021677Y004385D03*
X022885Y007135D03*
X024695Y007145D03*
D150*
X023323Y004995D03*
X022053Y004360D03*
X022428Y004050D03*
X022023Y004020D03*
D151*
X022428Y004020D03*
X022053Y004385D03*
X024753Y004860D03*
D152*
X024243Y004940D03*
X023378Y004930D03*
X024038Y004310D03*
X024203Y004315D03*
X024208Y004310D03*
X024578Y004295D03*
X025108Y004310D03*
X025098Y004125D03*
X025808Y004130D03*
X023673Y004130D03*
X023673Y004055D03*
X023313Y004300D03*
X022908Y004020D03*
X022533Y004125D03*
X022323Y004235D03*
X022323Y004265D03*
X022323Y004270D03*
D153*
X022870Y004835D03*
X023767Y004350D03*
X024480Y004020D03*
X024695Y007140D03*
D154*
X024746Y004910D03*
X024836Y004020D03*
D155*
X025861Y004175D03*
X025906Y004020D03*
X022376Y004180D03*
D156*
X022377Y004183D03*
X022805Y004383D03*
X021677Y004383D03*
X021677Y004023D03*
X024122Y004353D03*
X025235Y004198D03*
X025550Y004353D03*
X025862Y004178D03*
X024280Y004988D03*
D157*
X024297Y005018D03*
X024750Y004888D03*
X024497Y004343D03*
X022805Y004353D03*
X022027Y004023D03*
X022887Y007108D03*
D158*
X022053Y004383D03*
X022428Y004023D03*
D159*
X022531Y004113D03*
X022531Y004118D03*
X022326Y004123D03*
X022326Y004128D03*
X022326Y004228D03*
X022326Y004278D03*
X022326Y004283D03*
X022701Y004288D03*
X022911Y004288D03*
X022911Y004023D03*
X023676Y004133D03*
X023846Y004318D03*
X024401Y004318D03*
X024576Y004303D03*
X024716Y004048D03*
X025826Y004058D03*
X025991Y004313D03*
X025986Y004318D03*
X024761Y004823D03*
X021781Y004283D03*
X021781Y004278D03*
X021781Y004273D03*
X021781Y004268D03*
X021781Y004263D03*
X021781Y004258D03*
X021781Y004253D03*
X021781Y004248D03*
X021781Y004243D03*
X021781Y004238D03*
X021781Y004233D03*
X021781Y004228D03*
X021781Y004223D03*
X021781Y004218D03*
X021781Y004213D03*
X021781Y004208D03*
X021781Y004203D03*
X021781Y004198D03*
X021781Y004193D03*
X021781Y004188D03*
X021781Y004183D03*
X021781Y004178D03*
X021781Y004173D03*
X021781Y004168D03*
X021781Y004163D03*
X021781Y004158D03*
X021781Y004153D03*
X021781Y004148D03*
X021781Y004143D03*
X021781Y004138D03*
X021781Y004133D03*
X021781Y004128D03*
X021781Y004123D03*
D160*
X022497Y004248D03*
X023750Y004178D03*
X023732Y004023D03*
X025162Y004023D03*
X025177Y004178D03*
X025845Y004163D03*
X025950Y004208D03*
X025957Y004213D03*
X024270Y004973D03*
X023350Y004958D03*
D161*
X022863Y004788D03*
X023513Y004273D03*
X024018Y004258D03*
X024018Y004253D03*
X024018Y004248D03*
X024018Y004243D03*
X024018Y004238D03*
X024018Y004233D03*
X024018Y004228D03*
X024018Y004223D03*
X024018Y004218D03*
X024018Y004213D03*
X024018Y004208D03*
X024018Y004203D03*
X024018Y004198D03*
X024018Y004193D03*
X024018Y004188D03*
X024018Y004183D03*
X024018Y004178D03*
X024018Y004173D03*
X024018Y004168D03*
X024018Y004163D03*
X024018Y004158D03*
X024018Y004153D03*
X024018Y004148D03*
X024018Y004143D03*
X024018Y004138D03*
X024018Y004133D03*
X024018Y004128D03*
X024018Y004123D03*
X024018Y004118D03*
X024018Y004113D03*
X024018Y004108D03*
X024018Y004103D03*
X024018Y004098D03*
X024018Y004093D03*
X024018Y004088D03*
X024018Y004083D03*
X024018Y004078D03*
X024018Y004073D03*
X024018Y004068D03*
X024018Y004063D03*
X024018Y004058D03*
X024018Y004053D03*
X024018Y004048D03*
X024018Y004043D03*
X024018Y004038D03*
X024018Y004033D03*
X024018Y004028D03*
X024018Y004023D03*
X024373Y004108D03*
X024373Y004113D03*
X024373Y004118D03*
X024378Y004093D03*
X024373Y004253D03*
X024373Y004258D03*
X024373Y004263D03*
X024973Y004088D03*
X025088Y004258D03*
X025088Y004263D03*
X025093Y004283D03*
X025448Y004278D03*
X026008Y004278D03*
X026008Y004093D03*
D162*
X024480Y004023D03*
D163*
X024836Y004023D03*
X024746Y004913D03*
D164*
X023811Y004198D03*
X025906Y004023D03*
D165*
X022806Y004380D03*
X021676Y004025D03*
D166*
X022028Y004025D03*
X022428Y004055D03*
X022053Y004350D03*
D167*
X022428Y004025D03*
X025863Y004180D03*
X025908Y004350D03*
D168*
X025846Y004165D03*
X025161Y004025D03*
X023731Y004025D03*
D169*
X024018Y004025D03*
X024018Y004030D03*
X024018Y004035D03*
X024018Y004040D03*
X024018Y004045D03*
X024018Y004050D03*
X024018Y004055D03*
X024018Y004060D03*
X024018Y004065D03*
X024018Y004070D03*
X024018Y004075D03*
X024018Y004080D03*
X024018Y004085D03*
X024018Y004090D03*
X024018Y004095D03*
X024018Y004100D03*
X024018Y004105D03*
X024018Y004110D03*
X024018Y004115D03*
X024018Y004120D03*
X024018Y004125D03*
X024018Y004130D03*
X024018Y004135D03*
X024018Y004140D03*
X024018Y004145D03*
X024018Y004150D03*
X024018Y004155D03*
X024018Y004160D03*
X024018Y004165D03*
X024018Y004170D03*
X024018Y004175D03*
X024018Y004180D03*
X024018Y004185D03*
X024018Y004190D03*
X024018Y004195D03*
X024018Y004200D03*
X024018Y004205D03*
X024018Y004210D03*
X024018Y004215D03*
X024018Y004220D03*
X024018Y004225D03*
X024018Y004230D03*
X024018Y004235D03*
X024018Y004240D03*
X024018Y004245D03*
X024018Y004250D03*
X024018Y004255D03*
X024018Y004260D03*
X024373Y004260D03*
X024373Y004265D03*
X024373Y004255D03*
X024378Y004280D03*
X024373Y004120D03*
X024373Y004115D03*
X024373Y004110D03*
X024378Y004090D03*
X024583Y004095D03*
X024973Y004085D03*
X025088Y004260D03*
X025088Y004265D03*
X025093Y004285D03*
X025448Y004280D03*
X026008Y004275D03*
X026013Y004260D03*
X026008Y004095D03*
X024238Y004935D03*
X023303Y004485D03*
X023513Y004275D03*
D170*
X024480Y004025D03*
X025230Y004190D03*
X025905Y004025D03*
D171*
X024837Y004025D03*
D172*
X022806Y004378D03*
X021676Y004378D03*
X021676Y004028D03*
D173*
X022030Y004028D03*
X022052Y004348D03*
X022875Y004858D03*
X023397Y004333D03*
X024495Y004338D03*
D174*
X023768Y004348D03*
X022473Y004228D03*
X022428Y004028D03*
X024693Y007138D03*
D175*
X024285Y004998D03*
X025227Y004188D03*
X025905Y004028D03*
X024480Y004028D03*
X022385Y004188D03*
D176*
X024836Y004028D03*
D177*
X025906Y004030D03*
X022806Y004375D03*
X021676Y004375D03*
X021676Y004030D03*
D178*
X022031Y004030D03*
D179*
X022428Y004030D03*
X023768Y004345D03*
X024753Y004870D03*
X024283Y004995D03*
X025868Y004185D03*
D180*
X023753Y004180D03*
X023728Y004030D03*
D181*
X024480Y004030D03*
X024287Y005000D03*
D182*
X024837Y004030D03*
X024687Y007095D03*
D183*
X023350Y004960D03*
X023767Y004365D03*
X023827Y004210D03*
X024122Y004365D03*
X025157Y004030D03*
X025907Y004365D03*
X022495Y004245D03*
D184*
X021676Y004373D03*
X021676Y004033D03*
D185*
X022031Y004033D03*
X022806Y004348D03*
X024691Y007118D03*
D186*
X023768Y004343D03*
X022428Y004033D03*
D187*
X024480Y004033D03*
X025550Y004338D03*
X024692Y007133D03*
D188*
X022891Y007083D03*
X024836Y004033D03*
D189*
X025195Y004343D03*
X025872Y004188D03*
X025907Y004343D03*
X025905Y004033D03*
X024752Y004873D03*
X024122Y004343D03*
X023802Y004188D03*
X023377Y004368D03*
X022805Y004373D03*
X022052Y004373D03*
X022872Y004843D03*
X023335Y004983D03*
D190*
X023331Y004985D03*
X024511Y004365D03*
X021676Y004035D03*
D191*
X022032Y004035D03*
X022052Y004345D03*
X021677Y004345D03*
X022430Y004345D03*
X022807Y004345D03*
X022875Y004860D03*
D192*
X022388Y004190D03*
X022428Y004035D03*
X024123Y004340D03*
X025223Y004185D03*
X025908Y004340D03*
D193*
X025877Y004190D03*
X025550Y004335D03*
X025195Y004335D03*
X024480Y004035D03*
X024692Y007130D03*
D194*
X024836Y004035D03*
D195*
X025196Y004340D03*
X025551Y004340D03*
X025906Y004035D03*
X022431Y004370D03*
D196*
X022428Y004063D03*
X022033Y004038D03*
X024748Y004893D03*
D197*
X024288Y005003D03*
X024123Y004338D03*
X022428Y004038D03*
X025908Y004338D03*
D198*
X025195Y004363D03*
X024272Y004978D03*
X023767Y004363D03*
X023825Y004208D03*
X023725Y004038D03*
D199*
X023795Y004183D03*
X023767Y004333D03*
X023385Y004358D03*
X022395Y004198D03*
X024480Y004038D03*
X025550Y004333D03*
X025880Y004193D03*
X024692Y007128D03*
X022887Y007118D03*
D200*
X024836Y004038D03*
D201*
X024301Y005025D03*
X022806Y004340D03*
X022036Y004040D03*
D202*
X022393Y004195D03*
X022428Y004040D03*
X023383Y004360D03*
X024123Y004335D03*
X025908Y004335D03*
D203*
X025247Y004205D03*
X023722Y004040D03*
X022805Y004390D03*
X022430Y004390D03*
X022052Y004390D03*
D204*
X024836Y004040D03*
D205*
X024480Y004043D03*
X023387Y004353D03*
X022430Y004363D03*
X021677Y004043D03*
X024750Y004883D03*
X025907Y004043D03*
D206*
X024747Y004898D03*
X022037Y004043D03*
X021677Y004068D03*
X024690Y007113D03*
D207*
X023766Y007503D03*
X025551Y004363D03*
X025906Y004363D03*
X023721Y004043D03*
D208*
X024837Y004043D03*
X022892Y007078D03*
D209*
X023348Y004963D03*
X022868Y004823D03*
X022493Y004243D03*
X025148Y004043D03*
X025848Y004168D03*
D210*
X022431Y004360D03*
X021676Y004045D03*
D211*
X022038Y004045D03*
D212*
X021957Y004090D03*
X021765Y004085D03*
X021587Y004320D03*
X022340Y004320D03*
X022340Y004085D03*
X023687Y004140D03*
X023690Y004045D03*
X023767Y004380D03*
X024057Y004325D03*
X024190Y004325D03*
X025257Y004325D03*
X025485Y004325D03*
X025550Y004380D03*
X025617Y004325D03*
X025840Y004325D03*
X025972Y004325D03*
X022882Y007165D03*
D213*
X022886Y004330D03*
X022351Y004330D03*
X022346Y004325D03*
X022346Y004080D03*
X022506Y004075D03*
X021961Y004085D03*
X024421Y004045D03*
X024541Y004045D03*
X024836Y004050D03*
X025126Y004150D03*
X025251Y004330D03*
X025491Y004330D03*
X025966Y004330D03*
X025991Y004235D03*
D214*
X024836Y004045D03*
D215*
X024123Y004375D03*
X024758Y004835D03*
X025608Y004330D03*
X025848Y004045D03*
X022508Y004330D03*
X021598Y004075D03*
D216*
X021676Y004048D03*
X022401Y004203D03*
X022431Y004358D03*
X023391Y004348D03*
D217*
X022053Y004338D03*
X022038Y004048D03*
D218*
X022428Y004048D03*
X022053Y004363D03*
X024503Y004353D03*
D219*
X024567Y004318D03*
X024547Y004048D03*
X024415Y004048D03*
X023705Y004328D03*
X023472Y004328D03*
X022522Y004268D03*
X022520Y004318D03*
X022140Y004323D03*
X021967Y004323D03*
X021762Y004323D03*
X021767Y004088D03*
X021587Y004088D03*
X022515Y004083D03*
X025995Y004238D03*
D220*
X025976Y004223D03*
X024836Y004048D03*
X022866Y004813D03*
X021971Y004073D03*
D221*
X021951Y004108D03*
X021776Y004103D03*
X021776Y004303D03*
X021951Y004298D03*
X022151Y004303D03*
X022331Y004303D03*
X022331Y004103D03*
X022151Y004103D03*
X022526Y004098D03*
X022706Y004298D03*
X024956Y004048D03*
X025831Y004053D03*
D222*
X025998Y004243D03*
X025263Y004323D03*
X025113Y004048D03*
X024193Y004323D03*
X023683Y004138D03*
X022523Y004093D03*
X022143Y004088D03*
X021953Y004103D03*
X021773Y004308D03*
X022143Y004318D03*
D223*
X022516Y004323D03*
X022721Y004323D03*
X022891Y004323D03*
X023411Y004378D03*
X024186Y004328D03*
X022866Y004803D03*
X022336Y004143D03*
X021591Y004083D03*
X025841Y004048D03*
X025906Y004378D03*
D224*
X022806Y004355D03*
X022431Y004355D03*
X021676Y004355D03*
X021676Y004050D03*
X024691Y007120D03*
D225*
X024690Y007110D03*
X022890Y007100D03*
X022040Y004050D03*
D226*
X022333Y004095D03*
X022903Y004305D03*
X022898Y004315D03*
X022713Y004315D03*
X022333Y004310D03*
X021958Y004310D03*
X021583Y004315D03*
X023858Y004235D03*
X024408Y004050D03*
X024553Y004050D03*
X025128Y004325D03*
X024698Y007175D03*
D227*
X023396Y004338D03*
X022431Y004353D03*
X021676Y004353D03*
X021676Y004053D03*
D228*
X022040Y004053D03*
X022417Y004218D03*
D229*
X022428Y004053D03*
X022053Y004353D03*
X023393Y004343D03*
D230*
X022908Y004298D03*
X022708Y004303D03*
X022528Y004298D03*
X022528Y004293D03*
X022528Y004278D03*
X022528Y004103D03*
X022328Y004108D03*
X022328Y004298D03*
X022148Y004308D03*
X021578Y004308D03*
X021578Y004103D03*
X022863Y004798D03*
X024403Y004053D03*
X024573Y004308D03*
X024698Y007178D03*
D231*
X022863Y004793D03*
X022053Y004408D03*
X022323Y004268D03*
X022323Y004263D03*
X022323Y004238D03*
X022323Y004233D03*
X022533Y004128D03*
X023313Y004298D03*
X023498Y004308D03*
X023683Y004313D03*
X023688Y004318D03*
X024393Y004308D03*
X024963Y004053D03*
X025103Y004133D03*
X025463Y004308D03*
X025633Y004313D03*
X025823Y004313D03*
X025823Y004063D03*
X025983Y004053D03*
X025193Y004383D03*
D232*
X024495Y004335D03*
X022430Y004350D03*
X021677Y004350D03*
X021677Y004055D03*
D233*
X022041Y004055D03*
D234*
X022146Y004090D03*
X021956Y004305D03*
X021961Y004315D03*
X022146Y004315D03*
X022526Y004305D03*
X022526Y004270D03*
X022901Y004310D03*
X023411Y004380D03*
X024836Y004055D03*
X021676Y004405D03*
D235*
X021677Y004348D03*
X021677Y004058D03*
X022430Y004348D03*
X024300Y005023D03*
D236*
X022042Y004058D03*
X022890Y007098D03*
X024690Y007108D03*
D237*
X024493Y004333D03*
X022428Y004058D03*
X022408Y004208D03*
D238*
X022322Y004243D03*
X022322Y004248D03*
X022322Y004253D03*
X022322Y004258D03*
X022535Y004143D03*
X022535Y004138D03*
X022535Y004133D03*
X023410Y004383D03*
X023680Y004308D03*
X023852Y004308D03*
X024037Y004308D03*
X024122Y004383D03*
X024215Y004303D03*
X024390Y004068D03*
X024580Y004293D03*
X025107Y004308D03*
X025460Y004303D03*
X025637Y004308D03*
X026000Y004303D03*
X025992Y004063D03*
X025987Y004058D03*
X025100Y004058D03*
X025097Y004063D03*
X023672Y004058D03*
X023670Y004123D03*
X023672Y004128D03*
X022880Y007173D03*
D239*
X023672Y004298D03*
X023667Y004118D03*
X023870Y004178D03*
X023860Y004298D03*
X024030Y004298D03*
X024220Y004293D03*
X024385Y004293D03*
X024387Y004298D03*
X024582Y004288D03*
X024575Y004078D03*
X024572Y004073D03*
X024705Y004058D03*
X024837Y004073D03*
X024837Y004078D03*
X024970Y004063D03*
X025090Y004113D03*
X025092Y004118D03*
X025105Y004303D03*
X025287Y004298D03*
X025290Y004293D03*
X025455Y004298D03*
X025645Y004298D03*
X025812Y004298D03*
X025817Y004303D03*
X025805Y004198D03*
X025805Y004123D03*
X025807Y004083D03*
X026010Y004253D03*
X026005Y004293D03*
X026002Y004298D03*
X024387Y004073D03*
X024385Y004078D03*
D240*
X022428Y004065D03*
X021678Y004060D03*
D241*
X022042Y004060D03*
D242*
X022428Y004060D03*
X024298Y005020D03*
X024748Y004890D03*
X022888Y007105D03*
D243*
X022890Y007103D03*
X022875Y004863D03*
X022807Y004343D03*
X022430Y004343D03*
X022412Y004213D03*
X022052Y004343D03*
X021677Y004343D03*
X021677Y004063D03*
D244*
X022043Y004063D03*
D245*
X021677Y004065D03*
X021677Y004340D03*
X022430Y004340D03*
X024690Y007115D03*
D246*
X022890Y007095D03*
X022045Y004065D03*
D247*
X022863Y004790D03*
X023673Y004300D03*
X023668Y004120D03*
X023668Y004065D03*
X023858Y004300D03*
X024388Y004070D03*
X025638Y004305D03*
X025818Y004305D03*
X025813Y004075D03*
X025993Y004065D03*
D248*
X022428Y004068D03*
D249*
X023506Y004293D03*
X023671Y004293D03*
X023666Y004113D03*
X023666Y004073D03*
X023871Y004173D03*
X023871Y004253D03*
X023866Y004288D03*
X024021Y004283D03*
X024021Y004278D03*
X024026Y004293D03*
X024221Y004288D03*
X024836Y004088D03*
X024836Y004083D03*
X024971Y004073D03*
X024971Y004068D03*
X025091Y004073D03*
X025101Y004298D03*
X025651Y004288D03*
X025806Y004288D03*
X026006Y004288D03*
X026006Y004088D03*
X026001Y004073D03*
X025806Y004088D03*
D250*
X025830Y004150D03*
X024260Y004960D03*
X022877Y004335D03*
X022512Y004260D03*
X022500Y004335D03*
X022360Y004335D03*
X022125Y004070D03*
X021607Y004070D03*
X021605Y004335D03*
X023845Y004225D03*
X022882Y007155D03*
D251*
X024697Y007160D03*
X024757Y004845D03*
X024550Y004330D03*
X025837Y004155D03*
X021975Y004070D03*
D252*
X021963Y004083D03*
X022353Y004073D03*
X022353Y004333D03*
D253*
X022132Y004330D03*
X021755Y004330D03*
X021597Y004330D03*
X021755Y004075D03*
X022132Y004075D03*
X022727Y004330D03*
X023700Y004150D03*
X023850Y004230D03*
X023825Y004330D03*
X024480Y004375D03*
X025195Y004375D03*
X023367Y004940D03*
X022882Y007160D03*
D254*
X022123Y004335D03*
X021968Y004075D03*
X025983Y004230D03*
D255*
X024125Y004373D03*
X023767Y004373D03*
X022345Y004153D03*
X021967Y004078D03*
D256*
X021958Y004088D03*
X022138Y004083D03*
X022508Y004078D03*
X022343Y004323D03*
X021588Y004323D03*
X023368Y004938D03*
X024253Y004953D03*
X024418Y004328D03*
X023853Y004233D03*
X025118Y004143D03*
X025843Y004328D03*
D257*
X024183Y004330D03*
X023708Y004330D03*
X023468Y004330D03*
X022513Y004325D03*
X021973Y004330D03*
X021758Y004080D03*
X021593Y004080D03*
X024698Y007170D03*
D258*
X021981Y004335D03*
X021966Y004080D03*
D259*
X021955Y004100D03*
X021772Y004095D03*
X021582Y004095D03*
X021772Y004310D03*
X021770Y004315D03*
X022142Y004320D03*
X022337Y004315D03*
X022522Y004090D03*
X022142Y004085D03*
X023322Y004315D03*
X024122Y004380D03*
X024415Y004325D03*
X024480Y004380D03*
X024570Y004315D03*
X025195Y004380D03*
X025905Y004380D03*
X025997Y004240D03*
X024250Y004950D03*
X023372Y004935D03*
X022865Y004800D03*
D260*
X022893Y004320D03*
X022718Y004320D03*
X022523Y004310D03*
X022518Y004085D03*
X022333Y004140D03*
X021768Y004090D03*
D261*
X021586Y004090D03*
X021766Y004320D03*
X021966Y004320D03*
X022521Y004315D03*
X022336Y004090D03*
X021956Y004095D03*
X023476Y004325D03*
X023701Y004325D03*
X024761Y004830D03*
X025116Y004140D03*
D262*
X025481Y004323D03*
X025836Y004323D03*
X025816Y004138D03*
X024571Y004313D03*
X024761Y004828D03*
X022901Y004313D03*
X022896Y004318D03*
X022331Y004138D03*
X021961Y004313D03*
X021581Y004098D03*
X022881Y007168D03*
D263*
X024706Y007200D03*
X026031Y004145D03*
D264*
X025980Y004228D03*
X025832Y004153D03*
X023715Y004158D03*
D265*
X025142Y004158D03*
X024757Y004843D03*
X024697Y007163D03*
X022882Y007153D03*
D266*
X025148Y004163D03*
D267*
X025973Y004220D03*
X023723Y004165D03*
X023358Y004950D03*
D268*
X024272Y004980D03*
X023767Y004360D03*
X023822Y004205D03*
X025195Y004360D03*
X025852Y004170D03*
D269*
X022368Y004173D03*
X022883Y007138D03*
D270*
X024755Y004863D03*
X025857Y004173D03*
D271*
X025955Y004210D03*
X025252Y004210D03*
X025180Y004180D03*
X025175Y004175D03*
X025195Y004365D03*
X022430Y004395D03*
X021677Y004395D03*
X022882Y007145D03*
D272*
X022885Y007133D03*
X024695Y007143D03*
X025195Y004353D03*
X025907Y004353D03*
X023767Y004353D03*
X022375Y004178D03*
D273*
X022431Y004378D03*
X022871Y004838D03*
X025196Y004348D03*
X025231Y004193D03*
X025866Y004183D03*
X022886Y007128D03*
D274*
X022885Y007130D03*
X024282Y004990D03*
X025550Y004350D03*
X025232Y004195D03*
X022477Y004230D03*
X022380Y004185D03*
X022430Y004380D03*
X021677Y004380D03*
D275*
X023768Y004335D03*
X023798Y004185D03*
D276*
X023805Y004190D03*
X023375Y004370D03*
X022872Y004840D03*
X023335Y004980D03*
X022052Y004375D03*
X025195Y004345D03*
X025550Y004345D03*
X025907Y004345D03*
X024692Y007135D03*
D277*
X024751Y004878D03*
X025196Y004338D03*
X022391Y004193D03*
D278*
X023807Y004193D03*
X023337Y004978D03*
X024282Y004993D03*
X025550Y004348D03*
X025907Y004348D03*
D279*
X024123Y004350D03*
X023808Y004195D03*
X023338Y004975D03*
X022053Y004380D03*
D280*
X023340Y004970D03*
X024277Y004985D03*
X023815Y004200D03*
D281*
X024123Y004355D03*
X025238Y004200D03*
D282*
X025195Y004358D03*
X024755Y004858D03*
X024275Y004983D03*
X023767Y004358D03*
X023820Y004203D03*
X024695Y007148D03*
D283*
X023395Y004340D03*
X022405Y004205D03*
D284*
X022411Y004210D03*
D285*
X025253Y004213D03*
D286*
X022875Y004865D03*
X022052Y004340D03*
X022415Y004215D03*
D287*
X022425Y004223D03*
X022890Y007093D03*
D288*
X024758Y004838D03*
X025193Y004373D03*
X025268Y004223D03*
X022513Y004263D03*
D289*
X023767Y004375D03*
X025270Y004225D03*
X025550Y004375D03*
D290*
X023643Y004228D03*
X023393Y004908D03*
D291*
X022431Y004383D03*
X022481Y004233D03*
D292*
X024215Y004235D03*
X024992Y004380D03*
D293*
X024982Y004368D03*
X024845Y004368D03*
X024705Y004368D03*
X023652Y004238D03*
X023387Y004918D03*
X022050Y004413D03*
D294*
X024988Y004373D03*
X025643Y004238D03*
D295*
X024701Y004365D03*
X024226Y004250D03*
X023656Y004240D03*
D296*
X024221Y004240D03*
X024986Y004370D03*
D297*
X025646Y004240D03*
X024596Y004510D03*
X024701Y007195D03*
D298*
X022501Y004250D03*
D299*
X024553Y004328D03*
D300*
X025196Y004333D03*
X022806Y004368D03*
D301*
X022806Y004350D03*
X023396Y004335D03*
X024496Y004340D03*
D302*
X022431Y004338D03*
X021676Y004338D03*
D303*
X022806Y004338D03*
D304*
X023768Y004338D03*
X024513Y004368D03*
D305*
X024123Y004345D03*
X023768Y004340D03*
D306*
X022431Y004373D03*
X025551Y004343D03*
X022886Y007123D03*
D307*
X024295Y005015D03*
X023392Y004345D03*
D308*
X022873Y004855D03*
X022053Y004355D03*
X024498Y004345D03*
X022888Y007110D03*
D309*
X022053Y004378D03*
X024123Y004348D03*
D310*
X024500Y004348D03*
X022805Y004358D03*
X021675Y004358D03*
D311*
X023388Y004350D03*
X024293Y005010D03*
X022888Y007115D03*
D312*
X024751Y004885D03*
X024501Y004350D03*
X022806Y004360D03*
D313*
X025196Y004350D03*
D314*
X023386Y004355D03*
X022806Y004365D03*
X022051Y004365D03*
D315*
X025551Y004355D03*
D316*
X022873Y004853D03*
X022053Y004358D03*
X022888Y007113D03*
D317*
X023343Y004968D03*
X024123Y004358D03*
D318*
X024506Y004358D03*
D319*
X025551Y004358D03*
X025906Y004358D03*
D320*
X021675Y004360D03*
D321*
X024123Y004360D03*
D322*
X025551Y004360D03*
X025906Y004360D03*
D323*
X024123Y004363D03*
D324*
X024508Y004363D03*
X023328Y004988D03*
D325*
X024123Y004368D03*
X022428Y004398D03*
X022883Y007148D03*
D326*
X022866Y004808D03*
X023411Y004373D03*
X025906Y004373D03*
D327*
X022431Y004375D03*
X022886Y007125D03*
D328*
X022863Y004778D03*
X024713Y004378D03*
D329*
X024713Y004380D03*
D330*
X024121Y004385D03*
D331*
X023313Y004510D03*
X022878Y007185D03*
D332*
X024231Y004928D03*
X024761Y004808D03*
D333*
X022868Y004825D03*
D334*
X022873Y004850D03*
D335*
X024753Y004865D03*
D336*
X024753Y004868D03*
X023338Y004973D03*
D337*
X022876Y004870D03*
D338*
X022877Y004873D03*
D339*
X022877Y004875D03*
D340*
X022878Y004878D03*
D341*
X022878Y004880D03*
D342*
X024291Y005005D03*
X024751Y004880D03*
D343*
X022877Y004883D03*
D344*
X022880Y004885D03*
X022892Y007080D03*
X024687Y007090D03*
D345*
X024686Y007088D03*
X022881Y004888D03*
D346*
X022881Y004890D03*
D347*
X022881Y004893D03*
D348*
X022881Y004895D03*
D349*
X024748Y004895D03*
D350*
X024742Y004933D03*
X022882Y004898D03*
X022895Y007068D03*
D351*
X022895Y007065D03*
X022882Y004900D03*
D352*
X024748Y004900D03*
X023783Y007500D03*
D353*
X022883Y004903D03*
D354*
X024747Y004903D03*
D355*
X024740Y004940D03*
X022885Y004905D03*
D356*
X022885Y004908D03*
X024740Y004943D03*
D357*
X022885Y004910D03*
D358*
X022886Y004913D03*
X022896Y007053D03*
D359*
X022897Y007050D03*
X022887Y004915D03*
X024737Y004950D03*
D360*
X024746Y004915D03*
X022891Y007085D03*
D361*
X024680Y007058D03*
X022887Y004918D03*
D362*
X024745Y004918D03*
X024687Y007093D03*
D363*
X022888Y004920D03*
D364*
X024231Y004920D03*
D365*
X024745Y004920D03*
D366*
X022888Y004923D03*
X024678Y007053D03*
D367*
X024745Y004923D03*
D368*
X022890Y004925D03*
D369*
X024743Y004925D03*
D370*
X022890Y004928D03*
X023797Y007473D03*
D371*
X024743Y004928D03*
D372*
X022891Y004930D03*
X023796Y007450D03*
X023796Y007455D03*
X023796Y007460D03*
X023796Y007465D03*
D373*
X024742Y004930D03*
D374*
X022891Y004933D03*
X023796Y007438D03*
X023796Y007443D03*
D375*
X024675Y007040D03*
X022892Y004935D03*
D376*
X024741Y004935D03*
D377*
X022893Y004938D03*
X024673Y007038D03*
D378*
X024682Y007073D03*
X024740Y004938D03*
D379*
X024730Y004980D03*
X022895Y004940D03*
X022905Y007020D03*
X023795Y007390D03*
D380*
X023795Y007373D03*
X023795Y007368D03*
X023795Y007363D03*
X024730Y004983D03*
X022895Y004943D03*
D381*
X022896Y004945D03*
X023796Y007350D03*
X023796Y007355D03*
X023796Y007360D03*
D382*
X024738Y004945D03*
D383*
X022896Y004948D03*
X023796Y007338D03*
D384*
X024738Y004948D03*
D385*
X022896Y004950D03*
X022906Y007015D03*
D386*
X023795Y007313D03*
X022897Y004953D03*
D387*
X024737Y004953D03*
D388*
X024727Y004995D03*
X022897Y004955D03*
X022907Y007005D03*
X023795Y007275D03*
X023795Y007280D03*
X023795Y007285D03*
X023795Y007290D03*
X024670Y007020D03*
D389*
X024736Y004955D03*
D390*
X022898Y004958D03*
D391*
X024736Y004958D03*
D392*
X022898Y004960D03*
X023793Y007250D03*
D393*
X024736Y004960D03*
D394*
X022900Y004963D03*
X023792Y007228D03*
X023792Y007233D03*
D395*
X023797Y007478D03*
X024735Y004963D03*
D396*
X022900Y004965D03*
X023792Y007215D03*
X023792Y007220D03*
D397*
X023797Y007475D03*
X024677Y007050D03*
X024735Y004965D03*
D398*
X024721Y005008D03*
X022901Y004968D03*
X024666Y007008D03*
D399*
X024733Y004968D03*
D400*
X022902Y004970D03*
X022912Y006990D03*
X023795Y007175D03*
X023795Y007180D03*
X024665Y007005D03*
D401*
X024732Y004970D03*
D402*
X022903Y004973D03*
X024663Y007003D03*
X023793Y007148D03*
X023793Y007153D03*
X023793Y007158D03*
D403*
X023797Y007423D03*
X024732Y004973D03*
D404*
X022903Y004975D03*
X022913Y006985D03*
D405*
X023796Y007405D03*
X023796Y007410D03*
X024731Y004975D03*
D406*
X022903Y004978D03*
D407*
X024731Y004978D03*
X023796Y007393D03*
X023796Y007398D03*
D408*
X022905Y004980D03*
D409*
X022905Y004983D03*
X023792Y007103D03*
D410*
X022906Y004985D03*
D411*
X024728Y004985D03*
D412*
X022907Y004988D03*
X022915Y006973D03*
D413*
X023795Y007323D03*
X024727Y004988D03*
D414*
X022907Y004990D03*
X023795Y007085D03*
D415*
X024726Y004990D03*
D416*
X022907Y004993D03*
D417*
X024726Y004993D03*
D418*
X022907Y004995D03*
D419*
X023028Y004998D03*
X023093Y005173D03*
X024483Y005283D03*
X024493Y005268D03*
X024583Y005028D03*
X024488Y006298D03*
D420*
X024726Y004998D03*
D421*
X024495Y005265D03*
X024492Y005270D03*
X024412Y005480D03*
X024485Y005675D03*
X024480Y006305D03*
X023112Y006305D03*
X023102Y005680D03*
X023085Y005160D03*
X023082Y005155D03*
X023080Y005150D03*
X023027Y005000D03*
D422*
X024725Y005000D03*
X023795Y007245D03*
D423*
X024475Y006313D03*
X024497Y006293D03*
X024565Y005768D03*
X024500Y005253D03*
X024585Y005033D03*
X023190Y005458D03*
X023107Y005673D03*
X023077Y005143D03*
X023027Y005003D03*
D424*
X024723Y005003D03*
D425*
X024586Y005035D03*
X024501Y005250D03*
X023026Y005005D03*
X024471Y006315D03*
D426*
X024721Y005005D03*
D427*
X024507Y005238D03*
X024505Y005243D03*
X023112Y005668D03*
X023120Y006318D03*
X024470Y006318D03*
X023025Y005008D03*
D428*
X023025Y005010D03*
X023065Y005120D03*
X023187Y005475D03*
X023115Y005665D03*
X024472Y005660D03*
X024587Y005040D03*
D429*
X024721Y005010D03*
D430*
X024587Y005043D03*
X024522Y005213D03*
X024520Y005218D03*
X024517Y005223D03*
X024412Y005493D03*
X023187Y005473D03*
X023067Y005123D03*
X023025Y005013D03*
X023122Y006323D03*
D431*
X024692Y007123D03*
X024295Y005013D03*
D432*
X024721Y005013D03*
D433*
X024525Y005205D03*
X024412Y005495D03*
X024470Y005655D03*
X023187Y005480D03*
X023057Y005110D03*
X023055Y005105D03*
X023052Y005100D03*
X023025Y005015D03*
X023125Y006325D03*
D434*
X024721Y005015D03*
D435*
X024587Y005048D03*
X024527Y005203D03*
X024412Y005498D03*
X024467Y005653D03*
X023187Y005483D03*
X023060Y005113D03*
X023055Y005103D03*
X023025Y005018D03*
X023127Y006328D03*
X024462Y006328D03*
D436*
X023792Y007133D03*
X024720Y005018D03*
D437*
X024537Y005185D03*
X024412Y005500D03*
X024412Y005505D03*
X024465Y005650D03*
X023187Y005485D03*
X023040Y005735D03*
X023050Y005095D03*
X023047Y005090D03*
X023025Y005020D03*
D438*
X024718Y005020D03*
D439*
X024540Y005183D03*
X024532Y005193D03*
X024530Y005198D03*
X024412Y005503D03*
X023187Y005488D03*
X023025Y005023D03*
X023130Y006333D03*
D440*
X023791Y007098D03*
X024716Y005023D03*
D441*
X024541Y005180D03*
X023126Y005650D03*
X023026Y005025D03*
X024456Y006335D03*
D442*
X024662Y006990D03*
X022915Y006975D03*
X024715Y005025D03*
D443*
X024545Y005173D03*
X024412Y005508D03*
X024412Y005513D03*
X023127Y005648D03*
X023045Y005083D03*
X023042Y005078D03*
X023025Y005028D03*
X024452Y006338D03*
D444*
X024462Y005645D03*
X024412Y005515D03*
X024412Y005510D03*
X024545Y005170D03*
X024547Y005165D03*
X023187Y005490D03*
X023045Y005085D03*
X023042Y005080D03*
X023025Y005030D03*
D445*
X024498Y005255D03*
X024583Y005030D03*
X024493Y006295D03*
X023793Y007040D03*
D446*
X024461Y005643D03*
X024546Y005168D03*
X024591Y005058D03*
X023026Y005038D03*
X023026Y005033D03*
D447*
X023026Y005035D03*
X023041Y005075D03*
X024591Y005055D03*
D448*
X024586Y005038D03*
X024516Y005228D03*
X024511Y005233D03*
X023071Y005133D03*
D449*
X023037Y005070D03*
X023030Y005055D03*
X023027Y005050D03*
X023027Y005045D03*
X023027Y005040D03*
X023187Y005495D03*
X023132Y005640D03*
X024412Y005520D03*
X024552Y005155D03*
X024450Y006340D03*
D450*
X024447Y006343D03*
X023137Y006338D03*
X023130Y005643D03*
X023187Y005493D03*
X023035Y005068D03*
X023032Y005063D03*
X023030Y005058D03*
X023030Y005053D03*
X023027Y005048D03*
X023027Y005043D03*
X024412Y005523D03*
X024550Y005158D03*
D451*
X024523Y005210D03*
X024588Y005045D03*
X023118Y005660D03*
X024463Y006325D03*
D452*
X023128Y006330D03*
X024528Y005200D03*
X024533Y005190D03*
X024588Y005050D03*
D453*
X024591Y005053D03*
X024541Y005178D03*
X023046Y005088D03*
D454*
X023031Y005060D03*
X024556Y005150D03*
X024561Y005140D03*
X024591Y005060D03*
X024446Y006345D03*
X023141Y006340D03*
D455*
X023142Y006343D03*
X023030Y006238D03*
X023187Y005498D03*
X024412Y005528D03*
X024557Y005148D03*
X024590Y005063D03*
D456*
X024558Y005145D03*
X024413Y005525D03*
X023033Y005065D03*
X023793Y007035D03*
D457*
X023145Y006345D03*
X023187Y005500D03*
X024565Y005135D03*
X024590Y005065D03*
D458*
X024590Y005068D03*
X024590Y005073D03*
X024572Y005118D03*
X024570Y005123D03*
X023187Y005508D03*
X023027Y005738D03*
D459*
X023137Y005635D03*
X023187Y005505D03*
X024570Y005125D03*
X024590Y005070D03*
X024525Y006285D03*
X023150Y006350D03*
D460*
X024413Y005518D03*
X024548Y005163D03*
X023038Y005073D03*
D461*
X024573Y005115D03*
X024588Y005080D03*
X024588Y005075D03*
D462*
X024588Y005078D03*
X024588Y005083D03*
X024413Y005533D03*
X024588Y005773D03*
D463*
X024447Y005630D03*
X024412Y005535D03*
X024580Y005105D03*
X024582Y005100D03*
X024585Y005095D03*
X024587Y005090D03*
X024587Y005085D03*
X023187Y005515D03*
D464*
X023140Y005633D03*
X024450Y005633D03*
X024575Y005113D03*
X024577Y005108D03*
X024582Y005103D03*
X024585Y005098D03*
X024587Y005088D03*
X024437Y006353D03*
X023152Y006353D03*
D465*
X024463Y005648D03*
X023048Y005093D03*
D466*
X023186Y005513D03*
X024586Y005093D03*
D467*
X024536Y005188D03*
X023051Y005098D03*
X024511Y006288D03*
D468*
X024466Y006323D03*
X023046Y006243D03*
X023116Y005663D03*
X023056Y005108D03*
X024471Y005658D03*
D469*
X024571Y005120D03*
X024576Y005110D03*
X023186Y005510D03*
D470*
X023061Y005115D03*
X024521Y005215D03*
D471*
X024523Y005208D03*
X023188Y005478D03*
X023118Y005658D03*
X023063Y005118D03*
X023793Y007038D03*
D472*
X024468Y006320D03*
X024503Y006290D03*
X023188Y005470D03*
X023188Y005465D03*
X023068Y005125D03*
X024513Y005230D03*
X024518Y005220D03*
D473*
X024473Y005663D03*
X023188Y005468D03*
X023068Y005128D03*
D474*
X024568Y005128D03*
D475*
X024510Y005235D03*
X024507Y005240D03*
X024505Y005245D03*
X024412Y005490D03*
X023110Y005670D03*
X023072Y005135D03*
X023070Y005130D03*
X023052Y006245D03*
D476*
X024453Y005635D03*
X024413Y005530D03*
X024568Y005130D03*
D477*
X024566Y005133D03*
X023186Y005503D03*
X023146Y006348D03*
D478*
X024478Y005668D03*
X024503Y005248D03*
X023188Y005463D03*
X023073Y005138D03*
D479*
X023133Y005638D03*
X024553Y005153D03*
X024563Y005138D03*
X024443Y006348D03*
D480*
X023118Y006315D03*
X023188Y005460D03*
X023073Y005140D03*
D481*
X024456Y005638D03*
X024561Y005143D03*
D482*
X024412Y005485D03*
X023190Y005455D03*
X023105Y005675D03*
X023077Y005145D03*
X023115Y006310D03*
D483*
X023113Y006308D03*
X023103Y005678D03*
X023083Y005158D03*
X023078Y005148D03*
X024483Y005673D03*
D484*
X024411Y005483D03*
X023081Y005153D03*
D485*
X023128Y005645D03*
X024458Y005640D03*
X024548Y005160D03*
D486*
X024497Y005258D03*
X024495Y005263D03*
X024412Y005478D03*
X024487Y005678D03*
X024482Y006303D03*
X024477Y006308D03*
X023057Y006248D03*
X023100Y005683D03*
X023190Y005453D03*
X023087Y005163D03*
D487*
X023088Y005165D03*
X023098Y005685D03*
X023058Y005730D03*
X024488Y005680D03*
X024488Y005275D03*
D488*
X024486Y005278D03*
X024491Y005273D03*
X024481Y005288D03*
X024411Y005473D03*
X024491Y005683D03*
X023091Y005168D03*
X023111Y006303D03*
D489*
X023107Y006300D03*
X024492Y005685D03*
X024412Y005470D03*
X024477Y005295D03*
X024480Y005290D03*
X024482Y005285D03*
X023095Y005175D03*
X023092Y005170D03*
D490*
X024543Y005175D03*
X024578Y005770D03*
X023133Y006335D03*
X023038Y006240D03*
D491*
X023097Y005688D03*
X023097Y005183D03*
X023095Y005178D03*
X024480Y005293D03*
D492*
X024476Y005300D03*
X024411Y005465D03*
X023191Y005445D03*
X023096Y005180D03*
X023096Y005690D03*
D493*
X023098Y005185D03*
D494*
X023101Y005188D03*
X023091Y005698D03*
X024466Y005318D03*
X024471Y005308D03*
D495*
X024470Y005310D03*
X024472Y005305D03*
X024467Y005315D03*
X024465Y005320D03*
X024410Y005460D03*
X024500Y005695D03*
X024555Y005765D03*
X023190Y005435D03*
X023105Y005195D03*
X023102Y005190D03*
X023090Y005700D03*
X023067Y005725D03*
X023097Y006285D03*
X023795Y007045D03*
D496*
X023100Y006288D03*
X023190Y005438D03*
X023107Y005203D03*
X023105Y005198D03*
X023102Y005193D03*
X024462Y005323D03*
D497*
X024531Y005195D03*
X023121Y005655D03*
X024461Y006330D03*
D498*
X024461Y005325D03*
X023106Y005200D03*
D499*
X023108Y005205D03*
X023113Y005210D03*
X024408Y005455D03*
X024458Y005330D03*
D500*
X024456Y005333D03*
X024501Y005698D03*
X023111Y005208D03*
D501*
X023115Y005213D03*
X023117Y005218D03*
X023120Y005223D03*
X023190Y005433D03*
X023072Y005723D03*
X023095Y006283D03*
X024502Y005703D03*
X024452Y005343D03*
X024455Y005338D03*
D502*
X024455Y005335D03*
X024502Y005700D03*
X023190Y005430D03*
X023117Y005215D03*
X023087Y005705D03*
X023085Y005710D03*
X023092Y006280D03*
D503*
X024503Y005705D03*
X024453Y005340D03*
X023118Y005220D03*
D504*
X023121Y005225D03*
X023076Y005720D03*
X023091Y006275D03*
X024506Y005710D03*
X024451Y005345D03*
D505*
X024516Y005225D03*
X024476Y005665D03*
X023121Y006320D03*
D506*
X023091Y006278D03*
X023086Y005708D03*
X023191Y005428D03*
X023121Y005228D03*
X024451Y005348D03*
X024506Y005708D03*
D507*
X024410Y005450D03*
X024450Y005350D03*
X023192Y005425D03*
X023122Y005230D03*
X023082Y005715D03*
X023087Y006270D03*
D508*
X023087Y006268D03*
X023080Y005718D03*
X023125Y005233D03*
X024507Y005713D03*
X023795Y007048D03*
D509*
X023086Y006265D03*
X024436Y005370D03*
X024446Y005355D03*
X023126Y005235D03*
D510*
X023127Y005238D03*
X023192Y005423D03*
X024410Y005443D03*
X024435Y005373D03*
X024510Y005718D03*
D511*
X024433Y005375D03*
X023133Y005250D03*
X023128Y005240D03*
X023078Y006255D03*
D512*
X023081Y006258D03*
X024431Y005378D03*
X023131Y005243D03*
D513*
X023131Y005245D03*
X024431Y005380D03*
X024511Y005720D03*
D514*
X024512Y005723D03*
X024515Y005728D03*
X024410Y005438D03*
X024430Y005383D03*
X023135Y005253D03*
X023132Y005248D03*
D515*
X023137Y005255D03*
X023195Y005415D03*
X024410Y005440D03*
X024427Y005390D03*
X024430Y005385D03*
X024515Y005725D03*
X024542Y005760D03*
D516*
X024423Y005398D03*
X024428Y005388D03*
X023193Y005413D03*
X023138Y005258D03*
D517*
X023141Y005260D03*
X024516Y005730D03*
X023796Y007050D03*
D518*
X024476Y006310D03*
X024481Y005670D03*
X024496Y005260D03*
D519*
X024420Y005403D03*
X024412Y005418D03*
X024410Y005433D03*
X024517Y005733D03*
X023195Y005408D03*
X023147Y005273D03*
X023145Y005268D03*
X023142Y005263D03*
D520*
X023143Y005265D03*
X024408Y005435D03*
D521*
X024410Y005430D03*
X024410Y005425D03*
X024415Y005410D03*
X024425Y005395D03*
X023195Y005405D03*
X023195Y005410D03*
X023145Y005270D03*
D522*
X023148Y005275D03*
X024413Y005415D03*
X024418Y005405D03*
X024518Y005735D03*
D523*
X024538Y005758D03*
X024408Y005428D03*
X024413Y005413D03*
X023148Y005278D03*
D524*
X023150Y005280D03*
X023195Y005400D03*
X024522Y005740D03*
X024525Y005745D03*
X024530Y005750D03*
X024535Y005755D03*
D525*
X024411Y005475D03*
X024486Y005280D03*
X023191Y005450D03*
X024486Y006300D03*
D526*
X023151Y005283D03*
D527*
X023153Y005285D03*
D528*
X023155Y005288D03*
X023157Y005293D03*
X023195Y005398D03*
D529*
X023157Y005295D03*
X023155Y005290D03*
D530*
X023158Y005298D03*
X023163Y005303D03*
D531*
X023191Y005448D03*
X024411Y005468D03*
X024476Y005298D03*
X023106Y006298D03*
D532*
X023161Y005300D03*
D533*
X024468Y005313D03*
X024473Y005303D03*
X024498Y005693D03*
D534*
X023195Y005395D03*
X023170Y005315D03*
X023167Y005310D03*
X023165Y005305D03*
D535*
X023167Y005308D03*
D536*
X023168Y005313D03*
D537*
X023171Y005318D03*
X023196Y005393D03*
D538*
X023172Y005320D03*
D539*
X023175Y005323D03*
X023795Y007053D03*
D540*
X023196Y005390D03*
X023176Y005325D03*
D541*
X023177Y005328D03*
D542*
X023088Y005703D03*
X024408Y005458D03*
X024458Y005328D03*
D543*
X023197Y005385D03*
X023180Y005335D03*
X023177Y005330D03*
D544*
X023178Y005333D03*
X023183Y005343D03*
D545*
X023181Y005338D03*
X023196Y005383D03*
D546*
X023197Y005375D03*
X023185Y005345D03*
X023182Y005340D03*
D547*
X023187Y005348D03*
X023197Y005378D03*
D548*
X023193Y005360D03*
X023188Y005350D03*
D549*
X023191Y005353D03*
X023196Y005368D03*
X023196Y005373D03*
D550*
X024441Y005363D03*
X024446Y005353D03*
X023076Y006253D03*
D551*
X023192Y005355D03*
D552*
X023193Y005358D03*
D553*
X024408Y005448D03*
X024438Y005368D03*
X024443Y005358D03*
X024548Y005763D03*
X023083Y006263D03*
D554*
X023082Y006260D03*
X023192Y005420D03*
X024410Y005445D03*
X024440Y005365D03*
X024442Y005360D03*
D555*
X023195Y005363D03*
D556*
X023196Y005365D03*
X023196Y005370D03*
D557*
X023196Y005380D03*
D558*
X023196Y005388D03*
D559*
X024426Y005393D03*
D560*
X024421Y005400D03*
X024411Y005420D03*
D561*
X024527Y005748D03*
X024532Y005753D03*
X023195Y005403D03*
D562*
X024411Y005423D03*
X024416Y005408D03*
X024521Y005738D03*
D563*
X023193Y005418D03*
D564*
X023191Y005440D03*
X023066Y006250D03*
X023101Y006290D03*
D565*
X023102Y006293D03*
X023065Y005728D03*
X023095Y005693D03*
X023190Y005443D03*
X024410Y005463D03*
X024495Y005688D03*
D566*
X024408Y005453D03*
X023083Y005713D03*
X023088Y006273D03*
D567*
X023116Y006313D03*
X023051Y005733D03*
X024411Y005488D03*
D568*
X023186Y005518D03*
D569*
X023186Y005520D03*
D570*
X023185Y005523D03*
X024445Y005628D03*
D571*
X024412Y005545D03*
X023185Y005525D03*
X023147Y005625D03*
D572*
X023185Y005528D03*
X024412Y005548D03*
X024432Y006358D03*
X023160Y006358D03*
D573*
X023793Y007030D03*
X024428Y006360D03*
X024438Y005620D03*
X024413Y005550D03*
X023183Y005530D03*
D574*
X023183Y005533D03*
X024413Y005563D03*
X024433Y005618D03*
D575*
X024413Y005560D03*
X023183Y005535D03*
X024543Y006280D03*
X023163Y006365D03*
D576*
X023167Y006368D03*
X023185Y005538D03*
D577*
X024413Y005538D03*
X023793Y007033D03*
D578*
X023008Y005745D03*
X023183Y005540D03*
X024413Y005570D03*
D579*
X024412Y005540D03*
X023142Y005630D03*
X023020Y005740D03*
D580*
X023185Y005543D03*
X024427Y005613D03*
X024550Y006278D03*
D581*
X024413Y005543D03*
D582*
X024430Y005615D03*
X023185Y005545D03*
X023160Y005615D03*
D583*
X023186Y005548D03*
D584*
X023186Y005550D03*
X024426Y005610D03*
D585*
X024422Y005608D03*
X023185Y005553D03*
X023167Y005608D03*
X023162Y005613D03*
D586*
X023148Y005623D03*
X023013Y005743D03*
X024413Y005553D03*
D587*
X024421Y005605D03*
X023186Y005555D03*
D588*
X023152Y005620D03*
X023015Y006235D03*
X024412Y005555D03*
D589*
X023186Y005558D03*
X024416Y006373D03*
D590*
X024427Y006363D03*
X024600Y005778D03*
X024412Y005558D03*
X023162Y006363D03*
D591*
X023170Y005605D03*
X023185Y005560D03*
D592*
X023185Y005563D03*
X023175Y006373D03*
D593*
X024413Y006375D03*
X024413Y005580D03*
X023183Y005565D03*
D594*
X024412Y005565D03*
D595*
X023185Y005568D03*
X024560Y006273D03*
X024410Y006378D03*
D596*
X024423Y006368D03*
X023793Y007028D03*
X024413Y005568D03*
D597*
X024413Y005585D03*
X024413Y005590D03*
X024413Y005595D03*
X023183Y005570D03*
X023178Y006375D03*
D598*
X023173Y005603D03*
X023183Y005573D03*
X024413Y005588D03*
X024413Y005593D03*
D599*
X024413Y005573D03*
X023003Y005748D03*
D600*
X023178Y005600D03*
X023183Y005575D03*
X023183Y006380D03*
D601*
X023172Y006370D03*
X023165Y005610D03*
X024415Y005575D03*
D602*
X023183Y005578D03*
D603*
X024413Y005578D03*
X023003Y006233D03*
D604*
X023182Y005580D03*
X023795Y007020D03*
D605*
X024402Y006383D03*
X023180Y005598D03*
X023182Y005583D03*
D606*
X024413Y005583D03*
X024418Y005603D03*
X024613Y005783D03*
X023793Y007023D03*
D607*
X023183Y005585D03*
D608*
X023183Y005588D03*
X023188Y006383D03*
D609*
X023182Y005590D03*
D610*
X023182Y005593D03*
X022990Y006228D03*
D611*
X023181Y005595D03*
D612*
X024415Y005598D03*
D613*
X024416Y005600D03*
X022996Y005750D03*
X024406Y006380D03*
D614*
X023156Y005618D03*
D615*
X023146Y005628D03*
X024441Y005623D03*
X024536Y006283D03*
D616*
X024433Y006355D03*
X024443Y005625D03*
D617*
X023123Y005653D03*
X024458Y006333D03*
D618*
X023105Y006295D03*
X023092Y005695D03*
X024497Y005690D03*
D619*
X024508Y005715D03*
D620*
X024523Y005743D03*
D621*
X022982Y005753D03*
D622*
X022972Y005755D03*
D623*
X022965Y005758D03*
X024375Y006398D03*
X023795Y007013D03*
D624*
X023793Y007010D03*
X022958Y005760D03*
D625*
X022955Y005763D03*
X024655Y005793D03*
D626*
X022948Y005765D03*
X023793Y007005D03*
D627*
X023235Y006403D03*
X022940Y005768D03*
X024355Y006403D03*
D628*
X022926Y005770D03*
D629*
X022918Y005773D03*
X023793Y006993D03*
D630*
X024652Y006245D03*
X022912Y005775D03*
D631*
X023156Y006355D03*
X024596Y005775D03*
D632*
X024657Y006243D03*
X022907Y005778D03*
D633*
X022903Y005780D03*
D634*
X024606Y005780D03*
D635*
X024670Y006238D03*
X022895Y005783D03*
D636*
X022882Y005785D03*
D637*
X024396Y006385D03*
X024626Y005785D03*
D638*
X024765Y005903D03*
X024765Y005908D03*
X024765Y005913D03*
X024762Y006078D03*
X024762Y006083D03*
X024762Y006088D03*
X023795Y006973D03*
X022830Y006083D03*
X022830Y006078D03*
X022830Y006073D03*
X022827Y006058D03*
X022827Y006053D03*
X022827Y005928D03*
X022827Y005923D03*
X022827Y005918D03*
X022827Y005913D03*
X022827Y005908D03*
X022872Y005788D03*
D639*
X023207Y006393D03*
X024640Y005788D03*
D640*
X024756Y006115D03*
X022866Y005790D03*
X022831Y005875D03*
D641*
X024650Y005790D03*
D642*
X024756Y005853D03*
X024746Y006158D03*
X022836Y006118D03*
X022836Y005858D03*
X022861Y005793D03*
D643*
X022860Y005795D03*
X022837Y005845D03*
X022837Y005850D03*
X022840Y006135D03*
X022840Y006140D03*
X022840Y006145D03*
X022860Y006185D03*
X024752Y005840D03*
X024755Y005845D03*
X024755Y005850D03*
D644*
X024661Y005795D03*
D645*
X024741Y006168D03*
X022841Y006148D03*
X022856Y005798D03*
D646*
X024666Y005798D03*
D647*
X024740Y006170D03*
X024737Y006180D03*
X024710Y006225D03*
X022855Y006180D03*
X022840Y005830D03*
X022840Y005825D03*
X022855Y005800D03*
D648*
X024675Y005800D03*
D649*
X024740Y006173D03*
X022857Y006183D03*
X022852Y006173D03*
X022845Y006158D03*
X022842Y006153D03*
X022840Y005828D03*
X022852Y005803D03*
D650*
X024688Y005803D03*
D651*
X024736Y006185D03*
X022851Y006170D03*
X022846Y006160D03*
X022851Y005805D03*
D652*
X024700Y005805D03*
D653*
X024735Y006188D03*
X024712Y006223D03*
X022850Y005808D03*
X022847Y005813D03*
D654*
X024707Y005808D03*
D655*
X022847Y005810D03*
X022845Y005815D03*
D656*
X024712Y005810D03*
D657*
X024718Y005813D03*
D658*
X024726Y005815D03*
D659*
X024738Y006178D03*
X022853Y006178D03*
X022848Y006163D03*
X022843Y005818D03*
D660*
X022821Y005983D03*
X024736Y005818D03*
X024766Y006038D03*
X024766Y006043D03*
D661*
X024738Y006175D03*
X022853Y006175D03*
X022848Y006165D03*
X022843Y005820D03*
D662*
X022831Y006090D03*
X022831Y006095D03*
X024741Y005820D03*
X024761Y005875D03*
X024761Y005880D03*
X024761Y006090D03*
X024761Y006095D03*
D663*
X024736Y006183D03*
X022851Y006168D03*
X022841Y005823D03*
D664*
X022828Y005893D03*
X022828Y005898D03*
X022828Y005903D03*
X024743Y005823D03*
X024763Y005888D03*
X024763Y005893D03*
X024763Y005898D03*
X024758Y006103D03*
X024758Y006108D03*
D665*
X024757Y006110D03*
X024762Y005885D03*
X024760Y005870D03*
X024745Y005825D03*
X022830Y005880D03*
X022830Y005885D03*
X022832Y006100D03*
D666*
X022831Y005878D03*
X022831Y005873D03*
X024746Y005828D03*
X024756Y006118D03*
D667*
X024758Y005865D03*
X024748Y005830D03*
X022868Y006190D03*
X022833Y006105D03*
D668*
X022838Y005843D03*
X022838Y005838D03*
X022838Y005833D03*
D669*
X022835Y005863D03*
X022832Y005868D03*
X022835Y006113D03*
X022865Y006188D03*
X024747Y006153D03*
X024747Y006148D03*
X024750Y006143D03*
X024750Y006138D03*
X024752Y006133D03*
X024752Y006128D03*
X024757Y005858D03*
X024750Y005833D03*
D670*
X022838Y005835D03*
X022838Y005840D03*
X022843Y006155D03*
D671*
X022836Y006115D03*
X022836Y005860D03*
X022836Y005855D03*
X024751Y005835D03*
X024756Y005855D03*
X024746Y006155D03*
D672*
X024742Y006163D03*
X024705Y006228D03*
X024755Y005848D03*
X024755Y005843D03*
X024752Y005838D03*
X022837Y005848D03*
X022837Y005853D03*
X022840Y006138D03*
X022840Y006143D03*
D673*
X022837Y006120D03*
X022835Y006110D03*
X022832Y005870D03*
X024700Y006230D03*
X024747Y006150D03*
X024750Y006145D03*
X024750Y006140D03*
X024750Y006135D03*
X024752Y006130D03*
X024752Y006125D03*
X024755Y006120D03*
X024757Y005860D03*
D674*
X024758Y005863D03*
X024753Y006123D03*
X022833Y006108D03*
D675*
X022838Y006125D03*
X022838Y006130D03*
X022833Y005865D03*
X024743Y006160D03*
D676*
X024757Y006113D03*
X024762Y005883D03*
X024760Y005873D03*
X024760Y005868D03*
X022872Y006193D03*
X022832Y006103D03*
X022830Y005888D03*
X022830Y005883D03*
D677*
X022831Y006088D03*
X022831Y006093D03*
X022831Y006098D03*
X024761Y006098D03*
X024761Y006093D03*
X024761Y005878D03*
D678*
X024763Y005890D03*
X024763Y005895D03*
X024763Y005900D03*
X024758Y006105D03*
X022828Y005900D03*
X022828Y005895D03*
X022828Y005890D03*
D679*
X022827Y005905D03*
X022827Y005910D03*
X022827Y005915D03*
X022827Y005920D03*
X022827Y005925D03*
X022827Y006055D03*
X022830Y006075D03*
X022830Y006080D03*
X022830Y006085D03*
X024760Y006100D03*
X024762Y006085D03*
X024762Y006080D03*
X024765Y005910D03*
X024765Y005905D03*
D680*
X024766Y005915D03*
X024766Y005920D03*
X024766Y005925D03*
X024766Y005930D03*
X022876Y006195D03*
X022826Y006050D03*
X022826Y006045D03*
X022826Y006040D03*
X022826Y006035D03*
X022826Y005945D03*
X022826Y005940D03*
X022826Y005935D03*
X022826Y005930D03*
D681*
X022826Y005933D03*
X022826Y005938D03*
X022826Y005943D03*
X022826Y006033D03*
X022826Y006038D03*
X022826Y006043D03*
X022826Y006048D03*
X024766Y005928D03*
X024766Y005923D03*
X024766Y005918D03*
D682*
X024767Y005933D03*
X024767Y005938D03*
X024767Y005943D03*
X024767Y006033D03*
X024765Y006048D03*
X024765Y006053D03*
X024765Y006058D03*
X022825Y006028D03*
X022825Y006023D03*
X022825Y006018D03*
X022822Y005978D03*
X022822Y005973D03*
X022822Y005968D03*
X022822Y005963D03*
X022825Y005958D03*
X022825Y005953D03*
X022825Y005948D03*
D683*
X022825Y005950D03*
X022825Y005955D03*
X022825Y005960D03*
X022822Y005965D03*
X022822Y005970D03*
X022822Y005975D03*
X022825Y006015D03*
X022825Y006020D03*
X022825Y006025D03*
X022825Y006030D03*
X024765Y006045D03*
X024765Y006050D03*
X024765Y006055D03*
X024765Y006060D03*
X024767Y006035D03*
X024767Y006030D03*
X024767Y005945D03*
X024767Y005940D03*
X024767Y005935D03*
D684*
X024768Y005948D03*
X024768Y005953D03*
X024768Y005958D03*
X024768Y005963D03*
X024768Y006013D03*
X024768Y006018D03*
X024768Y006023D03*
X024768Y006028D03*
X022823Y006013D03*
X022823Y006008D03*
X022823Y006003D03*
D685*
X022823Y006005D03*
X022823Y006010D03*
X022823Y006000D03*
X024768Y006015D03*
X024768Y006020D03*
X024768Y006025D03*
X024768Y005960D03*
X024768Y005955D03*
X024768Y005950D03*
D686*
X024770Y005965D03*
X024770Y005970D03*
X024770Y005975D03*
X024770Y005980D03*
X024770Y005985D03*
X024770Y005990D03*
X024770Y005995D03*
X024770Y006000D03*
X024770Y006005D03*
X024770Y006010D03*
X022822Y005995D03*
X022822Y005990D03*
D687*
X022822Y005993D03*
X022822Y005998D03*
X022822Y005988D03*
X022882Y006198D03*
X024770Y006008D03*
X024770Y006003D03*
X024770Y005998D03*
X024770Y005993D03*
X024770Y005988D03*
X024770Y005983D03*
X024770Y005978D03*
X024770Y005973D03*
X024770Y005968D03*
D688*
X024766Y006040D03*
X022821Y005985D03*
X022821Y005980D03*
D689*
X022828Y006060D03*
X022828Y006065D03*
X022828Y006070D03*
X024763Y006070D03*
X024763Y006075D03*
X024763Y006065D03*
D690*
X024763Y006068D03*
X024763Y006073D03*
X024763Y006063D03*
X024693Y006233D03*
X022828Y006068D03*
X022828Y006063D03*
D691*
X022838Y006123D03*
X022838Y006128D03*
X022838Y006133D03*
D692*
X022841Y006150D03*
X024741Y006165D03*
D693*
X024733Y006190D03*
D694*
X024733Y006193D03*
X024718Y006218D03*
D695*
X024722Y006215D03*
X024730Y006200D03*
X024732Y006195D03*
D696*
X024731Y006198D03*
D697*
X022891Y006200D03*
D698*
X022903Y006203D03*
D699*
X024728Y006203D03*
D700*
X022916Y006205D03*
D701*
X024728Y006205D03*
D702*
X022923Y006208D03*
D703*
X024725Y006213D03*
X024727Y006208D03*
D704*
X022930Y006210D03*
D705*
X024726Y006210D03*
D706*
X022935Y006213D03*
D707*
X022941Y006215D03*
D708*
X022952Y006218D03*
D709*
X022967Y006220D03*
D710*
X024716Y006220D03*
D711*
X022977Y006223D03*
D712*
X022986Y006225D03*
D713*
X022996Y006230D03*
D714*
X024683Y006235D03*
D715*
X024662Y006240D03*
D716*
X024646Y006248D03*
D717*
X024638Y006250D03*
D718*
X024626Y006253D03*
D719*
X024616Y006255D03*
D720*
X024608Y006258D03*
D721*
X024602Y006260D03*
D722*
X024597Y006263D03*
D723*
X024591Y006265D03*
D724*
X024581Y006268D03*
D725*
X024568Y006270D03*
D726*
X024553Y006275D03*
D727*
X024441Y006350D03*
D728*
X023161Y006360D03*
D729*
X024426Y006365D03*
D730*
X024418Y006370D03*
X023793Y007025D03*
D731*
X023181Y006378D03*
D732*
X023193Y006385D03*
D733*
X023200Y006388D03*
X024387Y006388D03*
D734*
X023205Y006390D03*
D735*
X024383Y006390D03*
D736*
X024381Y006393D03*
D737*
X023211Y006395D03*
D738*
X024377Y006395D03*
D739*
X023213Y006398D03*
D740*
X023220Y006400D03*
X024370Y006400D03*
D741*
X023246Y006405D03*
D742*
X023792Y006995D03*
X024337Y006405D03*
D743*
X023255Y006408D03*
D744*
X024327Y006408D03*
D745*
X023795Y006410D03*
D746*
X023793Y006413D03*
D747*
X023795Y006415D03*
X023790Y006715D03*
D748*
X023795Y006418D03*
D749*
X023793Y006420D03*
D750*
X023793Y006423D03*
D751*
X023792Y006425D03*
D752*
X023793Y006428D03*
D753*
X023793Y006430D03*
D754*
X023793Y006433D03*
D755*
X023795Y006435D03*
X023790Y006700D03*
D756*
X023793Y006438D03*
D757*
X023795Y006440D03*
X023795Y006445D03*
D758*
X023795Y006443D03*
X023790Y006698D03*
D759*
X023790Y006693D03*
X023795Y006453D03*
X023795Y006448D03*
D760*
X023795Y006450D03*
X023790Y006695D03*
D761*
X023790Y006690D03*
X023795Y006455D03*
D762*
X023793Y006458D03*
X023788Y006688D03*
D763*
X023795Y006460D03*
D764*
X023795Y006463D03*
X023790Y006683D03*
D765*
X023788Y006680D03*
X023793Y006465D03*
D766*
X023795Y006468D03*
X023790Y006678D03*
D767*
X023790Y006675D03*
X023795Y006470D03*
D768*
X023795Y006473D03*
D769*
X023795Y006475D03*
X023795Y006480D03*
D770*
X023795Y006478D03*
X023790Y006673D03*
D771*
X023793Y006483D03*
D772*
X023795Y006485D03*
D773*
X023793Y006488D03*
X023788Y006668D03*
D774*
X023795Y006490D03*
D775*
X023793Y006493D03*
D776*
X023793Y006495D03*
X023788Y006660D03*
D777*
X023793Y006498D03*
D778*
X023793Y006500D03*
X023788Y006655D03*
D779*
X023795Y006503D03*
D780*
X023793Y006505D03*
D781*
X023795Y006508D03*
D782*
X023795Y006510D03*
D783*
X023795Y006513D03*
D784*
X023795Y006515D03*
D785*
X023793Y006518D03*
X023788Y006648D03*
D786*
X023795Y006520D03*
D787*
X023793Y006523D03*
X023788Y006643D03*
D788*
X023788Y006640D03*
X023793Y006525D03*
D789*
X023792Y006528D03*
X023787Y006638D03*
D790*
X023788Y006635D03*
X023793Y006530D03*
D791*
X023793Y006533D03*
D792*
X023795Y006535D03*
D793*
X023793Y006538D03*
X023788Y006628D03*
D794*
X023795Y006540D03*
D795*
X023795Y006543D03*
D796*
X023795Y006545D03*
D797*
X023795Y006548D03*
X023787Y006623D03*
D798*
X023787Y006620D03*
X023795Y006550D03*
D799*
X023793Y006553D03*
D800*
X023793Y006555D03*
D801*
X023793Y006558D03*
D802*
X023795Y006560D03*
D803*
X023793Y006563D03*
D804*
X023795Y006565D03*
D805*
X023795Y006568D03*
D806*
X023795Y006570D03*
D807*
X023793Y006573D03*
D808*
X023793Y006575D03*
D809*
X023793Y006578D03*
X023788Y006598D03*
D810*
X023793Y006580D03*
D811*
X023792Y006583D03*
X023790Y006588D03*
D812*
X023790Y006585D03*
X023787Y006595D03*
D813*
X023788Y006590D03*
D814*
X023788Y006593D03*
D815*
X023787Y006600D03*
D816*
X023788Y006603D03*
D817*
X023788Y006605D03*
D818*
X023787Y006608D03*
D819*
X023787Y006610D03*
D820*
X023787Y006613D03*
D821*
X023787Y006615D03*
D822*
X023787Y006618D03*
D823*
X023788Y006625D03*
D824*
X023788Y006630D03*
D825*
X023787Y006633D03*
D826*
X023788Y006645D03*
D827*
X023788Y006650D03*
D828*
X023788Y006653D03*
D829*
X023787Y006658D03*
D830*
X023787Y006663D03*
D831*
X023788Y006665D03*
D832*
X023788Y006670D03*
D833*
X023788Y006685D03*
D834*
X023790Y006703D03*
D835*
X023788Y006705D03*
D836*
X023790Y006708D03*
D837*
X023788Y006710D03*
D838*
X023790Y006713D03*
D839*
X023791Y006718D03*
D840*
X023791Y006720D03*
D841*
X023791Y006723D03*
D842*
X023790Y006725D03*
D843*
X023790Y006728D03*
D844*
X023788Y006730D03*
D845*
X023790Y006733D03*
D846*
X023790Y006735D03*
D847*
X023791Y006738D03*
D848*
X023791Y006740D03*
D849*
X023792Y006743D03*
D850*
X023791Y006745D03*
D851*
X023791Y006748D03*
D852*
X023790Y006750D03*
D853*
X023790Y006753D03*
D854*
X023791Y006755D03*
D855*
X023790Y006758D03*
D856*
X023791Y006760D03*
D857*
X023791Y006763D03*
D858*
X023792Y006765D03*
D859*
X023792Y006768D03*
D860*
X023791Y006770D03*
D861*
X023791Y006773D03*
D862*
X023790Y006775D03*
D863*
X023790Y006778D03*
D864*
X023790Y006780D03*
D865*
X023790Y006783D03*
D866*
X023792Y006785D03*
D867*
X023792Y006788D03*
D868*
X023792Y006790D03*
D869*
X023792Y006793D03*
D870*
X023792Y006795D03*
D871*
X023791Y006798D03*
D872*
X023791Y006800D03*
D873*
X023791Y006803D03*
D874*
X023791Y006805D03*
D875*
X023791Y006808D03*
D876*
X023792Y006810D03*
D877*
X023792Y006813D03*
D878*
X023792Y006815D03*
D879*
X023792Y006818D03*
D880*
X023792Y006820D03*
D881*
X023791Y006823D03*
D882*
X023791Y006825D03*
D883*
X023791Y006828D03*
D884*
X023791Y006830D03*
D885*
X023792Y006833D03*
D886*
X023792Y006835D03*
D887*
X023793Y006838D03*
D888*
X023793Y006840D03*
D889*
X023792Y006843D03*
D890*
X023792Y006845D03*
D891*
X023791Y006848D03*
D892*
X023792Y006850D03*
D893*
X023792Y006853D03*
D894*
X023792Y006855D03*
D895*
X023793Y006858D03*
D896*
X023793Y006860D03*
D897*
X023793Y006863D03*
D898*
X023793Y006865D03*
D899*
X023792Y006868D03*
D900*
X023792Y006870D03*
D901*
X023792Y006873D03*
X023795Y006963D03*
D902*
X023793Y006875D03*
D903*
X023793Y006878D03*
D904*
X023795Y006880D03*
D905*
X023793Y006883D03*
D906*
X023793Y006885D03*
D907*
X023793Y006888D03*
D908*
X023793Y006890D03*
D909*
X023792Y006893D03*
X023795Y006948D03*
D910*
X023792Y006895D03*
D911*
X023793Y006898D03*
D912*
X023792Y006900D03*
X023795Y006940D03*
D913*
X023793Y006903D03*
D914*
X023793Y006905D03*
D915*
X023795Y006908D03*
X023795Y006913D03*
X023795Y006933D03*
D916*
X023795Y006930D03*
X023795Y006915D03*
X023795Y006910D03*
D917*
X023796Y006918D03*
X023796Y006923D03*
X023796Y006928D03*
D918*
X023796Y006925D03*
X023796Y006920D03*
D919*
X023796Y006935D03*
D920*
X023795Y006938D03*
D921*
X023796Y006943D03*
D922*
X023796Y006945D03*
D923*
X023795Y006950D03*
D924*
X023795Y006953D03*
D925*
X023796Y006955D03*
D926*
X023796Y006958D03*
D927*
X023795Y006960D03*
D928*
X024658Y006980D03*
X022918Y006965D03*
D929*
X024090Y006965D03*
D930*
X022917Y006968D03*
D931*
X024091Y006968D03*
D932*
X022916Y006970D03*
D933*
X024093Y006970D03*
D934*
X024655Y006973D03*
D935*
X023792Y006975D03*
D936*
X024658Y006975D03*
D937*
X024662Y006993D03*
X023792Y007093D03*
X022915Y006978D03*
D938*
X023792Y006978D03*
D939*
X024658Y006978D03*
D940*
X022913Y006980D03*
D941*
X023793Y006980D03*
D942*
X023790Y007118D03*
X022915Y006983D03*
D943*
X023792Y006983D03*
D944*
X024658Y006983D03*
D945*
X023793Y006985D03*
D946*
X024660Y006985D03*
D947*
X022912Y006988D03*
D948*
X023793Y006988D03*
D949*
X024661Y006988D03*
D950*
X023793Y006990D03*
D951*
X022911Y006993D03*
D952*
X022911Y006995D03*
D953*
X023792Y007095D03*
X024662Y006995D03*
D954*
X022911Y006998D03*
D955*
X023793Y006998D03*
D956*
X024663Y006998D03*
D957*
X024667Y007015D03*
X023792Y007230D03*
X022910Y007000D03*
D958*
X023793Y007000D03*
D959*
X024663Y007000D03*
D960*
X024668Y007018D03*
X023793Y007248D03*
X023793Y007253D03*
X022908Y007003D03*
D961*
X023793Y007003D03*
D962*
X023795Y007298D03*
X023795Y007303D03*
X022907Y007008D03*
D963*
X023793Y007008D03*
D964*
X023795Y007310D03*
X022907Y007010D03*
D965*
X023792Y007210D03*
X024667Y007010D03*
D966*
X022906Y007013D03*
D967*
X023792Y007218D03*
X023792Y007223D03*
X024667Y007013D03*
D968*
X023793Y007015D03*
D969*
X023795Y007343D03*
X023795Y007348D03*
X024672Y007033D03*
X022905Y007018D03*
D970*
X023793Y007018D03*
D971*
X023795Y007403D03*
X022905Y007023D03*
D972*
X024671Y007023D03*
D973*
X022903Y007025D03*
D974*
X024671Y007025D03*
D975*
X022903Y007028D03*
D976*
X024671Y007028D03*
D977*
X022903Y007030D03*
D978*
X023795Y007330D03*
X023795Y007335D03*
X024672Y007030D03*
D979*
X023797Y007448D03*
X022902Y007033D03*
D980*
X022901Y007035D03*
X023796Y007470D03*
D981*
X024673Y007035D03*
D982*
X022901Y007038D03*
D983*
X022900Y007040D03*
X023797Y007480D03*
D984*
X023797Y007483D03*
X022900Y007043D03*
D985*
X023793Y007043D03*
D986*
X023796Y007428D03*
X024676Y007043D03*
D987*
X022900Y007045D03*
D988*
X023796Y007435D03*
X023796Y007440D03*
X023796Y007445D03*
X024676Y007045D03*
D989*
X022898Y007048D03*
D990*
X023796Y007453D03*
X023796Y007458D03*
X023796Y007463D03*
X024676Y007048D03*
D991*
X022897Y007055D03*
D992*
X023795Y007055D03*
D993*
X024680Y007055D03*
D994*
X022896Y007058D03*
D995*
X023793Y007058D03*
D996*
X022895Y007060D03*
D997*
X023795Y007060D03*
D998*
X024680Y007060D03*
D999*
X022895Y007063D03*
D1000*
X023795Y007063D03*
D1001*
X023797Y007488D03*
X024680Y007063D03*
D1002*
X023795Y007065D03*
D1003*
X024681Y007065D03*
D1004*
X023793Y007068D03*
D1005*
X024682Y007068D03*
D1006*
X022893Y007070D03*
D1007*
X023796Y007070D03*
D1008*
X024683Y007070D03*
D1009*
X022893Y007073D03*
D1010*
X023796Y007073D03*
D1011*
X022893Y007075D03*
D1012*
X023796Y007075D03*
D1013*
X024683Y007075D03*
D1014*
X023796Y007078D03*
D1015*
X024683Y007078D03*
D1016*
X023796Y007080D03*
D1017*
X024685Y007080D03*
D1018*
X023795Y007083D03*
D1019*
X024685Y007083D03*
D1020*
X024686Y007085D03*
D1021*
X022891Y007088D03*
D1022*
X023793Y007088D03*
D1023*
X022890Y007090D03*
D1024*
X023793Y007090D03*
D1025*
X024687Y007098D03*
D1026*
X023792Y007100D03*
X023792Y007105D03*
D1027*
X024687Y007100D03*
D1028*
X024688Y007103D03*
D1029*
X024688Y007105D03*
D1030*
X023791Y007108D03*
X023791Y007113D03*
D1031*
X023791Y007115D03*
X023791Y007110D03*
D1032*
X023791Y007120D03*
X023791Y007125D03*
X023791Y007130D03*
D1033*
X023791Y007128D03*
X023791Y007123D03*
D1034*
X023791Y007135D03*
D1035*
X023791Y007138D03*
D1036*
X023792Y007140D03*
X023792Y007145D03*
D1037*
X023792Y007143D03*
D1038*
X022883Y007150D03*
D1039*
X023793Y007150D03*
X023793Y007155D03*
D1040*
X023793Y007160D03*
X023793Y007165D03*
X023793Y007170D03*
D1041*
X023793Y007173D03*
X023793Y007168D03*
X023793Y007163D03*
D1042*
X023795Y007178D03*
D1043*
X023793Y007183D03*
X023793Y007188D03*
X023793Y007193D03*
D1044*
X023793Y007195D03*
X023793Y007190D03*
X023793Y007185D03*
D1045*
X023792Y007198D03*
D1046*
X023793Y007200D03*
X023793Y007205D03*
D1047*
X023793Y007203D03*
D1048*
X023792Y007208D03*
X023792Y007213D03*
D1049*
X023793Y007225D03*
D1050*
X023793Y007235D03*
X023793Y007240D03*
D1051*
X023793Y007238D03*
D1052*
X023795Y007243D03*
D1053*
X023795Y007255D03*
X023795Y007260D03*
X023795Y007265D03*
X023795Y007270D03*
D1054*
X023795Y007273D03*
X023795Y007268D03*
X023795Y007263D03*
X023795Y007258D03*
D1055*
X023795Y007278D03*
X023795Y007283D03*
X023795Y007288D03*
D1056*
X023793Y007293D03*
D1057*
X023793Y007295D03*
D1058*
X023795Y007300D03*
D1059*
X023793Y007305D03*
D1060*
X023793Y007308D03*
D1061*
X023793Y007315D03*
D1062*
X023793Y007318D03*
D1063*
X023795Y007320D03*
D1064*
X023793Y007325D03*
D1065*
X023795Y007328D03*
X023795Y007333D03*
D1066*
X023795Y007340D03*
X023795Y007345D03*
D1067*
X023796Y007353D03*
X023796Y007358D03*
D1068*
X023795Y007365D03*
X023795Y007370D03*
D1069*
X023796Y007375D03*
X023796Y007380D03*
X023796Y007385D03*
D1070*
X023796Y007383D03*
X023796Y007378D03*
D1071*
X023795Y007388D03*
D1072*
X023796Y007395D03*
X023796Y007400D03*
D1073*
X023796Y007408D03*
D1074*
X023797Y007413D03*
D1075*
X023796Y007415D03*
X023796Y007420D03*
D1076*
X023796Y007418D03*
D1077*
X023796Y007425D03*
X023796Y007430D03*
D1078*
X023797Y007433D03*
D1079*
X023796Y007468D03*
D1080*
X023796Y007485D03*
D1081*
X023798Y007490D03*
D1082*
X023798Y007493D03*
D1083*
X023800Y007495D03*
D1084*
X023796Y007498D03*
M02*
