G75*
%MOIN*%
%OFA0B0*%
%FSLAX24Y24*%
%IPPOS*%
%LPD*%
%AMOC8*
5,1,8,0,0,1.08239X$1,22.5*
%
%ADD10C,0.0000*%
%ADD11R,0.0236X0.0866*%
%ADD12OC8,0.0600*%
%ADD13C,0.0600*%
%ADD14R,0.0480X0.0880*%
%ADD15R,0.1417X0.0866*%
%ADD16R,0.0512X0.0591*%
%ADD17R,0.0591X0.0512*%
%ADD18C,0.0440*%
%ADD19R,0.0460X0.0630*%
%ADD20R,0.0630X0.0460*%
%ADD21R,0.0594X0.0594*%
%ADD22OC8,0.0594*%
%ADD23R,0.0295X0.0197*%
%ADD24R,0.0709X0.0472*%
%ADD25R,0.0866X0.0472*%
%ADD26R,0.0591X0.0630*%
%ADD27C,0.0357*%
%ADD28C,0.0160*%
%ADD29C,0.0240*%
%ADD30C,0.0320*%
%ADD31C,0.0100*%
%ADD32C,0.0396*%
D10*
X002288Y000180D02*
X002288Y014176D01*
X033658Y014176D01*
X033658Y000180D01*
X002288Y000180D01*
X002788Y001180D02*
X002790Y001224D01*
X002796Y001268D01*
X002806Y001311D01*
X002819Y001353D01*
X002836Y001394D01*
X002857Y001433D01*
X002881Y001470D01*
X002908Y001505D01*
X002938Y001537D01*
X002971Y001567D01*
X003007Y001593D01*
X003044Y001617D01*
X003084Y001636D01*
X003125Y001653D01*
X003168Y001665D01*
X003211Y001674D01*
X003255Y001679D01*
X003299Y001680D01*
X003343Y001677D01*
X003387Y001670D01*
X003430Y001659D01*
X003472Y001645D01*
X003512Y001627D01*
X003551Y001605D01*
X003587Y001581D01*
X003621Y001553D01*
X003653Y001522D01*
X003682Y001488D01*
X003708Y001452D01*
X003730Y001414D01*
X003749Y001374D01*
X003764Y001332D01*
X003776Y001290D01*
X003784Y001246D01*
X003788Y001202D01*
X003788Y001158D01*
X003784Y001114D01*
X003776Y001070D01*
X003764Y001028D01*
X003749Y000986D01*
X003730Y000946D01*
X003708Y000908D01*
X003682Y000872D01*
X003653Y000838D01*
X003621Y000807D01*
X003587Y000779D01*
X003551Y000755D01*
X003512Y000733D01*
X003472Y000715D01*
X003430Y000701D01*
X003387Y000690D01*
X003343Y000683D01*
X003299Y000680D01*
X003255Y000681D01*
X003211Y000686D01*
X003168Y000695D01*
X003125Y000707D01*
X003084Y000724D01*
X003044Y000743D01*
X003007Y000767D01*
X002971Y000793D01*
X002938Y000823D01*
X002908Y000855D01*
X002881Y000890D01*
X002857Y000927D01*
X002836Y000966D01*
X002819Y001007D01*
X002806Y001049D01*
X002796Y001092D01*
X002790Y001136D01*
X002788Y001180D01*
X002788Y013180D02*
X002790Y013224D01*
X002796Y013268D01*
X002806Y013311D01*
X002819Y013353D01*
X002836Y013394D01*
X002857Y013433D01*
X002881Y013470D01*
X002908Y013505D01*
X002938Y013537D01*
X002971Y013567D01*
X003007Y013593D01*
X003044Y013617D01*
X003084Y013636D01*
X003125Y013653D01*
X003168Y013665D01*
X003211Y013674D01*
X003255Y013679D01*
X003299Y013680D01*
X003343Y013677D01*
X003387Y013670D01*
X003430Y013659D01*
X003472Y013645D01*
X003512Y013627D01*
X003551Y013605D01*
X003587Y013581D01*
X003621Y013553D01*
X003653Y013522D01*
X003682Y013488D01*
X003708Y013452D01*
X003730Y013414D01*
X003749Y013374D01*
X003764Y013332D01*
X003776Y013290D01*
X003784Y013246D01*
X003788Y013202D01*
X003788Y013158D01*
X003784Y013114D01*
X003776Y013070D01*
X003764Y013028D01*
X003749Y012986D01*
X003730Y012946D01*
X003708Y012908D01*
X003682Y012872D01*
X003653Y012838D01*
X003621Y012807D01*
X003587Y012779D01*
X003551Y012755D01*
X003512Y012733D01*
X003472Y012715D01*
X003430Y012701D01*
X003387Y012690D01*
X003343Y012683D01*
X003299Y012680D01*
X003255Y012681D01*
X003211Y012686D01*
X003168Y012695D01*
X003125Y012707D01*
X003084Y012724D01*
X003044Y012743D01*
X003007Y012767D01*
X002971Y012793D01*
X002938Y012823D01*
X002908Y012855D01*
X002881Y012890D01*
X002857Y012927D01*
X002836Y012966D01*
X002819Y013007D01*
X002806Y013049D01*
X002796Y013092D01*
X002790Y013136D01*
X002788Y013180D01*
X032288Y013180D02*
X032290Y013224D01*
X032296Y013268D01*
X032306Y013311D01*
X032319Y013353D01*
X032336Y013394D01*
X032357Y013433D01*
X032381Y013470D01*
X032408Y013505D01*
X032438Y013537D01*
X032471Y013567D01*
X032507Y013593D01*
X032544Y013617D01*
X032584Y013636D01*
X032625Y013653D01*
X032668Y013665D01*
X032711Y013674D01*
X032755Y013679D01*
X032799Y013680D01*
X032843Y013677D01*
X032887Y013670D01*
X032930Y013659D01*
X032972Y013645D01*
X033012Y013627D01*
X033051Y013605D01*
X033087Y013581D01*
X033121Y013553D01*
X033153Y013522D01*
X033182Y013488D01*
X033208Y013452D01*
X033230Y013414D01*
X033249Y013374D01*
X033264Y013332D01*
X033276Y013290D01*
X033284Y013246D01*
X033288Y013202D01*
X033288Y013158D01*
X033284Y013114D01*
X033276Y013070D01*
X033264Y013028D01*
X033249Y012986D01*
X033230Y012946D01*
X033208Y012908D01*
X033182Y012872D01*
X033153Y012838D01*
X033121Y012807D01*
X033087Y012779D01*
X033051Y012755D01*
X033012Y012733D01*
X032972Y012715D01*
X032930Y012701D01*
X032887Y012690D01*
X032843Y012683D01*
X032799Y012680D01*
X032755Y012681D01*
X032711Y012686D01*
X032668Y012695D01*
X032625Y012707D01*
X032584Y012724D01*
X032544Y012743D01*
X032507Y012767D01*
X032471Y012793D01*
X032438Y012823D01*
X032408Y012855D01*
X032381Y012890D01*
X032357Y012927D01*
X032336Y012966D01*
X032319Y013007D01*
X032306Y013049D01*
X032296Y013092D01*
X032290Y013136D01*
X032288Y013180D01*
X032288Y001180D02*
X032290Y001224D01*
X032296Y001268D01*
X032306Y001311D01*
X032319Y001353D01*
X032336Y001394D01*
X032357Y001433D01*
X032381Y001470D01*
X032408Y001505D01*
X032438Y001537D01*
X032471Y001567D01*
X032507Y001593D01*
X032544Y001617D01*
X032584Y001636D01*
X032625Y001653D01*
X032668Y001665D01*
X032711Y001674D01*
X032755Y001679D01*
X032799Y001680D01*
X032843Y001677D01*
X032887Y001670D01*
X032930Y001659D01*
X032972Y001645D01*
X033012Y001627D01*
X033051Y001605D01*
X033087Y001581D01*
X033121Y001553D01*
X033153Y001522D01*
X033182Y001488D01*
X033208Y001452D01*
X033230Y001414D01*
X033249Y001374D01*
X033264Y001332D01*
X033276Y001290D01*
X033284Y001246D01*
X033288Y001202D01*
X033288Y001158D01*
X033284Y001114D01*
X033276Y001070D01*
X033264Y001028D01*
X033249Y000986D01*
X033230Y000946D01*
X033208Y000908D01*
X033182Y000872D01*
X033153Y000838D01*
X033121Y000807D01*
X033087Y000779D01*
X033051Y000755D01*
X033012Y000733D01*
X032972Y000715D01*
X032930Y000701D01*
X032887Y000690D01*
X032843Y000683D01*
X032799Y000680D01*
X032755Y000681D01*
X032711Y000686D01*
X032668Y000695D01*
X032625Y000707D01*
X032584Y000724D01*
X032544Y000743D01*
X032507Y000767D01*
X032471Y000793D01*
X032438Y000823D01*
X032408Y000855D01*
X032381Y000890D01*
X032357Y000927D01*
X032336Y000966D01*
X032319Y001007D01*
X032306Y001049D01*
X032296Y001092D01*
X032290Y001136D01*
X032288Y001180D01*
D11*
X021788Y007869D03*
X021288Y007869D03*
X020788Y007869D03*
X020288Y007869D03*
X019788Y007869D03*
X019288Y007869D03*
X018788Y007869D03*
X018288Y007869D03*
X018288Y011491D03*
X018788Y011491D03*
X019288Y011491D03*
X019788Y011491D03*
X020288Y011491D03*
X020788Y011491D03*
X021288Y011491D03*
X021788Y011491D03*
D12*
X022038Y002180D03*
X021038Y002180D03*
X020038Y002180D03*
X019038Y002180D03*
X018038Y002180D03*
X017038Y002180D03*
X016038Y002180D03*
X015038Y002180D03*
X014038Y002180D03*
X013038Y002180D03*
X012038Y002180D03*
X011038Y002180D03*
X010038Y002180D03*
X010038Y001180D03*
X011038Y001180D03*
X012038Y001180D03*
X013038Y001180D03*
X014038Y001180D03*
X015038Y001180D03*
X016038Y001180D03*
X017038Y001180D03*
X018038Y001180D03*
X019038Y001180D03*
X020038Y001180D03*
X021038Y001180D03*
X022038Y001180D03*
X023038Y001180D03*
X024038Y001180D03*
X025038Y001180D03*
X026038Y001180D03*
X026038Y002180D03*
X025038Y002180D03*
X024038Y002180D03*
X023038Y002180D03*
D13*
X032238Y004180D02*
X032838Y004180D01*
X032838Y005180D02*
X032238Y005180D01*
X032238Y006180D02*
X032838Y006180D01*
X032838Y007180D02*
X032238Y007180D01*
X030038Y009380D02*
X030038Y009980D01*
X028038Y009980D02*
X028038Y009380D01*
X032238Y010180D02*
X032838Y010180D01*
X032838Y011180D02*
X032238Y011180D01*
X029338Y011680D02*
X028738Y011680D01*
X028663Y012880D02*
X028663Y013480D01*
X027663Y013480D02*
X027663Y012880D01*
X026663Y012880D02*
X026663Y013480D01*
X025663Y013480D02*
X025663Y012880D01*
X024663Y012880D02*
X024663Y013480D01*
X023663Y013480D02*
X023663Y012880D01*
X022663Y012880D02*
X022663Y013480D01*
X021663Y013480D02*
X021663Y012880D01*
X020663Y012880D02*
X020663Y013480D01*
X019663Y013480D02*
X019663Y012880D01*
X018663Y012880D02*
X018663Y013480D01*
X017663Y013480D02*
X017663Y012880D01*
X016663Y012880D02*
X016663Y013480D01*
X015663Y013480D02*
X015663Y012880D01*
X008538Y010980D02*
X008538Y010380D01*
X007538Y010380D02*
X007538Y010980D01*
X006538Y010980D02*
X006538Y010380D01*
X005538Y010380D02*
X005538Y010980D01*
X004538Y010980D02*
X004538Y010380D01*
X003538Y010380D02*
X003538Y010980D01*
X029663Y012880D02*
X029663Y013480D01*
X030663Y013480D02*
X030663Y012880D01*
D14*
X028948Y005400D03*
X028038Y005400D03*
X027128Y005400D03*
D15*
X028038Y002960D03*
D16*
X028162Y006930D03*
X027414Y006930D03*
X030664Y008680D03*
X031412Y008680D03*
D17*
X023038Y008556D03*
X023038Y009304D03*
X016038Y011306D03*
X016038Y012054D03*
X012288Y009554D03*
X012288Y008806D03*
D18*
X016538Y005650D02*
X016538Y005210D01*
X018538Y005210D02*
X018538Y005650D01*
D19*
X013638Y004055D03*
X013038Y004055D03*
X012438Y004055D03*
D20*
X017038Y011380D03*
X017038Y011980D03*
X023538Y011980D03*
X024538Y011980D03*
X025538Y011980D03*
X025538Y011380D03*
X024538Y011380D03*
X023538Y011380D03*
D21*
X007788Y012180D03*
D22*
X008788Y012180D03*
X009788Y012180D03*
X010788Y012180D03*
X011788Y012180D03*
X011788Y013180D03*
X010788Y013180D03*
X009788Y013180D03*
X008788Y013180D03*
X007788Y013180D03*
D23*
X008127Y008855D03*
X008127Y008422D03*
X008127Y007989D03*
X008127Y007556D03*
X008127Y007123D03*
X008127Y006690D03*
X008127Y006257D03*
X008127Y005824D03*
X008127Y005391D03*
D24*
X007723Y009328D03*
D25*
X004062Y009328D03*
X004062Y003225D03*
D26*
X007822Y003688D03*
D27*
X010038Y003680D03*
X009538Y005680D03*
X008538Y005680D03*
X006788Y006680D03*
X007288Y007305D03*
X005788Y007180D03*
X005788Y007680D03*
X005788Y008180D03*
X011038Y009180D03*
X013038Y009680D03*
X013538Y009680D03*
X014663Y009430D03*
X014538Y010430D03*
X015038Y010930D03*
X017698Y011470D03*
X017788Y012180D03*
X014788Y012430D03*
X012788Y013180D03*
X010288Y011430D03*
X011288Y011180D03*
X005288Y011680D03*
X005288Y013180D03*
X018538Y009680D03*
X018538Y009180D03*
X019678Y009040D03*
X021038Y009180D03*
X021538Y009305D03*
X022198Y008050D03*
X022788Y007680D03*
X025038Y006930D03*
X024038Y006180D03*
X022198Y005695D03*
X025038Y004930D03*
X030038Y004680D03*
X030788Y004680D03*
X030788Y003680D03*
X030788Y002680D03*
X030038Y001680D03*
X029538Y001680D03*
X029038Y001680D03*
X028538Y001680D03*
X028538Y001180D03*
X029038Y001180D03*
X029538Y001180D03*
X030038Y001180D03*
X030038Y005680D03*
X030788Y005680D03*
X030788Y006680D03*
X025038Y009430D03*
X029038Y009680D03*
X022538Y012180D03*
X016538Y006930D03*
X010948Y006430D03*
X007288Y001680D03*
X006788Y001680D03*
X006288Y001680D03*
X005788Y001680D03*
X005788Y001180D03*
X006288Y001180D03*
X006788Y001180D03*
X007288Y001180D03*
D28*
X009558Y001160D02*
X009558Y000981D01*
X009840Y000700D01*
X010018Y000700D01*
X010018Y001160D01*
X009558Y001160D01*
X009558Y001131D02*
X004268Y001131D01*
X004268Y000985D02*
X004268Y001375D01*
X004119Y001735D01*
X003844Y002011D01*
X003483Y002160D01*
X003093Y002160D01*
X002768Y002025D01*
X002768Y012335D01*
X003093Y012200D01*
X003483Y012200D01*
X003844Y012349D01*
X004119Y012625D01*
X004268Y012985D01*
X004268Y013375D01*
X004135Y013696D01*
X007548Y013696D01*
X007548Y013586D01*
X007422Y013460D01*
X006233Y013460D01*
X006130Y013417D01*
X006051Y013339D01*
X005422Y012710D01*
X004804Y012710D01*
X004764Y012714D01*
X004749Y012710D01*
X004733Y012710D01*
X004696Y012695D01*
X004657Y012683D01*
X004645Y012673D01*
X004630Y012667D01*
X004601Y012639D01*
X003395Y011673D01*
X003380Y011667D01*
X003351Y011639D01*
X003320Y011614D01*
X003312Y011600D01*
X003301Y011589D01*
X003286Y011551D01*
X003266Y011516D01*
X003264Y011500D01*
X003258Y011486D01*
X003258Y011446D01*
X003254Y011406D01*
X003258Y011390D01*
X003258Y011351D01*
X003148Y011241D01*
X003078Y011071D01*
X003078Y010288D01*
X003148Y010119D01*
X003278Y009990D01*
X003447Y009920D01*
X003630Y009920D01*
X003799Y009990D01*
X003928Y010119D01*
X003998Y010288D01*
X003998Y011071D01*
X003928Y011241D01*
X003849Y011320D01*
X004887Y012150D01*
X005594Y012150D01*
X005697Y012193D01*
X006404Y012900D01*
X007422Y012900D01*
X007599Y012723D01*
X007978Y012723D01*
X008245Y012991D01*
X008245Y013369D01*
X008174Y013440D01*
X008374Y013440D01*
X008312Y013378D01*
X008312Y013198D01*
X008770Y013198D01*
X008770Y013162D01*
X008312Y013162D01*
X008312Y012982D01*
X008591Y012703D01*
X008770Y012703D01*
X008770Y013162D01*
X008807Y013162D01*
X008807Y013198D01*
X009265Y013198D01*
X009265Y013378D01*
X009203Y013440D01*
X009374Y013440D01*
X009312Y013378D01*
X009312Y013198D01*
X009770Y013198D01*
X009770Y013162D01*
X009312Y013162D01*
X009312Y012982D01*
X009591Y012703D01*
X009770Y012703D01*
X009770Y013162D01*
X009807Y013162D01*
X009807Y013198D01*
X010265Y013198D01*
X010265Y013378D01*
X010203Y013440D01*
X010374Y013440D01*
X010312Y013378D01*
X010312Y013198D01*
X010770Y013198D01*
X010770Y013162D01*
X010312Y013162D01*
X010312Y012982D01*
X010591Y012703D01*
X010770Y012703D01*
X010770Y013162D01*
X010807Y013162D01*
X010807Y013198D01*
X011265Y013198D01*
X011265Y013378D01*
X011203Y013440D01*
X011374Y013440D01*
X011312Y013378D01*
X011312Y013198D01*
X011770Y013198D01*
X011770Y013162D01*
X011312Y013162D01*
X011312Y012982D01*
X011591Y012703D01*
X011770Y012703D01*
X011770Y013162D01*
X011807Y013162D01*
X011807Y013198D01*
X012265Y013198D01*
X012265Y013364D01*
X012450Y013179D01*
X012450Y013113D01*
X012501Y012988D01*
X012597Y012893D01*
X012721Y012842D01*
X012856Y012842D01*
X012980Y012893D01*
X013075Y012988D01*
X013127Y013113D01*
X013127Y013247D01*
X013075Y013372D01*
X012980Y013467D01*
X012856Y013518D01*
X012789Y013518D01*
X012612Y013696D01*
X015235Y013696D01*
X015219Y013664D01*
X015195Y013592D01*
X015183Y013518D01*
X015183Y013200D01*
X015643Y013200D01*
X015643Y013160D01*
X015183Y013160D01*
X015183Y012842D01*
X015195Y012768D01*
X015219Y012696D01*
X015253Y012628D01*
X015297Y012567D01*
X015351Y012514D01*
X015412Y012469D01*
X015479Y012435D01*
X015551Y012412D01*
X015609Y012403D01*
X015583Y012376D01*
X015583Y011732D01*
X015635Y011680D01*
X015583Y011628D01*
X015583Y011604D01*
X015569Y011614D01*
X015549Y011633D01*
X015531Y011641D01*
X015514Y011653D01*
X015487Y011659D01*
X015461Y011670D01*
X015441Y011670D01*
X015421Y011675D01*
X015394Y011670D01*
X014741Y011670D01*
X014652Y011633D01*
X014585Y011566D01*
X013960Y010941D01*
X013951Y010920D01*
X011507Y010920D01*
X011575Y010988D01*
X011627Y011113D01*
X011627Y011247D01*
X011575Y011372D01*
X011480Y011467D01*
X011356Y011518D01*
X011221Y011518D01*
X011097Y011467D01*
X011050Y011420D01*
X010638Y011420D01*
X010627Y011431D01*
X010627Y011497D01*
X010575Y011622D01*
X010480Y011717D01*
X010356Y011768D01*
X010221Y011768D01*
X010097Y011717D01*
X010028Y011649D01*
X010028Y011774D01*
X010245Y011991D01*
X010245Y012369D01*
X009978Y012637D01*
X009599Y012637D01*
X009332Y012369D01*
X009332Y011991D01*
X009548Y011774D01*
X009548Y011382D01*
X009585Y011294D01*
X010209Y010670D01*
X009991Y010670D01*
X009902Y010633D01*
X009896Y010628D01*
X009896Y010751D01*
X009842Y010883D01*
X009781Y010943D01*
X009782Y010951D01*
X009778Y010964D01*
X009778Y010978D01*
X009765Y011010D01*
X009756Y011043D01*
X009747Y011053D01*
X009742Y011066D01*
X009717Y011090D01*
X009247Y011678D01*
X009242Y011691D01*
X009217Y011715D01*
X009196Y011742D01*
X009184Y011749D01*
X009174Y011758D01*
X009143Y011772D01*
X009112Y011788D01*
X009099Y011790D01*
X009086Y011795D01*
X009052Y011795D01*
X009050Y011795D01*
X009245Y011991D01*
X009245Y012369D01*
X008978Y012637D01*
X008599Y012637D01*
X008332Y012369D01*
X008332Y011991D01*
X008527Y011795D01*
X008223Y011795D01*
X008245Y011817D01*
X008245Y012543D01*
X008505Y012543D01*
X008347Y012385D02*
X008245Y012385D01*
X008245Y012543D02*
X008152Y012637D01*
X007425Y012637D01*
X007332Y012543D01*
X006047Y012543D01*
X005889Y012385D02*
X007332Y012385D01*
X007332Y012543D02*
X007332Y011817D01*
X007425Y011723D01*
X007864Y011723D01*
X007854Y011716D01*
X007846Y011702D01*
X007835Y011691D01*
X007822Y011661D01*
X007684Y011418D01*
X007630Y011440D01*
X007447Y011440D01*
X007278Y011370D01*
X007148Y011241D01*
X007078Y011071D01*
X007078Y010351D01*
X007028Y010476D01*
X007028Y010478D01*
X007011Y010521D01*
X006998Y010551D01*
X006998Y011071D01*
X006928Y011241D01*
X006799Y011370D01*
X006630Y011440D01*
X006447Y011440D01*
X006278Y011370D01*
X006148Y011241D01*
X006078Y011071D01*
X006078Y010288D01*
X006148Y010119D01*
X006278Y009990D01*
X006447Y009920D01*
X006630Y009920D01*
X006719Y009957D01*
X006798Y009759D01*
X006798Y009757D01*
X006816Y009715D01*
X006833Y009672D01*
X006834Y009670D01*
X006835Y009669D01*
X006868Y009636D01*
X006900Y009603D01*
X006901Y009603D01*
X006902Y009602D01*
X006945Y009584D01*
X006988Y009566D01*
X006989Y009566D01*
X006991Y009565D01*
X007037Y009565D01*
X007083Y009564D01*
X007085Y009565D01*
X007189Y009565D01*
X007189Y009366D01*
X007685Y009366D01*
X007685Y009290D01*
X007189Y009290D01*
X007189Y009068D01*
X007201Y009022D01*
X007225Y008981D01*
X007259Y008947D01*
X007300Y008924D01*
X007345Y008911D01*
X007685Y008911D01*
X007685Y009290D01*
X007762Y009290D01*
X007762Y009366D01*
X008258Y009366D01*
X008258Y009565D01*
X009298Y009565D01*
X009298Y008534D01*
X008988Y008241D01*
X008724Y008229D01*
X008406Y008229D01*
X008435Y008257D01*
X008435Y008587D01*
X008383Y008639D01*
X008435Y008690D01*
X008435Y009020D01*
X008341Y009114D01*
X008258Y009114D01*
X008258Y009290D01*
X007762Y009290D01*
X007762Y008911D01*
X007819Y008911D01*
X007819Y008690D01*
X007871Y008639D01*
X007819Y008587D01*
X007819Y008257D01*
X007871Y008206D01*
X007819Y008154D01*
X007819Y007824D01*
X007857Y007787D01*
X007835Y007765D01*
X007812Y007724D01*
X007799Y007678D01*
X007799Y007556D01*
X007799Y007434D01*
X007812Y007388D01*
X007826Y007363D01*
X007627Y007363D01*
X007627Y007372D01*
X007575Y007497D01*
X007480Y007592D01*
X007356Y007643D01*
X007221Y007643D01*
X007097Y007592D01*
X007001Y007497D01*
X006950Y007372D01*
X006950Y007238D01*
X007001Y007113D01*
X007097Y007018D01*
X007221Y006967D01*
X007287Y006967D01*
X007294Y006960D01*
X006987Y006960D01*
X006980Y006967D01*
X006856Y007018D01*
X006721Y007018D01*
X006597Y006967D01*
X006501Y006872D01*
X006450Y006747D01*
X006450Y006613D01*
X006501Y006488D01*
X006508Y006481D01*
X006508Y004874D01*
X006551Y004771D01*
X006630Y004693D01*
X006733Y004650D01*
X010094Y004650D01*
X010197Y004693D01*
X010654Y005150D01*
X012752Y005150D01*
X012735Y005133D01*
X012680Y005001D01*
X012680Y004859D01*
X012735Y004727D01*
X012798Y004664D01*
X012798Y004530D01*
X012742Y004530D01*
X012738Y004526D01*
X012735Y004530D01*
X012142Y004530D01*
X012048Y004436D01*
X012048Y003674D01*
X012142Y003580D01*
X012182Y003580D01*
X012175Y003357D01*
X012173Y003353D01*
X012173Y003309D01*
X012172Y003265D01*
X012173Y003261D01*
X012173Y003257D01*
X012190Y003217D01*
X012206Y003176D01*
X012208Y003173D01*
X012210Y003169D01*
X012241Y003138D01*
X012271Y003106D01*
X012275Y003104D01*
X012402Y002977D01*
X012491Y002940D01*
X013439Y002940D01*
X013793Y002586D01*
X013578Y002371D01*
X013578Y001989D01*
X013848Y001720D01*
X014229Y001720D01*
X014498Y001989D01*
X014498Y002371D01*
X014278Y002591D01*
X014278Y002728D01*
X014242Y002816D01*
X013742Y003316D01*
X013674Y003383D01*
X013586Y003420D01*
X012657Y003420D01*
X012663Y003580D01*
X012735Y003580D01*
X012738Y003584D01*
X012742Y003580D01*
X013335Y003580D01*
X013338Y003584D01*
X013342Y003580D01*
X013935Y003580D01*
X014028Y003674D01*
X014028Y003815D01*
X014314Y003815D01*
X014798Y003331D01*
X014798Y002591D01*
X014578Y002371D01*
X014578Y001989D01*
X014848Y001720D01*
X015229Y001720D01*
X015498Y001989D01*
X015498Y002371D01*
X015278Y002591D01*
X015278Y003478D01*
X015242Y003566D01*
X014617Y004191D01*
X014549Y004258D01*
X014461Y004295D01*
X014028Y004295D01*
X014028Y004436D01*
X013935Y004530D01*
X013342Y004530D01*
X013338Y004526D01*
X013335Y004530D01*
X013278Y004530D01*
X013278Y004664D01*
X013342Y004727D01*
X013396Y004859D01*
X013396Y005001D01*
X013342Y005133D01*
X013325Y005150D01*
X014172Y005150D01*
X015880Y003443D01*
X015983Y003400D01*
X025422Y003400D01*
X025801Y003021D01*
X025880Y002943D01*
X025983Y002900D01*
X027170Y002900D01*
X027170Y002461D01*
X027263Y002367D01*
X028813Y002367D01*
X028907Y002461D01*
X028907Y003459D01*
X028813Y003553D01*
X028318Y003553D01*
X028318Y004800D01*
X028345Y004800D01*
X028438Y004894D01*
X028438Y005906D01*
X028345Y006000D01*
X027732Y006000D01*
X027638Y005906D01*
X027638Y004894D01*
X027732Y004800D01*
X027758Y004800D01*
X027758Y003553D01*
X027263Y003553D01*
X027170Y003460D01*
X026154Y003460D01*
X025697Y003917D01*
X025594Y003960D01*
X016154Y003960D01*
X014526Y005589D01*
X013318Y006796D01*
X013318Y009421D01*
X013347Y009393D01*
X013471Y009342D01*
X013606Y009342D01*
X013730Y009393D01*
X013777Y009440D01*
X014336Y009440D01*
X014424Y009477D01*
X015174Y010227D01*
X015242Y010294D01*
X015278Y010382D01*
X015278Y010691D01*
X015291Y010704D01*
X015298Y010660D01*
X015298Y010632D01*
X015306Y010613D01*
X015309Y010593D01*
X015324Y010570D01*
X015335Y010544D01*
X015349Y010530D01*
X015360Y010512D01*
X015383Y010496D01*
X015402Y010477D01*
X015421Y010469D01*
X015438Y010457D01*
X015465Y010451D01*
X015491Y010440D01*
X015511Y010440D01*
X015531Y010435D01*
X015558Y010440D01*
X017048Y010440D01*
X017048Y005688D01*
X017046Y005648D01*
X017048Y005641D01*
X017048Y005632D01*
X017064Y005596D01*
X017076Y005558D01*
X017082Y005552D01*
X017085Y005544D01*
X017113Y005516D01*
X017957Y004552D01*
X017960Y004544D01*
X017988Y004516D01*
X018014Y004486D01*
X018022Y004482D01*
X018027Y004477D01*
X018064Y004461D01*
X018100Y004444D01*
X018108Y004443D01*
X018116Y004440D01*
X018155Y004440D01*
X018195Y004437D01*
X018203Y004440D01*
X019336Y004440D01*
X019424Y004477D01*
X019492Y004544D01*
X019528Y004632D01*
X019528Y005441D01*
X021961Y005454D01*
X022007Y005408D01*
X022131Y005357D01*
X022266Y005357D01*
X022390Y005408D01*
X022485Y005503D01*
X022537Y005628D01*
X022537Y005762D01*
X022496Y005860D01*
X023927Y005860D01*
X023971Y005842D01*
X024106Y005842D01*
X024150Y005860D01*
X026728Y005860D01*
X026728Y004894D01*
X026822Y004800D01*
X027435Y004800D01*
X027528Y004894D01*
X027528Y005906D01*
X027435Y006000D01*
X027378Y006000D01*
X027378Y006475D01*
X027737Y006475D01*
X027774Y006512D01*
X027796Y006491D01*
X027837Y006467D01*
X027883Y006455D01*
X028114Y006455D01*
X028114Y006882D01*
X028210Y006882D01*
X028210Y006455D01*
X028442Y006455D01*
X028488Y006467D01*
X028529Y006491D01*
X028562Y006524D01*
X028586Y006565D01*
X028598Y006611D01*
X028598Y006882D01*
X028210Y006882D01*
X028210Y006978D01*
X028114Y006978D01*
X028114Y007405D01*
X027883Y007405D01*
X027837Y007393D01*
X027796Y007369D01*
X027774Y007348D01*
X027737Y007385D01*
X027358Y007385D01*
X027358Y007860D01*
X028906Y007860D01*
X029267Y007499D01*
X029357Y007409D01*
X029475Y007360D01*
X031102Y007360D01*
X031220Y007409D01*
X031310Y007499D01*
X031358Y007616D01*
X031358Y007617D01*
X031713Y007972D01*
X031729Y007980D01*
X031757Y008016D01*
X031790Y008049D01*
X031797Y008066D01*
X031808Y008080D01*
X031821Y008124D01*
X031838Y008166D01*
X031838Y008185D01*
X031843Y008202D01*
X031838Y008248D01*
X031838Y008294D01*
X031831Y008310D01*
X031828Y008338D01*
X031828Y009042D01*
X031799Y009070D01*
X031824Y009937D01*
X031828Y009928D01*
X031872Y009867D01*
X031926Y009814D01*
X031987Y009769D01*
X032054Y009735D01*
X032126Y009712D01*
X032201Y009700D01*
X032518Y009700D01*
X032518Y010160D01*
X032558Y010160D01*
X032558Y009700D01*
X032876Y009700D01*
X032951Y009712D01*
X033023Y009735D01*
X033090Y009769D01*
X033151Y009814D01*
X033178Y009841D01*
X033178Y007519D01*
X033151Y007546D01*
X033090Y007591D01*
X033023Y007625D01*
X032951Y007648D01*
X032876Y007660D01*
X032558Y007660D01*
X032558Y007200D01*
X032518Y007200D01*
X032518Y007160D01*
X031758Y007160D01*
X031758Y007142D01*
X031770Y007068D01*
X031794Y006996D01*
X031828Y006928D01*
X031872Y006867D01*
X031926Y006814D01*
X031987Y006769D01*
X032054Y006735D01*
X032126Y006712D01*
X032201Y006700D01*
X032518Y006700D01*
X032518Y007160D01*
X032558Y007160D01*
X032558Y006700D01*
X032876Y006700D01*
X032951Y006712D01*
X033023Y006735D01*
X033090Y006769D01*
X033151Y006814D01*
X033178Y006841D01*
X033178Y006490D01*
X033099Y006570D01*
X032930Y006640D01*
X032147Y006640D01*
X031978Y006570D01*
X031848Y006441D01*
X031778Y006271D01*
X031778Y006088D01*
X031848Y005919D01*
X031978Y005790D01*
X032147Y005720D01*
X032930Y005720D01*
X033099Y005790D01*
X033178Y005870D01*
X033178Y005490D01*
X033099Y005570D01*
X032930Y005640D01*
X032147Y005640D01*
X031978Y005570D01*
X031848Y005441D01*
X031778Y005271D01*
X031778Y005088D01*
X031848Y004919D01*
X031978Y004790D01*
X032147Y004720D01*
X032930Y004720D01*
X033099Y004790D01*
X033178Y004870D01*
X033178Y004490D01*
X033099Y004570D01*
X032930Y004640D01*
X032147Y004640D01*
X031978Y004570D01*
X031848Y004441D01*
X031778Y004271D01*
X031778Y004088D01*
X031848Y003919D01*
X031978Y003790D01*
X032147Y003720D01*
X032930Y003720D01*
X033099Y003790D01*
X033178Y003870D01*
X033178Y002079D01*
X032983Y002160D01*
X032593Y002160D01*
X032233Y002011D01*
X031958Y001735D01*
X031808Y001375D01*
X031808Y000985D01*
X031943Y000660D01*
X004134Y000660D01*
X004268Y000985D01*
X004263Y000973D02*
X009567Y000973D01*
X009726Y000814D02*
X004198Y000814D01*
X004268Y001290D02*
X009558Y001290D01*
X009558Y001379D02*
X009558Y001200D01*
X010018Y001200D01*
X010018Y001160D01*
X010058Y001160D01*
X010058Y000700D01*
X010237Y000700D01*
X010518Y000981D01*
X010518Y001160D01*
X010058Y001160D01*
X010058Y001200D01*
X010018Y001200D01*
X010018Y001660D01*
X009840Y001660D01*
X009558Y001379D01*
X009628Y001448D02*
X004238Y001448D01*
X004172Y001607D02*
X009786Y001607D01*
X009848Y001720D02*
X010229Y001720D01*
X010498Y001989D01*
X010498Y002371D01*
X010229Y002640D01*
X009848Y002640D01*
X009578Y002371D01*
X009578Y001989D01*
X009848Y001720D01*
X009803Y001765D02*
X004089Y001765D01*
X003931Y001924D02*
X009644Y001924D01*
X009578Y002082D02*
X003672Y002082D01*
X002905Y002082D02*
X002768Y002082D01*
X002768Y002241D02*
X009578Y002241D01*
X009607Y002399D02*
X002768Y002399D01*
X002768Y002558D02*
X009765Y002558D01*
X010311Y002558D02*
X010765Y002558D01*
X010848Y002640D02*
X010578Y002371D01*
X010578Y001989D01*
X010848Y001720D01*
X011229Y001720D01*
X011498Y001989D01*
X011498Y002371D01*
X011229Y002640D01*
X010848Y002640D01*
X011311Y002558D02*
X011765Y002558D01*
X011848Y002640D02*
X011578Y002371D01*
X011578Y001989D01*
X011848Y001720D01*
X012229Y001720D01*
X012498Y001989D01*
X012498Y002371D01*
X012229Y002640D01*
X011848Y002640D01*
X012311Y002558D02*
X012765Y002558D01*
X012848Y002640D02*
X012578Y002371D01*
X012578Y001989D01*
X012848Y001720D01*
X013229Y001720D01*
X013498Y001989D01*
X013498Y002371D01*
X013229Y002640D01*
X012848Y002640D01*
X013311Y002558D02*
X013765Y002558D01*
X013663Y002716D02*
X002768Y002716D01*
X002768Y002875D02*
X003489Y002875D01*
X003485Y002879D02*
X003518Y002845D01*
X003559Y002821D01*
X003605Y002809D01*
X004024Y002809D01*
X004024Y003187D01*
X004100Y003187D01*
X004100Y002809D01*
X004519Y002809D01*
X004565Y002821D01*
X004606Y002845D01*
X004639Y002879D01*
X004663Y002920D01*
X004675Y002965D01*
X004675Y003187D01*
X004100Y003187D01*
X004100Y003263D01*
X004675Y003263D01*
X004675Y003485D01*
X004663Y003531D01*
X004639Y003572D01*
X004606Y003606D01*
X004565Y003629D01*
X004519Y003641D01*
X004100Y003641D01*
X004100Y003263D01*
X004024Y003263D01*
X004024Y003187D01*
X003449Y003187D01*
X003449Y002965D01*
X003461Y002920D01*
X003485Y002879D01*
X003449Y003033D02*
X002768Y003033D01*
X002768Y003192D02*
X004024Y003192D01*
X004024Y003263D02*
X003449Y003263D01*
X003449Y003485D01*
X003461Y003531D01*
X003485Y003572D01*
X003518Y003606D01*
X003559Y003629D01*
X003605Y003641D01*
X004024Y003641D01*
X004024Y003263D01*
X004024Y003350D02*
X004100Y003350D01*
X004100Y003192D02*
X012200Y003192D01*
X012173Y003350D02*
X008297Y003350D01*
X008297Y003349D02*
X008297Y003620D01*
X007889Y003620D01*
X007889Y003193D01*
X008141Y003193D01*
X008187Y003205D01*
X008228Y003229D01*
X008261Y003262D01*
X008285Y003303D01*
X008297Y003349D01*
X008297Y003509D02*
X012180Y003509D01*
X012055Y003667D02*
X007889Y003667D01*
X007889Y003620D02*
X007889Y003756D01*
X007754Y003756D01*
X007754Y004183D01*
X007503Y004183D01*
X007457Y004171D01*
X007416Y004147D01*
X007383Y004113D01*
X007359Y004072D01*
X007347Y004027D01*
X007347Y003756D01*
X007754Y003756D01*
X007754Y003620D01*
X007889Y003620D01*
X007889Y003509D02*
X007754Y003509D01*
X007754Y003620D02*
X007754Y003193D01*
X007503Y003193D01*
X007457Y003205D01*
X007416Y003229D01*
X007383Y003262D01*
X007359Y003303D01*
X007347Y003349D01*
X007347Y003620D01*
X007754Y003620D01*
X007754Y003667D02*
X002768Y003667D01*
X002768Y003509D02*
X003455Y003509D01*
X003449Y003350D02*
X002768Y003350D01*
X002768Y003826D02*
X007347Y003826D01*
X007347Y003984D02*
X002768Y003984D01*
X002768Y004143D02*
X007412Y004143D01*
X007754Y004143D02*
X007889Y004143D01*
X007889Y004183D02*
X007889Y003756D01*
X008297Y003756D01*
X008297Y004027D01*
X008285Y004072D01*
X008261Y004113D01*
X008228Y004147D01*
X008187Y004171D01*
X008141Y004183D01*
X007889Y004183D01*
X008232Y004143D02*
X012048Y004143D01*
X012048Y004301D02*
X002768Y004301D01*
X002768Y004460D02*
X012072Y004460D01*
X012714Y004777D02*
X010281Y004777D01*
X010439Y004935D02*
X012680Y004935D01*
X012718Y005094D02*
X010598Y005094D01*
X010123Y005411D02*
X008747Y005411D01*
X008730Y005393D02*
X008825Y005488D01*
X008877Y005613D01*
X008877Y005747D01*
X008825Y005872D01*
X008730Y005967D01*
X008606Y006018D01*
X008471Y006018D01*
X008424Y005999D01*
X008383Y006040D01*
X008408Y006065D01*
X008461Y006065D01*
X008549Y006102D01*
X008617Y006169D01*
X010742Y008294D01*
X010778Y008382D01*
X010778Y008581D01*
X011039Y008842D01*
X011106Y008842D01*
X011230Y008893D01*
X011325Y008988D01*
X011377Y009113D01*
X011377Y009247D01*
X011325Y009372D01*
X011230Y009467D01*
X011106Y009518D01*
X010971Y009518D01*
X010847Y009467D01*
X010751Y009372D01*
X010700Y009247D01*
X010700Y009181D01*
X010335Y008816D01*
X010298Y008728D01*
X010298Y008529D01*
X008435Y006666D01*
X008435Y006855D01*
X008383Y006906D01*
X008435Y006958D01*
X008435Y007288D01*
X008397Y007325D01*
X008419Y007347D01*
X008442Y007388D01*
X008455Y007434D01*
X008455Y007556D01*
X008455Y007678D01*
X008442Y007724D01*
X008428Y007749D01*
X008687Y007749D01*
X008693Y007747D01*
X008735Y007749D01*
X008777Y007749D01*
X008782Y007751D01*
X009090Y007766D01*
X009128Y007764D01*
X009137Y007768D01*
X009146Y007768D01*
X009181Y007785D01*
X009217Y007798D01*
X009224Y007805D01*
X009233Y007809D01*
X009259Y007837D01*
X009671Y008225D01*
X009674Y008227D01*
X009706Y008258D01*
X009738Y008288D01*
X009739Y008291D01*
X009742Y008294D01*
X009759Y008335D01*
X009777Y008375D01*
X009777Y008379D01*
X009778Y008382D01*
X009778Y008426D01*
X009780Y008470D01*
X009778Y008474D01*
X009778Y009831D01*
X010138Y010190D01*
X011934Y010190D01*
X011880Y010167D01*
X011801Y010089D01*
X011758Y009986D01*
X011758Y009874D01*
X011801Y009771D01*
X011833Y009739D01*
X011833Y009232D01*
X011871Y009194D01*
X011849Y009172D01*
X011825Y009131D01*
X011813Y009086D01*
X011813Y008854D01*
X012240Y008854D01*
X012240Y008758D01*
X011813Y008758D01*
X011813Y008526D01*
X011825Y008481D01*
X011849Y008440D01*
X011883Y008406D01*
X011924Y008382D01*
X011969Y008370D01*
X012240Y008370D01*
X012240Y008758D01*
X012336Y008758D01*
X012336Y008370D01*
X012607Y008370D01*
X012653Y008382D01*
X012694Y008406D01*
X012728Y008440D01*
X012751Y008481D01*
X012758Y008507D01*
X012758Y006624D01*
X012801Y006521D01*
X012880Y006443D01*
X013612Y005710D01*
X010483Y005710D01*
X010380Y005667D01*
X010301Y005589D01*
X009922Y005210D01*
X008419Y005210D01*
X008435Y005226D01*
X008435Y005357D01*
X008471Y005342D01*
X008606Y005342D01*
X008730Y005393D01*
X008859Y005569D02*
X010281Y005569D01*
X009964Y005252D02*
X008435Y005252D01*
X008538Y005680D02*
X008271Y005680D01*
X008127Y005824D01*
X008387Y006045D02*
X013278Y006045D01*
X013119Y006203D02*
X008651Y006203D01*
X008809Y006362D02*
X012961Y006362D01*
X012802Y006520D02*
X008968Y006520D01*
X009126Y006679D02*
X012758Y006679D01*
X012758Y006837D02*
X009285Y006837D01*
X009443Y006996D02*
X012758Y006996D01*
X012758Y007154D02*
X009602Y007154D01*
X009760Y007313D02*
X012758Y007313D01*
X012758Y007471D02*
X009919Y007471D01*
X010077Y007630D02*
X012758Y007630D01*
X012758Y007788D02*
X010236Y007788D01*
X010394Y007947D02*
X012758Y007947D01*
X012758Y008105D02*
X010553Y008105D01*
X010711Y008264D02*
X012758Y008264D01*
X012758Y008422D02*
X012710Y008422D01*
X012336Y008422D02*
X012240Y008422D01*
X012240Y008581D02*
X012336Y008581D01*
X012336Y008739D02*
X012240Y008739D01*
X011813Y008739D02*
X010937Y008739D01*
X010778Y008581D02*
X011813Y008581D01*
X011867Y008422D02*
X010778Y008422D01*
X010538Y008430D02*
X008413Y006305D01*
X008175Y006305D01*
X008127Y006257D01*
X008117Y006680D02*
X008127Y006690D01*
X008435Y006679D02*
X008447Y006679D01*
X008435Y006837D02*
X008606Y006837D01*
X008764Y006996D02*
X008435Y006996D01*
X008435Y007154D02*
X008923Y007154D01*
X009081Y007313D02*
X008410Y007313D01*
X008127Y007123D02*
X007470Y007123D01*
X007288Y007305D01*
X006950Y007313D02*
X002768Y007313D01*
X002768Y007154D02*
X006985Y007154D01*
X006911Y006996D02*
X007151Y006996D01*
X006666Y006996D02*
X002768Y006996D01*
X002768Y006837D02*
X006487Y006837D01*
X006450Y006679D02*
X002768Y006679D01*
X002768Y006520D02*
X006488Y006520D01*
X006508Y006362D02*
X002768Y006362D01*
X002768Y006203D02*
X006508Y006203D01*
X006508Y006045D02*
X002768Y006045D01*
X002768Y005886D02*
X006508Y005886D01*
X006508Y005728D02*
X002768Y005728D01*
X002768Y005569D02*
X006508Y005569D01*
X006508Y005411D02*
X002768Y005411D01*
X002768Y005252D02*
X006508Y005252D01*
X006508Y005094D02*
X002768Y005094D01*
X002768Y004935D02*
X006508Y004935D01*
X006549Y004777D02*
X002768Y004777D01*
X002768Y004618D02*
X012798Y004618D01*
X013038Y004930D02*
X013038Y004055D01*
X012438Y004055D02*
X012413Y003305D01*
X012538Y003180D01*
X013538Y003180D01*
X014038Y002680D01*
X014038Y002180D01*
X013578Y002241D02*
X013498Y002241D01*
X013498Y002082D02*
X013578Y002082D01*
X013644Y001924D02*
X013432Y001924D01*
X013274Y001765D02*
X013803Y001765D01*
X013840Y001660D02*
X013558Y001379D01*
X013558Y001200D01*
X014018Y001200D01*
X014018Y001160D01*
X013558Y001160D01*
X013558Y000981D01*
X013840Y000700D01*
X014018Y000700D01*
X014018Y001160D01*
X014058Y001160D01*
X014058Y000700D01*
X014237Y000700D01*
X014518Y000981D01*
X014518Y001160D01*
X014058Y001160D01*
X014058Y001200D01*
X014018Y001200D01*
X014018Y001660D01*
X013840Y001660D01*
X013786Y001607D02*
X013291Y001607D01*
X013237Y001660D02*
X013058Y001660D01*
X013058Y001200D01*
X013018Y001200D01*
X013018Y001160D01*
X012558Y001160D01*
X012558Y000981D01*
X012840Y000700D01*
X013018Y000700D01*
X013018Y001160D01*
X013058Y001160D01*
X013058Y000700D01*
X013237Y000700D01*
X013518Y000981D01*
X013518Y001160D01*
X013058Y001160D01*
X013058Y001200D01*
X013518Y001200D01*
X013518Y001379D01*
X013237Y001660D01*
X013058Y001607D02*
X013018Y001607D01*
X013018Y001660D02*
X012840Y001660D01*
X012558Y001379D01*
X012558Y001200D01*
X013018Y001200D01*
X013018Y001660D01*
X013018Y001448D02*
X013058Y001448D01*
X012786Y001607D02*
X012291Y001607D01*
X012237Y001660D02*
X012058Y001660D01*
X012058Y001200D01*
X012018Y001200D01*
X012018Y001160D01*
X011558Y001160D01*
X011558Y000981D01*
X011840Y000700D01*
X012018Y000700D01*
X012018Y001160D01*
X012058Y001160D01*
X012058Y000700D01*
X012237Y000700D01*
X012518Y000981D01*
X012518Y001160D01*
X012058Y001160D01*
X012058Y001200D01*
X012518Y001200D01*
X012518Y001379D01*
X012237Y001660D01*
X012274Y001765D02*
X012803Y001765D01*
X012644Y001924D02*
X012432Y001924D01*
X012498Y002082D02*
X012578Y002082D01*
X012578Y002241D02*
X012498Y002241D01*
X012470Y002399D02*
X012607Y002399D01*
X013470Y002399D02*
X013607Y002399D01*
X014311Y002558D02*
X014765Y002558D01*
X014798Y002716D02*
X014278Y002716D01*
X014183Y002875D02*
X014798Y002875D01*
X014798Y003033D02*
X014025Y003033D01*
X013866Y003192D02*
X014798Y003192D01*
X014779Y003350D02*
X013708Y003350D01*
X013742Y003316D02*
X013742Y003316D01*
X014022Y003667D02*
X014462Y003667D01*
X014620Y003509D02*
X012660Y003509D01*
X012048Y003826D02*
X008297Y003826D01*
X008297Y003984D02*
X012048Y003984D01*
X013278Y004618D02*
X014704Y004618D01*
X014546Y004777D02*
X013362Y004777D01*
X013396Y004935D02*
X014387Y004935D01*
X014229Y005094D02*
X013358Y005094D01*
X013595Y005728D02*
X008877Y005728D01*
X008811Y005886D02*
X013436Y005886D01*
X014070Y006045D02*
X017048Y006045D01*
X017048Y006203D02*
X013911Y006203D01*
X013753Y006362D02*
X017048Y006362D01*
X017048Y006520D02*
X013594Y006520D01*
X013436Y006679D02*
X017048Y006679D01*
X017048Y006837D02*
X013318Y006837D01*
X013318Y006996D02*
X017048Y006996D01*
X017048Y007154D02*
X013318Y007154D01*
X013318Y007313D02*
X017048Y007313D01*
X017048Y007471D02*
X013318Y007471D01*
X013318Y007630D02*
X017048Y007630D01*
X017048Y007788D02*
X013318Y007788D01*
X013318Y007947D02*
X017048Y007947D01*
X017048Y008105D02*
X013318Y008105D01*
X013318Y008264D02*
X017048Y008264D01*
X017048Y008422D02*
X013318Y008422D01*
X013318Y008581D02*
X017048Y008581D01*
X017048Y008739D02*
X013318Y008739D01*
X013318Y008898D02*
X017048Y008898D01*
X017048Y009056D02*
X013318Y009056D01*
X013318Y009215D02*
X017048Y009215D01*
X017048Y009373D02*
X013682Y009373D01*
X013395Y009373D02*
X013318Y009373D01*
X013538Y009680D02*
X014288Y009680D01*
X015038Y010430D01*
X015038Y010930D01*
X015278Y010641D02*
X015298Y010641D01*
X015538Y010680D02*
X017288Y010680D01*
X017288Y005680D01*
X018163Y004680D01*
X019288Y004680D01*
X019288Y005680D01*
X022198Y005695D01*
X022513Y005569D02*
X026728Y005569D01*
X026728Y005411D02*
X022392Y005411D01*
X022004Y005411D02*
X019528Y005411D01*
X019528Y005252D02*
X026728Y005252D01*
X026728Y005094D02*
X019528Y005094D01*
X019528Y004935D02*
X026728Y004935D01*
X027528Y004935D02*
X027638Y004935D01*
X027638Y005094D02*
X027528Y005094D01*
X027528Y005252D02*
X027638Y005252D01*
X027638Y005411D02*
X027528Y005411D01*
X027528Y005569D02*
X027638Y005569D01*
X027638Y005728D02*
X027528Y005728D01*
X027528Y005886D02*
X027638Y005886D01*
X027378Y006045D02*
X031797Y006045D01*
X031778Y006203D02*
X027378Y006203D01*
X027378Y006362D02*
X031816Y006362D01*
X031928Y006520D02*
X028558Y006520D01*
X028598Y006679D02*
X033178Y006679D01*
X033174Y006837D02*
X033178Y006837D01*
X033178Y006520D02*
X033149Y006520D01*
X032558Y006837D02*
X032518Y006837D01*
X032518Y006996D02*
X032558Y006996D01*
X032558Y007154D02*
X032518Y007154D01*
X032518Y007200D02*
X031758Y007200D01*
X031758Y007218D01*
X031770Y007292D01*
X031794Y007364D01*
X031828Y007432D01*
X031872Y007493D01*
X031926Y007546D01*
X031987Y007591D01*
X032054Y007625D01*
X032126Y007648D01*
X032201Y007660D01*
X032518Y007660D01*
X032518Y007200D01*
X032518Y007313D02*
X032558Y007313D01*
X032558Y007471D02*
X032518Y007471D01*
X032518Y007630D02*
X032558Y007630D01*
X033008Y007630D02*
X033178Y007630D01*
X033178Y007788D02*
X031529Y007788D01*
X031687Y007947D02*
X033178Y007947D01*
X033178Y008105D02*
X031815Y008105D01*
X031838Y008264D02*
X033178Y008264D01*
X033178Y008422D02*
X031828Y008422D01*
X031828Y008581D02*
X033178Y008581D01*
X033178Y008739D02*
X031828Y008739D01*
X031828Y008898D02*
X033178Y008898D01*
X033178Y009056D02*
X031814Y009056D01*
X031803Y009215D02*
X033178Y009215D01*
X033178Y009373D02*
X031808Y009373D01*
X031812Y009532D02*
X033178Y009532D01*
X033178Y009690D02*
X031817Y009690D01*
X031821Y009849D02*
X031891Y009849D01*
X032518Y009849D02*
X032558Y009849D01*
X032558Y010007D02*
X032518Y010007D01*
X032518Y010200D02*
X032518Y010660D01*
X032201Y010660D01*
X032126Y010648D01*
X032054Y010625D01*
X031987Y010591D01*
X031926Y010546D01*
X031872Y010493D01*
X031838Y010445D01*
X031850Y010860D01*
X031908Y010860D01*
X031978Y010790D01*
X032147Y010720D01*
X032930Y010720D01*
X033099Y010790D01*
X033178Y010870D01*
X033178Y010519D01*
X033151Y010546D01*
X033090Y010591D01*
X033023Y010625D01*
X032951Y010648D01*
X032876Y010660D01*
X032558Y010660D01*
X032558Y010200D01*
X032518Y010200D01*
X032518Y010324D02*
X032558Y010324D01*
X032558Y010483D02*
X032518Y010483D01*
X032518Y010641D02*
X032558Y010641D01*
X032973Y010641D02*
X033178Y010641D01*
X033178Y010800D02*
X033108Y010800D01*
X032104Y010641D02*
X031843Y010641D01*
X031848Y010800D02*
X031968Y010800D01*
X031208Y010800D02*
X027818Y010800D01*
X027818Y010686D02*
X027818Y012446D01*
X027924Y012490D01*
X028053Y012619D01*
X028123Y012788D01*
X028123Y013571D01*
X028072Y013696D01*
X028255Y013696D01*
X028203Y013571D01*
X028203Y012788D01*
X028273Y012619D01*
X028403Y012490D01*
X028423Y012482D01*
X028423Y012016D01*
X028348Y011941D01*
X028278Y011771D01*
X028278Y011588D01*
X028348Y011419D01*
X028478Y011290D01*
X028647Y011220D01*
X029430Y011220D01*
X029599Y011290D01*
X029728Y011419D01*
X029798Y011588D01*
X029798Y011771D01*
X029728Y011941D01*
X029599Y012070D01*
X029430Y012140D01*
X028918Y012140D01*
X028903Y012154D01*
X028903Y012482D01*
X028924Y012490D01*
X029053Y012619D01*
X029123Y012788D01*
X029123Y013571D01*
X029072Y013696D01*
X029255Y013696D01*
X029203Y013571D01*
X029203Y012788D01*
X029223Y012740D01*
X029213Y012698D01*
X029213Y012697D01*
X029213Y012696D01*
X029222Y012634D01*
X029231Y012572D01*
X029231Y012571D01*
X029231Y012570D01*
X029264Y012516D01*
X029295Y012462D01*
X029296Y012462D01*
X029297Y012461D01*
X029347Y012423D01*
X031214Y011023D01*
X031161Y009135D01*
X031090Y009135D01*
X031038Y009083D01*
X030987Y009135D01*
X030778Y009135D01*
X030778Y009728D01*
X030742Y009816D01*
X030674Y009883D01*
X030586Y009920D01*
X030498Y009920D01*
X030498Y010071D01*
X030428Y010241D01*
X030299Y010370D01*
X030130Y010440D01*
X029947Y010440D01*
X029778Y010370D01*
X029648Y010241D01*
X029578Y010071D01*
X029578Y009288D01*
X029648Y009119D01*
X029778Y008990D01*
X029947Y008920D01*
X030130Y008920D01*
X030248Y008969D01*
X030248Y008318D01*
X030342Y008225D01*
X030987Y008225D01*
X031038Y008277D01*
X031075Y008240D01*
X030836Y008000D01*
X029671Y008000D01*
X029220Y008451D01*
X029102Y008500D01*
X026975Y008500D01*
X026857Y008451D01*
X026767Y008361D01*
X026718Y008244D01*
X026718Y007126D01*
X026738Y007078D01*
X026738Y006682D01*
X026728Y006658D01*
X026728Y006562D01*
X026738Y006538D01*
X026738Y006500D01*
X024150Y006500D01*
X024106Y006518D01*
X023971Y006518D01*
X023963Y006515D01*
X023992Y006544D01*
X027585Y010137D01*
X027570Y010092D01*
X027558Y010018D01*
X027558Y009700D01*
X028018Y009700D01*
X028018Y009660D01*
X027558Y009660D01*
X027558Y009342D01*
X027570Y009268D01*
X027594Y009196D01*
X027628Y009128D01*
X027672Y009067D01*
X027726Y009014D01*
X027787Y008969D01*
X027854Y008935D01*
X027926Y008912D01*
X028001Y008900D01*
X028018Y008900D01*
X028018Y009660D01*
X028058Y009660D01*
X028058Y008900D01*
X028076Y008900D01*
X028151Y008912D01*
X028223Y008935D01*
X028290Y008969D01*
X028351Y009014D01*
X028405Y009067D01*
X028449Y009128D01*
X028483Y009196D01*
X028507Y009268D01*
X028518Y009342D01*
X028518Y009660D01*
X028058Y009660D01*
X028058Y009700D01*
X028018Y009700D01*
X028018Y010460D01*
X028001Y010460D01*
X027926Y010448D01*
X027854Y010425D01*
X027854Y010425D01*
X027877Y010481D01*
X027877Y010576D01*
X027840Y010664D01*
X027818Y010686D01*
X027850Y010641D02*
X031203Y010641D01*
X031199Y010483D02*
X027877Y010483D01*
X028058Y010460D02*
X028058Y009700D01*
X028518Y009700D01*
X028518Y010018D01*
X028507Y010092D01*
X028483Y010164D01*
X028449Y010232D01*
X028405Y010293D01*
X028351Y010346D01*
X028290Y010391D01*
X028223Y010425D01*
X028151Y010448D01*
X028076Y010460D01*
X028058Y010460D01*
X028058Y010324D02*
X028018Y010324D01*
X028018Y010166D02*
X028058Y010166D01*
X028058Y010007D02*
X028018Y010007D01*
X028018Y009849D02*
X028058Y009849D01*
X028058Y009690D02*
X029578Y009690D01*
X029578Y009532D02*
X028518Y009532D01*
X028518Y009373D02*
X029578Y009373D01*
X029609Y009215D02*
X028489Y009215D01*
X028393Y009056D02*
X029712Y009056D01*
X030248Y008898D02*
X026345Y008898D01*
X026187Y008739D02*
X030248Y008739D01*
X030248Y008581D02*
X026028Y008581D01*
X025870Y008422D02*
X026828Y008422D01*
X026727Y008264D02*
X025711Y008264D01*
X025553Y008105D02*
X026718Y008105D01*
X026718Y007947D02*
X025394Y007947D01*
X025236Y007788D02*
X026718Y007788D01*
X026718Y007630D02*
X025077Y007630D01*
X024919Y007471D02*
X026718Y007471D01*
X026718Y007313D02*
X024760Y007313D01*
X024602Y007154D02*
X026718Y007154D01*
X026738Y006996D02*
X024443Y006996D01*
X024285Y006837D02*
X026738Y006837D01*
X026737Y006679D02*
X024126Y006679D01*
X023968Y006520D02*
X026738Y006520D01*
X026968Y006610D02*
X027058Y006610D01*
X027058Y006700D01*
X027058Y006930D02*
X027414Y006930D01*
X028114Y006996D02*
X028210Y006996D01*
X028210Y006978D02*
X028210Y007405D01*
X028442Y007405D01*
X028488Y007393D01*
X028529Y007369D01*
X028562Y007336D01*
X028586Y007295D01*
X028598Y007249D01*
X028598Y006978D01*
X028210Y006978D01*
X028210Y006837D02*
X028114Y006837D01*
X028114Y006679D02*
X028210Y006679D01*
X028210Y006520D02*
X028114Y006520D01*
X028598Y006837D02*
X031903Y006837D01*
X031794Y006996D02*
X028598Y006996D01*
X028598Y007154D02*
X031758Y007154D01*
X031777Y007313D02*
X028576Y007313D01*
X028210Y007313D02*
X028114Y007313D01*
X028114Y007154D02*
X028210Y007154D01*
X027358Y007471D02*
X029295Y007471D01*
X029136Y007630D02*
X027358Y007630D01*
X027358Y007788D02*
X028978Y007788D01*
X029566Y008105D02*
X030941Y008105D01*
X031025Y008264D02*
X031051Y008264D01*
X030303Y008264D02*
X029407Y008264D01*
X029249Y008422D02*
X030248Y008422D01*
X030664Y008680D02*
X030538Y008930D01*
X030538Y009680D01*
X030038Y009680D01*
X029578Y009849D02*
X028518Y009849D01*
X028518Y010007D02*
X029578Y010007D01*
X029617Y010166D02*
X028483Y010166D01*
X028373Y010324D02*
X029732Y010324D01*
X030345Y010324D02*
X031194Y010324D01*
X031190Y010166D02*
X030459Y010166D01*
X030498Y010007D02*
X031185Y010007D01*
X031181Y009849D02*
X030709Y009849D01*
X030778Y009690D02*
X031177Y009690D01*
X031172Y009532D02*
X030778Y009532D01*
X030778Y009373D02*
X031168Y009373D01*
X031163Y009215D02*
X030778Y009215D01*
X031412Y008680D02*
X031468Y008680D01*
X031370Y007630D02*
X032069Y007630D01*
X031857Y007471D02*
X031282Y007471D01*
X030230Y005967D02*
X030106Y006018D01*
X029971Y006018D01*
X029847Y005967D01*
X029751Y005872D01*
X029700Y005747D01*
X029700Y005613D01*
X029751Y005488D01*
X029798Y005441D01*
X029798Y004919D01*
X029751Y004872D01*
X029700Y004747D01*
X029700Y004613D01*
X029751Y004488D01*
X029847Y004393D01*
X029971Y004342D01*
X030106Y004342D01*
X030230Y004393D01*
X030325Y004488D01*
X030377Y004613D01*
X030377Y004747D01*
X030325Y004872D01*
X030278Y004919D01*
X030278Y005441D01*
X030325Y005488D01*
X030377Y005613D01*
X030377Y005747D01*
X030325Y005872D01*
X030230Y005967D01*
X030311Y005886D02*
X031882Y005886D01*
X032129Y005728D02*
X030377Y005728D01*
X030359Y005569D02*
X031977Y005569D01*
X031836Y005411D02*
X030278Y005411D01*
X030278Y005252D02*
X031778Y005252D01*
X031778Y005094D02*
X030278Y005094D01*
X030278Y004935D02*
X031842Y004935D01*
X032010Y004777D02*
X030365Y004777D01*
X030377Y004618D02*
X032094Y004618D01*
X031867Y004460D02*
X030296Y004460D01*
X030038Y004680D02*
X030038Y005680D01*
X029718Y005569D02*
X029368Y005569D01*
X029368Y005440D02*
X028988Y005440D01*
X028908Y005440D01*
X028908Y005360D01*
X028528Y005360D01*
X028528Y004936D01*
X028541Y004891D01*
X028564Y004849D01*
X028598Y004816D01*
X028639Y004792D01*
X028685Y004780D01*
X028908Y004780D01*
X028908Y005360D01*
X028988Y005360D01*
X028988Y004780D01*
X029212Y004780D01*
X029258Y004792D01*
X029299Y004816D01*
X029332Y004849D01*
X029356Y004891D01*
X029368Y004936D01*
X029368Y005360D01*
X028988Y005360D01*
X028988Y005440D01*
X028988Y006020D01*
X029212Y006020D01*
X029258Y006008D01*
X029299Y005984D01*
X029332Y005951D01*
X029356Y005909D01*
X029368Y005864D01*
X029368Y005440D01*
X029368Y005252D02*
X029798Y005252D01*
X029798Y005094D02*
X029368Y005094D01*
X029368Y004935D02*
X029798Y004935D01*
X029712Y004777D02*
X028318Y004777D01*
X028318Y004618D02*
X029700Y004618D01*
X029780Y004460D02*
X028318Y004460D01*
X027758Y004460D02*
X019383Y004460D01*
X019522Y004618D02*
X027758Y004618D01*
X027758Y004777D02*
X019528Y004777D01*
X018068Y004460D02*
X015655Y004460D01*
X015496Y004618D02*
X017899Y004618D01*
X017760Y004777D02*
X015338Y004777D01*
X015179Y004935D02*
X016276Y004935D01*
X016323Y004888D02*
X016463Y004830D01*
X016614Y004830D01*
X016754Y004888D01*
X016861Y004995D01*
X016918Y005134D01*
X016918Y005726D01*
X016861Y005865D01*
X016754Y005972D01*
X016614Y006030D01*
X016463Y006030D01*
X016323Y005972D01*
X016216Y005865D01*
X016158Y005726D01*
X016158Y005134D01*
X016216Y004995D01*
X016323Y004888D01*
X016175Y005094D02*
X015021Y005094D01*
X014862Y005252D02*
X016158Y005252D01*
X016158Y005411D02*
X014704Y005411D01*
X014545Y005569D02*
X016158Y005569D01*
X016159Y005728D02*
X014387Y005728D01*
X014228Y005886D02*
X016237Y005886D01*
X016840Y005886D02*
X017048Y005886D01*
X017048Y005728D02*
X016918Y005728D01*
X016918Y005569D02*
X017073Y005569D01*
X017205Y005411D02*
X016918Y005411D01*
X016918Y005252D02*
X017344Y005252D01*
X017483Y005094D02*
X016901Y005094D01*
X016801Y004935D02*
X017621Y004935D01*
X015972Y004143D02*
X027758Y004143D01*
X027758Y004301D02*
X015813Y004301D01*
X016130Y003984D02*
X027758Y003984D01*
X027758Y003826D02*
X025789Y003826D01*
X025947Y003667D02*
X027758Y003667D01*
X028318Y003667D02*
X033178Y003667D01*
X033178Y003509D02*
X028858Y003509D01*
X028907Y003350D02*
X033178Y003350D01*
X033178Y003192D02*
X028907Y003192D01*
X028907Y003033D02*
X033178Y003033D01*
X033178Y002875D02*
X028907Y002875D01*
X028907Y002716D02*
X033178Y002716D01*
X033178Y002558D02*
X028907Y002558D01*
X028845Y002399D02*
X033178Y002399D01*
X033178Y002241D02*
X026498Y002241D01*
X026498Y002371D02*
X026229Y002640D01*
X025848Y002640D01*
X025578Y002371D01*
X025578Y001989D01*
X025848Y001720D01*
X026229Y001720D01*
X026498Y001989D01*
X026498Y002371D01*
X026470Y002399D02*
X027231Y002399D01*
X027170Y002558D02*
X026311Y002558D01*
X025765Y002558D02*
X025311Y002558D01*
X025229Y002640D02*
X024848Y002640D01*
X024578Y002371D01*
X024578Y001989D01*
X024848Y001720D01*
X025229Y001720D01*
X025498Y001989D01*
X025498Y002371D01*
X025229Y002640D01*
X024765Y002558D02*
X024311Y002558D01*
X024229Y002640D02*
X023848Y002640D01*
X023578Y002371D01*
X023578Y001989D01*
X023848Y001720D01*
X024229Y001720D01*
X024498Y001989D01*
X024498Y002371D01*
X024229Y002640D01*
X023765Y002558D02*
X023311Y002558D01*
X023229Y002640D02*
X022848Y002640D01*
X022578Y002371D01*
X022578Y001989D01*
X022848Y001720D01*
X023229Y001720D01*
X023498Y001989D01*
X023498Y002371D01*
X023229Y002640D01*
X022765Y002558D02*
X022311Y002558D01*
X022229Y002640D02*
X021848Y002640D01*
X021578Y002371D01*
X021578Y001989D01*
X021848Y001720D01*
X022229Y001720D01*
X022498Y001989D01*
X022498Y002371D01*
X022229Y002640D01*
X021765Y002558D02*
X021311Y002558D01*
X021229Y002640D02*
X020848Y002640D01*
X020578Y002371D01*
X020578Y001989D01*
X020848Y001720D01*
X021229Y001720D01*
X021498Y001989D01*
X021498Y002371D01*
X021229Y002640D01*
X020765Y002558D02*
X020311Y002558D01*
X020229Y002640D02*
X019848Y002640D01*
X019578Y002371D01*
X019578Y001989D01*
X019848Y001720D01*
X020229Y001720D01*
X020498Y001989D01*
X020498Y002371D01*
X020229Y002640D01*
X019765Y002558D02*
X019311Y002558D01*
X019229Y002640D02*
X018848Y002640D01*
X018578Y002371D01*
X018578Y001989D01*
X018848Y001720D01*
X019229Y001720D01*
X019498Y001989D01*
X019498Y002371D01*
X019229Y002640D01*
X018765Y002558D02*
X018311Y002558D01*
X018229Y002640D02*
X017848Y002640D01*
X017578Y002371D01*
X017578Y001989D01*
X017848Y001720D01*
X018229Y001720D01*
X018498Y001989D01*
X018498Y002371D01*
X018229Y002640D01*
X017765Y002558D02*
X017311Y002558D01*
X017229Y002640D02*
X017498Y002371D01*
X017498Y001989D01*
X017229Y001720D01*
X016848Y001720D01*
X016578Y001989D01*
X016578Y002371D01*
X016848Y002640D01*
X017229Y002640D01*
X017470Y002399D02*
X017607Y002399D01*
X017578Y002241D02*
X017498Y002241D01*
X017498Y002082D02*
X017578Y002082D01*
X017644Y001924D02*
X017432Y001924D01*
X017274Y001765D02*
X017803Y001765D01*
X017840Y001660D02*
X017558Y001379D01*
X017558Y001200D01*
X018018Y001200D01*
X018018Y001160D01*
X017558Y001160D01*
X017558Y000981D01*
X017840Y000700D01*
X018018Y000700D01*
X018018Y001160D01*
X018058Y001160D01*
X018058Y000700D01*
X018237Y000700D01*
X018518Y000981D01*
X018518Y001160D01*
X018058Y001160D01*
X018058Y001200D01*
X018018Y001200D01*
X018018Y001660D01*
X017840Y001660D01*
X017786Y001607D02*
X017291Y001607D01*
X017237Y001660D02*
X017058Y001660D01*
X017058Y001200D01*
X017018Y001200D01*
X017018Y001160D01*
X016558Y001160D01*
X016558Y000981D01*
X016840Y000700D01*
X017018Y000700D01*
X017018Y001160D01*
X017058Y001160D01*
X017058Y000700D01*
X017237Y000700D01*
X017518Y000981D01*
X017518Y001160D01*
X017058Y001160D01*
X017058Y001200D01*
X017518Y001200D01*
X017518Y001379D01*
X017237Y001660D01*
X017058Y001607D02*
X017018Y001607D01*
X017018Y001660D02*
X016840Y001660D01*
X016558Y001379D01*
X016558Y001200D01*
X017018Y001200D01*
X017018Y001660D01*
X017018Y001448D02*
X017058Y001448D01*
X016786Y001607D02*
X016291Y001607D01*
X016237Y001660D02*
X016058Y001660D01*
X016058Y001200D01*
X016018Y001200D01*
X016018Y001160D01*
X015558Y001160D01*
X015558Y000981D01*
X015840Y000700D01*
X016018Y000700D01*
X016018Y001160D01*
X016058Y001160D01*
X016058Y000700D01*
X016237Y000700D01*
X016518Y000981D01*
X016518Y001160D01*
X016058Y001160D01*
X016058Y001200D01*
X016518Y001200D01*
X016518Y001379D01*
X016237Y001660D01*
X016229Y001720D02*
X016498Y001989D01*
X016498Y002371D01*
X016229Y002640D01*
X015848Y002640D01*
X015578Y002371D01*
X015578Y001989D01*
X015848Y001720D01*
X016229Y001720D01*
X016274Y001765D02*
X016803Y001765D01*
X016644Y001924D02*
X016432Y001924D01*
X016498Y002082D02*
X016578Y002082D01*
X016578Y002241D02*
X016498Y002241D01*
X016470Y002399D02*
X016607Y002399D01*
X016765Y002558D02*
X016311Y002558D01*
X015765Y002558D02*
X015311Y002558D01*
X015278Y002716D02*
X027170Y002716D01*
X027170Y002875D02*
X015278Y002875D01*
X015278Y003033D02*
X025789Y003033D01*
X025631Y003192D02*
X015278Y003192D01*
X015278Y003350D02*
X025472Y003350D01*
X026106Y003509D02*
X027219Y003509D01*
X028038Y003180D02*
X028038Y002960D01*
X028318Y003826D02*
X031942Y003826D01*
X031822Y003984D02*
X028318Y003984D01*
X028318Y004143D02*
X031778Y004143D01*
X031791Y004301D02*
X028318Y004301D01*
X028438Y004935D02*
X028529Y004935D01*
X028528Y005094D02*
X028438Y005094D01*
X028438Y005252D02*
X028528Y005252D01*
X028438Y005411D02*
X028908Y005411D01*
X028908Y005440D02*
X028528Y005440D01*
X028528Y005864D01*
X028541Y005909D01*
X028564Y005951D01*
X028598Y005984D01*
X028639Y006008D01*
X028685Y006020D01*
X028908Y006020D01*
X028908Y005440D01*
X028988Y005411D02*
X029798Y005411D01*
X029700Y005728D02*
X029368Y005728D01*
X029362Y005886D02*
X029766Y005886D01*
X028988Y005886D02*
X028908Y005886D01*
X028908Y005728D02*
X028988Y005728D01*
X028988Y005569D02*
X028908Y005569D01*
X028528Y005569D02*
X028438Y005569D01*
X028438Y005728D02*
X028528Y005728D01*
X028534Y005886D02*
X028438Y005886D01*
X028908Y005252D02*
X028988Y005252D01*
X028988Y005094D02*
X028908Y005094D01*
X028908Y004935D02*
X028988Y004935D01*
X026728Y005728D02*
X022537Y005728D01*
X023788Y006680D02*
X019038Y006680D01*
X018288Y007430D01*
X018288Y007869D01*
X018010Y007947D02*
X017928Y007947D01*
X017928Y008105D02*
X018010Y008105D01*
X018010Y008264D02*
X017928Y008264D01*
X018010Y008368D02*
X018010Y007411D01*
X017928Y007493D01*
X017928Y011221D01*
X017985Y011278D01*
X017990Y011290D01*
X017990Y011034D01*
X018003Y010988D01*
X018026Y010947D01*
X018060Y010914D01*
X018101Y010890D01*
X018147Y010878D01*
X018288Y010878D01*
X018288Y011491D01*
X018288Y011491D01*
X018288Y012091D01*
X018288Y012091D01*
X018288Y011491D01*
X018288Y011491D01*
X018288Y010878D01*
X018430Y010878D01*
X018476Y010890D01*
X018517Y010914D01*
X018551Y010947D01*
X018552Y010950D01*
X018604Y010898D01*
X018973Y010898D01*
X019038Y010964D01*
X019104Y010898D01*
X019473Y010898D01*
X019538Y010964D01*
X019604Y010898D01*
X019973Y010898D01*
X020038Y010964D01*
X020104Y010898D01*
X020473Y010898D01*
X020538Y010964D01*
X020548Y010954D01*
X020548Y010943D01*
X020545Y010909D01*
X020548Y010896D01*
X020548Y010882D01*
X020562Y010850D01*
X020571Y010817D01*
X020580Y010807D01*
X020585Y010794D01*
X020609Y010770D01*
X020989Y010295D01*
X019241Y010295D01*
X019152Y010258D01*
X019085Y010191D01*
X019048Y010103D01*
X019048Y008406D01*
X019038Y008396D01*
X018973Y008462D01*
X018604Y008462D01*
X018538Y008396D01*
X018473Y008462D01*
X018104Y008462D01*
X018010Y008368D01*
X018064Y008422D02*
X017928Y008422D01*
X017928Y008581D02*
X019048Y008581D01*
X019048Y008739D02*
X017928Y008739D01*
X017928Y008898D02*
X019048Y008898D01*
X019048Y009056D02*
X017928Y009056D01*
X017928Y009215D02*
X019048Y009215D01*
X019048Y009373D02*
X017928Y009373D01*
X017928Y009532D02*
X019048Y009532D01*
X019048Y009690D02*
X017928Y009690D01*
X017928Y009849D02*
X019048Y009849D01*
X019048Y010007D02*
X017928Y010007D01*
X017928Y010166D02*
X019074Y010166D01*
X019288Y010055D02*
X019288Y007869D01*
X018788Y007869D02*
X018788Y007430D01*
X019163Y007055D01*
X023663Y007055D01*
X027288Y010680D01*
X027288Y012180D01*
X026637Y012832D01*
X025994Y012385D02*
X025898Y012385D01*
X025877Y012390D02*
X025573Y012390D01*
X025573Y012015D01*
X025503Y012015D01*
X025503Y011945D01*
X025043Y011945D01*
X025043Y011726D01*
X025056Y011681D01*
X025063Y011667D01*
X025063Y011084D01*
X025157Y010990D01*
X025298Y010990D01*
X025298Y010753D01*
X025160Y010545D01*
X024778Y010545D01*
X024778Y010990D01*
X024920Y010990D01*
X025013Y011084D01*
X025013Y011667D01*
X025021Y011681D01*
X025033Y011726D01*
X025033Y011945D01*
X024573Y011945D01*
X024573Y012015D01*
X024503Y012015D01*
X024503Y011945D01*
X024043Y011945D01*
X024043Y011726D01*
X024056Y011681D01*
X024063Y011667D01*
X024063Y011084D01*
X024157Y010990D01*
X024298Y010990D01*
X024298Y010795D01*
X023780Y010795D01*
X023789Y010818D01*
X023789Y010821D01*
X023790Y010823D01*
X023789Y010869D01*
X023789Y010914D01*
X023788Y010916D01*
X023787Y010990D01*
X023920Y010990D01*
X024013Y011084D01*
X024013Y011667D01*
X024021Y011681D01*
X024033Y011726D01*
X024033Y011945D01*
X023573Y011945D01*
X023573Y012015D01*
X023503Y012015D01*
X023503Y011945D01*
X023043Y011945D01*
X023043Y011726D01*
X023056Y011681D01*
X023063Y011667D01*
X023063Y011106D01*
X022363Y011106D01*
X022260Y011277D01*
X022255Y011293D01*
X022236Y011318D01*
X022219Y011345D01*
X022206Y011355D01*
X022066Y011528D01*
X022066Y011990D01*
X021973Y012084D01*
X021604Y012084D01*
X021538Y012018D01*
X021473Y012084D01*
X021104Y012084D01*
X021038Y012018D01*
X020973Y012084D01*
X020635Y012084D01*
X020693Y012420D01*
X020755Y012420D01*
X020924Y012490D01*
X021053Y012619D01*
X021123Y012788D01*
X021123Y013571D01*
X021072Y013696D01*
X021255Y013696D01*
X021203Y013571D01*
X021203Y012788D01*
X021273Y012619D01*
X021403Y012490D01*
X021572Y012420D01*
X021755Y012420D01*
X021924Y012490D01*
X022053Y012619D01*
X022123Y012788D01*
X022123Y013571D01*
X022072Y013696D01*
X022255Y013696D01*
X022203Y013571D01*
X022203Y012788D01*
X022273Y012619D01*
X022403Y012490D01*
X022572Y012420D01*
X022755Y012420D01*
X022924Y012490D01*
X023053Y012619D01*
X023123Y012788D01*
X023123Y013571D01*
X023072Y013696D01*
X023255Y013696D01*
X023203Y013571D01*
X023203Y012788D01*
X023273Y012619D01*
X023403Y012490D01*
X023572Y012420D01*
X023755Y012420D01*
X023924Y012490D01*
X024053Y012619D01*
X024123Y012788D01*
X024123Y013571D01*
X024072Y013696D01*
X024255Y013696D01*
X024203Y013571D01*
X024203Y012788D01*
X024273Y012619D01*
X024403Y012490D01*
X024572Y012420D01*
X024755Y012420D01*
X024924Y012490D01*
X025053Y012619D01*
X025123Y012788D01*
X025123Y013571D01*
X025072Y013696D01*
X025255Y013696D01*
X025203Y013571D01*
X025203Y012788D01*
X025273Y012619D01*
X025403Y012490D01*
X025572Y012420D01*
X025755Y012420D01*
X025899Y012480D01*
X026673Y011706D01*
X026673Y010779D01*
X026189Y010295D01*
X025570Y010295D01*
X025725Y010527D01*
X025742Y010544D01*
X025751Y010566D01*
X025765Y010587D01*
X025769Y010610D01*
X025778Y010632D01*
X025778Y010656D01*
X025783Y010680D01*
X025778Y010704D01*
X025778Y010990D01*
X025920Y010990D01*
X026013Y011084D01*
X026013Y011667D01*
X026021Y011681D01*
X026033Y011726D01*
X026033Y011945D01*
X025573Y011945D01*
X025573Y012015D01*
X026033Y012015D01*
X026033Y012234D01*
X026021Y012279D01*
X025997Y012321D01*
X025964Y012354D01*
X025923Y012378D01*
X025877Y012390D01*
X026033Y012226D02*
X026153Y012226D01*
X026033Y012068D02*
X026311Y012068D01*
X026470Y011909D02*
X026033Y011909D01*
X026033Y011751D02*
X026628Y011751D01*
X026673Y011592D02*
X026013Y011592D01*
X026013Y011434D02*
X026673Y011434D01*
X026673Y011275D02*
X026013Y011275D01*
X026013Y011117D02*
X026673Y011117D01*
X026673Y010958D02*
X025778Y010958D01*
X025778Y010800D02*
X026673Y010800D01*
X026535Y010641D02*
X025778Y010641D01*
X025538Y010680D02*
X025538Y011380D01*
X025063Y011434D02*
X025013Y011434D01*
X025013Y011592D02*
X025063Y011592D01*
X025043Y011751D02*
X025033Y011751D01*
X025033Y011909D02*
X025043Y011909D01*
X025043Y012015D02*
X025503Y012015D01*
X025503Y012390D01*
X025200Y012390D01*
X025154Y012378D01*
X025113Y012354D01*
X025079Y012321D01*
X025056Y012279D01*
X025043Y012234D01*
X025043Y012015D01*
X025033Y012015D02*
X025033Y012234D01*
X025021Y012279D01*
X024997Y012321D01*
X024964Y012354D01*
X024923Y012378D01*
X024877Y012390D01*
X024573Y012390D01*
X024573Y012015D01*
X025033Y012015D01*
X025033Y012068D02*
X025043Y012068D01*
X025033Y012226D02*
X025043Y012226D01*
X025179Y012385D02*
X024898Y012385D01*
X024977Y012543D02*
X025350Y012543D01*
X025239Y012702D02*
X025087Y012702D01*
X025123Y012860D02*
X025203Y012860D01*
X025203Y013019D02*
X025123Y013019D01*
X025123Y013177D02*
X025203Y013177D01*
X025203Y013336D02*
X025123Y013336D01*
X025123Y013494D02*
X025203Y013494D01*
X025237Y013653D02*
X025090Y013653D01*
X024237Y013653D02*
X024090Y013653D01*
X024123Y013494D02*
X024203Y013494D01*
X024203Y013336D02*
X024123Y013336D01*
X024123Y013177D02*
X024203Y013177D01*
X024203Y013019D02*
X024123Y013019D01*
X024123Y012860D02*
X024203Y012860D01*
X024239Y012702D02*
X024087Y012702D01*
X023977Y012543D02*
X024350Y012543D01*
X024200Y012390D02*
X024154Y012378D01*
X024113Y012354D01*
X024079Y012321D01*
X024056Y012279D01*
X024043Y012234D01*
X024043Y012015D01*
X024503Y012015D01*
X024503Y012390D01*
X024200Y012390D01*
X024179Y012385D02*
X023898Y012385D01*
X023877Y012390D02*
X023573Y012390D01*
X023573Y012015D01*
X024033Y012015D01*
X024033Y012234D01*
X024021Y012279D01*
X023997Y012321D01*
X023964Y012354D01*
X023923Y012378D01*
X023877Y012390D01*
X024033Y012226D02*
X024043Y012226D01*
X024033Y012068D02*
X024043Y012068D01*
X024503Y012068D02*
X024573Y012068D01*
X024573Y012226D02*
X024503Y012226D01*
X024503Y012385D02*
X024573Y012385D01*
X025503Y012385D02*
X025573Y012385D01*
X025573Y012226D02*
X025503Y012226D01*
X025503Y012068D02*
X025573Y012068D01*
X025637Y013082D02*
X026913Y011805D01*
X026913Y010680D01*
X026288Y010055D01*
X019288Y010055D01*
X017928Y010324D02*
X020966Y010324D01*
X020839Y010483D02*
X017928Y010483D01*
X017928Y010641D02*
X020712Y010641D01*
X020583Y010800D02*
X017928Y010800D01*
X017928Y010958D02*
X018020Y010958D01*
X017990Y011117D02*
X017928Y011117D01*
X017982Y011275D02*
X017990Y011275D01*
X018288Y011275D02*
X018288Y011275D01*
X018288Y011117D02*
X018288Y011117D01*
X018288Y010958D02*
X018288Y010958D01*
X019033Y010958D02*
X019044Y010958D01*
X019533Y010958D02*
X019544Y010958D01*
X020033Y010958D02*
X020044Y010958D01*
X020533Y010958D02*
X020544Y010958D01*
X020788Y010930D02*
X021288Y010305D01*
X025288Y010305D01*
X025538Y010680D01*
X025298Y010800D02*
X024778Y010800D01*
X024778Y010958D02*
X025298Y010958D01*
X025063Y011117D02*
X025013Y011117D01*
X025013Y011275D02*
X025063Y011275D01*
X024538Y011380D02*
X024538Y010555D01*
X021538Y010555D01*
X021288Y010930D01*
X021288Y011491D01*
X021788Y011491D02*
X022038Y011180D01*
X022227Y010866D01*
X023549Y010866D01*
X023538Y011380D01*
X023063Y011434D02*
X022143Y011434D01*
X022066Y011592D02*
X023063Y011592D01*
X023043Y011751D02*
X022066Y011751D01*
X022066Y011909D02*
X023043Y011909D01*
X023043Y012015D02*
X023503Y012015D01*
X023503Y012390D01*
X023200Y012390D01*
X023154Y012378D01*
X023113Y012354D01*
X023079Y012321D01*
X023056Y012279D01*
X023043Y012234D01*
X023043Y012015D01*
X023043Y012068D02*
X021989Y012068D01*
X022538Y012180D02*
X023538Y012180D01*
X023538Y011980D01*
X023503Y012068D02*
X023573Y012068D01*
X023573Y012226D02*
X023503Y012226D01*
X023503Y012385D02*
X023573Y012385D01*
X023350Y012543D02*
X022977Y012543D01*
X023087Y012702D02*
X023239Y012702D01*
X023203Y012860D02*
X023123Y012860D01*
X023123Y013019D02*
X023203Y013019D01*
X023203Y013177D02*
X023123Y013177D01*
X023123Y013336D02*
X023203Y013336D01*
X023203Y013494D02*
X023123Y013494D01*
X023090Y013653D02*
X023237Y013653D01*
X022237Y013653D02*
X022090Y013653D01*
X022123Y013494D02*
X022203Y013494D01*
X022203Y013336D02*
X022123Y013336D01*
X022123Y013177D02*
X022203Y013177D01*
X022203Y013019D02*
X022123Y013019D01*
X022123Y012860D02*
X022203Y012860D01*
X022239Y012702D02*
X022087Y012702D01*
X021977Y012543D02*
X022350Y012543D01*
X023043Y012226D02*
X020659Y012226D01*
X020687Y012385D02*
X023179Y012385D01*
X024033Y011909D02*
X024043Y011909D01*
X024033Y011751D02*
X024043Y011751D01*
X024063Y011592D02*
X024013Y011592D01*
X024013Y011434D02*
X024063Y011434D01*
X024063Y011275D02*
X024013Y011275D01*
X024013Y011117D02*
X024063Y011117D01*
X024298Y010958D02*
X023787Y010958D01*
X023782Y010800D02*
X024298Y010800D01*
X024778Y010641D02*
X025224Y010641D01*
X025695Y010483D02*
X026376Y010483D01*
X026218Y010324D02*
X025590Y010324D01*
X026084Y009815D02*
X023564Y007295D01*
X021992Y007295D01*
X022066Y007370D01*
X022066Y007440D01*
X022550Y007440D01*
X022597Y007393D01*
X022721Y007342D01*
X022856Y007342D01*
X022980Y007393D01*
X023027Y007440D01*
X023086Y007440D01*
X023174Y007477D01*
X023242Y007544D01*
X023278Y007632D01*
X023278Y008140D01*
X023400Y008140D01*
X023494Y008234D01*
X023494Y008878D01*
X023456Y008916D01*
X023478Y008938D01*
X023501Y008979D01*
X023514Y009024D01*
X023514Y009256D01*
X023086Y009256D01*
X023086Y009352D01*
X022990Y009352D01*
X022990Y009256D01*
X022563Y009256D01*
X022563Y009024D01*
X022575Y008979D01*
X022599Y008938D01*
X022621Y008916D01*
X022583Y008878D01*
X022583Y008234D01*
X022677Y008140D01*
X022798Y008140D01*
X022798Y008018D01*
X022721Y008018D01*
X022597Y007967D01*
X022550Y007920D01*
X022511Y007920D01*
X022537Y007983D01*
X022537Y008117D01*
X022485Y008242D01*
X022438Y008289D01*
X022438Y009283D01*
X022443Y009302D01*
X022438Y009330D01*
X022438Y009358D01*
X022431Y009377D01*
X022363Y009780D01*
X022363Y009808D01*
X022360Y009815D01*
X026084Y009815D01*
X025959Y009690D02*
X023458Y009690D01*
X023444Y009704D02*
X023403Y009728D01*
X023357Y009740D01*
X023086Y009740D01*
X023086Y009352D01*
X023514Y009352D01*
X023514Y009584D01*
X023501Y009629D01*
X023478Y009670D01*
X023444Y009704D01*
X023514Y009532D02*
X025800Y009532D01*
X025642Y009373D02*
X023514Y009373D01*
X023514Y009215D02*
X025483Y009215D01*
X025325Y009056D02*
X023514Y009056D01*
X023474Y008898D02*
X025166Y008898D01*
X025008Y008739D02*
X023494Y008739D01*
X023494Y008581D02*
X024849Y008581D01*
X024691Y008422D02*
X023494Y008422D01*
X023494Y008264D02*
X024532Y008264D01*
X024374Y008105D02*
X023278Y008105D01*
X023278Y007947D02*
X024215Y007947D01*
X024057Y007788D02*
X023278Y007788D01*
X023277Y007630D02*
X023898Y007630D01*
X023740Y007471D02*
X023161Y007471D01*
X023038Y007680D02*
X022788Y007680D01*
X021977Y007680D01*
X021788Y007869D01*
X021288Y007869D02*
X021288Y008430D01*
X021538Y008680D01*
X021538Y009305D01*
X021038Y009180D02*
X020788Y008930D01*
X020788Y007869D01*
X022009Y007313D02*
X023581Y007313D01*
X023038Y007680D02*
X023038Y008556D01*
X022583Y008581D02*
X022438Y008581D01*
X022438Y008739D02*
X022583Y008739D01*
X022602Y008898D02*
X022438Y008898D01*
X022438Y009056D02*
X022563Y009056D01*
X022563Y009215D02*
X022438Y009215D01*
X022432Y009373D02*
X022563Y009373D01*
X022563Y009352D02*
X022990Y009352D01*
X022990Y009740D01*
X022719Y009740D01*
X022674Y009728D01*
X022633Y009704D01*
X022599Y009670D01*
X022575Y009629D01*
X022563Y009584D01*
X022563Y009352D01*
X022563Y009532D02*
X022405Y009532D01*
X022378Y009690D02*
X022619Y009690D01*
X022990Y009690D02*
X023086Y009690D01*
X023086Y009532D02*
X022990Y009532D01*
X022990Y009373D02*
X023086Y009373D01*
X022198Y009310D02*
X022198Y008050D01*
X022522Y007947D02*
X022576Y007947D01*
X022537Y008105D02*
X022798Y008105D01*
X022583Y008264D02*
X022463Y008264D01*
X022438Y008422D02*
X022583Y008422D01*
X022198Y009310D02*
X022123Y009760D01*
X021118Y009760D01*
X020398Y009040D01*
X019678Y009040D01*
X019048Y008422D02*
X019013Y008422D01*
X018564Y008422D02*
X018513Y008422D01*
X018010Y007788D02*
X017928Y007788D01*
X017928Y007630D02*
X018010Y007630D01*
X018010Y007471D02*
X017950Y007471D01*
X017048Y009532D02*
X014479Y009532D01*
X014638Y009690D02*
X017048Y009690D01*
X017048Y009849D02*
X014796Y009849D01*
X014955Y010007D02*
X017048Y010007D01*
X017048Y010166D02*
X015113Y010166D01*
X015254Y010324D02*
X017048Y010324D01*
X015538Y010680D02*
X015413Y011430D01*
X014788Y011430D01*
X014163Y010805D01*
X014163Y010680D01*
X010538Y010680D01*
X009788Y011430D01*
X009788Y012180D01*
X009332Y012226D02*
X009245Y012226D01*
X009245Y012068D02*
X009332Y012068D01*
X009413Y011909D02*
X009163Y011909D01*
X009182Y011751D02*
X009548Y011751D01*
X009548Y011592D02*
X009316Y011592D01*
X009443Y011434D02*
X009548Y011434D01*
X009570Y011275D02*
X009604Y011275D01*
X009697Y011117D02*
X009762Y011117D01*
X009780Y010958D02*
X009921Y010958D01*
X009876Y010800D02*
X010079Y010800D01*
X009921Y010641D02*
X009896Y010641D01*
X009538Y010680D02*
X009538Y010930D01*
X009038Y011555D01*
X008038Y011555D01*
X007538Y010680D01*
X007998Y010641D02*
X008058Y010641D01*
X008058Y010660D02*
X008058Y010342D01*
X008070Y010268D01*
X008094Y010196D01*
X008128Y010128D01*
X008172Y010067D01*
X008195Y010045D01*
X007854Y010045D01*
X007928Y010119D01*
X007998Y010288D01*
X007998Y011001D01*
X008110Y011197D01*
X008094Y011164D01*
X008070Y011092D01*
X008058Y011018D01*
X008058Y010700D01*
X008518Y010700D01*
X008518Y010660D01*
X008058Y010660D01*
X008058Y010800D02*
X007998Y010800D01*
X007998Y010958D02*
X008058Y010958D01*
X008064Y011117D02*
X008078Y011117D01*
X007693Y011434D02*
X007646Y011434D01*
X007783Y011592D02*
X004189Y011592D01*
X004278Y011370D02*
X004148Y011241D01*
X004078Y011071D01*
X004078Y010288D01*
X004148Y010119D01*
X004278Y009990D01*
X004447Y009920D01*
X004630Y009920D01*
X004799Y009990D01*
X004928Y010119D01*
X004998Y010288D01*
X004998Y011071D01*
X004928Y011241D01*
X004799Y011370D01*
X004630Y011440D01*
X004447Y011440D01*
X004278Y011370D01*
X004183Y011275D02*
X003894Y011275D01*
X003980Y011117D02*
X004097Y011117D01*
X004078Y010958D02*
X003998Y010958D01*
X003998Y010800D02*
X004078Y010800D01*
X004078Y010641D02*
X003998Y010641D01*
X003998Y010483D02*
X004078Y010483D01*
X004078Y010324D02*
X003998Y010324D01*
X003947Y010166D02*
X004129Y010166D01*
X004261Y010007D02*
X003816Y010007D01*
X004024Y009744D02*
X003605Y009744D01*
X003559Y009732D01*
X003518Y009708D01*
X003485Y009674D01*
X003461Y009633D01*
X003449Y009588D01*
X003449Y009366D01*
X004024Y009366D01*
X004024Y009744D01*
X004024Y009690D02*
X004100Y009690D01*
X004100Y009744D02*
X004100Y009366D01*
X004024Y009366D01*
X004024Y009290D01*
X003449Y009290D01*
X003449Y009068D01*
X003461Y009022D01*
X003485Y008981D01*
X003518Y008947D01*
X003559Y008924D01*
X003605Y008911D01*
X004024Y008911D01*
X004024Y009290D01*
X004100Y009290D01*
X004100Y009366D01*
X004675Y009366D01*
X004675Y009588D01*
X004663Y009633D01*
X004639Y009674D01*
X004606Y009708D01*
X004565Y009732D01*
X004519Y009744D01*
X004100Y009744D01*
X004100Y009532D02*
X004024Y009532D01*
X004024Y009373D02*
X004100Y009373D01*
X004100Y009290D02*
X004675Y009290D01*
X004675Y009068D01*
X004663Y009022D01*
X004639Y008981D01*
X004606Y008947D01*
X004565Y008924D01*
X004519Y008911D01*
X004100Y008911D01*
X004100Y009290D01*
X004100Y009215D02*
X004024Y009215D01*
X004024Y009056D02*
X004100Y009056D01*
X004672Y009056D02*
X007192Y009056D01*
X007189Y009215D02*
X004675Y009215D01*
X004675Y009373D02*
X007189Y009373D01*
X007189Y009532D02*
X004675Y009532D01*
X004623Y009690D02*
X006826Y009690D01*
X006762Y009849D02*
X002768Y009849D01*
X002768Y010007D02*
X003261Y010007D01*
X003129Y010166D02*
X002768Y010166D01*
X002768Y010324D02*
X003078Y010324D01*
X003078Y010483D02*
X002768Y010483D01*
X002768Y010641D02*
X003078Y010641D01*
X003078Y010800D02*
X002768Y010800D01*
X002768Y010958D02*
X003078Y010958D01*
X003097Y011117D02*
X002768Y011117D01*
X002768Y011275D02*
X003183Y011275D01*
X003257Y011434D02*
X002768Y011434D01*
X002768Y011592D02*
X003304Y011592D01*
X003491Y011751D02*
X002768Y011751D01*
X002768Y011909D02*
X003689Y011909D01*
X003887Y012068D02*
X002768Y012068D01*
X002768Y012226D02*
X003031Y012226D01*
X003546Y012226D02*
X004085Y012226D01*
X004283Y012385D02*
X003879Y012385D01*
X004037Y012543D02*
X004481Y012543D01*
X004712Y012702D02*
X004151Y012702D01*
X004217Y012860D02*
X005572Y012860D01*
X005731Y013019D02*
X004268Y013019D01*
X004268Y013177D02*
X005889Y013177D01*
X006048Y013336D02*
X004268Y013336D01*
X004219Y013494D02*
X007456Y013494D01*
X007548Y013653D02*
X004153Y013653D01*
X006364Y012860D02*
X007462Y012860D01*
X007788Y013180D02*
X007788Y013680D01*
X012288Y013680D01*
X012788Y013180D01*
X012450Y013177D02*
X011807Y013177D01*
X011807Y013162D02*
X012265Y013162D01*
X012265Y012982D01*
X011986Y012703D01*
X011807Y012703D01*
X011807Y013162D01*
X011770Y013177D02*
X010807Y013177D01*
X010807Y013162D02*
X011265Y013162D01*
X011265Y012982D01*
X010986Y012703D01*
X010807Y012703D01*
X010807Y013162D01*
X010770Y013177D02*
X009807Y013177D01*
X009807Y013162D02*
X010265Y013162D01*
X010265Y012982D01*
X009986Y012703D01*
X009807Y012703D01*
X009807Y013162D01*
X009770Y013177D02*
X008807Y013177D01*
X008807Y013162D02*
X009265Y013162D01*
X009265Y012982D01*
X008986Y012703D01*
X008807Y012703D01*
X008807Y013162D01*
X008770Y013177D02*
X008245Y013177D01*
X008245Y013019D02*
X008312Y013019D01*
X008434Y012860D02*
X008114Y012860D01*
X008770Y012860D02*
X008807Y012860D01*
X008807Y013019D02*
X008770Y013019D01*
X009143Y012860D02*
X009434Y012860D01*
X009312Y013019D02*
X009265Y013019D01*
X009770Y013019D02*
X009807Y013019D01*
X009807Y012860D02*
X009770Y012860D01*
X010143Y012860D02*
X010434Y012860D01*
X010312Y013019D02*
X010265Y013019D01*
X010770Y013019D02*
X010807Y013019D01*
X010807Y012860D02*
X010770Y012860D01*
X010599Y012637D02*
X010332Y012369D01*
X010332Y011991D01*
X010599Y011723D01*
X010978Y011723D01*
X011245Y011991D01*
X011245Y012369D01*
X010978Y012637D01*
X010599Y012637D01*
X010505Y012543D02*
X010071Y012543D01*
X010230Y012385D02*
X010347Y012385D01*
X010332Y012226D02*
X010245Y012226D01*
X010245Y012068D02*
X010332Y012068D01*
X010413Y011909D02*
X010163Y011909D01*
X010178Y011751D02*
X010028Y011751D01*
X010399Y011751D02*
X010572Y011751D01*
X010588Y011592D02*
X014611Y011592D01*
X014452Y011434D02*
X011513Y011434D01*
X011615Y011275D02*
X014294Y011275D01*
X014135Y011117D02*
X011627Y011117D01*
X011545Y010958D02*
X013977Y010958D01*
X014538Y010430D02*
X010038Y010430D01*
X009538Y009930D01*
X009538Y009805D01*
X007038Y009805D01*
X006788Y010430D01*
X006538Y010680D01*
X006078Y010641D02*
X005998Y010641D01*
X005998Y010800D02*
X006078Y010800D01*
X006078Y010958D02*
X005998Y010958D01*
X005998Y011071D02*
X005928Y011241D01*
X005799Y011370D01*
X005630Y011440D01*
X005447Y011440D01*
X005278Y011370D01*
X005148Y011241D01*
X005078Y011071D01*
X005078Y010288D01*
X005148Y010119D01*
X005278Y009990D01*
X005447Y009920D01*
X005630Y009920D01*
X005799Y009990D01*
X005928Y010119D01*
X005998Y010288D01*
X005998Y011071D01*
X005980Y011117D02*
X006097Y011117D01*
X006183Y011275D02*
X005894Y011275D01*
X005646Y011434D02*
X006431Y011434D01*
X006646Y011434D02*
X007431Y011434D01*
X007183Y011275D02*
X006894Y011275D01*
X006980Y011117D02*
X007097Y011117D01*
X007078Y010958D02*
X006998Y010958D01*
X006998Y010800D02*
X007078Y010800D01*
X007078Y010641D02*
X006998Y010641D01*
X007026Y010483D02*
X007078Y010483D01*
X006078Y010483D02*
X005998Y010483D01*
X005998Y010324D02*
X006078Y010324D01*
X006129Y010166D02*
X005947Y010166D01*
X005816Y010007D02*
X006261Y010007D01*
X005261Y010007D02*
X004816Y010007D01*
X004947Y010166D02*
X005129Y010166D01*
X005078Y010324D02*
X004998Y010324D01*
X004998Y010483D02*
X005078Y010483D01*
X005078Y010641D02*
X004998Y010641D01*
X004998Y010800D02*
X005078Y010800D01*
X005078Y010958D02*
X004998Y010958D01*
X004980Y011117D02*
X005097Y011117D01*
X005183Y011275D02*
X004894Y011275D01*
X004646Y011434D02*
X005431Y011434D01*
X004585Y011909D02*
X007332Y011909D01*
X007398Y011751D02*
X004387Y011751D01*
X004431Y011434D02*
X003991Y011434D01*
X004784Y012068D02*
X007332Y012068D01*
X007332Y012226D02*
X005730Y012226D01*
X006206Y012702D02*
X015217Y012702D01*
X015183Y012860D02*
X012900Y012860D01*
X012677Y012860D02*
X012143Y012860D01*
X012265Y013019D02*
X012489Y013019D01*
X012293Y013336D02*
X012265Y013336D01*
X011807Y013019D02*
X011770Y013019D01*
X011770Y012860D02*
X011807Y012860D01*
X011978Y012637D02*
X011599Y012637D01*
X011332Y012369D01*
X011332Y011991D01*
X011599Y011723D01*
X011978Y011723D01*
X012245Y011991D01*
X012245Y012369D01*
X011978Y012637D01*
X012071Y012543D02*
X015322Y012543D01*
X015591Y012385D02*
X012230Y012385D01*
X012245Y012226D02*
X015583Y012226D01*
X015583Y012068D02*
X012245Y012068D01*
X012163Y011909D02*
X015583Y011909D01*
X015583Y011751D02*
X012005Y011751D01*
X011572Y011751D02*
X011005Y011751D01*
X011163Y011909D02*
X011413Y011909D01*
X011332Y012068D02*
X011245Y012068D01*
X011245Y012226D02*
X011332Y012226D01*
X011347Y012385D02*
X011230Y012385D01*
X011071Y012543D02*
X011505Y012543D01*
X011434Y012860D02*
X011143Y012860D01*
X011265Y013019D02*
X011312Y013019D01*
X011312Y013336D02*
X011265Y013336D01*
X010312Y013336D02*
X010265Y013336D01*
X009312Y013336D02*
X009265Y013336D01*
X008312Y013336D02*
X008245Y013336D01*
X009071Y012543D02*
X009505Y012543D01*
X009347Y012385D02*
X009230Y012385D01*
X008332Y012226D02*
X008245Y012226D01*
X008245Y012068D02*
X008332Y012068D01*
X008413Y011909D02*
X008245Y011909D01*
X008882Y011315D02*
X008923Y011315D01*
X009254Y010902D01*
X009235Y010883D01*
X009180Y010751D01*
X009180Y010609D01*
X009235Y010477D01*
X009336Y010376D01*
X009467Y010322D01*
X009591Y010322D01*
X009335Y010066D01*
X009326Y010045D01*
X008882Y010045D01*
X008905Y010067D01*
X008949Y010128D01*
X008983Y010196D01*
X009007Y010268D01*
X009018Y010342D01*
X009018Y010660D01*
X008558Y010660D01*
X008558Y010700D01*
X009018Y010700D01*
X009018Y011018D01*
X009007Y011092D01*
X008983Y011164D01*
X008949Y011232D01*
X008905Y011293D01*
X008882Y011315D01*
X008917Y011275D02*
X008955Y011275D01*
X008999Y011117D02*
X009082Y011117D01*
X009018Y010958D02*
X009209Y010958D01*
X009200Y010800D02*
X009018Y010800D01*
X009018Y010641D02*
X009180Y010641D01*
X009233Y010483D02*
X009018Y010483D01*
X009016Y010324D02*
X009462Y010324D01*
X009434Y010166D02*
X008968Y010166D01*
X009538Y009805D02*
X009538Y008430D01*
X009088Y008006D01*
X008729Y007989D01*
X008127Y007989D01*
X007819Y007947D02*
X002768Y007947D01*
X002768Y008105D02*
X007819Y008105D01*
X007819Y008264D02*
X002768Y008264D01*
X002768Y008422D02*
X007819Y008422D01*
X007819Y008581D02*
X002768Y008581D01*
X002768Y008739D02*
X007819Y008739D01*
X007819Y008898D02*
X002768Y008898D01*
X002768Y009056D02*
X003452Y009056D01*
X003449Y009215D02*
X002768Y009215D01*
X002768Y009373D02*
X003449Y009373D01*
X003449Y009532D02*
X002768Y009532D01*
X002768Y009690D02*
X003501Y009690D01*
X007685Y009215D02*
X007762Y009215D01*
X007762Y009056D02*
X007685Y009056D01*
X008258Y009215D02*
X009298Y009215D01*
X009298Y009373D02*
X008258Y009373D01*
X008258Y009532D02*
X009298Y009532D01*
X009778Y009532D02*
X011833Y009532D01*
X011833Y009690D02*
X009778Y009690D01*
X009796Y009849D02*
X011769Y009849D01*
X011767Y010007D02*
X009955Y010007D01*
X010113Y010166D02*
X011878Y010166D01*
X011833Y009373D02*
X011324Y009373D01*
X011377Y009215D02*
X011850Y009215D01*
X011813Y009056D02*
X011353Y009056D01*
X011038Y009180D02*
X010538Y008680D01*
X010538Y008430D01*
X010298Y008581D02*
X009778Y008581D01*
X009778Y008739D02*
X010303Y008739D01*
X010416Y008898D02*
X009778Y008898D01*
X009298Y008898D02*
X008435Y008898D01*
X008435Y008739D02*
X009298Y008739D01*
X009298Y008581D02*
X008435Y008581D01*
X008435Y008422D02*
X009180Y008422D01*
X009011Y008264D02*
X008435Y008264D01*
X007856Y007788D02*
X002768Y007788D01*
X002768Y007630D02*
X007187Y007630D01*
X007389Y007630D02*
X007799Y007630D01*
X007799Y007556D02*
X008127Y007556D01*
X008455Y007556D01*
X008127Y007556D01*
X008127Y007556D01*
X008127Y007556D01*
X007799Y007556D01*
X007799Y007471D02*
X007586Y007471D01*
X006991Y007471D02*
X002768Y007471D01*
X008398Y009056D02*
X009298Y009056D01*
X009778Y009056D02*
X010575Y009056D01*
X010700Y009215D02*
X009778Y009215D01*
X009778Y009373D02*
X010753Y009373D01*
X011235Y008898D02*
X011813Y008898D01*
X010191Y008422D02*
X009778Y008422D01*
X009712Y008264D02*
X010032Y008264D01*
X009874Y008105D02*
X009543Y008105D01*
X009375Y007947D02*
X009715Y007947D01*
X009557Y007788D02*
X009190Y007788D01*
X009398Y007630D02*
X008455Y007630D01*
X008455Y007471D02*
X009240Y007471D01*
X008109Y010166D02*
X007947Y010166D01*
X007998Y010324D02*
X008061Y010324D01*
X008058Y010483D02*
X007998Y010483D01*
X010288Y011430D02*
X010538Y011180D01*
X011288Y011180D01*
X011063Y011434D02*
X010627Y011434D01*
X013088Y013019D02*
X015183Y013019D01*
X015183Y013336D02*
X013090Y013336D01*
X013127Y013177D02*
X015643Y013177D01*
X015683Y013177D02*
X016203Y013177D01*
X016143Y013160D02*
X015683Y013160D01*
X015683Y013200D01*
X016143Y013200D01*
X016143Y013518D01*
X016132Y013592D01*
X016108Y013664D01*
X016092Y013696D01*
X016255Y013696D01*
X016203Y013571D01*
X016203Y012788D01*
X016268Y012633D01*
X016107Y012470D01*
X015916Y012470D01*
X015976Y012514D01*
X016030Y012567D01*
X016074Y012628D01*
X016108Y012696D01*
X016132Y012768D01*
X016143Y012842D01*
X016143Y013160D01*
X016143Y013019D02*
X016203Y013019D01*
X016203Y012860D02*
X016143Y012860D01*
X016110Y012702D02*
X016239Y012702D01*
X016179Y012543D02*
X016005Y012543D01*
X016078Y012100D02*
X016578Y012605D01*
X016748Y013150D01*
X016618Y013270D01*
X017123Y013336D02*
X017203Y013336D01*
X017203Y013494D02*
X017123Y013494D01*
X017123Y013571D02*
X017072Y013696D01*
X017255Y013696D01*
X017203Y013571D01*
X017203Y012788D01*
X017273Y012619D01*
X017403Y012490D01*
X017572Y012420D01*
X017755Y012420D01*
X017899Y012480D01*
X018275Y012104D01*
X018147Y012104D01*
X018101Y012092D01*
X018060Y012068D01*
X018026Y012035D01*
X018003Y011994D01*
X017990Y011948D01*
X017990Y011650D01*
X017985Y011662D01*
X017890Y011757D01*
X017766Y011808D01*
X017631Y011808D01*
X017513Y011760D01*
X017513Y012276D01*
X017420Y012370D01*
X016683Y012370D01*
X016723Y012410D01*
X016732Y012415D01*
X016737Y012420D01*
X016755Y012420D01*
X016924Y012490D01*
X017053Y012619D01*
X017123Y012788D01*
X017123Y013571D01*
X017090Y013653D02*
X017237Y013653D01*
X016237Y013653D02*
X016112Y013653D01*
X016143Y013494D02*
X016203Y013494D01*
X016203Y013336D02*
X016143Y013336D01*
X015183Y013494D02*
X012915Y013494D01*
X012655Y013653D02*
X015215Y013653D01*
X017123Y013177D02*
X017203Y013177D01*
X017203Y013019D02*
X017123Y013019D01*
X017123Y012860D02*
X017203Y012860D01*
X017239Y012702D02*
X017087Y012702D01*
X016977Y012543D02*
X017350Y012543D01*
X017513Y012226D02*
X018153Y012226D01*
X018059Y012068D02*
X017513Y012068D01*
X017513Y011909D02*
X017990Y011909D01*
X017990Y011751D02*
X017896Y011751D01*
X018288Y011751D02*
X018288Y011751D01*
X018288Y011909D02*
X018288Y011909D01*
X018788Y011930D02*
X017788Y012930D01*
X017788Y013184D01*
X018578Y013230D02*
X019298Y012260D01*
X019288Y012260D02*
X019288Y011491D01*
X019788Y011491D02*
X019788Y013131D01*
X020468Y013140D02*
X020538Y012710D01*
X020538Y012934D02*
X020288Y011491D01*
X020788Y011491D02*
X020788Y010930D01*
X022261Y011275D02*
X023063Y011275D01*
X023063Y011117D02*
X022357Y011117D01*
X021587Y012068D02*
X021489Y012068D01*
X021087Y012068D02*
X020989Y012068D01*
X020977Y012543D02*
X021350Y012543D01*
X021239Y012702D02*
X021087Y012702D01*
X021123Y012860D02*
X021203Y012860D01*
X021203Y013019D02*
X021123Y013019D01*
X021123Y013177D02*
X021203Y013177D01*
X021203Y013336D02*
X021123Y013336D01*
X021123Y013494D02*
X021203Y013494D01*
X021237Y013653D02*
X021090Y013653D01*
X017994Y012385D02*
X016698Y012385D01*
X018288Y012068D02*
X018288Y012068D01*
X018788Y011930D02*
X018788Y011491D01*
X018288Y011434D02*
X018288Y011434D01*
X018288Y011592D02*
X018288Y011592D01*
X015396Y010483D02*
X015278Y010483D01*
X023788Y006680D02*
X027608Y010500D01*
X027637Y010528D01*
X027578Y010530D02*
X027578Y013140D01*
X028123Y013177D02*
X028203Y013177D01*
X028203Y013019D02*
X028123Y013019D01*
X028123Y012860D02*
X028203Y012860D01*
X028239Y012702D02*
X028087Y012702D01*
X027977Y012543D02*
X028350Y012543D01*
X028423Y012385D02*
X027818Y012385D01*
X027818Y012226D02*
X028423Y012226D01*
X028423Y012068D02*
X027818Y012068D01*
X027818Y011909D02*
X028335Y011909D01*
X028278Y011751D02*
X027818Y011751D01*
X027818Y011592D02*
X028278Y011592D01*
X028343Y011434D02*
X027818Y011434D01*
X027818Y011275D02*
X028514Y011275D01*
X027818Y011117D02*
X031090Y011117D01*
X031212Y010958D02*
X027818Y010958D01*
X028663Y012055D02*
X029038Y011680D01*
X028663Y012055D02*
X028663Y013180D01*
X028203Y013336D02*
X028123Y013336D01*
X028123Y013494D02*
X028203Y013494D01*
X028237Y013653D02*
X028090Y013653D01*
X029090Y013653D02*
X029237Y013653D01*
X029203Y013494D02*
X029123Y013494D01*
X029123Y013336D02*
X029203Y013336D01*
X029203Y013177D02*
X029123Y013177D01*
X029123Y013019D02*
X029203Y013019D01*
X029203Y012860D02*
X029123Y012860D01*
X029087Y012702D02*
X029214Y012702D01*
X029247Y012543D02*
X028977Y012543D01*
X028903Y012385D02*
X029399Y012385D01*
X029610Y012226D02*
X028903Y012226D01*
X029601Y012068D02*
X029822Y012068D01*
X029741Y011909D02*
X030033Y011909D01*
X030244Y011751D02*
X029798Y011751D01*
X029798Y011592D02*
X030456Y011592D01*
X030667Y011434D02*
X029734Y011434D01*
X029563Y011275D02*
X030878Y011275D01*
X031522Y011592D02*
X032031Y011592D01*
X031978Y011570D02*
X031908Y011500D01*
X031645Y011500D01*
X030077Y012676D01*
X030123Y012788D01*
X030123Y013571D01*
X030072Y013696D01*
X030235Y013696D01*
X030219Y013664D01*
X030195Y013592D01*
X030183Y013518D01*
X030183Y013200D01*
X030643Y013200D01*
X030643Y013160D01*
X030183Y013160D01*
X030183Y012842D01*
X030195Y012768D01*
X030219Y012696D01*
X030253Y012628D01*
X030297Y012567D01*
X030351Y012514D01*
X030412Y012469D01*
X030479Y012435D01*
X030551Y012412D01*
X030626Y012400D01*
X030643Y012400D01*
X030643Y013160D01*
X030683Y013160D01*
X030683Y012400D01*
X030701Y012400D01*
X030776Y012412D01*
X030848Y012435D01*
X030915Y012469D01*
X030976Y012514D01*
X031030Y012567D01*
X031074Y012628D01*
X031108Y012696D01*
X031132Y012768D01*
X031143Y012842D01*
X031143Y013160D01*
X030683Y013160D01*
X030683Y013200D01*
X031143Y013200D01*
X031143Y013518D01*
X031132Y013592D01*
X031108Y013664D01*
X031092Y013696D01*
X031941Y013696D01*
X031808Y013375D01*
X031808Y012985D01*
X031958Y012625D01*
X032233Y012349D01*
X032593Y012200D01*
X032983Y012200D01*
X033178Y012281D01*
X033178Y011490D01*
X033099Y011570D01*
X032930Y011640D01*
X032147Y011640D01*
X031978Y011570D01*
X031311Y011751D02*
X033178Y011751D01*
X033178Y011909D02*
X031100Y011909D01*
X030888Y012068D02*
X033178Y012068D01*
X033178Y012226D02*
X033046Y012226D01*
X032531Y012226D02*
X030677Y012226D01*
X030466Y012385D02*
X032198Y012385D01*
X032039Y012543D02*
X031005Y012543D01*
X031110Y012702D02*
X031926Y012702D01*
X031860Y012860D02*
X031143Y012860D01*
X031143Y013019D02*
X031808Y013019D01*
X031808Y013177D02*
X030683Y013177D01*
X030643Y013177D02*
X030123Y013177D01*
X030123Y013019D02*
X030183Y013019D01*
X030183Y012860D02*
X030123Y012860D01*
X030087Y012702D02*
X030217Y012702D01*
X030254Y012543D02*
X030322Y012543D01*
X030643Y012543D02*
X030683Y012543D01*
X030683Y012702D02*
X030643Y012702D01*
X030643Y012860D02*
X030683Y012860D01*
X030683Y013019D02*
X030643Y013019D01*
X030183Y013336D02*
X030123Y013336D01*
X030123Y013494D02*
X030183Y013494D01*
X030215Y013653D02*
X030090Y013653D01*
X031112Y013653D02*
X031923Y013653D01*
X031858Y013494D02*
X031143Y013494D01*
X031143Y013336D02*
X031808Y013336D01*
X033046Y011592D02*
X033178Y011592D01*
X031865Y010483D02*
X031839Y010483D01*
X028058Y009532D02*
X028018Y009532D01*
X028018Y009690D02*
X027138Y009690D01*
X027296Y009849D02*
X027558Y009849D01*
X027558Y010007D02*
X027455Y010007D01*
X027558Y009532D02*
X026979Y009532D01*
X026821Y009373D02*
X027558Y009373D01*
X027587Y009215D02*
X026662Y009215D01*
X026504Y009056D02*
X027684Y009056D01*
X028018Y009056D02*
X028058Y009056D01*
X028058Y009215D02*
X028018Y009215D01*
X028018Y009373D02*
X028058Y009373D01*
X032948Y005728D02*
X033178Y005728D01*
X033178Y005569D02*
X033100Y005569D01*
X033066Y004777D02*
X033178Y004777D01*
X033178Y004618D02*
X032983Y004618D01*
X033134Y003826D02*
X033178Y003826D01*
X033172Y002082D02*
X033178Y002082D01*
X032405Y002082D02*
X026498Y002082D01*
X026432Y001924D02*
X032146Y001924D01*
X031987Y001765D02*
X026274Y001765D01*
X026237Y001660D02*
X026058Y001660D01*
X026058Y001200D01*
X026018Y001200D01*
X026018Y001160D01*
X025558Y001160D01*
X025558Y000981D01*
X025840Y000700D01*
X026018Y000700D01*
X026018Y001160D01*
X026058Y001160D01*
X026058Y000700D01*
X026237Y000700D01*
X026518Y000981D01*
X026518Y001160D01*
X026058Y001160D01*
X026058Y001200D01*
X026518Y001200D01*
X026518Y001379D01*
X026237Y001660D01*
X026291Y001607D02*
X031904Y001607D01*
X031839Y001448D02*
X026449Y001448D01*
X026058Y001448D02*
X026018Y001448D01*
X026018Y001607D02*
X026058Y001607D01*
X026018Y001660D02*
X025840Y001660D01*
X025558Y001379D01*
X025558Y001200D01*
X026018Y001200D01*
X026018Y001660D01*
X025786Y001607D02*
X025291Y001607D01*
X025237Y001660D02*
X025058Y001660D01*
X025058Y001200D01*
X025018Y001200D01*
X025018Y001160D01*
X024558Y001160D01*
X024558Y000981D01*
X024840Y000700D01*
X025018Y000700D01*
X025018Y001160D01*
X025058Y001160D01*
X025058Y000700D01*
X025237Y000700D01*
X025518Y000981D01*
X025518Y001160D01*
X025058Y001160D01*
X025058Y001200D01*
X025518Y001200D01*
X025518Y001379D01*
X025237Y001660D01*
X025274Y001765D02*
X025803Y001765D01*
X025644Y001924D02*
X025432Y001924D01*
X025498Y002082D02*
X025578Y002082D01*
X025578Y002241D02*
X025498Y002241D01*
X025470Y002399D02*
X025607Y002399D01*
X024607Y002399D02*
X024470Y002399D01*
X024498Y002241D02*
X024578Y002241D01*
X024578Y002082D02*
X024498Y002082D01*
X024432Y001924D02*
X024644Y001924D01*
X024803Y001765D02*
X024274Y001765D01*
X024237Y001660D02*
X024058Y001660D01*
X024058Y001200D01*
X024018Y001200D01*
X024018Y001160D01*
X023558Y001160D01*
X023558Y000981D01*
X023840Y000700D01*
X024018Y000700D01*
X024018Y001160D01*
X024058Y001160D01*
X024058Y000700D01*
X024237Y000700D01*
X024518Y000981D01*
X024518Y001160D01*
X024058Y001160D01*
X024058Y001200D01*
X024518Y001200D01*
X024518Y001379D01*
X024237Y001660D01*
X024291Y001607D02*
X024786Y001607D01*
X024840Y001660D02*
X024558Y001379D01*
X024558Y001200D01*
X025018Y001200D01*
X025018Y001660D01*
X024840Y001660D01*
X025018Y001607D02*
X025058Y001607D01*
X025058Y001448D02*
X025018Y001448D01*
X025449Y001448D02*
X025628Y001448D01*
X025558Y001290D02*
X025518Y001290D01*
X025518Y001131D02*
X025558Y001131D01*
X025567Y000973D02*
X025510Y000973D01*
X025351Y000814D02*
X025726Y000814D01*
X026018Y000814D02*
X026058Y000814D01*
X026058Y000973D02*
X026018Y000973D01*
X026018Y001131D02*
X026058Y001131D01*
X026058Y001290D02*
X026018Y001290D01*
X026518Y001290D02*
X031808Y001290D01*
X031808Y001131D02*
X026518Y001131D01*
X026510Y000973D02*
X031814Y000973D01*
X031879Y000814D02*
X026351Y000814D01*
X025058Y000814D02*
X025018Y000814D01*
X025018Y000973D02*
X025058Y000973D01*
X025058Y001131D02*
X025018Y001131D01*
X025018Y001290D02*
X025058Y001290D01*
X024628Y001448D02*
X024449Y001448D01*
X024058Y001448D02*
X024018Y001448D01*
X024018Y001607D02*
X024058Y001607D01*
X024018Y001660D02*
X023840Y001660D01*
X023558Y001379D01*
X023558Y001200D01*
X024018Y001200D01*
X024018Y001660D01*
X023786Y001607D02*
X023291Y001607D01*
X023237Y001660D02*
X023058Y001660D01*
X023058Y001200D01*
X023018Y001200D01*
X023018Y001160D01*
X022558Y001160D01*
X022558Y000981D01*
X022840Y000700D01*
X023018Y000700D01*
X023018Y001160D01*
X023058Y001160D01*
X023058Y000700D01*
X023237Y000700D01*
X023518Y000981D01*
X023518Y001160D01*
X023058Y001160D01*
X023058Y001200D01*
X023518Y001200D01*
X023518Y001379D01*
X023237Y001660D01*
X023274Y001765D02*
X023803Y001765D01*
X023644Y001924D02*
X023432Y001924D01*
X023498Y002082D02*
X023578Y002082D01*
X023578Y002241D02*
X023498Y002241D01*
X023470Y002399D02*
X023607Y002399D01*
X022607Y002399D02*
X022470Y002399D01*
X022498Y002241D02*
X022578Y002241D01*
X022578Y002082D02*
X022498Y002082D01*
X022432Y001924D02*
X022644Y001924D01*
X022803Y001765D02*
X022274Y001765D01*
X022237Y001660D02*
X022058Y001660D01*
X022058Y001200D01*
X022018Y001200D01*
X022018Y001160D01*
X021558Y001160D01*
X021558Y000981D01*
X021840Y000700D01*
X022018Y000700D01*
X022018Y001160D01*
X022058Y001160D01*
X022058Y000700D01*
X022237Y000700D01*
X022518Y000981D01*
X022518Y001160D01*
X022058Y001160D01*
X022058Y001200D01*
X022518Y001200D01*
X022518Y001379D01*
X022237Y001660D01*
X022291Y001607D02*
X022786Y001607D01*
X022840Y001660D02*
X022558Y001379D01*
X022558Y001200D01*
X023018Y001200D01*
X023018Y001660D01*
X022840Y001660D01*
X023018Y001607D02*
X023058Y001607D01*
X023058Y001448D02*
X023018Y001448D01*
X022628Y001448D02*
X022449Y001448D01*
X022058Y001448D02*
X022018Y001448D01*
X022018Y001607D02*
X022058Y001607D01*
X022018Y001660D02*
X021840Y001660D01*
X021558Y001379D01*
X021558Y001200D01*
X022018Y001200D01*
X022018Y001660D01*
X021786Y001607D02*
X021291Y001607D01*
X021237Y001660D02*
X021058Y001660D01*
X021058Y001200D01*
X021018Y001200D01*
X021018Y001160D01*
X020558Y001160D01*
X020558Y000981D01*
X020840Y000700D01*
X021018Y000700D01*
X021018Y001160D01*
X021058Y001160D01*
X021058Y000700D01*
X021237Y000700D01*
X021518Y000981D01*
X021518Y001160D01*
X021058Y001160D01*
X021058Y001200D01*
X021518Y001200D01*
X021518Y001379D01*
X021237Y001660D01*
X021274Y001765D02*
X021803Y001765D01*
X021644Y001924D02*
X021432Y001924D01*
X021498Y002082D02*
X021578Y002082D01*
X021578Y002241D02*
X021498Y002241D01*
X021470Y002399D02*
X021607Y002399D01*
X020607Y002399D02*
X020470Y002399D01*
X020498Y002241D02*
X020578Y002241D01*
X020578Y002082D02*
X020498Y002082D01*
X020432Y001924D02*
X020644Y001924D01*
X020803Y001765D02*
X020274Y001765D01*
X020237Y001660D02*
X020058Y001660D01*
X020058Y001200D01*
X020018Y001200D01*
X020018Y001160D01*
X019558Y001160D01*
X019558Y000981D01*
X019840Y000700D01*
X020018Y000700D01*
X020018Y001160D01*
X020058Y001160D01*
X020058Y000700D01*
X020237Y000700D01*
X020518Y000981D01*
X020518Y001160D01*
X020058Y001160D01*
X020058Y001200D01*
X020518Y001200D01*
X020518Y001379D01*
X020237Y001660D01*
X020291Y001607D02*
X020786Y001607D01*
X020840Y001660D02*
X020558Y001379D01*
X020558Y001200D01*
X021018Y001200D01*
X021018Y001660D01*
X020840Y001660D01*
X021018Y001607D02*
X021058Y001607D01*
X021058Y001448D02*
X021018Y001448D01*
X020628Y001448D02*
X020449Y001448D01*
X020058Y001448D02*
X020018Y001448D01*
X020018Y001607D02*
X020058Y001607D01*
X020018Y001660D02*
X019840Y001660D01*
X019558Y001379D01*
X019558Y001200D01*
X020018Y001200D01*
X020018Y001660D01*
X019786Y001607D02*
X019291Y001607D01*
X019237Y001660D02*
X019058Y001660D01*
X019058Y001200D01*
X019018Y001200D01*
X019018Y001160D01*
X018558Y001160D01*
X018558Y000981D01*
X018840Y000700D01*
X019018Y000700D01*
X019018Y001160D01*
X019058Y001160D01*
X019058Y000700D01*
X019237Y000700D01*
X019518Y000981D01*
X019518Y001160D01*
X019058Y001160D01*
X019058Y001200D01*
X019518Y001200D01*
X019518Y001379D01*
X019237Y001660D01*
X019274Y001765D02*
X019803Y001765D01*
X019644Y001924D02*
X019432Y001924D01*
X019498Y002082D02*
X019578Y002082D01*
X019578Y002241D02*
X019498Y002241D01*
X019470Y002399D02*
X019607Y002399D01*
X018607Y002399D02*
X018470Y002399D01*
X018498Y002241D02*
X018578Y002241D01*
X018578Y002082D02*
X018498Y002082D01*
X018432Y001924D02*
X018644Y001924D01*
X018803Y001765D02*
X018274Y001765D01*
X018237Y001660D02*
X018058Y001660D01*
X018058Y001200D01*
X018518Y001200D01*
X018518Y001379D01*
X018237Y001660D01*
X018291Y001607D02*
X018786Y001607D01*
X018840Y001660D02*
X018558Y001379D01*
X018558Y001200D01*
X019018Y001200D01*
X019018Y001660D01*
X018840Y001660D01*
X019018Y001607D02*
X019058Y001607D01*
X019058Y001448D02*
X019018Y001448D01*
X018628Y001448D02*
X018449Y001448D01*
X018058Y001448D02*
X018018Y001448D01*
X018018Y001607D02*
X018058Y001607D01*
X017628Y001448D02*
X017449Y001448D01*
X017518Y001290D02*
X017558Y001290D01*
X017558Y001131D02*
X017518Y001131D01*
X017510Y000973D02*
X017567Y000973D01*
X017726Y000814D02*
X017351Y000814D01*
X017058Y000814D02*
X017018Y000814D01*
X017018Y000973D02*
X017058Y000973D01*
X017058Y001131D02*
X017018Y001131D01*
X017018Y001290D02*
X017058Y001290D01*
X016558Y001290D02*
X016518Y001290D01*
X016518Y001131D02*
X016558Y001131D01*
X016567Y000973D02*
X016510Y000973D01*
X016351Y000814D02*
X016726Y000814D01*
X016058Y000814D02*
X016018Y000814D01*
X016018Y000973D02*
X016058Y000973D01*
X016058Y001131D02*
X016018Y001131D01*
X016018Y001200D02*
X015558Y001200D01*
X015558Y001379D01*
X015840Y001660D01*
X016018Y001660D01*
X016018Y001200D01*
X016018Y001290D02*
X016058Y001290D01*
X015558Y001290D02*
X015518Y001290D01*
X015518Y001379D02*
X015518Y001200D01*
X015058Y001200D01*
X015018Y001200D01*
X015018Y001160D01*
X014558Y001160D01*
X014558Y000981D01*
X014840Y000700D01*
X015018Y000700D01*
X015018Y001160D01*
X015058Y001160D01*
X015058Y000700D01*
X015237Y000700D01*
X015518Y000981D01*
X015518Y001160D01*
X015058Y001160D01*
X015058Y001200D01*
X015058Y001660D01*
X015237Y001660D01*
X015518Y001379D01*
X015449Y001448D02*
X015628Y001448D01*
X015786Y001607D02*
X015291Y001607D01*
X015274Y001765D02*
X015803Y001765D01*
X015644Y001924D02*
X015432Y001924D01*
X015498Y002082D02*
X015578Y002082D01*
X015578Y002241D02*
X015498Y002241D01*
X015470Y002399D02*
X015607Y002399D01*
X015038Y002180D02*
X015038Y003430D01*
X014413Y004055D01*
X013638Y004055D01*
X014028Y004301D02*
X015021Y004301D01*
X015180Y004143D02*
X014665Y004143D01*
X014824Y003984D02*
X015338Y003984D01*
X015497Y003826D02*
X014982Y003826D01*
X015141Y003667D02*
X015655Y003667D01*
X015814Y003509D02*
X015266Y003509D01*
X013504Y002875D02*
X004635Y002875D01*
X004675Y003033D02*
X012346Y003033D01*
X011607Y002399D02*
X011470Y002399D01*
X011498Y002241D02*
X011578Y002241D01*
X011578Y002082D02*
X011498Y002082D01*
X011432Y001924D02*
X011644Y001924D01*
X011803Y001765D02*
X011274Y001765D01*
X011237Y001660D02*
X011058Y001660D01*
X011058Y001200D01*
X011018Y001200D01*
X011018Y001160D01*
X010558Y001160D01*
X010558Y000981D01*
X010840Y000700D01*
X011018Y000700D01*
X011018Y001160D01*
X011058Y001160D01*
X011058Y000700D01*
X011237Y000700D01*
X011518Y000981D01*
X011518Y001160D01*
X011058Y001160D01*
X011058Y001200D01*
X011518Y001200D01*
X011518Y001379D01*
X011237Y001660D01*
X011291Y001607D02*
X011786Y001607D01*
X011840Y001660D02*
X011558Y001379D01*
X011558Y001200D01*
X012018Y001200D01*
X012018Y001660D01*
X011840Y001660D01*
X012018Y001607D02*
X012058Y001607D01*
X012058Y001448D02*
X012018Y001448D01*
X011628Y001448D02*
X011449Y001448D01*
X011058Y001448D02*
X011018Y001448D01*
X011018Y001607D02*
X011058Y001607D01*
X011018Y001660D02*
X010840Y001660D01*
X010558Y001379D01*
X010558Y001200D01*
X011018Y001200D01*
X011018Y001660D01*
X010786Y001607D02*
X010291Y001607D01*
X010237Y001660D02*
X010058Y001660D01*
X010058Y001200D01*
X010518Y001200D01*
X010518Y001379D01*
X010237Y001660D01*
X010274Y001765D02*
X010803Y001765D01*
X010644Y001924D02*
X010432Y001924D01*
X010498Y002082D02*
X010578Y002082D01*
X010578Y002241D02*
X010498Y002241D01*
X010470Y002399D02*
X010607Y002399D01*
X010058Y001607D02*
X010018Y001607D01*
X010018Y001448D02*
X010058Y001448D01*
X010449Y001448D02*
X010628Y001448D01*
X010558Y001290D02*
X010518Y001290D01*
X010518Y001131D02*
X010558Y001131D01*
X010567Y000973D02*
X010510Y000973D01*
X010351Y000814D02*
X010726Y000814D01*
X011018Y000814D02*
X011058Y000814D01*
X011058Y000973D02*
X011018Y000973D01*
X011018Y001131D02*
X011058Y001131D01*
X011058Y001290D02*
X011018Y001290D01*
X011518Y001290D02*
X011558Y001290D01*
X011558Y001131D02*
X011518Y001131D01*
X011510Y000973D02*
X011567Y000973D01*
X011726Y000814D02*
X011351Y000814D01*
X012018Y000814D02*
X012058Y000814D01*
X012058Y000973D02*
X012018Y000973D01*
X012018Y001131D02*
X012058Y001131D01*
X012058Y001290D02*
X012018Y001290D01*
X012449Y001448D02*
X012628Y001448D01*
X012558Y001290D02*
X012518Y001290D01*
X012518Y001131D02*
X012558Y001131D01*
X012567Y000973D02*
X012510Y000973D01*
X012351Y000814D02*
X012726Y000814D01*
X013018Y000814D02*
X013058Y000814D01*
X013058Y000973D02*
X013018Y000973D01*
X013018Y001131D02*
X013058Y001131D01*
X013058Y001290D02*
X013018Y001290D01*
X013449Y001448D02*
X013628Y001448D01*
X014018Y001448D02*
X014058Y001448D01*
X014058Y001607D02*
X014018Y001607D01*
X014058Y001660D02*
X014237Y001660D01*
X014518Y001379D01*
X014518Y001200D01*
X014058Y001200D01*
X014058Y001660D01*
X014291Y001607D02*
X014786Y001607D01*
X014840Y001660D02*
X014558Y001379D01*
X014558Y001200D01*
X015018Y001200D01*
X015018Y001660D01*
X014840Y001660D01*
X014803Y001765D02*
X014274Y001765D01*
X014432Y001924D02*
X014644Y001924D01*
X014578Y002082D02*
X014498Y002082D01*
X014498Y002241D02*
X014578Y002241D01*
X014607Y002399D02*
X014470Y002399D01*
X015018Y001607D02*
X015058Y001607D01*
X015058Y001448D02*
X015018Y001448D01*
X014628Y001448D02*
X014449Y001448D01*
X014518Y001290D02*
X014558Y001290D01*
X014558Y001131D02*
X014518Y001131D01*
X014510Y000973D02*
X014567Y000973D01*
X014726Y000814D02*
X014351Y000814D01*
X014058Y000814D02*
X014018Y000814D01*
X014018Y000973D02*
X014058Y000973D01*
X014058Y001131D02*
X014018Y001131D01*
X014018Y001290D02*
X014058Y001290D01*
X013558Y001290D02*
X013518Y001290D01*
X013518Y001131D02*
X013558Y001131D01*
X013567Y000973D02*
X013510Y000973D01*
X013351Y000814D02*
X013726Y000814D01*
X015018Y000814D02*
X015058Y000814D01*
X015058Y000973D02*
X015018Y000973D01*
X015018Y001131D02*
X015058Y001131D01*
X015058Y001290D02*
X015018Y001290D01*
X015518Y001131D02*
X015558Y001131D01*
X015567Y000973D02*
X015510Y000973D01*
X015351Y000814D02*
X015726Y000814D01*
X016018Y001448D02*
X016058Y001448D01*
X016058Y001607D02*
X016018Y001607D01*
X016449Y001448D02*
X016628Y001448D01*
X018018Y001290D02*
X018058Y001290D01*
X018058Y001131D02*
X018018Y001131D01*
X018018Y000973D02*
X018058Y000973D01*
X018058Y000814D02*
X018018Y000814D01*
X018351Y000814D02*
X018726Y000814D01*
X018567Y000973D02*
X018510Y000973D01*
X018518Y001131D02*
X018558Y001131D01*
X018558Y001290D02*
X018518Y001290D01*
X019018Y001290D02*
X019058Y001290D01*
X019058Y001131D02*
X019018Y001131D01*
X019018Y000973D02*
X019058Y000973D01*
X019058Y000814D02*
X019018Y000814D01*
X019351Y000814D02*
X019726Y000814D01*
X019567Y000973D02*
X019510Y000973D01*
X019518Y001131D02*
X019558Y001131D01*
X019558Y001290D02*
X019518Y001290D01*
X019449Y001448D02*
X019628Y001448D01*
X020018Y001290D02*
X020058Y001290D01*
X020058Y001131D02*
X020018Y001131D01*
X020018Y000973D02*
X020058Y000973D01*
X020058Y000814D02*
X020018Y000814D01*
X020351Y000814D02*
X020726Y000814D01*
X020567Y000973D02*
X020510Y000973D01*
X020518Y001131D02*
X020558Y001131D01*
X020558Y001290D02*
X020518Y001290D01*
X021018Y001290D02*
X021058Y001290D01*
X021058Y001131D02*
X021018Y001131D01*
X021018Y000973D02*
X021058Y000973D01*
X021058Y000814D02*
X021018Y000814D01*
X021351Y000814D02*
X021726Y000814D01*
X021567Y000973D02*
X021510Y000973D01*
X021518Y001131D02*
X021558Y001131D01*
X021558Y001290D02*
X021518Y001290D01*
X021449Y001448D02*
X021628Y001448D01*
X022018Y001290D02*
X022058Y001290D01*
X022058Y001131D02*
X022018Y001131D01*
X022018Y000973D02*
X022058Y000973D01*
X022058Y000814D02*
X022018Y000814D01*
X022351Y000814D02*
X022726Y000814D01*
X022567Y000973D02*
X022510Y000973D01*
X022518Y001131D02*
X022558Y001131D01*
X022558Y001290D02*
X022518Y001290D01*
X023018Y001290D02*
X023058Y001290D01*
X023058Y001131D02*
X023018Y001131D01*
X023018Y000973D02*
X023058Y000973D01*
X023058Y000814D02*
X023018Y000814D01*
X023351Y000814D02*
X023726Y000814D01*
X023567Y000973D02*
X023510Y000973D01*
X023518Y001131D02*
X023558Y001131D01*
X023558Y001290D02*
X023518Y001290D01*
X023449Y001448D02*
X023628Y001448D01*
X024018Y001290D02*
X024058Y001290D01*
X024058Y001131D02*
X024018Y001131D01*
X024018Y000973D02*
X024058Y000973D01*
X024058Y000814D02*
X024018Y000814D01*
X024351Y000814D02*
X024726Y000814D01*
X024567Y000973D02*
X024510Y000973D01*
X024518Y001131D02*
X024558Y001131D01*
X024558Y001290D02*
X024518Y001290D01*
X014863Y004460D02*
X014005Y004460D01*
X007889Y003984D02*
X007754Y003984D01*
X007754Y003826D02*
X007889Y003826D01*
X007347Y003509D02*
X004669Y003509D01*
X004675Y003350D02*
X007347Y003350D01*
X007754Y003350D02*
X007889Y003350D01*
X004100Y003509D02*
X004024Y003509D01*
X004024Y003033D02*
X004100Y003033D01*
X004100Y002875D02*
X004024Y002875D01*
X010018Y001290D02*
X010058Y001290D01*
X010058Y001131D02*
X010018Y001131D01*
X010018Y000973D02*
X010058Y000973D01*
X010058Y000814D02*
X010018Y000814D01*
D29*
X014288Y005430D02*
X016038Y003680D01*
X025538Y003680D01*
X026038Y003180D01*
X028038Y003180D01*
X028038Y005400D01*
X014288Y005430D02*
X010538Y005430D01*
X010038Y004930D01*
X006788Y004930D01*
X006788Y006680D01*
X008117Y006680D01*
X013038Y006680D02*
X013038Y009680D01*
X012788Y009930D01*
X012538Y009930D01*
X012288Y009680D01*
X012288Y009554D01*
X012038Y009930D02*
X012538Y009930D01*
X017788Y012180D02*
X018288Y011680D01*
X018288Y011491D01*
X007788Y013180D02*
X006288Y013180D01*
X005538Y012430D01*
X004788Y012430D01*
X003538Y011430D01*
X003538Y010680D01*
X013038Y006680D02*
X014288Y005430D01*
D30*
X017608Y007360D02*
X018788Y006180D01*
X024038Y006180D01*
X027058Y006180D01*
X027058Y006610D01*
X027058Y006700D02*
X027058Y006930D01*
X027058Y007190D01*
X027038Y007190D01*
X027038Y008180D01*
X029038Y008180D01*
X029538Y007680D01*
X031038Y007680D01*
X031038Y007750D01*
X031518Y008230D01*
X031468Y008680D01*
X031538Y011180D01*
X032538Y011180D01*
X031538Y011180D02*
X029538Y012680D01*
X029663Y013180D01*
X017608Y011380D02*
X017608Y007360D01*
X017608Y011380D02*
X017038Y011380D01*
X027058Y006180D02*
X027058Y005400D01*
X027128Y005400D01*
D31*
X024038Y006180D02*
X023998Y006250D01*
X027608Y010500D02*
X027578Y010530D01*
X026637Y012832D02*
X026588Y012870D01*
X026588Y013140D01*
X026663Y013180D01*
X025663Y013180D02*
X025598Y013140D01*
X025637Y013082D01*
X027578Y013140D02*
X027663Y013180D01*
X020663Y013180D02*
X020468Y013140D01*
X020538Y012934D02*
X020538Y012710D01*
X019788Y013131D02*
X019748Y013140D01*
X019568Y013140D01*
X019663Y013180D01*
X018663Y013180D02*
X018578Y013230D01*
X017788Y013184D02*
X017768Y013230D01*
X017588Y013230D01*
X017663Y013180D01*
X016758Y013140D02*
X016663Y013180D01*
X016748Y013150D02*
X016758Y013140D01*
X016078Y012100D02*
X016038Y012054D01*
X016258Y011380D02*
X016798Y011920D01*
X016978Y011920D01*
X017038Y011980D01*
X017608Y011380D02*
X017698Y011470D01*
X016258Y011380D02*
X016078Y011380D01*
X016038Y011306D01*
X019288Y012260D02*
X019298Y012260D01*
D32*
X009538Y010680D03*
X013038Y004930D03*
M02*
