G75*
%MOIN*%
%OFA0B0*%
%FSLAX24Y24*%
%IPPOS*%
%LPD*%
%AMOC8*
5,1,8,0,0,1.08239X$1,22.5*
%
%ADD10C,0.0000*%
D10*
X002288Y000180D02*
X002288Y014176D01*
X033658Y014176D01*
X033658Y000180D01*
X002288Y000180D01*
X002788Y001180D02*
X002790Y001224D01*
X002796Y001268D01*
X002806Y001311D01*
X002819Y001353D01*
X002836Y001394D01*
X002857Y001433D01*
X002881Y001470D01*
X002908Y001505D01*
X002938Y001537D01*
X002971Y001567D01*
X003007Y001593D01*
X003044Y001617D01*
X003084Y001636D01*
X003125Y001653D01*
X003168Y001665D01*
X003211Y001674D01*
X003255Y001679D01*
X003299Y001680D01*
X003343Y001677D01*
X003387Y001670D01*
X003430Y001659D01*
X003472Y001645D01*
X003512Y001627D01*
X003551Y001605D01*
X003587Y001581D01*
X003621Y001553D01*
X003653Y001522D01*
X003682Y001488D01*
X003708Y001452D01*
X003730Y001414D01*
X003749Y001374D01*
X003764Y001332D01*
X003776Y001290D01*
X003784Y001246D01*
X003788Y001202D01*
X003788Y001158D01*
X003784Y001114D01*
X003776Y001070D01*
X003764Y001028D01*
X003749Y000986D01*
X003730Y000946D01*
X003708Y000908D01*
X003682Y000872D01*
X003653Y000838D01*
X003621Y000807D01*
X003587Y000779D01*
X003551Y000755D01*
X003512Y000733D01*
X003472Y000715D01*
X003430Y000701D01*
X003387Y000690D01*
X003343Y000683D01*
X003299Y000680D01*
X003255Y000681D01*
X003211Y000686D01*
X003168Y000695D01*
X003125Y000707D01*
X003084Y000724D01*
X003044Y000743D01*
X003007Y000767D01*
X002971Y000793D01*
X002938Y000823D01*
X002908Y000855D01*
X002881Y000890D01*
X002857Y000927D01*
X002836Y000966D01*
X002819Y001007D01*
X002806Y001049D01*
X002796Y001092D01*
X002790Y001136D01*
X002788Y001180D01*
X002788Y013180D02*
X002790Y013224D01*
X002796Y013268D01*
X002806Y013311D01*
X002819Y013353D01*
X002836Y013394D01*
X002857Y013433D01*
X002881Y013470D01*
X002908Y013505D01*
X002938Y013537D01*
X002971Y013567D01*
X003007Y013593D01*
X003044Y013617D01*
X003084Y013636D01*
X003125Y013653D01*
X003168Y013665D01*
X003211Y013674D01*
X003255Y013679D01*
X003299Y013680D01*
X003343Y013677D01*
X003387Y013670D01*
X003430Y013659D01*
X003472Y013645D01*
X003512Y013627D01*
X003551Y013605D01*
X003587Y013581D01*
X003621Y013553D01*
X003653Y013522D01*
X003682Y013488D01*
X003708Y013452D01*
X003730Y013414D01*
X003749Y013374D01*
X003764Y013332D01*
X003776Y013290D01*
X003784Y013246D01*
X003788Y013202D01*
X003788Y013158D01*
X003784Y013114D01*
X003776Y013070D01*
X003764Y013028D01*
X003749Y012986D01*
X003730Y012946D01*
X003708Y012908D01*
X003682Y012872D01*
X003653Y012838D01*
X003621Y012807D01*
X003587Y012779D01*
X003551Y012755D01*
X003512Y012733D01*
X003472Y012715D01*
X003430Y012701D01*
X003387Y012690D01*
X003343Y012683D01*
X003299Y012680D01*
X003255Y012681D01*
X003211Y012686D01*
X003168Y012695D01*
X003125Y012707D01*
X003084Y012724D01*
X003044Y012743D01*
X003007Y012767D01*
X002971Y012793D01*
X002938Y012823D01*
X002908Y012855D01*
X002881Y012890D01*
X002857Y012927D01*
X002836Y012966D01*
X002819Y013007D01*
X002806Y013049D01*
X002796Y013092D01*
X002790Y013136D01*
X002788Y013180D01*
X032288Y013180D02*
X032290Y013224D01*
X032296Y013268D01*
X032306Y013311D01*
X032319Y013353D01*
X032336Y013394D01*
X032357Y013433D01*
X032381Y013470D01*
X032408Y013505D01*
X032438Y013537D01*
X032471Y013567D01*
X032507Y013593D01*
X032544Y013617D01*
X032584Y013636D01*
X032625Y013653D01*
X032668Y013665D01*
X032711Y013674D01*
X032755Y013679D01*
X032799Y013680D01*
X032843Y013677D01*
X032887Y013670D01*
X032930Y013659D01*
X032972Y013645D01*
X033012Y013627D01*
X033051Y013605D01*
X033087Y013581D01*
X033121Y013553D01*
X033153Y013522D01*
X033182Y013488D01*
X033208Y013452D01*
X033230Y013414D01*
X033249Y013374D01*
X033264Y013332D01*
X033276Y013290D01*
X033284Y013246D01*
X033288Y013202D01*
X033288Y013158D01*
X033284Y013114D01*
X033276Y013070D01*
X033264Y013028D01*
X033249Y012986D01*
X033230Y012946D01*
X033208Y012908D01*
X033182Y012872D01*
X033153Y012838D01*
X033121Y012807D01*
X033087Y012779D01*
X033051Y012755D01*
X033012Y012733D01*
X032972Y012715D01*
X032930Y012701D01*
X032887Y012690D01*
X032843Y012683D01*
X032799Y012680D01*
X032755Y012681D01*
X032711Y012686D01*
X032668Y012695D01*
X032625Y012707D01*
X032584Y012724D01*
X032544Y012743D01*
X032507Y012767D01*
X032471Y012793D01*
X032438Y012823D01*
X032408Y012855D01*
X032381Y012890D01*
X032357Y012927D01*
X032336Y012966D01*
X032319Y013007D01*
X032306Y013049D01*
X032296Y013092D01*
X032290Y013136D01*
X032288Y013180D01*
X032288Y001180D02*
X032290Y001224D01*
X032296Y001268D01*
X032306Y001311D01*
X032319Y001353D01*
X032336Y001394D01*
X032357Y001433D01*
X032381Y001470D01*
X032408Y001505D01*
X032438Y001537D01*
X032471Y001567D01*
X032507Y001593D01*
X032544Y001617D01*
X032584Y001636D01*
X032625Y001653D01*
X032668Y001665D01*
X032711Y001674D01*
X032755Y001679D01*
X032799Y001680D01*
X032843Y001677D01*
X032887Y001670D01*
X032930Y001659D01*
X032972Y001645D01*
X033012Y001627D01*
X033051Y001605D01*
X033087Y001581D01*
X033121Y001553D01*
X033153Y001522D01*
X033182Y001488D01*
X033208Y001452D01*
X033230Y001414D01*
X033249Y001374D01*
X033264Y001332D01*
X033276Y001290D01*
X033284Y001246D01*
X033288Y001202D01*
X033288Y001158D01*
X033284Y001114D01*
X033276Y001070D01*
X033264Y001028D01*
X033249Y000986D01*
X033230Y000946D01*
X033208Y000908D01*
X033182Y000872D01*
X033153Y000838D01*
X033121Y000807D01*
X033087Y000779D01*
X033051Y000755D01*
X033012Y000733D01*
X032972Y000715D01*
X032930Y000701D01*
X032887Y000690D01*
X032843Y000683D01*
X032799Y000680D01*
X032755Y000681D01*
X032711Y000686D01*
X032668Y000695D01*
X032625Y000707D01*
X032584Y000724D01*
X032544Y000743D01*
X032507Y000767D01*
X032471Y000793D01*
X032438Y000823D01*
X032408Y000855D01*
X032381Y000890D01*
X032357Y000927D01*
X032336Y000966D01*
X032319Y001007D01*
X032306Y001049D01*
X032296Y001092D01*
X032290Y001136D01*
X032288Y001180D01*
M02*
