G75*
%MOIN*%
%OFA0B0*%
%FSLAX24Y24*%
%IPPOS*%
%LPD*%
%AMOC8*
5,1,8,0,0,1.08239X$1,22.5*
%
%ADD10C,0.0000*%
%ADD11OC8,0.0600*%
%ADD12C,0.0600*%
%ADD13R,0.0800X0.0260*%
%ADD14R,0.0220X0.0500*%
%ADD15R,0.0500X0.0220*%
%ADD16R,0.0591X0.0512*%
%ADD17C,0.0440*%
%ADD18R,0.0512X0.0591*%
%ADD19C,0.0520*%
%ADD20R,0.0594X0.0594*%
%ADD21OC8,0.0594*%
%ADD22C,0.1266*%
%ADD23C,0.0860*%
%ADD24C,0.0160*%
%ADD25C,0.0317*%
%ADD26C,0.0100*%
%ADD27C,0.0120*%
%ADD28C,0.0240*%
%ADD29C,0.0320*%
%ADD30C,0.0258*%
%ADD31C,0.0356*%
D10*
X000160Y000550D02*
X000160Y014546D01*
X039280Y014546D01*
X039280Y000550D01*
X000160Y000550D01*
X000660Y001550D02*
X000662Y001594D01*
X000668Y001638D01*
X000678Y001681D01*
X000691Y001723D01*
X000708Y001764D01*
X000729Y001803D01*
X000753Y001840D01*
X000780Y001875D01*
X000810Y001907D01*
X000843Y001937D01*
X000879Y001963D01*
X000916Y001987D01*
X000956Y002006D01*
X000997Y002023D01*
X001040Y002035D01*
X001083Y002044D01*
X001127Y002049D01*
X001171Y002050D01*
X001215Y002047D01*
X001259Y002040D01*
X001302Y002029D01*
X001344Y002015D01*
X001384Y001997D01*
X001423Y001975D01*
X001459Y001951D01*
X001493Y001923D01*
X001525Y001892D01*
X001554Y001858D01*
X001580Y001822D01*
X001602Y001784D01*
X001621Y001744D01*
X001636Y001702D01*
X001648Y001660D01*
X001656Y001616D01*
X001660Y001572D01*
X001660Y001528D01*
X001656Y001484D01*
X001648Y001440D01*
X001636Y001398D01*
X001621Y001356D01*
X001602Y001316D01*
X001580Y001278D01*
X001554Y001242D01*
X001525Y001208D01*
X001493Y001177D01*
X001459Y001149D01*
X001423Y001125D01*
X001384Y001103D01*
X001344Y001085D01*
X001302Y001071D01*
X001259Y001060D01*
X001215Y001053D01*
X001171Y001050D01*
X001127Y001051D01*
X001083Y001056D01*
X001040Y001065D01*
X000997Y001077D01*
X000956Y001094D01*
X000916Y001113D01*
X000879Y001137D01*
X000843Y001163D01*
X000810Y001193D01*
X000780Y001225D01*
X000753Y001260D01*
X000729Y001297D01*
X000708Y001336D01*
X000691Y001377D01*
X000678Y001419D01*
X000668Y001462D01*
X000662Y001506D01*
X000660Y001550D01*
X001849Y006099D02*
X001851Y006125D01*
X001857Y006151D01*
X001867Y006176D01*
X001880Y006199D01*
X001896Y006219D01*
X001916Y006237D01*
X001938Y006252D01*
X001961Y006264D01*
X001987Y006272D01*
X002013Y006276D01*
X002039Y006276D01*
X002065Y006272D01*
X002091Y006264D01*
X002115Y006252D01*
X002136Y006237D01*
X002156Y006219D01*
X002172Y006199D01*
X002185Y006176D01*
X002195Y006151D01*
X002201Y006125D01*
X002203Y006099D01*
X002201Y006073D01*
X002195Y006047D01*
X002185Y006022D01*
X002172Y005999D01*
X002156Y005979D01*
X002136Y005961D01*
X002114Y005946D01*
X002091Y005934D01*
X002065Y005926D01*
X002039Y005922D01*
X002013Y005922D01*
X001987Y005926D01*
X001961Y005934D01*
X001937Y005946D01*
X001916Y005961D01*
X001896Y005979D01*
X001880Y005999D01*
X001867Y006022D01*
X001857Y006047D01*
X001851Y006073D01*
X001849Y006099D01*
X001849Y009249D02*
X001851Y009275D01*
X001857Y009301D01*
X001867Y009326D01*
X001880Y009349D01*
X001896Y009369D01*
X001916Y009387D01*
X001938Y009402D01*
X001961Y009414D01*
X001987Y009422D01*
X002013Y009426D01*
X002039Y009426D01*
X002065Y009422D01*
X002091Y009414D01*
X002115Y009402D01*
X002136Y009387D01*
X002156Y009369D01*
X002172Y009349D01*
X002185Y009326D01*
X002195Y009301D01*
X002201Y009275D01*
X002203Y009249D01*
X002201Y009223D01*
X002195Y009197D01*
X002185Y009172D01*
X002172Y009149D01*
X002156Y009129D01*
X002136Y009111D01*
X002114Y009096D01*
X002091Y009084D01*
X002065Y009076D01*
X002039Y009072D01*
X002013Y009072D01*
X001987Y009076D01*
X001961Y009084D01*
X001937Y009096D01*
X001916Y009111D01*
X001896Y009129D01*
X001880Y009149D01*
X001867Y009172D01*
X001857Y009197D01*
X001851Y009223D01*
X001849Y009249D01*
X000660Y013550D02*
X000662Y013594D01*
X000668Y013638D01*
X000678Y013681D01*
X000691Y013723D01*
X000708Y013764D01*
X000729Y013803D01*
X000753Y013840D01*
X000780Y013875D01*
X000810Y013907D01*
X000843Y013937D01*
X000879Y013963D01*
X000916Y013987D01*
X000956Y014006D01*
X000997Y014023D01*
X001040Y014035D01*
X001083Y014044D01*
X001127Y014049D01*
X001171Y014050D01*
X001215Y014047D01*
X001259Y014040D01*
X001302Y014029D01*
X001344Y014015D01*
X001384Y013997D01*
X001423Y013975D01*
X001459Y013951D01*
X001493Y013923D01*
X001525Y013892D01*
X001554Y013858D01*
X001580Y013822D01*
X001602Y013784D01*
X001621Y013744D01*
X001636Y013702D01*
X001648Y013660D01*
X001656Y013616D01*
X001660Y013572D01*
X001660Y013528D01*
X001656Y013484D01*
X001648Y013440D01*
X001636Y013398D01*
X001621Y013356D01*
X001602Y013316D01*
X001580Y013278D01*
X001554Y013242D01*
X001525Y013208D01*
X001493Y013177D01*
X001459Y013149D01*
X001423Y013125D01*
X001384Y013103D01*
X001344Y013085D01*
X001302Y013071D01*
X001259Y013060D01*
X001215Y013053D01*
X001171Y013050D01*
X001127Y013051D01*
X001083Y013056D01*
X001040Y013065D01*
X000997Y013077D01*
X000956Y013094D01*
X000916Y013113D01*
X000879Y013137D01*
X000843Y013163D01*
X000810Y013193D01*
X000780Y013225D01*
X000753Y013260D01*
X000729Y013297D01*
X000708Y013336D01*
X000691Y013377D01*
X000678Y013419D01*
X000668Y013462D01*
X000662Y013506D01*
X000660Y013550D01*
X030160Y013550D02*
X030162Y013594D01*
X030168Y013638D01*
X030178Y013681D01*
X030191Y013723D01*
X030208Y013764D01*
X030229Y013803D01*
X030253Y013840D01*
X030280Y013875D01*
X030310Y013907D01*
X030343Y013937D01*
X030379Y013963D01*
X030416Y013987D01*
X030456Y014006D01*
X030497Y014023D01*
X030540Y014035D01*
X030583Y014044D01*
X030627Y014049D01*
X030671Y014050D01*
X030715Y014047D01*
X030759Y014040D01*
X030802Y014029D01*
X030844Y014015D01*
X030884Y013997D01*
X030923Y013975D01*
X030959Y013951D01*
X030993Y013923D01*
X031025Y013892D01*
X031054Y013858D01*
X031080Y013822D01*
X031102Y013784D01*
X031121Y013744D01*
X031136Y013702D01*
X031148Y013660D01*
X031156Y013616D01*
X031160Y013572D01*
X031160Y013528D01*
X031156Y013484D01*
X031148Y013440D01*
X031136Y013398D01*
X031121Y013356D01*
X031102Y013316D01*
X031080Y013278D01*
X031054Y013242D01*
X031025Y013208D01*
X030993Y013177D01*
X030959Y013149D01*
X030923Y013125D01*
X030884Y013103D01*
X030844Y013085D01*
X030802Y013071D01*
X030759Y013060D01*
X030715Y013053D01*
X030671Y013050D01*
X030627Y013051D01*
X030583Y013056D01*
X030540Y013065D01*
X030497Y013077D01*
X030456Y013094D01*
X030416Y013113D01*
X030379Y013137D01*
X030343Y013163D01*
X030310Y013193D01*
X030280Y013225D01*
X030253Y013260D01*
X030229Y013297D01*
X030208Y013336D01*
X030191Y013377D01*
X030178Y013419D01*
X030168Y013462D01*
X030162Y013506D01*
X030160Y013550D01*
X030160Y001550D02*
X030162Y001594D01*
X030168Y001638D01*
X030178Y001681D01*
X030191Y001723D01*
X030208Y001764D01*
X030229Y001803D01*
X030253Y001840D01*
X030280Y001875D01*
X030310Y001907D01*
X030343Y001937D01*
X030379Y001963D01*
X030416Y001987D01*
X030456Y002006D01*
X030497Y002023D01*
X030540Y002035D01*
X030583Y002044D01*
X030627Y002049D01*
X030671Y002050D01*
X030715Y002047D01*
X030759Y002040D01*
X030802Y002029D01*
X030844Y002015D01*
X030884Y001997D01*
X030923Y001975D01*
X030959Y001951D01*
X030993Y001923D01*
X031025Y001892D01*
X031054Y001858D01*
X031080Y001822D01*
X031102Y001784D01*
X031121Y001744D01*
X031136Y001702D01*
X031148Y001660D01*
X031156Y001616D01*
X031160Y001572D01*
X031160Y001528D01*
X031156Y001484D01*
X031148Y001440D01*
X031136Y001398D01*
X031121Y001356D01*
X031102Y001316D01*
X031080Y001278D01*
X031054Y001242D01*
X031025Y001208D01*
X030993Y001177D01*
X030959Y001149D01*
X030923Y001125D01*
X030884Y001103D01*
X030844Y001085D01*
X030802Y001071D01*
X030759Y001060D01*
X030715Y001053D01*
X030671Y001050D01*
X030627Y001051D01*
X030583Y001056D01*
X030540Y001065D01*
X030497Y001077D01*
X030456Y001094D01*
X030416Y001113D01*
X030379Y001137D01*
X030343Y001163D01*
X030310Y001193D01*
X030280Y001225D01*
X030253Y001260D01*
X030229Y001297D01*
X030208Y001336D01*
X030191Y001377D01*
X030178Y001419D01*
X030168Y001462D01*
X030162Y001506D01*
X030160Y001550D01*
D11*
X023910Y001550D03*
X022910Y001550D03*
X021910Y001550D03*
X020910Y001550D03*
X019910Y001550D03*
X018910Y001550D03*
X017910Y001550D03*
X016910Y001550D03*
X015910Y001550D03*
X014910Y001550D03*
X013910Y001550D03*
X012910Y001550D03*
X011910Y001550D03*
X010910Y001550D03*
X009910Y001550D03*
X008910Y001550D03*
X007910Y001550D03*
X007910Y002550D03*
X008910Y002550D03*
X009910Y002550D03*
X010910Y002550D03*
X011910Y002550D03*
X012910Y002550D03*
X013910Y002550D03*
X014910Y002550D03*
X015910Y002550D03*
X016910Y002550D03*
X017910Y002550D03*
X018910Y002550D03*
X019910Y002550D03*
X020910Y002550D03*
X021910Y002550D03*
X022910Y002550D03*
X023910Y002550D03*
D12*
X030110Y004550D02*
X030710Y004550D01*
X030710Y005550D02*
X030110Y005550D01*
X030110Y006550D02*
X030710Y006550D01*
X030710Y007550D02*
X030110Y007550D01*
X033580Y007410D02*
X034180Y007410D01*
X036140Y007410D02*
X036740Y007410D01*
X036740Y006190D02*
X036140Y006190D01*
X034180Y006190D02*
X033580Y006190D01*
X033580Y004410D02*
X034180Y004410D01*
X036140Y004410D02*
X036740Y004410D01*
X036740Y003190D02*
X036140Y003190D01*
X034180Y003190D02*
X033580Y003190D01*
X033580Y001410D02*
X034180Y001410D01*
X036140Y001410D02*
X036740Y001410D01*
X036740Y009190D02*
X036140Y009190D01*
X034180Y009190D02*
X033580Y009190D01*
X030710Y010550D02*
X030110Y010550D01*
X030110Y011550D02*
X030710Y011550D01*
X028535Y013250D02*
X028535Y013850D01*
X027535Y013850D02*
X027535Y013250D01*
X026535Y013250D02*
X026535Y013850D01*
X025535Y013850D02*
X025535Y013250D01*
X024535Y013250D02*
X024535Y013850D01*
X023535Y013850D02*
X023535Y013250D01*
X022535Y013250D02*
X022535Y013850D01*
X021535Y013850D02*
X021535Y013250D01*
X020535Y013250D02*
X020535Y013850D01*
X019535Y013850D02*
X019535Y013250D01*
X018535Y013250D02*
X018535Y013850D01*
X017535Y013850D02*
X017535Y013250D01*
X016535Y013250D02*
X016535Y013850D01*
X015535Y013850D02*
X015535Y013250D01*
X014535Y013250D02*
X014535Y013850D01*
X013535Y013850D02*
X013535Y013250D01*
X001210Y009800D02*
X000610Y009800D01*
X000610Y008800D02*
X001210Y008800D01*
X001210Y007800D02*
X000610Y007800D01*
X000610Y006800D02*
X001210Y006800D01*
X001210Y005800D02*
X000610Y005800D01*
X000610Y004800D02*
X001210Y004800D01*
D13*
X007200Y006800D03*
X007200Y007300D03*
X007200Y007800D03*
X007200Y008300D03*
X007200Y008800D03*
X007200Y009300D03*
X007200Y009800D03*
X007200Y010300D03*
X009620Y010300D03*
X009620Y009800D03*
X009620Y009300D03*
X009620Y008800D03*
X009620Y008300D03*
X009620Y007800D03*
X009620Y007300D03*
X009620Y006800D03*
D14*
X015308Y007860D03*
X015623Y007860D03*
X015938Y007860D03*
X016253Y007860D03*
X016567Y007860D03*
X016882Y007860D03*
X017197Y007860D03*
X017512Y007860D03*
X017512Y011240D03*
X017197Y011240D03*
X016882Y011240D03*
X016567Y011240D03*
X016253Y011240D03*
X015938Y011240D03*
X015623Y011240D03*
X015308Y011240D03*
D15*
X014720Y010652D03*
X014720Y010337D03*
X014720Y010022D03*
X014720Y009707D03*
X014720Y009393D03*
X014720Y009078D03*
X014720Y008763D03*
X014720Y008448D03*
X018100Y008448D03*
X018100Y008763D03*
X018100Y009078D03*
X018100Y009393D03*
X018100Y009707D03*
X018100Y010022D03*
X018100Y010337D03*
X018100Y010652D03*
D16*
X022160Y007424D03*
X022160Y006676D03*
X005410Y006674D03*
X005410Y005926D03*
D17*
X014410Y006020D02*
X014410Y005580D01*
X016410Y005580D02*
X016410Y006020D01*
D18*
X016036Y004800D03*
X016784Y004800D03*
X014784Y004800D03*
X014036Y004800D03*
X022036Y008800D03*
X022784Y008800D03*
X022784Y009800D03*
X022036Y009800D03*
D19*
X026900Y009800D02*
X027420Y009800D01*
X027420Y010800D02*
X026900Y010800D01*
X026900Y011800D02*
X027420Y011800D01*
D20*
X032404Y008784D03*
X032404Y006816D03*
X038113Y006816D03*
X038113Y007800D03*
X038113Y008784D03*
X005660Y012550D03*
D21*
X006660Y012550D03*
X007660Y012550D03*
X008660Y012550D03*
X009660Y012550D03*
X009660Y013550D03*
X008660Y013550D03*
X007660Y013550D03*
X006660Y013550D03*
X005660Y013550D03*
D22*
X035160Y010202D03*
X035160Y005398D03*
D23*
X036091Y011620D02*
X036091Y012480D01*
X033729Y012480D02*
X033729Y011620D01*
X034480Y013940D02*
X035340Y013940D01*
D24*
X024285Y011050D02*
X024285Y008050D01*
X024910Y008050D01*
X026410Y006550D01*
X030410Y006550D01*
X029410Y006050D02*
X026410Y006050D01*
X024910Y007550D01*
X023910Y007550D01*
X023933Y010652D01*
X018100Y010652D01*
X018100Y010337D02*
X023623Y010337D01*
X023660Y007050D01*
X024910Y007050D01*
X026410Y005550D01*
X030410Y005550D01*
X022910Y003050D02*
X022910Y002550D01*
X021910Y002550D02*
X021910Y003050D01*
X018910Y005800D01*
X018910Y008550D01*
X018697Y008763D01*
X018100Y008763D01*
X018100Y009078D02*
X018882Y009078D01*
X019410Y008550D01*
X019410Y006050D01*
X022910Y003050D01*
X020910Y003050D02*
X020910Y002550D01*
X019910Y002550D02*
X019910Y003300D01*
X017910Y005300D01*
X017910Y006550D01*
X017512Y006948D01*
X017512Y007860D01*
X017197Y007860D02*
X017197Y006513D01*
X017410Y006300D01*
X017410Y004050D01*
X016910Y003550D01*
X016910Y002550D01*
X015910Y002550D02*
X015910Y003050D01*
X014910Y004050D01*
X013910Y004050D01*
X013410Y004550D01*
X013410Y007550D01*
X013910Y008050D01*
X014322Y008050D01*
X014720Y008448D01*
X014410Y008800D02*
X014160Y008550D01*
X013910Y008550D01*
X012910Y007550D01*
X012910Y004550D01*
X013910Y003550D01*
X014410Y003550D01*
X014910Y003050D01*
X014910Y002550D01*
X015910Y001550D02*
X016410Y002050D01*
X016410Y003050D01*
X016036Y003424D01*
X016036Y004800D01*
X014784Y004800D01*
X014160Y004800D02*
X014160Y004926D01*
X014160Y005550D01*
X014410Y005800D01*
X015308Y006573D01*
X015308Y007860D01*
X015623Y007860D02*
X015623Y006587D01*
X016410Y005800D01*
X016784Y005426D01*
X016784Y004800D01*
X018410Y005550D02*
X020910Y003050D01*
X020910Y001550D02*
X019910Y001550D01*
X018910Y001550D01*
X017910Y001550D01*
X016910Y001550D01*
X015910Y001550D01*
X014910Y001550D01*
X013910Y001550D01*
X012910Y001550D01*
X011910Y001550D01*
X010910Y001550D01*
X009910Y001550D01*
X008910Y001550D01*
X007910Y001550D01*
X010910Y002550D02*
X010910Y003050D01*
X010410Y003050D01*
X009410Y004050D01*
X009410Y005050D01*
X013753Y009393D01*
X014720Y009393D01*
X014720Y009078D02*
X014692Y009050D01*
X013910Y009050D01*
X012160Y007300D01*
X012160Y006550D01*
X010910Y004050D01*
X014036Y004800D02*
X014160Y004926D01*
X009910Y006050D02*
X013910Y010050D01*
X014692Y010050D01*
X014720Y010022D01*
X014683Y010300D02*
X014720Y010337D01*
X014683Y010300D02*
X013660Y010300D01*
X012660Y009300D01*
X011910Y009300D01*
X011910Y011300D01*
X011660Y011550D01*
X009160Y011550D01*
X008910Y011300D02*
X009160Y011050D01*
X010410Y011050D01*
X011410Y010050D01*
X009620Y009800D02*
X009160Y009800D01*
X008910Y009550D01*
X008410Y009550D02*
X008410Y011050D01*
X008660Y011300D01*
X008910Y011300D01*
X008660Y011300D02*
X008660Y012550D01*
X009660Y012550D02*
X011160Y012550D01*
X012160Y011550D01*
X012160Y011050D01*
X012410Y010800D01*
X014572Y010800D01*
X014720Y010652D01*
X014910Y011300D02*
X015220Y011240D01*
X015308Y011240D01*
X015623Y011240D02*
X015623Y009837D01*
X015910Y009550D01*
X015910Y008550D01*
X016410Y008550D01*
X016567Y008393D01*
X016567Y007860D01*
X015938Y007860D02*
X015910Y007888D01*
X015910Y008550D01*
X016560Y008780D02*
X016830Y008510D01*
X016830Y008380D01*
X016560Y008780D02*
X016560Y011210D01*
X017512Y011240D02*
X017660Y011388D01*
X017660Y011300D01*
X017910Y011300D01*
X018410Y011050D01*
X024285Y011050D01*
X022784Y009800D02*
X022784Y008800D01*
X022036Y008800D02*
X021910Y008800D01*
X021410Y009300D01*
X021410Y009800D02*
X022036Y009800D01*
X019410Y009800D02*
X019410Y009300D01*
X018910Y009550D02*
X018817Y009707D01*
X018100Y009707D01*
X018100Y010022D02*
X019188Y010022D01*
X019410Y009800D01*
X018100Y008448D02*
X018100Y006860D01*
X018410Y006550D01*
X018410Y005550D01*
X020070Y006065D02*
X020070Y008170D01*
X016830Y007290D02*
X016830Y007270D01*
X016740Y007180D01*
X016380Y007180D01*
X016290Y007270D01*
X016290Y007290D01*
X014720Y008763D02*
X014683Y008800D01*
X014410Y008800D01*
X011910Y009300D02*
X009620Y009300D01*
X008410Y009550D02*
X008160Y009300D01*
X007200Y009300D01*
X007200Y009800D02*
X005160Y009800D01*
X005160Y008175D01*
X005160Y008050D01*
X001160Y008050D01*
X000910Y007800D01*
X000910Y006800D02*
X001160Y006550D01*
X005410Y006550D01*
X005410Y006674D01*
X005410Y006798D01*
X005409Y006799D01*
X005410Y006800D01*
X006410Y006300D02*
X006660Y006050D01*
X006910Y006050D01*
X006910Y005300D01*
X006410Y004800D01*
X000910Y004800D01*
X006410Y006300D02*
X006410Y008300D01*
X007200Y008300D01*
X007200Y007800D02*
X008160Y007800D01*
X008410Y007550D01*
X008410Y006050D01*
X009910Y006050D01*
X009620Y006800D02*
X008820Y006800D01*
X008160Y006800D02*
X007910Y007050D01*
X008160Y006800D02*
X008160Y006050D01*
X007410Y005300D01*
X007410Y004800D01*
X006910Y004300D01*
X020910Y001550D02*
X021910Y001550D01*
X022910Y001550D01*
X023910Y001550D01*
X014910Y011300D02*
X012910Y011300D01*
X008160Y011800D02*
X006410Y011800D01*
X005660Y012550D01*
X010640Y013530D02*
X010660Y013550D01*
D25*
X010660Y013550D03*
X012660Y012800D03*
X015570Y011840D03*
X012910Y011300D03*
X012410Y010800D03*
X011410Y010050D03*
X010910Y010050D03*
X012535Y009800D03*
X011820Y008800D03*
X010320Y008050D03*
X008160Y008800D03*
X008910Y009550D03*
X005160Y008175D03*
X004910Y007050D03*
X006910Y006050D03*
X007660Y006050D03*
X008820Y006800D03*
X004410Y005300D03*
X003910Y005300D03*
X007910Y004050D03*
X012070Y003800D03*
X013445Y003300D03*
X017035Y006050D03*
X020070Y006065D03*
X021410Y006550D03*
X022910Y007300D03*
X021160Y008050D03*
X020070Y008170D03*
X017550Y009410D03*
X016410Y009550D03*
X016410Y010050D03*
X014410Y007300D03*
X022910Y005300D03*
X028660Y007300D03*
X029410Y006050D03*
X029410Y003550D03*
X029410Y002800D03*
X027910Y002050D03*
X027410Y002050D03*
X026910Y002050D03*
X026410Y002050D03*
X026410Y001550D03*
X026910Y001550D03*
X027410Y001550D03*
X027910Y001550D03*
X025410Y009550D03*
X009160Y011550D03*
X008160Y011800D03*
X003160Y012050D03*
X003160Y012550D03*
X003660Y002050D03*
X004160Y002050D03*
X004660Y002050D03*
X005160Y002050D03*
X005160Y001550D03*
X004660Y001550D03*
X004160Y001550D03*
X003660Y001550D03*
D26*
X007830Y001580D02*
X007910Y001550D01*
X016290Y007290D02*
X016253Y007860D01*
X016882Y007860D02*
X016830Y008380D01*
X016882Y007860D02*
X016830Y007290D01*
X017550Y009410D02*
X018090Y009410D01*
X018100Y009393D01*
X016560Y011210D02*
X016567Y011240D01*
X015623Y011240D02*
X015570Y011300D01*
X015570Y011840D01*
D27*
X015875Y011689D02*
X026470Y011689D01*
X026460Y011712D02*
X026527Y011551D01*
X026651Y011427D01*
X026812Y011360D01*
X027508Y011360D01*
X027669Y011427D01*
X027793Y011551D01*
X027860Y011712D01*
X027860Y011888D01*
X027793Y012049D01*
X027669Y012173D01*
X027508Y012240D01*
X026812Y012240D01*
X026651Y012173D01*
X026527Y012049D01*
X026460Y011888D01*
X026460Y011712D01*
X026460Y011808D02*
X015910Y011808D01*
X015910Y011772D02*
X015910Y011908D01*
X015858Y012033D01*
X015763Y012128D01*
X015638Y012180D01*
X012414Y012180D01*
X010998Y013596D01*
X010998Y013617D01*
X010947Y013742D01*
X010852Y013837D01*
X010727Y013888D01*
X010593Y013888D01*
X010468Y013837D01*
X010373Y013742D01*
X010322Y013617D01*
X010322Y013483D01*
X010373Y013358D01*
X010468Y013263D01*
X010493Y013253D01*
X010936Y012810D01*
X010074Y012810D01*
X009858Y013027D01*
X009462Y013027D01*
X009183Y012748D01*
X009183Y012352D01*
X009462Y012073D01*
X009858Y012073D01*
X010074Y012290D01*
X011052Y012290D01*
X011532Y011810D01*
X009379Y011810D01*
X009352Y011837D01*
X009227Y011888D01*
X009093Y011888D01*
X008968Y011837D01*
X008920Y011789D01*
X008920Y012136D01*
X009137Y012352D01*
X009137Y012748D01*
X008858Y013027D01*
X008462Y013027D01*
X008183Y012748D01*
X008183Y012352D01*
X008400Y012136D01*
X008400Y012039D01*
X008352Y012087D01*
X008227Y012138D01*
X008093Y012138D01*
X007968Y012087D01*
X007941Y012060D01*
X006518Y012060D01*
X006505Y012073D01*
X006858Y012073D01*
X007137Y012352D01*
X007137Y012748D01*
X006858Y013027D01*
X006462Y013027D01*
X006183Y012748D01*
X006183Y012395D01*
X006137Y012441D01*
X006137Y012921D01*
X006031Y013027D01*
X005289Y013027D01*
X005183Y012921D01*
X005183Y012179D01*
X005289Y012073D01*
X005769Y012073D01*
X006263Y011580D01*
X006358Y011540D01*
X007941Y011540D01*
X007968Y011513D01*
X008093Y011462D01*
X008227Y011462D01*
X008352Y011513D01*
X008400Y011561D01*
X008400Y011408D01*
X008190Y011197D01*
X008150Y011102D01*
X008150Y009658D01*
X008052Y009560D01*
X007745Y009560D01*
X007780Y009595D01*
X007780Y010005D01*
X007735Y010050D01*
X007780Y010095D01*
X007780Y010505D01*
X007675Y010610D01*
X006725Y010610D01*
X006620Y010505D01*
X006620Y010095D01*
X006655Y010060D01*
X005108Y010060D01*
X005013Y010020D01*
X004940Y009947D01*
X004900Y009852D01*
X004900Y008394D01*
X004873Y008367D01*
X004850Y008310D01*
X001108Y008310D01*
X001036Y008280D01*
X000515Y008280D01*
X000410Y008237D01*
X000410Y008386D01*
X000433Y008374D01*
X000502Y008351D01*
X000574Y008340D01*
X000870Y008340D01*
X000870Y008760D01*
X000950Y008760D01*
X000950Y008840D01*
X000870Y008840D01*
X000870Y009260D01*
X000574Y009260D01*
X000502Y009249D01*
X000433Y009226D01*
X000410Y009214D01*
X000410Y009363D01*
X000515Y009320D01*
X001305Y009320D01*
X001482Y009393D01*
X001617Y009528D01*
X001690Y009705D01*
X001690Y009895D01*
X001617Y010072D01*
X001482Y010207D01*
X001305Y010280D01*
X000515Y010280D01*
X000410Y010237D01*
X000410Y014366D01*
X034072Y014366D01*
X034030Y014324D01*
X033975Y014249D01*
X033933Y014166D01*
X033905Y014078D01*
X033890Y013986D01*
X033890Y013959D01*
X034891Y013959D01*
X034891Y013921D01*
X033890Y013921D01*
X033890Y013893D01*
X033905Y013802D01*
X033933Y013713D01*
X033975Y013631D01*
X034030Y013555D01*
X034096Y013490D01*
X034171Y013435D01*
X034254Y013393D01*
X034342Y013364D01*
X034434Y013350D01*
X034891Y013350D01*
X034891Y013921D01*
X034929Y013921D01*
X034929Y013959D01*
X035930Y013959D01*
X035930Y013986D01*
X035915Y014078D01*
X035887Y014166D01*
X035845Y014249D01*
X035790Y014324D01*
X035748Y014366D01*
X039100Y014366D01*
X039100Y000730D01*
X000410Y000730D01*
X000410Y004363D01*
X000515Y004320D01*
X001305Y004320D01*
X001482Y004393D01*
X001617Y004528D01*
X001622Y004540D01*
X006462Y004540D01*
X006557Y004580D01*
X006630Y004653D01*
X007130Y005153D01*
X007150Y005200D01*
X007150Y004908D01*
X006851Y004609D01*
X006849Y004609D01*
X006735Y004562D01*
X006648Y004475D01*
X006601Y004361D01*
X006601Y004239D01*
X006648Y004125D01*
X006735Y004038D01*
X006849Y003991D01*
X006971Y003991D01*
X007085Y004038D01*
X007172Y004125D01*
X007219Y004239D01*
X007219Y004241D01*
X007557Y004580D01*
X007630Y004653D01*
X007670Y004748D01*
X007670Y005192D01*
X008294Y005817D01*
X008358Y005790D01*
X009782Y005790D01*
X009263Y005270D01*
X009190Y005197D01*
X009150Y005102D01*
X009150Y003998D01*
X009190Y003903D01*
X010062Y003030D01*
X009711Y003030D01*
X009430Y002749D01*
X009430Y002351D01*
X009711Y002070D01*
X010109Y002070D01*
X010390Y002351D01*
X010390Y002749D01*
X010342Y002797D01*
X010358Y002790D01*
X010471Y002790D01*
X010430Y002749D01*
X010430Y002351D01*
X010711Y002070D01*
X011109Y002070D01*
X011390Y002351D01*
X011390Y002749D01*
X011170Y002969D01*
X011170Y003102D01*
X011130Y003197D01*
X011057Y003270D01*
X010962Y003310D01*
X010518Y003310D01*
X009670Y004158D01*
X009670Y004942D01*
X011900Y007172D01*
X011900Y006611D01*
X010788Y004387D01*
X010707Y004354D01*
X010606Y004253D01*
X010552Y004121D01*
X010552Y003979D01*
X010606Y003847D01*
X010707Y003746D01*
X010839Y003692D01*
X010981Y003692D01*
X011113Y003746D01*
X011214Y003847D01*
X011268Y003979D01*
X011268Y004121D01*
X011254Y004156D01*
X012374Y006396D01*
X012380Y006403D01*
X012397Y006442D01*
X012416Y006480D01*
X012416Y006489D01*
X012420Y006498D01*
X012420Y006541D01*
X012423Y006583D01*
X012420Y006592D01*
X012420Y007192D01*
X012650Y007422D01*
X012650Y004498D01*
X012690Y004403D01*
X012763Y004330D01*
X013763Y003330D01*
X013858Y003290D01*
X014302Y003290D01*
X014637Y002956D01*
X014430Y002749D01*
X014430Y002351D01*
X014711Y002070D01*
X015109Y002070D01*
X015390Y002351D01*
X015390Y002749D01*
X015170Y002969D01*
X015170Y003102D01*
X015130Y003197D01*
X014630Y003697D01*
X014557Y003770D01*
X014510Y003790D01*
X014802Y003790D01*
X015637Y002956D01*
X015430Y002749D01*
X015430Y002351D01*
X015711Y002070D01*
X016109Y002070D01*
X016390Y002351D01*
X016390Y002749D01*
X016170Y002969D01*
X016170Y003102D01*
X016130Y003197D01*
X015057Y004270D01*
X014962Y004310D01*
X014018Y004310D01*
X014003Y004325D01*
X014366Y004325D01*
X014424Y004382D01*
X014430Y004377D01*
X014466Y004356D01*
X014507Y004345D01*
X014724Y004345D01*
X014724Y004740D01*
X014844Y004740D01*
X014844Y004345D01*
X015061Y004345D01*
X015102Y004356D01*
X015138Y004377D01*
X015168Y004406D01*
X015189Y004443D01*
X015200Y004484D01*
X015200Y004740D01*
X014844Y004740D01*
X014844Y004860D01*
X014724Y004860D01*
X014724Y005255D01*
X014651Y005255D01*
X014749Y005353D01*
X014810Y005500D01*
X014810Y005801D01*
X015446Y006348D01*
X015455Y006352D01*
X015473Y006370D01*
X016010Y005832D01*
X016010Y005500D01*
X016071Y005353D01*
X016169Y005255D01*
X016096Y005255D01*
X016096Y004860D01*
X015976Y004860D01*
X015976Y005255D01*
X015759Y005255D01*
X015718Y005244D01*
X015682Y005223D01*
X015652Y005194D01*
X015631Y005157D01*
X015620Y005116D01*
X015620Y004860D01*
X015976Y004860D01*
X015976Y004740D01*
X016096Y004740D01*
X016096Y004345D01*
X016313Y004345D01*
X016354Y004356D01*
X016390Y004377D01*
X016396Y004382D01*
X016454Y004325D01*
X017114Y004325D01*
X017150Y004360D01*
X017150Y004158D01*
X016763Y003770D01*
X016690Y003697D01*
X016650Y003602D01*
X016650Y002969D01*
X016430Y002749D01*
X016430Y002351D01*
X016711Y002070D01*
X017109Y002070D01*
X017390Y002351D01*
X017390Y002749D01*
X017170Y002969D01*
X017170Y003442D01*
X017630Y003903D01*
X017670Y003998D01*
X017670Y005200D01*
X017690Y005153D01*
X019650Y003192D01*
X019650Y002969D01*
X019430Y002749D01*
X019430Y002351D01*
X019711Y002070D01*
X020109Y002070D01*
X020390Y002351D01*
X020390Y002749D01*
X020170Y002969D01*
X020170Y003352D01*
X020130Y003447D01*
X020057Y003520D01*
X018170Y005408D01*
X018170Y005450D01*
X018190Y005403D01*
X020637Y002956D01*
X020430Y002749D01*
X020430Y002351D01*
X020711Y002070D01*
X021109Y002070D01*
X021390Y002351D01*
X021390Y002749D01*
X021170Y002969D01*
X021170Y003102D01*
X021130Y003197D01*
X021057Y003270D01*
X018670Y005658D01*
X018670Y005699D01*
X018672Y005695D01*
X018690Y005653D01*
X018694Y005649D01*
X018696Y005643D01*
X018730Y005612D01*
X018763Y005580D01*
X018768Y005577D01*
X021633Y002952D01*
X021430Y002749D01*
X021430Y002351D01*
X021711Y002070D01*
X022109Y002070D01*
X022390Y002351D01*
X022390Y002749D01*
X022170Y002969D01*
X022170Y003004D01*
X022172Y003010D01*
X022170Y003056D01*
X022170Y003102D01*
X022168Y003107D01*
X022168Y003113D01*
X022148Y003155D01*
X022130Y003197D01*
X022126Y003201D01*
X022124Y003207D01*
X022090Y003238D01*
X022057Y003270D01*
X022052Y003273D01*
X019170Y005914D01*
X019170Y005948D01*
X019174Y005941D01*
X019190Y005903D01*
X019197Y005895D01*
X019202Y005886D01*
X019233Y005859D01*
X019263Y005830D01*
X019272Y005826D01*
X022629Y002948D01*
X022430Y002749D01*
X022430Y002351D01*
X022711Y002070D01*
X023109Y002070D01*
X023390Y002351D01*
X023390Y002749D01*
X023170Y002969D01*
X023170Y003009D01*
X023173Y003018D01*
X023170Y003060D01*
X023170Y003102D01*
X023166Y003111D01*
X023165Y003122D01*
X023146Y003159D01*
X023130Y003197D01*
X023123Y003205D01*
X023118Y003214D01*
X023087Y003241D01*
X023057Y003270D01*
X023048Y003274D01*
X020171Y005740D01*
X020262Y005778D01*
X020357Y005873D01*
X020408Y005998D01*
X020408Y006132D01*
X020357Y006257D01*
X020330Y006284D01*
X020330Y007951D01*
X020357Y007978D01*
X020408Y008103D01*
X020408Y008237D01*
X020357Y008362D01*
X020262Y008457D01*
X020137Y008508D01*
X020003Y008508D01*
X019878Y008457D01*
X019783Y008362D01*
X019732Y008237D01*
X019732Y008103D01*
X019783Y007978D01*
X019810Y007951D01*
X019810Y006284D01*
X019783Y006257D01*
X019732Y006132D01*
X019732Y006117D01*
X019670Y006170D01*
X019670Y008602D01*
X019630Y008697D01*
X019557Y008770D01*
X019386Y008942D01*
X019481Y008942D01*
X019613Y008996D01*
X019714Y009097D01*
X019768Y009229D01*
X019768Y009371D01*
X019714Y009503D01*
X019670Y009546D01*
X019670Y009852D01*
X019630Y009947D01*
X019557Y010020D01*
X019500Y010077D01*
X021181Y010077D01*
X021106Y010003D01*
X021052Y009871D01*
X021052Y009729D01*
X021106Y009597D01*
X021154Y009550D01*
X021106Y009503D01*
X021052Y009371D01*
X021052Y009229D01*
X021106Y009097D01*
X021207Y008996D01*
X021339Y008942D01*
X021400Y008942D01*
X021600Y008742D01*
X021600Y008430D01*
X021680Y008350D01*
X021320Y008350D01*
X021227Y008388D01*
X021093Y008388D01*
X020968Y008337D01*
X020873Y008242D01*
X020822Y008117D01*
X020822Y007983D01*
X020873Y007858D01*
X020891Y007841D01*
X021088Y006657D01*
X021072Y006617D01*
X021072Y006483D01*
X021123Y006358D01*
X021218Y006263D01*
X021343Y006212D01*
X021477Y006212D01*
X021570Y006250D01*
X021780Y006250D01*
X021790Y006240D01*
X022530Y006240D01*
X022635Y006346D01*
X022635Y007006D01*
X022578Y007064D01*
X022583Y007070D01*
X022604Y007106D01*
X022615Y007147D01*
X022615Y007364D01*
X022220Y007364D01*
X022220Y007484D01*
X022615Y007484D01*
X022615Y007701D01*
X022604Y007742D01*
X022598Y007753D01*
X022785Y007754D01*
X022844Y007754D01*
X022844Y007754D01*
X022845Y007754D01*
X022899Y007777D01*
X022954Y007800D01*
X022955Y007800D01*
X022955Y007801D01*
X022997Y007842D01*
X023038Y007884D01*
X023039Y007885D01*
X023039Y007885D01*
X023061Y007940D01*
X023084Y007994D01*
X023084Y007995D01*
X023084Y007996D01*
X023084Y008055D01*
X023084Y008325D01*
X023114Y008325D01*
X023220Y008430D01*
X023220Y009170D01*
X023114Y009275D01*
X023084Y009275D01*
X023084Y009325D01*
X023114Y009325D01*
X023220Y009430D01*
X023220Y010077D01*
X023366Y010077D01*
X023400Y007049D01*
X023400Y006998D01*
X023401Y006997D01*
X023401Y006995D01*
X023420Y006949D01*
X023440Y006903D01*
X023441Y006902D01*
X023441Y006900D01*
X023477Y006865D01*
X023513Y006830D01*
X023514Y006829D01*
X023515Y006828D01*
X023562Y006809D01*
X023608Y006790D01*
X023610Y006790D01*
X023611Y006789D01*
X023661Y006790D01*
X024802Y006790D01*
X026190Y005403D01*
X026263Y005330D01*
X026358Y005290D01*
X020696Y005290D01*
X020558Y005409D02*
X026184Y005409D01*
X026065Y005527D02*
X020420Y005527D01*
X020281Y005646D02*
X025947Y005646D01*
X025828Y005764D02*
X020228Y005764D01*
X020361Y005883D02*
X025710Y005883D01*
X025591Y006001D02*
X020408Y006001D01*
X020408Y006120D02*
X025473Y006120D01*
X025354Y006238D02*
X021541Y006238D01*
X021279Y006238D02*
X020365Y006238D01*
X020330Y006357D02*
X021125Y006357D01*
X021075Y006475D02*
X020330Y006475D01*
X020330Y006594D02*
X021072Y006594D01*
X021079Y006712D02*
X020330Y006712D01*
X020330Y006831D02*
X021059Y006831D01*
X021039Y006949D02*
X020330Y006949D01*
X020330Y007068D02*
X021020Y007068D01*
X021000Y007186D02*
X020330Y007186D01*
X020330Y007305D02*
X020980Y007305D01*
X020960Y007423D02*
X020330Y007423D01*
X020330Y007542D02*
X020941Y007542D01*
X020921Y007660D02*
X020330Y007660D01*
X020330Y007779D02*
X020901Y007779D01*
X020857Y007897D02*
X020330Y007897D01*
X020372Y008016D02*
X020822Y008016D01*
X020828Y008134D02*
X020408Y008134D01*
X020402Y008253D02*
X020884Y008253D01*
X021051Y008371D02*
X020348Y008371D01*
X020183Y008490D02*
X021600Y008490D01*
X021600Y008608D02*
X019667Y008608D01*
X019670Y008490D02*
X019957Y008490D01*
X019792Y008371D02*
X019670Y008371D01*
X019670Y008253D02*
X019738Y008253D01*
X019732Y008134D02*
X019670Y008134D01*
X019670Y008016D02*
X019768Y008016D01*
X019810Y007897D02*
X019670Y007897D01*
X019670Y007779D02*
X019810Y007779D01*
X019810Y007660D02*
X019670Y007660D01*
X019670Y007542D02*
X019810Y007542D01*
X019810Y007423D02*
X019670Y007423D01*
X019670Y007305D02*
X019810Y007305D01*
X019810Y007186D02*
X019670Y007186D01*
X019670Y007068D02*
X019810Y007068D01*
X019810Y006949D02*
X019670Y006949D01*
X019670Y006831D02*
X019810Y006831D01*
X019810Y006712D02*
X019670Y006712D01*
X019670Y006594D02*
X019810Y006594D01*
X019810Y006475D02*
X019670Y006475D01*
X019670Y006357D02*
X019810Y006357D01*
X019775Y006238D02*
X019670Y006238D01*
X019728Y006120D02*
X019732Y006120D01*
X019206Y005883D02*
X019205Y005883D01*
X019334Y005764D02*
X019344Y005764D01*
X019463Y005646D02*
X019482Y005646D01*
X019593Y005527D02*
X019621Y005527D01*
X019722Y005409D02*
X019759Y005409D01*
X019851Y005290D02*
X019897Y005290D01*
X019980Y005172D02*
X020035Y005172D01*
X020110Y005053D02*
X020174Y005053D01*
X020239Y004935D02*
X020312Y004935D01*
X020368Y004816D02*
X020450Y004816D01*
X020497Y004698D02*
X020588Y004698D01*
X020627Y004579D02*
X020727Y004579D01*
X020756Y004461D02*
X020865Y004461D01*
X020885Y004342D02*
X021003Y004342D01*
X021015Y004224D02*
X021141Y004224D01*
X021144Y004105D02*
X021280Y004105D01*
X021273Y003987D02*
X021418Y003987D01*
X021402Y003868D02*
X021556Y003868D01*
X021532Y003750D02*
X021694Y003750D01*
X021661Y003631D02*
X021833Y003631D01*
X021790Y003513D02*
X021971Y003513D01*
X021919Y003394D02*
X022109Y003394D01*
X022049Y003276D02*
X022247Y003276D01*
X022147Y003157D02*
X022386Y003157D01*
X022524Y003039D02*
X022171Y003039D01*
X022219Y002920D02*
X022601Y002920D01*
X022483Y002802D02*
X022337Y002802D01*
X022390Y002683D02*
X022430Y002683D01*
X022430Y002565D02*
X022390Y002565D01*
X022390Y002446D02*
X022430Y002446D01*
X022454Y002328D02*
X022366Y002328D01*
X022248Y002209D02*
X022572Y002209D01*
X022691Y002091D02*
X022129Y002091D01*
X022101Y002010D02*
X021950Y002010D01*
X021950Y001590D01*
X022370Y001590D01*
X022370Y001741D01*
X022101Y002010D01*
X022139Y001972D02*
X022681Y001972D01*
X022719Y002010D02*
X022450Y001741D01*
X022450Y001590D01*
X022870Y001590D01*
X022870Y002010D01*
X022719Y002010D01*
X022870Y001972D02*
X022950Y001972D01*
X022950Y002010D02*
X023101Y002010D01*
X023370Y001741D01*
X023370Y001590D01*
X022950Y001590D01*
X022950Y001510D01*
X023370Y001510D01*
X023370Y001359D01*
X023101Y001090D01*
X022950Y001090D01*
X022950Y001510D01*
X022870Y001510D01*
X022870Y001090D01*
X022719Y001090D01*
X022450Y001359D01*
X022450Y001510D01*
X022870Y001510D01*
X022870Y001590D01*
X022950Y001590D01*
X022950Y002010D01*
X022950Y001854D02*
X022870Y001854D01*
X022870Y001735D02*
X022950Y001735D01*
X022950Y001617D02*
X022870Y001617D01*
X022870Y001498D02*
X022950Y001498D01*
X022950Y001380D02*
X022870Y001380D01*
X022870Y001261D02*
X022950Y001261D01*
X022950Y001143D02*
X022870Y001143D01*
X022667Y001143D02*
X022153Y001143D01*
X022101Y001090D02*
X022370Y001359D01*
X022370Y001510D01*
X021950Y001510D01*
X021950Y001590D01*
X021870Y001590D01*
X021870Y002010D01*
X021719Y002010D01*
X021450Y001741D01*
X021450Y001590D01*
X021870Y001590D01*
X021870Y001510D01*
X021950Y001510D01*
X021950Y001090D01*
X022101Y001090D01*
X021950Y001143D02*
X021870Y001143D01*
X021870Y001090D02*
X021870Y001510D01*
X021450Y001510D01*
X021450Y001359D01*
X021719Y001090D01*
X021870Y001090D01*
X021870Y001261D02*
X021950Y001261D01*
X021950Y001380D02*
X021870Y001380D01*
X021870Y001498D02*
X021950Y001498D01*
X021950Y001617D02*
X021870Y001617D01*
X021870Y001735D02*
X021950Y001735D01*
X021950Y001854D02*
X021870Y001854D01*
X021870Y001972D02*
X021950Y001972D01*
X021681Y001972D02*
X021139Y001972D01*
X021101Y002010D02*
X020950Y002010D01*
X020950Y001590D01*
X021370Y001590D01*
X021370Y001741D01*
X021101Y002010D01*
X021129Y002091D02*
X021691Y002091D01*
X021572Y002209D02*
X021248Y002209D01*
X021366Y002328D02*
X021454Y002328D01*
X021430Y002446D02*
X021390Y002446D01*
X021390Y002565D02*
X021430Y002565D01*
X021430Y002683D02*
X021390Y002683D01*
X021337Y002802D02*
X021483Y002802D01*
X021601Y002920D02*
X021219Y002920D01*
X021170Y003039D02*
X021538Y003039D01*
X021408Y003157D02*
X021147Y003157D01*
X021052Y003276D02*
X021279Y003276D01*
X021150Y003394D02*
X020934Y003394D01*
X021021Y003513D02*
X020815Y003513D01*
X020891Y003631D02*
X020697Y003631D01*
X020762Y003750D02*
X020578Y003750D01*
X020633Y003868D02*
X020460Y003868D01*
X020504Y003987D02*
X020341Y003987D01*
X020374Y004105D02*
X020223Y004105D01*
X020245Y004224D02*
X020104Y004224D01*
X020116Y004342D02*
X019986Y004342D01*
X019986Y004461D02*
X019867Y004461D01*
X019857Y004579D02*
X019749Y004579D01*
X019728Y004698D02*
X019630Y004698D01*
X019599Y004816D02*
X019512Y004816D01*
X019469Y004935D02*
X019393Y004935D01*
X019340Y005053D02*
X019275Y005053D01*
X019211Y005172D02*
X019156Y005172D01*
X019082Y005290D02*
X019038Y005290D01*
X018952Y005409D02*
X018919Y005409D01*
X018823Y005527D02*
X018801Y005527D01*
X018695Y005646D02*
X018682Y005646D01*
X018187Y005409D02*
X018170Y005409D01*
X018288Y005290D02*
X018302Y005290D01*
X018406Y005172D02*
X018421Y005172D01*
X018525Y005053D02*
X018539Y005053D01*
X018643Y004935D02*
X018658Y004935D01*
X018762Y004816D02*
X018776Y004816D01*
X018880Y004698D02*
X018895Y004698D01*
X018999Y004579D02*
X019013Y004579D01*
X019117Y004461D02*
X019132Y004461D01*
X019236Y004342D02*
X019250Y004342D01*
X019354Y004224D02*
X019369Y004224D01*
X019473Y004105D02*
X019487Y004105D01*
X019591Y003987D02*
X019606Y003987D01*
X019710Y003868D02*
X019724Y003868D01*
X019828Y003750D02*
X019843Y003750D01*
X019947Y003631D02*
X019961Y003631D01*
X020065Y003513D02*
X020080Y003513D01*
X020152Y003394D02*
X020198Y003394D01*
X020170Y003276D02*
X020317Y003276D01*
X020435Y003157D02*
X020170Y003157D01*
X020170Y003039D02*
X020554Y003039D01*
X020601Y002920D02*
X020219Y002920D01*
X020337Y002802D02*
X020483Y002802D01*
X020430Y002683D02*
X020390Y002683D01*
X020390Y002565D02*
X020430Y002565D01*
X020430Y002446D02*
X020390Y002446D01*
X020366Y002328D02*
X020454Y002328D01*
X020572Y002209D02*
X020248Y002209D01*
X020129Y002091D02*
X020691Y002091D01*
X020719Y002010D02*
X020450Y001741D01*
X020450Y001590D01*
X020870Y001590D01*
X020870Y002010D01*
X020719Y002010D01*
X020681Y001972D02*
X020139Y001972D01*
X020101Y002010D02*
X019950Y002010D01*
X019950Y001590D01*
X020370Y001590D01*
X020370Y001741D01*
X020101Y002010D01*
X019950Y001972D02*
X019870Y001972D01*
X019870Y002010D02*
X019719Y002010D01*
X019450Y001741D01*
X019450Y001590D01*
X019870Y001590D01*
X019870Y002010D01*
X019870Y001854D02*
X019950Y001854D01*
X019950Y001735D02*
X019870Y001735D01*
X019870Y001617D02*
X019950Y001617D01*
X019950Y001590D02*
X019870Y001590D01*
X019870Y001510D01*
X019950Y001510D01*
X019950Y001590D01*
X019950Y001510D02*
X020370Y001510D01*
X020370Y001359D01*
X020101Y001090D01*
X019950Y001090D01*
X019950Y001510D01*
X019950Y001498D02*
X019870Y001498D01*
X019870Y001510D02*
X019870Y001090D01*
X019719Y001090D01*
X019450Y001359D01*
X019450Y001510D01*
X019870Y001510D01*
X019870Y001380D02*
X019950Y001380D01*
X019950Y001261D02*
X019870Y001261D01*
X019870Y001143D02*
X019950Y001143D01*
X020153Y001143D02*
X020667Y001143D01*
X020719Y001090D02*
X020870Y001090D01*
X020870Y001510D01*
X020950Y001510D01*
X020950Y001590D01*
X020870Y001590D01*
X020870Y001510D01*
X020450Y001510D01*
X020450Y001359D01*
X020719Y001090D01*
X020870Y001143D02*
X020950Y001143D01*
X020950Y001090D02*
X021101Y001090D01*
X021370Y001359D01*
X021370Y001510D01*
X020950Y001510D01*
X020950Y001090D01*
X020950Y001261D02*
X020870Y001261D01*
X020870Y001380D02*
X020950Y001380D01*
X020950Y001498D02*
X020870Y001498D01*
X020870Y001617D02*
X020950Y001617D01*
X020950Y001735D02*
X020870Y001735D01*
X020870Y001854D02*
X020950Y001854D01*
X020950Y001972D02*
X020870Y001972D01*
X020563Y001854D02*
X020257Y001854D01*
X020370Y001735D02*
X020450Y001735D01*
X020450Y001617D02*
X020370Y001617D01*
X020370Y001498D02*
X020450Y001498D01*
X020450Y001380D02*
X020370Y001380D01*
X020272Y001261D02*
X020548Y001261D01*
X021153Y001143D02*
X021667Y001143D01*
X021548Y001261D02*
X021272Y001261D01*
X021370Y001380D02*
X021450Y001380D01*
X021450Y001498D02*
X021370Y001498D01*
X021370Y001617D02*
X021450Y001617D01*
X021450Y001735D02*
X021370Y001735D01*
X021257Y001854D02*
X021563Y001854D01*
X022257Y001854D02*
X022563Y001854D01*
X022450Y001735D02*
X022370Y001735D01*
X022370Y001617D02*
X022450Y001617D01*
X022450Y001498D02*
X022370Y001498D01*
X022370Y001380D02*
X022450Y001380D01*
X022548Y001261D02*
X022272Y001261D01*
X023153Y001143D02*
X023667Y001143D01*
X023719Y001090D02*
X023870Y001090D01*
X023870Y001510D01*
X023950Y001510D01*
X023950Y001590D01*
X024370Y001590D01*
X024370Y001741D01*
X024101Y002010D01*
X023950Y002010D01*
X023950Y001590D01*
X023870Y001590D01*
X023870Y002010D01*
X023719Y002010D01*
X023450Y001741D01*
X023450Y001590D01*
X023870Y001590D01*
X023870Y001510D01*
X023450Y001510D01*
X023450Y001359D01*
X023719Y001090D01*
X023870Y001143D02*
X023950Y001143D01*
X023950Y001090D02*
X024101Y001090D01*
X024370Y001359D01*
X024370Y001510D01*
X023950Y001510D01*
X023950Y001090D01*
X023950Y001261D02*
X023870Y001261D01*
X023870Y001380D02*
X023950Y001380D01*
X023950Y001498D02*
X023870Y001498D01*
X023870Y001617D02*
X023950Y001617D01*
X023950Y001735D02*
X023870Y001735D01*
X023870Y001854D02*
X023950Y001854D01*
X023950Y001972D02*
X023870Y001972D01*
X023711Y002070D02*
X024109Y002070D01*
X024390Y002351D01*
X024390Y002749D01*
X024109Y003030D01*
X023711Y003030D01*
X023430Y002749D01*
X023430Y002351D01*
X023711Y002070D01*
X023691Y002091D02*
X023129Y002091D01*
X023139Y001972D02*
X023681Y001972D01*
X023563Y001854D02*
X023257Y001854D01*
X023370Y001735D02*
X023450Y001735D01*
X023450Y001617D02*
X023370Y001617D01*
X023370Y001498D02*
X023450Y001498D01*
X023450Y001380D02*
X023370Y001380D01*
X023272Y001261D02*
X023548Y001261D01*
X024153Y001143D02*
X030106Y001143D01*
X030084Y001165D02*
X030275Y000974D01*
X030525Y000870D01*
X030795Y000870D01*
X031045Y000974D01*
X031236Y001165D01*
X031340Y001415D01*
X031340Y001685D01*
X031236Y001935D01*
X031045Y002126D01*
X030795Y002230D01*
X030525Y002230D01*
X030275Y002126D01*
X030084Y001935D01*
X029980Y001685D01*
X029980Y001415D01*
X030084Y001165D01*
X030044Y001261D02*
X024272Y001261D01*
X024370Y001380D02*
X029995Y001380D01*
X029980Y001498D02*
X024370Y001498D01*
X024370Y001617D02*
X029980Y001617D01*
X030001Y001735D02*
X024370Y001735D01*
X024257Y001854D02*
X030050Y001854D01*
X030120Y001972D02*
X024139Y001972D01*
X024129Y002091D02*
X030239Y002091D01*
X030474Y002209D02*
X024248Y002209D01*
X024366Y002328D02*
X039100Y002328D01*
X039100Y002446D02*
X024390Y002446D01*
X024390Y002565D02*
X039100Y002565D01*
X039100Y002683D02*
X024390Y002683D01*
X024337Y002802D02*
X033290Y002802D01*
X033308Y002783D02*
X033485Y002710D01*
X034275Y002710D01*
X034452Y002783D01*
X034587Y002918D01*
X034660Y003095D01*
X034660Y003285D01*
X034587Y003462D01*
X034452Y003597D01*
X034275Y003670D01*
X033485Y003670D01*
X033308Y003597D01*
X033173Y003462D01*
X033100Y003285D01*
X033100Y003095D01*
X033173Y002918D01*
X033308Y002783D01*
X033172Y002920D02*
X024219Y002920D01*
X023601Y002920D02*
X023219Y002920D01*
X023172Y003039D02*
X033123Y003039D01*
X033100Y003157D02*
X023147Y003157D01*
X023046Y003276D02*
X033100Y003276D01*
X033145Y003394D02*
X022908Y003394D01*
X022770Y003513D02*
X033224Y003513D01*
X033390Y003631D02*
X022632Y003631D01*
X022493Y003750D02*
X039100Y003750D01*
X039100Y003868D02*
X022355Y003868D01*
X022217Y003987D02*
X033398Y003987D01*
X033403Y003984D02*
X033472Y003961D01*
X033544Y003950D01*
X033840Y003950D01*
X033840Y004370D01*
X033920Y004370D01*
X033920Y004450D01*
X033840Y004450D01*
X033840Y004870D01*
X033544Y004870D01*
X033472Y004859D01*
X033403Y004836D01*
X033339Y004803D01*
X033280Y004761D01*
X033229Y004710D01*
X033187Y004651D01*
X033154Y004587D01*
X033131Y004518D01*
X033121Y004450D01*
X033840Y004450D01*
X033840Y004370D01*
X033121Y004370D01*
X033131Y004302D01*
X033154Y004233D01*
X033187Y004169D01*
X033229Y004110D01*
X033280Y004059D01*
X033339Y004017D01*
X033403Y003984D01*
X033234Y004105D02*
X030890Y004105D01*
X030805Y004070D02*
X030982Y004143D01*
X031117Y004278D01*
X031190Y004455D01*
X031190Y004645D01*
X031117Y004822D01*
X030982Y004957D01*
X030805Y005030D01*
X030015Y005030D01*
X029838Y004957D01*
X029703Y004822D01*
X029630Y004645D01*
X029630Y004455D01*
X029703Y004278D01*
X029838Y004143D01*
X030015Y004070D01*
X030805Y004070D01*
X031062Y004224D02*
X033159Y004224D01*
X033125Y004342D02*
X031143Y004342D01*
X031190Y004461D02*
X033122Y004461D01*
X033151Y004579D02*
X031190Y004579D01*
X031168Y004698D02*
X033220Y004698D01*
X033364Y004816D02*
X031119Y004816D01*
X031004Y004935D02*
X034474Y004935D01*
X034471Y004938D02*
X034699Y004709D01*
X034998Y004585D01*
X035322Y004585D01*
X035621Y004709D01*
X035849Y004938D01*
X035973Y005237D01*
X035973Y005560D01*
X035883Y005777D01*
X036045Y005710D01*
X036835Y005710D01*
X037012Y005783D01*
X037147Y005918D01*
X037220Y006095D01*
X037220Y006285D01*
X037147Y006462D01*
X037012Y006597D01*
X036835Y006670D01*
X036045Y006670D01*
X035868Y006597D01*
X035733Y006462D01*
X035660Y006285D01*
X035660Y006095D01*
X035693Y006016D01*
X035621Y006088D01*
X035322Y006211D01*
X034998Y006211D01*
X034699Y006088D01*
X034627Y006016D01*
X034660Y006095D01*
X034660Y006285D01*
X034587Y006462D01*
X034452Y006597D01*
X034275Y006670D01*
X033485Y006670D01*
X033308Y006597D01*
X033173Y006462D01*
X033100Y006285D01*
X033100Y006095D01*
X033173Y005918D01*
X033308Y005783D01*
X033485Y005710D01*
X034275Y005710D01*
X034437Y005777D01*
X034347Y005560D01*
X034347Y005237D01*
X034471Y004938D01*
X034423Y005053D02*
X020973Y005053D01*
X021111Y004935D02*
X029816Y004935D01*
X029701Y004816D02*
X021249Y004816D01*
X021387Y004698D02*
X029652Y004698D01*
X029630Y004579D02*
X021526Y004579D01*
X021664Y004461D02*
X029630Y004461D01*
X029677Y004342D02*
X021802Y004342D01*
X021940Y004224D02*
X029758Y004224D01*
X029930Y004105D02*
X022079Y004105D01*
X019650Y003157D02*
X017170Y003157D01*
X017170Y003039D02*
X019650Y003039D01*
X019601Y002920D02*
X019219Y002920D01*
X019109Y003030D02*
X018711Y003030D01*
X018430Y002749D01*
X018430Y002351D01*
X018711Y002070D01*
X019109Y002070D01*
X019390Y002351D01*
X019390Y002749D01*
X019109Y003030D01*
X018601Y002920D02*
X018219Y002920D01*
X018109Y003030D02*
X017711Y003030D01*
X017430Y002749D01*
X017430Y002351D01*
X017711Y002070D01*
X018109Y002070D01*
X018390Y002351D01*
X018390Y002749D01*
X018109Y003030D01*
X017601Y002920D02*
X017219Y002920D01*
X017337Y002802D02*
X017483Y002802D01*
X017430Y002683D02*
X017390Y002683D01*
X017390Y002565D02*
X017430Y002565D01*
X017430Y002446D02*
X017390Y002446D01*
X017366Y002328D02*
X017454Y002328D01*
X017572Y002209D02*
X017248Y002209D01*
X017129Y002091D02*
X017691Y002091D01*
X017719Y002010D02*
X017450Y001741D01*
X017450Y001590D01*
X017870Y001590D01*
X017870Y002010D01*
X017719Y002010D01*
X017681Y001972D02*
X017139Y001972D01*
X017101Y002010D02*
X016950Y002010D01*
X016950Y001590D01*
X017370Y001590D01*
X017370Y001741D01*
X017101Y002010D01*
X016950Y001972D02*
X016870Y001972D01*
X016870Y002010D02*
X016719Y002010D01*
X016450Y001741D01*
X016450Y001590D01*
X016870Y001590D01*
X016870Y002010D01*
X016870Y001854D02*
X016950Y001854D01*
X016950Y001735D02*
X016870Y001735D01*
X016870Y001617D02*
X016950Y001617D01*
X016950Y001590D02*
X016870Y001590D01*
X016870Y001510D01*
X016950Y001510D01*
X016950Y001590D01*
X016950Y001510D02*
X017370Y001510D01*
X017370Y001359D01*
X017101Y001090D01*
X016950Y001090D01*
X016950Y001510D01*
X016950Y001498D02*
X016870Y001498D01*
X016870Y001510D02*
X016870Y001090D01*
X016719Y001090D01*
X016450Y001359D01*
X016450Y001510D01*
X016870Y001510D01*
X016870Y001380D02*
X016950Y001380D01*
X016950Y001261D02*
X016870Y001261D01*
X016870Y001143D02*
X016950Y001143D01*
X017153Y001143D02*
X017667Y001143D01*
X017719Y001090D02*
X017870Y001090D01*
X017870Y001510D01*
X017950Y001510D01*
X017950Y001590D01*
X018370Y001590D01*
X018370Y001741D01*
X018101Y002010D01*
X017950Y002010D01*
X017950Y001590D01*
X017870Y001590D01*
X017870Y001510D01*
X017450Y001510D01*
X017450Y001359D01*
X017719Y001090D01*
X017870Y001143D02*
X017950Y001143D01*
X017950Y001090D02*
X018101Y001090D01*
X018370Y001359D01*
X018370Y001510D01*
X017950Y001510D01*
X017950Y001090D01*
X017950Y001261D02*
X017870Y001261D01*
X017870Y001380D02*
X017950Y001380D01*
X017950Y001498D02*
X017870Y001498D01*
X017870Y001617D02*
X017950Y001617D01*
X017950Y001735D02*
X017870Y001735D01*
X017870Y001854D02*
X017950Y001854D01*
X017950Y001972D02*
X017870Y001972D01*
X018139Y001972D02*
X018681Y001972D01*
X018719Y002010D02*
X018450Y001741D01*
X018450Y001590D01*
X018870Y001590D01*
X018870Y002010D01*
X018719Y002010D01*
X018691Y002091D02*
X018129Y002091D01*
X018248Y002209D02*
X018572Y002209D01*
X018454Y002328D02*
X018366Y002328D01*
X018390Y002446D02*
X018430Y002446D01*
X018430Y002565D02*
X018390Y002565D01*
X018390Y002683D02*
X018430Y002683D01*
X018483Y002802D02*
X018337Y002802D01*
X019337Y002802D02*
X019483Y002802D01*
X019430Y002683D02*
X019390Y002683D01*
X019390Y002565D02*
X019430Y002565D01*
X019430Y002446D02*
X019390Y002446D01*
X019366Y002328D02*
X019454Y002328D01*
X019572Y002209D02*
X019248Y002209D01*
X019129Y002091D02*
X019691Y002091D01*
X019681Y001972D02*
X019139Y001972D01*
X019101Y002010D02*
X018950Y002010D01*
X018950Y001590D01*
X019370Y001590D01*
X019370Y001741D01*
X019101Y002010D01*
X018950Y001972D02*
X018870Y001972D01*
X018870Y001854D02*
X018950Y001854D01*
X018950Y001735D02*
X018870Y001735D01*
X018870Y001617D02*
X018950Y001617D01*
X018950Y001590D02*
X018870Y001590D01*
X018870Y001510D01*
X018950Y001510D01*
X018950Y001590D01*
X018950Y001510D02*
X019370Y001510D01*
X019370Y001359D01*
X019101Y001090D01*
X018950Y001090D01*
X018950Y001510D01*
X018950Y001498D02*
X018870Y001498D01*
X018870Y001510D02*
X018870Y001090D01*
X018719Y001090D01*
X018450Y001359D01*
X018450Y001510D01*
X018870Y001510D01*
X018870Y001380D02*
X018950Y001380D01*
X018950Y001261D02*
X018870Y001261D01*
X018870Y001143D02*
X018950Y001143D01*
X019153Y001143D02*
X019667Y001143D01*
X019548Y001261D02*
X019272Y001261D01*
X019370Y001380D02*
X019450Y001380D01*
X019450Y001498D02*
X019370Y001498D01*
X019370Y001617D02*
X019450Y001617D01*
X019450Y001735D02*
X019370Y001735D01*
X019257Y001854D02*
X019563Y001854D01*
X018563Y001854D02*
X018257Y001854D01*
X018370Y001735D02*
X018450Y001735D01*
X018450Y001617D02*
X018370Y001617D01*
X018370Y001498D02*
X018450Y001498D01*
X018450Y001380D02*
X018370Y001380D01*
X018272Y001261D02*
X018548Y001261D01*
X018667Y001143D02*
X018153Y001143D01*
X017548Y001261D02*
X017272Y001261D01*
X017370Y001380D02*
X017450Y001380D01*
X017450Y001498D02*
X017370Y001498D01*
X017370Y001617D02*
X017450Y001617D01*
X017450Y001735D02*
X017370Y001735D01*
X017257Y001854D02*
X017563Y001854D01*
X016681Y001972D02*
X016139Y001972D01*
X016101Y002010D02*
X015950Y002010D01*
X015950Y001590D01*
X016370Y001590D01*
X016370Y001741D01*
X016101Y002010D01*
X016129Y002091D02*
X016691Y002091D01*
X016572Y002209D02*
X016248Y002209D01*
X016366Y002328D02*
X016454Y002328D01*
X016430Y002446D02*
X016390Y002446D01*
X016390Y002565D02*
X016430Y002565D01*
X016430Y002683D02*
X016390Y002683D01*
X016337Y002802D02*
X016483Y002802D01*
X016601Y002920D02*
X016219Y002920D01*
X016170Y003039D02*
X016650Y003039D01*
X016650Y003157D02*
X016147Y003157D01*
X016052Y003276D02*
X016650Y003276D01*
X016650Y003394D02*
X015934Y003394D01*
X015815Y003513D02*
X016650Y003513D01*
X016662Y003631D02*
X015697Y003631D01*
X015578Y003750D02*
X016742Y003750D01*
X016860Y003868D02*
X015460Y003868D01*
X015341Y003987D02*
X016979Y003987D01*
X017097Y004105D02*
X015223Y004105D01*
X015104Y004224D02*
X017150Y004224D01*
X017150Y004342D02*
X017132Y004342D01*
X017670Y004342D02*
X018500Y004342D01*
X018382Y004461D02*
X017670Y004461D01*
X017670Y004579D02*
X018263Y004579D01*
X018145Y004698D02*
X017670Y004698D01*
X017670Y004816D02*
X018026Y004816D01*
X017908Y004935D02*
X017670Y004935D01*
X017670Y005053D02*
X017789Y005053D01*
X017682Y005172D02*
X017670Y005172D01*
X017150Y005240D02*
X017114Y005275D01*
X017044Y005275D01*
X017044Y005478D01*
X017004Y005573D01*
X016810Y005768D01*
X016810Y006100D01*
X016749Y006247D01*
X016637Y006359D01*
X016490Y006420D01*
X016330Y006420D01*
X016208Y006369D01*
X015883Y006695D01*
X015883Y007430D01*
X016122Y007430D01*
X016142Y007450D01*
X016253Y007450D01*
X016363Y007450D01*
X016383Y007430D01*
X016752Y007430D01*
X016772Y007450D01*
X016882Y007450D01*
X016882Y007860D01*
X016882Y008270D01*
X016827Y008270D01*
X016827Y008444D01*
X016788Y008540D01*
X016630Y008697D01*
X016557Y008770D01*
X016462Y008810D01*
X016170Y008810D01*
X016170Y009602D01*
X016130Y009697D01*
X016057Y009770D01*
X015883Y009945D01*
X015883Y010810D01*
X016437Y010810D01*
X016457Y010830D01*
X016567Y010830D01*
X016567Y011240D01*
X016567Y011650D01*
X016457Y011650D01*
X016437Y011670D01*
X015868Y011670D01*
X015910Y011772D01*
X015902Y011926D02*
X026476Y011926D01*
X026525Y012045D02*
X015846Y012045D01*
X015679Y012163D02*
X026641Y012163D01*
X027679Y012163D02*
X033119Y012163D01*
X033119Y012045D02*
X027795Y012045D01*
X027844Y011926D02*
X029807Y011926D01*
X029838Y011957D02*
X029703Y011822D01*
X029630Y011645D01*
X029630Y011455D01*
X029703Y011278D01*
X029838Y011143D01*
X030015Y011070D01*
X030805Y011070D01*
X030982Y011143D01*
X031117Y011278D01*
X031190Y011455D01*
X031190Y011645D01*
X031117Y011822D01*
X030982Y011957D01*
X030805Y012030D01*
X030015Y012030D01*
X029838Y011957D01*
X029697Y011808D02*
X027860Y011808D01*
X027850Y011689D02*
X029648Y011689D01*
X029630Y011571D02*
X027801Y011571D01*
X027694Y011452D02*
X029631Y011452D01*
X029680Y011334D02*
X018424Y011334D01*
X018471Y011310D02*
X018064Y011514D01*
X018057Y011520D01*
X018018Y011537D01*
X017980Y011556D01*
X017971Y011556D01*
X017962Y011560D01*
X017919Y011560D01*
X017877Y011563D01*
X017868Y011560D01*
X017855Y011560D01*
X017807Y011608D01*
X017725Y011642D01*
X017697Y011670D01*
X016698Y011670D01*
X016678Y011650D01*
X016567Y011650D01*
X016567Y011240D01*
X016567Y011240D01*
X016567Y011240D01*
X016567Y010830D01*
X016678Y010830D01*
X016698Y010810D01*
X017670Y010810D01*
X017670Y009727D01*
X017617Y009748D01*
X017483Y009748D01*
X017358Y009697D01*
X017263Y009602D01*
X017212Y009477D01*
X017212Y009343D01*
X017263Y009218D01*
X017358Y009123D01*
X017483Y009072D01*
X017617Y009072D01*
X017670Y009093D01*
X017670Y008290D01*
X017382Y008290D01*
X017013Y008290D01*
X016993Y008270D01*
X016882Y008270D01*
X016882Y007860D01*
X016882Y007860D01*
X016882Y007860D01*
X016882Y007450D01*
X016937Y007450D01*
X016937Y006461D01*
X016977Y006365D01*
X017150Y006192D01*
X017150Y005240D01*
X017150Y005290D02*
X017044Y005290D01*
X017044Y005409D02*
X017150Y005409D01*
X017150Y005527D02*
X017024Y005527D01*
X016932Y005646D02*
X017150Y005646D01*
X017150Y005764D02*
X016814Y005764D01*
X016810Y005883D02*
X017150Y005883D01*
X017150Y006001D02*
X016810Y006001D01*
X016802Y006120D02*
X017150Y006120D01*
X017104Y006238D02*
X016753Y006238D01*
X016639Y006357D02*
X016986Y006357D01*
X016937Y006475D02*
X016103Y006475D01*
X015984Y006594D02*
X016937Y006594D01*
X016937Y006712D02*
X015883Y006712D01*
X015883Y006831D02*
X016937Y006831D01*
X016937Y006949D02*
X015883Y006949D01*
X015883Y007068D02*
X016937Y007068D01*
X016937Y007186D02*
X015883Y007186D01*
X015883Y007305D02*
X016937Y007305D01*
X016937Y007423D02*
X015883Y007423D01*
X016253Y007450D02*
X016253Y007860D01*
X016253Y007860D01*
X016253Y008270D01*
X016307Y008270D01*
X016307Y008285D01*
X016302Y008290D01*
X016170Y008290D01*
X016170Y008270D01*
X016253Y008270D01*
X016253Y007860D01*
X016253Y007450D01*
X016253Y007542D02*
X016253Y007542D01*
X016253Y007660D02*
X016253Y007660D01*
X016253Y007779D02*
X016253Y007779D01*
X016253Y007860D02*
X016253Y007860D01*
X016253Y007897D02*
X016253Y007897D01*
X016253Y008016D02*
X016253Y008016D01*
X016253Y008134D02*
X016253Y008134D01*
X016253Y008253D02*
X016253Y008253D01*
X016827Y008371D02*
X017670Y008371D01*
X017670Y008490D02*
X016809Y008490D01*
X016720Y008608D02*
X017670Y008608D01*
X017670Y008727D02*
X016601Y008727D01*
X016170Y008845D02*
X017670Y008845D01*
X017670Y008964D02*
X016170Y008964D01*
X016170Y009082D02*
X017457Y009082D01*
X017643Y009082D02*
X017670Y009082D01*
X017281Y009201D02*
X016170Y009201D01*
X016170Y009319D02*
X017221Y009319D01*
X017212Y009438D02*
X016170Y009438D01*
X016170Y009556D02*
X017244Y009556D01*
X017336Y009675D02*
X016140Y009675D01*
X016035Y009793D02*
X017670Y009793D01*
X017670Y009912D02*
X015916Y009912D01*
X015883Y010030D02*
X017670Y010030D01*
X017670Y010149D02*
X015883Y010149D01*
X015883Y010267D02*
X017670Y010267D01*
X017670Y010386D02*
X015883Y010386D01*
X015883Y010504D02*
X017670Y010504D01*
X017670Y010623D02*
X015883Y010623D01*
X015883Y010741D02*
X017670Y010741D01*
X016567Y010860D02*
X016567Y010860D01*
X016567Y010978D02*
X016567Y010978D01*
X016567Y011097D02*
X016567Y011097D01*
X016567Y011215D02*
X016567Y011215D01*
X016567Y011334D02*
X016567Y011334D01*
X016567Y011452D02*
X016567Y011452D01*
X016567Y011571D02*
X016567Y011571D01*
X017845Y011571D02*
X026519Y011571D01*
X026626Y011452D02*
X018187Y011452D01*
X018471Y011310D02*
X024337Y011310D01*
X024432Y011270D01*
X024505Y011197D01*
X024545Y011102D01*
X024545Y008310D01*
X024962Y008310D01*
X025057Y008270D01*
X026518Y006810D01*
X029698Y006810D01*
X029703Y006822D01*
X029838Y006957D01*
X030015Y007030D01*
X030805Y007030D01*
X030982Y006957D01*
X031117Y006822D01*
X031190Y006645D01*
X031190Y006455D01*
X031117Y006278D01*
X030982Y006143D01*
X030805Y006070D01*
X030015Y006070D01*
X029838Y006143D01*
X029703Y006278D01*
X029698Y006290D01*
X029649Y006290D01*
X029697Y006242D01*
X029748Y006117D01*
X029748Y005983D01*
X029697Y005858D01*
X029649Y005810D01*
X029698Y005810D01*
X029703Y005822D01*
X029838Y005957D01*
X030015Y006030D01*
X030805Y006030D01*
X030982Y005957D01*
X031117Y005822D01*
X031190Y005645D01*
X031190Y005455D01*
X031117Y005278D01*
X030982Y005143D01*
X030805Y005070D01*
X030015Y005070D01*
X029838Y005143D01*
X029703Y005278D01*
X029698Y005290D01*
X026358Y005290D01*
X025236Y006357D02*
X022635Y006357D01*
X022635Y006475D02*
X025117Y006475D01*
X024999Y006594D02*
X022635Y006594D01*
X022635Y006712D02*
X024880Y006712D01*
X023512Y006831D02*
X022635Y006831D01*
X022635Y006949D02*
X023420Y006949D01*
X023400Y007068D02*
X022581Y007068D01*
X022615Y007186D02*
X023398Y007186D01*
X023397Y007305D02*
X022615Y007305D01*
X022615Y007542D02*
X023394Y007542D01*
X023393Y007660D02*
X022615Y007660D01*
X022903Y007779D02*
X023392Y007779D01*
X023390Y007897D02*
X023044Y007897D01*
X023084Y008016D02*
X023389Y008016D01*
X023388Y008134D02*
X023084Y008134D01*
X023084Y008253D02*
X023386Y008253D01*
X023385Y008371D02*
X023161Y008371D01*
X023220Y008490D02*
X023384Y008490D01*
X023382Y008608D02*
X023220Y008608D01*
X023220Y008727D02*
X023381Y008727D01*
X023380Y008845D02*
X023220Y008845D01*
X023220Y008964D02*
X023378Y008964D01*
X023377Y009082D02*
X023220Y009082D01*
X023189Y009201D02*
X023376Y009201D01*
X023374Y009319D02*
X023084Y009319D01*
X023220Y009438D02*
X023373Y009438D01*
X023371Y009556D02*
X023220Y009556D01*
X023220Y009675D02*
X023370Y009675D01*
X023369Y009793D02*
X023220Y009793D01*
X023220Y009912D02*
X023367Y009912D01*
X023366Y010030D02*
X023220Y010030D01*
X024545Y010030D02*
X026548Y010030D01*
X026541Y010020D02*
X026511Y009961D01*
X026490Y009898D01*
X026480Y009833D01*
X026480Y009820D01*
X027140Y009820D01*
X027140Y010220D01*
X026867Y010220D01*
X026802Y010210D01*
X026739Y010189D01*
X026680Y010159D01*
X026626Y010120D01*
X026580Y010074D01*
X026541Y010020D01*
X026495Y009912D02*
X024545Y009912D01*
X024545Y009793D02*
X027140Y009793D01*
X027140Y009780D02*
X026480Y009780D01*
X026480Y009767D01*
X026490Y009702D01*
X026511Y009639D01*
X026541Y009580D01*
X026580Y009526D01*
X026626Y009480D01*
X026680Y009441D01*
X026739Y009411D01*
X026802Y009390D01*
X026867Y009380D01*
X027140Y009380D01*
X027140Y009780D01*
X027180Y009780D01*
X027180Y009820D01*
X027140Y009820D01*
X027140Y009780D01*
X027180Y009780D02*
X027180Y009380D01*
X027453Y009380D01*
X027518Y009390D01*
X027581Y009411D01*
X027640Y009441D01*
X027694Y009480D01*
X027740Y009526D01*
X027779Y009580D01*
X027809Y009639D01*
X027830Y009702D01*
X027840Y009767D01*
X027840Y009780D01*
X027180Y009780D01*
X027180Y009793D02*
X034449Y009793D01*
X034471Y009741D02*
X034699Y009512D01*
X034998Y009389D01*
X035322Y009389D01*
X035621Y009512D01*
X035849Y009741D01*
X035973Y010040D01*
X035973Y010363D01*
X035849Y010662D01*
X035621Y010891D01*
X035322Y011015D01*
X034998Y011015D01*
X034699Y010891D01*
X034471Y010662D01*
X034347Y010363D01*
X034347Y010040D01*
X034471Y009741D01*
X034537Y009675D02*
X027821Y009675D01*
X027762Y009556D02*
X033267Y009556D01*
X033308Y009597D02*
X033173Y009462D01*
X033100Y009285D01*
X033100Y009095D01*
X033173Y008918D01*
X033308Y008783D01*
X033485Y008710D01*
X034275Y008710D01*
X034452Y008783D01*
X034587Y008918D01*
X034660Y009095D01*
X034660Y009285D01*
X034587Y009462D01*
X034452Y009597D01*
X034275Y009670D01*
X033485Y009670D01*
X033308Y009597D01*
X033163Y009438D02*
X027634Y009438D01*
X027180Y009438D02*
X027140Y009438D01*
X027140Y009556D02*
X027180Y009556D01*
X027180Y009675D02*
X027140Y009675D01*
X027180Y009820D02*
X027840Y009820D01*
X027840Y009833D01*
X027830Y009898D01*
X027809Y009961D01*
X027779Y010020D01*
X027740Y010074D01*
X027694Y010120D01*
X027640Y010159D01*
X027581Y010189D01*
X027518Y010210D01*
X027453Y010220D01*
X027180Y010220D01*
X027180Y009820D01*
X027180Y009912D02*
X027140Y009912D01*
X027140Y010030D02*
X027180Y010030D01*
X027180Y010149D02*
X027140Y010149D01*
X026812Y010360D02*
X027508Y010360D01*
X027669Y010427D01*
X027793Y010551D01*
X027860Y010712D01*
X027860Y010888D01*
X027793Y011049D01*
X027669Y011173D01*
X027508Y011240D01*
X026812Y011240D01*
X026651Y011173D01*
X026527Y011049D01*
X026460Y010888D01*
X026460Y010712D01*
X026527Y010551D01*
X026651Y010427D01*
X026812Y010360D01*
X026751Y010386D02*
X024545Y010386D01*
X024545Y010504D02*
X026574Y010504D01*
X026497Y010623D02*
X024545Y010623D01*
X024545Y010741D02*
X026460Y010741D01*
X026460Y010860D02*
X024545Y010860D01*
X024545Y010978D02*
X026497Y010978D01*
X026574Y011097D02*
X024545Y011097D01*
X024488Y011215D02*
X026752Y011215D01*
X027568Y011215D02*
X029766Y011215D01*
X029950Y011097D02*
X027746Y011097D01*
X027823Y010978D02*
X029939Y010978D01*
X029933Y010976D02*
X029869Y010943D01*
X029810Y010901D01*
X029759Y010850D01*
X029717Y010791D01*
X029684Y010727D01*
X029661Y010658D01*
X029651Y010590D01*
X030370Y010590D01*
X030370Y011010D01*
X030074Y011010D01*
X030002Y010999D01*
X029933Y010976D01*
X029769Y010860D02*
X027860Y010860D01*
X027860Y010741D02*
X029691Y010741D01*
X029656Y010623D02*
X027823Y010623D01*
X027746Y010504D02*
X029652Y010504D01*
X029651Y010510D02*
X029661Y010442D01*
X029684Y010373D01*
X029717Y010309D01*
X029759Y010250D01*
X029810Y010199D01*
X029869Y010157D01*
X029933Y010124D01*
X030002Y010101D01*
X030074Y010090D01*
X030370Y010090D01*
X030370Y010510D01*
X030450Y010510D01*
X030450Y010590D01*
X030370Y010590D01*
X030370Y010510D01*
X029651Y010510D01*
X029680Y010386D02*
X027569Y010386D01*
X027655Y010149D02*
X029885Y010149D01*
X029747Y010267D02*
X024545Y010267D01*
X024545Y010149D02*
X026665Y010149D01*
X026499Y009675D02*
X024545Y009675D01*
X024545Y009556D02*
X026558Y009556D01*
X026686Y009438D02*
X024545Y009438D01*
X024545Y009319D02*
X033114Y009319D01*
X033100Y009201D02*
X032836Y009201D01*
X032881Y009156D02*
X032776Y009261D01*
X032033Y009261D01*
X031927Y009156D01*
X031927Y008413D01*
X032033Y008307D01*
X032776Y008307D01*
X032881Y008413D01*
X032881Y009156D01*
X032881Y009082D02*
X033105Y009082D01*
X033154Y008964D02*
X032881Y008964D01*
X032881Y008845D02*
X033246Y008845D01*
X033445Y008727D02*
X032881Y008727D01*
X032881Y008608D02*
X037636Y008608D01*
X037636Y008490D02*
X032881Y008490D01*
X032839Y008371D02*
X037678Y008371D01*
X037636Y008413D02*
X037741Y008307D01*
X038484Y008307D01*
X038590Y008413D01*
X038590Y009156D01*
X038484Y009261D01*
X037741Y009261D01*
X037636Y009156D01*
X037636Y008413D01*
X037754Y008246D02*
X037718Y008225D01*
X037688Y008195D01*
X037667Y008159D01*
X037656Y008118D01*
X037656Y007838D01*
X038074Y007838D01*
X038074Y007762D01*
X037656Y007762D01*
X037656Y007482D01*
X037667Y007441D01*
X037688Y007405D01*
X037718Y007375D01*
X037754Y007354D01*
X037795Y007343D01*
X038074Y007343D01*
X038074Y007762D01*
X038151Y007762D01*
X038151Y007838D01*
X038570Y007838D01*
X038570Y008118D01*
X038559Y008159D01*
X038538Y008195D01*
X038508Y008225D01*
X038471Y008246D01*
X038431Y008257D01*
X038151Y008257D01*
X038151Y007838D01*
X038074Y007838D01*
X038074Y008257D01*
X037795Y008257D01*
X037754Y008246D01*
X037779Y008253D02*
X025075Y008253D01*
X025194Y008134D02*
X037660Y008134D01*
X037656Y008016D02*
X025312Y008016D01*
X025431Y007897D02*
X029806Y007897D01*
X029810Y007901D02*
X029759Y007850D01*
X029717Y007791D01*
X029684Y007727D01*
X029661Y007658D01*
X029651Y007590D01*
X030370Y007590D01*
X030370Y008010D01*
X030074Y008010D01*
X030002Y007999D01*
X029933Y007976D01*
X029869Y007943D01*
X029810Y007901D01*
X029710Y007779D02*
X025549Y007779D01*
X025668Y007660D02*
X029662Y007660D01*
X029651Y007510D02*
X029661Y007442D01*
X029684Y007373D01*
X029717Y007309D01*
X029759Y007250D01*
X029810Y007199D01*
X029869Y007157D01*
X029933Y007124D01*
X030002Y007101D01*
X030074Y007090D01*
X030370Y007090D01*
X030370Y007510D01*
X030450Y007510D01*
X030450Y007590D01*
X030370Y007590D01*
X030370Y007510D01*
X029651Y007510D01*
X029668Y007423D02*
X025905Y007423D01*
X026023Y007305D02*
X029720Y007305D01*
X029828Y007186D02*
X026142Y007186D01*
X026260Y007068D02*
X031947Y007068D01*
X031947Y007134D02*
X031947Y006854D01*
X032366Y006854D01*
X032366Y007273D01*
X032086Y007273D01*
X032045Y007262D01*
X032009Y007241D01*
X031979Y007211D01*
X031958Y007174D01*
X031947Y007134D01*
X031965Y007186D02*
X030992Y007186D01*
X031010Y007199D02*
X031061Y007250D01*
X031103Y007309D01*
X031136Y007373D01*
X031159Y007442D01*
X031169Y007510D01*
X030450Y007510D01*
X030450Y007090D01*
X030746Y007090D01*
X030818Y007101D01*
X030887Y007124D01*
X030951Y007157D01*
X031010Y007199D01*
X031100Y007305D02*
X033131Y007305D01*
X033131Y007302D02*
X033154Y007233D01*
X033187Y007169D01*
X033229Y007110D01*
X033280Y007059D01*
X033339Y007017D01*
X033403Y006984D01*
X033472Y006961D01*
X033544Y006950D01*
X033840Y006950D01*
X033840Y007370D01*
X033920Y007370D01*
X033920Y007450D01*
X033840Y007450D01*
X033840Y007870D01*
X033544Y007870D01*
X033472Y007859D01*
X033403Y007836D01*
X033339Y007803D01*
X033280Y007761D01*
X033229Y007710D01*
X033187Y007651D01*
X033154Y007587D01*
X033131Y007518D01*
X033121Y007450D01*
X033840Y007450D01*
X033840Y007370D01*
X033121Y007370D01*
X033131Y007302D01*
X033178Y007186D02*
X032843Y007186D01*
X032850Y007174D02*
X032829Y007211D01*
X032799Y007241D01*
X032763Y007262D01*
X032722Y007273D01*
X032443Y007273D01*
X032443Y006854D01*
X032861Y006854D01*
X032861Y007134D01*
X032850Y007174D01*
X032861Y007068D02*
X033272Y007068D01*
X032861Y006949D02*
X037636Y006949D01*
X037636Y006831D02*
X032443Y006831D01*
X032443Y006854D02*
X032443Y006777D01*
X032861Y006777D01*
X032861Y006498D01*
X032850Y006457D01*
X032829Y006421D01*
X032799Y006391D01*
X032763Y006370D01*
X032722Y006359D01*
X032443Y006359D01*
X032443Y006777D01*
X032366Y006777D01*
X032366Y006359D01*
X032086Y006359D01*
X032045Y006370D01*
X032009Y006391D01*
X031979Y006421D01*
X031958Y006457D01*
X031947Y006498D01*
X031947Y006777D01*
X032366Y006777D01*
X032366Y006854D01*
X032443Y006854D01*
X032366Y006831D02*
X031108Y006831D01*
X031162Y006712D02*
X031947Y006712D01*
X031947Y006594D02*
X031190Y006594D01*
X031190Y006475D02*
X031953Y006475D01*
X032366Y006475D02*
X032443Y006475D01*
X032443Y006594D02*
X032366Y006594D01*
X032366Y006712D02*
X032443Y006712D01*
X032443Y006949D02*
X032366Y006949D01*
X032366Y007068D02*
X032443Y007068D01*
X032443Y007186D02*
X032366Y007186D01*
X031947Y006949D02*
X030990Y006949D01*
X030450Y007186D02*
X030370Y007186D01*
X030370Y007305D02*
X030450Y007305D01*
X030450Y007423D02*
X030370Y007423D01*
X030370Y007542D02*
X025786Y007542D01*
X026379Y006949D02*
X029830Y006949D01*
X029712Y006831D02*
X026497Y006831D01*
X023396Y007423D02*
X022220Y007423D01*
X022100Y007423D02*
X021569Y007423D01*
X021588Y007305D02*
X021705Y007305D01*
X021705Y007364D02*
X021705Y007147D01*
X021716Y007106D01*
X021737Y007070D01*
X021742Y007064D01*
X021685Y007006D01*
X021685Y006850D01*
X021664Y006850D01*
X021514Y007750D01*
X021720Y007750D01*
X021716Y007742D01*
X021705Y007701D01*
X021705Y007484D01*
X022100Y007484D01*
X022100Y007364D01*
X021705Y007364D01*
X021705Y007542D02*
X021549Y007542D01*
X021529Y007660D02*
X021705Y007660D01*
X021705Y007186D02*
X021608Y007186D01*
X021628Y007068D02*
X021739Y007068D01*
X021685Y006949D02*
X021648Y006949D01*
X021659Y008371D02*
X021269Y008371D01*
X021600Y008727D02*
X019601Y008727D01*
X019483Y008845D02*
X021497Y008845D01*
X021287Y008964D02*
X019533Y008964D01*
X019698Y009082D02*
X021122Y009082D01*
X021064Y009201D02*
X019756Y009201D01*
X019768Y009319D02*
X021052Y009319D01*
X021079Y009438D02*
X019741Y009438D01*
X019670Y009556D02*
X021148Y009556D01*
X021074Y009675D02*
X019670Y009675D01*
X019670Y009793D02*
X021052Y009793D01*
X021069Y009912D02*
X019645Y009912D01*
X019548Y010030D02*
X021134Y010030D01*
X024545Y009201D02*
X031972Y009201D01*
X031927Y009082D02*
X024545Y009082D01*
X024545Y008964D02*
X031927Y008964D01*
X031927Y008845D02*
X024545Y008845D01*
X024545Y008727D02*
X031927Y008727D01*
X031927Y008608D02*
X024545Y008608D01*
X024545Y008490D02*
X031927Y008490D01*
X031969Y008371D02*
X024545Y008371D01*
X027825Y009912D02*
X034400Y009912D01*
X034351Y010030D02*
X027772Y010030D01*
X030370Y010149D02*
X030450Y010149D01*
X030450Y010090D02*
X030746Y010090D01*
X030818Y010101D01*
X030887Y010124D01*
X030951Y010157D01*
X031010Y010199D01*
X031061Y010250D01*
X031103Y010309D01*
X031136Y010373D01*
X031159Y010442D01*
X031169Y010510D01*
X030450Y010510D01*
X030450Y010090D01*
X030450Y010267D02*
X030370Y010267D01*
X030370Y010386D02*
X030450Y010386D01*
X030450Y010504D02*
X030370Y010504D01*
X030450Y010590D02*
X031169Y010590D01*
X031159Y010658D01*
X031136Y010727D01*
X031103Y010791D01*
X031061Y010850D01*
X031010Y010901D01*
X030951Y010943D01*
X030887Y010976D01*
X030818Y010999D01*
X030746Y011010D01*
X030450Y011010D01*
X030450Y010590D01*
X030450Y010623D02*
X030370Y010623D01*
X030370Y010741D02*
X030450Y010741D01*
X030450Y010860D02*
X030370Y010860D01*
X030370Y010978D02*
X030450Y010978D01*
X030881Y010978D02*
X034910Y010978D01*
X034668Y010860D02*
X031051Y010860D01*
X031129Y010741D02*
X034550Y010741D01*
X034454Y010623D02*
X031164Y010623D01*
X031168Y010504D02*
X034405Y010504D01*
X034356Y010386D02*
X031140Y010386D01*
X031073Y010267D02*
X034347Y010267D01*
X034347Y010149D02*
X030935Y010149D01*
X030870Y011097D02*
X033399Y011097D01*
X033383Y011103D02*
X033608Y011010D01*
X033850Y011010D01*
X034074Y011103D01*
X034246Y011274D01*
X034339Y011499D01*
X034339Y012601D01*
X034246Y012826D01*
X034074Y012997D01*
X033850Y013090D01*
X033608Y013090D01*
X033383Y012997D01*
X033212Y012826D01*
X033119Y012601D01*
X033119Y011499D01*
X033212Y011274D01*
X033383Y011103D01*
X033271Y011215D02*
X031054Y011215D01*
X031140Y011334D02*
X033187Y011334D01*
X033138Y011452D02*
X031189Y011452D01*
X031190Y011571D02*
X033119Y011571D01*
X033119Y011689D02*
X031172Y011689D01*
X031123Y011808D02*
X033119Y011808D01*
X033119Y011926D02*
X031013Y011926D01*
X033119Y012282D02*
X012313Y012282D01*
X012194Y012400D02*
X033119Y012400D01*
X033119Y012519D02*
X012076Y012519D01*
X011957Y012637D02*
X033134Y012637D01*
X033183Y012756D02*
X011839Y012756D01*
X011720Y012874D02*
X013270Y012874D01*
X013294Y012857D02*
X013358Y012824D01*
X013427Y012801D01*
X013495Y012791D01*
X013495Y013510D01*
X013075Y013510D01*
X013075Y013214D01*
X013086Y013142D01*
X013109Y013073D01*
X013142Y013009D01*
X013184Y012950D01*
X013235Y012899D01*
X013294Y012857D01*
X013153Y012993D02*
X011602Y012993D01*
X011483Y013111D02*
X013096Y013111D01*
X013075Y013230D02*
X011365Y013230D01*
X011246Y013348D02*
X013075Y013348D01*
X013075Y013467D02*
X011128Y013467D01*
X011009Y013585D02*
X013495Y013585D01*
X013495Y013590D02*
X013495Y013510D01*
X013575Y013510D01*
X013575Y013590D01*
X013495Y013590D01*
X013495Y014309D01*
X013427Y014299D01*
X013358Y014276D01*
X013294Y014243D01*
X013235Y014201D01*
X013184Y014150D01*
X013142Y014091D01*
X013109Y014027D01*
X013086Y013958D01*
X013075Y013886D01*
X013075Y013590D01*
X013495Y013590D01*
X013575Y013590D02*
X013575Y014309D01*
X013643Y014299D01*
X013712Y014276D01*
X013776Y014243D01*
X013835Y014201D01*
X013886Y014150D01*
X013928Y014091D01*
X013961Y014027D01*
X013984Y013958D01*
X013995Y013886D01*
X013995Y013590D01*
X013575Y013590D01*
X013575Y013585D02*
X014055Y013585D01*
X013995Y013510D02*
X013575Y013510D01*
X013575Y012791D01*
X013643Y012801D01*
X013712Y012824D01*
X013776Y012857D01*
X013835Y012899D01*
X013886Y012950D01*
X013928Y013009D01*
X013961Y013073D01*
X013984Y013142D01*
X013995Y013214D01*
X013995Y013510D01*
X013995Y013467D02*
X014055Y013467D01*
X014055Y013348D02*
X013995Y013348D01*
X013995Y013230D02*
X014055Y013230D01*
X014055Y013155D02*
X014128Y012978D01*
X014263Y012843D01*
X014440Y012770D01*
X014630Y012770D01*
X014807Y012843D01*
X014942Y012978D01*
X015015Y013155D01*
X015015Y013945D01*
X014942Y014122D01*
X014807Y014257D01*
X014630Y014330D01*
X014440Y014330D01*
X014263Y014257D01*
X014128Y014122D01*
X014055Y013945D01*
X014055Y013155D01*
X014073Y013111D02*
X013974Y013111D01*
X013917Y012993D02*
X014122Y012993D01*
X014232Y012874D02*
X013800Y012874D01*
X013575Y012874D02*
X013495Y012874D01*
X013495Y012993D02*
X013575Y012993D01*
X013575Y013111D02*
X013495Y013111D01*
X013495Y013230D02*
X013575Y013230D01*
X013575Y013348D02*
X013495Y013348D01*
X013495Y013467D02*
X013575Y013467D01*
X013575Y013704D02*
X013495Y013704D01*
X013495Y013822D02*
X013575Y013822D01*
X013575Y013941D02*
X013495Y013941D01*
X013495Y014059D02*
X013575Y014059D01*
X013575Y014178D02*
X013495Y014178D01*
X013495Y014296D02*
X013575Y014296D01*
X013651Y014296D02*
X014358Y014296D01*
X014184Y014178D02*
X013858Y014178D01*
X013945Y014059D02*
X014102Y014059D01*
X014055Y013941D02*
X013986Y013941D01*
X013995Y013822D02*
X014055Y013822D01*
X014055Y013704D02*
X013995Y013704D01*
X013075Y013704D02*
X010963Y013704D01*
X010867Y013822D02*
X013075Y013822D01*
X013084Y013941D02*
X009916Y013941D01*
X009849Y014007D02*
X009698Y014007D01*
X009698Y013588D01*
X010117Y013588D01*
X010117Y013739D01*
X009849Y014007D01*
X009698Y013941D02*
X009622Y013941D01*
X009622Y014007D02*
X009471Y014007D01*
X009203Y013739D01*
X009203Y013588D01*
X009622Y013588D01*
X009622Y013512D01*
X009698Y013512D01*
X009698Y013588D01*
X009622Y013588D01*
X009622Y014007D01*
X009622Y013822D02*
X009698Y013822D01*
X009698Y013704D02*
X009622Y013704D01*
X009622Y013585D02*
X008698Y013585D01*
X008698Y013588D02*
X009117Y013588D01*
X009117Y013739D01*
X008849Y014007D01*
X008698Y014007D01*
X008698Y013588D01*
X008698Y013512D01*
X009117Y013512D01*
X009117Y013361D01*
X008849Y013093D01*
X008698Y013093D01*
X008698Y013512D01*
X008622Y013512D01*
X008622Y013093D01*
X008471Y013093D01*
X008203Y013361D01*
X008203Y013512D01*
X008622Y013512D01*
X008622Y013588D01*
X008203Y013588D01*
X008203Y013739D01*
X008471Y014007D01*
X008622Y014007D01*
X008622Y013588D01*
X008698Y013588D01*
X008622Y013585D02*
X007698Y013585D01*
X007698Y013588D02*
X008117Y013588D01*
X008117Y013739D01*
X007849Y014007D01*
X007698Y014007D01*
X007698Y013588D01*
X007698Y013512D01*
X008117Y013512D01*
X008117Y013361D01*
X007849Y013093D01*
X007698Y013093D01*
X007698Y013512D01*
X007622Y013512D01*
X007622Y013093D01*
X007471Y013093D01*
X007203Y013361D01*
X007203Y013512D01*
X007622Y013512D01*
X007622Y013588D01*
X007203Y013588D01*
X007203Y013739D01*
X007471Y014007D01*
X007622Y014007D01*
X007622Y013588D01*
X007698Y013588D01*
X007622Y013585D02*
X006698Y013585D01*
X006698Y013588D02*
X007117Y013588D01*
X007117Y013739D01*
X006849Y014007D01*
X006698Y014007D01*
X006698Y013588D01*
X006698Y013512D01*
X007117Y013512D01*
X007117Y013361D01*
X006849Y013093D01*
X006698Y013093D01*
X006698Y013512D01*
X006622Y013512D01*
X006622Y013093D01*
X006471Y013093D01*
X006203Y013361D01*
X006203Y013512D01*
X006622Y013512D01*
X006622Y013588D01*
X006203Y013588D01*
X006203Y013739D01*
X006471Y014007D01*
X006622Y014007D01*
X006622Y013588D01*
X006698Y013588D01*
X006622Y013585D02*
X006137Y013585D01*
X006137Y013467D02*
X006203Y013467D01*
X006216Y013348D02*
X006132Y013348D01*
X006137Y013352D02*
X005858Y013073D01*
X005462Y013073D01*
X005183Y013352D01*
X005183Y013748D01*
X005462Y014027D01*
X005858Y014027D01*
X006137Y013748D01*
X006137Y013352D01*
X006014Y013230D02*
X006334Y013230D01*
X006453Y013111D02*
X005895Y013111D01*
X006066Y012993D02*
X006428Y012993D01*
X006310Y012874D02*
X006137Y012874D01*
X006137Y012756D02*
X006191Y012756D01*
X006183Y012637D02*
X006137Y012637D01*
X006137Y012519D02*
X006183Y012519D01*
X006178Y012400D02*
X006183Y012400D01*
X005798Y012045D02*
X000410Y012045D01*
X000410Y012163D02*
X005199Y012163D01*
X005183Y012282D02*
X000410Y012282D01*
X000410Y012400D02*
X005183Y012400D01*
X005183Y012519D02*
X000410Y012519D01*
X000410Y012637D02*
X005183Y012637D01*
X005183Y012756D02*
X000410Y012756D01*
X000410Y012874D02*
X001015Y012874D01*
X001025Y012870D02*
X001295Y012870D01*
X001545Y012974D01*
X001736Y013165D01*
X001840Y013415D01*
X001840Y013685D01*
X001736Y013935D01*
X001545Y014126D01*
X001295Y014230D01*
X001025Y014230D01*
X000775Y014126D01*
X000584Y013935D01*
X000480Y013685D01*
X000480Y013415D01*
X000584Y013165D01*
X000775Y012974D01*
X001025Y012870D01*
X001305Y012874D02*
X005183Y012874D01*
X005254Y012993D02*
X001564Y012993D01*
X001683Y013111D02*
X005425Y013111D01*
X005306Y013230D02*
X001763Y013230D01*
X001812Y013348D02*
X005188Y013348D01*
X005183Y013467D02*
X001840Y013467D01*
X001840Y013585D02*
X005183Y013585D01*
X005183Y013704D02*
X001832Y013704D01*
X001783Y013822D02*
X005258Y013822D01*
X005376Y013941D02*
X001731Y013941D01*
X001613Y014059D02*
X013125Y014059D01*
X013212Y014178D02*
X001422Y014178D01*
X000898Y014178D02*
X000410Y014178D01*
X000410Y014296D02*
X013419Y014296D01*
X014712Y014296D02*
X015358Y014296D01*
X015440Y014330D02*
X015263Y014257D01*
X015128Y014122D01*
X015055Y013945D01*
X015055Y013155D01*
X015128Y012978D01*
X015263Y012843D01*
X015440Y012770D01*
X015630Y012770D01*
X015807Y012843D01*
X015942Y012978D01*
X016015Y013155D01*
X016015Y013945D01*
X015942Y014122D01*
X015807Y014257D01*
X015630Y014330D01*
X015440Y014330D01*
X015712Y014296D02*
X016358Y014296D01*
X016440Y014330D02*
X016263Y014257D01*
X016128Y014122D01*
X016055Y013945D01*
X016055Y013155D01*
X016128Y012978D01*
X016263Y012843D01*
X016440Y012770D01*
X016630Y012770D01*
X016807Y012843D01*
X016942Y012978D01*
X017015Y013155D01*
X017015Y013945D01*
X016942Y014122D01*
X016807Y014257D01*
X016630Y014330D01*
X016440Y014330D01*
X016712Y014296D02*
X017358Y014296D01*
X017440Y014330D02*
X017263Y014257D01*
X017128Y014122D01*
X017055Y013945D01*
X017055Y013155D01*
X017128Y012978D01*
X017263Y012843D01*
X017440Y012770D01*
X017630Y012770D01*
X017807Y012843D01*
X017942Y012978D01*
X018015Y013155D01*
X018015Y013945D01*
X017942Y014122D01*
X017807Y014257D01*
X017630Y014330D01*
X017440Y014330D01*
X017712Y014296D02*
X018358Y014296D01*
X018440Y014330D02*
X018263Y014257D01*
X018128Y014122D01*
X018055Y013945D01*
X018055Y013155D01*
X018128Y012978D01*
X018263Y012843D01*
X018440Y012770D01*
X018630Y012770D01*
X018807Y012843D01*
X018942Y012978D01*
X019015Y013155D01*
X019015Y013945D01*
X018942Y014122D01*
X018807Y014257D01*
X018630Y014330D01*
X018440Y014330D01*
X018712Y014296D02*
X019358Y014296D01*
X019440Y014330D02*
X019263Y014257D01*
X019128Y014122D01*
X019055Y013945D01*
X019055Y013155D01*
X019128Y012978D01*
X019263Y012843D01*
X019440Y012770D01*
X019630Y012770D01*
X019807Y012843D01*
X019942Y012978D01*
X020015Y013155D01*
X020015Y013945D01*
X019942Y014122D01*
X019807Y014257D01*
X019630Y014330D01*
X019440Y014330D01*
X019712Y014296D02*
X020358Y014296D01*
X020440Y014330D02*
X020263Y014257D01*
X020128Y014122D01*
X020055Y013945D01*
X020055Y013155D01*
X020128Y012978D01*
X020263Y012843D01*
X020440Y012770D01*
X020630Y012770D01*
X020807Y012843D01*
X020942Y012978D01*
X021015Y013155D01*
X021015Y013945D01*
X020942Y014122D01*
X020807Y014257D01*
X020630Y014330D01*
X020440Y014330D01*
X020712Y014296D02*
X021358Y014296D01*
X021440Y014330D02*
X021263Y014257D01*
X021128Y014122D01*
X021055Y013945D01*
X021055Y013155D01*
X021128Y012978D01*
X021263Y012843D01*
X021440Y012770D01*
X021630Y012770D01*
X021807Y012843D01*
X021942Y012978D01*
X022015Y013155D01*
X022015Y013945D01*
X021942Y014122D01*
X021807Y014257D01*
X021630Y014330D01*
X021440Y014330D01*
X021712Y014296D02*
X022358Y014296D01*
X022440Y014330D02*
X022263Y014257D01*
X022128Y014122D01*
X022055Y013945D01*
X022055Y013155D01*
X022128Y012978D01*
X022263Y012843D01*
X022440Y012770D01*
X022630Y012770D01*
X022807Y012843D01*
X022942Y012978D01*
X023015Y013155D01*
X023015Y013945D01*
X022942Y014122D01*
X022807Y014257D01*
X022630Y014330D01*
X022440Y014330D01*
X022712Y014296D02*
X023358Y014296D01*
X023440Y014330D02*
X023263Y014257D01*
X023128Y014122D01*
X023055Y013945D01*
X023055Y013155D01*
X023128Y012978D01*
X023263Y012843D01*
X023440Y012770D01*
X023630Y012770D01*
X023807Y012843D01*
X023942Y012978D01*
X024015Y013155D01*
X024015Y013945D01*
X023942Y014122D01*
X023807Y014257D01*
X023630Y014330D01*
X023440Y014330D01*
X023712Y014296D02*
X024358Y014296D01*
X024440Y014330D02*
X024263Y014257D01*
X024128Y014122D01*
X024055Y013945D01*
X024055Y013155D01*
X024128Y012978D01*
X024263Y012843D01*
X024440Y012770D01*
X024630Y012770D01*
X024807Y012843D01*
X024942Y012978D01*
X025015Y013155D01*
X025015Y013945D01*
X024942Y014122D01*
X024807Y014257D01*
X024630Y014330D01*
X024440Y014330D01*
X024712Y014296D02*
X025358Y014296D01*
X025440Y014330D02*
X025263Y014257D01*
X025128Y014122D01*
X025055Y013945D01*
X025055Y013155D01*
X025128Y012978D01*
X025263Y012843D01*
X025440Y012770D01*
X025630Y012770D01*
X025807Y012843D01*
X025942Y012978D01*
X026015Y013155D01*
X026015Y013945D01*
X025942Y014122D01*
X025807Y014257D01*
X025630Y014330D01*
X025440Y014330D01*
X025712Y014296D02*
X026358Y014296D01*
X026440Y014330D02*
X026263Y014257D01*
X026128Y014122D01*
X026055Y013945D01*
X026055Y013155D01*
X026128Y012978D01*
X026263Y012843D01*
X026440Y012770D01*
X026630Y012770D01*
X026807Y012843D01*
X026942Y012978D01*
X027015Y013155D01*
X027015Y013945D01*
X026942Y014122D01*
X026807Y014257D01*
X026630Y014330D01*
X026440Y014330D01*
X026712Y014296D02*
X027358Y014296D01*
X027440Y014330D02*
X027263Y014257D01*
X027128Y014122D01*
X027055Y013945D01*
X027055Y013155D01*
X027128Y012978D01*
X027263Y012843D01*
X027440Y012770D01*
X027630Y012770D01*
X027807Y012843D01*
X027942Y012978D01*
X028015Y013155D01*
X028015Y013945D01*
X027942Y014122D01*
X027807Y014257D01*
X027630Y014330D01*
X027440Y014330D01*
X027712Y014296D02*
X028419Y014296D01*
X028427Y014299D02*
X028358Y014276D01*
X028294Y014243D01*
X028235Y014201D01*
X028184Y014150D01*
X028142Y014091D01*
X028109Y014027D01*
X028086Y013958D01*
X028075Y013886D01*
X028075Y013590D01*
X028495Y013590D01*
X028495Y014309D01*
X028427Y014299D01*
X028495Y014296D02*
X028575Y014296D01*
X028575Y014309D02*
X028575Y013590D01*
X028495Y013590D01*
X028495Y013510D01*
X028075Y013510D01*
X028075Y013214D01*
X028086Y013142D01*
X028109Y013073D01*
X028142Y013009D01*
X028184Y012950D01*
X028235Y012899D01*
X028294Y012857D01*
X028358Y012824D01*
X028427Y012801D01*
X028495Y012791D01*
X028495Y013510D01*
X028575Y013510D01*
X028575Y013590D01*
X028995Y013590D01*
X028995Y013886D01*
X028984Y013958D01*
X028961Y014027D01*
X028928Y014091D01*
X028886Y014150D01*
X028835Y014201D01*
X028776Y014243D01*
X028712Y014276D01*
X028643Y014299D01*
X028575Y014309D01*
X028651Y014296D02*
X034010Y014296D01*
X033939Y014178D02*
X030922Y014178D01*
X031045Y014126D02*
X030795Y014230D01*
X030525Y014230D01*
X030275Y014126D01*
X030084Y013935D01*
X029980Y013685D01*
X029980Y013415D01*
X030084Y013165D01*
X030275Y012974D01*
X030525Y012870D01*
X030795Y012870D01*
X031045Y012974D01*
X031236Y013165D01*
X031340Y013415D01*
X031340Y013685D01*
X031236Y013935D01*
X031045Y014126D01*
X031113Y014059D02*
X033902Y014059D01*
X033901Y013822D02*
X031283Y013822D01*
X031332Y013704D02*
X033938Y013704D01*
X034008Y013585D02*
X031340Y013585D01*
X031340Y013467D02*
X034128Y013467D01*
X034891Y013467D02*
X034929Y013467D01*
X034929Y013350D02*
X035386Y013350D01*
X035478Y013364D01*
X035566Y013393D01*
X035649Y013435D01*
X035724Y013490D01*
X035790Y013555D01*
X035845Y013631D01*
X035887Y013713D01*
X035915Y013802D01*
X035930Y013893D01*
X035930Y013921D01*
X034929Y013921D01*
X034929Y013350D01*
X034929Y013585D02*
X034891Y013585D01*
X034891Y013704D02*
X034929Y013704D01*
X034929Y013822D02*
X034891Y013822D01*
X034891Y013941D02*
X031231Y013941D01*
X030398Y014178D02*
X028858Y014178D01*
X028945Y014059D02*
X030207Y014059D01*
X030089Y013941D02*
X028986Y013941D01*
X028995Y013822D02*
X030037Y013822D01*
X029988Y013704D02*
X028995Y013704D01*
X028575Y013704D02*
X028495Y013704D01*
X028495Y013822D02*
X028575Y013822D01*
X028575Y013941D02*
X028495Y013941D01*
X028495Y014059D02*
X028575Y014059D01*
X028575Y014178D02*
X028495Y014178D01*
X028212Y014178D02*
X027886Y014178D01*
X027968Y014059D02*
X028125Y014059D01*
X028084Y013941D02*
X028015Y013941D01*
X028015Y013822D02*
X028075Y013822D01*
X028075Y013704D02*
X028015Y013704D01*
X028015Y013585D02*
X028495Y013585D01*
X028575Y013585D02*
X029980Y013585D01*
X029980Y013467D02*
X028995Y013467D01*
X028995Y013510D02*
X028575Y013510D01*
X028575Y012791D01*
X028643Y012801D01*
X028712Y012824D01*
X028776Y012857D01*
X028835Y012899D01*
X028886Y012950D01*
X028928Y013009D01*
X028961Y013073D01*
X028984Y013142D01*
X028995Y013214D01*
X028995Y013510D01*
X028995Y013348D02*
X030008Y013348D01*
X030057Y013230D02*
X028995Y013230D01*
X028974Y013111D02*
X030137Y013111D01*
X030256Y012993D02*
X028917Y012993D01*
X028800Y012874D02*
X030515Y012874D01*
X030805Y012874D02*
X033260Y012874D01*
X033379Y012993D02*
X031064Y012993D01*
X031183Y013111D02*
X039100Y013111D01*
X039100Y012993D02*
X036385Y012993D01*
X036400Y012985D02*
X036318Y013027D01*
X036229Y013055D01*
X036138Y013070D01*
X036110Y013070D01*
X036110Y012069D01*
X036072Y012069D01*
X036072Y012031D01*
X035501Y012031D01*
X035501Y011574D01*
X035516Y011482D01*
X035544Y011394D01*
X035586Y011311D01*
X035641Y011236D01*
X035707Y011170D01*
X035782Y011115D01*
X035865Y011073D01*
X035953Y011045D01*
X036045Y011030D01*
X036072Y011030D01*
X036072Y012031D01*
X036110Y012031D01*
X036110Y011030D01*
X036138Y011030D01*
X036229Y011045D01*
X036318Y011073D01*
X036400Y011115D01*
X036475Y011170D01*
X036541Y011236D01*
X036596Y011311D01*
X036638Y011394D01*
X036667Y011482D01*
X036681Y011574D01*
X036681Y012031D01*
X036110Y012031D01*
X036110Y012069D01*
X036681Y012069D01*
X036681Y012526D01*
X036667Y012618D01*
X036638Y012706D01*
X036596Y012789D01*
X036541Y012864D01*
X036475Y012930D01*
X036400Y012985D01*
X036531Y012874D02*
X039100Y012874D01*
X039100Y012756D02*
X036613Y012756D01*
X036660Y012637D02*
X039100Y012637D01*
X039100Y012519D02*
X036681Y012519D01*
X036681Y012400D02*
X039100Y012400D01*
X039100Y012282D02*
X036681Y012282D01*
X036681Y012163D02*
X039100Y012163D01*
X039100Y012045D02*
X036110Y012045D01*
X036072Y012045D02*
X034339Y012045D01*
X034339Y012163D02*
X035501Y012163D01*
X035501Y012069D02*
X036072Y012069D01*
X036072Y013070D01*
X036045Y013070D01*
X035953Y013055D01*
X035865Y013027D01*
X035782Y012985D01*
X035707Y012930D01*
X035641Y012864D01*
X035586Y012789D01*
X035544Y012706D01*
X035516Y012618D01*
X035501Y012526D01*
X035501Y012069D01*
X035501Y011926D02*
X034339Y011926D01*
X034339Y011808D02*
X035501Y011808D01*
X035501Y011689D02*
X034339Y011689D01*
X034339Y011571D02*
X035502Y011571D01*
X035525Y011452D02*
X034320Y011452D01*
X034270Y011334D02*
X035575Y011334D01*
X035662Y011215D02*
X034187Y011215D01*
X034059Y011097D02*
X035819Y011097D01*
X036072Y011097D02*
X036110Y011097D01*
X036110Y011215D02*
X036072Y011215D01*
X036072Y011334D02*
X036110Y011334D01*
X036110Y011452D02*
X036072Y011452D01*
X036072Y011571D02*
X036110Y011571D01*
X036110Y011689D02*
X036072Y011689D01*
X036072Y011808D02*
X036110Y011808D01*
X036110Y011926D02*
X036072Y011926D01*
X036072Y012163D02*
X036110Y012163D01*
X036110Y012282D02*
X036072Y012282D01*
X036072Y012400D02*
X036110Y012400D01*
X036110Y012519D02*
X036072Y012519D01*
X036072Y012637D02*
X036110Y012637D01*
X036110Y012756D02*
X036072Y012756D01*
X036072Y012874D02*
X036110Y012874D01*
X036110Y012993D02*
X036072Y012993D01*
X035797Y012993D02*
X034079Y012993D01*
X034198Y012874D02*
X035651Y012874D01*
X035569Y012756D02*
X034275Y012756D01*
X034324Y012637D02*
X035522Y012637D01*
X035501Y012519D02*
X034339Y012519D01*
X034339Y012400D02*
X035501Y012400D01*
X035501Y012282D02*
X034339Y012282D01*
X036681Y011926D02*
X039100Y011926D01*
X039100Y011808D02*
X036681Y011808D01*
X036681Y011689D02*
X039100Y011689D01*
X039100Y011571D02*
X036681Y011571D01*
X036657Y011452D02*
X039100Y011452D01*
X039100Y011334D02*
X036607Y011334D01*
X036521Y011215D02*
X039100Y011215D01*
X039100Y011097D02*
X036363Y011097D01*
X035652Y010860D02*
X039100Y010860D01*
X039100Y010978D02*
X035410Y010978D01*
X035770Y010741D02*
X039100Y010741D01*
X039100Y010623D02*
X035866Y010623D01*
X035915Y010504D02*
X039100Y010504D01*
X039100Y010386D02*
X035964Y010386D01*
X035973Y010267D02*
X039100Y010267D01*
X039100Y010149D02*
X035973Y010149D01*
X035969Y010030D02*
X039100Y010030D01*
X039100Y009912D02*
X035920Y009912D01*
X035871Y009793D02*
X039100Y009793D01*
X039100Y009675D02*
X035783Y009675D01*
X035868Y009597D02*
X035733Y009462D01*
X035660Y009285D01*
X035660Y009095D01*
X035733Y008918D01*
X035868Y008783D01*
X036045Y008710D01*
X036835Y008710D01*
X037012Y008783D01*
X037147Y008918D01*
X037220Y009095D01*
X037220Y009285D01*
X037147Y009462D01*
X037012Y009597D01*
X036835Y009670D01*
X036045Y009670D01*
X035868Y009597D01*
X035827Y009556D02*
X035664Y009556D01*
X035723Y009438D02*
X035440Y009438D01*
X035674Y009319D02*
X034646Y009319D01*
X034660Y009201D02*
X035660Y009201D01*
X035665Y009082D02*
X034655Y009082D01*
X034606Y008964D02*
X035714Y008964D01*
X035806Y008845D02*
X034514Y008845D01*
X034315Y008727D02*
X036005Y008727D01*
X036875Y008727D02*
X037636Y008727D01*
X037636Y008845D02*
X037074Y008845D01*
X037166Y008964D02*
X037636Y008964D01*
X037636Y009082D02*
X037215Y009082D01*
X037220Y009201D02*
X037681Y009201D01*
X037206Y009319D02*
X039100Y009319D01*
X039100Y009201D02*
X038545Y009201D01*
X038590Y009082D02*
X039100Y009082D01*
X039100Y008964D02*
X038590Y008964D01*
X038590Y008845D02*
X039100Y008845D01*
X039100Y008727D02*
X038590Y008727D01*
X038590Y008608D02*
X039100Y008608D01*
X039100Y008490D02*
X038590Y008490D01*
X038548Y008371D02*
X039100Y008371D01*
X039100Y008253D02*
X038447Y008253D01*
X038565Y008134D02*
X039100Y008134D01*
X039100Y008016D02*
X038570Y008016D01*
X038570Y007897D02*
X039100Y007897D01*
X039100Y007779D02*
X038151Y007779D01*
X038151Y007762D02*
X038570Y007762D01*
X038570Y007482D01*
X038559Y007441D01*
X038538Y007405D01*
X038508Y007375D01*
X038471Y007354D01*
X038431Y007343D01*
X038151Y007343D01*
X038151Y007762D01*
X038074Y007779D02*
X037015Y007779D01*
X037040Y007761D02*
X036981Y007803D01*
X036917Y007836D01*
X036848Y007859D01*
X036776Y007870D01*
X036480Y007870D01*
X036480Y007450D01*
X036400Y007450D01*
X036400Y007870D01*
X036104Y007870D01*
X036032Y007859D01*
X035963Y007836D01*
X035899Y007803D01*
X035840Y007761D01*
X035789Y007710D01*
X035747Y007651D01*
X035714Y007587D01*
X035691Y007518D01*
X035681Y007450D01*
X036400Y007450D01*
X036400Y007370D01*
X036480Y007370D01*
X036480Y007450D01*
X037199Y007450D01*
X037189Y007518D01*
X037166Y007587D01*
X037133Y007651D01*
X037091Y007710D01*
X037040Y007761D01*
X037127Y007660D02*
X037656Y007660D01*
X037656Y007542D02*
X037181Y007542D01*
X037199Y007370D02*
X036480Y007370D01*
X036480Y006950D01*
X036776Y006950D01*
X036848Y006961D01*
X036917Y006984D01*
X036981Y007017D01*
X037040Y007059D01*
X037091Y007110D01*
X037133Y007169D01*
X037166Y007233D01*
X037189Y007302D01*
X037199Y007370D01*
X037189Y007305D02*
X039100Y007305D01*
X039100Y007423D02*
X038548Y007423D01*
X038570Y007542D02*
X039100Y007542D01*
X039100Y007660D02*
X038570Y007660D01*
X038151Y007660D02*
X038074Y007660D01*
X038074Y007542D02*
X038151Y007542D01*
X038151Y007423D02*
X038074Y007423D01*
X037741Y007293D02*
X037636Y007187D01*
X037636Y006444D01*
X037741Y006339D01*
X038484Y006339D01*
X038590Y006444D01*
X038590Y007187D01*
X038484Y007293D01*
X037741Y007293D01*
X037677Y007423D02*
X036480Y007423D01*
X036400Y007423D02*
X033920Y007423D01*
X033920Y007450D02*
X034639Y007450D01*
X034629Y007518D01*
X034606Y007587D01*
X034573Y007651D01*
X034531Y007710D01*
X034480Y007761D01*
X034421Y007803D01*
X034357Y007836D01*
X034288Y007859D01*
X034216Y007870D01*
X033920Y007870D01*
X033920Y007450D01*
X033920Y007370D02*
X034639Y007370D01*
X034629Y007302D01*
X034606Y007233D01*
X034573Y007169D01*
X034531Y007110D01*
X034480Y007059D01*
X034421Y007017D01*
X034357Y006984D01*
X034288Y006961D01*
X034216Y006950D01*
X033920Y006950D01*
X033920Y007370D01*
X033920Y007305D02*
X033840Y007305D01*
X033840Y007423D02*
X031152Y007423D01*
X031169Y007590D02*
X030450Y007590D01*
X030450Y008010D01*
X030746Y008010D01*
X030818Y007999D01*
X030887Y007976D01*
X030951Y007943D01*
X031010Y007901D01*
X031061Y007850D01*
X031103Y007791D01*
X031136Y007727D01*
X031159Y007658D01*
X031169Y007590D01*
X031158Y007660D02*
X033193Y007660D01*
X033139Y007542D02*
X030450Y007542D01*
X030450Y007660D02*
X030370Y007660D01*
X030370Y007779D02*
X030450Y007779D01*
X030450Y007897D02*
X030370Y007897D01*
X031014Y007897D02*
X037656Y007897D01*
X038074Y007897D02*
X038151Y007897D01*
X038151Y008016D02*
X038074Y008016D01*
X038074Y008134D02*
X038151Y008134D01*
X038151Y008253D02*
X038074Y008253D01*
X036480Y007779D02*
X036400Y007779D01*
X036400Y007660D02*
X036480Y007660D01*
X036480Y007542D02*
X036400Y007542D01*
X036400Y007370D02*
X035681Y007370D01*
X035691Y007302D01*
X035714Y007233D01*
X035747Y007169D01*
X035789Y007110D01*
X035840Y007059D01*
X035899Y007017D01*
X035963Y006984D01*
X036032Y006961D01*
X036104Y006950D01*
X036400Y006950D01*
X036400Y007370D01*
X036400Y007305D02*
X036480Y007305D01*
X036480Y007186D02*
X036400Y007186D01*
X036400Y007068D02*
X036480Y007068D01*
X037048Y007068D02*
X037636Y007068D01*
X037636Y007186D02*
X037142Y007186D01*
X037636Y006712D02*
X032861Y006712D01*
X032861Y006594D02*
X033305Y006594D01*
X033186Y006475D02*
X032855Y006475D01*
X033129Y006357D02*
X031149Y006357D01*
X031077Y006238D02*
X033100Y006238D01*
X033100Y006120D02*
X030925Y006120D01*
X030875Y006001D02*
X033139Y006001D01*
X033209Y005883D02*
X031056Y005883D01*
X031141Y005764D02*
X033354Y005764D01*
X034347Y005527D02*
X031190Y005527D01*
X031190Y005646D02*
X034382Y005646D01*
X034406Y005764D02*
X034431Y005764D01*
X034347Y005409D02*
X031171Y005409D01*
X031122Y005290D02*
X034347Y005290D01*
X034374Y005172D02*
X031010Y005172D01*
X029810Y005172D02*
X020834Y005172D01*
X018619Y004224D02*
X017670Y004224D01*
X017670Y004105D02*
X018737Y004105D01*
X018856Y003987D02*
X017665Y003987D01*
X017596Y003868D02*
X018974Y003868D01*
X019093Y003750D02*
X017477Y003750D01*
X017359Y003631D02*
X019211Y003631D01*
X019330Y003513D02*
X017240Y003513D01*
X017170Y003394D02*
X019448Y003394D01*
X019567Y003276D02*
X017170Y003276D01*
X015601Y002920D02*
X015219Y002920D01*
X015170Y003039D02*
X015554Y003039D01*
X015435Y003157D02*
X015147Y003157D01*
X015052Y003276D02*
X015317Y003276D01*
X015198Y003394D02*
X014934Y003394D01*
X014815Y003513D02*
X015080Y003513D01*
X014961Y003631D02*
X014697Y003631D01*
X014578Y003750D02*
X014843Y003750D01*
X014317Y003276D02*
X011045Y003276D01*
X011147Y003157D02*
X014435Y003157D01*
X014554Y003039D02*
X011170Y003039D01*
X011219Y002920D02*
X011601Y002920D01*
X011711Y003030D02*
X011430Y002749D01*
X011430Y002351D01*
X011711Y002070D01*
X012109Y002070D01*
X012390Y002351D01*
X012390Y002749D01*
X012109Y003030D01*
X011711Y003030D01*
X012219Y002920D02*
X012601Y002920D01*
X012711Y003030D02*
X012430Y002749D01*
X012430Y002351D01*
X012711Y002070D01*
X013109Y002070D01*
X013390Y002351D01*
X013390Y002749D01*
X013109Y003030D01*
X012711Y003030D01*
X013219Y002920D02*
X013601Y002920D01*
X013711Y003030D02*
X013430Y002749D01*
X013430Y002351D01*
X013711Y002070D01*
X014109Y002070D01*
X014390Y002351D01*
X014390Y002749D01*
X014109Y003030D01*
X013711Y003030D01*
X014219Y002920D02*
X014601Y002920D01*
X014483Y002802D02*
X014337Y002802D01*
X014390Y002683D02*
X014430Y002683D01*
X014430Y002565D02*
X014390Y002565D01*
X014390Y002446D02*
X014430Y002446D01*
X014454Y002328D02*
X014366Y002328D01*
X014248Y002209D02*
X014572Y002209D01*
X014691Y002091D02*
X014129Y002091D01*
X014101Y002010D02*
X013950Y002010D01*
X013950Y001590D01*
X014370Y001590D01*
X014370Y001741D01*
X014101Y002010D01*
X014139Y001972D02*
X014681Y001972D01*
X014719Y002010D02*
X014450Y001741D01*
X014450Y001590D01*
X014870Y001590D01*
X014870Y002010D01*
X014719Y002010D01*
X014870Y001972D02*
X014950Y001972D01*
X014950Y002010D02*
X015101Y002010D01*
X015370Y001741D01*
X015370Y001590D01*
X014950Y001590D01*
X014950Y001510D01*
X015370Y001510D01*
X015370Y001359D01*
X015101Y001090D01*
X014950Y001090D01*
X014950Y001510D01*
X014870Y001510D01*
X014870Y001090D01*
X014719Y001090D01*
X014450Y001359D01*
X014450Y001510D01*
X014870Y001510D01*
X014870Y001590D01*
X014950Y001590D01*
X014950Y002010D01*
X014950Y001854D02*
X014870Y001854D01*
X014870Y001735D02*
X014950Y001735D01*
X014950Y001617D02*
X014870Y001617D01*
X014870Y001498D02*
X014950Y001498D01*
X014950Y001380D02*
X014870Y001380D01*
X014870Y001261D02*
X014950Y001261D01*
X014950Y001143D02*
X014870Y001143D01*
X014667Y001143D02*
X014153Y001143D01*
X014101Y001090D02*
X014370Y001359D01*
X014370Y001510D01*
X013950Y001510D01*
X013950Y001590D01*
X013870Y001590D01*
X013870Y002010D01*
X013719Y002010D01*
X013450Y001741D01*
X013450Y001590D01*
X013870Y001590D01*
X013870Y001510D01*
X013950Y001510D01*
X013950Y001090D01*
X014101Y001090D01*
X013950Y001143D02*
X013870Y001143D01*
X013870Y001090D02*
X013870Y001510D01*
X013450Y001510D01*
X013450Y001359D01*
X013719Y001090D01*
X013870Y001090D01*
X013870Y001261D02*
X013950Y001261D01*
X013950Y001380D02*
X013870Y001380D01*
X013870Y001498D02*
X013950Y001498D01*
X013950Y001617D02*
X013870Y001617D01*
X013870Y001735D02*
X013950Y001735D01*
X013950Y001854D02*
X013870Y001854D01*
X013870Y001972D02*
X013950Y001972D01*
X013681Y001972D02*
X013139Y001972D01*
X013101Y002010D02*
X012950Y002010D01*
X012950Y001590D01*
X013370Y001590D01*
X013370Y001741D01*
X013101Y002010D01*
X013129Y002091D02*
X013691Y002091D01*
X013572Y002209D02*
X013248Y002209D01*
X013366Y002328D02*
X013454Y002328D01*
X013430Y002446D02*
X013390Y002446D01*
X013390Y002565D02*
X013430Y002565D01*
X013430Y002683D02*
X013390Y002683D01*
X013337Y002802D02*
X013483Y002802D01*
X012483Y002802D02*
X012337Y002802D01*
X012390Y002683D02*
X012430Y002683D01*
X012430Y002565D02*
X012390Y002565D01*
X012390Y002446D02*
X012430Y002446D01*
X012454Y002328D02*
X012366Y002328D01*
X012248Y002209D02*
X012572Y002209D01*
X012691Y002091D02*
X012129Y002091D01*
X012101Y002010D02*
X011950Y002010D01*
X011950Y001590D01*
X012370Y001590D01*
X012370Y001741D01*
X012101Y002010D01*
X012139Y001972D02*
X012681Y001972D01*
X012719Y002010D02*
X012450Y001741D01*
X012450Y001590D01*
X012870Y001590D01*
X012870Y002010D01*
X012719Y002010D01*
X012870Y001972D02*
X012950Y001972D01*
X012950Y001854D02*
X012870Y001854D01*
X012870Y001735D02*
X012950Y001735D01*
X012950Y001617D02*
X012870Y001617D01*
X012870Y001590D02*
X012950Y001590D01*
X012950Y001510D01*
X013370Y001510D01*
X013370Y001359D01*
X013101Y001090D01*
X012950Y001090D01*
X012950Y001510D01*
X012870Y001510D01*
X012870Y001090D01*
X012719Y001090D01*
X012450Y001359D01*
X012450Y001510D01*
X012870Y001510D01*
X012870Y001590D01*
X012870Y001498D02*
X012950Y001498D01*
X012950Y001380D02*
X012870Y001380D01*
X012870Y001261D02*
X012950Y001261D01*
X012950Y001143D02*
X012870Y001143D01*
X012667Y001143D02*
X012153Y001143D01*
X012101Y001090D02*
X012370Y001359D01*
X012370Y001510D01*
X011950Y001510D01*
X011950Y001590D01*
X011870Y001590D01*
X011870Y002010D01*
X011719Y002010D01*
X011450Y001741D01*
X011450Y001590D01*
X011870Y001590D01*
X011870Y001510D01*
X011950Y001510D01*
X011950Y001090D01*
X012101Y001090D01*
X011950Y001143D02*
X011870Y001143D01*
X011870Y001090D02*
X011870Y001510D01*
X011450Y001510D01*
X011450Y001359D01*
X011719Y001090D01*
X011870Y001090D01*
X011870Y001261D02*
X011950Y001261D01*
X011950Y001380D02*
X011870Y001380D01*
X011870Y001498D02*
X011950Y001498D01*
X011950Y001617D02*
X011870Y001617D01*
X011870Y001735D02*
X011950Y001735D01*
X011950Y001854D02*
X011870Y001854D01*
X011870Y001972D02*
X011950Y001972D01*
X011681Y001972D02*
X011139Y001972D01*
X011101Y002010D02*
X010950Y002010D01*
X010950Y001590D01*
X011370Y001590D01*
X011370Y001741D01*
X011101Y002010D01*
X011129Y002091D02*
X011691Y002091D01*
X011572Y002209D02*
X011248Y002209D01*
X011366Y002328D02*
X011454Y002328D01*
X011430Y002446D02*
X011390Y002446D01*
X011390Y002565D02*
X011430Y002565D01*
X011430Y002683D02*
X011390Y002683D01*
X011337Y002802D02*
X011483Y002802D01*
X010430Y002683D02*
X010390Y002683D01*
X010390Y002565D02*
X010430Y002565D01*
X010430Y002446D02*
X010390Y002446D01*
X010366Y002328D02*
X010454Y002328D01*
X010572Y002209D02*
X010248Y002209D01*
X010129Y002091D02*
X010691Y002091D01*
X010719Y002010D02*
X010450Y001741D01*
X010450Y001590D01*
X010870Y001590D01*
X010870Y002010D01*
X010719Y002010D01*
X010681Y001972D02*
X010139Y001972D01*
X010101Y002010D02*
X009950Y002010D01*
X009950Y001590D01*
X010370Y001590D01*
X010370Y001741D01*
X010101Y002010D01*
X009950Y001972D02*
X009870Y001972D01*
X009870Y002010D02*
X009719Y002010D01*
X009450Y001741D01*
X009450Y001590D01*
X009870Y001590D01*
X009870Y002010D01*
X009870Y001854D02*
X009950Y001854D01*
X009950Y001735D02*
X009870Y001735D01*
X009870Y001617D02*
X009950Y001617D01*
X009950Y001590D02*
X009870Y001590D01*
X009870Y001510D01*
X009950Y001510D01*
X009950Y001590D01*
X009950Y001510D02*
X010370Y001510D01*
X010370Y001359D01*
X010101Y001090D01*
X009950Y001090D01*
X009950Y001510D01*
X009950Y001498D02*
X009870Y001498D01*
X009870Y001510D02*
X009870Y001090D01*
X009719Y001090D01*
X009450Y001359D01*
X009450Y001510D01*
X009870Y001510D01*
X009870Y001380D02*
X009950Y001380D01*
X009950Y001261D02*
X009870Y001261D01*
X009870Y001143D02*
X009950Y001143D01*
X010153Y001143D02*
X010667Y001143D01*
X010719Y001090D02*
X010870Y001090D01*
X010870Y001510D01*
X010950Y001510D01*
X010950Y001590D01*
X010870Y001590D01*
X010870Y001510D01*
X010450Y001510D01*
X010450Y001359D01*
X010719Y001090D01*
X010870Y001143D02*
X010950Y001143D01*
X010950Y001090D02*
X011101Y001090D01*
X011370Y001359D01*
X011370Y001510D01*
X010950Y001510D01*
X010950Y001090D01*
X010950Y001261D02*
X010870Y001261D01*
X010870Y001380D02*
X010950Y001380D01*
X010950Y001498D02*
X010870Y001498D01*
X010870Y001617D02*
X010950Y001617D01*
X010950Y001735D02*
X010870Y001735D01*
X010870Y001854D02*
X010950Y001854D01*
X010950Y001972D02*
X010870Y001972D01*
X010563Y001854D02*
X010257Y001854D01*
X010370Y001735D02*
X010450Y001735D01*
X010450Y001617D02*
X010370Y001617D01*
X010370Y001498D02*
X010450Y001498D01*
X010450Y001380D02*
X010370Y001380D01*
X010272Y001261D02*
X010548Y001261D01*
X011153Y001143D02*
X011667Y001143D01*
X011548Y001261D02*
X011272Y001261D01*
X011370Y001380D02*
X011450Y001380D01*
X011450Y001498D02*
X011370Y001498D01*
X011370Y001617D02*
X011450Y001617D01*
X011450Y001735D02*
X011370Y001735D01*
X011257Y001854D02*
X011563Y001854D01*
X012257Y001854D02*
X012563Y001854D01*
X012450Y001735D02*
X012370Y001735D01*
X012370Y001617D02*
X012450Y001617D01*
X012450Y001498D02*
X012370Y001498D01*
X012370Y001380D02*
X012450Y001380D01*
X012548Y001261D02*
X012272Y001261D01*
X013153Y001143D02*
X013667Y001143D01*
X013548Y001261D02*
X013272Y001261D01*
X013370Y001380D02*
X013450Y001380D01*
X013450Y001498D02*
X013370Y001498D01*
X013370Y001617D02*
X013450Y001617D01*
X013450Y001735D02*
X013370Y001735D01*
X013257Y001854D02*
X013563Y001854D01*
X014257Y001854D02*
X014563Y001854D01*
X014450Y001735D02*
X014370Y001735D01*
X014370Y001617D02*
X014450Y001617D01*
X014450Y001498D02*
X014370Y001498D01*
X014370Y001380D02*
X014450Y001380D01*
X014548Y001261D02*
X014272Y001261D01*
X015153Y001143D02*
X015667Y001143D01*
X015719Y001090D02*
X015870Y001090D01*
X015870Y001510D01*
X015950Y001510D01*
X015950Y001590D01*
X015870Y001590D01*
X015870Y002010D01*
X015719Y002010D01*
X015450Y001741D01*
X015450Y001590D01*
X015870Y001590D01*
X015870Y001510D01*
X015450Y001510D01*
X015450Y001359D01*
X015719Y001090D01*
X015870Y001143D02*
X015950Y001143D01*
X015950Y001090D02*
X016101Y001090D01*
X016370Y001359D01*
X016370Y001510D01*
X015950Y001510D01*
X015950Y001090D01*
X015950Y001261D02*
X015870Y001261D01*
X015870Y001380D02*
X015950Y001380D01*
X015950Y001498D02*
X015870Y001498D01*
X015870Y001617D02*
X015950Y001617D01*
X015950Y001735D02*
X015870Y001735D01*
X015870Y001854D02*
X015950Y001854D01*
X015950Y001972D02*
X015870Y001972D01*
X015681Y001972D02*
X015139Y001972D01*
X015129Y002091D02*
X015691Y002091D01*
X015572Y002209D02*
X015248Y002209D01*
X015366Y002328D02*
X015454Y002328D01*
X015430Y002446D02*
X015390Y002446D01*
X015390Y002565D02*
X015430Y002565D01*
X015430Y002683D02*
X015390Y002683D01*
X015337Y002802D02*
X015483Y002802D01*
X013698Y003394D02*
X010434Y003394D01*
X010315Y003513D02*
X013580Y003513D01*
X013461Y003631D02*
X010197Y003631D01*
X010078Y003750D02*
X010704Y003750D01*
X010598Y003868D02*
X009960Y003868D01*
X009841Y003987D02*
X010552Y003987D01*
X010552Y004105D02*
X009723Y004105D01*
X009670Y004224D02*
X010594Y004224D01*
X010696Y004342D02*
X009670Y004342D01*
X009670Y004461D02*
X010825Y004461D01*
X010884Y004579D02*
X009670Y004579D01*
X009670Y004698D02*
X010943Y004698D01*
X011002Y004816D02*
X009670Y004816D01*
X009670Y004935D02*
X011062Y004935D01*
X011121Y005053D02*
X009781Y005053D01*
X009899Y005172D02*
X011180Y005172D01*
X011239Y005290D02*
X010018Y005290D01*
X010136Y005409D02*
X011299Y005409D01*
X011358Y005527D02*
X010255Y005527D01*
X010373Y005646D02*
X011417Y005646D01*
X011476Y005764D02*
X010492Y005764D01*
X010610Y005883D02*
X011536Y005883D01*
X011595Y006001D02*
X010729Y006001D01*
X010847Y006120D02*
X011654Y006120D01*
X011713Y006238D02*
X010966Y006238D01*
X011084Y006357D02*
X011773Y006357D01*
X011832Y006475D02*
X011203Y006475D01*
X011321Y006594D02*
X011891Y006594D01*
X011900Y006712D02*
X011440Y006712D01*
X011558Y006831D02*
X011900Y006831D01*
X011900Y006949D02*
X011677Y006949D01*
X011795Y007068D02*
X011900Y007068D01*
X012420Y007068D02*
X012650Y007068D01*
X012650Y007186D02*
X012420Y007186D01*
X012532Y007305D02*
X012650Y007305D01*
X012650Y006949D02*
X012420Y006949D01*
X012420Y006831D02*
X012650Y006831D01*
X012650Y006712D02*
X012420Y006712D01*
X012420Y006594D02*
X012650Y006594D01*
X012650Y006475D02*
X012413Y006475D01*
X012354Y006357D02*
X012650Y006357D01*
X012650Y006238D02*
X012295Y006238D01*
X012235Y006120D02*
X012650Y006120D01*
X012650Y006001D02*
X012176Y006001D01*
X012117Y005883D02*
X012650Y005883D01*
X012650Y005764D02*
X012058Y005764D01*
X011998Y005646D02*
X012650Y005646D01*
X012650Y005527D02*
X011939Y005527D01*
X011880Y005409D02*
X012650Y005409D01*
X012650Y005290D02*
X011821Y005290D01*
X011761Y005172D02*
X012650Y005172D01*
X012650Y005053D02*
X011702Y005053D01*
X011643Y004935D02*
X012650Y004935D01*
X012650Y004816D02*
X011584Y004816D01*
X011524Y004698D02*
X012650Y004698D01*
X012650Y004579D02*
X011465Y004579D01*
X011406Y004461D02*
X012666Y004461D01*
X012750Y004342D02*
X011347Y004342D01*
X011287Y004224D02*
X012869Y004224D01*
X012987Y004105D02*
X011268Y004105D01*
X011268Y003987D02*
X013106Y003987D01*
X013224Y003868D02*
X011222Y003868D01*
X011116Y003750D02*
X013343Y003750D01*
X014384Y004342D02*
X016436Y004342D01*
X016096Y004461D02*
X015976Y004461D01*
X015976Y004345D02*
X015759Y004345D01*
X015718Y004356D01*
X015682Y004377D01*
X015652Y004406D01*
X015631Y004443D01*
X015620Y004484D01*
X015620Y004740D01*
X015976Y004740D01*
X015976Y004345D01*
X015976Y004579D02*
X016096Y004579D01*
X016096Y004698D02*
X015976Y004698D01*
X015976Y004816D02*
X014844Y004816D01*
X014844Y004860D02*
X015200Y004860D01*
X015200Y005116D01*
X015189Y005157D01*
X015168Y005194D01*
X015138Y005223D01*
X015102Y005244D01*
X015061Y005255D01*
X014844Y005255D01*
X014844Y004860D01*
X014844Y004935D02*
X014724Y004935D01*
X014724Y005053D02*
X014844Y005053D01*
X014844Y005172D02*
X014724Y005172D01*
X014686Y005290D02*
X016134Y005290D01*
X016096Y005172D02*
X015976Y005172D01*
X015976Y005053D02*
X016096Y005053D01*
X016096Y004935D02*
X015976Y004935D01*
X015620Y004935D02*
X015200Y004935D01*
X015200Y005053D02*
X015620Y005053D01*
X015639Y005172D02*
X015181Y005172D01*
X014772Y005409D02*
X016048Y005409D01*
X016010Y005527D02*
X014810Y005527D01*
X014810Y005646D02*
X016010Y005646D01*
X016010Y005764D02*
X014810Y005764D01*
X014904Y005883D02*
X015960Y005883D01*
X015841Y006001D02*
X015042Y006001D01*
X015180Y006120D02*
X015723Y006120D01*
X015604Y006238D02*
X015317Y006238D01*
X015459Y006357D02*
X015486Y006357D01*
X015048Y006692D02*
X014648Y006348D01*
X014637Y006359D01*
X014490Y006420D01*
X014330Y006420D01*
X014183Y006359D01*
X014071Y006247D01*
X014010Y006100D01*
X014010Y005768D01*
X013940Y005697D01*
X013900Y005602D01*
X013900Y005275D01*
X013706Y005275D01*
X013670Y005240D01*
X013670Y007442D01*
X014018Y007790D01*
X014374Y007790D01*
X014470Y007830D01*
X014798Y008158D01*
X015018Y008158D01*
X015018Y007535D01*
X015048Y007505D01*
X015048Y006692D01*
X015048Y006712D02*
X013670Y006712D01*
X013670Y006594D02*
X014933Y006594D01*
X014796Y006475D02*
X013670Y006475D01*
X013670Y006357D02*
X014181Y006357D01*
X014067Y006238D02*
X013670Y006238D01*
X013670Y006120D02*
X014018Y006120D01*
X014010Y006001D02*
X013670Y006001D01*
X013670Y005883D02*
X014010Y005883D01*
X014006Y005764D02*
X013670Y005764D01*
X013670Y005646D02*
X013918Y005646D01*
X013900Y005527D02*
X013670Y005527D01*
X013670Y005409D02*
X013900Y005409D01*
X013900Y005290D02*
X013670Y005290D01*
X014724Y004698D02*
X014844Y004698D01*
X014844Y004579D02*
X014724Y004579D01*
X014724Y004461D02*
X014844Y004461D01*
X015194Y004461D02*
X015626Y004461D01*
X015620Y004579D02*
X015200Y004579D01*
X015200Y004698D02*
X015620Y004698D01*
X014658Y006357D02*
X014639Y006357D01*
X015048Y006831D02*
X013670Y006831D01*
X013670Y006949D02*
X015048Y006949D01*
X015048Y007068D02*
X013670Y007068D01*
X013670Y007186D02*
X015048Y007186D01*
X015048Y007305D02*
X013670Y007305D01*
X013670Y007423D02*
X015048Y007423D01*
X015018Y007542D02*
X013769Y007542D01*
X013888Y007660D02*
X015018Y007660D01*
X015018Y007779D02*
X014006Y007779D01*
X014537Y007897D02*
X015018Y007897D01*
X015018Y008016D02*
X014656Y008016D01*
X014774Y008134D02*
X015018Y008134D01*
X016882Y008134D02*
X016882Y008134D01*
X016882Y008016D02*
X016882Y008016D01*
X016882Y007897D02*
X016882Y007897D01*
X016882Y007779D02*
X016882Y007779D01*
X016882Y007660D02*
X016882Y007660D01*
X016882Y007542D02*
X016882Y007542D01*
X016882Y008253D02*
X016882Y008253D01*
X012785Y009793D02*
X012170Y009793D01*
X012170Y009675D02*
X012667Y009675D01*
X012552Y009560D02*
X012170Y009560D01*
X012170Y010561D01*
X012218Y010513D01*
X012343Y010462D01*
X012477Y010462D01*
X012602Y010513D01*
X012629Y010540D01*
X013560Y010540D01*
X013513Y010520D01*
X013440Y010447D01*
X012552Y009560D01*
X012904Y009912D02*
X012170Y009912D01*
X012170Y010030D02*
X013022Y010030D01*
X013141Y010149D02*
X012170Y010149D01*
X012170Y010267D02*
X013259Y010267D01*
X013378Y010386D02*
X012170Y010386D01*
X012170Y010504D02*
X012240Y010504D01*
X012580Y010504D02*
X013496Y010504D01*
X012532Y009040D02*
X010165Y009040D01*
X010200Y009005D01*
X010200Y008595D01*
X010155Y008550D01*
X010200Y008505D01*
X010200Y008095D01*
X010155Y008050D01*
X010200Y008005D01*
X010200Y007595D01*
X010155Y007550D01*
X010200Y007505D01*
X010200Y007095D01*
X010140Y007036D01*
X010148Y007028D01*
X010169Y006992D01*
X010180Y006951D01*
X010180Y006805D01*
X009625Y006805D01*
X009625Y006795D01*
X010180Y006795D01*
X010180Y006688D01*
X012532Y009040D01*
X012456Y008964D02*
X010200Y008964D01*
X010200Y008845D02*
X012337Y008845D01*
X012219Y008727D02*
X010200Y008727D01*
X010200Y008608D02*
X012100Y008608D01*
X011982Y008490D02*
X010200Y008490D01*
X010200Y008371D02*
X011863Y008371D01*
X011745Y008253D02*
X010200Y008253D01*
X010200Y008134D02*
X011626Y008134D01*
X011508Y008016D02*
X010189Y008016D01*
X010200Y007897D02*
X011389Y007897D01*
X011271Y007779D02*
X010200Y007779D01*
X010200Y007660D02*
X011152Y007660D01*
X011034Y007542D02*
X010163Y007542D01*
X010200Y007423D02*
X010915Y007423D01*
X010797Y007305D02*
X010200Y007305D01*
X010200Y007186D02*
X010678Y007186D01*
X010560Y007068D02*
X010172Y007068D01*
X010180Y006949D02*
X010441Y006949D01*
X010323Y006831D02*
X010180Y006831D01*
X010180Y006712D02*
X010204Y006712D01*
X009625Y006712D02*
X009615Y006712D01*
X009615Y006795D02*
X009625Y006795D01*
X009625Y006510D01*
X010002Y006510D01*
X009802Y006310D01*
X008670Y006310D01*
X008670Y007602D01*
X008630Y007697D01*
X008557Y007770D01*
X008307Y008020D01*
X008212Y008060D01*
X007745Y008060D01*
X007780Y008095D01*
X007780Y008505D01*
X007735Y008550D01*
X007780Y008595D01*
X007780Y009005D01*
X007745Y009040D01*
X008212Y009040D01*
X008307Y009080D01*
X008557Y009330D01*
X008612Y009385D01*
X008623Y009358D01*
X008718Y009263D01*
X008843Y009212D01*
X008977Y009212D01*
X009040Y009238D01*
X009040Y009095D01*
X009085Y009050D01*
X009040Y009005D01*
X009040Y008595D01*
X009085Y008550D01*
X009040Y008505D01*
X009040Y008095D01*
X009085Y008050D01*
X009040Y008005D01*
X009040Y007595D01*
X009085Y007550D01*
X009040Y007505D01*
X009040Y007095D01*
X009100Y007036D01*
X009092Y007028D01*
X009071Y006992D01*
X009060Y006951D01*
X009060Y006805D01*
X009615Y006805D01*
X009615Y006795D01*
X009615Y006510D01*
X009199Y006510D01*
X009158Y006521D01*
X009122Y006542D01*
X009092Y006572D01*
X009071Y006608D01*
X009060Y006649D01*
X009060Y006795D01*
X009615Y006795D01*
X009615Y006594D02*
X009625Y006594D01*
X009967Y006475D02*
X008670Y006475D01*
X008670Y006357D02*
X009849Y006357D01*
X009079Y006594D02*
X008670Y006594D01*
X008670Y006712D02*
X009060Y006712D01*
X009060Y006831D02*
X008670Y006831D01*
X008670Y006949D02*
X009060Y006949D01*
X009068Y007068D02*
X008670Y007068D01*
X008670Y007186D02*
X009040Y007186D01*
X009040Y007305D02*
X008670Y007305D01*
X008670Y007423D02*
X009040Y007423D01*
X009077Y007542D02*
X008670Y007542D01*
X008646Y007660D02*
X009040Y007660D01*
X009040Y007779D02*
X008549Y007779D01*
X008431Y007897D02*
X009040Y007897D01*
X009051Y008016D02*
X008312Y008016D01*
X007780Y008134D02*
X009040Y008134D01*
X009040Y008253D02*
X007780Y008253D01*
X007780Y008371D02*
X009040Y008371D01*
X009040Y008490D02*
X007780Y008490D01*
X007780Y008608D02*
X009040Y008608D01*
X009040Y008727D02*
X007780Y008727D01*
X007780Y008845D02*
X009040Y008845D01*
X009040Y008964D02*
X007780Y008964D01*
X008310Y009082D02*
X009053Y009082D01*
X009040Y009201D02*
X008428Y009201D01*
X008547Y009319D02*
X008662Y009319D01*
X008150Y009675D02*
X007780Y009675D01*
X007780Y009793D02*
X008150Y009793D01*
X008150Y009912D02*
X007780Y009912D01*
X007755Y010030D02*
X008150Y010030D01*
X008150Y010149D02*
X007780Y010149D01*
X007780Y010267D02*
X008150Y010267D01*
X008150Y010386D02*
X007780Y010386D01*
X007780Y010504D02*
X008150Y010504D01*
X008150Y010623D02*
X000410Y010623D01*
X000410Y010741D02*
X008150Y010741D01*
X008150Y010860D02*
X000410Y010860D01*
X000410Y010978D02*
X008150Y010978D01*
X008150Y011097D02*
X000410Y011097D01*
X000410Y011215D02*
X008207Y011215D01*
X008326Y011334D02*
X000410Y011334D01*
X000410Y011452D02*
X008400Y011452D01*
X008920Y011808D02*
X008939Y011808D01*
X008920Y011926D02*
X011416Y011926D01*
X011298Y012045D02*
X008920Y012045D01*
X008947Y012163D02*
X009373Y012163D01*
X009254Y012282D02*
X009066Y012282D01*
X009137Y012400D02*
X009183Y012400D01*
X009183Y012519D02*
X009137Y012519D01*
X009137Y012637D02*
X009183Y012637D01*
X009191Y012756D02*
X009129Y012756D01*
X009010Y012874D02*
X009310Y012874D01*
X009428Y012993D02*
X008892Y012993D01*
X008867Y013111D02*
X009453Y013111D01*
X009471Y013093D02*
X009622Y013093D01*
X009622Y013512D01*
X009203Y013512D01*
X009203Y013361D01*
X009471Y013093D01*
X009622Y013111D02*
X009698Y013111D01*
X009698Y013093D02*
X009849Y013093D01*
X010117Y013361D01*
X010117Y013512D01*
X009698Y013512D01*
X009698Y013093D01*
X009698Y013230D02*
X009622Y013230D01*
X009622Y013348D02*
X009698Y013348D01*
X009698Y013467D02*
X009622Y013467D01*
X009698Y013585D02*
X010322Y013585D01*
X010328Y013467D02*
X010117Y013467D01*
X010104Y013348D02*
X010383Y013348D01*
X010516Y013230D02*
X009986Y013230D01*
X009867Y013111D02*
X010635Y013111D01*
X010753Y012993D02*
X009892Y012993D01*
X010010Y012874D02*
X010872Y012874D01*
X011061Y012282D02*
X010066Y012282D01*
X009947Y012163D02*
X011179Y012163D01*
X008698Y013111D02*
X008622Y013111D01*
X008622Y013230D02*
X008698Y013230D01*
X008698Y013348D02*
X008622Y013348D01*
X008622Y013467D02*
X008698Y013467D01*
X008986Y013230D02*
X009334Y013230D01*
X009216Y013348D02*
X009104Y013348D01*
X009117Y013467D02*
X009203Y013467D01*
X009203Y013704D02*
X009117Y013704D01*
X009034Y013822D02*
X009286Y013822D01*
X009404Y013941D02*
X008916Y013941D01*
X008698Y013941D02*
X008622Y013941D01*
X008622Y013822D02*
X008698Y013822D01*
X008698Y013704D02*
X008622Y013704D01*
X008404Y013941D02*
X007916Y013941D01*
X008034Y013822D02*
X008286Y013822D01*
X008203Y013704D02*
X008117Y013704D01*
X007698Y013704D02*
X007622Y013704D01*
X007622Y013822D02*
X007698Y013822D01*
X007698Y013941D02*
X007622Y013941D01*
X007404Y013941D02*
X006916Y013941D01*
X007034Y013822D02*
X007286Y013822D01*
X007203Y013704D02*
X007117Y013704D01*
X006698Y013704D02*
X006622Y013704D01*
X006622Y013822D02*
X006698Y013822D01*
X006698Y013941D02*
X006622Y013941D01*
X006404Y013941D02*
X005944Y013941D01*
X006062Y013822D02*
X006286Y013822D01*
X006203Y013704D02*
X006137Y013704D01*
X006622Y013467D02*
X006698Y013467D01*
X006698Y013348D02*
X006622Y013348D01*
X006622Y013230D02*
X006698Y013230D01*
X006698Y013111D02*
X006622Y013111D01*
X006867Y013111D02*
X007453Y013111D01*
X007462Y013027D02*
X007183Y012748D01*
X007183Y012352D01*
X007462Y012073D01*
X007858Y012073D01*
X008137Y012352D01*
X008137Y012748D01*
X007858Y013027D01*
X007462Y013027D01*
X007428Y012993D02*
X006892Y012993D01*
X007010Y012874D02*
X007310Y012874D01*
X007191Y012756D02*
X007129Y012756D01*
X007137Y012637D02*
X007183Y012637D01*
X007183Y012519D02*
X007137Y012519D01*
X007137Y012400D02*
X007183Y012400D01*
X007254Y012282D02*
X007066Y012282D01*
X006947Y012163D02*
X007373Y012163D01*
X007947Y012163D02*
X008373Y012163D01*
X008394Y012045D02*
X008400Y012045D01*
X008254Y012282D02*
X008066Y012282D01*
X008137Y012400D02*
X008183Y012400D01*
X008183Y012519D02*
X008137Y012519D01*
X008137Y012637D02*
X008183Y012637D01*
X008191Y012756D02*
X008129Y012756D01*
X008010Y012874D02*
X008310Y012874D01*
X008428Y012993D02*
X007892Y012993D01*
X007867Y013111D02*
X008453Y013111D01*
X008334Y013230D02*
X007986Y013230D01*
X008104Y013348D02*
X008216Y013348D01*
X008203Y013467D02*
X008117Y013467D01*
X007698Y013467D02*
X007622Y013467D01*
X007622Y013348D02*
X007698Y013348D01*
X007698Y013230D02*
X007622Y013230D01*
X007622Y013111D02*
X007698Y013111D01*
X007334Y013230D02*
X006986Y013230D01*
X007104Y013348D02*
X007216Y013348D01*
X007203Y013467D02*
X007117Y013467D01*
X010034Y013822D02*
X010453Y013822D01*
X010357Y013704D02*
X010117Y013704D01*
X005916Y011926D02*
X000410Y011926D01*
X000410Y011808D02*
X006035Y011808D01*
X006153Y011689D02*
X000410Y011689D01*
X000410Y011571D02*
X006285Y011571D01*
X006620Y010504D02*
X000410Y010504D01*
X000410Y010386D02*
X006620Y010386D01*
X006620Y010267D02*
X001337Y010267D01*
X001540Y010149D02*
X006620Y010149D01*
X006655Y009540D02*
X005420Y009540D01*
X005420Y008394D01*
X005447Y008367D01*
X005498Y008242D01*
X005498Y008108D01*
X005447Y007983D01*
X005390Y007927D01*
X005380Y007903D01*
X005307Y007830D01*
X005212Y007790D01*
X001690Y007790D01*
X001690Y007705D01*
X001617Y007528D01*
X001482Y007393D01*
X001305Y007320D01*
X000515Y007320D01*
X000410Y007363D01*
X000410Y007237D01*
X000515Y007280D01*
X001305Y007280D01*
X001482Y007207D01*
X001617Y007072D01*
X001690Y006895D01*
X001690Y006810D01*
X004671Y006810D01*
X004623Y006858D01*
X004572Y006983D01*
X004572Y007117D01*
X004623Y007242D01*
X004718Y007337D01*
X004843Y007388D01*
X004977Y007388D01*
X005102Y007337D01*
X005197Y007242D01*
X005235Y007149D01*
X005274Y007110D01*
X005780Y007110D01*
X005885Y007004D01*
X005885Y006344D01*
X005828Y006286D01*
X005833Y006280D01*
X005854Y006244D01*
X005865Y006203D01*
X005865Y005986D01*
X005470Y005986D01*
X005470Y005866D01*
X005865Y005866D01*
X005865Y005649D01*
X005854Y005608D01*
X005833Y005572D01*
X005804Y005542D01*
X005767Y005521D01*
X005726Y005510D01*
X005470Y005510D01*
X005470Y005866D01*
X005350Y005866D01*
X004955Y005866D01*
X004955Y005649D01*
X004966Y005608D01*
X004987Y005572D01*
X005016Y005542D01*
X005053Y005521D01*
X005094Y005510D01*
X005350Y005510D01*
X005350Y005866D01*
X005350Y005986D01*
X004955Y005986D01*
X004955Y006203D01*
X004966Y006244D01*
X004987Y006280D01*
X004992Y006286D01*
X004988Y006290D01*
X002334Y006290D01*
X002383Y006170D01*
X002383Y006028D01*
X002329Y005897D01*
X002228Y005796D01*
X002097Y005742D01*
X001955Y005742D01*
X001824Y005796D01*
X001723Y005897D01*
X001669Y006028D01*
X001669Y006170D01*
X001719Y006290D01*
X001108Y006290D01*
X001036Y006320D01*
X000515Y006320D01*
X000410Y006363D01*
X000410Y006237D01*
X000515Y006280D01*
X001305Y006280D01*
X001482Y006207D01*
X001617Y006072D01*
X001690Y005895D01*
X001690Y005705D01*
X001617Y005528D01*
X001482Y005393D01*
X001305Y005320D01*
X000515Y005320D01*
X000410Y005363D01*
X000410Y005237D01*
X000515Y005280D01*
X001305Y005280D01*
X001482Y005207D01*
X001617Y005072D01*
X001622Y005060D01*
X006302Y005060D01*
X006650Y005408D01*
X006650Y005790D01*
X006608Y005790D01*
X006513Y005830D01*
X006440Y005903D01*
X006190Y006153D01*
X006150Y006248D01*
X006150Y008352D01*
X006190Y008447D01*
X006263Y008520D01*
X006358Y008560D01*
X006655Y008560D01*
X006620Y008595D01*
X006620Y009005D01*
X006665Y009050D01*
X006620Y009095D01*
X006620Y009505D01*
X006655Y009540D01*
X006620Y009438D02*
X005420Y009438D01*
X005420Y009319D02*
X006620Y009319D01*
X006620Y009201D02*
X005420Y009201D01*
X005420Y009082D02*
X006633Y009082D01*
X006620Y008964D02*
X005420Y008964D01*
X005420Y008845D02*
X006620Y008845D01*
X006620Y008727D02*
X005420Y008727D01*
X005420Y008608D02*
X006620Y008608D01*
X006232Y008490D02*
X005420Y008490D01*
X005443Y008371D02*
X006158Y008371D01*
X006150Y008253D02*
X005494Y008253D01*
X005498Y008134D02*
X006150Y008134D01*
X006150Y008016D02*
X005460Y008016D01*
X005375Y007897D02*
X006150Y007897D01*
X006150Y007779D02*
X001690Y007779D01*
X001672Y007660D02*
X006150Y007660D01*
X006150Y007542D02*
X001622Y007542D01*
X001512Y007423D02*
X006150Y007423D01*
X006150Y007305D02*
X005134Y007305D01*
X005220Y007186D02*
X006150Y007186D01*
X006150Y007068D02*
X005822Y007068D01*
X005885Y006949D02*
X006150Y006949D01*
X006150Y006831D02*
X005885Y006831D01*
X005885Y006712D02*
X006150Y006712D01*
X006150Y006594D02*
X005885Y006594D01*
X005885Y006475D02*
X006150Y006475D01*
X006150Y006357D02*
X005885Y006357D01*
X005856Y006238D02*
X006154Y006238D01*
X006223Y006120D02*
X005865Y006120D01*
X005865Y006001D02*
X006341Y006001D01*
X006460Y005883D02*
X005470Y005883D01*
X005470Y005764D02*
X005350Y005764D01*
X005350Y005646D02*
X005470Y005646D01*
X005470Y005527D02*
X005350Y005527D01*
X005043Y005527D02*
X001616Y005527D01*
X001666Y005646D02*
X004956Y005646D01*
X004955Y005764D02*
X002150Y005764D01*
X002315Y005883D02*
X005350Y005883D01*
X004955Y006001D02*
X002372Y006001D01*
X002383Y006120D02*
X004955Y006120D01*
X004964Y006238D02*
X002355Y006238D01*
X001697Y006238D02*
X001407Y006238D01*
X001569Y006120D02*
X001669Y006120D01*
X001680Y006001D02*
X001646Y006001D01*
X001690Y005883D02*
X001738Y005883D01*
X001690Y005764D02*
X001902Y005764D01*
X001497Y005409D02*
X006650Y005409D01*
X006650Y005527D02*
X005777Y005527D01*
X005864Y005646D02*
X006650Y005646D01*
X006650Y005764D02*
X005865Y005764D01*
X006532Y005290D02*
X000410Y005290D01*
X001517Y005172D02*
X006414Y005172D01*
X006912Y004935D02*
X007150Y004935D01*
X007150Y005053D02*
X007031Y005053D01*
X007138Y005172D02*
X007150Y005172D01*
X007670Y005172D02*
X009179Y005172D01*
X009150Y005053D02*
X007670Y005053D01*
X007670Y004935D02*
X009150Y004935D01*
X009150Y004816D02*
X007670Y004816D01*
X007649Y004698D02*
X009150Y004698D01*
X009150Y004579D02*
X007557Y004579D01*
X007438Y004461D02*
X009150Y004461D01*
X009150Y004342D02*
X007320Y004342D01*
X007213Y004224D02*
X009150Y004224D01*
X009150Y004105D02*
X007152Y004105D01*
X006668Y004105D02*
X000410Y004105D01*
X000410Y003987D02*
X009155Y003987D01*
X009224Y003868D02*
X000410Y003868D01*
X000410Y003750D02*
X009343Y003750D01*
X009461Y003631D02*
X000410Y003631D01*
X000410Y003513D02*
X009580Y003513D01*
X009698Y003394D02*
X000410Y003394D01*
X000410Y003276D02*
X009817Y003276D01*
X009935Y003157D02*
X000410Y003157D01*
X000410Y003039D02*
X010054Y003039D01*
X009601Y002920D02*
X009219Y002920D01*
X009109Y003030D02*
X008711Y003030D01*
X008430Y002749D01*
X008430Y002351D01*
X008711Y002070D01*
X009109Y002070D01*
X009390Y002351D01*
X009390Y002749D01*
X009109Y003030D01*
X009337Y002802D02*
X009483Y002802D01*
X009430Y002683D02*
X009390Y002683D01*
X009390Y002565D02*
X009430Y002565D01*
X009430Y002446D02*
X009390Y002446D01*
X009366Y002328D02*
X009454Y002328D01*
X009572Y002209D02*
X009248Y002209D01*
X009129Y002091D02*
X009691Y002091D01*
X009681Y001972D02*
X009139Y001972D01*
X009101Y002010D02*
X008950Y002010D01*
X008950Y001590D01*
X009370Y001590D01*
X009370Y001741D01*
X009101Y002010D01*
X008950Y001972D02*
X008870Y001972D01*
X008870Y002010D02*
X008719Y002010D01*
X008450Y001741D01*
X008450Y001590D01*
X008870Y001590D01*
X008870Y002010D01*
X008870Y001854D02*
X008950Y001854D01*
X008950Y001735D02*
X008870Y001735D01*
X008870Y001617D02*
X008950Y001617D01*
X008950Y001590D02*
X008870Y001590D01*
X008870Y001510D01*
X008950Y001510D01*
X008950Y001590D01*
X008950Y001510D02*
X009370Y001510D01*
X009370Y001359D01*
X009101Y001090D01*
X008950Y001090D01*
X008950Y001510D01*
X008950Y001498D02*
X008870Y001498D01*
X008870Y001510D02*
X008870Y001090D01*
X008719Y001090D01*
X008450Y001359D01*
X008450Y001510D01*
X008870Y001510D01*
X008870Y001380D02*
X008950Y001380D01*
X008950Y001261D02*
X008870Y001261D01*
X008870Y001143D02*
X008950Y001143D01*
X009153Y001143D02*
X009667Y001143D01*
X009548Y001261D02*
X009272Y001261D01*
X009370Y001380D02*
X009450Y001380D01*
X009450Y001498D02*
X009370Y001498D01*
X009370Y001617D02*
X009450Y001617D01*
X009450Y001735D02*
X009370Y001735D01*
X009257Y001854D02*
X009563Y001854D01*
X008681Y001972D02*
X008139Y001972D01*
X008101Y002010D02*
X007950Y002010D01*
X007950Y001590D01*
X008370Y001590D01*
X008370Y001741D01*
X008101Y002010D01*
X008109Y002070D02*
X008390Y002351D01*
X008390Y002749D01*
X008109Y003030D01*
X007711Y003030D01*
X007430Y002749D01*
X007430Y002351D01*
X007711Y002070D01*
X008109Y002070D01*
X008129Y002091D02*
X008691Y002091D01*
X008572Y002209D02*
X008248Y002209D01*
X008366Y002328D02*
X008454Y002328D01*
X008430Y002446D02*
X008390Y002446D01*
X008390Y002565D02*
X008430Y002565D01*
X008430Y002683D02*
X008390Y002683D01*
X008337Y002802D02*
X008483Y002802D01*
X008601Y002920D02*
X008219Y002920D01*
X007601Y002920D02*
X000410Y002920D01*
X000410Y002802D02*
X007483Y002802D01*
X007430Y002683D02*
X000410Y002683D01*
X000410Y002565D02*
X007430Y002565D01*
X007430Y002446D02*
X000410Y002446D01*
X000410Y002328D02*
X007454Y002328D01*
X007572Y002209D02*
X001346Y002209D01*
X001295Y002230D02*
X001545Y002126D01*
X001736Y001935D01*
X001840Y001685D01*
X001840Y001415D01*
X001736Y001165D01*
X001545Y000974D01*
X001295Y000870D01*
X001025Y000870D01*
X000775Y000974D01*
X000584Y001165D01*
X000480Y001415D01*
X000480Y001685D01*
X000584Y001935D01*
X000775Y002126D01*
X001025Y002230D01*
X001295Y002230D01*
X001581Y002091D02*
X007691Y002091D01*
X007719Y002010D02*
X007450Y001741D01*
X007450Y001590D01*
X007870Y001590D01*
X007870Y002010D01*
X007719Y002010D01*
X007681Y001972D02*
X001700Y001972D01*
X001770Y001854D02*
X007563Y001854D01*
X007450Y001735D02*
X001819Y001735D01*
X001840Y001617D02*
X007450Y001617D01*
X007450Y001510D02*
X007450Y001359D01*
X007719Y001090D01*
X007870Y001090D01*
X007870Y001510D01*
X007950Y001510D01*
X007950Y001590D01*
X007870Y001590D01*
X007870Y001510D01*
X007450Y001510D01*
X007450Y001498D02*
X001840Y001498D01*
X001825Y001380D02*
X007450Y001380D01*
X007548Y001261D02*
X001776Y001261D01*
X001714Y001143D02*
X007667Y001143D01*
X007870Y001143D02*
X007950Y001143D01*
X007950Y001090D02*
X008101Y001090D01*
X008370Y001359D01*
X008370Y001510D01*
X007950Y001510D01*
X007950Y001090D01*
X007950Y001261D02*
X007870Y001261D01*
X007870Y001380D02*
X007950Y001380D01*
X007950Y001498D02*
X007870Y001498D01*
X007870Y001617D02*
X007950Y001617D01*
X007950Y001735D02*
X007870Y001735D01*
X007870Y001854D02*
X007950Y001854D01*
X007950Y001972D02*
X007870Y001972D01*
X008257Y001854D02*
X008563Y001854D01*
X008450Y001735D02*
X008370Y001735D01*
X008370Y001617D02*
X008450Y001617D01*
X008450Y001498D02*
X008370Y001498D01*
X008370Y001380D02*
X008450Y001380D01*
X008548Y001261D02*
X008272Y001261D01*
X008153Y001143D02*
X008667Y001143D01*
X015272Y001261D02*
X015548Y001261D01*
X015450Y001380D02*
X015370Y001380D01*
X015370Y001498D02*
X015450Y001498D01*
X015450Y001617D02*
X015370Y001617D01*
X015370Y001735D02*
X015450Y001735D01*
X015563Y001854D02*
X015257Y001854D01*
X016257Y001854D02*
X016563Y001854D01*
X016450Y001735D02*
X016370Y001735D01*
X016370Y001617D02*
X016450Y001617D01*
X016450Y001498D02*
X016370Y001498D01*
X016370Y001380D02*
X016450Y001380D01*
X016548Y001261D02*
X016272Y001261D01*
X016153Y001143D02*
X016667Y001143D01*
X023248Y002209D02*
X023572Y002209D01*
X023454Y002328D02*
X023366Y002328D01*
X023390Y002446D02*
X023430Y002446D01*
X023430Y002565D02*
X023390Y002565D01*
X023390Y002683D02*
X023430Y002683D01*
X023483Y002802D02*
X023337Y002802D01*
X030224Y001024D02*
X001596Y001024D01*
X001381Y000906D02*
X030439Y000906D01*
X030881Y000906D02*
X039100Y000906D01*
X039100Y001024D02*
X036991Y001024D01*
X036981Y001017D02*
X037040Y001059D01*
X037091Y001110D01*
X037133Y001169D01*
X037166Y001233D01*
X037189Y001302D01*
X037199Y001370D01*
X036480Y001370D01*
X036480Y001450D01*
X036400Y001450D01*
X036400Y001870D01*
X036104Y001870D01*
X036032Y001859D01*
X035963Y001836D01*
X035899Y001803D01*
X035840Y001761D01*
X035789Y001710D01*
X035747Y001651D01*
X035714Y001587D01*
X035691Y001518D01*
X035681Y001450D01*
X036400Y001450D01*
X036400Y001370D01*
X036480Y001370D01*
X036480Y000950D01*
X036776Y000950D01*
X036848Y000961D01*
X036917Y000984D01*
X036981Y001017D01*
X037114Y001143D02*
X039100Y001143D01*
X039100Y001261D02*
X037175Y001261D01*
X037199Y001450D02*
X036480Y001450D01*
X036480Y001870D01*
X036776Y001870D01*
X036848Y001859D01*
X036917Y001836D01*
X036981Y001803D01*
X037040Y001761D01*
X037091Y001710D01*
X037133Y001651D01*
X037166Y001587D01*
X037189Y001518D01*
X037199Y001450D01*
X037192Y001498D02*
X039100Y001498D01*
X039100Y001380D02*
X036480Y001380D01*
X036400Y001380D02*
X033920Y001380D01*
X033920Y001370D02*
X033920Y001450D01*
X033840Y001450D01*
X033840Y001870D01*
X033544Y001870D01*
X033472Y001859D01*
X033403Y001836D01*
X033339Y001803D01*
X033280Y001761D01*
X033229Y001710D01*
X033187Y001651D01*
X033154Y001587D01*
X033131Y001518D01*
X033121Y001450D01*
X033840Y001450D01*
X033840Y001370D01*
X033920Y001370D01*
X034639Y001370D01*
X034629Y001302D01*
X034606Y001233D01*
X034573Y001169D01*
X034531Y001110D01*
X034480Y001059D01*
X034421Y001017D01*
X034357Y000984D01*
X034288Y000961D01*
X034216Y000950D01*
X033920Y000950D01*
X033920Y001370D01*
X033920Y001450D02*
X034639Y001450D01*
X034629Y001518D01*
X034606Y001587D01*
X034573Y001651D01*
X034531Y001710D01*
X034480Y001761D01*
X034421Y001803D01*
X034357Y001836D01*
X034288Y001859D01*
X034216Y001870D01*
X033920Y001870D01*
X033920Y001450D01*
X033920Y001498D02*
X033840Y001498D01*
X033840Y001380D02*
X031325Y001380D01*
X031340Y001498D02*
X033128Y001498D01*
X033169Y001617D02*
X031340Y001617D01*
X031319Y001735D02*
X033254Y001735D01*
X033456Y001854D02*
X031270Y001854D01*
X031200Y001972D02*
X039100Y001972D01*
X039100Y001854D02*
X036864Y001854D01*
X037066Y001735D02*
X039100Y001735D01*
X039100Y001617D02*
X037151Y001617D01*
X036480Y001617D02*
X036400Y001617D01*
X036400Y001735D02*
X036480Y001735D01*
X036480Y001854D02*
X036400Y001854D01*
X036016Y001854D02*
X034304Y001854D01*
X034506Y001735D02*
X035814Y001735D01*
X035729Y001617D02*
X034591Y001617D01*
X034632Y001498D02*
X035688Y001498D01*
X035681Y001370D02*
X035691Y001302D01*
X035714Y001233D01*
X035747Y001169D01*
X035789Y001110D01*
X035840Y001059D01*
X035899Y001017D01*
X035963Y000984D01*
X036032Y000961D01*
X036104Y000950D01*
X036400Y000950D01*
X036400Y001370D01*
X035681Y001370D01*
X035705Y001261D02*
X034615Y001261D01*
X034554Y001143D02*
X035766Y001143D01*
X035889Y001024D02*
X034431Y001024D01*
X033920Y001024D02*
X033840Y001024D01*
X033840Y000950D02*
X033840Y001370D01*
X033121Y001370D01*
X033131Y001302D01*
X033154Y001233D01*
X033187Y001169D01*
X033229Y001110D01*
X033280Y001059D01*
X033339Y001017D01*
X033403Y000984D01*
X033472Y000961D01*
X033544Y000950D01*
X033840Y000950D01*
X033840Y001143D02*
X033920Y001143D01*
X033920Y001261D02*
X033840Y001261D01*
X033840Y001617D02*
X033920Y001617D01*
X033920Y001735D02*
X033840Y001735D01*
X033840Y001854D02*
X033920Y001854D01*
X033145Y001261D02*
X031276Y001261D01*
X031214Y001143D02*
X033206Y001143D01*
X033329Y001024D02*
X031096Y001024D01*
X031081Y002091D02*
X039100Y002091D01*
X039100Y002209D02*
X030846Y002209D01*
X034470Y002802D02*
X035850Y002802D01*
X035868Y002783D02*
X036045Y002710D01*
X036835Y002710D01*
X037012Y002783D01*
X037147Y002918D01*
X037220Y003095D01*
X037220Y003285D01*
X037147Y003462D01*
X037012Y003597D01*
X036835Y003670D01*
X036045Y003670D01*
X035868Y003597D01*
X035733Y003462D01*
X035660Y003285D01*
X035660Y003095D01*
X035733Y002918D01*
X035868Y002783D01*
X035732Y002920D02*
X034588Y002920D01*
X034637Y003039D02*
X035683Y003039D01*
X035660Y003157D02*
X034660Y003157D01*
X034660Y003276D02*
X035660Y003276D01*
X035705Y003394D02*
X034615Y003394D01*
X034536Y003513D02*
X035784Y003513D01*
X035950Y003631D02*
X034370Y003631D01*
X034288Y003961D02*
X034357Y003984D01*
X034421Y004017D01*
X034480Y004059D01*
X034531Y004110D01*
X034573Y004169D01*
X034606Y004233D01*
X034629Y004302D01*
X034639Y004370D01*
X033920Y004370D01*
X033920Y003950D01*
X034216Y003950D01*
X034288Y003961D01*
X034362Y003987D02*
X035958Y003987D01*
X035963Y003984D02*
X036032Y003961D01*
X036104Y003950D01*
X036400Y003950D01*
X036400Y004370D01*
X036480Y004370D01*
X036480Y004450D01*
X036400Y004450D01*
X036400Y004870D01*
X036104Y004870D01*
X036032Y004859D01*
X035963Y004836D01*
X035899Y004803D01*
X035840Y004761D01*
X035789Y004710D01*
X035747Y004651D01*
X035714Y004587D01*
X035691Y004518D01*
X035681Y004450D01*
X036400Y004450D01*
X036400Y004370D01*
X035681Y004370D01*
X035691Y004302D01*
X035714Y004233D01*
X035747Y004169D01*
X035789Y004110D01*
X035840Y004059D01*
X035899Y004017D01*
X035963Y003984D01*
X035794Y004105D02*
X034526Y004105D01*
X034601Y004224D02*
X035719Y004224D01*
X035685Y004342D02*
X034635Y004342D01*
X034639Y004450D02*
X034629Y004518D01*
X034606Y004587D01*
X034573Y004651D01*
X034531Y004710D01*
X034480Y004761D01*
X034421Y004803D01*
X034357Y004836D01*
X034288Y004859D01*
X034216Y004870D01*
X033920Y004870D01*
X033920Y004450D01*
X034639Y004450D01*
X034638Y004461D02*
X035682Y004461D01*
X035711Y004579D02*
X034609Y004579D01*
X034540Y004698D02*
X034728Y004698D01*
X034593Y004816D02*
X034396Y004816D01*
X033920Y004816D02*
X033840Y004816D01*
X033840Y004698D02*
X033920Y004698D01*
X033920Y004579D02*
X033840Y004579D01*
X033840Y004461D02*
X033920Y004461D01*
X033920Y004342D02*
X033840Y004342D01*
X033840Y004224D02*
X033920Y004224D01*
X033920Y004105D02*
X033840Y004105D01*
X033840Y003987D02*
X033920Y003987D01*
X035592Y004698D02*
X035780Y004698D01*
X035727Y004816D02*
X035924Y004816D01*
X035846Y004935D02*
X039100Y004935D01*
X039100Y005053D02*
X035897Y005053D01*
X035946Y005172D02*
X039100Y005172D01*
X039100Y005290D02*
X035973Y005290D01*
X035973Y005409D02*
X039100Y005409D01*
X039100Y005527D02*
X035973Y005527D01*
X035938Y005646D02*
X039100Y005646D01*
X039100Y005764D02*
X036966Y005764D01*
X037111Y005883D02*
X039100Y005883D01*
X039100Y006001D02*
X037181Y006001D01*
X037220Y006120D02*
X039100Y006120D01*
X039100Y006238D02*
X037220Y006238D01*
X037191Y006357D02*
X037724Y006357D01*
X037636Y006475D02*
X037134Y006475D01*
X037015Y006594D02*
X037636Y006594D01*
X038502Y006357D02*
X039100Y006357D01*
X039100Y006475D02*
X038590Y006475D01*
X038590Y006594D02*
X039100Y006594D01*
X039100Y006712D02*
X038590Y006712D01*
X038590Y006831D02*
X039100Y006831D01*
X039100Y006949D02*
X038590Y006949D01*
X038590Y007068D02*
X039100Y007068D01*
X039100Y007186D02*
X038590Y007186D01*
X035832Y007068D02*
X034488Y007068D01*
X034582Y007186D02*
X035738Y007186D01*
X035691Y007305D02*
X034629Y007305D01*
X034621Y007542D02*
X035699Y007542D01*
X035753Y007660D02*
X034567Y007660D01*
X034455Y007779D02*
X035865Y007779D01*
X033920Y007779D02*
X033840Y007779D01*
X033840Y007660D02*
X033920Y007660D01*
X033920Y007542D02*
X033840Y007542D01*
X033840Y007186D02*
X033920Y007186D01*
X033920Y007068D02*
X033840Y007068D01*
X034455Y006594D02*
X035865Y006594D01*
X035746Y006475D02*
X034574Y006475D01*
X034631Y006357D02*
X035689Y006357D01*
X035660Y006238D02*
X034660Y006238D01*
X034660Y006120D02*
X034776Y006120D01*
X035544Y006120D02*
X035660Y006120D01*
X035889Y005764D02*
X035914Y005764D01*
X036480Y004870D02*
X036480Y004450D01*
X037199Y004450D01*
X037189Y004518D01*
X037166Y004587D01*
X037133Y004651D01*
X037091Y004710D01*
X037040Y004761D01*
X036981Y004803D01*
X036917Y004836D01*
X036848Y004859D01*
X036776Y004870D01*
X036480Y004870D01*
X036480Y004816D02*
X036400Y004816D01*
X036400Y004698D02*
X036480Y004698D01*
X036480Y004579D02*
X036400Y004579D01*
X036400Y004461D02*
X036480Y004461D01*
X036480Y004370D02*
X037199Y004370D01*
X037189Y004302D01*
X037166Y004233D01*
X037133Y004169D01*
X037091Y004110D01*
X037040Y004059D01*
X036981Y004017D01*
X036917Y003984D01*
X036848Y003961D01*
X036776Y003950D01*
X036480Y003950D01*
X036480Y004370D01*
X036480Y004342D02*
X036400Y004342D01*
X036400Y004224D02*
X036480Y004224D01*
X036480Y004105D02*
X036400Y004105D01*
X036400Y003987D02*
X036480Y003987D01*
X036922Y003987D02*
X039100Y003987D01*
X039100Y004105D02*
X037086Y004105D01*
X037161Y004224D02*
X039100Y004224D01*
X039100Y004342D02*
X037195Y004342D01*
X037198Y004461D02*
X039100Y004461D01*
X039100Y004579D02*
X037169Y004579D01*
X037100Y004698D02*
X039100Y004698D01*
X039100Y004816D02*
X036956Y004816D01*
X036930Y003631D02*
X039100Y003631D01*
X039100Y003513D02*
X037096Y003513D01*
X037175Y003394D02*
X039100Y003394D01*
X039100Y003276D02*
X037220Y003276D01*
X037220Y003157D02*
X039100Y003157D01*
X039100Y003039D02*
X037197Y003039D01*
X037148Y002920D02*
X039100Y002920D01*
X039100Y002802D02*
X037030Y002802D01*
X036480Y001498D02*
X036400Y001498D01*
X036400Y001261D02*
X036480Y001261D01*
X036480Y001143D02*
X036400Y001143D01*
X036400Y001024D02*
X036480Y001024D01*
X039100Y000787D02*
X000410Y000787D01*
X000410Y000906D02*
X000939Y000906D01*
X000724Y001024D02*
X000410Y001024D01*
X000410Y001143D02*
X000606Y001143D01*
X000544Y001261D02*
X000410Y001261D01*
X000410Y001380D02*
X000495Y001380D01*
X000480Y001498D02*
X000410Y001498D01*
X000410Y001617D02*
X000480Y001617D01*
X000501Y001735D02*
X000410Y001735D01*
X000410Y001854D02*
X000550Y001854D01*
X000620Y001972D02*
X000410Y001972D01*
X000410Y002091D02*
X000739Y002091D01*
X000974Y002209D02*
X000410Y002209D01*
X000410Y004224D02*
X006607Y004224D01*
X006601Y004342D02*
X001359Y004342D01*
X001549Y004461D02*
X006642Y004461D01*
X006556Y004579D02*
X006776Y004579D01*
X006675Y004698D02*
X006940Y004698D01*
X007058Y004816D02*
X006794Y004816D01*
X007768Y005290D02*
X009282Y005290D01*
X009401Y005409D02*
X007886Y005409D01*
X008005Y005527D02*
X009519Y005527D01*
X009638Y005646D02*
X008123Y005646D01*
X008242Y005764D02*
X009756Y005764D01*
X007900Y006158D02*
X007190Y005447D01*
X007170Y005400D01*
X007170Y005831D01*
X007197Y005858D01*
X007248Y005983D01*
X007248Y006117D01*
X007197Y006242D01*
X007102Y006337D01*
X006977Y006388D01*
X006843Y006388D01*
X006734Y006343D01*
X006670Y006408D01*
X006670Y006545D01*
X006725Y006490D01*
X007675Y006490D01*
X007780Y006595D01*
X007780Y006770D01*
X007849Y006741D01*
X007851Y006741D01*
X007900Y006692D01*
X007900Y006158D01*
X007862Y006120D02*
X007248Y006120D01*
X007248Y006001D02*
X007743Y006001D01*
X007625Y005883D02*
X007207Y005883D01*
X007170Y005764D02*
X007506Y005764D01*
X007388Y005646D02*
X007170Y005646D01*
X007170Y005527D02*
X007269Y005527D01*
X007174Y005409D02*
X007170Y005409D01*
X007198Y006238D02*
X007900Y006238D01*
X007900Y006357D02*
X007054Y006357D01*
X006766Y006357D02*
X006721Y006357D01*
X006670Y006475D02*
X007900Y006475D01*
X007900Y006594D02*
X007778Y006594D01*
X007780Y006712D02*
X007880Y006712D01*
X004651Y006831D02*
X001690Y006831D01*
X001668Y006949D02*
X004586Y006949D01*
X004572Y007068D02*
X001619Y007068D01*
X001503Y007186D02*
X004600Y007186D01*
X004686Y007305D02*
X000410Y007305D01*
X000410Y008253D02*
X000448Y008253D01*
X000442Y008371D02*
X000410Y008371D01*
X000870Y008371D02*
X000950Y008371D01*
X000950Y008340D02*
X001246Y008340D01*
X001318Y008351D01*
X001387Y008374D01*
X001451Y008407D01*
X001510Y008449D01*
X001561Y008500D01*
X001603Y008559D01*
X001636Y008623D01*
X001659Y008692D01*
X001669Y008760D01*
X000950Y008760D01*
X000950Y008340D01*
X000950Y008490D02*
X000870Y008490D01*
X000870Y008608D02*
X000950Y008608D01*
X000950Y008727D02*
X000870Y008727D01*
X000870Y008845D02*
X000950Y008845D01*
X000950Y008840D02*
X000950Y009260D01*
X001246Y009260D01*
X001318Y009249D01*
X001387Y009226D01*
X001451Y009193D01*
X001510Y009151D01*
X001561Y009100D01*
X001603Y009041D01*
X001636Y008977D01*
X001659Y008908D01*
X001669Y008840D01*
X000950Y008840D01*
X000950Y008964D02*
X000870Y008964D01*
X000870Y009082D02*
X000950Y009082D01*
X000950Y009201D02*
X000870Y009201D01*
X000410Y009319D02*
X001669Y009319D01*
X001669Y009320D02*
X001669Y009178D01*
X001723Y009047D01*
X001824Y008946D01*
X001955Y008892D01*
X002097Y008892D01*
X002228Y008946D01*
X002329Y009047D01*
X002383Y009178D01*
X002383Y009320D01*
X002329Y009451D01*
X002228Y009552D01*
X002097Y009606D01*
X001955Y009606D01*
X001824Y009552D01*
X001723Y009451D01*
X001669Y009320D01*
X001669Y009201D02*
X001437Y009201D01*
X001574Y009082D02*
X001709Y009082D01*
X001641Y008964D02*
X001806Y008964D01*
X001669Y008845D02*
X004900Y008845D01*
X004900Y008727D02*
X001664Y008727D01*
X001628Y008608D02*
X004900Y008608D01*
X004900Y008490D02*
X001550Y008490D01*
X001378Y008371D02*
X004877Y008371D01*
X004900Y008964D02*
X002246Y008964D01*
X002344Y009082D02*
X004900Y009082D01*
X004900Y009201D02*
X002383Y009201D01*
X002383Y009319D02*
X004900Y009319D01*
X004900Y009438D02*
X002335Y009438D01*
X002218Y009556D02*
X004900Y009556D01*
X004900Y009675D02*
X001678Y009675D01*
X001690Y009793D02*
X004900Y009793D01*
X004925Y009912D02*
X001683Y009912D01*
X001634Y010030D02*
X005036Y010030D01*
X001834Y009556D02*
X001628Y009556D01*
X001718Y009438D02*
X001526Y009438D01*
X000483Y010267D02*
X000410Y010267D01*
X000410Y012993D02*
X000756Y012993D01*
X000637Y013111D02*
X000410Y013111D01*
X000410Y013230D02*
X000557Y013230D01*
X000508Y013348D02*
X000410Y013348D01*
X000410Y013467D02*
X000480Y013467D01*
X000480Y013585D02*
X000410Y013585D01*
X000410Y013704D02*
X000488Y013704D01*
X000537Y013822D02*
X000410Y013822D01*
X000410Y013941D02*
X000589Y013941D01*
X000707Y014059D02*
X000410Y014059D01*
X014838Y012874D02*
X015232Y012874D01*
X015122Y012993D02*
X014948Y012993D01*
X014997Y013111D02*
X015073Y013111D01*
X015055Y013230D02*
X015015Y013230D01*
X015015Y013348D02*
X015055Y013348D01*
X015055Y013467D02*
X015015Y013467D01*
X015015Y013585D02*
X015055Y013585D01*
X015055Y013704D02*
X015015Y013704D01*
X015015Y013822D02*
X015055Y013822D01*
X015055Y013941D02*
X015015Y013941D01*
X014968Y014059D02*
X015102Y014059D01*
X015184Y014178D02*
X014886Y014178D01*
X015886Y014178D02*
X016184Y014178D01*
X016102Y014059D02*
X015968Y014059D01*
X016015Y013941D02*
X016055Y013941D01*
X016055Y013822D02*
X016015Y013822D01*
X016015Y013704D02*
X016055Y013704D01*
X016055Y013585D02*
X016015Y013585D01*
X016015Y013467D02*
X016055Y013467D01*
X016055Y013348D02*
X016015Y013348D01*
X016015Y013230D02*
X016055Y013230D01*
X016073Y013111D02*
X015997Y013111D01*
X015948Y012993D02*
X016122Y012993D01*
X016232Y012874D02*
X015838Y012874D01*
X016838Y012874D02*
X017232Y012874D01*
X017122Y012993D02*
X016948Y012993D01*
X016997Y013111D02*
X017073Y013111D01*
X017055Y013230D02*
X017015Y013230D01*
X017015Y013348D02*
X017055Y013348D01*
X017055Y013467D02*
X017015Y013467D01*
X017015Y013585D02*
X017055Y013585D01*
X017055Y013704D02*
X017015Y013704D01*
X017015Y013822D02*
X017055Y013822D01*
X017055Y013941D02*
X017015Y013941D01*
X016968Y014059D02*
X017102Y014059D01*
X017184Y014178D02*
X016886Y014178D01*
X017886Y014178D02*
X018184Y014178D01*
X018102Y014059D02*
X017968Y014059D01*
X018015Y013941D02*
X018055Y013941D01*
X018055Y013822D02*
X018015Y013822D01*
X018015Y013704D02*
X018055Y013704D01*
X018055Y013585D02*
X018015Y013585D01*
X018015Y013467D02*
X018055Y013467D01*
X018055Y013348D02*
X018015Y013348D01*
X018015Y013230D02*
X018055Y013230D01*
X018073Y013111D02*
X017997Y013111D01*
X017948Y012993D02*
X018122Y012993D01*
X018232Y012874D02*
X017838Y012874D01*
X018838Y012874D02*
X019232Y012874D01*
X019122Y012993D02*
X018948Y012993D01*
X018997Y013111D02*
X019073Y013111D01*
X019055Y013230D02*
X019015Y013230D01*
X019015Y013348D02*
X019055Y013348D01*
X019055Y013467D02*
X019015Y013467D01*
X019015Y013585D02*
X019055Y013585D01*
X019055Y013704D02*
X019015Y013704D01*
X019015Y013822D02*
X019055Y013822D01*
X019055Y013941D02*
X019015Y013941D01*
X018968Y014059D02*
X019102Y014059D01*
X019184Y014178D02*
X018886Y014178D01*
X019886Y014178D02*
X020184Y014178D01*
X020102Y014059D02*
X019968Y014059D01*
X020015Y013941D02*
X020055Y013941D01*
X020055Y013822D02*
X020015Y013822D01*
X020015Y013704D02*
X020055Y013704D01*
X020055Y013585D02*
X020015Y013585D01*
X020015Y013467D02*
X020055Y013467D01*
X020055Y013348D02*
X020015Y013348D01*
X020015Y013230D02*
X020055Y013230D01*
X020073Y013111D02*
X019997Y013111D01*
X019948Y012993D02*
X020122Y012993D01*
X020232Y012874D02*
X019838Y012874D01*
X020838Y012874D02*
X021232Y012874D01*
X021122Y012993D02*
X020948Y012993D01*
X020997Y013111D02*
X021073Y013111D01*
X021055Y013230D02*
X021015Y013230D01*
X021015Y013348D02*
X021055Y013348D01*
X021055Y013467D02*
X021015Y013467D01*
X021015Y013585D02*
X021055Y013585D01*
X021055Y013704D02*
X021015Y013704D01*
X021015Y013822D02*
X021055Y013822D01*
X021055Y013941D02*
X021015Y013941D01*
X020968Y014059D02*
X021102Y014059D01*
X021184Y014178D02*
X020886Y014178D01*
X021886Y014178D02*
X022184Y014178D01*
X022102Y014059D02*
X021968Y014059D01*
X022015Y013941D02*
X022055Y013941D01*
X022055Y013822D02*
X022015Y013822D01*
X022015Y013704D02*
X022055Y013704D01*
X022055Y013585D02*
X022015Y013585D01*
X022015Y013467D02*
X022055Y013467D01*
X022055Y013348D02*
X022015Y013348D01*
X022015Y013230D02*
X022055Y013230D01*
X022073Y013111D02*
X021997Y013111D01*
X021948Y012993D02*
X022122Y012993D01*
X022232Y012874D02*
X021838Y012874D01*
X022838Y012874D02*
X023232Y012874D01*
X023122Y012993D02*
X022948Y012993D01*
X022997Y013111D02*
X023073Y013111D01*
X023055Y013230D02*
X023015Y013230D01*
X023015Y013348D02*
X023055Y013348D01*
X023055Y013467D02*
X023015Y013467D01*
X023015Y013585D02*
X023055Y013585D01*
X023055Y013704D02*
X023015Y013704D01*
X023015Y013822D02*
X023055Y013822D01*
X023055Y013941D02*
X023015Y013941D01*
X022968Y014059D02*
X023102Y014059D01*
X023184Y014178D02*
X022886Y014178D01*
X023886Y014178D02*
X024184Y014178D01*
X024102Y014059D02*
X023968Y014059D01*
X024015Y013941D02*
X024055Y013941D01*
X024055Y013822D02*
X024015Y013822D01*
X024015Y013704D02*
X024055Y013704D01*
X024055Y013585D02*
X024015Y013585D01*
X024015Y013467D02*
X024055Y013467D01*
X024055Y013348D02*
X024015Y013348D01*
X024015Y013230D02*
X024055Y013230D01*
X024073Y013111D02*
X023997Y013111D01*
X023948Y012993D02*
X024122Y012993D01*
X024232Y012874D02*
X023838Y012874D01*
X024838Y012874D02*
X025232Y012874D01*
X025122Y012993D02*
X024948Y012993D01*
X024997Y013111D02*
X025073Y013111D01*
X025055Y013230D02*
X025015Y013230D01*
X025015Y013348D02*
X025055Y013348D01*
X025055Y013467D02*
X025015Y013467D01*
X025015Y013585D02*
X025055Y013585D01*
X025055Y013704D02*
X025015Y013704D01*
X025015Y013822D02*
X025055Y013822D01*
X025055Y013941D02*
X025015Y013941D01*
X024968Y014059D02*
X025102Y014059D01*
X025184Y014178D02*
X024886Y014178D01*
X025886Y014178D02*
X026184Y014178D01*
X026102Y014059D02*
X025968Y014059D01*
X026015Y013941D02*
X026055Y013941D01*
X026055Y013822D02*
X026015Y013822D01*
X026015Y013704D02*
X026055Y013704D01*
X026055Y013585D02*
X026015Y013585D01*
X026015Y013467D02*
X026055Y013467D01*
X026055Y013348D02*
X026015Y013348D01*
X026015Y013230D02*
X026055Y013230D01*
X026073Y013111D02*
X025997Y013111D01*
X025948Y012993D02*
X026122Y012993D01*
X026232Y012874D02*
X025838Y012874D01*
X026838Y012874D02*
X027232Y012874D01*
X027122Y012993D02*
X026948Y012993D01*
X026997Y013111D02*
X027073Y013111D01*
X027055Y013230D02*
X027015Y013230D01*
X027015Y013348D02*
X027055Y013348D01*
X027055Y013467D02*
X027015Y013467D01*
X027015Y013585D02*
X027055Y013585D01*
X027055Y013704D02*
X027015Y013704D01*
X027015Y013822D02*
X027055Y013822D01*
X027055Y013941D02*
X027015Y013941D01*
X026968Y014059D02*
X027102Y014059D01*
X027184Y014178D02*
X026886Y014178D01*
X028015Y013467D02*
X028075Y013467D01*
X028075Y013348D02*
X028015Y013348D01*
X028015Y013230D02*
X028075Y013230D01*
X028096Y013111D02*
X027997Y013111D01*
X027948Y012993D02*
X028153Y012993D01*
X028270Y012874D02*
X027838Y012874D01*
X028495Y012874D02*
X028575Y012874D01*
X028575Y012993D02*
X028495Y012993D01*
X028495Y013111D02*
X028575Y013111D01*
X028575Y013230D02*
X028495Y013230D01*
X028495Y013348D02*
X028575Y013348D01*
X028575Y013467D02*
X028495Y013467D01*
X031263Y013230D02*
X039100Y013230D01*
X039100Y013348D02*
X031312Y013348D01*
X034929Y013941D02*
X039100Y013941D01*
X039100Y014059D02*
X035918Y014059D01*
X035881Y014178D02*
X039100Y014178D01*
X039100Y014296D02*
X035810Y014296D01*
X035919Y013822D02*
X039100Y013822D01*
X039100Y013704D02*
X035882Y013704D01*
X035812Y013585D02*
X039100Y013585D01*
X039100Y013467D02*
X035692Y013467D01*
X034656Y009556D02*
X034493Y009556D01*
X034597Y009438D02*
X034880Y009438D01*
X037053Y009556D02*
X039100Y009556D01*
X039100Y009438D02*
X037157Y009438D01*
X033305Y007779D02*
X031110Y007779D01*
X029743Y006238D02*
X029698Y006238D01*
X029748Y006120D02*
X029895Y006120D01*
X029945Y006001D02*
X029748Y006001D01*
X029764Y005883D02*
X029707Y005883D01*
X000426Y006357D02*
X000410Y006357D01*
X000410Y006238D02*
X000413Y006238D01*
X000410Y004342D02*
X000461Y004342D01*
D28*
X004910Y007050D02*
X005286Y006674D01*
X005410Y006674D01*
X010660Y010300D02*
X010910Y010050D01*
X010660Y010300D02*
X009620Y010300D01*
X012330Y011840D02*
X010640Y013530D01*
X022784Y009800D02*
X022784Y008054D01*
X022030Y008050D01*
X021160Y008050D01*
X021410Y006550D01*
X022160Y006550D01*
X022160Y006676D01*
D29*
X015570Y011840D02*
X012330Y011840D01*
D30*
X007910Y007050D03*
X006910Y004300D03*
D31*
X010910Y004050D03*
X019410Y009300D03*
X018910Y009550D03*
X021410Y009300D03*
X021410Y009800D03*
M02*
