G75*
%MOIN*%
%OFA0B0*%
%FSLAX24Y24*%
%IPPOS*%
%LPD*%
%AMOC8*
5,1,8,0,0,1.08239X$1,22.5*
%
%ADD10C,0.0000*%
%ADD11OC8,0.0600*%
%ADD12C,0.0600*%
%ADD13R,0.0800X0.0260*%
%ADD14R,0.0220X0.0500*%
%ADD15R,0.0500X0.0220*%
%ADD16R,0.0591X0.0512*%
%ADD17C,0.0440*%
%ADD18R,0.0512X0.0591*%
%ADD19R,0.0594X0.0594*%
%ADD20OC8,0.0594*%
%ADD21C,0.0160*%
%ADD22C,0.0357*%
%ADD23C,0.0100*%
%ADD24C,0.0320*%
%ADD25C,0.0240*%
%ADD26C,0.0396*%
D10*
X002288Y000180D02*
X002288Y014176D01*
X033658Y014176D01*
X033658Y000180D01*
X002288Y000180D01*
X002788Y001180D02*
X002790Y001224D01*
X002796Y001268D01*
X002806Y001311D01*
X002819Y001353D01*
X002836Y001394D01*
X002857Y001433D01*
X002881Y001470D01*
X002908Y001505D01*
X002938Y001537D01*
X002971Y001567D01*
X003007Y001593D01*
X003044Y001617D01*
X003084Y001636D01*
X003125Y001653D01*
X003168Y001665D01*
X003211Y001674D01*
X003255Y001679D01*
X003299Y001680D01*
X003343Y001677D01*
X003387Y001670D01*
X003430Y001659D01*
X003472Y001645D01*
X003512Y001627D01*
X003551Y001605D01*
X003587Y001581D01*
X003621Y001553D01*
X003653Y001522D01*
X003682Y001488D01*
X003708Y001452D01*
X003730Y001414D01*
X003749Y001374D01*
X003764Y001332D01*
X003776Y001290D01*
X003784Y001246D01*
X003788Y001202D01*
X003788Y001158D01*
X003784Y001114D01*
X003776Y001070D01*
X003764Y001028D01*
X003749Y000986D01*
X003730Y000946D01*
X003708Y000908D01*
X003682Y000872D01*
X003653Y000838D01*
X003621Y000807D01*
X003587Y000779D01*
X003551Y000755D01*
X003512Y000733D01*
X003472Y000715D01*
X003430Y000701D01*
X003387Y000690D01*
X003343Y000683D01*
X003299Y000680D01*
X003255Y000681D01*
X003211Y000686D01*
X003168Y000695D01*
X003125Y000707D01*
X003084Y000724D01*
X003044Y000743D01*
X003007Y000767D01*
X002971Y000793D01*
X002938Y000823D01*
X002908Y000855D01*
X002881Y000890D01*
X002857Y000927D01*
X002836Y000966D01*
X002819Y001007D01*
X002806Y001049D01*
X002796Y001092D01*
X002790Y001136D01*
X002788Y001180D01*
X002788Y013180D02*
X002790Y013224D01*
X002796Y013268D01*
X002806Y013311D01*
X002819Y013353D01*
X002836Y013394D01*
X002857Y013433D01*
X002881Y013470D01*
X002908Y013505D01*
X002938Y013537D01*
X002971Y013567D01*
X003007Y013593D01*
X003044Y013617D01*
X003084Y013636D01*
X003125Y013653D01*
X003168Y013665D01*
X003211Y013674D01*
X003255Y013679D01*
X003299Y013680D01*
X003343Y013677D01*
X003387Y013670D01*
X003430Y013659D01*
X003472Y013645D01*
X003512Y013627D01*
X003551Y013605D01*
X003587Y013581D01*
X003621Y013553D01*
X003653Y013522D01*
X003682Y013488D01*
X003708Y013452D01*
X003730Y013414D01*
X003749Y013374D01*
X003764Y013332D01*
X003776Y013290D01*
X003784Y013246D01*
X003788Y013202D01*
X003788Y013158D01*
X003784Y013114D01*
X003776Y013070D01*
X003764Y013028D01*
X003749Y012986D01*
X003730Y012946D01*
X003708Y012908D01*
X003682Y012872D01*
X003653Y012838D01*
X003621Y012807D01*
X003587Y012779D01*
X003551Y012755D01*
X003512Y012733D01*
X003472Y012715D01*
X003430Y012701D01*
X003387Y012690D01*
X003343Y012683D01*
X003299Y012680D01*
X003255Y012681D01*
X003211Y012686D01*
X003168Y012695D01*
X003125Y012707D01*
X003084Y012724D01*
X003044Y012743D01*
X003007Y012767D01*
X002971Y012793D01*
X002938Y012823D01*
X002908Y012855D01*
X002881Y012890D01*
X002857Y012927D01*
X002836Y012966D01*
X002819Y013007D01*
X002806Y013049D01*
X002796Y013092D01*
X002790Y013136D01*
X002788Y013180D01*
X032288Y013180D02*
X032290Y013224D01*
X032296Y013268D01*
X032306Y013311D01*
X032319Y013353D01*
X032336Y013394D01*
X032357Y013433D01*
X032381Y013470D01*
X032408Y013505D01*
X032438Y013537D01*
X032471Y013567D01*
X032507Y013593D01*
X032544Y013617D01*
X032584Y013636D01*
X032625Y013653D01*
X032668Y013665D01*
X032711Y013674D01*
X032755Y013679D01*
X032799Y013680D01*
X032843Y013677D01*
X032887Y013670D01*
X032930Y013659D01*
X032972Y013645D01*
X033012Y013627D01*
X033051Y013605D01*
X033087Y013581D01*
X033121Y013553D01*
X033153Y013522D01*
X033182Y013488D01*
X033208Y013452D01*
X033230Y013414D01*
X033249Y013374D01*
X033264Y013332D01*
X033276Y013290D01*
X033284Y013246D01*
X033288Y013202D01*
X033288Y013158D01*
X033284Y013114D01*
X033276Y013070D01*
X033264Y013028D01*
X033249Y012986D01*
X033230Y012946D01*
X033208Y012908D01*
X033182Y012872D01*
X033153Y012838D01*
X033121Y012807D01*
X033087Y012779D01*
X033051Y012755D01*
X033012Y012733D01*
X032972Y012715D01*
X032930Y012701D01*
X032887Y012690D01*
X032843Y012683D01*
X032799Y012680D01*
X032755Y012681D01*
X032711Y012686D01*
X032668Y012695D01*
X032625Y012707D01*
X032584Y012724D01*
X032544Y012743D01*
X032507Y012767D01*
X032471Y012793D01*
X032438Y012823D01*
X032408Y012855D01*
X032381Y012890D01*
X032357Y012927D01*
X032336Y012966D01*
X032319Y013007D01*
X032306Y013049D01*
X032296Y013092D01*
X032290Y013136D01*
X032288Y013180D01*
X032288Y001180D02*
X032290Y001224D01*
X032296Y001268D01*
X032306Y001311D01*
X032319Y001353D01*
X032336Y001394D01*
X032357Y001433D01*
X032381Y001470D01*
X032408Y001505D01*
X032438Y001537D01*
X032471Y001567D01*
X032507Y001593D01*
X032544Y001617D01*
X032584Y001636D01*
X032625Y001653D01*
X032668Y001665D01*
X032711Y001674D01*
X032755Y001679D01*
X032799Y001680D01*
X032843Y001677D01*
X032887Y001670D01*
X032930Y001659D01*
X032972Y001645D01*
X033012Y001627D01*
X033051Y001605D01*
X033087Y001581D01*
X033121Y001553D01*
X033153Y001522D01*
X033182Y001488D01*
X033208Y001452D01*
X033230Y001414D01*
X033249Y001374D01*
X033264Y001332D01*
X033276Y001290D01*
X033284Y001246D01*
X033288Y001202D01*
X033288Y001158D01*
X033284Y001114D01*
X033276Y001070D01*
X033264Y001028D01*
X033249Y000986D01*
X033230Y000946D01*
X033208Y000908D01*
X033182Y000872D01*
X033153Y000838D01*
X033121Y000807D01*
X033087Y000779D01*
X033051Y000755D01*
X033012Y000733D01*
X032972Y000715D01*
X032930Y000701D01*
X032887Y000690D01*
X032843Y000683D01*
X032799Y000680D01*
X032755Y000681D01*
X032711Y000686D01*
X032668Y000695D01*
X032625Y000707D01*
X032584Y000724D01*
X032544Y000743D01*
X032507Y000767D01*
X032471Y000793D01*
X032438Y000823D01*
X032408Y000855D01*
X032381Y000890D01*
X032357Y000927D01*
X032336Y000966D01*
X032319Y001007D01*
X032306Y001049D01*
X032296Y001092D01*
X032290Y001136D01*
X032288Y001180D01*
D11*
X026038Y001180D03*
X025038Y001180D03*
X024038Y001180D03*
X023038Y001180D03*
X022038Y001180D03*
X021038Y001180D03*
X020038Y001180D03*
X019038Y001180D03*
X018038Y001180D03*
X017038Y001180D03*
X016038Y001180D03*
X015038Y001180D03*
X014038Y001180D03*
X013038Y001180D03*
X012038Y001180D03*
X011038Y001180D03*
X010038Y001180D03*
X010038Y002180D03*
X011038Y002180D03*
X012038Y002180D03*
X013038Y002180D03*
X014038Y002180D03*
X015038Y002180D03*
X016038Y002180D03*
X017038Y002180D03*
X018038Y002180D03*
X019038Y002180D03*
X020038Y002180D03*
X021038Y002180D03*
X022038Y002180D03*
X023038Y002180D03*
X024038Y002180D03*
X025038Y002180D03*
X026038Y002180D03*
D12*
X032238Y004180D02*
X032838Y004180D01*
X032838Y005180D02*
X032238Y005180D01*
X032238Y006180D02*
X032838Y006180D01*
X032838Y007180D02*
X032238Y007180D01*
X030038Y009380D02*
X030038Y009980D01*
X028038Y009980D02*
X028038Y009380D01*
X032238Y010180D02*
X032838Y010180D01*
X032838Y011180D02*
X032238Y011180D01*
X029338Y011680D02*
X028738Y011680D01*
X028663Y012880D02*
X028663Y013480D01*
X027663Y013480D02*
X027663Y012880D01*
X026663Y012880D02*
X026663Y013480D01*
X025663Y013480D02*
X025663Y012880D01*
X024663Y012880D02*
X024663Y013480D01*
X023663Y013480D02*
X023663Y012880D01*
X022663Y012880D02*
X022663Y013480D01*
X021663Y013480D02*
X021663Y012880D01*
X020663Y012880D02*
X020663Y013480D01*
X019663Y013480D02*
X019663Y012880D01*
X018663Y012880D02*
X018663Y013480D01*
X017663Y013480D02*
X017663Y012880D01*
X016663Y012880D02*
X016663Y013480D01*
X015663Y013480D02*
X015663Y012880D01*
X008538Y010980D02*
X008538Y010380D01*
X007538Y010380D02*
X007538Y010980D01*
X006538Y010980D02*
X006538Y010380D01*
X005538Y010380D02*
X005538Y010980D01*
X004538Y010980D02*
X004538Y010380D01*
X003538Y010380D02*
X003538Y010980D01*
X029663Y012880D02*
X029663Y013480D01*
X030663Y013480D02*
X030663Y012880D01*
D13*
X011748Y009930D03*
X011748Y009430D03*
X011748Y008930D03*
X011748Y008430D03*
X011748Y007930D03*
X011748Y007430D03*
X011748Y006930D03*
X011748Y006430D03*
X009328Y006430D03*
X009328Y006930D03*
X009328Y007430D03*
X009328Y007930D03*
X009328Y008430D03*
X009328Y008930D03*
X009328Y009430D03*
X009328Y009930D03*
D14*
X017436Y010870D03*
X017751Y010870D03*
X018066Y010870D03*
X018381Y010870D03*
X018696Y010870D03*
X019011Y010870D03*
X019326Y010870D03*
X019641Y010870D03*
X019641Y007490D03*
X019326Y007490D03*
X019011Y007490D03*
X018696Y007490D03*
X018381Y007490D03*
X018066Y007490D03*
X017751Y007490D03*
X017436Y007490D03*
D15*
X016848Y008078D03*
X016848Y008393D03*
X016848Y008708D03*
X016848Y009023D03*
X016848Y009337D03*
X016848Y009652D03*
X016848Y009967D03*
X016848Y010282D03*
X020228Y010282D03*
X020228Y009967D03*
X020228Y009652D03*
X020228Y009337D03*
X020228Y009023D03*
X020228Y008708D03*
X020228Y008393D03*
X020228Y008078D03*
D16*
X007538Y006304D03*
X007538Y005556D03*
D17*
X016538Y005650D02*
X016538Y005210D01*
X018538Y005210D02*
X018538Y005650D01*
D18*
X018164Y004430D03*
X018912Y004430D03*
X016912Y004430D03*
X016164Y004430D03*
X023414Y008180D03*
X024162Y008180D03*
X024162Y009180D03*
X023414Y009180D03*
D19*
X007788Y012180D03*
D20*
X008788Y012180D03*
X009788Y012180D03*
X010788Y012180D03*
X011788Y012180D03*
X011788Y013180D03*
X010788Y013180D03*
X009788Y013180D03*
X008788Y013180D03*
X007788Y013180D03*
D21*
X008245Y013177D02*
X008770Y013177D01*
X008770Y013162D02*
X008312Y013162D01*
X008312Y012982D01*
X008591Y012703D01*
X008770Y012703D01*
X008770Y013162D01*
X008770Y013198D01*
X008312Y013198D01*
X008312Y013378D01*
X008591Y013657D01*
X008770Y013657D01*
X008770Y013198D01*
X008807Y013198D01*
X009265Y013198D01*
X009265Y013378D01*
X008986Y013657D01*
X008807Y013657D01*
X008807Y013198D01*
X008807Y013162D01*
X009265Y013162D01*
X009265Y012982D01*
X008986Y012703D01*
X008807Y012703D01*
X008807Y013162D01*
X008770Y013162D01*
X008807Y013177D02*
X009770Y013177D01*
X009770Y013162D02*
X009312Y013162D01*
X009312Y012982D01*
X009591Y012703D01*
X009770Y012703D01*
X009770Y013162D01*
X009770Y013198D01*
X009312Y013198D01*
X009312Y013378D01*
X009591Y013657D01*
X009770Y013657D01*
X009770Y013198D01*
X009807Y013198D01*
X010265Y013198D01*
X010265Y013378D01*
X009986Y013657D01*
X009807Y013657D01*
X009807Y013198D01*
X009807Y013162D01*
X010265Y013162D01*
X010265Y012982D01*
X009986Y012703D01*
X009807Y012703D01*
X009807Y013162D01*
X009770Y013162D01*
X009807Y013177D02*
X010770Y013177D01*
X010770Y013162D02*
X010312Y013162D01*
X010312Y012982D01*
X010591Y012703D01*
X010770Y012703D01*
X010770Y013162D01*
X010770Y013198D01*
X010312Y013198D01*
X010312Y013378D01*
X010591Y013657D01*
X010770Y013657D01*
X010770Y013198D01*
X010807Y013198D01*
X011265Y013198D01*
X011265Y013378D01*
X010986Y013657D01*
X010807Y013657D01*
X010807Y013198D01*
X010807Y013162D01*
X011265Y013162D01*
X011265Y012982D01*
X010986Y012703D01*
X010807Y012703D01*
X010807Y013162D01*
X010770Y013162D01*
X010807Y013177D02*
X011770Y013177D01*
X011770Y013162D02*
X011312Y013162D01*
X011312Y012982D01*
X011591Y012703D01*
X011770Y012703D01*
X011770Y013162D01*
X011770Y013198D01*
X011312Y013198D01*
X011312Y013378D01*
X011591Y013657D01*
X011770Y013657D01*
X011770Y013198D01*
X011807Y013198D01*
X012265Y013198D01*
X012265Y013267D01*
X012471Y013061D01*
X012501Y012988D01*
X012597Y012893D01*
X012669Y012863D01*
X013112Y012420D01*
X012194Y012420D01*
X011978Y012637D01*
X011599Y012637D01*
X011332Y012369D01*
X011332Y011991D01*
X011599Y011723D01*
X011978Y011723D01*
X012194Y011940D01*
X013189Y011940D01*
X013709Y011420D01*
X011527Y011420D01*
X011480Y011467D01*
X011356Y011518D01*
X011221Y011518D01*
X011097Y011467D01*
X011028Y011399D01*
X011028Y011774D01*
X011245Y011991D01*
X011245Y012369D01*
X010978Y012637D01*
X010599Y012637D01*
X010332Y012369D01*
X010332Y011991D01*
X010548Y011774D01*
X010548Y011649D01*
X010480Y011717D01*
X010356Y011768D01*
X010221Y011768D01*
X010097Y011717D01*
X010050Y011670D01*
X008868Y011670D01*
X008798Y011723D01*
X008978Y011723D01*
X009245Y011991D01*
X009245Y012369D01*
X008978Y012637D01*
X008599Y012637D01*
X008332Y012369D01*
X008332Y012073D01*
X008245Y012137D01*
X008245Y012543D01*
X008505Y012543D01*
X008347Y012385D02*
X008245Y012385D01*
X008245Y012543D02*
X008152Y012637D01*
X007425Y012637D01*
X007332Y012543D01*
X004037Y012543D01*
X004119Y012625D02*
X004268Y012985D01*
X004268Y013375D01*
X004135Y013696D01*
X012288Y013696D01*
X012221Y013629D01*
X012178Y013526D01*
X012178Y013464D01*
X011986Y013657D01*
X011807Y013657D01*
X011807Y013198D01*
X011807Y013162D01*
X012265Y013162D01*
X012265Y012982D01*
X011986Y012703D01*
X011807Y012703D01*
X011807Y013162D01*
X011770Y013162D01*
X011807Y013177D02*
X012355Y013177D01*
X012265Y013019D02*
X012489Y013019D01*
X012672Y012860D02*
X012143Y012860D01*
X011807Y012860D02*
X011770Y012860D01*
X011770Y013019D02*
X011807Y013019D01*
X011434Y012860D02*
X011143Y012860D01*
X011265Y013019D02*
X011312Y013019D01*
X010807Y013019D02*
X010770Y013019D01*
X010770Y012860D02*
X010807Y012860D01*
X010434Y012860D02*
X010143Y012860D01*
X010265Y013019D02*
X010312Y013019D01*
X009807Y013019D02*
X009770Y013019D01*
X009770Y012860D02*
X009807Y012860D01*
X009978Y012637D02*
X009599Y012637D01*
X009332Y012369D01*
X009332Y011991D01*
X009599Y011723D01*
X009978Y011723D01*
X010245Y011991D01*
X010245Y012369D01*
X009978Y012637D01*
X010071Y012543D02*
X010505Y012543D01*
X010347Y012385D02*
X010230Y012385D01*
X010245Y012226D02*
X010332Y012226D01*
X010332Y012068D02*
X010245Y012068D01*
X010788Y012180D02*
X010788Y010930D01*
X011038Y010930D01*
X011288Y010680D01*
X012538Y010680D01*
X013538Y009680D01*
X014278Y009690D02*
X015209Y009690D01*
X015050Y009532D02*
X014278Y009532D01*
X014278Y009373D02*
X014892Y009373D01*
X014733Y009215D02*
X014278Y009215D01*
X014278Y009170D02*
X014278Y010211D01*
X014347Y010143D01*
X014471Y010092D01*
X014606Y010092D01*
X014730Y010143D01*
X014777Y010190D01*
X016438Y010190D01*
X016438Y010170D01*
X015741Y010170D01*
X015652Y010133D01*
X015585Y010066D01*
X014689Y009170D01*
X014278Y009170D01*
X014038Y008930D02*
X014038Y010930D01*
X013788Y011180D01*
X011288Y011180D01*
X011063Y011434D02*
X011028Y011434D01*
X011028Y011592D02*
X013537Y011592D01*
X013695Y011434D02*
X011513Y011434D01*
X011572Y011751D02*
X011028Y011751D01*
X011163Y011909D02*
X011413Y011909D01*
X011332Y012068D02*
X011245Y012068D01*
X011245Y012226D02*
X011332Y012226D01*
X011347Y012385D02*
X011230Y012385D01*
X011071Y012543D02*
X011505Y012543D01*
X012071Y012543D02*
X012989Y012543D01*
X012831Y012702D02*
X004151Y012702D01*
X004119Y012625D02*
X003844Y012349D01*
X003483Y012200D01*
X003093Y012200D01*
X002768Y012335D01*
X002768Y002025D01*
X003093Y002160D01*
X003483Y002160D01*
X003844Y002011D01*
X004119Y001735D01*
X004268Y001375D01*
X004268Y000985D01*
X004134Y000660D01*
X031943Y000660D01*
X031808Y000985D01*
X031808Y001375D01*
X031958Y001735D01*
X032233Y002011D01*
X032593Y002160D01*
X032983Y002160D01*
X033178Y002079D01*
X033178Y003870D01*
X033099Y003790D01*
X032930Y003720D01*
X032147Y003720D01*
X031978Y003790D01*
X031848Y003919D01*
X031840Y003940D01*
X030491Y003940D01*
X030402Y003977D01*
X030335Y004044D01*
X030037Y004342D01*
X029971Y004342D01*
X029847Y004393D01*
X029751Y004488D01*
X029700Y004613D01*
X029700Y004747D01*
X029751Y004872D01*
X029820Y004940D01*
X028491Y004940D01*
X028402Y004977D01*
X028335Y005044D01*
X026939Y006440D01*
X025790Y006440D01*
X025743Y006439D01*
X025742Y006440D01*
X025741Y006440D01*
X025698Y006458D01*
X025655Y006475D01*
X025654Y006476D01*
X025652Y006477D01*
X025620Y006509D01*
X025586Y006542D01*
X025586Y006543D01*
X025585Y006544D01*
X025567Y006587D01*
X025549Y006630D01*
X025549Y006631D01*
X025548Y006632D01*
X025548Y006679D01*
X025514Y009727D01*
X021455Y009727D01*
X021539Y009643D01*
X021606Y009643D01*
X021730Y009592D01*
X021825Y009497D01*
X021857Y009420D01*
X022998Y009420D01*
X022998Y009542D01*
X023092Y009635D01*
X023737Y009635D01*
X023788Y009583D01*
X023840Y009635D01*
X024485Y009635D01*
X024578Y009542D01*
X024578Y008818D01*
X024485Y008725D01*
X024402Y008725D01*
X024402Y008635D01*
X024485Y008635D01*
X024578Y008542D01*
X024578Y007818D01*
X024485Y007725D01*
X024399Y007725D01*
X024398Y007678D01*
X024398Y007632D01*
X024398Y007630D01*
X024398Y007628D01*
X024379Y007586D01*
X024362Y007544D01*
X024360Y007543D01*
X024360Y007541D01*
X024327Y007509D01*
X024294Y007477D01*
X024293Y007476D01*
X024291Y007474D01*
X024248Y007458D01*
X024206Y007440D01*
X024204Y007440D01*
X024202Y007439D01*
X024156Y007440D01*
X023301Y007440D01*
X024069Y006518D01*
X024106Y006518D01*
X024230Y006467D01*
X024325Y006372D01*
X024377Y006247D01*
X024377Y006113D01*
X024325Y005988D01*
X024230Y005893D01*
X024106Y005842D01*
X023971Y005842D01*
X023847Y005893D01*
X023751Y005988D01*
X023700Y006113D01*
X023700Y006211D01*
X022758Y007342D01*
X022721Y007342D01*
X022597Y007393D01*
X022501Y007488D01*
X022450Y007613D01*
X022450Y007747D01*
X022501Y007872D01*
X022597Y007967D01*
X022721Y008018D01*
X022731Y008018D01*
X022309Y008440D01*
X021618Y008440D01*
X021674Y008383D01*
X021674Y008383D01*
X021742Y008316D01*
X021778Y008228D01*
X021778Y005790D01*
X021860Y005720D01*
X021860Y005762D01*
X021911Y005887D01*
X021958Y005934D01*
X021958Y007811D01*
X021911Y007858D01*
X021860Y007983D01*
X021860Y008117D01*
X021911Y008242D01*
X022007Y008337D01*
X022131Y008388D01*
X022266Y008388D01*
X022390Y008337D01*
X022485Y008242D01*
X022537Y008117D01*
X022537Y007983D01*
X022485Y007858D01*
X022438Y007811D01*
X022438Y005934D01*
X022485Y005887D01*
X022537Y005762D01*
X022537Y005628D01*
X022485Y005503D01*
X022390Y005408D01*
X022278Y005362D01*
X025166Y002887D01*
X025174Y002883D01*
X025202Y002856D01*
X025231Y002831D01*
X025235Y002823D01*
X025242Y002816D01*
X025257Y002780D01*
X025274Y002746D01*
X025275Y002737D01*
X025278Y002728D01*
X025278Y002689D01*
X025281Y002651D01*
X025278Y002642D01*
X025278Y002591D01*
X025498Y002371D01*
X025498Y001989D01*
X025229Y001720D01*
X024848Y001720D01*
X024578Y001989D01*
X024578Y002371D01*
X024787Y002579D01*
X021411Y005473D01*
X021402Y005477D01*
X021375Y005504D01*
X021346Y005529D01*
X021342Y005537D01*
X021335Y005544D01*
X021320Y005580D01*
X021303Y005614D01*
X021302Y005623D01*
X021298Y005632D01*
X021298Y005671D01*
X021295Y005709D01*
X021298Y005718D01*
X021298Y008081D01*
X021278Y008101D01*
X021278Y005536D01*
X024169Y002886D01*
X024174Y002883D01*
X024204Y002853D01*
X024236Y002825D01*
X024238Y002820D01*
X024242Y002816D01*
X024258Y002777D01*
X024276Y002738D01*
X024276Y002733D01*
X024278Y002728D01*
X024278Y002685D01*
X024280Y002643D01*
X024278Y002638D01*
X024278Y002591D01*
X024498Y002371D01*
X024498Y001989D01*
X024229Y001720D01*
X023848Y001720D01*
X023578Y001989D01*
X023578Y002371D01*
X023790Y002582D01*
X020907Y005224D01*
X020902Y005227D01*
X020872Y005257D01*
X020841Y005285D01*
X020839Y005290D01*
X020835Y005294D01*
X020819Y005333D01*
X020801Y005372D01*
X020800Y005377D01*
X020798Y005382D01*
X020798Y005425D01*
X020797Y005467D01*
X020798Y005472D01*
X020798Y008081D01*
X020726Y008153D01*
X020638Y008153D01*
X020638Y007901D01*
X020545Y007808D01*
X020468Y007808D01*
X020468Y006589D01*
X020674Y006383D01*
X020742Y006316D01*
X020778Y006228D01*
X020778Y005279D01*
X023174Y002883D01*
X023242Y002816D01*
X023278Y002728D01*
X023278Y002591D01*
X023498Y002371D01*
X023498Y001989D01*
X023229Y001720D01*
X022848Y001720D01*
X022578Y001989D01*
X022578Y002371D01*
X022793Y002586D01*
X020335Y005044D01*
X020298Y005132D01*
X020298Y006081D01*
X020278Y006101D01*
X020278Y005029D01*
X022174Y003133D01*
X022242Y003066D01*
X022278Y002978D01*
X022278Y002591D01*
X022498Y002371D01*
X022498Y001989D01*
X022229Y001720D01*
X021848Y001720D01*
X021578Y001989D01*
X021578Y002371D01*
X021798Y002591D01*
X021798Y002831D01*
X019835Y004794D01*
X019798Y004882D01*
X019798Y006081D01*
X019566Y006313D01*
X019566Y006242D01*
X019674Y006133D01*
X019742Y006066D01*
X019778Y005978D01*
X019778Y003632D01*
X019742Y003544D01*
X019278Y003081D01*
X019278Y002591D01*
X019498Y002371D01*
X019498Y001989D01*
X019229Y001720D01*
X018848Y001720D01*
X018578Y001989D01*
X018578Y002371D01*
X018798Y002591D01*
X018798Y003228D01*
X018835Y003316D01*
X018902Y003383D01*
X019298Y003779D01*
X019298Y004039D01*
X019235Y003975D01*
X018590Y003975D01*
X018553Y004012D01*
X018531Y003991D01*
X018490Y003967D01*
X018444Y003955D01*
X018212Y003955D01*
X018212Y004382D01*
X018116Y004382D01*
X017728Y004382D01*
X017728Y004111D01*
X017741Y004065D01*
X017764Y004024D01*
X017798Y003991D01*
X017839Y003967D01*
X017885Y003955D01*
X018116Y003955D01*
X018116Y004382D01*
X018116Y004478D01*
X017728Y004478D01*
X017728Y004749D01*
X017741Y004795D01*
X017764Y004836D01*
X017798Y004869D01*
X017839Y004893D01*
X017885Y004905D01*
X018116Y004905D01*
X018116Y004478D01*
X018212Y004478D01*
X018212Y004905D01*
X018306Y004905D01*
X018216Y004995D01*
X018158Y005134D01*
X018158Y005471D01*
X017601Y006028D01*
X017599Y006027D01*
X017572Y005999D01*
X017563Y005996D01*
X016918Y005440D01*
X016918Y005134D01*
X016861Y004995D01*
X016771Y004905D01*
X016864Y004905D01*
X016864Y004478D01*
X016960Y004478D01*
X016960Y004905D01*
X017192Y004905D01*
X017238Y004893D01*
X017279Y004869D01*
X017312Y004836D01*
X017336Y004795D01*
X017348Y004749D01*
X017348Y004478D01*
X016960Y004478D01*
X016960Y004382D01*
X016960Y003955D01*
X017192Y003955D01*
X017238Y003967D01*
X017279Y003991D01*
X017312Y004024D01*
X017336Y004065D01*
X017348Y004111D01*
X017348Y004382D01*
X016960Y004382D01*
X016864Y004382D01*
X016864Y003955D01*
X016633Y003955D01*
X016587Y003967D01*
X016546Y003991D01*
X016524Y004012D01*
X016487Y003975D01*
X016083Y003975D01*
X016138Y003920D01*
X017086Y003920D01*
X017174Y003883D01*
X017242Y003816D01*
X018242Y002816D01*
X018278Y002728D01*
X018278Y002591D01*
X018498Y002371D01*
X018498Y001989D01*
X018229Y001720D01*
X017848Y001720D01*
X017578Y001989D01*
X017578Y002371D01*
X017793Y002586D01*
X016939Y003440D01*
X016118Y003440D01*
X016138Y003420D01*
X016586Y003420D01*
X016674Y003383D01*
X016742Y003316D01*
X017242Y002816D01*
X017278Y002728D01*
X017278Y002591D01*
X017498Y002371D01*
X017498Y001989D01*
X017229Y001720D01*
X016848Y001720D01*
X016578Y001989D01*
X016578Y002371D01*
X016793Y002586D01*
X016439Y002940D01*
X015991Y002940D01*
X015902Y002977D01*
X014835Y004044D01*
X014798Y004132D01*
X014798Y007101D01*
X014528Y006831D01*
X014528Y006132D01*
X014492Y006044D01*
X014424Y005977D01*
X013396Y004949D01*
X013396Y004859D01*
X013342Y004727D01*
X013241Y004626D01*
X013110Y004572D01*
X012967Y004572D01*
X012836Y004626D01*
X012735Y004727D01*
X012680Y004859D01*
X012680Y005001D01*
X012735Y005133D01*
X012836Y005234D01*
X012967Y005288D01*
X013057Y005288D01*
X014048Y006279D01*
X014048Y006851D01*
X011778Y004581D01*
X011778Y003779D01*
X012638Y002920D01*
X013086Y002920D01*
X013174Y002883D01*
X013242Y002816D01*
X013278Y002728D01*
X013278Y002591D01*
X013498Y002371D01*
X013498Y001989D01*
X013229Y001720D01*
X012848Y001720D01*
X012578Y001989D01*
X012578Y002371D01*
X012648Y002440D01*
X012491Y002440D01*
X012402Y002477D01*
X012335Y002544D01*
X012335Y002544D01*
X011335Y003544D01*
X011298Y003632D01*
X011298Y004728D01*
X011335Y004816D01*
X011402Y004883D01*
X011402Y004883D01*
X011959Y005440D01*
X010778Y005440D01*
X010778Y004632D01*
X010742Y004544D01*
X010674Y004477D01*
X010586Y004440D01*
X005491Y004440D01*
X005402Y004477D01*
X005335Y004544D01*
X004335Y005544D01*
X004298Y005632D01*
X004298Y009982D01*
X004278Y009990D01*
X004148Y010119D01*
X004078Y010288D01*
X004078Y011071D01*
X004148Y011241D01*
X004278Y011370D01*
X004447Y011440D01*
X004630Y011440D01*
X004799Y011370D01*
X004928Y011241D01*
X004998Y011071D01*
X004998Y010288D01*
X004928Y010119D01*
X004799Y009990D01*
X004778Y009982D01*
X004778Y005779D01*
X005638Y004920D01*
X010298Y004920D01*
X010298Y007081D01*
X010189Y007190D01*
X009845Y007190D01*
X009835Y007180D01*
X009888Y007126D01*
X009888Y006734D01*
X009835Y006680D01*
X009888Y006626D01*
X009888Y006234D01*
X009795Y006140D01*
X008862Y006140D01*
X008778Y006224D01*
X008778Y005919D01*
X008825Y005872D01*
X008877Y005747D01*
X008877Y005613D01*
X008825Y005488D01*
X008730Y005393D01*
X008606Y005342D01*
X008471Y005342D01*
X008347Y005393D01*
X008251Y005488D01*
X008200Y005613D01*
X008200Y005747D01*
X008251Y005872D01*
X008298Y005919D01*
X008298Y007978D01*
X008335Y008066D01*
X008402Y008133D01*
X008491Y008170D01*
X008812Y008170D01*
X008822Y008180D01*
X008768Y008234D01*
X008768Y008626D01*
X008822Y008680D01*
X008768Y008734D01*
X008768Y009126D01*
X008822Y009180D01*
X008812Y009190D01*
X007528Y009190D01*
X007528Y007544D01*
X007575Y007497D01*
X007627Y007372D01*
X007627Y007238D01*
X007575Y007113D01*
X007480Y007018D01*
X007356Y006967D01*
X007221Y006967D01*
X007097Y007018D01*
X007001Y007113D01*
X006950Y007238D01*
X006950Y007372D01*
X007001Y007497D01*
X007048Y007544D01*
X007048Y009478D01*
X007085Y009566D01*
X007152Y009633D01*
X007241Y009670D01*
X008812Y009670D01*
X008822Y009680D01*
X008768Y009734D01*
X008768Y009958D01*
X008723Y009935D01*
X008651Y009912D01*
X008576Y009900D01*
X008558Y009900D01*
X008558Y010660D01*
X008518Y010660D01*
X008058Y010660D01*
X008058Y010342D01*
X008070Y010268D01*
X008094Y010196D01*
X008128Y010128D01*
X008172Y010067D01*
X008226Y010014D01*
X008287Y009969D01*
X008354Y009935D01*
X008426Y009912D01*
X008501Y009900D01*
X008518Y009900D01*
X008518Y010660D01*
X008518Y010700D01*
X008058Y010700D01*
X008058Y011018D01*
X008070Y011092D01*
X008094Y011164D01*
X008128Y011232D01*
X008172Y011293D01*
X008226Y011346D01*
X008287Y011391D01*
X008354Y011425D01*
X008383Y011434D01*
X007998Y011723D01*
X007425Y011723D01*
X007332Y011817D01*
X007332Y011940D01*
X006638Y011940D01*
X005931Y011233D01*
X005998Y011071D01*
X005998Y010288D01*
X005928Y010119D01*
X005799Y009990D01*
X005630Y009920D01*
X005447Y009920D01*
X005278Y009990D01*
X005148Y010119D01*
X005078Y010288D01*
X005078Y011071D01*
X005148Y011241D01*
X005278Y011370D01*
X005447Y011440D01*
X005459Y011440D01*
X006335Y012316D01*
X006335Y012316D01*
X006402Y012383D01*
X006491Y012420D01*
X007332Y012420D01*
X007332Y012543D01*
X007599Y012723D02*
X007978Y012723D01*
X008245Y012991D01*
X008245Y013369D01*
X007978Y013637D01*
X007599Y013637D01*
X007332Y013369D01*
X007332Y012991D01*
X007599Y012723D01*
X007462Y012860D02*
X004217Y012860D01*
X004268Y013019D02*
X007332Y013019D01*
X007332Y013177D02*
X004268Y013177D01*
X004268Y013336D02*
X007332Y013336D01*
X007456Y013494D02*
X004219Y013494D01*
X004153Y013653D02*
X008587Y013653D01*
X008770Y013653D02*
X008807Y013653D01*
X008990Y013653D02*
X009587Y013653D01*
X009770Y013653D02*
X009807Y013653D01*
X009990Y013653D02*
X010587Y013653D01*
X010770Y013653D02*
X010807Y013653D01*
X010990Y013653D02*
X011587Y013653D01*
X011770Y013653D02*
X011807Y013653D01*
X011990Y013653D02*
X012245Y013653D01*
X012628Y013696D02*
X012806Y013518D01*
X012856Y013518D01*
X012980Y013467D01*
X013075Y013372D01*
X013127Y013247D01*
X013127Y013198D01*
X014534Y011790D01*
X017587Y011790D01*
X017631Y011808D01*
X017766Y011808D01*
X017890Y011757D01*
X017985Y011662D01*
X018037Y011537D01*
X018037Y011403D01*
X017986Y011280D01*
X018503Y011280D01*
X018516Y011288D01*
X018562Y011300D01*
X018696Y011300D01*
X018696Y010870D01*
X018696Y010870D01*
X018696Y010440D01*
X018830Y010440D01*
X018875Y010452D01*
X018889Y010460D01*
X019817Y010460D01*
X019911Y010554D01*
X019911Y010690D01*
X019982Y010690D01*
X020257Y010552D01*
X019912Y010552D01*
X019818Y010459D01*
X019818Y009780D01*
X019808Y009762D01*
X019805Y009744D01*
X019798Y009728D01*
X019798Y009697D01*
X019794Y009667D01*
X019798Y009650D01*
X019798Y009632D01*
X019810Y009604D01*
X019818Y009575D01*
X019818Y009574D01*
X019818Y009348D01*
X019746Y009378D01*
X019611Y009378D01*
X019487Y009327D01*
X019391Y009232D01*
X019340Y009107D01*
X019340Y008973D01*
X019391Y008848D01*
X019487Y008753D01*
X019611Y008702D01*
X019746Y008702D01*
X019818Y008732D01*
X019818Y007901D01*
X019912Y007808D01*
X019988Y007808D01*
X019988Y006569D01*
X019881Y006677D01*
X019881Y007144D01*
X019911Y007174D01*
X019911Y007806D01*
X019817Y007900D01*
X019204Y007900D01*
X019190Y007908D01*
X019145Y007920D01*
X019011Y007920D01*
X019011Y007490D01*
X019011Y007060D01*
X019086Y007060D01*
X019086Y006095D01*
X019122Y006007D01*
X019298Y005831D01*
X019298Y004821D01*
X019235Y004885D01*
X019152Y004885D01*
X019152Y005104D01*
X019116Y005192D01*
X018918Y005389D01*
X018918Y005726D01*
X018861Y005865D01*
X018754Y005972D01*
X018614Y006030D01*
X018463Y006030D01*
X018332Y005976D01*
X017991Y006317D01*
X017991Y007080D01*
X018188Y007080D01*
X018201Y007072D01*
X018247Y007060D01*
X018381Y007060D01*
X018515Y007060D01*
X018560Y007072D01*
X018574Y007080D01*
X018818Y007080D01*
X018831Y007072D01*
X018877Y007060D01*
X019011Y007060D01*
X019011Y007490D01*
X019011Y007490D01*
X019011Y007490D01*
X019011Y007920D01*
X018936Y007920D01*
X018936Y008070D01*
X018899Y008158D01*
X018674Y008383D01*
X018586Y008420D01*
X018278Y008420D01*
X018278Y009228D01*
X018242Y009316D01*
X018174Y009383D01*
X017991Y009567D01*
X017991Y010460D01*
X018503Y010460D01*
X018516Y010452D01*
X018562Y010440D01*
X018696Y010440D01*
X018696Y010870D01*
X018696Y010870D01*
X018696Y011300D01*
X018830Y011300D01*
X018875Y011288D01*
X018889Y011280D01*
X019817Y011280D01*
X019842Y011255D01*
X019924Y011221D01*
X019975Y011170D01*
X019999Y011170D01*
X020008Y011173D01*
X020047Y011170D01*
X020086Y011170D01*
X020094Y011167D01*
X020103Y011166D01*
X020138Y011148D01*
X020174Y011133D01*
X020181Y011127D01*
X020595Y010920D01*
X026461Y010920D01*
X026549Y010883D01*
X026617Y010816D01*
X026653Y010728D01*
X026653Y007920D01*
X027086Y007920D01*
X027174Y007883D01*
X028638Y006420D01*
X031840Y006420D01*
X031848Y006441D01*
X031978Y006570D01*
X032147Y006640D01*
X032930Y006640D01*
X033099Y006570D01*
X033178Y006490D01*
X033178Y006841D01*
X033151Y006814D01*
X033090Y006769D01*
X033023Y006735D01*
X032951Y006712D01*
X032876Y006700D01*
X032558Y006700D01*
X032558Y007160D01*
X032518Y007160D01*
X031758Y007160D01*
X031758Y007142D01*
X031770Y007068D01*
X031794Y006996D01*
X031828Y006928D01*
X031872Y006867D01*
X031926Y006814D01*
X031987Y006769D01*
X032054Y006735D01*
X032126Y006712D01*
X032201Y006700D01*
X032518Y006700D01*
X032518Y007160D01*
X032518Y007200D01*
X031758Y007200D01*
X031758Y007218D01*
X031770Y007292D01*
X031794Y007364D01*
X031828Y007432D01*
X031872Y007493D01*
X031926Y007546D01*
X031987Y007591D01*
X032054Y007625D01*
X032126Y007648D01*
X032201Y007660D01*
X032518Y007660D01*
X032518Y007200D01*
X032558Y007200D01*
X032558Y007660D01*
X032876Y007660D01*
X032951Y007648D01*
X033023Y007625D01*
X033090Y007591D01*
X033151Y007546D01*
X033178Y007519D01*
X033178Y009841D01*
X033151Y009814D01*
X033090Y009769D01*
X033023Y009735D01*
X032951Y009712D01*
X032876Y009700D01*
X032558Y009700D01*
X032558Y010160D01*
X032518Y010160D01*
X031758Y010160D01*
X031758Y010142D01*
X031770Y010068D01*
X031794Y009996D01*
X031828Y009928D01*
X031872Y009867D01*
X031926Y009814D01*
X031987Y009769D01*
X032054Y009735D01*
X032126Y009712D01*
X032201Y009700D01*
X032518Y009700D01*
X032518Y010160D01*
X032518Y010200D01*
X031758Y010200D01*
X031758Y010218D01*
X031770Y010292D01*
X031794Y010364D01*
X031828Y010432D01*
X031872Y010493D01*
X031926Y010546D01*
X031987Y010591D01*
X032054Y010625D01*
X032126Y010648D01*
X032201Y010660D01*
X032518Y010660D01*
X032518Y010200D01*
X032558Y010200D01*
X032558Y010660D01*
X032876Y010660D01*
X032951Y010648D01*
X033023Y010625D01*
X033090Y010591D01*
X033151Y010546D01*
X033178Y010519D01*
X033178Y010870D01*
X033099Y010790D01*
X032930Y010720D01*
X032147Y010720D01*
X031978Y010790D01*
X031848Y010919D01*
X031778Y011088D01*
X031778Y011271D01*
X031848Y011441D01*
X031978Y011570D01*
X032147Y011640D01*
X032930Y011640D01*
X033099Y011570D01*
X033178Y011490D01*
X033178Y012281D01*
X032983Y012200D01*
X032593Y012200D01*
X032233Y012349D01*
X031958Y012625D01*
X031808Y012985D01*
X031808Y013375D01*
X031941Y013696D01*
X031092Y013696D01*
X031108Y013664D01*
X031132Y013592D01*
X031143Y013518D01*
X031143Y013200D01*
X030683Y013200D01*
X030683Y013160D01*
X030683Y012400D01*
X030701Y012400D01*
X030776Y012412D01*
X030848Y012435D01*
X030915Y012469D01*
X030976Y012514D01*
X031030Y012567D01*
X031074Y012628D01*
X031108Y012696D01*
X031132Y012768D01*
X031143Y012842D01*
X031143Y013160D01*
X030683Y013160D01*
X030643Y013160D01*
X030183Y013160D01*
X030183Y012842D01*
X030195Y012768D01*
X030219Y012696D01*
X030253Y012628D01*
X030297Y012567D01*
X030351Y012514D01*
X030412Y012469D01*
X030479Y012435D01*
X030551Y012412D01*
X030626Y012400D01*
X030643Y012400D01*
X030643Y013160D01*
X030643Y013200D01*
X030183Y013200D01*
X030183Y013518D01*
X030195Y013592D01*
X030219Y013664D01*
X030235Y013696D01*
X030072Y013696D01*
X030123Y013571D01*
X030123Y012788D01*
X030053Y012619D01*
X029924Y012490D01*
X029755Y012420D01*
X029572Y012420D01*
X029403Y012490D01*
X029273Y012619D01*
X029203Y012788D01*
X029203Y013571D01*
X029255Y013696D01*
X029072Y013696D01*
X029123Y013571D01*
X029123Y012788D01*
X029053Y012619D01*
X028924Y012490D01*
X028755Y012420D01*
X028572Y012420D01*
X028403Y012490D01*
X028273Y012619D01*
X028203Y012788D01*
X028203Y013571D01*
X028255Y013696D01*
X028072Y013696D01*
X028123Y013571D01*
X028123Y012788D01*
X028053Y012619D01*
X027924Y012490D01*
X027755Y012420D01*
X027572Y012420D01*
X027403Y012490D01*
X027273Y012619D01*
X027203Y012788D01*
X027203Y013571D01*
X027255Y013696D01*
X027072Y013696D01*
X027123Y013571D01*
X027123Y012788D01*
X027053Y012619D01*
X026924Y012490D01*
X026755Y012420D01*
X026572Y012420D01*
X026403Y012490D01*
X026273Y012619D01*
X026203Y012788D01*
X026203Y013571D01*
X026255Y013696D01*
X026072Y013696D01*
X026123Y013571D01*
X026123Y012788D01*
X026053Y012619D01*
X025924Y012490D01*
X025755Y012420D01*
X025572Y012420D01*
X025403Y012490D01*
X025273Y012619D01*
X025203Y012788D01*
X025203Y013571D01*
X025255Y013696D01*
X025072Y013696D01*
X025123Y013571D01*
X025123Y012788D01*
X025053Y012619D01*
X024924Y012490D01*
X024755Y012420D01*
X024572Y012420D01*
X024403Y012490D01*
X024273Y012619D01*
X024203Y012788D01*
X024203Y013571D01*
X024255Y013696D01*
X024072Y013696D01*
X024123Y013571D01*
X024123Y012788D01*
X024053Y012619D01*
X023924Y012490D01*
X023755Y012420D01*
X023572Y012420D01*
X023403Y012490D01*
X023273Y012619D01*
X023203Y012788D01*
X023203Y013571D01*
X023255Y013696D01*
X023072Y013696D01*
X023123Y013571D01*
X023123Y012788D01*
X023053Y012619D01*
X022924Y012490D01*
X022755Y012420D01*
X022572Y012420D01*
X022403Y012490D01*
X022273Y012619D01*
X022203Y012788D01*
X022203Y013571D01*
X022255Y013696D01*
X022072Y013696D01*
X022123Y013571D01*
X022123Y012788D01*
X022053Y012619D01*
X021924Y012490D01*
X021755Y012420D01*
X021572Y012420D01*
X021403Y012490D01*
X021273Y012619D01*
X021203Y012788D01*
X021203Y013571D01*
X021255Y013696D01*
X021072Y013696D01*
X021123Y013571D01*
X021123Y012788D01*
X021053Y012619D01*
X020924Y012490D01*
X020755Y012420D01*
X020572Y012420D01*
X020403Y012490D01*
X020273Y012619D01*
X020203Y012788D01*
X020203Y013571D01*
X020255Y013696D01*
X020072Y013696D01*
X020123Y013571D01*
X020123Y012788D01*
X020053Y012619D01*
X019924Y012490D01*
X019755Y012420D01*
X019572Y012420D01*
X019403Y012490D01*
X019273Y012619D01*
X019203Y012788D01*
X019203Y013571D01*
X019255Y013696D01*
X019072Y013696D01*
X019123Y013571D01*
X019123Y012788D01*
X019053Y012619D01*
X018924Y012490D01*
X018755Y012420D01*
X018572Y012420D01*
X018403Y012490D01*
X018273Y012619D01*
X018203Y012788D01*
X018203Y013571D01*
X018255Y013696D01*
X018072Y013696D01*
X018123Y013571D01*
X018123Y012788D01*
X018053Y012619D01*
X017924Y012490D01*
X017755Y012420D01*
X017572Y012420D01*
X017403Y012490D01*
X017273Y012619D01*
X017203Y012788D01*
X017203Y013571D01*
X017255Y013696D01*
X017072Y013696D01*
X017123Y013571D01*
X017123Y012788D01*
X017053Y012619D01*
X016924Y012490D01*
X016755Y012420D01*
X016572Y012420D01*
X016403Y012490D01*
X016273Y012619D01*
X016203Y012788D01*
X016203Y013571D01*
X016255Y013696D01*
X016092Y013696D01*
X016108Y013664D01*
X016132Y013592D01*
X016143Y013518D01*
X016143Y013200D01*
X015683Y013200D01*
X015683Y013160D01*
X015683Y012400D01*
X015701Y012400D01*
X015776Y012412D01*
X015848Y012435D01*
X015915Y012469D01*
X015976Y012514D01*
X016030Y012567D01*
X016074Y012628D01*
X016108Y012696D01*
X016132Y012768D01*
X016143Y012842D01*
X016143Y013160D01*
X015683Y013160D01*
X015643Y013160D01*
X015183Y013160D01*
X015183Y012842D01*
X015195Y012768D01*
X015219Y012696D01*
X015253Y012628D01*
X015297Y012567D01*
X015351Y012514D01*
X015412Y012469D01*
X015479Y012435D01*
X015551Y012412D01*
X015626Y012400D01*
X015643Y012400D01*
X015643Y013160D01*
X015643Y013200D01*
X015183Y013200D01*
X015183Y013518D01*
X015195Y013592D01*
X015219Y013664D01*
X015235Y013696D01*
X012628Y013696D01*
X012672Y013653D02*
X015215Y013653D01*
X015183Y013494D02*
X012915Y013494D01*
X013090Y013336D02*
X015183Y013336D01*
X015183Y013019D02*
X013306Y013019D01*
X013147Y013177D02*
X015643Y013177D01*
X015663Y013180D02*
X015538Y012680D01*
X016038Y012180D01*
X017788Y012180D01*
X019038Y012180D01*
X018688Y011830D01*
X018688Y011110D01*
X018696Y011117D02*
X018696Y011117D01*
X018696Y011275D02*
X018696Y011275D01*
X018696Y010958D02*
X018696Y010958D01*
X018688Y010840D02*
X018688Y008410D01*
X018958Y008140D01*
X018958Y008010D01*
X018936Y007947D02*
X019818Y007947D01*
X019818Y008105D02*
X018921Y008105D01*
X018794Y008264D02*
X019818Y008264D01*
X019818Y008422D02*
X018278Y008422D01*
X018278Y008581D02*
X019818Y008581D01*
X019521Y008739D02*
X018278Y008739D01*
X018278Y008898D02*
X019371Y008898D01*
X019340Y009056D02*
X018278Y009056D01*
X018278Y009215D02*
X019384Y009215D01*
X019598Y009373D02*
X018185Y009373D01*
X018026Y009532D02*
X019818Y009532D01*
X019818Y009373D02*
X019759Y009373D01*
X020228Y009337D02*
X020881Y009337D01*
X021038Y009180D01*
X021538Y008680D01*
X022408Y008680D01*
X022908Y008180D01*
X023414Y008180D01*
X024162Y008180D02*
X024162Y009180D01*
X024578Y009215D02*
X025520Y009215D01*
X025518Y009373D02*
X024578Y009373D01*
X024578Y009532D02*
X025516Y009532D01*
X025514Y009690D02*
X021493Y009690D01*
X021163Y009680D02*
X021538Y009305D01*
X021788Y009180D01*
X023414Y009180D01*
X022998Y009532D02*
X021790Y009532D01*
X021163Y009680D02*
X020038Y009680D01*
X020228Y009652D01*
X019797Y009690D02*
X017991Y009690D01*
X017991Y009849D02*
X019818Y009849D01*
X019818Y010007D02*
X017991Y010007D01*
X017991Y010166D02*
X019818Y010166D01*
X019818Y010324D02*
X017991Y010324D01*
X017511Y010324D02*
X017258Y010324D01*
X017258Y010459D02*
X017165Y010552D01*
X016918Y010552D01*
X016837Y010633D01*
X016748Y010670D01*
X015257Y010670D01*
X015277Y010690D01*
X017015Y010690D01*
X017166Y010661D01*
X017166Y010554D01*
X017260Y010460D01*
X017511Y010460D01*
X017511Y009420D01*
X017548Y009331D01*
X017798Y009081D01*
X017798Y007900D01*
X017260Y007900D01*
X017166Y007806D01*
X017166Y007174D01*
X017196Y007144D01*
X017196Y006313D01*
X016775Y005951D01*
X016754Y005972D01*
X016614Y006030D01*
X016463Y006030D01*
X016323Y005972D01*
X016216Y005865D01*
X016158Y005726D01*
X016158Y005389D01*
X016085Y005316D01*
X016048Y005228D01*
X016048Y004885D01*
X015842Y004885D01*
X015778Y004821D01*
X015778Y007081D01*
X016138Y007440D01*
X016498Y007440D01*
X016587Y007477D01*
X016918Y007808D01*
X017165Y007808D01*
X017258Y007901D01*
X017258Y010459D01*
X017237Y010483D02*
X017235Y010483D01*
X017166Y010641D02*
X016818Y010641D01*
X016701Y010430D02*
X016848Y010282D01*
X016701Y010430D02*
X014538Y010430D01*
X014288Y010680D01*
X014288Y011180D01*
X013288Y012180D01*
X011788Y012180D01*
X012163Y011909D02*
X013220Y011909D01*
X013378Y011751D02*
X012005Y011751D01*
X010548Y011751D02*
X010399Y011751D01*
X010413Y011909D02*
X010163Y011909D01*
X010178Y011751D02*
X010005Y011751D01*
X009572Y011751D02*
X009005Y011751D01*
X009163Y011909D02*
X009413Y011909D01*
X009332Y012068D02*
X009245Y012068D01*
X009245Y012226D02*
X009332Y012226D01*
X009347Y012385D02*
X009230Y012385D01*
X009071Y012543D02*
X009505Y012543D01*
X009434Y012860D02*
X009143Y012860D01*
X009265Y013019D02*
X009312Y013019D01*
X008807Y013019D02*
X008770Y013019D01*
X008770Y012860D02*
X008807Y012860D01*
X008434Y012860D02*
X008114Y012860D01*
X008245Y013019D02*
X008312Y013019D01*
X008312Y013336D02*
X008245Y013336D01*
X008120Y013494D02*
X008428Y013494D01*
X008770Y013494D02*
X008807Y013494D01*
X008807Y013336D02*
X008770Y013336D01*
X009149Y013494D02*
X009428Y013494D01*
X009312Y013336D02*
X009265Y013336D01*
X009770Y013336D02*
X009807Y013336D01*
X009807Y013494D02*
X009770Y013494D01*
X010149Y013494D02*
X010428Y013494D01*
X010312Y013336D02*
X010265Y013336D01*
X010770Y013336D02*
X010807Y013336D01*
X010807Y013494D02*
X010770Y013494D01*
X011149Y013494D02*
X011428Y013494D01*
X011312Y013336D02*
X011265Y013336D01*
X011770Y013336D02*
X011807Y013336D01*
X011807Y013494D02*
X011770Y013494D01*
X012149Y013494D02*
X012178Y013494D01*
X012768Y013160D02*
X012788Y013180D01*
X013464Y012860D02*
X015183Y012860D01*
X015217Y012702D02*
X013623Y012702D01*
X013781Y012543D02*
X015322Y012543D01*
X015643Y012543D02*
X015683Y012543D01*
X015683Y012702D02*
X015643Y012702D01*
X015643Y012860D02*
X015683Y012860D01*
X015683Y013019D02*
X015643Y013019D01*
X015683Y013177D02*
X016203Y013177D01*
X016203Y013019D02*
X016143Y013019D01*
X016143Y012860D02*
X016203Y012860D01*
X016239Y012702D02*
X016110Y012702D01*
X016005Y012543D02*
X016350Y012543D01*
X016977Y012543D02*
X017350Y012543D01*
X017239Y012702D02*
X017087Y012702D01*
X017123Y012860D02*
X017203Y012860D01*
X017203Y013019D02*
X017123Y013019D01*
X017123Y013177D02*
X017203Y013177D01*
X017203Y013336D02*
X017123Y013336D01*
X017123Y013494D02*
X017203Y013494D01*
X017237Y013653D02*
X017090Y013653D01*
X016237Y013653D02*
X016112Y013653D01*
X016143Y013494D02*
X016203Y013494D01*
X016203Y013336D02*
X016143Y013336D01*
X018090Y013653D02*
X018237Y013653D01*
X018203Y013494D02*
X018123Y013494D01*
X018123Y013336D02*
X018203Y013336D01*
X018203Y013177D02*
X018123Y013177D01*
X018123Y013019D02*
X018203Y013019D01*
X018203Y012860D02*
X018123Y012860D01*
X018087Y012702D02*
X018239Y012702D01*
X018350Y012543D02*
X017977Y012543D01*
X018977Y012543D02*
X019350Y012543D01*
X019239Y012702D02*
X019087Y012702D01*
X019123Y012860D02*
X019203Y012860D01*
X019203Y013019D02*
X019123Y013019D01*
X019123Y013177D02*
X019203Y013177D01*
X019203Y013336D02*
X019123Y013336D01*
X019123Y013494D02*
X019203Y013494D01*
X019237Y013653D02*
X019090Y013653D01*
X020090Y013653D02*
X020237Y013653D01*
X020203Y013494D02*
X020123Y013494D01*
X020123Y013336D02*
X020203Y013336D01*
X020203Y013177D02*
X020123Y013177D01*
X020123Y013019D02*
X020203Y013019D01*
X020203Y012860D02*
X020123Y012860D01*
X020087Y012702D02*
X020239Y012702D01*
X020350Y012543D02*
X019977Y012543D01*
X019538Y012180D02*
X019038Y012180D01*
X019538Y012180D02*
X020038Y011680D01*
X022038Y011680D01*
X022538Y012180D01*
X022350Y012543D02*
X021977Y012543D01*
X022087Y012702D02*
X022239Y012702D01*
X022203Y012860D02*
X022123Y012860D01*
X022123Y013019D02*
X022203Y013019D01*
X022203Y013177D02*
X022123Y013177D01*
X022123Y013336D02*
X022203Y013336D01*
X022203Y013494D02*
X022123Y013494D01*
X022090Y013653D02*
X022237Y013653D01*
X023090Y013653D02*
X023237Y013653D01*
X023203Y013494D02*
X023123Y013494D01*
X023123Y013336D02*
X023203Y013336D01*
X023203Y013177D02*
X023123Y013177D01*
X023123Y013019D02*
X023203Y013019D01*
X023203Y012860D02*
X023123Y012860D01*
X023087Y012702D02*
X023239Y012702D01*
X023350Y012543D02*
X022977Y012543D01*
X023977Y012543D02*
X024350Y012543D01*
X024239Y012702D02*
X024087Y012702D01*
X024123Y012860D02*
X024203Y012860D01*
X024203Y013019D02*
X024123Y013019D01*
X024123Y013177D02*
X024203Y013177D01*
X024203Y013336D02*
X024123Y013336D01*
X024123Y013494D02*
X024203Y013494D01*
X024237Y013653D02*
X024090Y013653D01*
X025090Y013653D02*
X025237Y013653D01*
X025203Y013494D02*
X025123Y013494D01*
X025123Y013336D02*
X025203Y013336D01*
X025203Y013177D02*
X025123Y013177D01*
X025123Y013019D02*
X025203Y013019D01*
X025203Y012860D02*
X025123Y012860D01*
X025087Y012702D02*
X025239Y012702D01*
X025350Y012543D02*
X024977Y012543D01*
X025977Y012543D02*
X026350Y012543D01*
X026239Y012702D02*
X026087Y012702D01*
X026123Y012860D02*
X026203Y012860D01*
X026203Y013019D02*
X026123Y013019D01*
X026123Y013177D02*
X026203Y013177D01*
X026203Y013336D02*
X026123Y013336D01*
X026123Y013494D02*
X026203Y013494D01*
X026237Y013653D02*
X026090Y013653D01*
X027090Y013653D02*
X027237Y013653D01*
X027203Y013494D02*
X027123Y013494D01*
X027123Y013336D02*
X027203Y013336D01*
X027203Y013177D02*
X027123Y013177D01*
X027123Y013019D02*
X027203Y013019D01*
X027203Y012860D02*
X027123Y012860D01*
X027087Y012702D02*
X027239Y012702D01*
X027350Y012543D02*
X026977Y012543D01*
X027977Y012543D02*
X028350Y012543D01*
X028239Y012702D02*
X028087Y012702D01*
X028123Y012860D02*
X028203Y012860D01*
X028203Y013019D02*
X028123Y013019D01*
X028123Y013177D02*
X028203Y013177D01*
X028203Y013336D02*
X028123Y013336D01*
X028123Y013494D02*
X028203Y013494D01*
X028237Y013653D02*
X028090Y013653D01*
X029090Y013653D02*
X029237Y013653D01*
X029203Y013494D02*
X029123Y013494D01*
X029123Y013336D02*
X029203Y013336D01*
X029203Y013177D02*
X029123Y013177D01*
X029123Y013019D02*
X029203Y013019D01*
X029203Y012860D02*
X029123Y012860D01*
X029087Y012702D02*
X029239Y012702D01*
X029350Y012543D02*
X028977Y012543D01*
X028647Y012140D02*
X028478Y012070D01*
X028348Y011941D01*
X028278Y011771D01*
X028278Y011588D01*
X028348Y011419D01*
X028478Y011290D01*
X028647Y011220D01*
X029430Y011220D01*
X029599Y011290D01*
X029728Y011419D01*
X029798Y011588D01*
X029798Y011771D01*
X029728Y011941D01*
X029599Y012070D01*
X029430Y012140D01*
X028647Y012140D01*
X028475Y012068D02*
X014257Y012068D01*
X014098Y012226D02*
X032531Y012226D01*
X032198Y012385D02*
X013940Y012385D01*
X014415Y011909D02*
X028335Y011909D01*
X028278Y011751D02*
X017896Y011751D01*
X018014Y011592D02*
X028278Y011592D01*
X028343Y011434D02*
X018037Y011434D01*
X017348Y010870D02*
X017038Y010930D01*
X015038Y010930D01*
X014753Y010166D02*
X015730Y010166D01*
X015788Y009930D02*
X016811Y009930D01*
X016848Y009967D01*
X016821Y009680D02*
X016038Y009680D01*
X012038Y005680D01*
X010538Y005680D01*
X010538Y004680D01*
X005538Y004680D01*
X004538Y005680D01*
X004538Y010680D01*
X004078Y010641D02*
X003998Y010641D01*
X003998Y010800D02*
X004078Y010800D01*
X004078Y010958D02*
X003998Y010958D01*
X003998Y011071D02*
X003928Y011241D01*
X003799Y011370D01*
X003630Y011440D01*
X003447Y011440D01*
X003278Y011370D01*
X003148Y011241D01*
X003078Y011071D01*
X003078Y010288D01*
X003148Y010119D01*
X003278Y009990D01*
X003447Y009920D01*
X003630Y009920D01*
X003799Y009990D01*
X003928Y010119D01*
X003998Y010288D01*
X003998Y011071D01*
X003980Y011117D02*
X004097Y011117D01*
X004183Y011275D02*
X003894Y011275D01*
X003646Y011434D02*
X004431Y011434D01*
X004646Y011434D02*
X005431Y011434D01*
X005611Y011592D02*
X002768Y011592D01*
X002768Y011434D02*
X003431Y011434D01*
X003183Y011275D02*
X002768Y011275D01*
X002768Y011117D02*
X003097Y011117D01*
X003078Y010958D02*
X002768Y010958D01*
X002768Y010800D02*
X003078Y010800D01*
X003078Y010641D02*
X002768Y010641D01*
X002768Y010483D02*
X003078Y010483D01*
X003078Y010324D02*
X002768Y010324D01*
X002768Y010166D02*
X003129Y010166D01*
X003261Y010007D02*
X002768Y010007D01*
X002768Y009849D02*
X004298Y009849D01*
X004298Y009690D02*
X002768Y009690D01*
X002768Y009532D02*
X004298Y009532D01*
X004298Y009373D02*
X002768Y009373D01*
X002768Y009215D02*
X004298Y009215D01*
X004298Y009056D02*
X002768Y009056D01*
X002768Y008898D02*
X004298Y008898D01*
X004298Y008739D02*
X002768Y008739D01*
X002768Y008581D02*
X004298Y008581D01*
X004298Y008422D02*
X002768Y008422D01*
X002768Y008264D02*
X004298Y008264D01*
X004298Y008105D02*
X002768Y008105D01*
X002768Y007947D02*
X004298Y007947D01*
X004298Y007788D02*
X002768Y007788D01*
X002768Y007630D02*
X004298Y007630D01*
X004298Y007471D02*
X002768Y007471D01*
X002768Y007313D02*
X004298Y007313D01*
X004298Y007154D02*
X002768Y007154D01*
X002768Y006996D02*
X004298Y006996D01*
X004298Y006837D02*
X002768Y006837D01*
X002768Y006679D02*
X004298Y006679D01*
X004298Y006520D02*
X002768Y006520D01*
X002768Y006362D02*
X004298Y006362D01*
X004298Y006203D02*
X002768Y006203D01*
X002768Y006045D02*
X004298Y006045D01*
X004298Y005886D02*
X002768Y005886D01*
X002768Y005728D02*
X004298Y005728D01*
X004325Y005569D02*
X002768Y005569D01*
X002768Y005411D02*
X004468Y005411D01*
X004627Y005252D02*
X002768Y005252D01*
X002768Y005094D02*
X004785Y005094D01*
X004944Y004935D02*
X002768Y004935D01*
X002768Y004777D02*
X005102Y004777D01*
X005261Y004618D02*
X002768Y004618D01*
X002768Y004460D02*
X005444Y004460D01*
X005623Y004935D02*
X010298Y004935D01*
X010298Y005094D02*
X005464Y005094D01*
X005306Y005252D02*
X007070Y005252D01*
X007075Y005231D02*
X007099Y005190D01*
X007133Y005156D01*
X007174Y005132D01*
X007219Y005120D01*
X007490Y005120D01*
X007490Y005508D01*
X007063Y005508D01*
X007063Y005276D01*
X007075Y005231D01*
X007063Y005411D02*
X005147Y005411D01*
X004989Y005569D02*
X007490Y005569D01*
X007490Y005604D02*
X007490Y005508D01*
X007586Y005508D01*
X007586Y005120D01*
X007857Y005120D01*
X007903Y005132D01*
X007944Y005156D01*
X007978Y005190D01*
X008001Y005231D01*
X008014Y005276D01*
X008014Y005508D01*
X007586Y005508D01*
X007586Y005604D01*
X008014Y005604D01*
X008014Y005836D01*
X008001Y005881D01*
X007978Y005922D01*
X007956Y005944D01*
X007994Y005982D01*
X007994Y006626D01*
X007900Y006720D01*
X007818Y006720D01*
X007818Y006736D01*
X007776Y006839D01*
X007697Y006917D01*
X007594Y006960D01*
X006987Y006960D01*
X006980Y006967D01*
X006856Y007018D01*
X006721Y007018D01*
X006597Y006967D01*
X006501Y006872D01*
X006450Y006747D01*
X006450Y006613D01*
X006501Y006488D01*
X006597Y006393D01*
X006721Y006342D01*
X006856Y006342D01*
X006980Y006393D01*
X006987Y006400D01*
X007083Y006400D01*
X007083Y005982D01*
X007121Y005944D01*
X007099Y005922D01*
X007075Y005881D01*
X007063Y005836D01*
X007063Y005604D01*
X007490Y005604D01*
X007586Y005569D02*
X008218Y005569D01*
X008200Y005728D02*
X008014Y005728D01*
X007999Y005886D02*
X008266Y005886D01*
X008538Y005680D02*
X008538Y007930D01*
X009328Y007930D01*
X009888Y007947D02*
X011188Y007947D01*
X011188Y008105D02*
X009888Y008105D01*
X009888Y008126D02*
X009835Y008180D01*
X009888Y008234D01*
X009888Y008626D01*
X009835Y008680D01*
X009845Y008690D01*
X010336Y008690D01*
X010424Y008727D01*
X010674Y008977D01*
X010732Y009035D01*
X010751Y008988D01*
X010847Y008893D01*
X010971Y008842D01*
X011106Y008842D01*
X011188Y008876D01*
X011188Y008734D01*
X011242Y008680D01*
X011188Y008626D01*
X011188Y008234D01*
X011242Y008180D01*
X011188Y008126D01*
X011188Y007734D01*
X011242Y007680D01*
X011188Y007626D01*
X011188Y007234D01*
X011242Y007180D01*
X011188Y007126D01*
X011188Y006734D01*
X011228Y006694D01*
X011204Y006671D01*
X011181Y006629D01*
X011168Y006584D01*
X011168Y006430D01*
X011168Y006276D01*
X011181Y006231D01*
X011204Y006189D01*
X011238Y006156D01*
X011279Y006132D01*
X011325Y006120D01*
X011748Y006120D01*
X011748Y006430D01*
X011168Y006430D01*
X011748Y006430D01*
X011748Y006430D01*
X011748Y006430D01*
X010948Y006430D01*
X010778Y006362D02*
X011168Y006362D01*
X011168Y006520D02*
X010778Y006520D01*
X010778Y006679D02*
X011212Y006679D01*
X011188Y006837D02*
X010778Y006837D01*
X010778Y006996D02*
X011188Y006996D01*
X011216Y007154D02*
X010778Y007154D01*
X010778Y007228D02*
X010742Y007316D01*
X010674Y007383D01*
X010424Y007633D01*
X010336Y007670D01*
X009845Y007670D01*
X009835Y007680D01*
X009888Y007734D01*
X009888Y008126D01*
X009888Y008264D02*
X011188Y008264D01*
X011188Y008422D02*
X009888Y008422D01*
X009888Y008581D02*
X011188Y008581D01*
X011188Y008739D02*
X010437Y008739D01*
X010595Y008898D02*
X010842Y008898D01*
X011038Y009180D02*
X011288Y009430D01*
X011748Y009430D01*
X011748Y008930D02*
X014038Y008930D01*
X014788Y008930D01*
X015788Y009930D01*
X015526Y010007D02*
X014278Y010007D01*
X014278Y009849D02*
X015367Y009849D01*
X014324Y010166D02*
X014278Y010166D01*
X016821Y009680D02*
X016848Y009652D01*
X017258Y009690D02*
X017511Y009690D01*
X017511Y009532D02*
X017258Y009532D01*
X017258Y009373D02*
X017530Y009373D01*
X017664Y009215D02*
X017258Y009215D01*
X017258Y009056D02*
X017798Y009056D01*
X018038Y009180D02*
X018038Y008180D01*
X018538Y008180D01*
X018696Y008023D01*
X018696Y007490D01*
X018381Y007490D02*
X018381Y007490D01*
X018381Y007920D01*
X018456Y007920D01*
X018456Y007923D01*
X018439Y007940D01*
X018278Y007940D01*
X018278Y007920D01*
X018381Y007920D01*
X018381Y007490D01*
X018381Y007060D01*
X018381Y007490D01*
X018381Y007490D01*
X018381Y007471D02*
X018381Y007471D01*
X018381Y007630D02*
X018381Y007630D01*
X018381Y007788D02*
X018381Y007788D01*
X018066Y007490D02*
X018038Y007518D01*
X018038Y008180D01*
X017798Y008105D02*
X017258Y008105D01*
X017258Y007947D02*
X017798Y007947D01*
X017798Y008264D02*
X017258Y008264D01*
X017258Y008422D02*
X017798Y008422D01*
X017798Y008581D02*
X017258Y008581D01*
X017258Y008739D02*
X017798Y008739D01*
X017798Y008898D02*
X017258Y008898D01*
X016848Y009023D02*
X015881Y009023D01*
X011538Y004680D01*
X011538Y003680D01*
X012538Y002680D01*
X013038Y002680D01*
X013038Y002180D01*
X012578Y002241D02*
X012498Y002241D01*
X012498Y002371D02*
X012229Y002640D01*
X011848Y002640D01*
X011578Y002371D01*
X011578Y001989D01*
X011848Y001720D01*
X012229Y001720D01*
X012498Y001989D01*
X012498Y002371D01*
X012470Y002399D02*
X012607Y002399D01*
X012321Y002558D02*
X012311Y002558D01*
X012163Y002716D02*
X002768Y002716D01*
X002768Y002558D02*
X009765Y002558D01*
X009848Y002640D02*
X009578Y002371D01*
X009578Y001989D01*
X009848Y001720D01*
X010229Y001720D01*
X010498Y001989D01*
X010498Y002371D01*
X010229Y002640D01*
X009848Y002640D01*
X010311Y002558D02*
X010765Y002558D01*
X010848Y002640D02*
X010578Y002371D01*
X010578Y001989D01*
X010848Y001720D01*
X011229Y001720D01*
X011498Y001989D01*
X011498Y002371D01*
X011229Y002640D01*
X010848Y002640D01*
X011311Y002558D02*
X011765Y002558D01*
X011607Y002399D02*
X011470Y002399D01*
X011498Y002241D02*
X011578Y002241D01*
X011578Y002082D02*
X011498Y002082D01*
X011432Y001924D02*
X011644Y001924D01*
X011803Y001765D02*
X011274Y001765D01*
X011237Y001660D02*
X011058Y001660D01*
X011058Y001200D01*
X011018Y001200D01*
X011018Y001160D01*
X010558Y001160D01*
X010558Y000981D01*
X010840Y000700D01*
X011018Y000700D01*
X011018Y001160D01*
X011058Y001160D01*
X011058Y000700D01*
X011237Y000700D01*
X011518Y000981D01*
X011518Y001160D01*
X011058Y001160D01*
X011058Y001200D01*
X011518Y001200D01*
X011518Y001379D01*
X011237Y001660D01*
X011291Y001607D02*
X011786Y001607D01*
X011840Y001660D02*
X011558Y001379D01*
X011558Y001200D01*
X012018Y001200D01*
X012018Y001160D01*
X011558Y001160D01*
X011558Y000981D01*
X011840Y000700D01*
X012018Y000700D01*
X012018Y001160D01*
X012058Y001160D01*
X012058Y000700D01*
X012237Y000700D01*
X012518Y000981D01*
X012518Y001160D01*
X012058Y001160D01*
X012058Y001200D01*
X012018Y001200D01*
X012018Y001660D01*
X011840Y001660D01*
X012018Y001607D02*
X012058Y001607D01*
X012058Y001660D02*
X012237Y001660D01*
X012518Y001379D01*
X012518Y001200D01*
X012058Y001200D01*
X012058Y001660D01*
X012058Y001448D02*
X012018Y001448D01*
X012291Y001607D02*
X012786Y001607D01*
X012840Y001660D02*
X012558Y001379D01*
X012558Y001200D01*
X013018Y001200D01*
X013018Y001160D01*
X012558Y001160D01*
X012558Y000981D01*
X012840Y000700D01*
X013018Y000700D01*
X013018Y001160D01*
X013058Y001160D01*
X013058Y000700D01*
X013237Y000700D01*
X013518Y000981D01*
X013518Y001160D01*
X013058Y001160D01*
X013058Y001200D01*
X013018Y001200D01*
X013018Y001660D01*
X012840Y001660D01*
X012803Y001765D02*
X012274Y001765D01*
X012432Y001924D02*
X012644Y001924D01*
X012578Y002082D02*
X012498Y002082D01*
X013274Y001765D02*
X013803Y001765D01*
X013848Y001720D02*
X013578Y001989D01*
X013578Y002371D01*
X013848Y002640D01*
X014229Y002640D01*
X014498Y002371D01*
X014498Y001989D01*
X014229Y001720D01*
X013848Y001720D01*
X013840Y001660D02*
X014018Y001660D01*
X014018Y001200D01*
X014018Y001160D01*
X013558Y001160D01*
X013558Y000981D01*
X013840Y000700D01*
X014018Y000700D01*
X014018Y001160D01*
X014058Y001160D01*
X014058Y000700D01*
X014237Y000700D01*
X014518Y000981D01*
X014518Y001160D01*
X014058Y001160D01*
X014058Y001200D01*
X014018Y001200D01*
X013558Y001200D01*
X013558Y001379D01*
X013840Y001660D01*
X013786Y001607D02*
X013291Y001607D01*
X013237Y001660D02*
X013058Y001660D01*
X013058Y001200D01*
X013518Y001200D01*
X013518Y001379D01*
X013237Y001660D01*
X013058Y001607D02*
X013018Y001607D01*
X013018Y001448D02*
X013058Y001448D01*
X013449Y001448D02*
X013628Y001448D01*
X014018Y001448D02*
X014058Y001448D01*
X014058Y001607D02*
X014018Y001607D01*
X014058Y001660D02*
X014237Y001660D01*
X014518Y001379D01*
X014518Y001200D01*
X014058Y001200D01*
X014058Y001660D01*
X014291Y001607D02*
X014786Y001607D01*
X014840Y001660D02*
X014558Y001379D01*
X014558Y001200D01*
X015018Y001200D01*
X015018Y001160D01*
X014558Y001160D01*
X014558Y000981D01*
X014840Y000700D01*
X015018Y000700D01*
X015018Y001160D01*
X015058Y001160D01*
X015058Y000700D01*
X015237Y000700D01*
X015518Y000981D01*
X015518Y001160D01*
X015058Y001160D01*
X015058Y001200D01*
X015018Y001200D01*
X015018Y001660D01*
X014840Y001660D01*
X014848Y001720D02*
X015229Y001720D01*
X015498Y001989D01*
X015498Y002371D01*
X015229Y002640D01*
X014848Y002640D01*
X014578Y002371D01*
X014578Y001989D01*
X014848Y001720D01*
X014803Y001765D02*
X014274Y001765D01*
X014432Y001924D02*
X014644Y001924D01*
X014578Y002082D02*
X014498Y002082D01*
X014498Y002241D02*
X014578Y002241D01*
X014607Y002399D02*
X014470Y002399D01*
X014311Y002558D02*
X014765Y002558D01*
X015311Y002558D02*
X015765Y002558D01*
X015848Y002640D02*
X015578Y002371D01*
X015578Y001989D01*
X015848Y001720D01*
X016229Y001720D01*
X016498Y001989D01*
X016498Y002371D01*
X016229Y002640D01*
X015848Y002640D01*
X015607Y002399D02*
X015470Y002399D01*
X015498Y002241D02*
X015578Y002241D01*
X015578Y002082D02*
X015498Y002082D01*
X015432Y001924D02*
X015644Y001924D01*
X015803Y001765D02*
X015274Y001765D01*
X015237Y001660D02*
X015058Y001660D01*
X015058Y001200D01*
X015518Y001200D01*
X015518Y001379D01*
X015237Y001660D01*
X015291Y001607D02*
X015786Y001607D01*
X015840Y001660D02*
X015558Y001379D01*
X015558Y001200D01*
X016018Y001200D01*
X016018Y001160D01*
X015558Y001160D01*
X015558Y000981D01*
X015840Y000700D01*
X016018Y000700D01*
X016018Y001160D01*
X016058Y001160D01*
X016058Y000700D01*
X016237Y000700D01*
X016518Y000981D01*
X016518Y001160D01*
X016058Y001160D01*
X016058Y001200D01*
X016018Y001200D01*
X016018Y001660D01*
X015840Y001660D01*
X016018Y001607D02*
X016058Y001607D01*
X016058Y001660D02*
X016237Y001660D01*
X016518Y001379D01*
X016518Y001200D01*
X016058Y001200D01*
X016058Y001660D01*
X016058Y001448D02*
X016018Y001448D01*
X016291Y001607D02*
X016786Y001607D01*
X016840Y001660D02*
X016558Y001379D01*
X016558Y001200D01*
X017018Y001200D01*
X017018Y001160D01*
X016558Y001160D01*
X016558Y000981D01*
X016840Y000700D01*
X017018Y000700D01*
X017018Y001160D01*
X017058Y001160D01*
X017058Y000700D01*
X017237Y000700D01*
X017518Y000981D01*
X017518Y001160D01*
X017058Y001160D01*
X017058Y001200D01*
X017018Y001200D01*
X017018Y001660D01*
X016840Y001660D01*
X016803Y001765D02*
X016274Y001765D01*
X016432Y001924D02*
X016644Y001924D01*
X016578Y002082D02*
X016498Y002082D01*
X016498Y002241D02*
X016578Y002241D01*
X016607Y002399D02*
X016470Y002399D01*
X016311Y002558D02*
X016765Y002558D01*
X016663Y002716D02*
X013278Y002716D01*
X013311Y002558D02*
X013765Y002558D01*
X013607Y002399D02*
X013470Y002399D01*
X013498Y002241D02*
X013578Y002241D01*
X013578Y002082D02*
X013498Y002082D01*
X013432Y001924D02*
X013644Y001924D01*
X014449Y001448D02*
X014628Y001448D01*
X015018Y001448D02*
X015058Y001448D01*
X015058Y001607D02*
X015018Y001607D01*
X015449Y001448D02*
X015628Y001448D01*
X015558Y001290D02*
X015518Y001290D01*
X015518Y001131D02*
X015558Y001131D01*
X015567Y000973D02*
X015510Y000973D01*
X015351Y000814D02*
X015726Y000814D01*
X016018Y000814D02*
X016058Y000814D01*
X016058Y000973D02*
X016018Y000973D01*
X016018Y001131D02*
X016058Y001131D01*
X016038Y001180D02*
X017038Y001180D01*
X018038Y001180D01*
X019038Y001180D01*
X020038Y001180D01*
X021038Y001180D01*
X022038Y001180D01*
X023038Y001180D01*
X024038Y001180D01*
X025038Y001180D01*
X026038Y001180D01*
X026018Y001200D02*
X026018Y001160D01*
X025558Y001160D01*
X025558Y000981D01*
X025840Y000700D01*
X026018Y000700D01*
X026018Y001160D01*
X026058Y001160D01*
X026058Y000700D01*
X026237Y000700D01*
X026518Y000981D01*
X026518Y001160D01*
X026058Y001160D01*
X026058Y001200D01*
X026018Y001200D01*
X025558Y001200D01*
X025558Y001379D01*
X025840Y001660D01*
X026018Y001660D01*
X026018Y001200D01*
X026058Y001200D02*
X026058Y001660D01*
X026237Y001660D01*
X026518Y001379D01*
X026518Y001200D01*
X026058Y001200D01*
X026058Y001131D02*
X026018Y001131D01*
X026018Y000973D02*
X026058Y000973D01*
X026058Y000814D02*
X026018Y000814D01*
X025726Y000814D02*
X025351Y000814D01*
X025237Y000700D02*
X025518Y000981D01*
X025518Y001160D01*
X025058Y001160D01*
X025058Y000700D01*
X025237Y000700D01*
X025058Y000814D02*
X025018Y000814D01*
X025018Y000700D02*
X024840Y000700D01*
X024558Y000981D01*
X024558Y001160D01*
X025018Y001160D01*
X025018Y001200D01*
X024558Y001200D01*
X024558Y001379D01*
X024840Y001660D01*
X025018Y001660D01*
X025018Y001200D01*
X025058Y001200D01*
X025058Y001660D01*
X025237Y001660D01*
X025518Y001379D01*
X025518Y001200D01*
X025058Y001200D01*
X025058Y001160D01*
X025018Y001160D01*
X025018Y000700D01*
X024726Y000814D02*
X024351Y000814D01*
X024237Y000700D02*
X024518Y000981D01*
X024518Y001160D01*
X024058Y001160D01*
X024058Y000700D01*
X024237Y000700D01*
X024058Y000814D02*
X024018Y000814D01*
X024018Y000700D02*
X023840Y000700D01*
X023558Y000981D01*
X023558Y001160D01*
X024018Y001160D01*
X024018Y001200D01*
X023558Y001200D01*
X023558Y001379D01*
X023840Y001660D01*
X024018Y001660D01*
X024018Y001200D01*
X024058Y001200D01*
X024058Y001660D01*
X024237Y001660D01*
X024518Y001379D01*
X024518Y001200D01*
X024058Y001200D01*
X024058Y001160D01*
X024018Y001160D01*
X024018Y000700D01*
X023726Y000814D02*
X023351Y000814D01*
X023237Y000700D02*
X023518Y000981D01*
X023518Y001160D01*
X023058Y001160D01*
X023058Y000700D01*
X023237Y000700D01*
X023058Y000814D02*
X023018Y000814D01*
X023018Y000700D02*
X022840Y000700D01*
X022558Y000981D01*
X022558Y001160D01*
X023018Y001160D01*
X023018Y001200D01*
X022558Y001200D01*
X022558Y001379D01*
X022840Y001660D01*
X023018Y001660D01*
X023018Y001200D01*
X023058Y001200D01*
X023058Y001660D01*
X023237Y001660D01*
X023518Y001379D01*
X023518Y001200D01*
X023058Y001200D01*
X023058Y001160D01*
X023018Y001160D01*
X023018Y000700D01*
X022726Y000814D02*
X022351Y000814D01*
X022237Y000700D02*
X022518Y000981D01*
X022518Y001160D01*
X022058Y001160D01*
X022058Y000700D01*
X022237Y000700D01*
X022058Y000814D02*
X022018Y000814D01*
X022018Y000700D02*
X021840Y000700D01*
X021558Y000981D01*
X021558Y001160D01*
X022018Y001160D01*
X022018Y001200D01*
X021558Y001200D01*
X021558Y001379D01*
X021840Y001660D01*
X022018Y001660D01*
X022018Y001200D01*
X022058Y001200D01*
X022058Y001660D01*
X022237Y001660D01*
X022518Y001379D01*
X022518Y001200D01*
X022058Y001200D01*
X022058Y001160D01*
X022018Y001160D01*
X022018Y000700D01*
X021726Y000814D02*
X021351Y000814D01*
X021237Y000700D02*
X021518Y000981D01*
X021518Y001160D01*
X021058Y001160D01*
X021058Y000700D01*
X021237Y000700D01*
X021058Y000814D02*
X021018Y000814D01*
X021018Y000700D02*
X020840Y000700D01*
X020558Y000981D01*
X020558Y001160D01*
X021018Y001160D01*
X021018Y001200D01*
X020558Y001200D01*
X020558Y001379D01*
X020840Y001660D01*
X021018Y001660D01*
X021018Y001200D01*
X021058Y001200D01*
X021058Y001660D01*
X021237Y001660D01*
X021518Y001379D01*
X021518Y001200D01*
X021058Y001200D01*
X021058Y001160D01*
X021018Y001160D01*
X021018Y000700D01*
X020726Y000814D02*
X020351Y000814D01*
X020237Y000700D02*
X020518Y000981D01*
X020518Y001160D01*
X020058Y001160D01*
X020058Y000700D01*
X020237Y000700D01*
X020058Y000814D02*
X020018Y000814D01*
X020018Y000700D02*
X019840Y000700D01*
X019558Y000981D01*
X019558Y001160D01*
X020018Y001160D01*
X020018Y001200D01*
X019558Y001200D01*
X019558Y001379D01*
X019840Y001660D01*
X020018Y001660D01*
X020018Y001200D01*
X020058Y001200D01*
X020058Y001660D01*
X020237Y001660D01*
X020518Y001379D01*
X020518Y001200D01*
X020058Y001200D01*
X020058Y001160D01*
X020018Y001160D01*
X020018Y000700D01*
X019726Y000814D02*
X019351Y000814D01*
X019237Y000700D02*
X019518Y000981D01*
X019518Y001160D01*
X019058Y001160D01*
X019058Y000700D01*
X019237Y000700D01*
X019058Y000814D02*
X019018Y000814D01*
X019018Y000700D02*
X018840Y000700D01*
X018558Y000981D01*
X018558Y001160D01*
X019018Y001160D01*
X019018Y001200D01*
X018558Y001200D01*
X018558Y001379D01*
X018840Y001660D01*
X019018Y001660D01*
X019018Y001200D01*
X019058Y001200D01*
X019058Y001660D01*
X019237Y001660D01*
X019518Y001379D01*
X019518Y001200D01*
X019058Y001200D01*
X019058Y001160D01*
X019018Y001160D01*
X019018Y000700D01*
X018726Y000814D02*
X018351Y000814D01*
X018237Y000700D02*
X018058Y000700D01*
X018058Y001160D01*
X018018Y001160D01*
X017558Y001160D01*
X017558Y000981D01*
X017840Y000700D01*
X018018Y000700D01*
X018018Y001160D01*
X018018Y001200D01*
X017558Y001200D01*
X017558Y001379D01*
X017840Y001660D01*
X018018Y001660D01*
X018018Y001200D01*
X018058Y001200D01*
X018058Y001660D01*
X018237Y001660D01*
X018518Y001379D01*
X018518Y001200D01*
X018058Y001200D01*
X018058Y001160D01*
X018518Y001160D01*
X018518Y000981D01*
X018237Y000700D01*
X018058Y000814D02*
X018018Y000814D01*
X018018Y000973D02*
X018058Y000973D01*
X018058Y001131D02*
X018018Y001131D01*
X018038Y001180D02*
X018538Y001680D01*
X018538Y002680D01*
X018164Y003054D01*
X018164Y004430D01*
X016912Y004430D01*
X016960Y004460D02*
X018116Y004460D01*
X018116Y004618D02*
X018212Y004618D01*
X018212Y004777D02*
X018116Y004777D01*
X018276Y004935D02*
X016801Y004935D01*
X016864Y004777D02*
X016960Y004777D01*
X016960Y004618D02*
X016864Y004618D01*
X016288Y004556D02*
X016288Y005180D01*
X016538Y005430D01*
X017436Y006203D01*
X017436Y007490D01*
X017166Y007471D02*
X016573Y007471D01*
X016740Y007630D02*
X017166Y007630D01*
X017166Y007788D02*
X016898Y007788D01*
X016848Y008078D02*
X016451Y007680D01*
X016038Y007680D01*
X015538Y007180D01*
X015538Y004180D01*
X016038Y003680D01*
X017038Y003680D01*
X018038Y002680D01*
X018038Y002180D01*
X017578Y002241D02*
X017498Y002241D01*
X017498Y002082D02*
X017578Y002082D01*
X017644Y001924D02*
X017432Y001924D01*
X017274Y001765D02*
X017803Y001765D01*
X017786Y001607D02*
X017291Y001607D01*
X017237Y001660D02*
X017058Y001660D01*
X017058Y001200D01*
X017518Y001200D01*
X017518Y001379D01*
X017237Y001660D01*
X017058Y001607D02*
X017018Y001607D01*
X017018Y001448D02*
X017058Y001448D01*
X017449Y001448D02*
X017628Y001448D01*
X018018Y001448D02*
X018058Y001448D01*
X018058Y001607D02*
X018018Y001607D01*
X018291Y001607D02*
X018786Y001607D01*
X018803Y001765D02*
X018274Y001765D01*
X018432Y001924D02*
X018644Y001924D01*
X018578Y002082D02*
X018498Y002082D01*
X018498Y002241D02*
X018578Y002241D01*
X018607Y002399D02*
X018470Y002399D01*
X018311Y002558D02*
X018765Y002558D01*
X018798Y002716D02*
X018278Y002716D01*
X018183Y002875D02*
X018798Y002875D01*
X018798Y003033D02*
X018025Y003033D01*
X017866Y003192D02*
X018798Y003192D01*
X018869Y003350D02*
X017708Y003350D01*
X017549Y003509D02*
X019027Y003509D01*
X019186Y003667D02*
X017391Y003667D01*
X017232Y003826D02*
X019298Y003826D01*
X019298Y003984D02*
X019244Y003984D01*
X019778Y003984D02*
X020645Y003984D01*
X020803Y003826D02*
X019778Y003826D01*
X019778Y003667D02*
X020962Y003667D01*
X021120Y003509D02*
X019706Y003509D01*
X019548Y003350D02*
X021279Y003350D01*
X021437Y003192D02*
X019389Y003192D01*
X019278Y003033D02*
X021596Y003033D01*
X021754Y002875D02*
X019278Y002875D01*
X019278Y002716D02*
X021798Y002716D01*
X021765Y002558D02*
X021311Y002558D01*
X021229Y002640D02*
X020848Y002640D01*
X020578Y002371D01*
X020578Y001989D01*
X020848Y001720D01*
X021229Y001720D01*
X021498Y001989D01*
X021498Y002371D01*
X021229Y002640D01*
X020765Y002558D02*
X020311Y002558D01*
X020229Y002640D02*
X019848Y002640D01*
X019578Y002371D01*
X019578Y001989D01*
X019848Y001720D01*
X020229Y001720D01*
X020498Y001989D01*
X020498Y002371D01*
X020229Y002640D01*
X019765Y002558D02*
X019311Y002558D01*
X019470Y002399D02*
X019607Y002399D01*
X019578Y002241D02*
X019498Y002241D01*
X019498Y002082D02*
X019578Y002082D01*
X019644Y001924D02*
X019432Y001924D01*
X019274Y001765D02*
X019803Y001765D01*
X019786Y001607D02*
X019291Y001607D01*
X019449Y001448D02*
X019628Y001448D01*
X020018Y001448D02*
X020058Y001448D01*
X020058Y001607D02*
X020018Y001607D01*
X020291Y001607D02*
X020786Y001607D01*
X020803Y001765D02*
X020274Y001765D01*
X020432Y001924D02*
X020644Y001924D01*
X020578Y002082D02*
X020498Y002082D01*
X020498Y002241D02*
X020578Y002241D01*
X020607Y002399D02*
X020470Y002399D01*
X021470Y002399D02*
X021607Y002399D01*
X021578Y002241D02*
X021498Y002241D01*
X021498Y002082D02*
X021578Y002082D01*
X021644Y001924D02*
X021432Y001924D01*
X021274Y001765D02*
X021803Y001765D01*
X021786Y001607D02*
X021291Y001607D01*
X021449Y001448D02*
X021628Y001448D01*
X022018Y001448D02*
X022058Y001448D01*
X022058Y001607D02*
X022018Y001607D01*
X022291Y001607D02*
X022786Y001607D01*
X022803Y001765D02*
X022274Y001765D01*
X022432Y001924D02*
X022644Y001924D01*
X022578Y002082D02*
X022498Y002082D01*
X022498Y002241D02*
X022578Y002241D01*
X022607Y002399D02*
X022470Y002399D01*
X022311Y002558D02*
X022765Y002558D01*
X022663Y002716D02*
X022278Y002716D01*
X022278Y002875D02*
X022504Y002875D01*
X022346Y003033D02*
X022255Y003033D01*
X022187Y003192D02*
X022116Y003192D01*
X022029Y003350D02*
X021958Y003350D01*
X021870Y003509D02*
X021799Y003509D01*
X021712Y003667D02*
X021641Y003667D01*
X021553Y003826D02*
X021482Y003826D01*
X021395Y003984D02*
X021324Y003984D01*
X021236Y004143D02*
X021165Y004143D01*
X021078Y004301D02*
X021007Y004301D01*
X020919Y004460D02*
X020848Y004460D01*
X020761Y004618D02*
X020690Y004618D01*
X020602Y004777D02*
X020531Y004777D01*
X020444Y004935D02*
X020373Y004935D01*
X020314Y005094D02*
X020278Y005094D01*
X020278Y005252D02*
X020298Y005252D01*
X020298Y005411D02*
X020278Y005411D01*
X020278Y005569D02*
X020298Y005569D01*
X020298Y005728D02*
X020278Y005728D01*
X020278Y005886D02*
X020298Y005886D01*
X020778Y005886D02*
X020798Y005886D01*
X020798Y005728D02*
X020778Y005728D01*
X020778Y005569D02*
X020798Y005569D01*
X020798Y005411D02*
X020778Y005411D01*
X020806Y005252D02*
X020877Y005252D01*
X020964Y005094D02*
X021050Y005094D01*
X021123Y004935D02*
X021223Y004935D01*
X021281Y004777D02*
X021396Y004777D01*
X021440Y004618D02*
X021569Y004618D01*
X021598Y004460D02*
X021742Y004460D01*
X022279Y004618D02*
X022409Y004618D01*
X022452Y004460D02*
X022594Y004460D01*
X022625Y004301D02*
X022778Y004301D01*
X022798Y004143D02*
X022963Y004143D01*
X022971Y003984D02*
X023148Y003984D01*
X023144Y003826D02*
X023333Y003826D01*
X023317Y003667D02*
X023518Y003667D01*
X023490Y003509D02*
X023703Y003509D01*
X023663Y003350D02*
X023888Y003350D01*
X023836Y003192D02*
X024073Y003192D01*
X024008Y003033D02*
X024258Y003033D01*
X024183Y002875D02*
X024443Y002875D01*
X024278Y002716D02*
X024628Y002716D01*
X024765Y002558D02*
X024311Y002558D01*
X024470Y002399D02*
X024607Y002399D01*
X024578Y002241D02*
X024498Y002241D01*
X024498Y002082D02*
X024578Y002082D01*
X024644Y001924D02*
X024432Y001924D01*
X024274Y001765D02*
X024803Y001765D01*
X024786Y001607D02*
X024291Y001607D01*
X024449Y001448D02*
X024628Y001448D01*
X024058Y001448D02*
X024018Y001448D01*
X024018Y001607D02*
X024058Y001607D01*
X023786Y001607D02*
X023291Y001607D01*
X023274Y001765D02*
X023803Y001765D01*
X023644Y001924D02*
X023432Y001924D01*
X023498Y002082D02*
X023578Y002082D01*
X023578Y002241D02*
X023498Y002241D01*
X023470Y002399D02*
X023607Y002399D01*
X023765Y002558D02*
X023311Y002558D01*
X023278Y002716D02*
X023644Y002716D01*
X024038Y002680D02*
X024038Y002180D01*
X024038Y002680D02*
X021038Y005430D01*
X021038Y008180D01*
X020826Y008393D01*
X020228Y008393D01*
X020228Y008708D02*
X021011Y008708D01*
X021538Y008180D01*
X021538Y005680D01*
X025038Y002680D01*
X025038Y002180D01*
X025498Y002241D02*
X025578Y002241D01*
X025578Y002371D02*
X025578Y001989D01*
X025848Y001720D01*
X026229Y001720D01*
X026498Y001989D01*
X026498Y002371D01*
X026229Y002640D01*
X025848Y002640D01*
X025578Y002371D01*
X025607Y002399D02*
X025470Y002399D01*
X025311Y002558D02*
X025765Y002558D01*
X026311Y002558D02*
X033178Y002558D01*
X033178Y002716D02*
X025278Y002716D01*
X025183Y002875D02*
X033178Y002875D01*
X033178Y003033D02*
X024995Y003033D01*
X024810Y003192D02*
X033178Y003192D01*
X033178Y003350D02*
X024625Y003350D01*
X024441Y003509D02*
X033178Y003509D01*
X033178Y003667D02*
X024256Y003667D01*
X024071Y003826D02*
X031942Y003826D01*
X032538Y004180D02*
X030538Y004180D01*
X030038Y004680D01*
X030377Y004681D02*
X030377Y004747D01*
X030325Y004872D01*
X030257Y004940D01*
X031840Y004940D01*
X031848Y004919D01*
X031978Y004790D01*
X032147Y004720D01*
X032930Y004720D01*
X033099Y004790D01*
X033178Y004870D01*
X033178Y004490D01*
X033099Y004570D01*
X032930Y004640D01*
X032147Y004640D01*
X031978Y004570D01*
X031848Y004441D01*
X031840Y004420D01*
X030638Y004420D01*
X030377Y004681D01*
X030440Y004618D02*
X032094Y004618D01*
X032010Y004777D02*
X030365Y004777D01*
X030262Y004935D02*
X031842Y004935D01*
X032538Y005180D02*
X028538Y005180D01*
X027038Y006680D01*
X025788Y006680D01*
X025751Y009967D01*
X020228Y009967D01*
X020228Y010282D02*
X026061Y010282D01*
X026038Y007180D01*
X027038Y007180D01*
X028538Y005680D01*
X030038Y005680D01*
X030359Y005569D02*
X031977Y005569D01*
X031978Y005570D02*
X031848Y005441D01*
X031840Y005420D01*
X030257Y005420D01*
X030325Y005488D01*
X030377Y005613D01*
X030377Y005747D01*
X030325Y005872D01*
X030257Y005940D01*
X031840Y005940D01*
X031848Y005919D01*
X031978Y005790D01*
X032147Y005720D01*
X032930Y005720D01*
X033099Y005790D01*
X033178Y005870D01*
X033178Y005490D01*
X033099Y005570D01*
X032930Y005640D01*
X032147Y005640D01*
X031978Y005570D01*
X032129Y005728D02*
X030377Y005728D01*
X030311Y005886D02*
X031882Y005886D01*
X032538Y006180D02*
X028538Y006180D01*
X027038Y007680D01*
X026413Y007680D01*
X026413Y010680D01*
X020538Y010680D01*
X020038Y010930D01*
X019788Y010930D01*
X019788Y011018D01*
X019641Y010870D01*
X019911Y010641D02*
X020080Y010641D01*
X019842Y010483D02*
X019840Y010483D01*
X020519Y010958D02*
X031832Y010958D01*
X031778Y011117D02*
X020202Y011117D01*
X019822Y011275D02*
X028514Y011275D01*
X029563Y011275D02*
X031780Y011275D01*
X031845Y011434D02*
X029734Y011434D01*
X029798Y011592D02*
X032031Y011592D01*
X033046Y011592D02*
X033178Y011592D01*
X033178Y011751D02*
X029798Y011751D01*
X029741Y011909D02*
X033178Y011909D01*
X033178Y012068D02*
X029601Y012068D01*
X029977Y012543D02*
X030322Y012543D01*
X030217Y012702D02*
X030087Y012702D01*
X030123Y012860D02*
X030183Y012860D01*
X030183Y013019D02*
X030123Y013019D01*
X030123Y013177D02*
X030643Y013177D01*
X030683Y013177D02*
X031808Y013177D01*
X031808Y013019D02*
X031143Y013019D01*
X031143Y012860D02*
X031860Y012860D01*
X031926Y012702D02*
X031110Y012702D01*
X031005Y012543D02*
X032039Y012543D01*
X033046Y012226D02*
X033178Y012226D01*
X031808Y013336D02*
X031143Y013336D01*
X031143Y013494D02*
X031858Y013494D01*
X031923Y013653D02*
X031112Y013653D01*
X030215Y013653D02*
X030090Y013653D01*
X030123Y013494D02*
X030183Y013494D01*
X030183Y013336D02*
X030123Y013336D01*
X030643Y013019D02*
X030683Y013019D01*
X030683Y012860D02*
X030643Y012860D01*
X030643Y012702D02*
X030683Y012702D01*
X030683Y012543D02*
X030643Y012543D01*
X031968Y010800D02*
X026624Y010800D01*
X026653Y010641D02*
X032104Y010641D01*
X032518Y010641D02*
X032558Y010641D01*
X032973Y010641D02*
X033178Y010641D01*
X033178Y010800D02*
X033108Y010800D01*
X032558Y010483D02*
X032518Y010483D01*
X032518Y010324D02*
X032558Y010324D01*
X032518Y010166D02*
X030459Y010166D01*
X030428Y010241D02*
X030498Y010071D01*
X030498Y009288D01*
X030428Y009119D01*
X030299Y008990D01*
X030130Y008920D01*
X029947Y008920D01*
X029778Y008990D01*
X029648Y009119D01*
X029578Y009288D01*
X029578Y010071D01*
X029648Y010241D01*
X029778Y010370D01*
X029947Y010440D01*
X030130Y010440D01*
X030299Y010370D01*
X030428Y010241D01*
X030345Y010324D02*
X031780Y010324D01*
X031865Y010483D02*
X026653Y010483D01*
X026653Y010324D02*
X027704Y010324D01*
X027726Y010346D02*
X027672Y010293D01*
X027628Y010232D01*
X027594Y010164D01*
X027570Y010092D01*
X027558Y010018D01*
X027558Y009700D01*
X028018Y009700D01*
X028018Y009660D01*
X027558Y009660D01*
X027558Y009342D01*
X027570Y009268D01*
X027594Y009196D01*
X027628Y009128D01*
X027672Y009067D01*
X027726Y009014D01*
X027787Y008969D01*
X027854Y008935D01*
X027926Y008912D01*
X028001Y008900D01*
X028018Y008900D01*
X028018Y009660D01*
X028058Y009660D01*
X028058Y008900D01*
X028076Y008900D01*
X028151Y008912D01*
X028223Y008935D01*
X028290Y008969D01*
X028351Y009014D01*
X028405Y009067D01*
X028449Y009128D01*
X028483Y009196D01*
X028507Y009268D01*
X028518Y009342D01*
X028518Y009660D01*
X028058Y009660D01*
X028058Y009700D01*
X028018Y009700D01*
X028018Y010460D01*
X028001Y010460D01*
X027926Y010448D01*
X027854Y010425D01*
X027787Y010391D01*
X027726Y010346D01*
X028018Y010324D02*
X028058Y010324D01*
X028058Y010460D02*
X028058Y009700D01*
X028518Y009700D01*
X028518Y010018D01*
X028507Y010092D01*
X028483Y010164D01*
X028449Y010232D01*
X028405Y010293D01*
X028351Y010346D01*
X028290Y010391D01*
X028223Y010425D01*
X028151Y010448D01*
X028076Y010460D01*
X028058Y010460D01*
X028373Y010324D02*
X029732Y010324D01*
X029617Y010166D02*
X028483Y010166D01*
X028518Y010007D02*
X029578Y010007D01*
X029578Y009849D02*
X028518Y009849D01*
X028058Y009849D02*
X028018Y009849D01*
X028018Y010007D02*
X028058Y010007D01*
X028058Y010166D02*
X028018Y010166D01*
X027594Y010166D02*
X026653Y010166D01*
X026653Y010007D02*
X027558Y010007D01*
X027558Y009849D02*
X026653Y009849D01*
X026653Y009690D02*
X028018Y009690D01*
X028058Y009690D02*
X029578Y009690D01*
X029578Y009532D02*
X028518Y009532D01*
X028518Y009373D02*
X029578Y009373D01*
X029609Y009215D02*
X028489Y009215D01*
X028393Y009056D02*
X029712Y009056D01*
X030365Y009056D02*
X033178Y009056D01*
X033178Y009215D02*
X030468Y009215D01*
X030498Y009373D02*
X033178Y009373D01*
X033178Y009532D02*
X030498Y009532D01*
X030498Y009690D02*
X033178Y009690D01*
X032558Y009849D02*
X032518Y009849D01*
X032518Y010007D02*
X032558Y010007D01*
X031891Y009849D02*
X030498Y009849D01*
X030498Y010007D02*
X031790Y010007D01*
X033178Y008898D02*
X026653Y008898D01*
X026653Y008739D02*
X033178Y008739D01*
X033178Y008581D02*
X026653Y008581D01*
X026653Y008422D02*
X033178Y008422D01*
X033178Y008264D02*
X026653Y008264D01*
X026653Y008105D02*
X033178Y008105D01*
X033178Y007947D02*
X026653Y007947D01*
X027270Y007788D02*
X033178Y007788D01*
X033178Y007630D02*
X033008Y007630D01*
X032558Y007630D02*
X032518Y007630D01*
X032518Y007471D02*
X032558Y007471D01*
X032558Y007313D02*
X032518Y007313D01*
X032518Y007154D02*
X032558Y007154D01*
X032558Y006996D02*
X032518Y006996D01*
X032518Y006837D02*
X032558Y006837D01*
X033174Y006837D02*
X033178Y006837D01*
X033178Y006679D02*
X028379Y006679D01*
X028221Y006837D02*
X031903Y006837D01*
X031794Y006996D02*
X028062Y006996D01*
X027904Y007154D02*
X031758Y007154D01*
X031777Y007313D02*
X027745Y007313D01*
X027587Y007471D02*
X031857Y007471D01*
X032069Y007630D02*
X027428Y007630D01*
X025538Y007630D02*
X024398Y007630D01*
X024283Y007471D02*
X025539Y007471D01*
X025541Y007313D02*
X023407Y007313D01*
X023539Y007154D02*
X025543Y007154D01*
X025545Y006996D02*
X023671Y006996D01*
X023803Y006837D02*
X025547Y006837D01*
X025548Y006679D02*
X023935Y006679D01*
X024067Y006520D02*
X025609Y006520D01*
X024377Y006203D02*
X027176Y006203D01*
X027334Y006045D02*
X024349Y006045D01*
X024038Y006180D02*
X022788Y007680D01*
X024158Y007680D01*
X024162Y007934D01*
X024548Y007788D02*
X025536Y007788D01*
X025534Y007947D02*
X024578Y007947D01*
X024578Y008105D02*
X025532Y008105D01*
X025530Y008264D02*
X024578Y008264D01*
X024578Y008422D02*
X025529Y008422D01*
X025527Y008581D02*
X024539Y008581D01*
X024499Y008739D02*
X025525Y008739D01*
X025523Y008898D02*
X024578Y008898D01*
X024578Y009056D02*
X025521Y009056D01*
X026653Y009056D02*
X027684Y009056D01*
X027587Y009215D02*
X026653Y009215D01*
X026653Y009373D02*
X027558Y009373D01*
X027558Y009532D02*
X026653Y009532D01*
X028018Y009532D02*
X028058Y009532D01*
X028058Y009373D02*
X028018Y009373D01*
X028018Y009215D02*
X028058Y009215D01*
X028058Y009056D02*
X028018Y009056D01*
X023046Y006996D02*
X022438Y006996D01*
X022438Y007154D02*
X022914Y007154D01*
X022782Y007313D02*
X022438Y007313D01*
X021958Y007313D02*
X021778Y007313D01*
X021778Y007154D02*
X021958Y007154D01*
X021958Y006996D02*
X021778Y006996D01*
X021778Y006837D02*
X021958Y006837D01*
X021958Y006679D02*
X021778Y006679D01*
X021778Y006520D02*
X021958Y006520D01*
X021958Y006362D02*
X021778Y006362D01*
X021778Y006203D02*
X021958Y006203D01*
X021958Y006045D02*
X021778Y006045D01*
X021298Y006045D02*
X021278Y006045D01*
X021278Y006203D02*
X021298Y006203D01*
X021298Y006362D02*
X021278Y006362D01*
X021278Y006520D02*
X021298Y006520D01*
X021298Y006679D02*
X021278Y006679D01*
X021278Y006837D02*
X021298Y006837D01*
X021298Y006996D02*
X021278Y006996D01*
X021278Y007154D02*
X021298Y007154D01*
X021298Y007313D02*
X021278Y007313D01*
X021278Y007471D02*
X021298Y007471D01*
X021298Y007630D02*
X021278Y007630D01*
X021278Y007788D02*
X021298Y007788D01*
X021298Y007947D02*
X021278Y007947D01*
X021778Y007947D02*
X021875Y007947D01*
X021860Y008105D02*
X021778Y008105D01*
X021764Y008264D02*
X021933Y008264D01*
X021636Y008422D02*
X022327Y008422D01*
X022463Y008264D02*
X022485Y008264D01*
X022537Y008105D02*
X022644Y008105D01*
X022576Y007947D02*
X022522Y007947D01*
X022467Y007788D02*
X022438Y007788D01*
X022438Y007630D02*
X022450Y007630D01*
X022438Y007471D02*
X022519Y007471D01*
X021958Y007471D02*
X021778Y007471D01*
X021778Y007630D02*
X021958Y007630D01*
X021958Y007788D02*
X021778Y007788D01*
X022198Y008050D02*
X022198Y005695D01*
X022513Y005569D02*
X027810Y005569D01*
X027968Y005411D02*
X022392Y005411D01*
X022406Y005252D02*
X028127Y005252D01*
X028285Y005094D02*
X022591Y005094D01*
X022776Y004935D02*
X029815Y004935D01*
X029712Y004777D02*
X022961Y004777D01*
X023146Y004618D02*
X029700Y004618D01*
X029780Y004460D02*
X023331Y004460D01*
X023516Y004301D02*
X030078Y004301D01*
X030236Y004143D02*
X023701Y004143D01*
X023886Y003984D02*
X030395Y003984D01*
X030598Y004460D02*
X031867Y004460D01*
X032983Y004618D02*
X033178Y004618D01*
X033178Y004777D02*
X033066Y004777D01*
X033100Y005569D02*
X033178Y005569D01*
X033178Y005728D02*
X032948Y005728D01*
X033149Y006520D02*
X033178Y006520D01*
X031928Y006520D02*
X028538Y006520D01*
X027017Y006362D02*
X024330Y006362D01*
X023700Y006203D02*
X022438Y006203D01*
X022438Y006045D02*
X023728Y006045D01*
X023864Y005886D02*
X022486Y005886D01*
X022537Y005728D02*
X027651Y005728D01*
X027493Y005886D02*
X024213Y005886D01*
X023575Y006362D02*
X022438Y006362D01*
X022438Y006520D02*
X023443Y006520D01*
X023311Y006679D02*
X022438Y006679D01*
X022438Y006837D02*
X023178Y006837D01*
X021911Y005886D02*
X021778Y005886D01*
X021852Y005728D02*
X021860Y005728D01*
X021325Y005569D02*
X021278Y005569D01*
X021278Y005728D02*
X021298Y005728D01*
X021298Y005886D02*
X021278Y005886D01*
X020798Y006045D02*
X020778Y006045D01*
X020778Y006203D02*
X020798Y006203D01*
X020798Y006362D02*
X020696Y006362D01*
X020798Y006520D02*
X020538Y006520D01*
X020468Y006679D02*
X020798Y006679D01*
X020798Y006837D02*
X020468Y006837D01*
X020468Y006996D02*
X020798Y006996D01*
X020798Y007154D02*
X020468Y007154D01*
X020468Y007313D02*
X020798Y007313D01*
X020798Y007471D02*
X020468Y007471D01*
X020468Y007630D02*
X020798Y007630D01*
X020798Y007788D02*
X020468Y007788D01*
X020638Y007947D02*
X020798Y007947D01*
X020774Y008105D02*
X020638Y008105D01*
X020228Y008078D02*
X020228Y006490D01*
X020538Y006180D01*
X020538Y005180D01*
X023038Y002680D01*
X023038Y002180D01*
X022038Y002180D02*
X022038Y002930D01*
X020038Y004930D01*
X020038Y006180D01*
X019641Y006578D01*
X019641Y007490D01*
X019911Y007471D02*
X019988Y007471D01*
X019988Y007630D02*
X019911Y007630D01*
X019911Y007788D02*
X019988Y007788D01*
X019326Y007490D02*
X019326Y006143D01*
X019538Y005930D01*
X019538Y003680D01*
X019038Y003180D01*
X019038Y002180D01*
X019018Y001607D02*
X019058Y001607D01*
X019058Y001448D02*
X019018Y001448D01*
X018628Y001448D02*
X018449Y001448D01*
X018518Y001290D02*
X018558Y001290D01*
X018558Y001131D02*
X018518Y001131D01*
X018510Y000973D02*
X018567Y000973D01*
X019018Y000973D02*
X019058Y000973D01*
X019058Y001131D02*
X019018Y001131D01*
X019018Y001290D02*
X019058Y001290D01*
X019518Y001290D02*
X019558Y001290D01*
X019558Y001131D02*
X019518Y001131D01*
X019510Y000973D02*
X019567Y000973D01*
X020018Y000973D02*
X020058Y000973D01*
X020058Y001131D02*
X020018Y001131D01*
X020018Y001290D02*
X020058Y001290D01*
X020518Y001290D02*
X020558Y001290D01*
X020558Y001131D02*
X020518Y001131D01*
X020510Y000973D02*
X020567Y000973D01*
X021018Y000973D02*
X021058Y000973D01*
X021058Y001131D02*
X021018Y001131D01*
X021018Y001290D02*
X021058Y001290D01*
X021518Y001290D02*
X021558Y001290D01*
X021558Y001131D02*
X021518Y001131D01*
X021510Y000973D02*
X021567Y000973D01*
X022018Y000973D02*
X022058Y000973D01*
X022058Y001131D02*
X022018Y001131D01*
X022018Y001290D02*
X022058Y001290D01*
X022518Y001290D02*
X022558Y001290D01*
X022558Y001131D02*
X022518Y001131D01*
X022510Y000973D02*
X022567Y000973D01*
X023018Y000973D02*
X023058Y000973D01*
X023058Y001131D02*
X023018Y001131D01*
X023018Y001290D02*
X023058Y001290D01*
X023518Y001290D02*
X023558Y001290D01*
X023558Y001131D02*
X023518Y001131D01*
X023510Y000973D02*
X023567Y000973D01*
X024018Y000973D02*
X024058Y000973D01*
X024058Y001131D02*
X024018Y001131D01*
X024018Y001290D02*
X024058Y001290D01*
X024518Y001290D02*
X024558Y001290D01*
X024558Y001131D02*
X024518Y001131D01*
X024510Y000973D02*
X024567Y000973D01*
X025018Y000973D02*
X025058Y000973D01*
X025058Y001131D02*
X025018Y001131D01*
X025018Y001290D02*
X025058Y001290D01*
X025518Y001290D02*
X025558Y001290D01*
X025558Y001131D02*
X025518Y001131D01*
X025510Y000973D02*
X025567Y000973D01*
X026018Y001290D02*
X026058Y001290D01*
X026518Y001290D02*
X031808Y001290D01*
X031808Y001131D02*
X026518Y001131D01*
X026510Y000973D02*
X031814Y000973D01*
X031879Y000814D02*
X026351Y000814D01*
X026449Y001448D02*
X031839Y001448D01*
X031904Y001607D02*
X026291Y001607D01*
X026274Y001765D02*
X031987Y001765D01*
X032146Y001924D02*
X026432Y001924D01*
X026498Y002082D02*
X032405Y002082D01*
X033172Y002082D02*
X033178Y002082D01*
X033178Y002241D02*
X026498Y002241D01*
X026470Y002399D02*
X033178Y002399D01*
X033134Y003826D02*
X033178Y003826D01*
X026058Y001607D02*
X026018Y001607D01*
X026018Y001448D02*
X026058Y001448D01*
X025786Y001607D02*
X025291Y001607D01*
X025274Y001765D02*
X025803Y001765D01*
X025644Y001924D02*
X025432Y001924D01*
X025498Y002082D02*
X025578Y002082D01*
X025058Y001607D02*
X025018Y001607D01*
X025018Y001448D02*
X025058Y001448D01*
X025449Y001448D02*
X025628Y001448D01*
X023628Y001448D02*
X023449Y001448D01*
X023058Y001448D02*
X023018Y001448D01*
X023018Y001607D02*
X023058Y001607D01*
X022628Y001448D02*
X022449Y001448D01*
X021058Y001448D02*
X021018Y001448D01*
X021018Y001607D02*
X021058Y001607D01*
X020628Y001448D02*
X020449Y001448D01*
X018058Y001290D02*
X018018Y001290D01*
X017558Y001290D02*
X017518Y001290D01*
X017518Y001131D02*
X017558Y001131D01*
X017567Y000973D02*
X017510Y000973D01*
X017351Y000814D02*
X017726Y000814D01*
X017058Y000814D02*
X017018Y000814D01*
X017018Y000973D02*
X017058Y000973D01*
X017058Y001131D02*
X017018Y001131D01*
X017018Y001290D02*
X017058Y001290D01*
X016558Y001290D02*
X016518Y001290D01*
X016518Y001131D02*
X016558Y001131D01*
X016567Y000973D02*
X016510Y000973D01*
X016351Y000814D02*
X016726Y000814D01*
X016038Y001180D02*
X015038Y001180D01*
X014038Y001180D01*
X013038Y001180D01*
X012038Y001180D01*
X011038Y001180D01*
X010038Y001180D01*
X010018Y001200D02*
X010018Y001160D01*
X009558Y001160D01*
X009558Y000981D01*
X009840Y000700D01*
X010018Y000700D01*
X010018Y001160D01*
X010058Y001160D01*
X010058Y000700D01*
X010237Y000700D01*
X010518Y000981D01*
X010518Y001160D01*
X010058Y001160D01*
X010058Y001200D01*
X010018Y001200D01*
X009558Y001200D01*
X009558Y001379D01*
X009840Y001660D01*
X010018Y001660D01*
X010018Y001200D01*
X010058Y001200D02*
X010058Y001660D01*
X010237Y001660D01*
X010518Y001379D01*
X010518Y001200D01*
X010058Y001200D01*
X010058Y001131D02*
X010018Y001131D01*
X010018Y000973D02*
X010058Y000973D01*
X010058Y000814D02*
X010018Y000814D01*
X009726Y000814D02*
X004198Y000814D01*
X004263Y000973D02*
X009567Y000973D01*
X009558Y001131D02*
X004268Y001131D01*
X004268Y001290D02*
X009558Y001290D01*
X010018Y001290D02*
X010058Y001290D01*
X010058Y001448D02*
X010018Y001448D01*
X010018Y001607D02*
X010058Y001607D01*
X010291Y001607D02*
X010786Y001607D01*
X010840Y001660D02*
X010558Y001379D01*
X010558Y001200D01*
X011018Y001200D01*
X011018Y001660D01*
X010840Y001660D01*
X010803Y001765D02*
X010274Y001765D01*
X010432Y001924D02*
X010644Y001924D01*
X010578Y002082D02*
X010498Y002082D01*
X010498Y002241D02*
X010578Y002241D01*
X010607Y002399D02*
X010470Y002399D01*
X009607Y002399D02*
X002768Y002399D01*
X002768Y002241D02*
X009578Y002241D01*
X009578Y002082D02*
X003672Y002082D01*
X003931Y001924D02*
X009644Y001924D01*
X009803Y001765D02*
X004089Y001765D01*
X004172Y001607D02*
X009786Y001607D01*
X009628Y001448D02*
X004238Y001448D01*
X002905Y002082D02*
X002768Y002082D01*
X002768Y002875D02*
X012004Y002875D01*
X011846Y003033D02*
X002768Y003033D01*
X002768Y003192D02*
X011687Y003192D01*
X011529Y003350D02*
X002768Y003350D01*
X002768Y003509D02*
X011370Y003509D01*
X011298Y003667D02*
X002768Y003667D01*
X002768Y003826D02*
X011298Y003826D01*
X011298Y003984D02*
X002768Y003984D01*
X002768Y004143D02*
X011298Y004143D01*
X011298Y004301D02*
X002768Y004301D01*
X004830Y005728D02*
X007063Y005728D01*
X007078Y005886D02*
X004778Y005886D01*
X004778Y006045D02*
X007083Y006045D01*
X007083Y006203D02*
X004778Y006203D01*
X004778Y006362D02*
X006673Y006362D01*
X006904Y006362D02*
X007083Y006362D01*
X006488Y006520D02*
X004778Y006520D01*
X004778Y006679D02*
X006450Y006679D01*
X006487Y006837D02*
X004778Y006837D01*
X004778Y006996D02*
X006666Y006996D01*
X006911Y006996D02*
X007151Y006996D01*
X006985Y007154D02*
X004778Y007154D01*
X004778Y007313D02*
X006950Y007313D01*
X007288Y007305D02*
X007288Y009430D01*
X009328Y009430D01*
X009888Y009373D02*
X010298Y009373D01*
X010298Y009279D02*
X010298Y010440D01*
X009805Y010440D01*
X009741Y010376D01*
X009610Y010322D01*
X009467Y010322D01*
X009336Y010376D01*
X009235Y010477D01*
X009180Y010609D01*
X009180Y010751D01*
X009235Y010883D01*
X009336Y010984D01*
X009467Y011038D01*
X009610Y011038D01*
X009741Y010984D01*
X009805Y010920D01*
X010439Y010920D01*
X010548Y011029D01*
X010548Y011211D01*
X010480Y011143D01*
X010356Y011092D01*
X010221Y011092D01*
X010097Y011143D01*
X010050Y011190D01*
X008970Y011190D01*
X008983Y011164D01*
X009007Y011092D01*
X009018Y011018D01*
X009018Y010700D01*
X008558Y010700D01*
X008558Y010660D01*
X009018Y010660D01*
X009018Y010342D01*
X009007Y010268D01*
X008991Y010220D01*
X009795Y010220D01*
X009888Y010126D01*
X009888Y009734D01*
X009835Y009680D01*
X009888Y009626D01*
X009888Y009234D01*
X009835Y009180D01*
X009845Y009170D01*
X010189Y009170D01*
X010298Y009279D01*
X010233Y009215D02*
X009869Y009215D01*
X009888Y009532D02*
X010298Y009532D01*
X010298Y009690D02*
X009845Y009690D01*
X009888Y009849D02*
X010298Y009849D01*
X010298Y010007D02*
X009888Y010007D01*
X009849Y010166D02*
X010298Y010166D01*
X010298Y010324D02*
X009615Y010324D01*
X009462Y010324D02*
X009016Y010324D01*
X009018Y010483D02*
X009233Y010483D01*
X009180Y010641D02*
X009018Y010641D01*
X009018Y010800D02*
X009200Y010800D01*
X009310Y010958D02*
X009018Y010958D01*
X008999Y011117D02*
X010161Y011117D01*
X010416Y011117D02*
X010548Y011117D01*
X010477Y010958D02*
X009767Y010958D01*
X009538Y010680D02*
X010538Y010680D01*
X010788Y010930D01*
X010538Y010680D02*
X010538Y009180D01*
X010288Y008930D01*
X009328Y008930D01*
X008768Y008898D02*
X007528Y008898D01*
X007528Y008739D02*
X008768Y008739D01*
X008768Y008581D02*
X007528Y008581D01*
X007528Y008422D02*
X008768Y008422D01*
X008768Y008264D02*
X007528Y008264D01*
X007528Y008105D02*
X008374Y008105D01*
X008298Y007947D02*
X007528Y007947D01*
X007528Y007788D02*
X008298Y007788D01*
X008298Y007630D02*
X007528Y007630D01*
X007586Y007471D02*
X008298Y007471D01*
X008298Y007313D02*
X007627Y007313D01*
X007592Y007154D02*
X008298Y007154D01*
X008298Y006996D02*
X007426Y006996D01*
X007537Y006679D02*
X007538Y006680D01*
X007537Y006679D02*
X007538Y006304D01*
X007994Y006362D02*
X008298Y006362D01*
X008298Y006520D02*
X007994Y006520D01*
X007941Y006679D02*
X008298Y006679D01*
X008298Y006837D02*
X007776Y006837D01*
X007994Y006203D02*
X008298Y006203D01*
X008298Y006045D02*
X007994Y006045D01*
X008778Y006045D02*
X010298Y006045D01*
X010298Y006203D02*
X009858Y006203D01*
X009888Y006362D02*
X010298Y006362D01*
X010298Y006520D02*
X009888Y006520D01*
X009836Y006679D02*
X010298Y006679D01*
X010298Y006837D02*
X009888Y006837D01*
X009888Y006996D02*
X010298Y006996D01*
X010225Y007154D02*
X009861Y007154D01*
X010288Y007430D02*
X009328Y007430D01*
X009888Y007788D02*
X011188Y007788D01*
X011192Y007630D02*
X010428Y007630D01*
X010587Y007471D02*
X011188Y007471D01*
X011188Y007313D02*
X010743Y007313D01*
X010778Y007228D02*
X010778Y005920D01*
X011939Y005920D01*
X012139Y006120D01*
X011748Y006120D01*
X011748Y006430D01*
X012328Y006430D01*
X012328Y006584D01*
X012316Y006629D01*
X012292Y006671D01*
X012269Y006694D01*
X012308Y006734D01*
X012308Y007126D01*
X012255Y007180D01*
X012308Y007234D01*
X012308Y007626D01*
X012255Y007680D01*
X012308Y007734D01*
X012308Y008126D01*
X012255Y008180D01*
X012308Y008234D01*
X012308Y008626D01*
X012255Y008680D01*
X012265Y008690D01*
X014709Y008690D01*
X012328Y006309D01*
X012328Y006430D01*
X011748Y006430D01*
X011748Y006430D01*
X011748Y006362D02*
X011748Y006362D01*
X011748Y006203D02*
X011748Y006203D01*
X012063Y006045D02*
X010778Y006045D01*
X010778Y006203D02*
X011197Y006203D01*
X010298Y005886D02*
X008811Y005886D01*
X008877Y005728D02*
X010298Y005728D01*
X010298Y005569D02*
X008859Y005569D01*
X008747Y005411D02*
X010298Y005411D01*
X010298Y005252D02*
X008007Y005252D01*
X008014Y005411D02*
X008329Y005411D01*
X007586Y005411D02*
X007490Y005411D01*
X007490Y005252D02*
X007586Y005252D01*
X008778Y006203D02*
X008799Y006203D01*
X010538Y005680D02*
X010538Y007180D01*
X010288Y007430D01*
X012281Y007154D02*
X013173Y007154D01*
X013331Y007313D02*
X012308Y007313D01*
X012308Y007471D02*
X013490Y007471D01*
X013648Y007630D02*
X012305Y007630D01*
X012308Y007788D02*
X013807Y007788D01*
X013965Y007947D02*
X012308Y007947D01*
X012308Y008105D02*
X014124Y008105D01*
X014282Y008264D02*
X012308Y008264D01*
X012308Y008422D02*
X014441Y008422D01*
X014599Y008581D02*
X012308Y008581D01*
X015038Y007180D02*
X016038Y008180D01*
X016288Y008180D01*
X016538Y008430D01*
X016811Y008430D01*
X016848Y008393D01*
X016821Y008680D02*
X016038Y008680D01*
X014288Y006930D01*
X014288Y006180D01*
X013038Y004930D01*
X012680Y004935D02*
X012133Y004935D01*
X012291Y005094D02*
X012718Y005094D01*
X012880Y005252D02*
X012450Y005252D01*
X012608Y005411D02*
X013179Y005411D01*
X013338Y005569D02*
X012767Y005569D01*
X012925Y005728D02*
X013496Y005728D01*
X013655Y005886D02*
X013084Y005886D01*
X013242Y006045D02*
X013813Y006045D01*
X013972Y006203D02*
X013401Y006203D01*
X013559Y006362D02*
X014048Y006362D01*
X014048Y006520D02*
X013718Y006520D01*
X013876Y006679D02*
X014048Y006679D01*
X014035Y006837D02*
X014048Y006837D01*
X014535Y006837D02*
X014798Y006837D01*
X014798Y006679D02*
X014528Y006679D01*
X014528Y006520D02*
X014798Y006520D01*
X014798Y006362D02*
X014528Y006362D01*
X014528Y006203D02*
X014798Y006203D01*
X014798Y006045D02*
X014492Y006045D01*
X014334Y005886D02*
X014798Y005886D01*
X014798Y005728D02*
X014175Y005728D01*
X014017Y005569D02*
X014798Y005569D01*
X014798Y005411D02*
X013858Y005411D01*
X013700Y005252D02*
X014798Y005252D01*
X014798Y005094D02*
X013541Y005094D01*
X013396Y004935D02*
X014798Y004935D01*
X014798Y004777D02*
X013362Y004777D01*
X013221Y004618D02*
X014798Y004618D01*
X014798Y004460D02*
X011778Y004460D01*
X011816Y004618D02*
X012856Y004618D01*
X012714Y004777D02*
X011974Y004777D01*
X011612Y005094D02*
X010778Y005094D01*
X010778Y005252D02*
X011771Y005252D01*
X011929Y005411D02*
X010778Y005411D01*
X010778Y004935D02*
X011454Y004935D01*
X011319Y004777D02*
X010778Y004777D01*
X010772Y004618D02*
X011298Y004618D01*
X011298Y004460D02*
X010633Y004460D01*
X011778Y004301D02*
X014798Y004301D01*
X014798Y004143D02*
X011778Y004143D01*
X011778Y003984D02*
X014895Y003984D01*
X015053Y003826D02*
X011778Y003826D01*
X011891Y003667D02*
X015212Y003667D01*
X015370Y003509D02*
X012049Y003509D01*
X012208Y003350D02*
X015529Y003350D01*
X015687Y003192D02*
X012366Y003192D01*
X012525Y003033D02*
X015846Y003033D01*
X016038Y003180D02*
X015038Y004180D01*
X015038Y007180D01*
X014798Y006996D02*
X014693Y006996D01*
X015778Y006996D02*
X017196Y006996D01*
X017186Y007154D02*
X015852Y007154D01*
X016010Y007313D02*
X017166Y007313D01*
X017751Y007490D02*
X017751Y006217D01*
X018538Y005430D01*
X018912Y005056D01*
X018912Y004430D01*
X019778Y004460D02*
X020169Y004460D01*
X020011Y004618D02*
X019778Y004618D01*
X019778Y004777D02*
X019852Y004777D01*
X019798Y004935D02*
X019778Y004935D01*
X019778Y005094D02*
X019798Y005094D01*
X019798Y005252D02*
X019778Y005252D01*
X019778Y005411D02*
X019798Y005411D01*
X019798Y005569D02*
X019778Y005569D01*
X019778Y005728D02*
X019798Y005728D01*
X019798Y005886D02*
X019778Y005886D01*
X019298Y005728D02*
X018918Y005728D01*
X018918Y005569D02*
X019298Y005569D01*
X019298Y005411D02*
X018918Y005411D01*
X019056Y005252D02*
X019298Y005252D01*
X019298Y005094D02*
X019152Y005094D01*
X019152Y004935D02*
X019298Y004935D01*
X018175Y005094D02*
X016901Y005094D01*
X016918Y005252D02*
X018158Y005252D01*
X018158Y005411D02*
X016918Y005411D01*
X017068Y005569D02*
X018060Y005569D01*
X017901Y005728D02*
X017252Y005728D01*
X017436Y005886D02*
X017743Y005886D01*
X018263Y006045D02*
X019107Y006045D01*
X019086Y006203D02*
X018105Y006203D01*
X017991Y006362D02*
X019086Y006362D01*
X019086Y006520D02*
X017991Y006520D01*
X017991Y006679D02*
X019086Y006679D01*
X019086Y006837D02*
X017991Y006837D01*
X017991Y006996D02*
X019086Y006996D01*
X018958Y006920D02*
X018958Y006900D01*
X018868Y006810D01*
X018508Y006810D01*
X018418Y006900D01*
X018418Y006920D01*
X018381Y007154D02*
X018381Y007154D01*
X018381Y007313D02*
X018381Y007313D01*
X019011Y007313D02*
X019011Y007313D01*
X019011Y007154D02*
X019011Y007154D01*
X019891Y007154D02*
X019988Y007154D01*
X019988Y006996D02*
X019881Y006996D01*
X019881Y006837D02*
X019988Y006837D01*
X019988Y006679D02*
X019881Y006679D01*
X019676Y006203D02*
X019605Y006203D01*
X019751Y006045D02*
X019798Y006045D01*
X020278Y006045D02*
X020298Y006045D01*
X019243Y005886D02*
X018840Y005886D01*
X017196Y006362D02*
X015778Y006362D01*
X015778Y006520D02*
X017196Y006520D01*
X017196Y006679D02*
X015778Y006679D01*
X015778Y006837D02*
X017196Y006837D01*
X017069Y006203D02*
X015778Y006203D01*
X015778Y006045D02*
X016884Y006045D01*
X016237Y005886D02*
X015778Y005886D01*
X015778Y005728D02*
X016159Y005728D01*
X016158Y005569D02*
X015778Y005569D01*
X015778Y005411D02*
X016158Y005411D01*
X016058Y005252D02*
X015778Y005252D01*
X015778Y005094D02*
X016048Y005094D01*
X016048Y004935D02*
X015778Y004935D01*
X016288Y004556D02*
X016164Y004430D01*
X016288Y004430D02*
X016288Y004556D01*
X016864Y004301D02*
X016960Y004301D01*
X016960Y004143D02*
X016864Y004143D01*
X016864Y003984D02*
X016960Y003984D01*
X017267Y003984D02*
X017810Y003984D01*
X017728Y004143D02*
X017348Y004143D01*
X017348Y004301D02*
X017728Y004301D01*
X018116Y004301D02*
X018212Y004301D01*
X018212Y004143D02*
X018116Y004143D01*
X018116Y003984D02*
X018212Y003984D01*
X018519Y003984D02*
X018581Y003984D01*
X019778Y004143D02*
X020486Y004143D01*
X020328Y004301D02*
X019778Y004301D01*
X021757Y004301D02*
X021915Y004301D01*
X021915Y004143D02*
X022088Y004143D01*
X022074Y003984D02*
X022261Y003984D01*
X022232Y003826D02*
X022434Y003826D01*
X022391Y003667D02*
X022606Y003667D01*
X022549Y003509D02*
X022779Y003509D01*
X022708Y003350D02*
X022952Y003350D01*
X022866Y003192D02*
X023125Y003192D01*
X023025Y003033D02*
X023298Y003033D01*
X023183Y002875D02*
X023471Y002875D01*
X022224Y004777D02*
X022106Y004777D01*
X022039Y004935D02*
X021934Y004935D01*
X021854Y005094D02*
X021761Y005094D01*
X021669Y005252D02*
X021588Y005252D01*
X021484Y005411D02*
X021415Y005411D01*
X017736Y004777D02*
X017341Y004777D01*
X017348Y004618D02*
X017728Y004618D01*
X016558Y003984D02*
X016496Y003984D01*
X016708Y003350D02*
X017029Y003350D01*
X017187Y003192D02*
X016866Y003192D01*
X017025Y003033D02*
X017346Y003033D01*
X017504Y002875D02*
X017183Y002875D01*
X017278Y002716D02*
X017663Y002716D01*
X017765Y002558D02*
X017311Y002558D01*
X017470Y002399D02*
X017607Y002399D01*
X017038Y002180D02*
X017038Y002680D01*
X016538Y003180D01*
X016038Y003180D01*
X016504Y002875D02*
X013183Y002875D01*
X011058Y001607D02*
X011018Y001607D01*
X011018Y001448D02*
X011058Y001448D01*
X011449Y001448D02*
X011628Y001448D01*
X011558Y001290D02*
X011518Y001290D01*
X011518Y001131D02*
X011558Y001131D01*
X011567Y000973D02*
X011510Y000973D01*
X011351Y000814D02*
X011726Y000814D01*
X012018Y000814D02*
X012058Y000814D01*
X012058Y000973D02*
X012018Y000973D01*
X012018Y001131D02*
X012058Y001131D01*
X012058Y001290D02*
X012018Y001290D01*
X012449Y001448D02*
X012628Y001448D01*
X012558Y001290D02*
X012518Y001290D01*
X012518Y001131D02*
X012558Y001131D01*
X012567Y000973D02*
X012510Y000973D01*
X012351Y000814D02*
X012726Y000814D01*
X013018Y000814D02*
X013058Y000814D01*
X013058Y000973D02*
X013018Y000973D01*
X013018Y001131D02*
X013058Y001131D01*
X013058Y001290D02*
X013018Y001290D01*
X013518Y001290D02*
X013558Y001290D01*
X013558Y001131D02*
X013518Y001131D01*
X013510Y000973D02*
X013567Y000973D01*
X013726Y000814D02*
X013351Y000814D01*
X014018Y000814D02*
X014058Y000814D01*
X014058Y000973D02*
X014018Y000973D01*
X014018Y001131D02*
X014058Y001131D01*
X014058Y001290D02*
X014018Y001290D01*
X014518Y001290D02*
X014558Y001290D01*
X014558Y001131D02*
X014518Y001131D01*
X014510Y000973D02*
X014567Y000973D01*
X014726Y000814D02*
X014351Y000814D01*
X015018Y000814D02*
X015058Y000814D01*
X015058Y000973D02*
X015018Y000973D01*
X015018Y001131D02*
X015058Y001131D01*
X015058Y001290D02*
X015018Y001290D01*
X016018Y001290D02*
X016058Y001290D01*
X016449Y001448D02*
X016628Y001448D01*
X011058Y001290D02*
X011018Y001290D01*
X011018Y001131D02*
X011058Y001131D01*
X011058Y000973D02*
X011018Y000973D01*
X011018Y000814D02*
X011058Y000814D01*
X010726Y000814D02*
X010351Y000814D01*
X010510Y000973D02*
X010567Y000973D01*
X010558Y001131D02*
X010518Y001131D01*
X010518Y001290D02*
X010558Y001290D01*
X010628Y001448D02*
X010449Y001448D01*
X012328Y006362D02*
X012380Y006362D01*
X012328Y006520D02*
X012539Y006520D01*
X012697Y006679D02*
X012284Y006679D01*
X012308Y006837D02*
X012856Y006837D01*
X013014Y006996D02*
X012308Y006996D01*
X016821Y008680D02*
X016848Y008708D01*
X017751Y009467D02*
X018038Y009180D01*
X017751Y009467D02*
X017751Y010870D01*
X017436Y010870D02*
X017348Y010870D01*
X018696Y010800D02*
X018696Y010800D01*
X018696Y010641D02*
X018696Y010641D01*
X018696Y010483D02*
X018696Y010483D01*
X017511Y010166D02*
X017258Y010166D01*
X017258Y010007D02*
X017511Y010007D01*
X017511Y009849D02*
X017258Y009849D01*
X019011Y007788D02*
X019011Y007788D01*
X019011Y007630D02*
X019011Y007630D01*
X019011Y007471D02*
X019011Y007471D01*
X019911Y007313D02*
X019988Y007313D01*
X010288Y011430D02*
X008788Y011430D01*
X007788Y012180D01*
X006538Y012180D01*
X005538Y011180D01*
X005538Y010680D01*
X005078Y010641D02*
X004998Y010641D01*
X004998Y010800D02*
X005078Y010800D01*
X005078Y010958D02*
X004998Y010958D01*
X004980Y011117D02*
X005097Y011117D01*
X005183Y011275D02*
X004894Y011275D01*
X005769Y011751D02*
X002768Y011751D01*
X002768Y011909D02*
X005928Y011909D01*
X006086Y012068D02*
X002768Y012068D01*
X002768Y012226D02*
X003031Y012226D01*
X003546Y012226D02*
X006245Y012226D01*
X006405Y012385D02*
X003879Y012385D01*
X006131Y011434D02*
X006431Y011434D01*
X006447Y011440D02*
X006278Y011370D01*
X006148Y011241D01*
X006078Y011071D01*
X006078Y010288D01*
X006148Y010119D01*
X006278Y009990D01*
X006447Y009920D01*
X006630Y009920D01*
X006799Y009990D01*
X006928Y010119D01*
X006998Y010288D01*
X006998Y011071D01*
X006928Y011241D01*
X006799Y011370D01*
X006630Y011440D01*
X006447Y011440D01*
X006646Y011434D02*
X007431Y011434D01*
X007447Y011440D02*
X007278Y011370D01*
X007148Y011241D01*
X007078Y011071D01*
X007078Y010288D01*
X007148Y010119D01*
X007278Y009990D01*
X007447Y009920D01*
X007630Y009920D01*
X007799Y009990D01*
X007928Y010119D01*
X007998Y010288D01*
X007998Y011071D01*
X007928Y011241D01*
X007799Y011370D01*
X007630Y011440D01*
X007447Y011440D01*
X007646Y011434D02*
X008381Y011434D01*
X008172Y011592D02*
X006290Y011592D01*
X006448Y011751D02*
X007398Y011751D01*
X007332Y011909D02*
X006607Y011909D01*
X006894Y011275D02*
X007183Y011275D01*
X007097Y011117D02*
X006980Y011117D01*
X006998Y010958D02*
X007078Y010958D01*
X007078Y010800D02*
X006998Y010800D01*
X006998Y010641D02*
X007078Y010641D01*
X007078Y010483D02*
X006998Y010483D01*
X006998Y010324D02*
X007078Y010324D01*
X007129Y010166D02*
X006947Y010166D01*
X006816Y010007D02*
X007261Y010007D01*
X007816Y010007D02*
X008235Y010007D01*
X008109Y010166D02*
X007947Y010166D01*
X007998Y010324D02*
X008061Y010324D01*
X008058Y010483D02*
X007998Y010483D01*
X007998Y010641D02*
X008058Y010641D01*
X008058Y010800D02*
X007998Y010800D01*
X007998Y010958D02*
X008058Y010958D01*
X008078Y011117D02*
X007980Y011117D01*
X007894Y011275D02*
X008159Y011275D01*
X008518Y010641D02*
X008558Y010641D01*
X008558Y010483D02*
X008518Y010483D01*
X008518Y010324D02*
X008558Y010324D01*
X008558Y010166D02*
X008518Y010166D01*
X008518Y010007D02*
X008558Y010007D01*
X008768Y009849D02*
X004778Y009849D01*
X004778Y009690D02*
X008812Y009690D01*
X008768Y009056D02*
X007528Y009056D01*
X007048Y009056D02*
X004778Y009056D01*
X004778Y009215D02*
X007048Y009215D01*
X007048Y009373D02*
X004778Y009373D01*
X004778Y009532D02*
X007071Y009532D01*
X006261Y010007D02*
X005816Y010007D01*
X005947Y010166D02*
X006129Y010166D01*
X006078Y010324D02*
X005998Y010324D01*
X005998Y010483D02*
X006078Y010483D01*
X006078Y010641D02*
X005998Y010641D01*
X005998Y010800D02*
X006078Y010800D01*
X006078Y010958D02*
X005998Y010958D01*
X005980Y011117D02*
X006097Y011117D01*
X006183Y011275D02*
X005973Y011275D01*
X005078Y010483D02*
X004998Y010483D01*
X004998Y010324D02*
X005078Y010324D01*
X005129Y010166D02*
X004947Y010166D01*
X004816Y010007D02*
X005261Y010007D01*
X004261Y010007D02*
X003816Y010007D01*
X003947Y010166D02*
X004129Y010166D01*
X004078Y010324D02*
X003998Y010324D01*
X003998Y010483D02*
X004078Y010483D01*
X004778Y008898D02*
X007048Y008898D01*
X007048Y008739D02*
X004778Y008739D01*
X004778Y008581D02*
X007048Y008581D01*
X007048Y008422D02*
X004778Y008422D01*
X004778Y008264D02*
X007048Y008264D01*
X007048Y008105D02*
X004778Y008105D01*
X004778Y007947D02*
X007048Y007947D01*
X007048Y007788D02*
X004778Y007788D01*
X004778Y007630D02*
X007048Y007630D01*
X006991Y007471D02*
X004778Y007471D01*
X008245Y012226D02*
X008332Y012226D01*
X020977Y012543D02*
X021350Y012543D01*
X021239Y012702D02*
X021087Y012702D01*
X021123Y012860D02*
X021203Y012860D01*
X021203Y013019D02*
X021123Y013019D01*
X021123Y013177D02*
X021203Y013177D01*
X021203Y013336D02*
X021123Y013336D01*
X021123Y013494D02*
X021203Y013494D01*
X021237Y013653D02*
X021090Y013653D01*
D22*
X022538Y012180D03*
X017788Y012180D03*
X017698Y011470D03*
X015038Y010930D03*
X014538Y010430D03*
X013538Y009680D03*
X013038Y009680D03*
X014663Y009430D03*
X011038Y009180D03*
X007288Y007305D03*
X006788Y006680D03*
X005788Y007180D03*
X005788Y007680D03*
X005788Y008180D03*
X010948Y006430D03*
X009538Y005680D03*
X008538Y005680D03*
X010038Y003680D03*
X007288Y001680D03*
X006788Y001680D03*
X006288Y001680D03*
X005788Y001680D03*
X005788Y001180D03*
X006288Y001180D03*
X006788Y001180D03*
X007288Y001180D03*
X016538Y006930D03*
X019678Y009040D03*
X018538Y009180D03*
X018538Y009680D03*
X021038Y009180D03*
X021538Y009305D03*
X022198Y008050D03*
X022788Y007680D03*
X025038Y006930D03*
X024038Y006180D03*
X022198Y005695D03*
X025038Y004930D03*
X030038Y004680D03*
X030788Y004680D03*
X030788Y003680D03*
X030788Y002680D03*
X030038Y001680D03*
X029538Y001680D03*
X029038Y001680D03*
X028538Y001680D03*
X028538Y001180D03*
X029038Y001180D03*
X029538Y001180D03*
X030038Y001180D03*
X030038Y005680D03*
X030788Y005680D03*
X030788Y006680D03*
X025038Y009430D03*
X029038Y009680D03*
X014788Y012430D03*
X012788Y013180D03*
X010288Y011430D03*
X011288Y011180D03*
X005288Y011680D03*
X005288Y013180D03*
D23*
X017698Y011470D02*
X017698Y010930D01*
X017751Y010870D01*
X018688Y010840D02*
X018696Y010870D01*
X018688Y010930D01*
X018688Y011110D01*
X019678Y009040D02*
X020218Y009040D01*
X020228Y009023D01*
X018958Y008010D02*
X019011Y007490D01*
X018958Y006920D01*
X018418Y006920D02*
X018381Y007490D01*
X010038Y001180D02*
X009958Y001210D01*
D24*
X014458Y011470D02*
X017698Y011470D01*
D25*
X014458Y011470D02*
X012768Y013160D01*
X012458Y013470D01*
X012788Y009930D02*
X011748Y009930D01*
X012788Y009930D02*
X013038Y009680D01*
X007538Y006680D02*
X006788Y006680D01*
X024162Y007934D02*
X024162Y008180D01*
D26*
X013038Y004930D03*
X009538Y010680D03*
M02*
