G75*
%MOIN*%
%OFA0B0*%
%FSLAX24Y24*%
%IPPOS*%
%LPD*%
%AMOC8*
5,1,8,0,0,1.08239X$1,22.5*
%
%ADD10C,0.0000*%
%ADD11R,0.0866X0.0236*%
%ADD12OC8,0.0600*%
%ADD13C,0.0600*%
%ADD14R,0.0480X0.0880*%
%ADD15R,0.1417X0.0866*%
%ADD16R,0.0591X0.0512*%
%ADD17C,0.0440*%
%ADD18R,0.0460X0.0630*%
%ADD19C,0.0520*%
%ADD20R,0.0512X0.0591*%
%ADD21R,0.0594X0.0594*%
%ADD22OC8,0.0594*%
%ADD23R,0.0630X0.0276*%
%ADD24R,0.0630X0.0551*%
%ADD25R,0.0866X0.0551*%
%ADD26R,0.0551X0.0709*%
%ADD27C,0.1266*%
%ADD28C,0.0860*%
%ADD29C,0.0317*%
%ADD30C,0.0120*%
%ADD31C,0.0320*%
%ADD32C,0.0100*%
%ADD33C,0.0160*%
%ADD34C,0.0240*%
%ADD35C,0.0258*%
%ADD36C,0.0356*%
D10*
X000160Y000550D02*
X000160Y014546D01*
X039280Y014546D01*
X039280Y000550D01*
X000160Y000550D01*
X000660Y001550D02*
X000662Y001594D01*
X000668Y001638D01*
X000678Y001681D01*
X000691Y001723D01*
X000708Y001764D01*
X000729Y001803D01*
X000753Y001840D01*
X000780Y001875D01*
X000810Y001907D01*
X000843Y001937D01*
X000879Y001963D01*
X000916Y001987D01*
X000956Y002006D01*
X000997Y002023D01*
X001040Y002035D01*
X001083Y002044D01*
X001127Y002049D01*
X001171Y002050D01*
X001215Y002047D01*
X001259Y002040D01*
X001302Y002029D01*
X001344Y002015D01*
X001384Y001997D01*
X001423Y001975D01*
X001459Y001951D01*
X001493Y001923D01*
X001525Y001892D01*
X001554Y001858D01*
X001580Y001822D01*
X001602Y001784D01*
X001621Y001744D01*
X001636Y001702D01*
X001648Y001660D01*
X001656Y001616D01*
X001660Y001572D01*
X001660Y001528D01*
X001656Y001484D01*
X001648Y001440D01*
X001636Y001398D01*
X001621Y001356D01*
X001602Y001316D01*
X001580Y001278D01*
X001554Y001242D01*
X001525Y001208D01*
X001493Y001177D01*
X001459Y001149D01*
X001423Y001125D01*
X001384Y001103D01*
X001344Y001085D01*
X001302Y001071D01*
X001259Y001060D01*
X001215Y001053D01*
X001171Y001050D01*
X001127Y001051D01*
X001083Y001056D01*
X001040Y001065D01*
X000997Y001077D01*
X000956Y001094D01*
X000916Y001113D01*
X000879Y001137D01*
X000843Y001163D01*
X000810Y001193D01*
X000780Y001225D01*
X000753Y001260D01*
X000729Y001297D01*
X000708Y001336D01*
X000691Y001377D01*
X000678Y001419D01*
X000668Y001462D01*
X000662Y001506D01*
X000660Y001550D01*
X001849Y006099D02*
X001851Y006125D01*
X001857Y006151D01*
X001867Y006176D01*
X001880Y006199D01*
X001896Y006219D01*
X001916Y006237D01*
X001938Y006252D01*
X001961Y006264D01*
X001987Y006272D01*
X002013Y006276D01*
X002039Y006276D01*
X002065Y006272D01*
X002091Y006264D01*
X002115Y006252D01*
X002136Y006237D01*
X002156Y006219D01*
X002172Y006199D01*
X002185Y006176D01*
X002195Y006151D01*
X002201Y006125D01*
X002203Y006099D01*
X002201Y006073D01*
X002195Y006047D01*
X002185Y006022D01*
X002172Y005999D01*
X002156Y005979D01*
X002136Y005961D01*
X002114Y005946D01*
X002091Y005934D01*
X002065Y005926D01*
X002039Y005922D01*
X002013Y005922D01*
X001987Y005926D01*
X001961Y005934D01*
X001937Y005946D01*
X001916Y005961D01*
X001896Y005979D01*
X001880Y005999D01*
X001867Y006022D01*
X001857Y006047D01*
X001851Y006073D01*
X001849Y006099D01*
X001849Y009249D02*
X001851Y009275D01*
X001857Y009301D01*
X001867Y009326D01*
X001880Y009349D01*
X001896Y009369D01*
X001916Y009387D01*
X001938Y009402D01*
X001961Y009414D01*
X001987Y009422D01*
X002013Y009426D01*
X002039Y009426D01*
X002065Y009422D01*
X002091Y009414D01*
X002115Y009402D01*
X002136Y009387D01*
X002156Y009369D01*
X002172Y009349D01*
X002185Y009326D01*
X002195Y009301D01*
X002201Y009275D01*
X002203Y009249D01*
X002201Y009223D01*
X002195Y009197D01*
X002185Y009172D01*
X002172Y009149D01*
X002156Y009129D01*
X002136Y009111D01*
X002114Y009096D01*
X002091Y009084D01*
X002065Y009076D01*
X002039Y009072D01*
X002013Y009072D01*
X001987Y009076D01*
X001961Y009084D01*
X001937Y009096D01*
X001916Y009111D01*
X001896Y009129D01*
X001880Y009149D01*
X001867Y009172D01*
X001857Y009197D01*
X001851Y009223D01*
X001849Y009249D01*
X000660Y013550D02*
X000662Y013594D01*
X000668Y013638D01*
X000678Y013681D01*
X000691Y013723D01*
X000708Y013764D01*
X000729Y013803D01*
X000753Y013840D01*
X000780Y013875D01*
X000810Y013907D01*
X000843Y013937D01*
X000879Y013963D01*
X000916Y013987D01*
X000956Y014006D01*
X000997Y014023D01*
X001040Y014035D01*
X001083Y014044D01*
X001127Y014049D01*
X001171Y014050D01*
X001215Y014047D01*
X001259Y014040D01*
X001302Y014029D01*
X001344Y014015D01*
X001384Y013997D01*
X001423Y013975D01*
X001459Y013951D01*
X001493Y013923D01*
X001525Y013892D01*
X001554Y013858D01*
X001580Y013822D01*
X001602Y013784D01*
X001621Y013744D01*
X001636Y013702D01*
X001648Y013660D01*
X001656Y013616D01*
X001660Y013572D01*
X001660Y013528D01*
X001656Y013484D01*
X001648Y013440D01*
X001636Y013398D01*
X001621Y013356D01*
X001602Y013316D01*
X001580Y013278D01*
X001554Y013242D01*
X001525Y013208D01*
X001493Y013177D01*
X001459Y013149D01*
X001423Y013125D01*
X001384Y013103D01*
X001344Y013085D01*
X001302Y013071D01*
X001259Y013060D01*
X001215Y013053D01*
X001171Y013050D01*
X001127Y013051D01*
X001083Y013056D01*
X001040Y013065D01*
X000997Y013077D01*
X000956Y013094D01*
X000916Y013113D01*
X000879Y013137D01*
X000843Y013163D01*
X000810Y013193D01*
X000780Y013225D01*
X000753Y013260D01*
X000729Y013297D01*
X000708Y013336D01*
X000691Y013377D01*
X000678Y013419D01*
X000668Y013462D01*
X000662Y013506D01*
X000660Y013550D01*
X030160Y013550D02*
X030162Y013594D01*
X030168Y013638D01*
X030178Y013681D01*
X030191Y013723D01*
X030208Y013764D01*
X030229Y013803D01*
X030253Y013840D01*
X030280Y013875D01*
X030310Y013907D01*
X030343Y013937D01*
X030379Y013963D01*
X030416Y013987D01*
X030456Y014006D01*
X030497Y014023D01*
X030540Y014035D01*
X030583Y014044D01*
X030627Y014049D01*
X030671Y014050D01*
X030715Y014047D01*
X030759Y014040D01*
X030802Y014029D01*
X030844Y014015D01*
X030884Y013997D01*
X030923Y013975D01*
X030959Y013951D01*
X030993Y013923D01*
X031025Y013892D01*
X031054Y013858D01*
X031080Y013822D01*
X031102Y013784D01*
X031121Y013744D01*
X031136Y013702D01*
X031148Y013660D01*
X031156Y013616D01*
X031160Y013572D01*
X031160Y013528D01*
X031156Y013484D01*
X031148Y013440D01*
X031136Y013398D01*
X031121Y013356D01*
X031102Y013316D01*
X031080Y013278D01*
X031054Y013242D01*
X031025Y013208D01*
X030993Y013177D01*
X030959Y013149D01*
X030923Y013125D01*
X030884Y013103D01*
X030844Y013085D01*
X030802Y013071D01*
X030759Y013060D01*
X030715Y013053D01*
X030671Y013050D01*
X030627Y013051D01*
X030583Y013056D01*
X030540Y013065D01*
X030497Y013077D01*
X030456Y013094D01*
X030416Y013113D01*
X030379Y013137D01*
X030343Y013163D01*
X030310Y013193D01*
X030280Y013225D01*
X030253Y013260D01*
X030229Y013297D01*
X030208Y013336D01*
X030191Y013377D01*
X030178Y013419D01*
X030168Y013462D01*
X030162Y013506D01*
X030160Y013550D01*
X030160Y001550D02*
X030162Y001594D01*
X030168Y001638D01*
X030178Y001681D01*
X030191Y001723D01*
X030208Y001764D01*
X030229Y001803D01*
X030253Y001840D01*
X030280Y001875D01*
X030310Y001907D01*
X030343Y001937D01*
X030379Y001963D01*
X030416Y001987D01*
X030456Y002006D01*
X030497Y002023D01*
X030540Y002035D01*
X030583Y002044D01*
X030627Y002049D01*
X030671Y002050D01*
X030715Y002047D01*
X030759Y002040D01*
X030802Y002029D01*
X030844Y002015D01*
X030884Y001997D01*
X030923Y001975D01*
X030959Y001951D01*
X030993Y001923D01*
X031025Y001892D01*
X031054Y001858D01*
X031080Y001822D01*
X031102Y001784D01*
X031121Y001744D01*
X031136Y001702D01*
X031148Y001660D01*
X031156Y001616D01*
X031160Y001572D01*
X031160Y001528D01*
X031156Y001484D01*
X031148Y001440D01*
X031136Y001398D01*
X031121Y001356D01*
X031102Y001316D01*
X031080Y001278D01*
X031054Y001242D01*
X031025Y001208D01*
X030993Y001177D01*
X030959Y001149D01*
X030923Y001125D01*
X030884Y001103D01*
X030844Y001085D01*
X030802Y001071D01*
X030759Y001060D01*
X030715Y001053D01*
X030671Y001050D01*
X030627Y001051D01*
X030583Y001056D01*
X030540Y001065D01*
X030497Y001077D01*
X030456Y001094D01*
X030416Y001113D01*
X030379Y001137D01*
X030343Y001163D01*
X030310Y001193D01*
X030280Y001225D01*
X030253Y001260D01*
X030229Y001297D01*
X030208Y001336D01*
X030191Y001377D01*
X030178Y001419D01*
X030168Y001462D01*
X030162Y001506D01*
X030160Y001550D01*
D11*
X023971Y008800D03*
X023971Y009300D03*
X023971Y009800D03*
X023971Y010300D03*
X023971Y010800D03*
X023971Y011300D03*
X023971Y011800D03*
X023971Y012300D03*
X020349Y012300D03*
X020349Y011800D03*
X020349Y011300D03*
X020349Y010800D03*
X020349Y010300D03*
X020349Y009800D03*
X020349Y009300D03*
X020349Y008800D03*
D12*
X019910Y002550D03*
X020910Y002550D03*
X021910Y002550D03*
X022910Y002550D03*
X023910Y002550D03*
X023910Y001550D03*
X022910Y001550D03*
X021910Y001550D03*
X020910Y001550D03*
X019910Y001550D03*
X018910Y001550D03*
X017910Y001550D03*
X016910Y001550D03*
X015910Y001550D03*
X014910Y001550D03*
X013910Y001550D03*
X012910Y001550D03*
X011910Y001550D03*
X010910Y001550D03*
X009910Y001550D03*
X008910Y001550D03*
X007910Y001550D03*
X007910Y002550D03*
X008910Y002550D03*
X009910Y002550D03*
X010910Y002550D03*
X011910Y002550D03*
X012910Y002550D03*
X013910Y002550D03*
X014910Y002550D03*
X015910Y002550D03*
X016910Y002550D03*
X017910Y002550D03*
X018910Y002550D03*
D13*
X030110Y004550D02*
X030710Y004550D01*
X030710Y005550D02*
X030110Y005550D01*
X030110Y006550D02*
X030710Y006550D01*
X030710Y007550D02*
X030110Y007550D01*
X033580Y007410D02*
X034180Y007410D01*
X036140Y007410D02*
X036740Y007410D01*
X036740Y006190D02*
X036140Y006190D01*
X034180Y006190D02*
X033580Y006190D01*
X033580Y004410D02*
X034180Y004410D01*
X036140Y004410D02*
X036740Y004410D01*
X036740Y003190D02*
X036140Y003190D01*
X034180Y003190D02*
X033580Y003190D01*
X033580Y001410D02*
X034180Y001410D01*
X036140Y001410D02*
X036740Y001410D01*
X036740Y009190D02*
X036140Y009190D01*
X034180Y009190D02*
X033580Y009190D01*
X030710Y010550D02*
X030110Y010550D01*
X030110Y011550D02*
X030710Y011550D01*
X028535Y013250D02*
X028535Y013850D01*
X027535Y013850D02*
X027535Y013250D01*
X026535Y013250D02*
X026535Y013850D01*
X025535Y013850D02*
X025535Y013250D01*
X024535Y013250D02*
X024535Y013850D01*
X023535Y013850D02*
X023535Y013250D01*
X022535Y013250D02*
X022535Y013850D01*
X021535Y013850D02*
X021535Y013250D01*
X020535Y013250D02*
X020535Y013850D01*
X019535Y013850D02*
X019535Y013250D01*
X018535Y013250D02*
X018535Y013850D01*
X017535Y013850D02*
X017535Y013250D01*
X016535Y013250D02*
X016535Y013850D01*
X015535Y013850D02*
X015535Y013250D01*
X014535Y013250D02*
X014535Y013850D01*
X013535Y013850D02*
X013535Y013250D01*
X001210Y009800D02*
X000610Y009800D01*
X000610Y008800D02*
X001210Y008800D01*
X001210Y007800D02*
X000610Y007800D01*
X000610Y006800D02*
X001210Y006800D01*
X001210Y005800D02*
X000610Y005800D01*
X000610Y004800D02*
X001210Y004800D01*
D14*
X026750Y006020D03*
X027660Y006020D03*
X028570Y006020D03*
D15*
X027660Y003580D03*
D16*
X025660Y006926D03*
X025660Y007674D03*
X013910Y011676D03*
X013910Y012424D03*
X010160Y009924D03*
X010160Y009176D03*
D17*
X014410Y006020D02*
X014410Y005580D01*
X016410Y005580D02*
X016410Y006020D01*
D18*
X011510Y004925D03*
X010910Y004925D03*
X010310Y004925D03*
X014360Y010550D03*
X014960Y010550D03*
D19*
X026900Y010800D02*
X027420Y010800D01*
X027420Y009800D02*
X026900Y009800D01*
X026900Y011800D02*
X027420Y011800D01*
D20*
X028286Y010800D03*
X029034Y010800D03*
D21*
X032404Y008784D03*
X032404Y006816D03*
X038113Y006816D03*
X038113Y007800D03*
X038113Y008784D03*
X005660Y012550D03*
D22*
X006660Y012550D03*
X007660Y012550D03*
X008660Y012550D03*
X009660Y012550D03*
X009660Y013550D03*
X008660Y013550D03*
X007660Y013550D03*
X006660Y013550D03*
X005660Y013550D03*
D23*
X006160Y009879D03*
X006160Y009446D03*
X006160Y009013D03*
X006160Y008580D03*
X006160Y008146D03*
X006160Y007713D03*
X006160Y007280D03*
X006160Y006847D03*
X006160Y006414D03*
D24*
X005924Y010391D03*
D25*
X002184Y010391D03*
X002184Y004209D03*
D26*
X005963Y004564D03*
D27*
X035160Y005398D03*
X035160Y010202D03*
D28*
X036091Y011620D02*
X036091Y012480D01*
X033729Y012480D02*
X033729Y011620D01*
X034480Y013940D02*
X035340Y013940D01*
D29*
X025410Y009550D03*
X021160Y008050D03*
X020070Y008170D03*
X022910Y007300D03*
X021410Y006550D03*
X020070Y006065D03*
X022910Y005300D03*
X017035Y006050D03*
X014410Y007300D03*
X011820Y008800D03*
X010320Y008050D03*
X008160Y008800D03*
X008910Y009550D03*
X010910Y010050D03*
X011410Y010050D03*
X012535Y009800D03*
X012410Y010800D03*
X012910Y011300D03*
X015570Y011840D03*
X012660Y012800D03*
X010660Y013550D03*
X008160Y011800D03*
X009160Y011550D03*
X003160Y012050D03*
X003160Y012550D03*
X005160Y008175D03*
X004910Y007050D03*
X006910Y006050D03*
X007660Y006050D03*
X008820Y006800D03*
X004410Y005300D03*
X003910Y005300D03*
X007910Y004050D03*
X012070Y003800D03*
X013445Y003300D03*
X005160Y002050D03*
X004660Y002050D03*
X004160Y002050D03*
X003660Y002050D03*
X003660Y001550D03*
X004160Y001550D03*
X004660Y001550D03*
X005160Y001550D03*
X017550Y009410D03*
X016410Y009550D03*
X016410Y010050D03*
X028660Y007300D03*
X029410Y006050D03*
X029410Y003550D03*
X029410Y002800D03*
X027910Y002050D03*
X027410Y002050D03*
X026910Y002050D03*
X026410Y002050D03*
X026410Y001550D03*
X026910Y001550D03*
X027410Y001550D03*
X027910Y001550D03*
D30*
X029980Y001498D02*
X024370Y001498D01*
X024370Y001510D02*
X023950Y001510D01*
X023950Y001590D01*
X024370Y001590D01*
X024370Y001741D01*
X024101Y002010D01*
X023950Y002010D01*
X023950Y001590D01*
X023870Y001590D01*
X023870Y002010D01*
X023719Y002010D01*
X023450Y001741D01*
X023450Y001590D01*
X023870Y001590D01*
X023870Y001510D01*
X023950Y001510D01*
X023950Y001090D01*
X024101Y001090D01*
X024370Y001359D01*
X024370Y001510D01*
X024370Y001617D02*
X029980Y001617D01*
X029980Y001685D02*
X029980Y001415D01*
X030084Y001165D01*
X030275Y000974D01*
X030525Y000870D01*
X030795Y000870D01*
X031045Y000974D01*
X031236Y001165D01*
X031340Y001415D01*
X031340Y001685D01*
X031236Y001935D01*
X031045Y002126D01*
X030795Y002230D01*
X030525Y002230D01*
X030275Y002126D01*
X030084Y001935D01*
X029980Y001685D01*
X030001Y001735D02*
X024370Y001735D01*
X024257Y001854D02*
X030050Y001854D01*
X030120Y001972D02*
X024139Y001972D01*
X024109Y002070D02*
X024390Y002351D01*
X024390Y002749D01*
X024109Y003030D01*
X023711Y003030D01*
X023430Y002749D01*
X023430Y002351D01*
X023711Y002070D01*
X024109Y002070D01*
X024129Y002091D02*
X030239Y002091D01*
X030474Y002209D02*
X024248Y002209D01*
X024366Y002328D02*
X039100Y002328D01*
X039100Y002446D02*
X024390Y002446D01*
X024390Y002565D02*
X039100Y002565D01*
X039100Y002683D02*
X024390Y002683D01*
X024337Y002802D02*
X033290Y002802D01*
X033308Y002783D02*
X033485Y002710D01*
X034275Y002710D01*
X034452Y002783D01*
X034587Y002918D01*
X034592Y002930D01*
X035728Y002930D01*
X035733Y002918D01*
X035868Y002783D01*
X036045Y002710D01*
X036835Y002710D01*
X037012Y002783D01*
X037147Y002918D01*
X037197Y003040D01*
X037212Y003040D01*
X037307Y003080D01*
X037380Y003153D01*
X037557Y003330D01*
X037630Y003403D01*
X037670Y003498D01*
X037670Y006192D01*
X037817Y006339D01*
X038484Y006339D01*
X038590Y006444D01*
X038590Y007187D01*
X038484Y007293D01*
X037741Y007293D01*
X037636Y007187D01*
X037636Y006894D01*
X037263Y006520D01*
X037190Y006447D01*
X037171Y006403D01*
X037147Y006462D01*
X037012Y006597D01*
X036835Y006670D01*
X036045Y006670D01*
X035868Y006597D01*
X035733Y006462D01*
X035728Y006450D01*
X034592Y006450D01*
X034587Y006462D01*
X034452Y006597D01*
X034275Y006670D01*
X033485Y006670D01*
X033308Y006597D01*
X033173Y006462D01*
X033166Y006444D01*
X032841Y006441D01*
X032850Y006457D01*
X032861Y006498D01*
X032861Y006777D01*
X032443Y006777D01*
X032443Y006854D01*
X032861Y006854D01*
X032861Y007134D01*
X032850Y007174D01*
X032829Y007211D01*
X032799Y007241D01*
X032763Y007262D01*
X032722Y007273D01*
X032443Y007273D01*
X032443Y006854D01*
X032366Y006854D01*
X032366Y007273D01*
X032086Y007273D01*
X032045Y007262D01*
X032009Y007241D01*
X031979Y007211D01*
X031958Y007174D01*
X031947Y007134D01*
X031947Y006854D01*
X032366Y006854D01*
X032366Y006777D01*
X031947Y006777D01*
X031947Y006650D01*
X031920Y006673D01*
X031920Y007942D01*
X032285Y008307D01*
X032776Y008307D01*
X032881Y008413D01*
X032881Y009156D01*
X032776Y009261D01*
X032033Y009261D01*
X031927Y009156D01*
X031927Y008685D01*
X031440Y008197D01*
X031400Y008102D01*
X031400Y006810D01*
X031122Y006810D01*
X031117Y006822D01*
X030982Y006957D01*
X030805Y007030D01*
X030015Y007030D01*
X029838Y006957D01*
X029703Y006822D01*
X029670Y006742D01*
X029670Y007416D01*
X029684Y007373D01*
X029717Y007309D01*
X029759Y007250D01*
X029810Y007199D01*
X029869Y007157D01*
X029933Y007124D01*
X030002Y007101D01*
X030074Y007090D01*
X030370Y007090D01*
X030370Y007510D01*
X030450Y007510D01*
X030450Y007590D01*
X030370Y007590D01*
X030370Y008010D01*
X030074Y008010D01*
X030002Y007999D01*
X029933Y007976D01*
X029880Y007949D01*
X031030Y009290D01*
X033102Y009290D01*
X033100Y009285D01*
X033100Y009095D01*
X033173Y008918D01*
X033308Y008783D01*
X033485Y008710D01*
X034275Y008710D01*
X034452Y008783D01*
X034584Y008915D01*
X035736Y008915D01*
X035868Y008783D01*
X036045Y008710D01*
X036552Y008710D01*
X036625Y008637D01*
X036698Y008564D01*
X036794Y008524D01*
X037636Y008524D01*
X037636Y008413D01*
X037741Y008307D01*
X038484Y008307D01*
X038590Y008413D01*
X038590Y009156D01*
X038484Y009261D01*
X037741Y009261D01*
X037636Y009156D01*
X037636Y009044D01*
X037199Y009044D01*
X037220Y009095D01*
X037220Y009285D01*
X037147Y009462D01*
X037012Y009597D01*
X036835Y009670D01*
X036045Y009670D01*
X035868Y009597D01*
X035733Y009462D01*
X035722Y009435D01*
X035434Y009435D01*
X035621Y009512D01*
X035849Y009741D01*
X035973Y010040D01*
X035973Y010363D01*
X035849Y010662D01*
X035621Y010891D01*
X035322Y011015D01*
X034998Y011015D01*
X034699Y010891D01*
X034471Y010662D01*
X034347Y010363D01*
X034347Y010040D01*
X034471Y009741D01*
X034699Y009512D01*
X034886Y009435D01*
X034598Y009435D01*
X034587Y009462D01*
X034452Y009597D01*
X034275Y009670D01*
X033681Y009670D01*
X033582Y009746D01*
X033557Y009770D01*
X033541Y009777D01*
X033527Y009788D01*
X033494Y009797D01*
X033462Y009810D01*
X033444Y009810D01*
X033427Y009815D01*
X033393Y009810D01*
X030951Y009810D01*
X030942Y009813D01*
X030900Y009810D01*
X030858Y009810D01*
X030849Y009806D01*
X030838Y009805D01*
X030801Y009786D01*
X030763Y009770D01*
X030755Y009763D01*
X030746Y009758D01*
X030719Y009727D01*
X030690Y009697D01*
X030686Y009688D01*
X029625Y008450D01*
X029625Y011210D01*
X029771Y011210D01*
X029838Y011143D01*
X030015Y011070D01*
X030805Y011070D01*
X030982Y011143D01*
X031049Y011210D01*
X031728Y011210D01*
X031853Y011262D01*
X032301Y011710D01*
X033119Y011710D01*
X033119Y011499D01*
X033212Y011274D01*
X033383Y011103D01*
X033608Y011010D01*
X033850Y011010D01*
X034074Y011103D01*
X034246Y011274D01*
X034339Y011499D01*
X034339Y012601D01*
X034246Y012826D01*
X034074Y012997D01*
X033850Y013090D01*
X033608Y013090D01*
X033383Y012997D01*
X033212Y012826D01*
X033119Y012601D01*
X033119Y012390D01*
X032092Y012390D01*
X031967Y012338D01*
X031519Y011890D01*
X031049Y011890D01*
X030982Y011957D01*
X030805Y012030D01*
X030015Y012030D01*
X029838Y011957D01*
X029771Y011890D01*
X029404Y011890D01*
X027967Y013040D01*
X028015Y013155D01*
X028015Y013945D01*
X027942Y014122D01*
X027807Y014257D01*
X027630Y014330D01*
X027440Y014330D01*
X027263Y014257D01*
X027128Y014122D01*
X027055Y013945D01*
X027055Y013155D01*
X027073Y013110D01*
X027065Y013080D01*
X027065Y013073D01*
X027064Y013067D01*
X027073Y013006D01*
X027080Y012945D01*
X027083Y012940D01*
X027084Y012933D01*
X027115Y012880D01*
X027145Y012827D01*
X027150Y012823D01*
X027153Y012817D01*
X027203Y012781D01*
X028945Y011387D01*
X028945Y011275D01*
X028704Y011275D01*
X028660Y011232D01*
X028616Y011275D01*
X028525Y011275D01*
X028506Y011321D01*
X027807Y012020D01*
X027804Y012022D01*
X027793Y012049D01*
X027669Y012173D01*
X027508Y012240D01*
X026812Y012240D01*
X026651Y012173D01*
X026545Y012067D01*
X026545Y012192D01*
X026682Y012330D01*
X026755Y012403D01*
X026795Y012498D01*
X026795Y012838D01*
X026807Y012843D01*
X026942Y012978D01*
X027015Y013155D01*
X027015Y013945D01*
X026942Y014122D01*
X026807Y014257D01*
X026630Y014330D01*
X026440Y014330D01*
X026263Y014257D01*
X026128Y014122D01*
X026055Y013945D01*
X026055Y013155D01*
X026128Y012978D01*
X026263Y012843D01*
X026275Y012838D01*
X026275Y012658D01*
X026065Y012447D01*
X026025Y012352D01*
X026025Y011455D01*
X026020Y011433D01*
X026025Y011403D01*
X026025Y011373D01*
X026033Y011353D01*
X026037Y011331D01*
X026053Y011306D01*
X026065Y011278D01*
X026080Y011262D01*
X026092Y011243D01*
X026116Y011226D01*
X026138Y011205D01*
X026158Y011196D01*
X026490Y010959D01*
X026460Y010888D01*
X026460Y010712D01*
X026527Y010551D01*
X026651Y010427D01*
X026812Y010360D01*
X027508Y010360D01*
X027669Y010427D01*
X027793Y010551D01*
X027850Y010689D01*
X027850Y010430D01*
X027956Y010325D01*
X028616Y010325D01*
X028660Y010368D01*
X028704Y010325D01*
X028945Y010325D01*
X028945Y008566D01*
X028769Y008390D01*
X027092Y008390D01*
X026967Y008338D01*
X026467Y007838D01*
X026372Y007743D01*
X026320Y007618D01*
X026320Y006360D01*
X026000Y006360D01*
X026000Y006490D01*
X026030Y006490D01*
X026135Y006596D01*
X026135Y007256D01*
X026078Y007314D01*
X026083Y007320D01*
X026104Y007356D01*
X026115Y007397D01*
X026115Y007614D01*
X025720Y007614D01*
X025720Y007734D01*
X026115Y007734D01*
X026115Y007951D01*
X026104Y007992D01*
X026083Y008028D01*
X026054Y008058D01*
X026017Y008079D01*
X025976Y008090D01*
X025720Y008090D01*
X025720Y007734D01*
X025600Y007734D01*
X025600Y007614D01*
X025205Y007614D01*
X025205Y007397D01*
X025216Y007356D01*
X025237Y007320D01*
X025242Y007314D01*
X025185Y007256D01*
X025185Y006776D01*
X025123Y006838D01*
X024998Y006890D01*
X016801Y006890D01*
X015820Y007871D01*
X015820Y011611D01*
X015857Y011648D01*
X015908Y011773D01*
X015908Y011907D01*
X015857Y012032D01*
X015762Y012127D01*
X015637Y012178D01*
X015503Y012178D01*
X015378Y012127D01*
X015291Y012040D01*
X015287Y012038D01*
X015192Y011943D01*
X015140Y011818D01*
X015140Y011045D01*
X014233Y011045D01*
X014170Y011108D01*
X014170Y011240D01*
X014280Y011240D01*
X014385Y011346D01*
X014385Y012006D01*
X014342Y012050D01*
X014385Y012094D01*
X014385Y012540D01*
X014606Y012763D01*
X014617Y012769D01*
X014618Y012770D01*
X014630Y012770D01*
X014807Y012843D01*
X014942Y012978D01*
X015015Y013155D01*
X015015Y013945D01*
X014942Y014122D01*
X014807Y014257D01*
X014630Y014330D01*
X014440Y014330D01*
X014263Y014257D01*
X014128Y014122D01*
X014055Y013945D01*
X014055Y013155D01*
X014116Y013007D01*
X013970Y012860D01*
X013781Y012860D01*
X013835Y012899D01*
X013886Y012950D01*
X013928Y013009D01*
X013961Y013073D01*
X013984Y013142D01*
X013995Y013214D01*
X013995Y013510D01*
X013575Y013510D01*
X013575Y013590D01*
X013495Y013590D01*
X013495Y014309D01*
X013427Y014299D01*
X013358Y014276D01*
X013294Y014243D01*
X013235Y014201D01*
X013184Y014150D01*
X013142Y014091D01*
X013109Y014027D01*
X013086Y013958D01*
X013075Y013886D01*
X013075Y013590D01*
X013495Y013590D01*
X013495Y013510D01*
X013075Y013510D01*
X013075Y013214D01*
X013086Y013142D01*
X013109Y013073D01*
X013142Y013009D01*
X013184Y012950D01*
X013235Y012899D01*
X013294Y012857D01*
X013358Y012824D01*
X013427Y012801D01*
X013474Y012794D01*
X013435Y012754D01*
X013435Y012094D01*
X013478Y012050D01*
X013435Y012006D01*
X013435Y011893D01*
X013307Y012020D01*
X013212Y012060D01*
X012733Y012060D01*
X012638Y012020D01*
X012565Y011947D01*
X011927Y011310D01*
X009399Y011310D01*
X009447Y011358D01*
X009498Y011483D01*
X009498Y011617D01*
X009447Y011742D01*
X009352Y011837D01*
X009227Y011888D01*
X009093Y011888D01*
X008968Y011837D01*
X008941Y011810D01*
X008518Y011810D01*
X008498Y011829D01*
X008498Y011867D01*
X008447Y011992D01*
X008352Y012087D01*
X008227Y012138D01*
X008093Y012138D01*
X007968Y012087D01*
X007920Y012039D01*
X007920Y012136D01*
X008137Y012352D01*
X008137Y012748D01*
X007858Y013027D01*
X007462Y013027D01*
X007183Y012748D01*
X007183Y012352D01*
X007400Y012136D01*
X007400Y011748D01*
X007440Y011653D01*
X008032Y011060D01*
X007858Y011060D01*
X007763Y011020D01*
X007190Y010447D01*
X007150Y010352D01*
X007150Y009273D01*
X006655Y009273D01*
X006655Y009658D01*
X006651Y009662D01*
X006655Y009666D01*
X006655Y010091D01*
X006550Y010197D01*
X006399Y010197D01*
X006399Y010331D01*
X005984Y010331D01*
X005984Y010451D01*
X005864Y010451D01*
X005864Y010826D01*
X005588Y010826D01*
X005547Y010815D01*
X005511Y010794D01*
X005481Y010764D01*
X005460Y010728D01*
X005449Y010687D01*
X005449Y010451D01*
X005864Y010451D01*
X005864Y010331D01*
X005449Y010331D01*
X005449Y010094D01*
X005460Y010053D01*
X005481Y010017D01*
X005511Y009987D01*
X005547Y009966D01*
X005588Y009955D01*
X005665Y009955D01*
X005665Y009666D01*
X005669Y009662D01*
X005665Y009658D01*
X005665Y009310D01*
X005540Y009310D01*
X004888Y010180D01*
X004880Y010197D01*
X004857Y010221D01*
X004837Y010247D01*
X004821Y010257D01*
X004807Y010270D01*
X004777Y010283D01*
X004748Y010300D01*
X004729Y010303D01*
X004712Y010310D01*
X004678Y010310D01*
X004646Y010315D01*
X004627Y010310D01*
X003358Y010310D01*
X003263Y010270D01*
X003190Y010197D01*
X003052Y010060D01*
X002768Y010060D01*
X002777Y010094D01*
X002777Y010331D01*
X002244Y010331D01*
X002244Y010451D01*
X002124Y010451D01*
X002124Y010826D01*
X001729Y010826D01*
X001689Y010815D01*
X001652Y010794D01*
X001623Y010764D01*
X001601Y010728D01*
X001591Y010687D01*
X001591Y010451D01*
X002124Y010451D01*
X002124Y010331D01*
X001591Y010331D01*
X001591Y010098D01*
X001482Y010207D01*
X001305Y010280D01*
X000515Y010280D01*
X000410Y010237D01*
X000410Y014366D01*
X034072Y014366D01*
X034030Y014324D01*
X033975Y014249D01*
X033933Y014166D01*
X033905Y014078D01*
X033890Y013986D01*
X033890Y013959D01*
X034891Y013959D01*
X034891Y013921D01*
X033890Y013921D01*
X033890Y013893D01*
X033905Y013802D01*
X033933Y013713D01*
X033975Y013631D01*
X034030Y013555D01*
X034096Y013490D01*
X034171Y013435D01*
X034254Y013393D01*
X034342Y013364D01*
X034434Y013350D01*
X034891Y013350D01*
X034891Y013921D01*
X034929Y013921D01*
X034929Y013959D01*
X035930Y013959D01*
X035930Y013986D01*
X035915Y014078D01*
X035887Y014166D01*
X035845Y014249D01*
X035790Y014324D01*
X035748Y014366D01*
X039100Y014366D01*
X039100Y000730D01*
X000410Y000730D01*
X000410Y004363D01*
X000515Y004320D01*
X001305Y004320D01*
X001482Y004393D01*
X001591Y004502D01*
X001591Y004269D01*
X002124Y004269D01*
X002124Y004149D01*
X002244Y004149D01*
X002244Y004269D01*
X002777Y004269D01*
X002777Y004506D01*
X002766Y004547D01*
X002745Y004583D01*
X002715Y004613D01*
X002678Y004634D01*
X002638Y004645D01*
X002244Y004645D01*
X002244Y004269D01*
X002124Y004269D01*
X002124Y004645D01*
X001729Y004645D01*
X001689Y004634D01*
X001652Y004613D01*
X001690Y004705D01*
X001690Y004895D01*
X001617Y005072D01*
X001482Y005207D01*
X001305Y005280D01*
X000515Y005280D01*
X000410Y005237D01*
X000410Y005363D01*
X000515Y005320D01*
X001305Y005320D01*
X001459Y005384D01*
X001513Y005330D01*
X001608Y005290D01*
X000410Y005290D01*
X001517Y005172D02*
X004900Y005172D01*
X004900Y005213D02*
X004900Y003748D01*
X004940Y003653D01*
X005190Y003403D01*
X005263Y003330D01*
X005358Y003290D01*
X006712Y003290D01*
X006807Y003330D01*
X007057Y003580D01*
X007130Y003653D01*
X007170Y003748D01*
X007170Y004123D01*
X007172Y004125D01*
X007219Y004239D01*
X007219Y004361D01*
X007172Y004475D01*
X007085Y004562D01*
X006971Y004609D01*
X006849Y004609D01*
X006735Y004562D01*
X006648Y004475D01*
X006601Y004361D01*
X006601Y004239D01*
X006648Y004125D01*
X006650Y004123D01*
X006650Y003908D01*
X006552Y003810D01*
X005518Y003810D01*
X005420Y003908D01*
X005420Y005282D01*
X005425Y005314D01*
X005420Y005333D01*
X005420Y005352D01*
X005407Y005382D01*
X005399Y005415D01*
X005388Y005430D01*
X005380Y005447D01*
X005357Y005471D01*
X005013Y005930D01*
X005005Y005947D01*
X004982Y005971D01*
X004962Y005997D01*
X004946Y006007D01*
X004932Y006020D01*
X004902Y006033D01*
X004873Y006050D01*
X004854Y006053D01*
X004837Y006060D01*
X004803Y006060D01*
X004771Y006065D01*
X004752Y006060D01*
X004584Y006060D01*
X004608Y006084D01*
X004608Y006895D01*
X004623Y006858D01*
X004718Y006763D01*
X004758Y006747D01*
X005896Y005154D01*
X005906Y005130D01*
X005930Y005105D01*
X005951Y005077D01*
X005972Y005064D01*
X005990Y005046D01*
X006022Y005032D01*
X006023Y005032D01*
X006023Y004624D01*
X005903Y004624D01*
X005903Y005078D01*
X005666Y005078D01*
X005626Y005067D01*
X005589Y005046D01*
X005560Y005016D01*
X005538Y004980D01*
X005528Y004939D01*
X005528Y004624D01*
X005903Y004624D01*
X005903Y004504D01*
X005528Y004504D01*
X005528Y004188D01*
X005538Y004148D01*
X005560Y004111D01*
X005589Y004081D01*
X005626Y004060D01*
X005666Y004049D01*
X005903Y004049D01*
X005903Y004504D01*
X006023Y004504D01*
X006023Y004624D01*
X006399Y004624D01*
X006399Y004939D01*
X006388Y004980D01*
X006376Y005000D01*
X007970Y005000D01*
X008080Y005046D01*
X008534Y005500D01*
X012036Y005500D01*
X013656Y003880D01*
X013740Y003796D01*
X013850Y003750D01*
X023286Y003750D01*
X023656Y003380D01*
X023740Y003296D01*
X023850Y003250D01*
X026771Y003250D01*
X026771Y003072D01*
X026877Y002967D01*
X028443Y002967D01*
X028549Y003072D01*
X028549Y004088D01*
X028443Y004193D01*
X027960Y004193D01*
X027960Y005400D01*
X027975Y005400D01*
X028080Y005505D01*
X028080Y006535D01*
X027975Y006640D01*
X027345Y006640D01*
X027240Y006535D01*
X027240Y005505D01*
X027345Y005400D01*
X027360Y005400D01*
X027360Y004193D01*
X026877Y004193D01*
X026771Y004088D01*
X026771Y003850D01*
X024034Y003850D01*
X023580Y004304D01*
X023470Y004350D01*
X014034Y004350D01*
X012414Y005970D01*
X012330Y006054D01*
X011210Y007174D01*
X011210Y009771D01*
X011218Y009763D01*
X011343Y009712D01*
X011477Y009712D01*
X011602Y009763D01*
X011629Y009790D01*
X012212Y009790D01*
X012307Y009830D01*
X013057Y010580D01*
X013130Y010653D01*
X013150Y010700D01*
X013150Y010066D01*
X013146Y010031D01*
X013150Y010015D01*
X013150Y009998D01*
X013164Y009965D01*
X013173Y009931D01*
X013183Y009918D01*
X013190Y009903D01*
X013215Y009878D01*
X014900Y007711D01*
X014900Y006059D01*
X014897Y006016D01*
X014900Y006007D01*
X014900Y005998D01*
X014916Y005958D01*
X014930Y005918D01*
X014936Y005911D01*
X014940Y005903D01*
X014970Y005872D01*
X015811Y004911D01*
X015815Y004903D01*
X015845Y004872D01*
X015873Y004840D01*
X015881Y004836D01*
X015888Y004830D01*
X015927Y004813D01*
X015966Y004794D01*
X015975Y004793D01*
X015983Y004790D01*
X016026Y004790D01*
X016069Y004787D01*
X016078Y004790D01*
X019116Y004790D01*
X019123Y004788D01*
X019167Y004790D01*
X019212Y004790D01*
X019218Y004793D01*
X019226Y004793D01*
X019266Y004813D01*
X019307Y004830D01*
X019312Y004835D01*
X019319Y004838D01*
X019349Y004871D01*
X019380Y004903D01*
X019383Y004909D01*
X020116Y005727D01*
X020137Y005727D01*
X020262Y005778D01*
X020357Y005873D01*
X020408Y005998D01*
X020408Y006132D01*
X020376Y006210D01*
X024590Y006210D01*
X024590Y005952D01*
X024642Y005827D01*
X024737Y005732D01*
X024862Y005680D01*
X026330Y005680D01*
X026330Y005505D01*
X026435Y005400D01*
X027065Y005400D01*
X027170Y005505D01*
X027170Y006535D01*
X027065Y006640D01*
X027000Y006640D01*
X027000Y007409D01*
X027301Y007710D01*
X028978Y007710D01*
X029103Y007762D01*
X029149Y007808D01*
X029150Y007790D01*
X029150Y006269D01*
X029123Y006242D01*
X029072Y006117D01*
X029072Y005983D01*
X029123Y005858D01*
X029150Y005831D01*
X029150Y004998D01*
X029190Y004903D01*
X029630Y004462D01*
X029630Y004455D01*
X029703Y004278D01*
X029838Y004143D01*
X030015Y004070D01*
X030805Y004070D01*
X030982Y004143D01*
X031117Y004278D01*
X031190Y004455D01*
X031190Y004645D01*
X031117Y004822D01*
X030982Y004957D01*
X030805Y005030D01*
X030015Y005030D01*
X029861Y004966D01*
X029670Y005158D01*
X029670Y005358D01*
X029703Y005278D01*
X029838Y005143D01*
X030015Y005070D01*
X030805Y005070D01*
X030982Y005143D01*
X031117Y005278D01*
X031122Y005290D01*
X031547Y005290D01*
X033219Y003508D01*
X033173Y003462D01*
X033100Y003285D01*
X033100Y003095D01*
X033173Y002918D01*
X033308Y002783D01*
X033172Y002920D02*
X024219Y002920D01*
X023601Y002920D02*
X023219Y002920D01*
X023109Y003030D02*
X022711Y003030D01*
X022430Y002749D01*
X022430Y002351D01*
X022711Y002070D01*
X023109Y002070D01*
X023390Y002351D01*
X023390Y002749D01*
X023109Y003030D01*
X022601Y002920D02*
X022219Y002920D01*
X022109Y003030D02*
X021711Y003030D01*
X021430Y002749D01*
X021430Y002351D01*
X021711Y002070D01*
X022109Y002070D01*
X022390Y002351D01*
X022390Y002749D01*
X022109Y003030D01*
X021601Y002920D02*
X021219Y002920D01*
X021109Y003030D02*
X020711Y003030D01*
X020430Y002749D01*
X020430Y002351D01*
X020711Y002070D01*
X021109Y002070D01*
X021390Y002351D01*
X021390Y002749D01*
X021109Y003030D01*
X020601Y002920D02*
X020219Y002920D01*
X020109Y003030D02*
X019711Y003030D01*
X019430Y002749D01*
X019430Y002351D01*
X019711Y002070D01*
X020109Y002070D01*
X020390Y002351D01*
X020390Y002749D01*
X020109Y003030D01*
X019601Y002920D02*
X019219Y002920D01*
X019109Y003030D02*
X018711Y003030D01*
X018430Y002749D01*
X018430Y002351D01*
X018711Y002070D01*
X019109Y002070D01*
X019390Y002351D01*
X019390Y002749D01*
X019109Y003030D01*
X018601Y002920D02*
X018219Y002920D01*
X018109Y003030D02*
X017711Y003030D01*
X017430Y002749D01*
X017430Y002351D01*
X017711Y002070D01*
X018109Y002070D01*
X018390Y002351D01*
X018390Y002749D01*
X018109Y003030D01*
X017601Y002920D02*
X017219Y002920D01*
X017109Y003030D02*
X016711Y003030D01*
X016430Y002749D01*
X016430Y002351D01*
X016711Y002070D01*
X017109Y002070D01*
X017390Y002351D01*
X017390Y002749D01*
X017109Y003030D01*
X017337Y002802D02*
X017483Y002802D01*
X017430Y002683D02*
X017390Y002683D01*
X017390Y002565D02*
X017430Y002565D01*
X017430Y002446D02*
X017390Y002446D01*
X017366Y002328D02*
X017454Y002328D01*
X017572Y002209D02*
X017248Y002209D01*
X017129Y002091D02*
X017691Y002091D01*
X017719Y002010D02*
X017450Y001741D01*
X017450Y001590D01*
X017870Y001590D01*
X017870Y002010D01*
X017719Y002010D01*
X017681Y001972D02*
X017139Y001972D01*
X017101Y002010D02*
X016950Y002010D01*
X016950Y001590D01*
X017370Y001590D01*
X017370Y001741D01*
X017101Y002010D01*
X016950Y001972D02*
X016870Y001972D01*
X016870Y002010D02*
X016719Y002010D01*
X016450Y001741D01*
X016450Y001590D01*
X016870Y001590D01*
X016870Y002010D01*
X016870Y001854D02*
X016950Y001854D01*
X016950Y001735D02*
X016870Y001735D01*
X016870Y001617D02*
X016950Y001617D01*
X016950Y001590D02*
X016870Y001590D01*
X016870Y001510D01*
X016950Y001510D01*
X016950Y001590D01*
X016950Y001510D02*
X017370Y001510D01*
X017370Y001359D01*
X017101Y001090D01*
X016950Y001090D01*
X016950Y001510D01*
X016950Y001498D02*
X016870Y001498D01*
X016870Y001510D02*
X016870Y001090D01*
X016719Y001090D01*
X016450Y001359D01*
X016450Y001510D01*
X016870Y001510D01*
X016870Y001380D02*
X016950Y001380D01*
X016950Y001261D02*
X016870Y001261D01*
X016870Y001143D02*
X016950Y001143D01*
X017153Y001143D02*
X017667Y001143D01*
X017719Y001090D02*
X017870Y001090D01*
X017870Y001510D01*
X017950Y001510D01*
X017950Y001590D01*
X018370Y001590D01*
X018370Y001741D01*
X018101Y002010D01*
X017950Y002010D01*
X017950Y001590D01*
X017870Y001590D01*
X017870Y001510D01*
X017450Y001510D01*
X017450Y001359D01*
X017719Y001090D01*
X017870Y001143D02*
X017950Y001143D01*
X017950Y001090D02*
X018101Y001090D01*
X018370Y001359D01*
X018370Y001510D01*
X017950Y001510D01*
X017950Y001090D01*
X017950Y001261D02*
X017870Y001261D01*
X017870Y001380D02*
X017950Y001380D01*
X017950Y001498D02*
X017870Y001498D01*
X017870Y001617D02*
X017950Y001617D01*
X017950Y001735D02*
X017870Y001735D01*
X017870Y001854D02*
X017950Y001854D01*
X017950Y001972D02*
X017870Y001972D01*
X018139Y001972D02*
X018681Y001972D01*
X018719Y002010D02*
X018450Y001741D01*
X018450Y001590D01*
X018870Y001590D01*
X018870Y002010D01*
X018719Y002010D01*
X018691Y002091D02*
X018129Y002091D01*
X018248Y002209D02*
X018572Y002209D01*
X018454Y002328D02*
X018366Y002328D01*
X018390Y002446D02*
X018430Y002446D01*
X018430Y002565D02*
X018390Y002565D01*
X018390Y002683D02*
X018430Y002683D01*
X018483Y002802D02*
X018337Y002802D01*
X019337Y002802D02*
X019483Y002802D01*
X019430Y002683D02*
X019390Y002683D01*
X019390Y002565D02*
X019430Y002565D01*
X019430Y002446D02*
X019390Y002446D01*
X019366Y002328D02*
X019454Y002328D01*
X019572Y002209D02*
X019248Y002209D01*
X019129Y002091D02*
X019691Y002091D01*
X019719Y002010D02*
X019450Y001741D01*
X019450Y001590D01*
X019870Y001590D01*
X019870Y002010D01*
X019719Y002010D01*
X019681Y001972D02*
X019139Y001972D01*
X019101Y002010D02*
X018950Y002010D01*
X018950Y001590D01*
X019370Y001590D01*
X019370Y001741D01*
X019101Y002010D01*
X018950Y001972D02*
X018870Y001972D01*
X018870Y001854D02*
X018950Y001854D01*
X018950Y001735D02*
X018870Y001735D01*
X018870Y001617D02*
X018950Y001617D01*
X018950Y001590D02*
X018870Y001590D01*
X018870Y001510D01*
X018950Y001510D01*
X018950Y001590D01*
X018950Y001510D02*
X019370Y001510D01*
X019370Y001359D01*
X019101Y001090D01*
X018950Y001090D01*
X018950Y001510D01*
X018950Y001498D02*
X018870Y001498D01*
X018870Y001510D02*
X018870Y001090D01*
X018719Y001090D01*
X018450Y001359D01*
X018450Y001510D01*
X018870Y001510D01*
X018870Y001380D02*
X018950Y001380D01*
X018950Y001261D02*
X018870Y001261D01*
X018870Y001143D02*
X018950Y001143D01*
X019153Y001143D02*
X019667Y001143D01*
X019719Y001090D02*
X019870Y001090D01*
X019870Y001510D01*
X019950Y001510D01*
X019950Y001590D01*
X020370Y001590D01*
X020370Y001741D01*
X020101Y002010D01*
X019950Y002010D01*
X019950Y001590D01*
X019870Y001590D01*
X019870Y001510D01*
X019450Y001510D01*
X019450Y001359D01*
X019719Y001090D01*
X019870Y001143D02*
X019950Y001143D01*
X019950Y001090D02*
X020101Y001090D01*
X020370Y001359D01*
X020370Y001510D01*
X019950Y001510D01*
X019950Y001090D01*
X019950Y001261D02*
X019870Y001261D01*
X019870Y001380D02*
X019950Y001380D01*
X019950Y001498D02*
X019870Y001498D01*
X019870Y001617D02*
X019950Y001617D01*
X019950Y001735D02*
X019870Y001735D01*
X019870Y001854D02*
X019950Y001854D01*
X019950Y001972D02*
X019870Y001972D01*
X020139Y001972D02*
X020681Y001972D01*
X020719Y002010D02*
X020450Y001741D01*
X020450Y001590D01*
X020870Y001590D01*
X020870Y002010D01*
X020719Y002010D01*
X020691Y002091D02*
X020129Y002091D01*
X020248Y002209D02*
X020572Y002209D01*
X020454Y002328D02*
X020366Y002328D01*
X020390Y002446D02*
X020430Y002446D01*
X020430Y002565D02*
X020390Y002565D01*
X020390Y002683D02*
X020430Y002683D01*
X020483Y002802D02*
X020337Y002802D01*
X021337Y002802D02*
X021483Y002802D01*
X021430Y002683D02*
X021390Y002683D01*
X021390Y002565D02*
X021430Y002565D01*
X021430Y002446D02*
X021390Y002446D01*
X021366Y002328D02*
X021454Y002328D01*
X021572Y002209D02*
X021248Y002209D01*
X021129Y002091D02*
X021691Y002091D01*
X021719Y002010D02*
X021450Y001741D01*
X021450Y001590D01*
X021870Y001590D01*
X021870Y002010D01*
X021719Y002010D01*
X021681Y001972D02*
X021139Y001972D01*
X021101Y002010D02*
X020950Y002010D01*
X020950Y001590D01*
X021370Y001590D01*
X021370Y001741D01*
X021101Y002010D01*
X020950Y001972D02*
X020870Y001972D01*
X020870Y001854D02*
X020950Y001854D01*
X020950Y001735D02*
X020870Y001735D01*
X020870Y001617D02*
X020950Y001617D01*
X020950Y001590D02*
X020870Y001590D01*
X020870Y001510D01*
X020950Y001510D01*
X020950Y001590D01*
X020950Y001510D02*
X021370Y001510D01*
X021370Y001359D01*
X021101Y001090D01*
X020950Y001090D01*
X020950Y001510D01*
X020950Y001498D02*
X020870Y001498D01*
X020870Y001510D02*
X020870Y001090D01*
X020719Y001090D01*
X020450Y001359D01*
X020450Y001510D01*
X020870Y001510D01*
X020870Y001380D02*
X020950Y001380D01*
X020950Y001261D02*
X020870Y001261D01*
X020870Y001143D02*
X020950Y001143D01*
X021153Y001143D02*
X021667Y001143D01*
X021719Y001090D02*
X021870Y001090D01*
X021870Y001510D01*
X021950Y001510D01*
X021950Y001590D01*
X022370Y001590D01*
X022370Y001741D01*
X022101Y002010D01*
X021950Y002010D01*
X021950Y001590D01*
X021870Y001590D01*
X021870Y001510D01*
X021450Y001510D01*
X021450Y001359D01*
X021719Y001090D01*
X021870Y001143D02*
X021950Y001143D01*
X021950Y001090D02*
X022101Y001090D01*
X022370Y001359D01*
X022370Y001510D01*
X021950Y001510D01*
X021950Y001090D01*
X021950Y001261D02*
X021870Y001261D01*
X021870Y001380D02*
X021950Y001380D01*
X021950Y001498D02*
X021870Y001498D01*
X021870Y001617D02*
X021950Y001617D01*
X021950Y001735D02*
X021870Y001735D01*
X021870Y001854D02*
X021950Y001854D01*
X021950Y001972D02*
X021870Y001972D01*
X022139Y001972D02*
X022681Y001972D01*
X022719Y002010D02*
X022450Y001741D01*
X022450Y001590D01*
X022870Y001590D01*
X022870Y002010D01*
X022719Y002010D01*
X022691Y002091D02*
X022129Y002091D01*
X022248Y002209D02*
X022572Y002209D01*
X022454Y002328D02*
X022366Y002328D01*
X022390Y002446D02*
X022430Y002446D01*
X022430Y002565D02*
X022390Y002565D01*
X022390Y002683D02*
X022430Y002683D01*
X022483Y002802D02*
X022337Y002802D01*
X023337Y002802D02*
X023483Y002802D01*
X023430Y002683D02*
X023390Y002683D01*
X023390Y002565D02*
X023430Y002565D01*
X023430Y002446D02*
X023390Y002446D01*
X023366Y002328D02*
X023454Y002328D01*
X023572Y002209D02*
X023248Y002209D01*
X023129Y002091D02*
X023691Y002091D01*
X023681Y001972D02*
X023139Y001972D01*
X023101Y002010D02*
X022950Y002010D01*
X022950Y001590D01*
X023370Y001590D01*
X023370Y001741D01*
X023101Y002010D01*
X022950Y001972D02*
X022870Y001972D01*
X022870Y001854D02*
X022950Y001854D01*
X022950Y001735D02*
X022870Y001735D01*
X022870Y001617D02*
X022950Y001617D01*
X022950Y001590D02*
X022870Y001590D01*
X022870Y001510D01*
X022950Y001510D01*
X022950Y001590D01*
X022950Y001510D02*
X023370Y001510D01*
X023370Y001359D01*
X023101Y001090D01*
X022950Y001090D01*
X022950Y001510D01*
X022950Y001498D02*
X022870Y001498D01*
X022870Y001510D02*
X022870Y001090D01*
X022719Y001090D01*
X022450Y001359D01*
X022450Y001510D01*
X022870Y001510D01*
X022870Y001380D02*
X022950Y001380D01*
X022950Y001261D02*
X022870Y001261D01*
X022870Y001143D02*
X022950Y001143D01*
X023153Y001143D02*
X023667Y001143D01*
X023719Y001090D02*
X023870Y001090D01*
X023870Y001510D01*
X023450Y001510D01*
X023450Y001359D01*
X023719Y001090D01*
X023870Y001143D02*
X023950Y001143D01*
X023950Y001261D02*
X023870Y001261D01*
X023870Y001380D02*
X023950Y001380D01*
X023950Y001498D02*
X023870Y001498D01*
X023870Y001617D02*
X023950Y001617D01*
X023950Y001735D02*
X023870Y001735D01*
X023870Y001854D02*
X023950Y001854D01*
X023950Y001972D02*
X023870Y001972D01*
X023563Y001854D02*
X023257Y001854D01*
X023370Y001735D02*
X023450Y001735D01*
X023450Y001617D02*
X023370Y001617D01*
X023370Y001498D02*
X023450Y001498D01*
X023450Y001380D02*
X023370Y001380D01*
X023272Y001261D02*
X023548Y001261D01*
X024153Y001143D02*
X030106Y001143D01*
X030044Y001261D02*
X024272Y001261D01*
X024370Y001380D02*
X029995Y001380D01*
X030224Y001024D02*
X001596Y001024D01*
X001545Y000974D02*
X001295Y000870D01*
X001025Y000870D01*
X000775Y000974D01*
X000584Y001165D01*
X000480Y001415D01*
X000480Y001685D01*
X000584Y001935D01*
X000775Y002126D01*
X001025Y002230D01*
X001295Y002230D01*
X001545Y002126D01*
X001736Y001935D01*
X001840Y001685D01*
X001840Y001415D01*
X001736Y001165D01*
X001545Y000974D01*
X001381Y000906D02*
X030439Y000906D01*
X030881Y000906D02*
X039100Y000906D01*
X039100Y001024D02*
X036991Y001024D01*
X036981Y001017D02*
X037040Y001059D01*
X037091Y001110D01*
X037133Y001169D01*
X037166Y001233D01*
X037189Y001302D01*
X037199Y001370D01*
X036480Y001370D01*
X036480Y001450D01*
X036400Y001450D01*
X036400Y001870D01*
X036104Y001870D01*
X036032Y001859D01*
X035963Y001836D01*
X035899Y001803D01*
X035840Y001761D01*
X035789Y001710D01*
X035747Y001651D01*
X035714Y001587D01*
X035691Y001518D01*
X035681Y001450D01*
X036400Y001450D01*
X036400Y001370D01*
X036480Y001370D01*
X036480Y000950D01*
X036776Y000950D01*
X036848Y000961D01*
X036917Y000984D01*
X036981Y001017D01*
X037114Y001143D02*
X039100Y001143D01*
X039100Y001261D02*
X037175Y001261D01*
X037199Y001450D02*
X036480Y001450D01*
X036480Y001870D01*
X036776Y001870D01*
X036848Y001859D01*
X036917Y001836D01*
X036981Y001803D01*
X037040Y001761D01*
X037091Y001710D01*
X037133Y001651D01*
X037166Y001587D01*
X037189Y001518D01*
X037199Y001450D01*
X037192Y001498D02*
X039100Y001498D01*
X039100Y001380D02*
X036480Y001380D01*
X036400Y001380D02*
X033920Y001380D01*
X033920Y001370D02*
X033920Y001450D01*
X033840Y001450D01*
X033840Y001870D01*
X033544Y001870D01*
X033472Y001859D01*
X033403Y001836D01*
X033339Y001803D01*
X033280Y001761D01*
X033229Y001710D01*
X033187Y001651D01*
X033154Y001587D01*
X033131Y001518D01*
X033121Y001450D01*
X033840Y001450D01*
X033840Y001370D01*
X033920Y001370D01*
X034639Y001370D01*
X034629Y001302D01*
X034606Y001233D01*
X034573Y001169D01*
X034531Y001110D01*
X034480Y001059D01*
X034421Y001017D01*
X034357Y000984D01*
X034288Y000961D01*
X034216Y000950D01*
X033920Y000950D01*
X033920Y001370D01*
X033920Y001450D02*
X034639Y001450D01*
X034629Y001518D01*
X034606Y001587D01*
X034573Y001651D01*
X034531Y001710D01*
X034480Y001761D01*
X034421Y001803D01*
X034357Y001836D01*
X034288Y001859D01*
X034216Y001870D01*
X033920Y001870D01*
X033920Y001450D01*
X033920Y001498D02*
X033840Y001498D01*
X033840Y001380D02*
X031325Y001380D01*
X031340Y001498D02*
X033128Y001498D01*
X033169Y001617D02*
X031340Y001617D01*
X031319Y001735D02*
X033254Y001735D01*
X033456Y001854D02*
X031270Y001854D01*
X031200Y001972D02*
X039100Y001972D01*
X039100Y001854D02*
X036864Y001854D01*
X037066Y001735D02*
X039100Y001735D01*
X039100Y001617D02*
X037151Y001617D01*
X036480Y001617D02*
X036400Y001617D01*
X036400Y001735D02*
X036480Y001735D01*
X036480Y001854D02*
X036400Y001854D01*
X036016Y001854D02*
X034304Y001854D01*
X034506Y001735D02*
X035814Y001735D01*
X035729Y001617D02*
X034591Y001617D01*
X034632Y001498D02*
X035688Y001498D01*
X035681Y001370D02*
X035691Y001302D01*
X035714Y001233D01*
X035747Y001169D01*
X035789Y001110D01*
X035840Y001059D01*
X035899Y001017D01*
X035963Y000984D01*
X036032Y000961D01*
X036104Y000950D01*
X036400Y000950D01*
X036400Y001370D01*
X035681Y001370D01*
X035705Y001261D02*
X034615Y001261D01*
X034554Y001143D02*
X035766Y001143D01*
X035889Y001024D02*
X034431Y001024D01*
X033920Y001024D02*
X033840Y001024D01*
X033840Y000950D02*
X033840Y001370D01*
X033121Y001370D01*
X033131Y001302D01*
X033154Y001233D01*
X033187Y001169D01*
X033229Y001110D01*
X033280Y001059D01*
X033339Y001017D01*
X033403Y000984D01*
X033472Y000961D01*
X033544Y000950D01*
X033840Y000950D01*
X033840Y001143D02*
X033920Y001143D01*
X033920Y001261D02*
X033840Y001261D01*
X033840Y001617D02*
X033920Y001617D01*
X033920Y001735D02*
X033840Y001735D01*
X033840Y001854D02*
X033920Y001854D01*
X033145Y001261D02*
X031276Y001261D01*
X031214Y001143D02*
X033206Y001143D01*
X033329Y001024D02*
X031096Y001024D01*
X031081Y002091D02*
X039100Y002091D01*
X039100Y002209D02*
X030846Y002209D01*
X033123Y003039D02*
X028515Y003039D01*
X028549Y003157D02*
X033100Y003157D01*
X033100Y003276D02*
X028549Y003276D01*
X028549Y003394D02*
X033145Y003394D01*
X033214Y003513D02*
X028549Y003513D01*
X028549Y003631D02*
X033103Y003631D01*
X032992Y003750D02*
X028549Y003750D01*
X028549Y003868D02*
X032881Y003868D01*
X032770Y003987D02*
X028549Y003987D01*
X028531Y004105D02*
X029930Y004105D01*
X029758Y004224D02*
X027960Y004224D01*
X027960Y004342D02*
X029677Y004342D01*
X029630Y004461D02*
X027960Y004461D01*
X027960Y004579D02*
X029513Y004579D01*
X029395Y004698D02*
X027960Y004698D01*
X027960Y004816D02*
X029276Y004816D01*
X029176Y004935D02*
X027960Y004935D01*
X027960Y005053D02*
X029150Y005053D01*
X029150Y005172D02*
X027960Y005172D01*
X027960Y005290D02*
X029150Y005290D01*
X029150Y005409D02*
X027983Y005409D01*
X028080Y005527D02*
X028179Y005527D01*
X028181Y005518D02*
X028202Y005482D01*
X028232Y005452D01*
X028268Y005431D01*
X028309Y005420D01*
X028510Y005420D01*
X028510Y005960D01*
X028170Y005960D01*
X028170Y005559D01*
X028181Y005518D01*
X028170Y005646D02*
X028080Y005646D01*
X028080Y005764D02*
X028170Y005764D01*
X028170Y005883D02*
X028080Y005883D01*
X028080Y006001D02*
X028510Y006001D01*
X028510Y005960D02*
X028510Y006080D01*
X028510Y006620D01*
X028309Y006620D01*
X028268Y006609D01*
X028232Y006588D01*
X028202Y006558D01*
X028181Y006522D01*
X028170Y006481D01*
X028170Y006080D01*
X028510Y006080D01*
X028630Y006080D01*
X028630Y006620D01*
X028831Y006620D01*
X028872Y006609D01*
X028908Y006588D01*
X028938Y006558D01*
X028959Y006522D01*
X028970Y006481D01*
X028970Y006080D01*
X028630Y006080D01*
X028630Y005960D01*
X028970Y005960D01*
X028970Y005559D01*
X028959Y005518D01*
X028938Y005482D01*
X028908Y005452D01*
X028872Y005431D01*
X028831Y005420D01*
X028630Y005420D01*
X028630Y005960D01*
X028510Y005960D01*
X028510Y005883D02*
X028630Y005883D01*
X028630Y006001D02*
X029072Y006001D01*
X029072Y006120D02*
X028970Y006120D01*
X028970Y006238D02*
X029122Y006238D01*
X029150Y006357D02*
X028970Y006357D01*
X028970Y006475D02*
X029150Y006475D01*
X029150Y006594D02*
X028899Y006594D01*
X028630Y006594D02*
X028510Y006594D01*
X028510Y006475D02*
X028630Y006475D01*
X028630Y006357D02*
X028510Y006357D01*
X028510Y006238D02*
X028630Y006238D01*
X028630Y006120D02*
X028510Y006120D01*
X028170Y006120D02*
X028080Y006120D01*
X028080Y006238D02*
X028170Y006238D01*
X028170Y006357D02*
X028080Y006357D01*
X028080Y006475D02*
X028170Y006475D01*
X028241Y006594D02*
X028021Y006594D01*
X027299Y006594D02*
X027111Y006594D01*
X027170Y006475D02*
X027240Y006475D01*
X027240Y006357D02*
X027170Y006357D01*
X027170Y006238D02*
X027240Y006238D01*
X027240Y006120D02*
X027170Y006120D01*
X027170Y006001D02*
X027240Y006001D01*
X027240Y005883D02*
X027170Y005883D01*
X027170Y005764D02*
X027240Y005764D01*
X027240Y005646D02*
X027170Y005646D01*
X027170Y005527D02*
X027240Y005527D01*
X027337Y005409D02*
X027073Y005409D01*
X027360Y005290D02*
X019724Y005290D01*
X019618Y005172D02*
X027360Y005172D01*
X027360Y005053D02*
X019512Y005053D01*
X019406Y004935D02*
X027360Y004935D01*
X027360Y004816D02*
X019275Y004816D01*
X019044Y005310D02*
X016706Y005310D01*
X016749Y005353D01*
X016810Y005500D01*
X016810Y006100D01*
X016764Y006210D01*
X019764Y006210D01*
X019732Y006132D01*
X019732Y006077D01*
X019044Y005310D01*
X019132Y005409D02*
X016772Y005409D01*
X016810Y005527D02*
X019238Y005527D01*
X019345Y005646D02*
X016810Y005646D01*
X016810Y005764D02*
X019451Y005764D01*
X019557Y005883D02*
X016810Y005883D01*
X016810Y006001D02*
X019663Y006001D01*
X019732Y006120D02*
X016802Y006120D01*
X015272Y005527D02*
X014810Y005527D01*
X014810Y005500D02*
X014810Y006100D01*
X014749Y006247D01*
X014637Y006359D01*
X014490Y006420D01*
X014330Y006420D01*
X014183Y006359D01*
X014071Y006247D01*
X014010Y006100D01*
X014010Y005500D01*
X014071Y005353D01*
X014183Y005241D01*
X014330Y005180D01*
X014490Y005180D01*
X014637Y005241D01*
X014749Y005353D01*
X014810Y005500D01*
X014772Y005409D02*
X015376Y005409D01*
X015480Y005290D02*
X014686Y005290D01*
X014134Y005290D02*
X013094Y005290D01*
X012976Y005409D02*
X014048Y005409D01*
X014010Y005527D02*
X012857Y005527D01*
X012739Y005646D02*
X014010Y005646D01*
X014010Y005764D02*
X012620Y005764D01*
X012502Y005883D02*
X014010Y005883D01*
X014010Y006001D02*
X012383Y006001D01*
X012414Y005970D02*
X012414Y005970D01*
X012330Y006054D02*
X012330Y006054D01*
X012265Y006120D02*
X014018Y006120D01*
X014067Y006238D02*
X012146Y006238D01*
X012028Y006357D02*
X014181Y006357D01*
X014639Y006357D02*
X014900Y006357D01*
X014900Y006475D02*
X011909Y006475D01*
X011791Y006594D02*
X014900Y006594D01*
X014900Y006712D02*
X011672Y006712D01*
X011554Y006831D02*
X014900Y006831D01*
X014900Y006949D02*
X011435Y006949D01*
X011317Y007068D02*
X014900Y007068D01*
X014900Y007186D02*
X011210Y007186D01*
X011210Y007305D02*
X014900Y007305D01*
X014900Y007423D02*
X011210Y007423D01*
X011210Y007542D02*
X014900Y007542D01*
X014900Y007660D02*
X011210Y007660D01*
X011210Y007779D02*
X014847Y007779D01*
X014755Y007897D02*
X011210Y007897D01*
X011210Y008016D02*
X014663Y008016D01*
X014571Y008134D02*
X011210Y008134D01*
X011210Y008253D02*
X014479Y008253D01*
X014386Y008371D02*
X011210Y008371D01*
X011210Y008490D02*
X014294Y008490D01*
X014202Y008608D02*
X011210Y008608D01*
X011210Y008727D02*
X014110Y008727D01*
X014018Y008845D02*
X011210Y008845D01*
X011210Y008964D02*
X013926Y008964D01*
X013833Y009082D02*
X011210Y009082D01*
X011210Y009201D02*
X013741Y009201D01*
X013649Y009319D02*
X011210Y009319D01*
X011210Y009438D02*
X013557Y009438D01*
X013465Y009556D02*
X011210Y009556D01*
X011210Y009675D02*
X013373Y009675D01*
X013280Y009793D02*
X012219Y009793D01*
X012389Y009912D02*
X013186Y009912D01*
X013146Y010030D02*
X012508Y010030D01*
X012626Y010149D02*
X013150Y010149D01*
X013150Y010267D02*
X012745Y010267D01*
X012863Y010386D02*
X013150Y010386D01*
X013150Y010504D02*
X012982Y010504D01*
X013100Y010623D02*
X013150Y010623D01*
X014181Y011097D02*
X015140Y011097D01*
X015140Y011215D02*
X014170Y011215D01*
X014373Y011334D02*
X015140Y011334D01*
X015140Y011452D02*
X014385Y011452D01*
X014385Y011571D02*
X015140Y011571D01*
X015140Y011689D02*
X014385Y011689D01*
X014385Y011808D02*
X015140Y011808D01*
X015185Y011926D02*
X014385Y011926D01*
X014347Y012045D02*
X015296Y012045D01*
X015466Y012163D02*
X014385Y012163D01*
X014385Y012282D02*
X016311Y012282D01*
X016192Y012400D02*
X014385Y012400D01*
X014385Y012519D02*
X016074Y012519D01*
X015955Y012637D02*
X014481Y012637D01*
X014599Y012756D02*
X015837Y012756D01*
X015766Y012826D02*
X017940Y010653D01*
X018013Y010580D01*
X018108Y010540D01*
X019783Y010540D01*
X019736Y010493D01*
X019736Y010107D01*
X019783Y010060D01*
X018858Y010060D01*
X018763Y010020D01*
X018690Y009947D01*
X018650Y009852D01*
X018650Y009796D01*
X018606Y009753D01*
X018552Y009621D01*
X018552Y009479D01*
X018606Y009347D01*
X018707Y009246D01*
X018839Y009192D01*
X018981Y009192D01*
X019055Y009222D01*
X019106Y009097D01*
X019207Y008996D01*
X019339Y008942D01*
X019481Y008942D01*
X019613Y008996D01*
X019656Y009040D01*
X019783Y009040D01*
X019736Y008993D01*
X019736Y008607D01*
X019841Y008502D01*
X019987Y008502D01*
X019878Y008457D01*
X019851Y008430D01*
X018898Y008430D01*
X017888Y009439D01*
X017888Y009477D01*
X017837Y009602D01*
X017742Y009697D01*
X017617Y009748D01*
X017483Y009748D01*
X017358Y009697D01*
X017263Y009602D01*
X017212Y009477D01*
X017212Y009343D01*
X017263Y009218D01*
X017358Y009123D01*
X017483Y009072D01*
X017521Y009072D01*
X018643Y007950D01*
X018738Y007910D01*
X019851Y007910D01*
X019878Y007883D01*
X020003Y007832D01*
X020137Y007832D01*
X020262Y007883D01*
X020357Y007978D01*
X020408Y008103D01*
X020408Y008237D01*
X020357Y008362D01*
X020262Y008457D01*
X020153Y008502D01*
X020857Y008502D01*
X020860Y008505D01*
X020860Y008210D01*
X020822Y008117D01*
X020822Y007983D01*
X020873Y007858D01*
X020968Y007763D01*
X021093Y007712D01*
X021227Y007712D01*
X021352Y007763D01*
X021447Y007858D01*
X021498Y007983D01*
X021498Y008117D01*
X021460Y008210D01*
X021460Y008860D01*
X021426Y008942D01*
X021481Y008942D01*
X021613Y008996D01*
X021714Y009097D01*
X021768Y009229D01*
X021768Y009371D01*
X021714Y009503D01*
X021676Y009540D01*
X021712Y009540D01*
X021807Y009580D01*
X021880Y009653D01*
X021920Y009748D01*
X021920Y009852D01*
X021880Y009947D01*
X021807Y010020D01*
X021712Y010060D01*
X021656Y010060D01*
X021613Y010104D01*
X021481Y010158D01*
X021339Y010158D01*
X021207Y010104D01*
X021164Y010060D01*
X020915Y010060D01*
X020962Y010107D01*
X020962Y010493D01*
X020905Y010550D01*
X020962Y010607D01*
X020962Y010993D01*
X020905Y011050D01*
X020962Y011107D01*
X020962Y011493D01*
X020905Y011550D01*
X020962Y011607D01*
X020962Y011993D01*
X020905Y012050D01*
X020962Y012107D01*
X020962Y012493D01*
X020857Y012598D01*
X019841Y012598D01*
X019803Y012560D01*
X019018Y012560D01*
X018795Y012783D01*
X018795Y012838D01*
X018807Y012843D01*
X018942Y012978D01*
X019015Y013155D01*
X019015Y013945D01*
X018942Y014122D01*
X018807Y014257D01*
X018630Y014330D01*
X018440Y014330D01*
X018263Y014257D01*
X018128Y014122D01*
X018055Y013945D01*
X018055Y013155D01*
X018128Y012978D01*
X018263Y012843D01*
X018275Y012838D01*
X018275Y012623D01*
X018315Y012528D01*
X018690Y012153D01*
X018763Y012080D01*
X018810Y012060D01*
X018768Y012060D01*
X017896Y012932D01*
X017942Y012978D01*
X018015Y013155D01*
X018015Y013945D01*
X017942Y014122D01*
X017807Y014257D01*
X017630Y014330D01*
X017440Y014330D01*
X017263Y014257D01*
X017128Y014122D01*
X017055Y013945D01*
X017055Y013273D01*
X017015Y013313D01*
X017015Y013945D01*
X016942Y014122D01*
X016807Y014257D01*
X016630Y014330D01*
X016440Y014330D01*
X016263Y014257D01*
X016128Y014122D01*
X016055Y013945D01*
X016055Y013273D01*
X016015Y013313D01*
X016015Y013945D01*
X015942Y014122D01*
X015807Y014257D01*
X015630Y014330D01*
X015440Y014330D01*
X015263Y014257D01*
X015128Y014122D01*
X015055Y013945D01*
X015055Y013155D01*
X015128Y012978D01*
X015263Y012843D01*
X015440Y012770D01*
X015630Y012770D01*
X015766Y012826D01*
X015232Y012874D02*
X014838Y012874D01*
X014948Y012993D02*
X015122Y012993D01*
X015073Y013111D02*
X014997Y013111D01*
X015015Y013230D02*
X015055Y013230D01*
X015055Y013348D02*
X015015Y013348D01*
X015015Y013467D02*
X015055Y013467D01*
X015055Y013585D02*
X015015Y013585D01*
X015015Y013704D02*
X015055Y013704D01*
X015055Y013822D02*
X015015Y013822D01*
X015015Y013941D02*
X015055Y013941D01*
X015102Y014059D02*
X014968Y014059D01*
X014886Y014178D02*
X015184Y014178D01*
X015358Y014296D02*
X014712Y014296D01*
X014358Y014296D02*
X013651Y014296D01*
X013643Y014299D02*
X013575Y014309D01*
X013575Y013590D01*
X013995Y013590D01*
X013995Y013886D01*
X013984Y013958D01*
X013961Y014027D01*
X013928Y014091D01*
X013886Y014150D01*
X013835Y014201D01*
X013776Y014243D01*
X013712Y014276D01*
X013643Y014299D01*
X013575Y014296D02*
X013495Y014296D01*
X013419Y014296D02*
X010245Y014296D01*
X010212Y014310D02*
X005608Y014310D01*
X005513Y014270D01*
X005440Y014197D01*
X005400Y014102D01*
X005400Y013964D01*
X005183Y013748D01*
X005183Y013352D01*
X005462Y013073D01*
X005858Y013073D01*
X006137Y013352D01*
X006137Y013748D01*
X006094Y013790D01*
X006254Y013790D01*
X006203Y013739D01*
X006203Y013588D01*
X006622Y013588D01*
X006622Y013512D01*
X006698Y013512D01*
X006698Y013588D01*
X007117Y013588D01*
X007117Y013739D01*
X007066Y013790D01*
X007254Y013790D01*
X007203Y013739D01*
X007203Y013588D01*
X007622Y013588D01*
X007622Y013512D01*
X007698Y013512D01*
X007698Y013588D01*
X008117Y013588D01*
X008117Y013739D01*
X008066Y013790D01*
X008254Y013790D01*
X008203Y013739D01*
X008203Y013588D01*
X008622Y013588D01*
X008622Y013512D01*
X008698Y013512D01*
X008698Y013588D01*
X009117Y013588D01*
X009117Y013739D01*
X009066Y013790D01*
X009254Y013790D01*
X009203Y013739D01*
X009203Y013588D01*
X009622Y013588D01*
X009622Y013512D01*
X009698Y013512D01*
X009698Y013588D01*
X010117Y013588D01*
X010117Y013725D01*
X010322Y013521D01*
X010322Y013483D01*
X010373Y013358D01*
X010468Y013263D01*
X010593Y013212D01*
X010727Y013212D01*
X010852Y013263D01*
X010947Y013358D01*
X010998Y013483D01*
X010998Y013617D01*
X010947Y013742D01*
X010852Y013837D01*
X010727Y013888D01*
X010689Y013888D01*
X010307Y014270D01*
X010212Y014310D01*
X010400Y014178D02*
X013212Y014178D01*
X013125Y014059D02*
X010519Y014059D01*
X010637Y013941D02*
X013084Y013941D01*
X013075Y013822D02*
X010867Y013822D01*
X010963Y013704D02*
X013075Y013704D01*
X013495Y013704D02*
X013575Y013704D01*
X013575Y013822D02*
X013495Y013822D01*
X013495Y013941D02*
X013575Y013941D01*
X013575Y014059D02*
X013495Y014059D01*
X013495Y014178D02*
X013575Y014178D01*
X013858Y014178D02*
X014184Y014178D01*
X014102Y014059D02*
X013945Y014059D01*
X013986Y013941D02*
X014055Y013941D01*
X014055Y013822D02*
X013995Y013822D01*
X013995Y013704D02*
X014055Y013704D01*
X014055Y013585D02*
X013575Y013585D01*
X013495Y013585D02*
X010998Y013585D01*
X010992Y013467D02*
X013075Y013467D01*
X013075Y013348D02*
X010937Y013348D01*
X010771Y013230D02*
X013075Y013230D01*
X013096Y013111D02*
X009867Y013111D01*
X009849Y013093D02*
X010117Y013361D01*
X010117Y013512D01*
X009698Y013512D01*
X009698Y013093D01*
X009849Y013093D01*
X009858Y013027D02*
X009462Y013027D01*
X009183Y012748D01*
X009183Y012352D01*
X009462Y012073D01*
X009858Y012073D01*
X010137Y012352D01*
X010137Y012748D01*
X009858Y013027D01*
X009892Y012993D02*
X013153Y012993D01*
X013270Y012874D02*
X010010Y012874D01*
X010129Y012756D02*
X013436Y012756D01*
X013435Y012637D02*
X010137Y012637D01*
X010137Y012519D02*
X013435Y012519D01*
X013435Y012400D02*
X010137Y012400D01*
X010066Y012282D02*
X013435Y012282D01*
X013435Y012163D02*
X009947Y012163D01*
X009373Y012163D02*
X008947Y012163D01*
X008858Y012073D02*
X009137Y012352D01*
X009137Y012748D01*
X008858Y013027D01*
X008462Y013027D01*
X008183Y012748D01*
X008183Y012352D01*
X008462Y012073D01*
X008858Y012073D01*
X009066Y012282D02*
X009254Y012282D01*
X009183Y012400D02*
X009137Y012400D01*
X009137Y012519D02*
X009183Y012519D01*
X009183Y012637D02*
X009137Y012637D01*
X009129Y012756D02*
X009191Y012756D01*
X009310Y012874D02*
X009010Y012874D01*
X008892Y012993D02*
X009428Y012993D01*
X009471Y013093D02*
X009622Y013093D01*
X009622Y013512D01*
X009203Y013512D01*
X009203Y013361D01*
X009471Y013093D01*
X009453Y013111D02*
X008867Y013111D01*
X008849Y013093D02*
X009117Y013361D01*
X009117Y013512D01*
X008698Y013512D01*
X008698Y013093D01*
X008849Y013093D01*
X008698Y013111D02*
X008622Y013111D01*
X008622Y013093D02*
X008622Y013512D01*
X008203Y013512D01*
X008203Y013361D01*
X008471Y013093D01*
X008622Y013093D01*
X008622Y013230D02*
X008698Y013230D01*
X008698Y013348D02*
X008622Y013348D01*
X008622Y013467D02*
X008698Y013467D01*
X008698Y013585D02*
X009622Y013585D01*
X009698Y013585D02*
X010257Y013585D01*
X010328Y013467D02*
X010117Y013467D01*
X010104Y013348D02*
X010383Y013348D01*
X010549Y013230D02*
X009986Y013230D01*
X009698Y013230D02*
X009622Y013230D01*
X009622Y013348D02*
X009698Y013348D01*
X009698Y013467D02*
X009622Y013467D01*
X009334Y013230D02*
X008986Y013230D01*
X009104Y013348D02*
X009216Y013348D01*
X009203Y013467D02*
X009117Y013467D01*
X009117Y013704D02*
X009203Y013704D01*
X008622Y013585D02*
X007698Y013585D01*
X007698Y013512D02*
X008117Y013512D01*
X008117Y013361D01*
X007849Y013093D01*
X007698Y013093D01*
X007698Y013512D01*
X007698Y013467D02*
X007622Y013467D01*
X007622Y013512D02*
X007622Y013093D01*
X007471Y013093D01*
X007203Y013361D01*
X007203Y013512D01*
X007622Y013512D01*
X007622Y013585D02*
X006698Y013585D01*
X006698Y013512D02*
X007117Y013512D01*
X007117Y013361D01*
X006849Y013093D01*
X006698Y013093D01*
X006698Y013512D01*
X006698Y013467D02*
X006622Y013467D01*
X006622Y013512D02*
X006622Y013093D01*
X006471Y013093D01*
X006203Y013361D01*
X006203Y013512D01*
X006622Y013512D01*
X006622Y013585D02*
X006137Y013585D01*
X006137Y013467D02*
X006203Y013467D01*
X006216Y013348D02*
X006132Y013348D01*
X006014Y013230D02*
X006334Y013230D01*
X006453Y013111D02*
X005895Y013111D01*
X006031Y013027D02*
X005289Y013027D01*
X005183Y012921D01*
X005183Y012179D01*
X005289Y012073D01*
X006031Y012073D01*
X006137Y012179D01*
X006137Y012921D01*
X006031Y013027D01*
X006066Y012993D02*
X006428Y012993D01*
X006462Y013027D02*
X006183Y012748D01*
X006183Y012352D01*
X006462Y012073D01*
X006858Y012073D01*
X007137Y012352D01*
X007137Y012748D01*
X006858Y013027D01*
X006462Y013027D01*
X006622Y013111D02*
X006698Y013111D01*
X006698Y013230D02*
X006622Y013230D01*
X006622Y013348D02*
X006698Y013348D01*
X006867Y013111D02*
X007453Y013111D01*
X007428Y012993D02*
X006892Y012993D01*
X007010Y012874D02*
X007310Y012874D01*
X007191Y012756D02*
X007129Y012756D01*
X007137Y012637D02*
X007183Y012637D01*
X007183Y012519D02*
X007137Y012519D01*
X007137Y012400D02*
X007183Y012400D01*
X007254Y012282D02*
X007066Y012282D01*
X006947Y012163D02*
X007373Y012163D01*
X007400Y012045D02*
X000410Y012045D01*
X000410Y012163D02*
X005199Y012163D01*
X005183Y012282D02*
X000410Y012282D01*
X000410Y012400D02*
X005183Y012400D01*
X005183Y012519D02*
X000410Y012519D01*
X000410Y012637D02*
X005183Y012637D01*
X005183Y012756D02*
X000410Y012756D01*
X000410Y012874D02*
X001015Y012874D01*
X001025Y012870D02*
X001295Y012870D01*
X001545Y012974D01*
X001736Y013165D01*
X001840Y013415D01*
X001840Y013685D01*
X001736Y013935D01*
X001545Y014126D01*
X001295Y014230D01*
X001025Y014230D01*
X000775Y014126D01*
X000584Y013935D01*
X000480Y013685D01*
X000480Y013415D01*
X000584Y013165D01*
X000775Y012974D01*
X001025Y012870D01*
X001305Y012874D02*
X005183Y012874D01*
X005254Y012993D02*
X001564Y012993D01*
X001683Y013111D02*
X005425Y013111D01*
X005306Y013230D02*
X001763Y013230D01*
X001812Y013348D02*
X005188Y013348D01*
X005183Y013467D02*
X001840Y013467D01*
X001840Y013585D02*
X005183Y013585D01*
X005183Y013704D02*
X001832Y013704D01*
X001783Y013822D02*
X005258Y013822D01*
X005376Y013941D02*
X001731Y013941D01*
X001613Y014059D02*
X005400Y014059D01*
X005431Y014178D02*
X001422Y014178D01*
X000898Y014178D02*
X000410Y014178D01*
X000410Y014296D02*
X005575Y014296D01*
X006137Y013704D02*
X006203Y013704D01*
X007117Y013704D02*
X007203Y013704D01*
X007203Y013467D02*
X007117Y013467D01*
X007104Y013348D02*
X007216Y013348D01*
X007334Y013230D02*
X006986Y013230D01*
X007622Y013230D02*
X007698Y013230D01*
X007698Y013348D02*
X007622Y013348D01*
X007622Y013111D02*
X007698Y013111D01*
X007867Y013111D02*
X008453Y013111D01*
X008428Y012993D02*
X007892Y012993D01*
X008010Y012874D02*
X008310Y012874D01*
X008191Y012756D02*
X008129Y012756D01*
X008137Y012637D02*
X008183Y012637D01*
X008183Y012519D02*
X008137Y012519D01*
X008137Y012400D02*
X008183Y012400D01*
X008254Y012282D02*
X008066Y012282D01*
X007947Y012163D02*
X008373Y012163D01*
X008394Y012045D02*
X012696Y012045D01*
X012543Y011926D02*
X008474Y011926D01*
X007926Y012045D02*
X007920Y012045D01*
X007400Y011926D02*
X000410Y011926D01*
X000410Y011808D02*
X007400Y011808D01*
X007425Y011689D02*
X000410Y011689D01*
X000410Y011571D02*
X007522Y011571D01*
X007640Y011452D02*
X000410Y011452D01*
X000410Y011334D02*
X007759Y011334D01*
X007877Y011215D02*
X000410Y011215D01*
X000410Y011097D02*
X007996Y011097D01*
X007720Y010978D02*
X000410Y010978D01*
X000410Y010860D02*
X007602Y010860D01*
X007483Y010741D02*
X006380Y010741D01*
X006388Y010728D02*
X006367Y010764D01*
X006337Y010794D01*
X006300Y010815D01*
X006260Y010826D01*
X005984Y010826D01*
X005984Y010451D01*
X006399Y010451D01*
X006399Y010687D01*
X006388Y010728D01*
X006399Y010623D02*
X007365Y010623D01*
X007246Y010504D02*
X006399Y010504D01*
X006399Y010267D02*
X007150Y010267D01*
X007150Y010149D02*
X006598Y010149D01*
X006655Y010030D02*
X007150Y010030D01*
X007150Y009912D02*
X006655Y009912D01*
X006655Y009793D02*
X007150Y009793D01*
X007150Y009675D02*
X006655Y009675D01*
X006655Y009556D02*
X007150Y009556D01*
X007150Y009438D02*
X006655Y009438D01*
X006655Y009319D02*
X007150Y009319D01*
X007670Y009319D02*
X008400Y009319D01*
X008400Y009352D02*
X008400Y008658D01*
X007283Y007540D01*
X006655Y007540D01*
X006655Y007926D01*
X006651Y007930D01*
X006655Y007934D01*
X006655Y008359D01*
X006626Y008388D01*
X006635Y008421D01*
X006635Y008571D01*
X006169Y008571D01*
X006169Y008588D01*
X006635Y008588D01*
X006635Y008738D01*
X006631Y008753D01*
X007424Y008753D01*
X007520Y008792D01*
X007630Y008903D01*
X007670Y008998D01*
X007670Y009102D01*
X007670Y010192D01*
X008018Y010540D01*
X009726Y010540D01*
X009656Y010470D01*
X009610Y010360D01*
X009610Y010240D01*
X009656Y010130D01*
X009685Y010101D01*
X009685Y009594D01*
X009742Y009536D01*
X009737Y009530D01*
X009716Y009494D01*
X009705Y009453D01*
X009705Y009236D01*
X010100Y009236D01*
X010100Y009116D01*
X009705Y009116D01*
X009705Y008899D01*
X009716Y008858D01*
X009737Y008822D01*
X009766Y008792D01*
X009803Y008771D01*
X009844Y008760D01*
X010100Y008760D01*
X010100Y009116D01*
X010220Y009116D01*
X010220Y008760D01*
X010476Y008760D01*
X010517Y008771D01*
X010554Y008792D01*
X010583Y008822D01*
X010604Y008858D01*
X010610Y008879D01*
X010610Y006990D01*
X010656Y006880D01*
X010740Y006796D01*
X010740Y006796D01*
X011436Y006100D01*
X008350Y006100D01*
X008240Y006054D01*
X008156Y005970D01*
X007786Y005600D01*
X006314Y005600D01*
X005960Y006096D01*
X006550Y006096D01*
X006572Y006119D01*
X006572Y006117D01*
X006572Y005983D01*
X006623Y005858D01*
X006718Y005763D01*
X006843Y005712D01*
X006977Y005712D01*
X007102Y005763D01*
X007197Y005858D01*
X007248Y005983D01*
X007248Y006117D01*
X007197Y006242D01*
X007170Y006269D01*
X007170Y006602D01*
X007130Y006697D01*
X007057Y006770D01*
X006807Y007020D01*
X007442Y007020D01*
X007490Y007040D01*
X007552Y007040D01*
X007601Y006991D01*
X007601Y006989D01*
X007648Y006875D01*
X007735Y006788D01*
X007849Y006741D01*
X007971Y006741D01*
X008085Y006788D01*
X008172Y006875D01*
X008219Y006989D01*
X008219Y007111D01*
X008172Y007225D01*
X008085Y007312D01*
X007971Y007359D01*
X007969Y007359D01*
X007903Y007425D01*
X008807Y008330D01*
X008880Y008403D01*
X008920Y008498D01*
X008920Y009192D01*
X008939Y009212D01*
X008977Y009212D01*
X009102Y009263D01*
X009197Y009358D01*
X009248Y009483D01*
X009248Y009617D01*
X009197Y009742D01*
X009102Y009837D01*
X008977Y009888D01*
X008843Y009888D01*
X008718Y009837D01*
X008623Y009742D01*
X008572Y009617D01*
X008572Y009579D01*
X008513Y009520D01*
X008440Y009447D01*
X008400Y009352D01*
X008436Y009438D02*
X007670Y009438D01*
X007670Y009556D02*
X008548Y009556D01*
X008595Y009675D02*
X007670Y009675D01*
X007670Y009793D02*
X008674Y009793D01*
X009146Y009793D02*
X009685Y009793D01*
X009685Y009675D02*
X009225Y009675D01*
X009248Y009556D02*
X009722Y009556D01*
X009705Y009438D02*
X009230Y009438D01*
X009158Y009319D02*
X009705Y009319D01*
X009705Y009082D02*
X008920Y009082D01*
X008920Y008964D02*
X009705Y008964D01*
X009723Y008845D02*
X008920Y008845D01*
X008920Y008727D02*
X010610Y008727D01*
X010597Y008845D02*
X010610Y008845D01*
X010220Y008845D02*
X010100Y008845D01*
X010100Y008964D02*
X010220Y008964D01*
X010220Y009082D02*
X010100Y009082D01*
X010100Y009201D02*
X008928Y009201D01*
X008400Y009201D02*
X007670Y009201D01*
X007670Y009082D02*
X008400Y009082D01*
X008400Y008964D02*
X007656Y008964D01*
X007573Y008845D02*
X008400Y008845D01*
X008400Y008727D02*
X006635Y008727D01*
X006635Y008608D02*
X008350Y008608D01*
X008232Y008490D02*
X006635Y008490D01*
X006643Y008371D02*
X008113Y008371D01*
X007995Y008253D02*
X006655Y008253D01*
X006655Y008134D02*
X007876Y008134D01*
X007758Y008016D02*
X006655Y008016D01*
X006655Y007897D02*
X007639Y007897D01*
X007521Y007779D02*
X006655Y007779D01*
X006655Y007660D02*
X007402Y007660D01*
X007284Y007542D02*
X006655Y007542D01*
X007905Y007423D02*
X010610Y007423D01*
X010610Y007305D02*
X008092Y007305D01*
X008188Y007186D02*
X010610Y007186D01*
X010610Y007068D02*
X008219Y007068D01*
X008203Y006949D02*
X010627Y006949D01*
X010705Y006831D02*
X008127Y006831D01*
X007693Y006831D02*
X006997Y006831D01*
X006879Y006949D02*
X007617Y006949D01*
X007116Y006712D02*
X010824Y006712D01*
X010942Y006594D02*
X007170Y006594D01*
X007170Y006475D02*
X011061Y006475D01*
X011179Y006357D02*
X007170Y006357D01*
X007198Y006238D02*
X011298Y006238D01*
X011416Y006120D02*
X007248Y006120D01*
X007248Y006001D02*
X008187Y006001D01*
X008068Y005883D02*
X007207Y005883D01*
X007103Y005764D02*
X007950Y005764D01*
X007831Y005646D02*
X006282Y005646D01*
X006197Y005764D02*
X006717Y005764D01*
X006613Y005883D02*
X006113Y005883D01*
X006028Y006001D02*
X006572Y006001D01*
X005545Y005646D02*
X005226Y005646D01*
X005137Y005764D02*
X005460Y005764D01*
X005375Y005883D02*
X005048Y005883D01*
X004956Y006001D02*
X005291Y006001D01*
X005206Y006120D02*
X004608Y006120D01*
X004608Y006238D02*
X005121Y006238D01*
X005037Y006357D02*
X004608Y006357D01*
X004608Y006475D02*
X004952Y006475D01*
X004867Y006594D02*
X004608Y006594D01*
X004608Y006712D02*
X004783Y006712D01*
X004651Y006831D02*
X004608Y006831D01*
X004608Y007205D02*
X004608Y009686D01*
X005182Y008920D01*
X005190Y008903D01*
X005213Y008879D01*
X005233Y008853D01*
X005249Y008843D01*
X005263Y008830D01*
X005293Y008817D01*
X005322Y008800D01*
X005341Y008797D01*
X005358Y008790D01*
X005392Y008790D01*
X005424Y008785D01*
X005443Y008790D01*
X005675Y008790D01*
X005694Y008771D01*
X005685Y008738D01*
X005685Y008588D01*
X006151Y008588D01*
X006151Y008571D01*
X005685Y008571D01*
X005685Y008421D01*
X005689Y008406D01*
X005407Y008406D01*
X005352Y008462D01*
X005227Y008513D01*
X005093Y008513D01*
X004968Y008462D01*
X004873Y008367D01*
X004822Y008242D01*
X004822Y008108D01*
X004873Y007983D01*
X004968Y007888D01*
X005093Y007837D01*
X005227Y007837D01*
X005348Y007886D01*
X005379Y007886D01*
X005263Y007770D01*
X005190Y007697D01*
X005150Y007602D01*
X005150Y007329D01*
X005131Y007310D01*
X005129Y007310D01*
X005102Y007337D01*
X004977Y007388D01*
X004843Y007388D01*
X004718Y007337D01*
X004623Y007242D01*
X004608Y007205D01*
X004608Y007305D02*
X004686Y007305D01*
X004608Y007423D02*
X005150Y007423D01*
X005150Y007542D02*
X004608Y007542D01*
X004608Y007660D02*
X005174Y007660D01*
X005271Y007779D02*
X004608Y007779D01*
X004608Y007897D02*
X004959Y007897D01*
X004860Y008016D02*
X004608Y008016D01*
X004608Y008134D02*
X004822Y008134D01*
X004826Y008253D02*
X004608Y008253D01*
X004608Y008371D02*
X004877Y008371D01*
X005035Y008490D02*
X004608Y008490D01*
X004608Y008608D02*
X005685Y008608D01*
X005685Y008490D02*
X005285Y008490D01*
X005685Y008727D02*
X004608Y008727D01*
X004608Y008845D02*
X005246Y008845D01*
X005150Y008964D02*
X004608Y008964D01*
X004608Y009082D02*
X005061Y009082D01*
X004972Y009201D02*
X004608Y009201D01*
X004608Y009319D02*
X004883Y009319D01*
X004794Y009438D02*
X004608Y009438D01*
X004608Y009556D02*
X004705Y009556D01*
X004617Y009675D02*
X004608Y009675D01*
X005089Y009912D02*
X005665Y009912D01*
X005665Y009793D02*
X005178Y009793D01*
X005267Y009675D02*
X005665Y009675D01*
X005665Y009556D02*
X005355Y009556D01*
X005444Y009438D02*
X005665Y009438D01*
X005665Y009319D02*
X005533Y009319D01*
X005473Y010030D02*
X005000Y010030D01*
X004911Y010149D02*
X005449Y010149D01*
X005449Y010267D02*
X004811Y010267D01*
X005449Y010504D02*
X002777Y010504D01*
X002777Y010451D02*
X002777Y010687D01*
X002766Y010728D01*
X002745Y010764D01*
X002715Y010794D01*
X002678Y010815D01*
X002638Y010826D01*
X002244Y010826D01*
X002244Y010451D01*
X002777Y010451D01*
X002777Y010623D02*
X005449Y010623D01*
X005467Y010741D02*
X002758Y010741D01*
X002244Y010741D02*
X002124Y010741D01*
X002124Y010623D02*
X002244Y010623D01*
X002244Y010504D02*
X002124Y010504D01*
X002124Y010386D02*
X000410Y010386D01*
X000410Y010504D02*
X001591Y010504D01*
X001591Y010623D02*
X000410Y010623D01*
X000410Y010741D02*
X001609Y010741D01*
X001591Y010267D02*
X001337Y010267D01*
X001540Y010149D02*
X001591Y010149D01*
X002244Y010386D02*
X005864Y010386D01*
X005864Y010504D02*
X005984Y010504D01*
X005984Y010386D02*
X007164Y010386D01*
X007670Y010149D02*
X009648Y010149D01*
X009610Y010267D02*
X007745Y010267D01*
X007863Y010386D02*
X009621Y010386D01*
X009690Y010504D02*
X007982Y010504D01*
X007670Y010030D02*
X009685Y010030D01*
X009685Y009912D02*
X007670Y009912D01*
X005984Y010623D02*
X005864Y010623D01*
X005864Y010741D02*
X005984Y010741D01*
X003460Y009733D02*
X003460Y006084D01*
X003484Y006060D01*
X002608Y006060D01*
X002513Y006020D01*
X002440Y005947D01*
X002302Y005810D01*
X002242Y005810D01*
X002329Y005897D01*
X002383Y006028D01*
X002383Y006170D01*
X002329Y006302D01*
X002228Y006402D01*
X002097Y006456D01*
X001955Y006456D01*
X001824Y006402D01*
X001723Y006302D01*
X001669Y006170D01*
X001669Y006028D01*
X001723Y005897D01*
X001810Y005810D01*
X001768Y005810D01*
X001690Y005888D01*
X001690Y005895D01*
X001617Y006072D01*
X001482Y006207D01*
X001305Y006280D01*
X000515Y006280D01*
X000410Y006237D01*
X000410Y006363D01*
X000515Y006320D01*
X001305Y006320D01*
X001482Y006393D01*
X001617Y006528D01*
X001690Y006705D01*
X001690Y006895D01*
X001617Y007072D01*
X001482Y007207D01*
X001305Y007280D01*
X000515Y007280D01*
X000410Y007237D01*
X000410Y007363D01*
X000515Y007320D01*
X001305Y007320D01*
X001482Y007393D01*
X001617Y007528D01*
X001690Y007705D01*
X001690Y007895D01*
X001617Y008072D01*
X001482Y008207D01*
X001305Y008280D01*
X000515Y008280D01*
X000410Y008237D01*
X000410Y008386D01*
X000433Y008374D01*
X000502Y008351D01*
X000574Y008340D01*
X000870Y008340D01*
X000870Y008760D01*
X000950Y008760D01*
X000950Y008840D01*
X000870Y008840D01*
X000870Y009260D01*
X000574Y009260D01*
X000502Y009249D01*
X000433Y009226D01*
X000410Y009214D01*
X000410Y009363D01*
X000515Y009320D01*
X001305Y009320D01*
X001482Y009393D01*
X001617Y009528D01*
X001622Y009540D01*
X001812Y009540D01*
X001723Y009451D01*
X001669Y009320D01*
X001669Y009178D01*
X001723Y009047D01*
X001824Y008946D01*
X001955Y008892D01*
X002097Y008892D01*
X002228Y008946D01*
X002329Y009047D01*
X002383Y009178D01*
X002383Y009320D01*
X002329Y009451D01*
X002240Y009540D01*
X003212Y009540D01*
X003307Y009580D01*
X003460Y009733D01*
X003460Y009675D02*
X003402Y009675D01*
X003460Y009556D02*
X003250Y009556D01*
X003460Y009438D02*
X002335Y009438D01*
X002383Y009319D02*
X003460Y009319D01*
X003460Y009201D02*
X002383Y009201D01*
X002344Y009082D02*
X003460Y009082D01*
X003460Y008964D02*
X002246Y008964D01*
X001806Y008964D02*
X001641Y008964D01*
X001636Y008977D02*
X001603Y009041D01*
X001561Y009100D01*
X001510Y009151D01*
X001451Y009193D01*
X001387Y009226D01*
X001318Y009249D01*
X001246Y009260D01*
X000950Y009260D01*
X000950Y008840D01*
X001669Y008840D01*
X001659Y008908D01*
X001636Y008977D01*
X001574Y009082D02*
X001709Y009082D01*
X001669Y009201D02*
X001437Y009201D01*
X001669Y009319D02*
X000410Y009319D01*
X000870Y009201D02*
X000950Y009201D01*
X000950Y009082D02*
X000870Y009082D01*
X000870Y008964D02*
X000950Y008964D01*
X000950Y008845D02*
X000870Y008845D01*
X000950Y008760D02*
X001669Y008760D01*
X001659Y008692D01*
X001636Y008623D01*
X001603Y008559D01*
X001561Y008500D01*
X001510Y008449D01*
X001451Y008407D01*
X001387Y008374D01*
X001318Y008351D01*
X001246Y008340D01*
X000950Y008340D01*
X000950Y008760D01*
X000950Y008727D02*
X000870Y008727D01*
X000870Y008608D02*
X000950Y008608D01*
X000950Y008490D02*
X000870Y008490D01*
X000870Y008371D02*
X000950Y008371D01*
X001378Y008371D02*
X003460Y008371D01*
X003460Y008253D02*
X001372Y008253D01*
X001555Y008134D02*
X003460Y008134D01*
X003460Y008016D02*
X001640Y008016D01*
X001689Y007897D02*
X003460Y007897D01*
X003460Y007779D02*
X001690Y007779D01*
X001672Y007660D02*
X003460Y007660D01*
X003460Y007542D02*
X001622Y007542D01*
X001512Y007423D02*
X003460Y007423D01*
X003460Y007305D02*
X000410Y007305D01*
X001503Y007186D02*
X003460Y007186D01*
X003460Y007068D02*
X001619Y007068D01*
X001668Y006949D02*
X003460Y006949D01*
X003460Y006831D02*
X001690Y006831D01*
X001690Y006712D02*
X003460Y006712D01*
X003460Y006594D02*
X001644Y006594D01*
X001564Y006475D02*
X003460Y006475D01*
X003460Y006357D02*
X002274Y006357D01*
X002355Y006238D02*
X003460Y006238D01*
X003460Y006120D02*
X002383Y006120D01*
X002372Y006001D02*
X002493Y006001D01*
X002375Y005883D02*
X002315Y005883D01*
X001738Y005883D02*
X001695Y005883D01*
X001680Y006001D02*
X001646Y006001D01*
X001669Y006120D02*
X001569Y006120D01*
X001697Y006238D02*
X001407Y006238D01*
X001394Y006357D02*
X001778Y006357D01*
X000426Y006357D02*
X000410Y006357D01*
X000410Y006238D02*
X000413Y006238D01*
X002557Y005330D02*
X002768Y005540D01*
X004655Y005540D01*
X004900Y005213D01*
X004842Y005290D02*
X002462Y005290D01*
X002557Y005330D01*
X002462Y005290D02*
X001608Y005290D01*
X001625Y005053D02*
X004900Y005053D01*
X004900Y004935D02*
X001674Y004935D01*
X001690Y004816D02*
X004900Y004816D01*
X004900Y004698D02*
X001687Y004698D01*
X001652Y004613D02*
X001652Y004613D01*
X001591Y004461D02*
X001549Y004461D01*
X001591Y004342D02*
X001359Y004342D01*
X001591Y004149D02*
X001591Y003913D01*
X001601Y003872D01*
X001623Y003836D01*
X001652Y003806D01*
X001689Y003785D01*
X001729Y003774D01*
X002124Y003774D01*
X002124Y004149D01*
X001591Y004149D01*
X001591Y004105D02*
X000410Y004105D01*
X000410Y003987D02*
X001591Y003987D01*
X001604Y003868D02*
X000410Y003868D01*
X000410Y003750D02*
X004900Y003750D01*
X004900Y003868D02*
X002763Y003868D01*
X002766Y003872D02*
X002777Y003913D01*
X002777Y004149D01*
X002244Y004149D01*
X002244Y003774D01*
X002638Y003774D01*
X002678Y003785D01*
X002715Y003806D01*
X002745Y003836D01*
X002766Y003872D01*
X002777Y003987D02*
X004900Y003987D01*
X004900Y004105D02*
X002777Y004105D01*
X002777Y004342D02*
X004900Y004342D01*
X004900Y004224D02*
X002244Y004224D01*
X002244Y004342D02*
X002124Y004342D01*
X002124Y004224D02*
X000410Y004224D01*
X000410Y004342D02*
X000461Y004342D01*
X002124Y004461D02*
X002244Y004461D01*
X002244Y004579D02*
X002124Y004579D01*
X002747Y004579D02*
X004900Y004579D01*
X004900Y004461D02*
X002777Y004461D01*
X002244Y004105D02*
X002124Y004105D01*
X002124Y003987D02*
X002244Y003987D01*
X002244Y003868D02*
X002124Y003868D01*
X000410Y003631D02*
X004961Y003631D01*
X005080Y003513D02*
X000410Y003513D01*
X000410Y003394D02*
X005198Y003394D01*
X005460Y003868D02*
X006610Y003868D01*
X006650Y003987D02*
X005420Y003987D01*
X005420Y004105D02*
X005566Y004105D01*
X005528Y004224D02*
X005420Y004224D01*
X005420Y004342D02*
X005528Y004342D01*
X005528Y004461D02*
X005420Y004461D01*
X005420Y004579D02*
X005903Y004579D01*
X005903Y004461D02*
X006023Y004461D01*
X006023Y004504D02*
X006023Y004049D01*
X006260Y004049D01*
X006300Y004060D01*
X006337Y004081D01*
X006367Y004111D01*
X006388Y004148D01*
X006399Y004188D01*
X006399Y004504D01*
X006023Y004504D01*
X006023Y004579D02*
X006776Y004579D01*
X006642Y004461D02*
X006399Y004461D01*
X006399Y004342D02*
X006601Y004342D01*
X006607Y004224D02*
X006399Y004224D01*
X006361Y004105D02*
X006650Y004105D01*
X006023Y004105D02*
X005903Y004105D01*
X005903Y004224D02*
X006023Y004224D01*
X006023Y004342D02*
X005903Y004342D01*
X005903Y004698D02*
X006023Y004698D01*
X006023Y004816D02*
X005903Y004816D01*
X005903Y004935D02*
X006023Y004935D01*
X005983Y005053D02*
X005903Y005053D01*
X005883Y005172D02*
X005420Y005172D01*
X005421Y005290D02*
X005798Y005290D01*
X005714Y005409D02*
X005401Y005409D01*
X005315Y005527D02*
X005629Y005527D01*
X004754Y005409D02*
X002636Y005409D01*
X002755Y005527D02*
X004665Y005527D01*
X005420Y005053D02*
X005601Y005053D01*
X005528Y004935D02*
X005420Y004935D01*
X005420Y004816D02*
X005528Y004816D01*
X005528Y004698D02*
X005420Y004698D01*
X006399Y004698D02*
X009900Y004698D01*
X009900Y004816D02*
X006399Y004816D01*
X006399Y004935D02*
X009900Y004935D01*
X009900Y005053D02*
X008087Y005053D01*
X008206Y005172D02*
X009900Y005172D01*
X009900Y005290D02*
X008324Y005290D01*
X008443Y005409D02*
X009994Y005409D01*
X010005Y005420D02*
X010605Y005420D01*
X011815Y005420D01*
X011920Y005315D01*
X011920Y005151D01*
X011932Y005145D01*
X012005Y005072D01*
X013130Y003947D01*
X013170Y003852D01*
X013170Y002969D01*
X013390Y002749D01*
X013390Y002351D01*
X013109Y002070D01*
X012711Y002070D01*
X012430Y002351D01*
X012430Y002749D01*
X012650Y002969D01*
X012650Y003692D01*
X011863Y004479D01*
X011815Y004430D01*
X011170Y004430D01*
X011170Y004296D01*
X011214Y004253D01*
X011268Y004121D01*
X011268Y003979D01*
X011214Y003847D01*
X011176Y003810D01*
X011462Y003810D01*
X011557Y003770D01*
X011630Y003697D01*
X012130Y003197D01*
X012170Y003102D01*
X012170Y002969D01*
X012390Y002749D01*
X012390Y002351D01*
X012109Y002070D01*
X011711Y002070D01*
X011430Y002351D01*
X011430Y002749D01*
X011637Y002956D01*
X011302Y003290D01*
X010358Y003290D01*
X010263Y003330D01*
X010136Y003456D01*
X010133Y003458D01*
X010099Y003493D01*
X010065Y003528D01*
X010064Y003530D01*
X010062Y003532D01*
X010044Y003578D01*
X010025Y003623D01*
X010025Y003626D01*
X010024Y003628D01*
X010025Y003678D01*
X010025Y003727D01*
X010026Y003729D01*
X010040Y004430D01*
X010005Y004430D01*
X009900Y004535D01*
X009900Y005315D01*
X010005Y005420D01*
X011826Y005409D02*
X012127Y005409D01*
X012246Y005290D02*
X011920Y005290D01*
X011920Y005172D02*
X012364Y005172D01*
X012483Y005053D02*
X012025Y005053D01*
X012143Y004935D02*
X012601Y004935D01*
X012720Y004816D02*
X012262Y004816D01*
X012380Y004698D02*
X012838Y004698D01*
X012957Y004579D02*
X012499Y004579D01*
X012617Y004461D02*
X013075Y004461D01*
X013194Y004342D02*
X012736Y004342D01*
X012854Y004224D02*
X013312Y004224D01*
X013431Y004105D02*
X012973Y004105D01*
X013091Y003987D02*
X013549Y003987D01*
X013656Y003880D02*
X013656Y003880D01*
X013668Y003868D02*
X013163Y003868D01*
X013170Y003750D02*
X023286Y003750D01*
X023405Y003631D02*
X013170Y003631D01*
X013170Y003513D02*
X023523Y003513D01*
X023642Y003394D02*
X013170Y003394D01*
X013170Y003276D02*
X023789Y003276D01*
X024016Y003868D02*
X026771Y003868D01*
X026771Y003987D02*
X023898Y003987D01*
X023779Y004105D02*
X026789Y004105D01*
X027360Y004224D02*
X023661Y004224D01*
X023489Y004342D02*
X027360Y004342D01*
X027360Y004461D02*
X013924Y004461D01*
X013805Y004579D02*
X027360Y004579D01*
X027360Y004698D02*
X013687Y004698D01*
X013568Y004816D02*
X015920Y004816D01*
X015791Y004935D02*
X013450Y004935D01*
X013331Y005053D02*
X015687Y005053D01*
X015583Y005172D02*
X013213Y005172D01*
X011882Y004461D02*
X011845Y004461D01*
X012000Y004342D02*
X011170Y004342D01*
X011226Y004224D02*
X012119Y004224D01*
X012237Y004105D02*
X011268Y004105D01*
X011268Y003987D02*
X012356Y003987D01*
X012474Y003868D02*
X011222Y003868D01*
X011578Y003750D02*
X012593Y003750D01*
X012650Y003631D02*
X011697Y003631D01*
X011815Y003513D02*
X012650Y003513D01*
X012650Y003394D02*
X011934Y003394D01*
X012052Y003276D02*
X012650Y003276D01*
X012650Y003157D02*
X012147Y003157D01*
X012170Y003039D02*
X012650Y003039D01*
X012601Y002920D02*
X012219Y002920D01*
X012337Y002802D02*
X012483Y002802D01*
X012430Y002683D02*
X012390Y002683D01*
X012390Y002565D02*
X012430Y002565D01*
X012430Y002446D02*
X012390Y002446D01*
X012366Y002328D02*
X012454Y002328D01*
X012572Y002209D02*
X012248Y002209D01*
X012129Y002091D02*
X012691Y002091D01*
X012719Y002010D02*
X012450Y001741D01*
X012450Y001590D01*
X012870Y001590D01*
X012870Y002010D01*
X012719Y002010D01*
X012681Y001972D02*
X012139Y001972D01*
X012101Y002010D02*
X011950Y002010D01*
X011950Y001590D01*
X012370Y001590D01*
X012370Y001741D01*
X012101Y002010D01*
X011950Y001972D02*
X011870Y001972D01*
X011870Y002010D02*
X011719Y002010D01*
X011450Y001741D01*
X011450Y001590D01*
X011870Y001590D01*
X011870Y002010D01*
X011870Y001854D02*
X011950Y001854D01*
X011950Y001735D02*
X011870Y001735D01*
X011870Y001617D02*
X011950Y001617D01*
X011950Y001590D02*
X011870Y001590D01*
X011870Y001510D01*
X011950Y001510D01*
X011950Y001590D01*
X011950Y001510D02*
X012370Y001510D01*
X012370Y001359D01*
X012101Y001090D01*
X011950Y001090D01*
X011950Y001510D01*
X011950Y001498D02*
X011870Y001498D01*
X011870Y001510D02*
X011870Y001090D01*
X011719Y001090D01*
X011450Y001359D01*
X011450Y001510D01*
X011870Y001510D01*
X011870Y001380D02*
X011950Y001380D01*
X011950Y001261D02*
X011870Y001261D01*
X011870Y001143D02*
X011950Y001143D01*
X012153Y001143D02*
X012667Y001143D01*
X012719Y001090D02*
X012870Y001090D01*
X012870Y001510D01*
X012950Y001510D01*
X012950Y001590D01*
X013370Y001590D01*
X013370Y001741D01*
X013101Y002010D01*
X012950Y002010D01*
X012950Y001590D01*
X012870Y001590D01*
X012870Y001510D01*
X012450Y001510D01*
X012450Y001359D01*
X012719Y001090D01*
X012870Y001143D02*
X012950Y001143D01*
X012950Y001090D02*
X013101Y001090D01*
X013370Y001359D01*
X013370Y001510D01*
X012950Y001510D01*
X012950Y001090D01*
X012950Y001261D02*
X012870Y001261D01*
X012870Y001380D02*
X012950Y001380D01*
X012950Y001498D02*
X012870Y001498D01*
X012870Y001617D02*
X012950Y001617D01*
X012950Y001735D02*
X012870Y001735D01*
X012870Y001854D02*
X012950Y001854D01*
X012950Y001972D02*
X012870Y001972D01*
X013139Y001972D02*
X013681Y001972D01*
X013719Y002010D02*
X013450Y001741D01*
X013450Y001590D01*
X013870Y001590D01*
X013870Y002010D01*
X013719Y002010D01*
X013711Y002070D02*
X014109Y002070D01*
X014390Y002351D01*
X014390Y002749D01*
X014109Y003030D01*
X013711Y003030D01*
X013430Y002749D01*
X013430Y002351D01*
X013711Y002070D01*
X013691Y002091D02*
X013129Y002091D01*
X013248Y002209D02*
X013572Y002209D01*
X013454Y002328D02*
X013366Y002328D01*
X013390Y002446D02*
X013430Y002446D01*
X013430Y002565D02*
X013390Y002565D01*
X013390Y002683D02*
X013430Y002683D01*
X013483Y002802D02*
X013337Y002802D01*
X013219Y002920D02*
X013601Y002920D01*
X013170Y003039D02*
X026805Y003039D01*
X026771Y003157D02*
X013170Y003157D01*
X014219Y002920D02*
X014601Y002920D01*
X014711Y003030D02*
X014430Y002749D01*
X014430Y002351D01*
X014711Y002070D01*
X015109Y002070D01*
X015390Y002351D01*
X015390Y002749D01*
X015109Y003030D01*
X014711Y003030D01*
X015219Y002920D02*
X015601Y002920D01*
X015711Y003030D02*
X015430Y002749D01*
X015430Y002351D01*
X015711Y002070D01*
X016109Y002070D01*
X016390Y002351D01*
X016390Y002749D01*
X016109Y003030D01*
X015711Y003030D01*
X016219Y002920D02*
X016601Y002920D01*
X016483Y002802D02*
X016337Y002802D01*
X016390Y002683D02*
X016430Y002683D01*
X016430Y002565D02*
X016390Y002565D01*
X016390Y002446D02*
X016430Y002446D01*
X016454Y002328D02*
X016366Y002328D01*
X016248Y002209D02*
X016572Y002209D01*
X016691Y002091D02*
X016129Y002091D01*
X016101Y002010D02*
X015950Y002010D01*
X015950Y001590D01*
X016370Y001590D01*
X016370Y001741D01*
X016101Y002010D01*
X016139Y001972D02*
X016681Y001972D01*
X016563Y001854D02*
X016257Y001854D01*
X016370Y001735D02*
X016450Y001735D01*
X016450Y001617D02*
X016370Y001617D01*
X016370Y001510D02*
X015950Y001510D01*
X015950Y001590D01*
X015870Y001590D01*
X015870Y002010D01*
X015719Y002010D01*
X015450Y001741D01*
X015450Y001590D01*
X015870Y001590D01*
X015870Y001510D01*
X015950Y001510D01*
X015950Y001090D01*
X016101Y001090D01*
X016370Y001359D01*
X016370Y001510D01*
X016370Y001498D02*
X016450Y001498D01*
X016450Y001380D02*
X016370Y001380D01*
X016272Y001261D02*
X016548Y001261D01*
X016667Y001143D02*
X016153Y001143D01*
X015950Y001143D02*
X015870Y001143D01*
X015870Y001090D02*
X015870Y001510D01*
X015450Y001510D01*
X015450Y001359D01*
X015719Y001090D01*
X015870Y001090D01*
X015870Y001261D02*
X015950Y001261D01*
X015950Y001380D02*
X015870Y001380D01*
X015870Y001498D02*
X015950Y001498D01*
X015950Y001617D02*
X015870Y001617D01*
X015870Y001735D02*
X015950Y001735D01*
X015950Y001854D02*
X015870Y001854D01*
X015870Y001972D02*
X015950Y001972D01*
X015681Y001972D02*
X015139Y001972D01*
X015101Y002010D02*
X014950Y002010D01*
X014950Y001590D01*
X015370Y001590D01*
X015370Y001741D01*
X015101Y002010D01*
X015129Y002091D02*
X015691Y002091D01*
X015572Y002209D02*
X015248Y002209D01*
X015366Y002328D02*
X015454Y002328D01*
X015430Y002446D02*
X015390Y002446D01*
X015390Y002565D02*
X015430Y002565D01*
X015430Y002683D02*
X015390Y002683D01*
X015337Y002802D02*
X015483Y002802D01*
X014483Y002802D02*
X014337Y002802D01*
X014390Y002683D02*
X014430Y002683D01*
X014430Y002565D02*
X014390Y002565D01*
X014390Y002446D02*
X014430Y002446D01*
X014454Y002328D02*
X014366Y002328D01*
X014248Y002209D02*
X014572Y002209D01*
X014691Y002091D02*
X014129Y002091D01*
X014101Y002010D02*
X013950Y002010D01*
X013950Y001590D01*
X014370Y001590D01*
X014370Y001741D01*
X014101Y002010D01*
X014139Y001972D02*
X014681Y001972D01*
X014719Y002010D02*
X014450Y001741D01*
X014450Y001590D01*
X014870Y001590D01*
X014870Y002010D01*
X014719Y002010D01*
X014870Y001972D02*
X014950Y001972D01*
X014950Y001854D02*
X014870Y001854D01*
X014870Y001735D02*
X014950Y001735D01*
X014950Y001617D02*
X014870Y001617D01*
X014870Y001590D02*
X014950Y001590D01*
X014950Y001510D01*
X015370Y001510D01*
X015370Y001359D01*
X015101Y001090D01*
X014950Y001090D01*
X014950Y001510D01*
X014870Y001510D01*
X014870Y001090D01*
X014719Y001090D01*
X014450Y001359D01*
X014450Y001510D01*
X014870Y001510D01*
X014870Y001590D01*
X014870Y001498D02*
X014950Y001498D01*
X014950Y001380D02*
X014870Y001380D01*
X014870Y001261D02*
X014950Y001261D01*
X014950Y001143D02*
X014870Y001143D01*
X014667Y001143D02*
X014153Y001143D01*
X014101Y001090D02*
X014370Y001359D01*
X014370Y001510D01*
X013950Y001510D01*
X013950Y001590D01*
X013870Y001590D01*
X013870Y001510D01*
X013950Y001510D01*
X013950Y001090D01*
X014101Y001090D01*
X013950Y001143D02*
X013870Y001143D01*
X013870Y001090D02*
X013870Y001510D01*
X013450Y001510D01*
X013450Y001359D01*
X013719Y001090D01*
X013870Y001090D01*
X013870Y001261D02*
X013950Y001261D01*
X013950Y001380D02*
X013870Y001380D01*
X013870Y001498D02*
X013950Y001498D01*
X013950Y001617D02*
X013870Y001617D01*
X013870Y001735D02*
X013950Y001735D01*
X013950Y001854D02*
X013870Y001854D01*
X013870Y001972D02*
X013950Y001972D01*
X014257Y001854D02*
X014563Y001854D01*
X014450Y001735D02*
X014370Y001735D01*
X014370Y001617D02*
X014450Y001617D01*
X014450Y001498D02*
X014370Y001498D01*
X014370Y001380D02*
X014450Y001380D01*
X014548Y001261D02*
X014272Y001261D01*
X013667Y001143D02*
X013153Y001143D01*
X013272Y001261D02*
X013548Y001261D01*
X013450Y001380D02*
X013370Y001380D01*
X013370Y001498D02*
X013450Y001498D01*
X013450Y001617D02*
X013370Y001617D01*
X013370Y001735D02*
X013450Y001735D01*
X013563Y001854D02*
X013257Y001854D01*
X012563Y001854D02*
X012257Y001854D01*
X012370Y001735D02*
X012450Y001735D01*
X012450Y001617D02*
X012370Y001617D01*
X012370Y001498D02*
X012450Y001498D01*
X012450Y001380D02*
X012370Y001380D01*
X012272Y001261D02*
X012548Y001261D01*
X011667Y001143D02*
X011153Y001143D01*
X011101Y001090D02*
X011370Y001359D01*
X011370Y001510D01*
X010950Y001510D01*
X010950Y001590D01*
X011370Y001590D01*
X011370Y001741D01*
X011101Y002010D01*
X010950Y002010D01*
X010950Y001590D01*
X010870Y001590D01*
X010870Y002010D01*
X010719Y002010D01*
X010450Y001741D01*
X010450Y001590D01*
X010870Y001590D01*
X010870Y001510D01*
X010950Y001510D01*
X010950Y001090D01*
X011101Y001090D01*
X010950Y001143D02*
X010870Y001143D01*
X010870Y001090D02*
X010870Y001510D01*
X010450Y001510D01*
X010450Y001359D01*
X010719Y001090D01*
X010870Y001090D01*
X010870Y001261D02*
X010950Y001261D01*
X010950Y001380D02*
X010870Y001380D01*
X010870Y001498D02*
X010950Y001498D01*
X010950Y001617D02*
X010870Y001617D01*
X010870Y001735D02*
X010950Y001735D01*
X010950Y001854D02*
X010870Y001854D01*
X010870Y001972D02*
X010950Y001972D01*
X011109Y002070D02*
X010711Y002070D01*
X010430Y002351D01*
X010430Y002749D01*
X010711Y003030D01*
X011109Y003030D01*
X011390Y002749D01*
X011390Y002351D01*
X011109Y002070D01*
X011129Y002091D02*
X011691Y002091D01*
X011681Y001972D02*
X011139Y001972D01*
X011257Y001854D02*
X011563Y001854D01*
X011450Y001735D02*
X011370Y001735D01*
X011370Y001617D02*
X011450Y001617D01*
X011450Y001498D02*
X011370Y001498D01*
X011370Y001380D02*
X011450Y001380D01*
X011548Y001261D02*
X011272Y001261D01*
X010667Y001143D02*
X010153Y001143D01*
X010101Y001090D02*
X010370Y001359D01*
X010370Y001510D01*
X009950Y001510D01*
X009950Y001590D01*
X010370Y001590D01*
X010370Y001741D01*
X010101Y002010D01*
X009950Y002010D01*
X009950Y001590D01*
X009870Y001590D01*
X009870Y002010D01*
X009719Y002010D01*
X009450Y001741D01*
X009450Y001590D01*
X009870Y001590D01*
X009870Y001510D01*
X009950Y001510D01*
X009950Y001090D01*
X010101Y001090D01*
X009950Y001143D02*
X009870Y001143D01*
X009870Y001090D02*
X009870Y001510D01*
X009450Y001510D01*
X009450Y001359D01*
X009719Y001090D01*
X009870Y001090D01*
X009870Y001261D02*
X009950Y001261D01*
X009950Y001380D02*
X009870Y001380D01*
X009870Y001498D02*
X009950Y001498D01*
X009950Y001617D02*
X009870Y001617D01*
X009870Y001735D02*
X009950Y001735D01*
X009950Y001854D02*
X009870Y001854D01*
X009870Y001972D02*
X009950Y001972D01*
X010109Y002070D02*
X010390Y002351D01*
X010390Y002749D01*
X010109Y003030D01*
X009711Y003030D01*
X009430Y002749D01*
X009430Y002351D01*
X009711Y002070D01*
X010109Y002070D01*
X010129Y002091D02*
X010691Y002091D01*
X010681Y001972D02*
X010139Y001972D01*
X010257Y001854D02*
X010563Y001854D01*
X010450Y001735D02*
X010370Y001735D01*
X010370Y001617D02*
X010450Y001617D01*
X010450Y001498D02*
X010370Y001498D01*
X010370Y001380D02*
X010450Y001380D01*
X010548Y001261D02*
X010272Y001261D01*
X009667Y001143D02*
X009153Y001143D01*
X009101Y001090D02*
X009370Y001359D01*
X009370Y001510D01*
X008950Y001510D01*
X008950Y001590D01*
X009370Y001590D01*
X009370Y001741D01*
X009101Y002010D01*
X008950Y002010D01*
X008950Y001590D01*
X008870Y001590D01*
X008870Y002010D01*
X008719Y002010D01*
X008450Y001741D01*
X008450Y001590D01*
X008870Y001590D01*
X008870Y001510D01*
X008950Y001510D01*
X008950Y001090D01*
X009101Y001090D01*
X008950Y001143D02*
X008870Y001143D01*
X008870Y001090D02*
X008870Y001510D01*
X008450Y001510D01*
X008450Y001359D01*
X008719Y001090D01*
X008870Y001090D01*
X008870Y001261D02*
X008950Y001261D01*
X008950Y001380D02*
X008870Y001380D01*
X008870Y001498D02*
X008950Y001498D01*
X008950Y001617D02*
X008870Y001617D01*
X008870Y001735D02*
X008950Y001735D01*
X008950Y001854D02*
X008870Y001854D01*
X008870Y001972D02*
X008950Y001972D01*
X009109Y002070D02*
X008711Y002070D01*
X008430Y002351D01*
X008430Y002749D01*
X008711Y003030D01*
X009109Y003030D01*
X009390Y002749D01*
X009390Y002351D01*
X009109Y002070D01*
X009129Y002091D02*
X009691Y002091D01*
X009681Y001972D02*
X009139Y001972D01*
X009257Y001854D02*
X009563Y001854D01*
X009450Y001735D02*
X009370Y001735D01*
X009370Y001617D02*
X009450Y001617D01*
X009450Y001498D02*
X009370Y001498D01*
X009370Y001380D02*
X009450Y001380D01*
X009548Y001261D02*
X009272Y001261D01*
X008667Y001143D02*
X008153Y001143D01*
X008101Y001090D02*
X008370Y001359D01*
X008370Y001510D01*
X007950Y001510D01*
X007950Y001590D01*
X008370Y001590D01*
X008370Y001741D01*
X008101Y002010D01*
X007950Y002010D01*
X007950Y001590D01*
X007870Y001590D01*
X007870Y002010D01*
X007719Y002010D01*
X007450Y001741D01*
X007450Y001590D01*
X007870Y001590D01*
X007870Y001510D01*
X007950Y001510D01*
X007950Y001090D01*
X008101Y001090D01*
X007950Y001143D02*
X007870Y001143D01*
X007870Y001090D02*
X007870Y001510D01*
X007450Y001510D01*
X007450Y001359D01*
X007719Y001090D01*
X007870Y001090D01*
X007870Y001261D02*
X007950Y001261D01*
X007950Y001380D02*
X007870Y001380D01*
X007870Y001498D02*
X007950Y001498D01*
X007950Y001617D02*
X007870Y001617D01*
X007870Y001735D02*
X007950Y001735D01*
X007950Y001854D02*
X007870Y001854D01*
X007870Y001972D02*
X007950Y001972D01*
X008109Y002070D02*
X008390Y002351D01*
X008390Y002749D01*
X008109Y003030D01*
X007711Y003030D01*
X007430Y002749D01*
X007430Y002351D01*
X007711Y002070D01*
X008109Y002070D01*
X008129Y002091D02*
X008691Y002091D01*
X008681Y001972D02*
X008139Y001972D01*
X008257Y001854D02*
X008563Y001854D01*
X008450Y001735D02*
X008370Y001735D01*
X008370Y001617D02*
X008450Y001617D01*
X008450Y001498D02*
X008370Y001498D01*
X008370Y001380D02*
X008450Y001380D01*
X008548Y001261D02*
X008272Y001261D01*
X007667Y001143D02*
X001714Y001143D01*
X001776Y001261D02*
X007548Y001261D01*
X007450Y001380D02*
X001825Y001380D01*
X001840Y001498D02*
X007450Y001498D01*
X007450Y001617D02*
X001840Y001617D01*
X001819Y001735D02*
X007450Y001735D01*
X007563Y001854D02*
X001770Y001854D01*
X001700Y001972D02*
X007681Y001972D01*
X007691Y002091D02*
X001581Y002091D01*
X001346Y002209D02*
X007572Y002209D01*
X007454Y002328D02*
X000410Y002328D01*
X000410Y002446D02*
X007430Y002446D01*
X007430Y002565D02*
X000410Y002565D01*
X000410Y002683D02*
X007430Y002683D01*
X007483Y002802D02*
X000410Y002802D01*
X000410Y002920D02*
X007601Y002920D01*
X008219Y002920D02*
X008601Y002920D01*
X008483Y002802D02*
X008337Y002802D01*
X008390Y002683D02*
X008430Y002683D01*
X008430Y002565D02*
X008390Y002565D01*
X008390Y002446D02*
X008430Y002446D01*
X008454Y002328D02*
X008366Y002328D01*
X008248Y002209D02*
X008572Y002209D01*
X009248Y002209D02*
X009572Y002209D01*
X009454Y002328D02*
X009366Y002328D01*
X009390Y002446D02*
X009430Y002446D01*
X009430Y002565D02*
X009390Y002565D01*
X009390Y002683D02*
X009430Y002683D01*
X009483Y002802D02*
X009337Y002802D01*
X009219Y002920D02*
X009601Y002920D01*
X010219Y002920D02*
X010601Y002920D01*
X010483Y002802D02*
X010337Y002802D01*
X010390Y002683D02*
X010430Y002683D01*
X010430Y002565D02*
X010390Y002565D01*
X010390Y002446D02*
X010430Y002446D01*
X010454Y002328D02*
X010366Y002328D01*
X010248Y002209D02*
X010572Y002209D01*
X011248Y002209D02*
X011572Y002209D01*
X011454Y002328D02*
X011366Y002328D01*
X011390Y002446D02*
X011430Y002446D01*
X011430Y002565D02*
X011390Y002565D01*
X011390Y002683D02*
X011430Y002683D01*
X011483Y002802D02*
X011337Y002802D01*
X011219Y002920D02*
X011601Y002920D01*
X011554Y003039D02*
X000410Y003039D01*
X000410Y003157D02*
X011435Y003157D01*
X011317Y003276D02*
X000410Y003276D01*
X000410Y002209D02*
X000974Y002209D01*
X000739Y002091D02*
X000410Y002091D01*
X000410Y001972D02*
X000620Y001972D01*
X000550Y001854D02*
X000410Y001854D01*
X000410Y001735D02*
X000501Y001735D01*
X000480Y001617D02*
X000410Y001617D01*
X000410Y001498D02*
X000480Y001498D01*
X000495Y001380D02*
X000410Y001380D01*
X000410Y001261D02*
X000544Y001261D01*
X000606Y001143D02*
X000410Y001143D01*
X000410Y001024D02*
X000724Y001024D01*
X000939Y000906D02*
X000410Y000906D01*
X000410Y000787D02*
X039100Y000787D01*
X036480Y001024D02*
X036400Y001024D01*
X036400Y001143D02*
X036480Y001143D01*
X036480Y001261D02*
X036400Y001261D01*
X036400Y001498D02*
X036480Y001498D01*
X037030Y002802D02*
X039100Y002802D01*
X039100Y002920D02*
X037148Y002920D01*
X037197Y003039D02*
X039100Y003039D01*
X039100Y003157D02*
X037385Y003157D01*
X037503Y003276D02*
X039100Y003276D01*
X039100Y003394D02*
X037622Y003394D01*
X037557Y003330D02*
X037557Y003330D01*
X037670Y003513D02*
X039100Y003513D01*
X039100Y003631D02*
X037670Y003631D01*
X037670Y003750D02*
X039100Y003750D01*
X039100Y003868D02*
X037670Y003868D01*
X037670Y003987D02*
X039100Y003987D01*
X039100Y004105D02*
X037670Y004105D01*
X037670Y004224D02*
X039100Y004224D01*
X039100Y004342D02*
X037670Y004342D01*
X037670Y004461D02*
X039100Y004461D01*
X039100Y004579D02*
X037670Y004579D01*
X037670Y004698D02*
X039100Y004698D01*
X039100Y004816D02*
X037670Y004816D01*
X037670Y004935D02*
X039100Y004935D01*
X039100Y005053D02*
X037670Y005053D01*
X037670Y005172D02*
X039100Y005172D01*
X039100Y005290D02*
X037670Y005290D01*
X037670Y005409D02*
X039100Y005409D01*
X039100Y005527D02*
X037670Y005527D01*
X037670Y005646D02*
X039100Y005646D01*
X039100Y005764D02*
X037670Y005764D01*
X037670Y005883D02*
X039100Y005883D01*
X039100Y006001D02*
X037670Y006001D01*
X037670Y006120D02*
X039100Y006120D01*
X039100Y006238D02*
X037716Y006238D01*
X037217Y006475D02*
X037134Y006475D01*
X037015Y006594D02*
X037336Y006594D01*
X037454Y006712D02*
X032861Y006712D01*
X032861Y006594D02*
X033305Y006594D01*
X033186Y006475D02*
X032855Y006475D01*
X032443Y006831D02*
X037573Y006831D01*
X037636Y006949D02*
X032861Y006949D01*
X032861Y007068D02*
X033272Y007068D01*
X033280Y007059D02*
X033339Y007017D01*
X033403Y006984D01*
X033472Y006961D01*
X033544Y006950D01*
X033840Y006950D01*
X033840Y007370D01*
X033920Y007370D01*
X033920Y007450D01*
X033840Y007450D01*
X033840Y007870D01*
X033544Y007870D01*
X033472Y007859D01*
X033403Y007836D01*
X033339Y007803D01*
X033280Y007761D01*
X033229Y007710D01*
X033187Y007651D01*
X033154Y007587D01*
X033131Y007518D01*
X033121Y007450D01*
X033840Y007450D01*
X033840Y007370D01*
X033121Y007370D01*
X033131Y007302D01*
X033154Y007233D01*
X033187Y007169D01*
X033229Y007110D01*
X033280Y007059D01*
X033178Y007186D02*
X032843Y007186D01*
X033131Y007305D02*
X031920Y007305D01*
X031920Y007423D02*
X033840Y007423D01*
X033920Y007423D02*
X036400Y007423D01*
X036400Y007450D02*
X036400Y007370D01*
X036480Y007370D01*
X036480Y007450D01*
X036400Y007450D01*
X036400Y007870D01*
X036104Y007870D01*
X036032Y007859D01*
X035963Y007836D01*
X035899Y007803D01*
X035840Y007761D01*
X035789Y007710D01*
X035747Y007651D01*
X035714Y007587D01*
X035691Y007518D01*
X035681Y007450D01*
X036400Y007450D01*
X036480Y007450D02*
X036480Y007870D01*
X036776Y007870D01*
X036848Y007859D01*
X036917Y007836D01*
X036981Y007803D01*
X037040Y007761D01*
X037091Y007710D01*
X037133Y007651D01*
X037166Y007587D01*
X037189Y007518D01*
X037199Y007450D01*
X036480Y007450D01*
X036480Y007423D02*
X037677Y007423D01*
X037667Y007441D02*
X037688Y007405D01*
X037718Y007375D01*
X037754Y007354D01*
X037795Y007343D01*
X038074Y007343D01*
X038074Y007762D01*
X037656Y007762D01*
X037656Y007482D01*
X037667Y007441D01*
X037656Y007542D02*
X037181Y007542D01*
X037127Y007660D02*
X037656Y007660D01*
X037656Y007838D02*
X038074Y007838D01*
X038074Y007762D01*
X038151Y007762D01*
X038151Y007838D01*
X038570Y007838D01*
X038570Y008118D01*
X038559Y008159D01*
X038538Y008195D01*
X038508Y008225D01*
X038471Y008246D01*
X038431Y008257D01*
X038151Y008257D01*
X038151Y007838D01*
X038074Y007838D01*
X038074Y008257D01*
X037795Y008257D01*
X037754Y008246D01*
X037718Y008225D01*
X037688Y008195D01*
X037667Y008159D01*
X037656Y008118D01*
X037656Y007838D01*
X037656Y007897D02*
X031920Y007897D01*
X031920Y007779D02*
X033305Y007779D01*
X033193Y007660D02*
X031920Y007660D01*
X031920Y007542D02*
X033139Y007542D01*
X033840Y007542D02*
X033920Y007542D01*
X033920Y007450D02*
X033920Y007870D01*
X034216Y007870D01*
X034288Y007859D01*
X034357Y007836D01*
X034421Y007803D01*
X034480Y007761D01*
X034531Y007710D01*
X034573Y007651D01*
X034606Y007587D01*
X034629Y007518D01*
X034639Y007450D01*
X033920Y007450D01*
X033920Y007370D02*
X034639Y007370D01*
X034629Y007302D01*
X034606Y007233D01*
X034573Y007169D01*
X034531Y007110D01*
X034480Y007059D01*
X034421Y007017D01*
X034357Y006984D01*
X034288Y006961D01*
X034216Y006950D01*
X033920Y006950D01*
X033920Y007370D01*
X033920Y007305D02*
X033840Y007305D01*
X033840Y007186D02*
X033920Y007186D01*
X033920Y007068D02*
X033840Y007068D01*
X034488Y007068D02*
X035832Y007068D01*
X035840Y007059D02*
X035899Y007017D01*
X035963Y006984D01*
X036032Y006961D01*
X036104Y006950D01*
X036400Y006950D01*
X036400Y007370D01*
X035681Y007370D01*
X035691Y007302D01*
X035714Y007233D01*
X035747Y007169D01*
X035789Y007110D01*
X035840Y007059D01*
X035738Y007186D02*
X034582Y007186D01*
X034629Y007305D02*
X035691Y007305D01*
X035699Y007542D02*
X034621Y007542D01*
X034567Y007660D02*
X035753Y007660D01*
X035865Y007779D02*
X034455Y007779D01*
X033920Y007779D02*
X033840Y007779D01*
X033840Y007660D02*
X033920Y007660D01*
X032443Y007186D02*
X032366Y007186D01*
X032366Y007068D02*
X032443Y007068D01*
X032443Y006949D02*
X032366Y006949D01*
X032366Y006831D02*
X031920Y006831D01*
X031920Y006949D02*
X031947Y006949D01*
X031947Y007068D02*
X031920Y007068D01*
X031920Y007186D02*
X031965Y007186D01*
X031400Y007186D02*
X030992Y007186D01*
X031010Y007199D02*
X031061Y007250D01*
X031103Y007309D01*
X031136Y007373D01*
X031159Y007442D01*
X031169Y007510D01*
X030450Y007510D01*
X030450Y007090D01*
X030746Y007090D01*
X030818Y007101D01*
X030887Y007124D01*
X030951Y007157D01*
X031010Y007199D01*
X031100Y007305D02*
X031400Y007305D01*
X031400Y007423D02*
X031152Y007423D01*
X031400Y007542D02*
X030450Y007542D01*
X030450Y007590D02*
X031169Y007590D01*
X031159Y007658D01*
X031136Y007727D01*
X031103Y007791D01*
X031061Y007850D01*
X031010Y007901D01*
X030951Y007943D01*
X030887Y007976D01*
X030818Y007999D01*
X030746Y008010D01*
X030450Y008010D01*
X030450Y007590D01*
X030450Y007660D02*
X030370Y007660D01*
X030370Y007779D02*
X030450Y007779D01*
X030450Y007897D02*
X030370Y007897D01*
X030039Y008134D02*
X031413Y008134D01*
X031400Y008016D02*
X029937Y008016D01*
X030140Y008253D02*
X031495Y008253D01*
X031613Y008371D02*
X030242Y008371D01*
X030343Y008490D02*
X031732Y008490D01*
X031850Y008608D02*
X030445Y008608D01*
X030547Y008727D02*
X031927Y008727D01*
X031927Y008845D02*
X030648Y008845D01*
X030750Y008964D02*
X031927Y008964D01*
X031927Y009082D02*
X030851Y009082D01*
X030953Y009201D02*
X031972Y009201D01*
X032836Y009201D02*
X033100Y009201D01*
X033105Y009082D02*
X032881Y009082D01*
X032881Y008964D02*
X033154Y008964D01*
X033246Y008845D02*
X032881Y008845D01*
X032881Y008727D02*
X033445Y008727D01*
X032881Y008608D02*
X036654Y008608D01*
X036625Y008637D02*
X036625Y008637D01*
X036005Y008727D02*
X034315Y008727D01*
X034514Y008845D02*
X035806Y008845D01*
X035723Y009438D02*
X035440Y009438D01*
X035664Y009556D02*
X035827Y009556D01*
X035783Y009675D02*
X039100Y009675D01*
X039100Y009793D02*
X035871Y009793D01*
X035920Y009912D02*
X039100Y009912D01*
X039100Y010030D02*
X035969Y010030D01*
X035973Y010149D02*
X039100Y010149D01*
X039100Y010267D02*
X035973Y010267D01*
X035964Y010386D02*
X039100Y010386D01*
X039100Y010504D02*
X035915Y010504D01*
X035866Y010623D02*
X039100Y010623D01*
X039100Y010741D02*
X035770Y010741D01*
X035652Y010860D02*
X039100Y010860D01*
X039100Y010978D02*
X035410Y010978D01*
X035707Y011170D02*
X035782Y011115D01*
X035865Y011073D01*
X035953Y011045D01*
X036045Y011030D01*
X036072Y011030D01*
X036072Y012031D01*
X035501Y012031D01*
X035501Y011574D01*
X035516Y011482D01*
X035544Y011394D01*
X035586Y011311D01*
X035641Y011236D01*
X035707Y011170D01*
X035662Y011215D02*
X034187Y011215D01*
X034270Y011334D02*
X035575Y011334D01*
X035525Y011452D02*
X034320Y011452D01*
X034339Y011571D02*
X035502Y011571D01*
X035501Y011689D02*
X034339Y011689D01*
X034339Y011808D02*
X035501Y011808D01*
X035501Y011926D02*
X034339Y011926D01*
X034339Y012045D02*
X036072Y012045D01*
X036072Y012031D02*
X036072Y012069D01*
X035501Y012069D01*
X035501Y012526D01*
X035516Y012618D01*
X035544Y012706D01*
X035586Y012789D01*
X035641Y012864D01*
X035707Y012930D01*
X035782Y012985D01*
X035865Y013027D01*
X035953Y013055D01*
X036045Y013070D01*
X036072Y013070D01*
X036072Y012069D01*
X036110Y012069D01*
X036110Y013070D01*
X036138Y013070D01*
X036229Y013055D01*
X036318Y013027D01*
X036400Y012985D01*
X036475Y012930D01*
X036541Y012864D01*
X036596Y012789D01*
X036638Y012706D01*
X036667Y012618D01*
X036681Y012526D01*
X036681Y012069D01*
X036110Y012069D01*
X036110Y012031D01*
X036110Y011030D01*
X036138Y011030D01*
X036229Y011045D01*
X036318Y011073D01*
X036400Y011115D01*
X036475Y011170D01*
X036541Y011236D01*
X036596Y011311D01*
X036638Y011394D01*
X036667Y011482D01*
X036681Y011574D01*
X036681Y012031D01*
X036110Y012031D01*
X036072Y012031D01*
X036110Y012045D02*
X039100Y012045D01*
X039100Y012163D02*
X036681Y012163D01*
X036681Y012282D02*
X039100Y012282D01*
X039100Y012400D02*
X036681Y012400D01*
X036681Y012519D02*
X039100Y012519D01*
X039100Y012637D02*
X036660Y012637D01*
X036613Y012756D02*
X039100Y012756D01*
X039100Y012874D02*
X036531Y012874D01*
X036385Y012993D02*
X039100Y012993D01*
X039100Y013111D02*
X031183Y013111D01*
X031236Y013165D02*
X031340Y013415D01*
X031340Y013685D01*
X031236Y013935D01*
X031045Y014126D01*
X030795Y014230D01*
X030525Y014230D01*
X030275Y014126D01*
X030084Y013935D01*
X029980Y013685D01*
X029980Y013415D01*
X030084Y013165D01*
X030275Y012974D01*
X030525Y012870D01*
X030795Y012870D01*
X031045Y012974D01*
X031236Y013165D01*
X031263Y013230D02*
X039100Y013230D01*
X039100Y013348D02*
X031312Y013348D01*
X031340Y013467D02*
X034128Y013467D01*
X034008Y013585D02*
X031340Y013585D01*
X031332Y013704D02*
X033938Y013704D01*
X033901Y013822D02*
X031283Y013822D01*
X031231Y013941D02*
X034891Y013941D01*
X034929Y013941D02*
X039100Y013941D01*
X039100Y014059D02*
X035918Y014059D01*
X035881Y014178D02*
X039100Y014178D01*
X039100Y014296D02*
X035810Y014296D01*
X035930Y013921D02*
X034929Y013921D01*
X034929Y013350D01*
X035386Y013350D01*
X035478Y013364D01*
X035566Y013393D01*
X035649Y013435D01*
X035724Y013490D01*
X035790Y013555D01*
X035845Y013631D01*
X035887Y013713D01*
X035915Y013802D01*
X035930Y013893D01*
X035930Y013921D01*
X035919Y013822D02*
X039100Y013822D01*
X039100Y013704D02*
X035882Y013704D01*
X035812Y013585D02*
X039100Y013585D01*
X039100Y013467D02*
X035692Y013467D01*
X034929Y013467D02*
X034891Y013467D01*
X034891Y013585D02*
X034929Y013585D01*
X034929Y013704D02*
X034891Y013704D01*
X034891Y013822D02*
X034929Y013822D01*
X034010Y014296D02*
X028651Y014296D01*
X028643Y014299D02*
X028575Y014309D01*
X028575Y013590D01*
X028495Y013590D01*
X028495Y014309D01*
X028427Y014299D01*
X028358Y014276D01*
X028294Y014243D01*
X028235Y014201D01*
X028184Y014150D01*
X028142Y014091D01*
X028109Y014027D01*
X028086Y013958D01*
X028075Y013886D01*
X028075Y013590D01*
X028495Y013590D01*
X028495Y013510D01*
X028075Y013510D01*
X028075Y013214D01*
X028086Y013142D01*
X028109Y013073D01*
X028142Y013009D01*
X028184Y012950D01*
X028235Y012899D01*
X028294Y012857D01*
X028358Y012824D01*
X028427Y012801D01*
X028495Y012791D01*
X028495Y013510D01*
X028575Y013510D01*
X028575Y013590D01*
X028995Y013590D01*
X028995Y013886D01*
X028984Y013958D01*
X028961Y014027D01*
X028928Y014091D01*
X028886Y014150D01*
X028835Y014201D01*
X028776Y014243D01*
X028712Y014276D01*
X028643Y014299D01*
X028575Y014296D02*
X028495Y014296D01*
X028419Y014296D02*
X027712Y014296D01*
X027886Y014178D02*
X028212Y014178D01*
X028125Y014059D02*
X027968Y014059D01*
X028015Y013941D02*
X028084Y013941D01*
X028075Y013822D02*
X028015Y013822D01*
X028015Y013704D02*
X028075Y013704D01*
X028015Y013585D02*
X028495Y013585D01*
X028575Y013585D02*
X029980Y013585D01*
X029980Y013467D02*
X028995Y013467D01*
X028995Y013510D02*
X028575Y013510D01*
X028575Y012791D01*
X028643Y012801D01*
X028712Y012824D01*
X028776Y012857D01*
X028835Y012899D01*
X028886Y012950D01*
X028928Y013009D01*
X028961Y013073D01*
X028984Y013142D01*
X028995Y013214D01*
X028995Y013510D01*
X028995Y013348D02*
X030008Y013348D01*
X030057Y013230D02*
X028995Y013230D01*
X028974Y013111D02*
X030137Y013111D01*
X030256Y012993D02*
X028917Y012993D01*
X028800Y012874D02*
X030515Y012874D01*
X030805Y012874D02*
X033260Y012874D01*
X033183Y012756D02*
X028322Y012756D01*
X028270Y012874D02*
X028174Y012874D01*
X028153Y012993D02*
X028026Y012993D01*
X027997Y013111D02*
X028096Y013111D01*
X028075Y013230D02*
X028015Y013230D01*
X028015Y013348D02*
X028075Y013348D01*
X028075Y013467D02*
X028015Y013467D01*
X028495Y013467D02*
X028575Y013467D01*
X028575Y013348D02*
X028495Y013348D01*
X028495Y013230D02*
X028575Y013230D01*
X028575Y013111D02*
X028495Y013111D01*
X028495Y012993D02*
X028575Y012993D01*
X028575Y012874D02*
X028495Y012874D01*
X028470Y012637D02*
X033134Y012637D01*
X033119Y012519D02*
X028619Y012519D01*
X028767Y012400D02*
X033119Y012400D01*
X034198Y012874D02*
X035651Y012874D01*
X035569Y012756D02*
X034275Y012756D01*
X034324Y012637D02*
X035522Y012637D01*
X035501Y012519D02*
X034339Y012519D01*
X034339Y012400D02*
X035501Y012400D01*
X035501Y012282D02*
X034339Y012282D01*
X034339Y012163D02*
X035501Y012163D01*
X036072Y012163D02*
X036110Y012163D01*
X036110Y012282D02*
X036072Y012282D01*
X036072Y012400D02*
X036110Y012400D01*
X036110Y012519D02*
X036072Y012519D01*
X036072Y012637D02*
X036110Y012637D01*
X036110Y012756D02*
X036072Y012756D01*
X036072Y012874D02*
X036110Y012874D01*
X036110Y012993D02*
X036072Y012993D01*
X035797Y012993D02*
X034079Y012993D01*
X033379Y012993D02*
X031064Y012993D01*
X031911Y012282D02*
X028915Y012282D01*
X029063Y012163D02*
X031792Y012163D01*
X031674Y012045D02*
X029211Y012045D01*
X029359Y011926D02*
X029807Y011926D01*
X028863Y011452D02*
X028376Y011452D01*
X028494Y011334D02*
X028945Y011334D01*
X028715Y011571D02*
X028257Y011571D01*
X028139Y011689D02*
X028567Y011689D01*
X028419Y011808D02*
X028020Y011808D01*
X027902Y011926D02*
X028271Y011926D01*
X028123Y012045D02*
X027795Y012045D01*
X027679Y012163D02*
X027974Y012163D01*
X027826Y012282D02*
X026634Y012282D01*
X026641Y012163D02*
X026545Y012163D01*
X026753Y012400D02*
X027678Y012400D01*
X027530Y012519D02*
X026795Y012519D01*
X026795Y012637D02*
X027382Y012637D01*
X027234Y012756D02*
X026795Y012756D01*
X026838Y012874D02*
X027119Y012874D01*
X027074Y012993D02*
X026948Y012993D01*
X026997Y013111D02*
X027073Y013111D01*
X027055Y013230D02*
X027015Y013230D01*
X027015Y013348D02*
X027055Y013348D01*
X027055Y013467D02*
X027015Y013467D01*
X027015Y013585D02*
X027055Y013585D01*
X027055Y013704D02*
X027015Y013704D01*
X027015Y013822D02*
X027055Y013822D01*
X027055Y013941D02*
X027015Y013941D01*
X026968Y014059D02*
X027102Y014059D01*
X027184Y014178D02*
X026886Y014178D01*
X026712Y014296D02*
X027358Y014296D01*
X026358Y014296D02*
X025712Y014296D01*
X025630Y014330D02*
X025440Y014330D01*
X025263Y014257D01*
X025128Y014122D01*
X025055Y013945D01*
X025055Y013166D01*
X025015Y013190D01*
X025015Y013945D01*
X024942Y014122D01*
X024807Y014257D01*
X024630Y014330D01*
X024440Y014330D01*
X024263Y014257D01*
X024128Y014122D01*
X024055Y013945D01*
X024055Y013184D01*
X024015Y013206D01*
X024015Y013945D01*
X023942Y014122D01*
X023807Y014257D01*
X023630Y014330D01*
X023440Y014330D01*
X023263Y014257D01*
X023128Y014122D01*
X023055Y013945D01*
X023055Y013155D01*
X023128Y012978D01*
X023263Y012843D01*
X023440Y012770D01*
X023630Y012770D01*
X023687Y012793D01*
X024074Y012578D01*
X023971Y012578D01*
X023517Y012578D01*
X023476Y012567D01*
X023440Y012546D01*
X023410Y012516D01*
X023389Y012480D01*
X023378Y012439D01*
X023378Y012300D01*
X023378Y012161D01*
X023389Y012120D01*
X023410Y012084D01*
X023429Y012064D01*
X023358Y011993D01*
X023358Y011607D01*
X023415Y011550D01*
X023358Y011493D01*
X023358Y011107D01*
X023415Y011050D01*
X023358Y010993D01*
X023358Y010607D01*
X023415Y010550D01*
X023358Y010493D01*
X023358Y010107D01*
X023429Y010036D01*
X023410Y010016D01*
X023389Y009980D01*
X023378Y009939D01*
X023378Y009800D01*
X023378Y009661D01*
X023389Y009620D01*
X023410Y009584D01*
X023440Y009554D01*
X023446Y009550D01*
X023440Y009546D01*
X023410Y009516D01*
X023389Y009480D01*
X023378Y009439D01*
X023378Y009300D01*
X023378Y009161D01*
X023389Y009120D01*
X023410Y009084D01*
X023440Y009054D01*
X023446Y009050D01*
X023440Y009046D01*
X023410Y009016D01*
X023389Y008980D01*
X023378Y008939D01*
X023378Y008800D01*
X023378Y008661D01*
X023389Y008620D01*
X023410Y008584D01*
X023440Y008554D01*
X023476Y008533D01*
X023517Y008522D01*
X023971Y008522D01*
X023971Y008800D01*
X023971Y008800D01*
X023378Y008800D01*
X023971Y008800D01*
X023971Y009078D01*
X023971Y009300D01*
X023971Y009300D01*
X023378Y009300D01*
X023971Y009300D01*
X023971Y009800D01*
X023971Y009800D01*
X023378Y009800D01*
X023971Y009800D01*
X023971Y009800D01*
X023971Y009522D01*
X023971Y009300D01*
X023971Y009300D01*
X023971Y009300D01*
X023971Y008800D01*
X023971Y008800D01*
X023971Y008800D01*
X023971Y008522D01*
X024425Y008522D01*
X024466Y008533D01*
X024502Y008554D01*
X024532Y008584D01*
X024553Y008620D01*
X024564Y008661D01*
X024564Y008800D01*
X024564Y008939D01*
X024553Y008980D01*
X024532Y009016D01*
X024502Y009046D01*
X024496Y009050D01*
X024502Y009054D01*
X024532Y009084D01*
X024553Y009120D01*
X024564Y009161D01*
X024564Y009300D01*
X024564Y009439D01*
X024553Y009480D01*
X024532Y009516D01*
X024502Y009546D01*
X024496Y009550D01*
X024502Y009554D01*
X024532Y009584D01*
X024553Y009620D01*
X024564Y009661D01*
X024564Y009800D01*
X024564Y009939D01*
X024553Y009980D01*
X024532Y010016D01*
X024513Y010036D01*
X024517Y010040D01*
X024638Y010040D01*
X024668Y010035D01*
X024690Y010040D01*
X024712Y010040D01*
X024740Y010052D01*
X024769Y010058D01*
X024787Y010071D01*
X024807Y010080D01*
X024829Y010101D01*
X025662Y010696D01*
X025682Y010705D01*
X025704Y010726D01*
X025728Y010743D01*
X025740Y010762D01*
X025755Y010778D01*
X025767Y010806D01*
X025783Y010831D01*
X025787Y010853D01*
X025795Y010873D01*
X025795Y010903D01*
X025800Y010933D01*
X025795Y010955D01*
X025795Y012838D01*
X025807Y012843D01*
X025942Y012978D01*
X026015Y013155D01*
X026015Y013945D01*
X025942Y014122D01*
X025807Y014257D01*
X025630Y014330D01*
X025358Y014296D02*
X024712Y014296D01*
X024886Y014178D02*
X025184Y014178D01*
X025102Y014059D02*
X024968Y014059D01*
X025015Y013941D02*
X025055Y013941D01*
X025055Y013822D02*
X025015Y013822D01*
X025015Y013704D02*
X025055Y013704D01*
X025055Y013585D02*
X025015Y013585D01*
X025015Y013467D02*
X025055Y013467D01*
X025055Y013348D02*
X025015Y013348D01*
X025015Y013230D02*
X025055Y013230D01*
X025948Y012993D02*
X026122Y012993D01*
X026073Y013111D02*
X025997Y013111D01*
X026015Y013230D02*
X026055Y013230D01*
X026055Y013348D02*
X026015Y013348D01*
X026015Y013467D02*
X026055Y013467D01*
X026055Y013585D02*
X026015Y013585D01*
X026015Y013704D02*
X026055Y013704D01*
X026055Y013822D02*
X026015Y013822D01*
X026015Y013941D02*
X026055Y013941D01*
X026102Y014059D02*
X025968Y014059D01*
X025886Y014178D02*
X026184Y014178D01*
X024358Y014296D02*
X023712Y014296D01*
X023886Y014178D02*
X024184Y014178D01*
X024102Y014059D02*
X023968Y014059D01*
X024015Y013941D02*
X024055Y013941D01*
X024055Y013822D02*
X024015Y013822D01*
X024015Y013704D02*
X024055Y013704D01*
X024055Y013585D02*
X024015Y013585D01*
X024015Y013467D02*
X024055Y013467D01*
X024055Y013348D02*
X024015Y013348D01*
X024015Y013230D02*
X024055Y013230D01*
X023122Y012993D02*
X022948Y012993D01*
X022942Y012978D02*
X023015Y013155D01*
X023015Y013945D01*
X022942Y014122D01*
X022807Y014257D01*
X022630Y014330D01*
X022440Y014330D01*
X022263Y014257D01*
X022128Y014122D01*
X022055Y013945D01*
X022055Y013155D01*
X022128Y012978D01*
X022263Y012843D01*
X022440Y012770D01*
X022630Y012770D01*
X022807Y012843D01*
X022942Y012978D01*
X022997Y013111D02*
X023073Y013111D01*
X023055Y013230D02*
X023015Y013230D01*
X023015Y013348D02*
X023055Y013348D01*
X023055Y013467D02*
X023015Y013467D01*
X023015Y013585D02*
X023055Y013585D01*
X023055Y013704D02*
X023015Y013704D01*
X023015Y013822D02*
X023055Y013822D01*
X023055Y013941D02*
X023015Y013941D01*
X022968Y014059D02*
X023102Y014059D01*
X023184Y014178D02*
X022886Y014178D01*
X022712Y014296D02*
X023358Y014296D01*
X022358Y014296D02*
X021712Y014296D01*
X021630Y014330D02*
X021440Y014330D01*
X021263Y014257D01*
X021128Y014122D01*
X021055Y013945D01*
X021055Y013155D01*
X021128Y012978D01*
X021263Y012843D01*
X021440Y012770D01*
X021630Y012770D01*
X021807Y012843D01*
X021942Y012978D01*
X022015Y013155D01*
X022015Y013945D01*
X021942Y014122D01*
X021807Y014257D01*
X021630Y014330D01*
X021358Y014296D02*
X020712Y014296D01*
X020630Y014330D02*
X020440Y014330D01*
X020263Y014257D01*
X020128Y014122D01*
X020055Y013945D01*
X020055Y013155D01*
X020128Y012978D01*
X020263Y012843D01*
X020440Y012770D01*
X020630Y012770D01*
X020807Y012843D01*
X020942Y012978D01*
X021015Y013155D01*
X021015Y013945D01*
X020942Y014122D01*
X020807Y014257D01*
X020630Y014330D01*
X020358Y014296D02*
X019712Y014296D01*
X019630Y014330D02*
X019440Y014330D01*
X019263Y014257D01*
X019128Y014122D01*
X019055Y013945D01*
X019055Y013155D01*
X019128Y012978D01*
X019263Y012843D01*
X019440Y012770D01*
X019630Y012770D01*
X019807Y012843D01*
X019942Y012978D01*
X020015Y013155D01*
X020015Y013945D01*
X019942Y014122D01*
X019807Y014257D01*
X019630Y014330D01*
X019358Y014296D02*
X018712Y014296D01*
X018886Y014178D02*
X019184Y014178D01*
X019102Y014059D02*
X018968Y014059D01*
X019015Y013941D02*
X019055Y013941D01*
X019055Y013822D02*
X019015Y013822D01*
X019015Y013704D02*
X019055Y013704D01*
X019055Y013585D02*
X019015Y013585D01*
X019015Y013467D02*
X019055Y013467D01*
X019055Y013348D02*
X019015Y013348D01*
X019015Y013230D02*
X019055Y013230D01*
X019073Y013111D02*
X018997Y013111D01*
X018948Y012993D02*
X019122Y012993D01*
X019232Y012874D02*
X018838Y012874D01*
X018822Y012756D02*
X023755Y012756D01*
X023968Y012637D02*
X018941Y012637D01*
X018324Y012519D02*
X018309Y012519D01*
X018275Y012637D02*
X018191Y012637D01*
X018275Y012756D02*
X018072Y012756D01*
X017954Y012874D02*
X018232Y012874D01*
X018122Y012993D02*
X017948Y012993D01*
X017997Y013111D02*
X018073Y013111D01*
X018055Y013230D02*
X018015Y013230D01*
X018015Y013348D02*
X018055Y013348D01*
X018055Y013467D02*
X018015Y013467D01*
X018015Y013585D02*
X018055Y013585D01*
X018055Y013704D02*
X018015Y013704D01*
X018015Y013822D02*
X018055Y013822D01*
X018055Y013941D02*
X018015Y013941D01*
X017968Y014059D02*
X018102Y014059D01*
X018184Y014178D02*
X017886Y014178D01*
X017712Y014296D02*
X018358Y014296D01*
X017358Y014296D02*
X016712Y014296D01*
X016886Y014178D02*
X017184Y014178D01*
X017102Y014059D02*
X016968Y014059D01*
X017015Y013941D02*
X017055Y013941D01*
X017055Y013822D02*
X017015Y013822D01*
X017015Y013704D02*
X017055Y013704D01*
X017055Y013585D02*
X017015Y013585D01*
X017015Y013467D02*
X017055Y013467D01*
X017055Y013348D02*
X017015Y013348D01*
X016055Y013348D02*
X016015Y013348D01*
X016015Y013467D02*
X016055Y013467D01*
X016055Y013585D02*
X016015Y013585D01*
X016015Y013704D02*
X016055Y013704D01*
X016055Y013822D02*
X016015Y013822D01*
X016015Y013941D02*
X016055Y013941D01*
X016102Y014059D02*
X015968Y014059D01*
X015886Y014178D02*
X016184Y014178D01*
X016358Y014296D02*
X015712Y014296D01*
X014055Y013467D02*
X013995Y013467D01*
X013995Y013348D02*
X014055Y013348D01*
X014055Y013230D02*
X013995Y013230D01*
X013974Y013111D02*
X014073Y013111D01*
X014101Y012993D02*
X013917Y012993D01*
X013984Y012874D02*
X013800Y012874D01*
X013473Y012045D02*
X013249Y012045D01*
X013402Y011926D02*
X013435Y011926D01*
X012425Y011808D02*
X009381Y011808D01*
X009469Y011689D02*
X012306Y011689D01*
X012188Y011571D02*
X009498Y011571D01*
X009486Y011452D02*
X012069Y011452D01*
X011951Y011334D02*
X009422Y011334D01*
X006373Y012163D02*
X006121Y012163D01*
X006137Y012282D02*
X006254Y012282D01*
X006183Y012400D02*
X006137Y012400D01*
X006137Y012519D02*
X006183Y012519D01*
X006183Y012637D02*
X006137Y012637D01*
X006137Y012756D02*
X006191Y012756D01*
X006137Y012874D02*
X006310Y012874D01*
X007986Y013230D02*
X008334Y013230D01*
X008216Y013348D02*
X008104Y013348D01*
X008117Y013467D02*
X008203Y013467D01*
X008203Y013704D02*
X008117Y013704D01*
X009622Y013111D02*
X009698Y013111D01*
X010117Y013704D02*
X010139Y013704D01*
X015674Y012163D02*
X016429Y012163D01*
X016548Y012045D02*
X015844Y012045D01*
X015901Y011926D02*
X016666Y011926D01*
X016785Y011808D02*
X015908Y011808D01*
X015874Y011689D02*
X016903Y011689D01*
X017022Y011571D02*
X015820Y011571D01*
X015820Y011452D02*
X017140Y011452D01*
X017259Y011334D02*
X015820Y011334D01*
X015820Y011215D02*
X017377Y011215D01*
X017496Y011097D02*
X015820Y011097D01*
X015820Y010978D02*
X017614Y010978D01*
X017733Y010860D02*
X015820Y010860D01*
X015820Y010741D02*
X017851Y010741D01*
X017970Y010623D02*
X015820Y010623D01*
X015820Y010504D02*
X019747Y010504D01*
X019736Y010386D02*
X015820Y010386D01*
X015820Y010267D02*
X019736Y010267D01*
X019736Y010149D02*
X015820Y010149D01*
X015820Y010030D02*
X018786Y010030D01*
X018675Y009912D02*
X015820Y009912D01*
X015820Y009793D02*
X018647Y009793D01*
X018574Y009675D02*
X017764Y009675D01*
X017856Y009556D02*
X018552Y009556D01*
X018569Y009438D02*
X017890Y009438D01*
X018009Y009319D02*
X018635Y009319D01*
X018818Y009201D02*
X018127Y009201D01*
X018246Y009082D02*
X019122Y009082D01*
X019064Y009201D02*
X019002Y009201D01*
X019287Y008964D02*
X018364Y008964D01*
X018483Y008845D02*
X019736Y008845D01*
X019736Y008727D02*
X018601Y008727D01*
X018720Y008608D02*
X019736Y008608D01*
X019957Y008490D02*
X018838Y008490D01*
X018221Y008371D02*
X015820Y008371D01*
X015820Y008253D02*
X018340Y008253D01*
X018458Y008134D02*
X015820Y008134D01*
X015820Y008016D02*
X018577Y008016D01*
X018103Y008490D02*
X015820Y008490D01*
X015820Y008608D02*
X017984Y008608D01*
X017866Y008727D02*
X015820Y008727D01*
X015820Y008845D02*
X017747Y008845D01*
X017629Y008964D02*
X015820Y008964D01*
X015820Y009082D02*
X017457Y009082D01*
X017281Y009201D02*
X015820Y009201D01*
X015820Y009319D02*
X017221Y009319D01*
X017212Y009438D02*
X015820Y009438D01*
X015820Y009556D02*
X017244Y009556D01*
X017336Y009675D02*
X015820Y009675D01*
X019533Y008964D02*
X019736Y008964D01*
X020183Y008490D02*
X020860Y008490D01*
X020860Y008371D02*
X020348Y008371D01*
X020402Y008253D02*
X020860Y008253D01*
X020828Y008134D02*
X020408Y008134D01*
X020372Y008016D02*
X020822Y008016D01*
X020857Y007897D02*
X020276Y007897D01*
X019864Y007897D02*
X015820Y007897D01*
X015912Y007779D02*
X020953Y007779D01*
X021367Y007779D02*
X025205Y007779D01*
X025205Y007734D02*
X025600Y007734D01*
X025600Y008090D01*
X025344Y008090D01*
X025303Y008079D01*
X025266Y008058D01*
X025237Y008028D01*
X025216Y007992D01*
X025205Y007951D01*
X025205Y007734D01*
X025205Y007897D02*
X021463Y007897D01*
X021498Y008016D02*
X025229Y008016D01*
X025600Y008016D02*
X025720Y008016D01*
X025720Y007897D02*
X025600Y007897D01*
X025600Y007779D02*
X025720Y007779D01*
X025720Y007660D02*
X026338Y007660D01*
X026320Y007542D02*
X026115Y007542D01*
X026115Y007423D02*
X026320Y007423D01*
X026320Y007305D02*
X026087Y007305D01*
X026135Y007186D02*
X026320Y007186D01*
X026320Y007068D02*
X026135Y007068D01*
X026135Y006949D02*
X026320Y006949D01*
X026320Y006831D02*
X026135Y006831D01*
X026135Y006712D02*
X026320Y006712D01*
X026320Y006594D02*
X026133Y006594D01*
X026000Y006475D02*
X026320Y006475D01*
X027000Y006712D02*
X029150Y006712D01*
X029150Y006831D02*
X027000Y006831D01*
X027000Y006949D02*
X029150Y006949D01*
X029150Y007068D02*
X027000Y007068D01*
X027000Y007186D02*
X029150Y007186D01*
X029150Y007305D02*
X027000Y007305D01*
X027014Y007423D02*
X029150Y007423D01*
X029150Y007542D02*
X027132Y007542D01*
X027251Y007660D02*
X029150Y007660D01*
X029150Y007779D02*
X029119Y007779D01*
X029670Y007305D02*
X029720Y007305D01*
X029670Y007186D02*
X029828Y007186D01*
X029670Y007068D02*
X031400Y007068D01*
X031400Y006949D02*
X030990Y006949D01*
X031108Y006831D02*
X031400Y006831D01*
X031920Y006712D02*
X031947Y006712D01*
X031567Y006290D02*
X031122Y006290D01*
X031117Y006278D01*
X030982Y006143D01*
X030805Y006070D01*
X030015Y006070D01*
X029838Y006143D01*
X029703Y006278D01*
X029670Y006358D01*
X029670Y006269D01*
X029697Y006242D01*
X029748Y006117D01*
X029748Y005983D01*
X029697Y005858D01*
X029670Y005831D01*
X029670Y005742D01*
X029703Y005822D01*
X029838Y005957D01*
X030015Y006030D01*
X030805Y006030D01*
X030982Y005957D01*
X031117Y005822D01*
X031122Y005810D01*
X031613Y005810D01*
X031617Y005812D01*
X031664Y005810D01*
X031712Y005810D01*
X031716Y005808D01*
X031720Y005808D01*
X031763Y005789D01*
X031807Y005770D01*
X031810Y005767D01*
X031814Y005766D01*
X031847Y005731D01*
X031880Y005697D01*
X031882Y005693D01*
X033123Y004370D01*
X033840Y004370D01*
X033840Y004450D01*
X033840Y004870D01*
X033544Y004870D01*
X033472Y004859D01*
X033403Y004836D01*
X033339Y004803D01*
X033280Y004761D01*
X033229Y004710D01*
X033187Y004651D01*
X033154Y004587D01*
X033131Y004518D01*
X033121Y004450D01*
X033840Y004450D01*
X033920Y004450D01*
X033920Y004870D01*
X034216Y004870D01*
X034288Y004859D01*
X034357Y004836D01*
X034421Y004803D01*
X034480Y004761D01*
X034531Y004710D01*
X034573Y004651D01*
X034606Y004587D01*
X034629Y004518D01*
X034639Y004450D01*
X033920Y004450D01*
X033920Y004370D01*
X034639Y004370D01*
X034629Y004302D01*
X034606Y004233D01*
X034573Y004169D01*
X034531Y004110D01*
X034480Y004059D01*
X034421Y004017D01*
X034357Y003984D01*
X034288Y003961D01*
X034216Y003950D01*
X033920Y003950D01*
X033920Y004370D01*
X033840Y004370D01*
X033840Y003950D01*
X033544Y003950D01*
X033512Y003955D01*
X033779Y003670D01*
X034275Y003670D01*
X034452Y003597D01*
X034587Y003462D01*
X034592Y003450D01*
X035728Y003450D01*
X035733Y003462D01*
X035868Y003597D01*
X036045Y003670D01*
X036835Y003670D01*
X037012Y003597D01*
X037049Y003560D01*
X037052Y003560D01*
X037150Y003658D01*
X037150Y004201D01*
X037133Y004169D01*
X037091Y004110D01*
X037040Y004059D01*
X036981Y004017D01*
X036917Y003984D01*
X036848Y003961D01*
X036776Y003950D01*
X036480Y003950D01*
X036480Y004370D01*
X036400Y004370D01*
X036400Y003950D01*
X036104Y003950D01*
X036032Y003961D01*
X035963Y003984D01*
X035899Y004017D01*
X035840Y004059D01*
X035789Y004110D01*
X035747Y004169D01*
X035714Y004233D01*
X035691Y004302D01*
X035681Y004370D01*
X036400Y004370D01*
X036400Y004450D01*
X036400Y004870D01*
X036104Y004870D01*
X036032Y004859D01*
X035963Y004836D01*
X035899Y004803D01*
X035840Y004761D01*
X035789Y004710D01*
X035747Y004651D01*
X035714Y004587D01*
X035691Y004518D01*
X035681Y004450D01*
X036400Y004450D01*
X036480Y004450D01*
X036480Y004870D01*
X036776Y004870D01*
X036848Y004859D01*
X036917Y004836D01*
X036981Y004803D01*
X037040Y004761D01*
X037091Y004710D01*
X037133Y004651D01*
X037150Y004619D01*
X037150Y005926D01*
X037147Y005918D01*
X037012Y005783D01*
X036835Y005710D01*
X036045Y005710D01*
X035883Y005777D01*
X035973Y005560D01*
X035973Y005237D01*
X035849Y004938D01*
X035621Y004709D01*
X035322Y004585D01*
X034998Y004585D01*
X034699Y004709D01*
X034471Y004938D01*
X034347Y005237D01*
X034347Y005560D01*
X034437Y005777D01*
X034275Y005710D01*
X033485Y005710D01*
X033308Y005783D01*
X033173Y005918D01*
X033171Y005924D01*
X032129Y005915D01*
X032088Y005911D01*
X032077Y005915D01*
X032065Y005915D01*
X032028Y005930D01*
X031990Y005941D01*
X031980Y005949D01*
X031970Y005953D01*
X031941Y005982D01*
X031567Y006290D01*
X031630Y006238D02*
X031077Y006238D01*
X030925Y006120D02*
X031774Y006120D01*
X031917Y006001D02*
X030875Y006001D01*
X031056Y005883D02*
X033209Y005883D01*
X033354Y005764D02*
X031816Y005764D01*
X031927Y005646D02*
X034382Y005646D01*
X034406Y005764D02*
X034431Y005764D01*
X034347Y005527D02*
X032038Y005527D01*
X032149Y005409D02*
X034347Y005409D01*
X034347Y005290D02*
X032260Y005290D01*
X032371Y005172D02*
X034374Y005172D01*
X034423Y005053D02*
X032483Y005053D01*
X032594Y004935D02*
X034474Y004935D01*
X034396Y004816D02*
X034593Y004816D01*
X034540Y004698D02*
X034728Y004698D01*
X034609Y004579D02*
X035711Y004579D01*
X035682Y004461D02*
X034638Y004461D01*
X034635Y004342D02*
X035685Y004342D01*
X035719Y004224D02*
X034601Y004224D01*
X034526Y004105D02*
X035794Y004105D01*
X035958Y003987D02*
X034362Y003987D01*
X033920Y003987D02*
X033840Y003987D01*
X033840Y004105D02*
X033920Y004105D01*
X033920Y004224D02*
X033840Y004224D01*
X033840Y004342D02*
X033920Y004342D01*
X033920Y004461D02*
X033840Y004461D01*
X033840Y004579D02*
X033920Y004579D01*
X033920Y004698D02*
X033840Y004698D01*
X033840Y004816D02*
X033920Y004816D01*
X033364Y004816D02*
X032705Y004816D01*
X032816Y004698D02*
X033220Y004698D01*
X033151Y004579D02*
X032927Y004579D01*
X033038Y004461D02*
X033122Y004461D01*
X032548Y004224D02*
X031062Y004224D01*
X031143Y004342D02*
X032436Y004342D01*
X032325Y004461D02*
X031190Y004461D01*
X031190Y004579D02*
X032214Y004579D01*
X032103Y004698D02*
X031168Y004698D01*
X031119Y004816D02*
X031992Y004816D01*
X031881Y004935D02*
X031004Y004935D01*
X031010Y005172D02*
X031658Y005172D01*
X031770Y005053D02*
X029775Y005053D01*
X029810Y005172D02*
X029670Y005172D01*
X029670Y005290D02*
X029698Y005290D01*
X029150Y005527D02*
X028961Y005527D01*
X028970Y005646D02*
X029150Y005646D01*
X029150Y005764D02*
X028970Y005764D01*
X028970Y005883D02*
X029113Y005883D01*
X028630Y005764D02*
X028510Y005764D01*
X028510Y005646D02*
X028630Y005646D01*
X028630Y005527D02*
X028510Y005527D01*
X029670Y005764D02*
X029679Y005764D01*
X029707Y005883D02*
X029764Y005883D01*
X029748Y006001D02*
X029945Y006001D01*
X029895Y006120D02*
X029748Y006120D01*
X029743Y006238D02*
X029698Y006238D01*
X029670Y006357D02*
X029671Y006357D01*
X029670Y006831D02*
X029712Y006831D01*
X029670Y006949D02*
X029830Y006949D01*
X030370Y007186D02*
X030450Y007186D01*
X030450Y007305D02*
X030370Y007305D01*
X030370Y007423D02*
X030450Y007423D01*
X031158Y007660D02*
X031400Y007660D01*
X031400Y007779D02*
X031110Y007779D01*
X031014Y007897D02*
X031400Y007897D01*
X031993Y008016D02*
X037656Y008016D01*
X037660Y008134D02*
X032112Y008134D01*
X032230Y008253D02*
X037779Y008253D01*
X037678Y008371D02*
X032839Y008371D01*
X032881Y008490D02*
X037636Y008490D01*
X038074Y008253D02*
X038151Y008253D01*
X038151Y008134D02*
X038074Y008134D01*
X038074Y008016D02*
X038151Y008016D01*
X038151Y007897D02*
X038074Y007897D01*
X038074Y007779D02*
X037015Y007779D01*
X036480Y007779D02*
X036400Y007779D01*
X036400Y007660D02*
X036480Y007660D01*
X036480Y007542D02*
X036400Y007542D01*
X036480Y007370D02*
X037199Y007370D01*
X037189Y007302D01*
X037166Y007233D01*
X037133Y007169D01*
X037091Y007110D01*
X037040Y007059D01*
X036981Y007017D01*
X036917Y006984D01*
X036848Y006961D01*
X036776Y006950D01*
X036480Y006950D01*
X036480Y007370D01*
X036480Y007305D02*
X036400Y007305D01*
X036400Y007186D02*
X036480Y007186D01*
X036480Y007068D02*
X036400Y007068D01*
X037048Y007068D02*
X037636Y007068D01*
X037636Y007186D02*
X037142Y007186D01*
X037189Y007305D02*
X039100Y007305D01*
X039100Y007423D02*
X038548Y007423D01*
X038538Y007405D02*
X038559Y007441D01*
X038570Y007482D01*
X038570Y007762D01*
X038151Y007762D01*
X038151Y007343D01*
X038431Y007343D01*
X038471Y007354D01*
X038508Y007375D01*
X038538Y007405D01*
X038570Y007542D02*
X039100Y007542D01*
X039100Y007660D02*
X038570Y007660D01*
X038151Y007660D02*
X038074Y007660D01*
X038074Y007542D02*
X038151Y007542D01*
X038151Y007423D02*
X038074Y007423D01*
X038590Y007186D02*
X039100Y007186D01*
X039100Y007068D02*
X038590Y007068D01*
X038590Y006949D02*
X039100Y006949D01*
X039100Y006831D02*
X038590Y006831D01*
X038590Y006712D02*
X039100Y006712D01*
X039100Y006594D02*
X038590Y006594D01*
X038590Y006475D02*
X039100Y006475D01*
X039100Y006357D02*
X038502Y006357D01*
X037150Y005883D02*
X037111Y005883D01*
X037150Y005764D02*
X036966Y005764D01*
X037150Y005646D02*
X035938Y005646D01*
X035914Y005764D02*
X035889Y005764D01*
X035973Y005527D02*
X037150Y005527D01*
X037150Y005409D02*
X035973Y005409D01*
X035973Y005290D02*
X037150Y005290D01*
X037150Y005172D02*
X035946Y005172D01*
X035897Y005053D02*
X037150Y005053D01*
X037150Y004935D02*
X035846Y004935D01*
X035924Y004816D02*
X035727Y004816D01*
X035780Y004698D02*
X035592Y004698D01*
X036400Y004698D02*
X036480Y004698D01*
X036480Y004816D02*
X036400Y004816D01*
X036400Y004579D02*
X036480Y004579D01*
X036480Y004461D02*
X036400Y004461D01*
X036400Y004342D02*
X036480Y004342D01*
X036480Y004224D02*
X036400Y004224D01*
X036400Y004105D02*
X036480Y004105D01*
X036480Y003987D02*
X036400Y003987D01*
X036922Y003987D02*
X037150Y003987D01*
X037150Y004105D02*
X037086Y004105D01*
X037150Y003868D02*
X033594Y003868D01*
X033705Y003750D02*
X037150Y003750D01*
X037123Y003631D02*
X036930Y003631D01*
X035950Y003631D02*
X034370Y003631D01*
X034536Y003513D02*
X035784Y003513D01*
X035732Y002920D02*
X034588Y002920D01*
X034470Y002802D02*
X035850Y002802D01*
X032659Y004105D02*
X030890Y004105D01*
X026427Y005409D02*
X019831Y005409D01*
X019937Y005527D02*
X026330Y005527D01*
X026330Y005646D02*
X020043Y005646D01*
X020228Y005764D02*
X024705Y005764D01*
X024619Y005883D02*
X020361Y005883D01*
X020408Y006001D02*
X024590Y006001D01*
X024590Y006120D02*
X020408Y006120D01*
X016742Y006949D02*
X025185Y006949D01*
X025185Y006831D02*
X025130Y006831D01*
X025185Y007068D02*
X016623Y007068D01*
X016505Y007186D02*
X025185Y007186D01*
X025233Y007305D02*
X016386Y007305D01*
X016268Y007423D02*
X025205Y007423D01*
X025205Y007542D02*
X016149Y007542D01*
X016031Y007660D02*
X025600Y007660D01*
X026115Y007779D02*
X026408Y007779D01*
X026526Y007897D02*
X026115Y007897D01*
X026091Y008016D02*
X026645Y008016D01*
X026763Y008134D02*
X021492Y008134D01*
X021460Y008253D02*
X026882Y008253D01*
X027047Y008371D02*
X021460Y008371D01*
X021460Y008490D02*
X028869Y008490D01*
X028945Y008608D02*
X024546Y008608D01*
X024564Y008727D02*
X028945Y008727D01*
X028945Y008845D02*
X024564Y008845D01*
X024564Y008800D02*
X023971Y008800D01*
X023971Y008800D01*
X024564Y008800D01*
X024558Y008964D02*
X028945Y008964D01*
X028945Y009082D02*
X024530Y009082D01*
X024564Y009201D02*
X028945Y009201D01*
X028945Y009319D02*
X024564Y009319D01*
X024564Y009300D02*
X023971Y009300D01*
X023971Y009300D01*
X024564Y009300D01*
X024564Y009438D02*
X026686Y009438D01*
X026680Y009441D02*
X026739Y009411D01*
X026802Y009390D01*
X026867Y009380D01*
X027140Y009380D01*
X027140Y009780D01*
X027180Y009780D01*
X027180Y009820D01*
X027140Y009820D01*
X027140Y010220D01*
X026867Y010220D01*
X026802Y010210D01*
X026739Y010189D01*
X026680Y010159D01*
X026626Y010120D01*
X026580Y010074D01*
X026541Y010020D01*
X026511Y009961D01*
X026490Y009898D01*
X026480Y009833D01*
X026480Y009820D01*
X027140Y009820D01*
X027140Y009780D01*
X026480Y009780D01*
X026480Y009767D01*
X026490Y009702D01*
X026511Y009639D01*
X026541Y009580D01*
X026580Y009526D01*
X026626Y009480D01*
X026680Y009441D01*
X026558Y009556D02*
X024504Y009556D01*
X024564Y009675D02*
X026499Y009675D01*
X026495Y009912D02*
X024564Y009912D01*
X024564Y009800D02*
X023971Y009800D01*
X023971Y009800D01*
X024564Y009800D01*
X024564Y009793D02*
X027140Y009793D01*
X027180Y009793D02*
X028945Y009793D01*
X028945Y009675D02*
X027821Y009675D01*
X027830Y009702D02*
X027840Y009767D01*
X027840Y009780D01*
X027180Y009780D01*
X027180Y009380D01*
X027453Y009380D01*
X027518Y009390D01*
X027581Y009411D01*
X027640Y009441D01*
X027694Y009480D01*
X027740Y009526D01*
X027779Y009580D01*
X027809Y009639D01*
X027830Y009702D01*
X027840Y009820D02*
X027840Y009833D01*
X027830Y009898D01*
X027809Y009961D01*
X027779Y010020D01*
X027740Y010074D01*
X027694Y010120D01*
X027640Y010159D01*
X027581Y010189D01*
X027518Y010210D01*
X027453Y010220D01*
X027180Y010220D01*
X027180Y009820D01*
X027840Y009820D01*
X027825Y009912D02*
X028945Y009912D01*
X028945Y010030D02*
X027772Y010030D01*
X027655Y010149D02*
X028945Y010149D01*
X028945Y010267D02*
X025061Y010267D01*
X024895Y010149D02*
X026665Y010149D01*
X026548Y010030D02*
X024518Y010030D01*
X023971Y009793D02*
X023971Y009793D01*
X023971Y009675D02*
X023971Y009675D01*
X023971Y009556D02*
X023971Y009556D01*
X023971Y009438D02*
X023971Y009438D01*
X023971Y009319D02*
X023971Y009319D01*
X023971Y009201D02*
X023971Y009201D01*
X023971Y009082D02*
X023971Y009082D01*
X023971Y008964D02*
X023971Y008964D01*
X023971Y008845D02*
X023971Y008845D01*
X023971Y008727D02*
X023971Y008727D01*
X023971Y008608D02*
X023971Y008608D01*
X023396Y008608D02*
X021460Y008608D01*
X021460Y008727D02*
X023378Y008727D01*
X023378Y008845D02*
X021460Y008845D01*
X021533Y008964D02*
X023384Y008964D01*
X023412Y009082D02*
X021698Y009082D01*
X021756Y009201D02*
X023378Y009201D01*
X023378Y009319D02*
X021768Y009319D01*
X021741Y009438D02*
X023378Y009438D01*
X023438Y009556D02*
X021750Y009556D01*
X021889Y009675D02*
X023378Y009675D01*
X023378Y009793D02*
X021920Y009793D01*
X021895Y009912D02*
X023378Y009912D01*
X023424Y010030D02*
X021784Y010030D01*
X021504Y010149D02*
X023358Y010149D01*
X023358Y010267D02*
X020962Y010267D01*
X020962Y010149D02*
X021316Y010149D01*
X020962Y010386D02*
X023358Y010386D01*
X023369Y010504D02*
X020951Y010504D01*
X020962Y010623D02*
X023358Y010623D01*
X023358Y010741D02*
X020962Y010741D01*
X020962Y010860D02*
X023358Y010860D01*
X023358Y010978D02*
X020962Y010978D01*
X020951Y011097D02*
X023369Y011097D01*
X023358Y011215D02*
X020962Y011215D01*
X020962Y011334D02*
X023358Y011334D01*
X023358Y011452D02*
X020962Y011452D01*
X020925Y011571D02*
X023395Y011571D01*
X023358Y011689D02*
X020962Y011689D01*
X020962Y011808D02*
X023358Y011808D01*
X023358Y011926D02*
X020962Y011926D01*
X020910Y012045D02*
X023410Y012045D01*
X023378Y012163D02*
X020962Y012163D01*
X020962Y012282D02*
X023378Y012282D01*
X023378Y012300D02*
X023971Y012300D01*
X023971Y012300D01*
X023378Y012300D01*
X023378Y012400D02*
X020962Y012400D01*
X020936Y012519D02*
X023412Y012519D01*
X023971Y012519D02*
X023971Y012519D01*
X023971Y012578D02*
X023971Y012300D01*
X023971Y012300D01*
X023971Y012578D01*
X023971Y012400D02*
X023971Y012400D01*
X023232Y012874D02*
X022838Y012874D01*
X022232Y012874D02*
X021838Y012874D01*
X021948Y012993D02*
X022122Y012993D01*
X022073Y013111D02*
X021997Y013111D01*
X022015Y013230D02*
X022055Y013230D01*
X022055Y013348D02*
X022015Y013348D01*
X022015Y013467D02*
X022055Y013467D01*
X022055Y013585D02*
X022015Y013585D01*
X022015Y013704D02*
X022055Y013704D01*
X022055Y013822D02*
X022015Y013822D01*
X022015Y013941D02*
X022055Y013941D01*
X022102Y014059D02*
X021968Y014059D01*
X021886Y014178D02*
X022184Y014178D01*
X021184Y014178D02*
X020886Y014178D01*
X020968Y014059D02*
X021102Y014059D01*
X021055Y013941D02*
X021015Y013941D01*
X021015Y013822D02*
X021055Y013822D01*
X021055Y013704D02*
X021015Y013704D01*
X021015Y013585D02*
X021055Y013585D01*
X021055Y013467D02*
X021015Y013467D01*
X021015Y013348D02*
X021055Y013348D01*
X021055Y013230D02*
X021015Y013230D01*
X020997Y013111D02*
X021073Y013111D01*
X021122Y012993D02*
X020948Y012993D01*
X020838Y012874D02*
X021232Y012874D01*
X020232Y012874D02*
X019838Y012874D01*
X019948Y012993D02*
X020122Y012993D01*
X020073Y013111D02*
X019997Y013111D01*
X020015Y013230D02*
X020055Y013230D01*
X020055Y013348D02*
X020015Y013348D01*
X020015Y013467D02*
X020055Y013467D01*
X020055Y013585D02*
X020015Y013585D01*
X020015Y013704D02*
X020055Y013704D01*
X020055Y013822D02*
X020015Y013822D01*
X020015Y013941D02*
X020055Y013941D01*
X020102Y014059D02*
X019968Y014059D01*
X019886Y014178D02*
X020184Y014178D01*
X018442Y012400D02*
X018428Y012400D01*
X018546Y012282D02*
X018561Y012282D01*
X018665Y012163D02*
X018679Y012163D01*
X025227Y010386D02*
X026751Y010386D01*
X026574Y010504D02*
X025393Y010504D01*
X025559Y010623D02*
X026497Y010623D01*
X026460Y010741D02*
X025725Y010741D01*
X025789Y010860D02*
X026460Y010860D01*
X026463Y010978D02*
X025795Y010978D01*
X025795Y011097D02*
X026298Y011097D01*
X026127Y011215D02*
X025795Y011215D01*
X025795Y011334D02*
X026037Y011334D01*
X026024Y011452D02*
X025795Y011452D01*
X025795Y011571D02*
X026025Y011571D01*
X026025Y011689D02*
X025795Y011689D01*
X025795Y011808D02*
X026025Y011808D01*
X026025Y011926D02*
X025795Y011926D01*
X025795Y012045D02*
X026025Y012045D01*
X026025Y012163D02*
X025795Y012163D01*
X025795Y012282D02*
X026025Y012282D01*
X026045Y012400D02*
X025795Y012400D01*
X025795Y012519D02*
X026136Y012519D01*
X026254Y012637D02*
X025795Y012637D01*
X025795Y012756D02*
X026275Y012756D01*
X026232Y012874D02*
X025838Y012874D01*
X028495Y013704D02*
X028575Y013704D01*
X028575Y013822D02*
X028495Y013822D01*
X028495Y013941D02*
X028575Y013941D01*
X028575Y014059D02*
X028495Y014059D01*
X028495Y014178D02*
X028575Y014178D01*
X028858Y014178D02*
X030398Y014178D01*
X030207Y014059D02*
X028945Y014059D01*
X028986Y013941D02*
X030089Y013941D01*
X030037Y013822D02*
X028995Y013822D01*
X028995Y013704D02*
X029988Y013704D01*
X030922Y014178D02*
X033939Y014178D01*
X033902Y014059D02*
X031113Y014059D01*
X031013Y011926D02*
X031555Y011926D01*
X032280Y011689D02*
X033119Y011689D01*
X033119Y011571D02*
X032161Y011571D01*
X032043Y011452D02*
X033138Y011452D01*
X033187Y011334D02*
X031924Y011334D01*
X031740Y011215D02*
X033271Y011215D01*
X033399Y011097D02*
X030870Y011097D01*
X030818Y010999D02*
X030887Y010976D01*
X030951Y010943D01*
X031010Y010901D01*
X031061Y010850D01*
X031103Y010791D01*
X031136Y010727D01*
X031159Y010658D01*
X031169Y010590D01*
X030450Y010590D01*
X030370Y010590D01*
X030370Y011010D01*
X030074Y011010D01*
X030002Y010999D01*
X029933Y010976D01*
X029869Y010943D01*
X029810Y010901D01*
X029759Y010850D01*
X029717Y010791D01*
X029684Y010727D01*
X029661Y010658D01*
X029651Y010590D01*
X030370Y010590D01*
X030370Y010510D01*
X030450Y010510D01*
X030450Y010590D01*
X030450Y011010D01*
X030746Y011010D01*
X030818Y010999D01*
X030881Y010978D02*
X034910Y010978D01*
X034668Y010860D02*
X031051Y010860D01*
X031129Y010741D02*
X034550Y010741D01*
X034454Y010623D02*
X031164Y010623D01*
X031169Y010510D02*
X030450Y010510D01*
X030450Y010090D01*
X030746Y010090D01*
X030818Y010101D01*
X030887Y010124D01*
X030951Y010157D01*
X031010Y010199D01*
X031061Y010250D01*
X031103Y010309D01*
X031136Y010373D01*
X031159Y010442D01*
X031169Y010510D01*
X031168Y010504D02*
X034405Y010504D01*
X034356Y010386D02*
X031140Y010386D01*
X031073Y010267D02*
X034347Y010267D01*
X034347Y010149D02*
X030935Y010149D01*
X030450Y010149D02*
X030370Y010149D01*
X030370Y010090D02*
X030370Y010510D01*
X029651Y010510D01*
X029661Y010442D01*
X029684Y010373D01*
X029717Y010309D01*
X029759Y010250D01*
X029810Y010199D01*
X029869Y010157D01*
X029933Y010124D01*
X030002Y010101D01*
X030074Y010090D01*
X030370Y010090D01*
X029885Y010149D02*
X029625Y010149D01*
X029625Y010267D02*
X029747Y010267D01*
X029680Y010386D02*
X029625Y010386D01*
X029625Y010504D02*
X029652Y010504D01*
X029656Y010623D02*
X029625Y010623D01*
X029625Y010741D02*
X029691Y010741D01*
X029625Y010860D02*
X029769Y010860D01*
X029625Y010978D02*
X029939Y010978D01*
X029950Y011097D02*
X029625Y011097D01*
X030370Y010978D02*
X030450Y010978D01*
X030450Y010860D02*
X030370Y010860D01*
X030370Y010741D02*
X030450Y010741D01*
X030450Y010623D02*
X030370Y010623D01*
X030370Y010504D02*
X030450Y010504D01*
X030450Y010386D02*
X030370Y010386D01*
X030370Y010267D02*
X030450Y010267D01*
X029625Y010030D02*
X034351Y010030D01*
X034400Y009912D02*
X029625Y009912D01*
X029625Y009793D02*
X030814Y009793D01*
X030674Y009675D02*
X029625Y009675D01*
X029625Y009556D02*
X030573Y009556D01*
X030471Y009438D02*
X029625Y009438D01*
X029625Y009319D02*
X030370Y009319D01*
X030268Y009201D02*
X029625Y009201D01*
X029625Y009082D02*
X030166Y009082D01*
X030065Y008964D02*
X029625Y008964D01*
X029625Y008845D02*
X029963Y008845D01*
X029862Y008727D02*
X029625Y008727D01*
X029625Y008608D02*
X029760Y008608D01*
X029659Y008490D02*
X029625Y008490D01*
X028945Y009438D02*
X027634Y009438D01*
X027762Y009556D02*
X028945Y009556D01*
X027895Y010386D02*
X027569Y010386D01*
X027746Y010504D02*
X027850Y010504D01*
X027850Y010623D02*
X027823Y010623D01*
X027180Y010149D02*
X027140Y010149D01*
X027140Y010030D02*
X027180Y010030D01*
X027180Y009912D02*
X027140Y009912D01*
X027140Y009675D02*
X027180Y009675D01*
X027180Y009556D02*
X027140Y009556D01*
X027140Y009438D02*
X027180Y009438D01*
X033508Y009793D02*
X034449Y009793D01*
X034537Y009675D02*
X033675Y009675D01*
X034493Y009556D02*
X034656Y009556D01*
X034597Y009438D02*
X034880Y009438D01*
X037053Y009556D02*
X039100Y009556D01*
X039100Y009438D02*
X037157Y009438D01*
X037206Y009319D02*
X039100Y009319D01*
X039100Y009201D02*
X038545Y009201D01*
X038590Y009082D02*
X039100Y009082D01*
X039100Y008964D02*
X038590Y008964D01*
X038590Y008845D02*
X039100Y008845D01*
X039100Y008727D02*
X038590Y008727D01*
X038590Y008608D02*
X039100Y008608D01*
X039100Y008490D02*
X038590Y008490D01*
X038548Y008371D02*
X039100Y008371D01*
X039100Y008253D02*
X038447Y008253D01*
X038565Y008134D02*
X039100Y008134D01*
X039100Y008016D02*
X038570Y008016D01*
X038570Y007897D02*
X039100Y007897D01*
X039100Y007779D02*
X038151Y007779D01*
X035865Y006594D02*
X034455Y006594D01*
X034574Y006475D02*
X035746Y006475D01*
X036956Y004816D02*
X037150Y004816D01*
X037150Y004698D02*
X037100Y004698D01*
X037215Y009082D02*
X037636Y009082D01*
X037681Y009201D02*
X037220Y009201D01*
X036363Y011097D02*
X039100Y011097D01*
X039100Y011215D02*
X036521Y011215D01*
X036607Y011334D02*
X039100Y011334D01*
X039100Y011452D02*
X036657Y011452D01*
X036681Y011571D02*
X039100Y011571D01*
X039100Y011689D02*
X036681Y011689D01*
X036681Y011808D02*
X039100Y011808D01*
X039100Y011926D02*
X036681Y011926D01*
X036110Y011926D02*
X036072Y011926D01*
X036072Y011808D02*
X036110Y011808D01*
X036110Y011689D02*
X036072Y011689D01*
X036072Y011571D02*
X036110Y011571D01*
X036110Y011452D02*
X036072Y011452D01*
X036072Y011334D02*
X036110Y011334D01*
X036110Y011215D02*
X036072Y011215D01*
X036072Y011097D02*
X036110Y011097D01*
X035819Y011097D02*
X034059Y011097D01*
X015168Y005646D02*
X014810Y005646D01*
X014810Y005764D02*
X015065Y005764D01*
X014960Y005883D02*
X014810Y005883D01*
X014810Y006001D02*
X014900Y006001D01*
X014900Y006120D02*
X014802Y006120D01*
X014753Y006238D02*
X014900Y006238D01*
X010610Y007542D02*
X008019Y007542D01*
X008138Y007660D02*
X010610Y007660D01*
X010610Y007779D02*
X008256Y007779D01*
X008375Y007897D02*
X010610Y007897D01*
X010610Y008016D02*
X008493Y008016D01*
X008612Y008134D02*
X010610Y008134D01*
X010610Y008253D02*
X008730Y008253D01*
X008849Y008371D02*
X010610Y008371D01*
X010610Y008490D02*
X008916Y008490D01*
X008920Y008608D02*
X010610Y008608D01*
X003460Y008608D02*
X001628Y008608D01*
X001664Y008727D02*
X003460Y008727D01*
X003460Y008845D02*
X001669Y008845D01*
X001550Y008490D02*
X003460Y008490D01*
X001718Y009438D02*
X001526Y009438D01*
X002777Y010149D02*
X003141Y010149D01*
X003259Y010267D02*
X002777Y010267D01*
X000483Y010267D02*
X000410Y010267D01*
X000410Y008371D02*
X000442Y008371D01*
X000448Y008253D02*
X000410Y008253D01*
X007044Y004579D02*
X009900Y004579D01*
X009975Y004461D02*
X007178Y004461D01*
X007219Y004342D02*
X010038Y004342D01*
X010036Y004224D02*
X007213Y004224D01*
X007170Y004105D02*
X010034Y004105D01*
X010031Y003987D02*
X007170Y003987D01*
X007170Y003868D02*
X010029Y003868D01*
X010026Y003750D02*
X007170Y003750D01*
X007109Y003631D02*
X010024Y003631D01*
X010080Y003513D02*
X006990Y003513D01*
X006872Y003394D02*
X010198Y003394D01*
X015257Y001854D02*
X015563Y001854D01*
X015450Y001735D02*
X015370Y001735D01*
X015370Y001617D02*
X015450Y001617D01*
X015450Y001498D02*
X015370Y001498D01*
X015370Y001380D02*
X015450Y001380D01*
X015548Y001261D02*
X015272Y001261D01*
X015153Y001143D02*
X015667Y001143D01*
X017272Y001261D02*
X017548Y001261D01*
X017450Y001380D02*
X017370Y001380D01*
X017370Y001498D02*
X017450Y001498D01*
X017450Y001617D02*
X017370Y001617D01*
X017370Y001735D02*
X017450Y001735D01*
X017563Y001854D02*
X017257Y001854D01*
X018257Y001854D02*
X018563Y001854D01*
X018450Y001735D02*
X018370Y001735D01*
X018370Y001617D02*
X018450Y001617D01*
X018450Y001498D02*
X018370Y001498D01*
X018370Y001380D02*
X018450Y001380D01*
X018548Y001261D02*
X018272Y001261D01*
X018153Y001143D02*
X018667Y001143D01*
X019272Y001261D02*
X019548Y001261D01*
X019450Y001380D02*
X019370Y001380D01*
X019370Y001498D02*
X019450Y001498D01*
X019450Y001617D02*
X019370Y001617D01*
X019370Y001735D02*
X019450Y001735D01*
X019563Y001854D02*
X019257Y001854D01*
X020257Y001854D02*
X020563Y001854D01*
X020450Y001735D02*
X020370Y001735D01*
X020370Y001617D02*
X020450Y001617D01*
X020450Y001498D02*
X020370Y001498D01*
X020370Y001380D02*
X020450Y001380D01*
X020548Y001261D02*
X020272Y001261D01*
X020153Y001143D02*
X020667Y001143D01*
X021272Y001261D02*
X021548Y001261D01*
X021450Y001380D02*
X021370Y001380D01*
X021370Y001498D02*
X021450Y001498D01*
X021450Y001617D02*
X021370Y001617D01*
X021370Y001735D02*
X021450Y001735D01*
X021563Y001854D02*
X021257Y001854D01*
X022257Y001854D02*
X022563Y001854D01*
X022450Y001735D02*
X022370Y001735D01*
X022370Y001617D02*
X022450Y001617D01*
X022450Y001498D02*
X022370Y001498D01*
X022370Y001380D02*
X022450Y001380D01*
X022548Y001261D02*
X022272Y001261D01*
X022153Y001143D02*
X022667Y001143D01*
X000756Y012993D02*
X000410Y012993D01*
X000410Y013111D02*
X000637Y013111D01*
X000557Y013230D02*
X000410Y013230D01*
X000410Y013348D02*
X000508Y013348D01*
X000480Y013467D02*
X000410Y013467D01*
X000410Y013585D02*
X000480Y013585D01*
X000488Y013704D02*
X000410Y013704D01*
X000410Y013822D02*
X000537Y013822D01*
X000589Y013941D02*
X000410Y013941D01*
X000410Y014059D02*
X000707Y014059D01*
D31*
X005160Y010300D02*
X005251Y010391D01*
X005924Y010391D01*
X015480Y010550D02*
X015480Y007730D01*
X016660Y006550D01*
X021410Y006550D01*
X024930Y006550D01*
X024930Y006020D01*
X025660Y006020D01*
X025660Y006926D01*
X026660Y007550D02*
X026660Y006110D01*
X026750Y006020D01*
X025660Y006020D01*
X026660Y007550D02*
X027160Y008050D01*
X028910Y008050D01*
X029285Y008425D01*
X029285Y010795D01*
X029285Y011550D01*
X030410Y011550D01*
X031660Y011550D01*
X032160Y012050D01*
X033729Y012050D01*
X029285Y011550D02*
X027410Y013050D01*
X027535Y013550D01*
X015480Y011750D02*
X015480Y010550D01*
D32*
X015480Y011750D02*
X015570Y011840D01*
X013950Y012470D02*
X013910Y012424D01*
X014535Y013550D02*
X014630Y013510D01*
X014620Y013520D01*
X021410Y006550D02*
X021870Y006620D01*
D33*
X020070Y006065D02*
X019160Y005050D01*
X016035Y005050D01*
X015160Y006050D01*
X015160Y007800D01*
X013410Y010050D01*
X013410Y011550D01*
X013160Y011800D01*
X012785Y011800D01*
X012035Y011050D01*
X008410Y011050D01*
X007660Y011800D01*
X007660Y012550D01*
X008160Y011800D02*
X008410Y011550D01*
X009160Y011550D01*
X007910Y010800D02*
X007410Y010300D01*
X007410Y009050D01*
X007373Y009013D01*
X006160Y009013D01*
X006123Y009050D01*
X005410Y009050D01*
X004660Y010050D01*
X003410Y010050D01*
X003160Y009800D01*
X000910Y009800D01*
X005160Y008175D02*
X005189Y008146D01*
X006160Y008146D01*
X006160Y007713D02*
X005573Y007713D01*
X005410Y007550D01*
X005410Y007221D01*
X005239Y007050D01*
X004910Y007050D01*
X006160Y006847D02*
X006613Y006847D01*
X006910Y006550D01*
X006910Y006050D01*
X005160Y005300D02*
X005160Y003800D01*
X005410Y003550D01*
X006660Y003550D01*
X006910Y003800D01*
X006910Y004300D01*
X005160Y005300D02*
X004785Y005800D01*
X002660Y005800D01*
X002410Y005550D01*
X001660Y005550D01*
X001410Y005800D01*
X000910Y005800D01*
X006160Y007280D02*
X007390Y007280D01*
X007410Y007300D01*
X007660Y007300D01*
X007910Y007050D01*
X007410Y007300D02*
X008660Y008550D01*
X008660Y009300D01*
X008910Y009550D01*
X011410Y010050D02*
X012160Y010050D01*
X012910Y010800D01*
X012910Y011300D01*
X013910Y011000D02*
X014360Y010550D01*
X014960Y010550D02*
X015480Y010550D01*
X013910Y011000D02*
X013910Y011676D01*
X013950Y012470D02*
X014450Y012975D01*
X014620Y013520D01*
X014490Y013640D01*
X015535Y013550D02*
X015535Y013425D01*
X018160Y010800D01*
X020349Y010800D01*
X020349Y011300D02*
X018660Y011300D01*
X016535Y013425D01*
X016535Y013550D01*
X017535Y013550D02*
X017535Y012925D01*
X018660Y011800D01*
X020349Y011800D01*
X020349Y012300D02*
X018910Y012300D01*
X018535Y012675D01*
X018535Y013550D01*
X023535Y013550D02*
X023535Y013175D01*
X024660Y012550D01*
X024660Y011300D01*
X023971Y011300D01*
X024660Y010800D02*
X025160Y011050D01*
X025160Y012800D01*
X024535Y013175D01*
X024535Y013550D01*
X025535Y013550D02*
X025535Y010925D01*
X024660Y010300D01*
X023971Y010300D01*
X023971Y010800D02*
X024660Y010800D01*
X026285Y011425D02*
X027160Y010800D01*
X027660Y011800D02*
X028286Y011174D01*
X028286Y010800D01*
X029034Y010800D02*
X029280Y010800D01*
X029285Y010795D01*
X027660Y011800D02*
X027160Y011800D01*
X026285Y011425D02*
X026285Y012300D01*
X026535Y012550D01*
X026535Y013550D01*
X021660Y009800D02*
X021410Y009800D01*
X020349Y009800D01*
X018910Y009800D01*
X018910Y009550D01*
X019410Y009300D02*
X020349Y009300D01*
X021410Y009300D01*
X021160Y008800D02*
X020349Y008800D01*
X020070Y008170D02*
X018790Y008170D01*
X017550Y009410D01*
X012410Y010800D02*
X007910Y010800D01*
X005660Y013550D02*
X005660Y014050D01*
X010160Y014050D01*
X010660Y013550D01*
X029410Y007800D02*
X029410Y006050D01*
X029410Y005050D01*
X029910Y004550D01*
X030410Y004550D01*
X030410Y005550D02*
X031660Y005550D01*
X033770Y003300D01*
X033880Y003190D01*
X036440Y003190D01*
X036550Y003300D01*
X037160Y003300D01*
X037410Y003550D01*
X037410Y006300D01*
X037926Y006816D01*
X038113Y006816D01*
X036440Y006190D02*
X033880Y006190D01*
X032115Y006175D01*
X031660Y006550D01*
X031660Y008050D01*
X032394Y008784D01*
X032404Y008784D01*
X033410Y009550D02*
X033880Y009190D01*
X033910Y009175D01*
X036410Y009175D01*
X036440Y009190D01*
X036846Y008784D01*
X038113Y008784D01*
X036660Y009050D02*
X036440Y009190D01*
X033410Y009550D02*
X030910Y009550D01*
X029410Y007800D01*
X030410Y006550D02*
X031660Y006550D01*
X012910Y003800D02*
X012910Y002550D01*
X011910Y002550D02*
X011910Y003050D01*
X011410Y003550D01*
X010410Y003550D01*
X010285Y003675D01*
X010310Y004925D01*
X010910Y004925D02*
X010910Y004050D01*
X011785Y004925D02*
X012910Y003800D01*
X011785Y004925D02*
X011510Y004925D01*
D34*
X012160Y005800D02*
X008410Y005800D01*
X007910Y005300D01*
X006160Y005300D01*
X004910Y007050D01*
X010910Y007050D02*
X010910Y010050D01*
X010660Y010300D01*
X010410Y010300D01*
X010160Y010050D01*
X010160Y009924D01*
X009910Y010300D02*
X010410Y010300D01*
X010910Y007050D02*
X012160Y005800D01*
X013910Y004050D01*
X023410Y004050D01*
X023910Y003550D01*
X026910Y003550D01*
X027660Y003580D01*
X027660Y006020D01*
X021160Y008050D02*
X021160Y008800D01*
D35*
X007910Y007050D03*
X006910Y004300D03*
D36*
X010910Y004050D03*
X019410Y009300D03*
X018910Y009550D03*
X021410Y009300D03*
X021410Y009800D03*
M02*
