%
M48
M72
T01C0.01378
T02C0.01969
T03C0.02362
T04C0.02400
T05C0.03200
T06C0.03543
T07C0.03937
T08C0.04000
T09C0.10000
T10C0.11800
%
T01
X69100Y39100
X79100Y66600
T02
X36600Y11600
X41600Y11600
X46600Y11600
X51600Y11600
X51600Y16600
X46600Y16600
X41600Y16600
X36600Y16600
X79100Y36600
X76600Y56600
X69100Y56600
X88200Y64100
X51600Y77850
X49100Y66600
X81600Y114100
X91600Y111600
X124100Y104100
X129100Y109100
X155700Y114500
X126600Y124100
X106600Y131600
X31600Y121600
X31600Y116600
X109100Y96600
X114100Y96600
X125350Y94100
X89100Y91600
X144100Y69100
X170350Y56600
X200700Y56750
X214100Y61600
X229100Y69100
X211600Y76600
X200700Y77800
X175500Y90200
X164100Y91600
X164100Y96600
X254100Y91600
X286600Y69100
X294100Y56600
X294100Y31600
X294100Y24100
X279100Y16600
X274100Y16600
X269100Y16600
X264100Y16600
X264100Y11600
X269100Y11600
X274100Y11600
X279100Y11600
X229100Y49100
T03
X109100Y36600
X194100Y89100
X189100Y91600
X214100Y89100
X214100Y94100
T04
X144100Y54100
X164100Y54100
T05
X271600Y94100
X271600Y104100
X271600Y114100
T06
X20261Y57092
X20261Y88588
T07
X56600Y121600
X66600Y121600
X76600Y121600
X86600Y121600
X96600Y121600
X96600Y131600
X86600Y131600
X76600Y131600
X66600Y131600
X56600Y131600
X324041Y83943
X324041Y64257
X381128Y64257
X381128Y74100
X381128Y83943
T08
X79100Y11600
X89100Y11600
X99100Y11600
X109100Y11600
X119100Y11600
X129100Y11600
X139100Y11600
X149100Y11600
X159100Y11600
X169100Y11600
X179100Y11600
X189100Y11600
X199100Y11600
X209100Y11600
X219100Y11600
X229100Y11600
X239100Y11600
X239100Y21600
X229100Y21600
X219100Y21600
X209100Y21600
X199100Y21600
X189100Y21600
X179100Y21600
X169100Y21600
X159100Y21600
X149100Y21600
X139100Y21600
X129100Y21600
X119100Y21600
X109100Y21600
X99100Y21600
X89100Y21600
X79100Y21600
X9100Y44100
X9100Y54100
X9100Y64100
X9100Y74100
X9100Y84100
X9100Y94100
X135350Y131600
X145350Y131600
X155350Y131600
X165350Y131600
X175350Y131600
X185350Y131600
X195350Y131600
X205350Y131600
X215350Y131600
X225350Y131600
X235350Y131600
X245350Y131600
X255350Y131600
X265350Y131600
X275350Y131600
X285350Y131600
X304100Y111600
X304100Y101600
X338800Y88000
X364400Y88000
X364400Y70200
X338800Y70200
X338800Y58000
X364400Y58000
X364400Y40200
X338800Y40200
X338800Y28000
X364400Y28000
X364400Y10200
X338800Y10200
X304100Y41600
X304100Y51600
X304100Y61600
X304100Y71600
T09
X11600Y131600
X11600Y11600
X306600Y11600
X306600Y131600
T10
X337663Y111600
X361285Y111600
X349474Y130104
M30
