G75*
%MOIN*%
%OFA0B0*%
%FSLAX24Y24*%
%IPPOS*%
%LPD*%
%AMOC8*
5,1,8,0,0,1.08239X$1,22.5*
%
%ADD10C,0.0000*%
%ADD11C,0.0060*%
%ADD12C,0.0020*%
%ADD13C,0.0050*%
%ADD14C,0.0010*%
%ADD15C,0.0040*%
D10*
X002288Y000180D02*
X002288Y014176D01*
X033658Y014176D01*
X033658Y000180D01*
X002288Y000180D01*
X002788Y001180D02*
X002790Y001224D01*
X002796Y001268D01*
X002806Y001311D01*
X002819Y001353D01*
X002836Y001394D01*
X002857Y001433D01*
X002881Y001470D01*
X002908Y001505D01*
X002938Y001537D01*
X002971Y001567D01*
X003007Y001593D01*
X003044Y001617D01*
X003084Y001636D01*
X003125Y001653D01*
X003168Y001665D01*
X003211Y001674D01*
X003255Y001679D01*
X003299Y001680D01*
X003343Y001677D01*
X003387Y001670D01*
X003430Y001659D01*
X003472Y001645D01*
X003512Y001627D01*
X003551Y001605D01*
X003587Y001581D01*
X003621Y001553D01*
X003653Y001522D01*
X003682Y001488D01*
X003708Y001452D01*
X003730Y001414D01*
X003749Y001374D01*
X003764Y001332D01*
X003776Y001290D01*
X003784Y001246D01*
X003788Y001202D01*
X003788Y001158D01*
X003784Y001114D01*
X003776Y001070D01*
X003764Y001028D01*
X003749Y000986D01*
X003730Y000946D01*
X003708Y000908D01*
X003682Y000872D01*
X003653Y000838D01*
X003621Y000807D01*
X003587Y000779D01*
X003551Y000755D01*
X003512Y000733D01*
X003472Y000715D01*
X003430Y000701D01*
X003387Y000690D01*
X003343Y000683D01*
X003299Y000680D01*
X003255Y000681D01*
X003211Y000686D01*
X003168Y000695D01*
X003125Y000707D01*
X003084Y000724D01*
X003044Y000743D01*
X003007Y000767D01*
X002971Y000793D01*
X002938Y000823D01*
X002908Y000855D01*
X002881Y000890D01*
X002857Y000927D01*
X002836Y000966D01*
X002819Y001007D01*
X002806Y001049D01*
X002796Y001092D01*
X002790Y001136D01*
X002788Y001180D01*
X002788Y013180D02*
X002790Y013224D01*
X002796Y013268D01*
X002806Y013311D01*
X002819Y013353D01*
X002836Y013394D01*
X002857Y013433D01*
X002881Y013470D01*
X002908Y013505D01*
X002938Y013537D01*
X002971Y013567D01*
X003007Y013593D01*
X003044Y013617D01*
X003084Y013636D01*
X003125Y013653D01*
X003168Y013665D01*
X003211Y013674D01*
X003255Y013679D01*
X003299Y013680D01*
X003343Y013677D01*
X003387Y013670D01*
X003430Y013659D01*
X003472Y013645D01*
X003512Y013627D01*
X003551Y013605D01*
X003587Y013581D01*
X003621Y013553D01*
X003653Y013522D01*
X003682Y013488D01*
X003708Y013452D01*
X003730Y013414D01*
X003749Y013374D01*
X003764Y013332D01*
X003776Y013290D01*
X003784Y013246D01*
X003788Y013202D01*
X003788Y013158D01*
X003784Y013114D01*
X003776Y013070D01*
X003764Y013028D01*
X003749Y012986D01*
X003730Y012946D01*
X003708Y012908D01*
X003682Y012872D01*
X003653Y012838D01*
X003621Y012807D01*
X003587Y012779D01*
X003551Y012755D01*
X003512Y012733D01*
X003472Y012715D01*
X003430Y012701D01*
X003387Y012690D01*
X003343Y012683D01*
X003299Y012680D01*
X003255Y012681D01*
X003211Y012686D01*
X003168Y012695D01*
X003125Y012707D01*
X003084Y012724D01*
X003044Y012743D01*
X003007Y012767D01*
X002971Y012793D01*
X002938Y012823D01*
X002908Y012855D01*
X002881Y012890D01*
X002857Y012927D01*
X002836Y012966D01*
X002819Y013007D01*
X002806Y013049D01*
X002796Y013092D01*
X002790Y013136D01*
X002788Y013180D01*
X032288Y013180D02*
X032290Y013224D01*
X032296Y013268D01*
X032306Y013311D01*
X032319Y013353D01*
X032336Y013394D01*
X032357Y013433D01*
X032381Y013470D01*
X032408Y013505D01*
X032438Y013537D01*
X032471Y013567D01*
X032507Y013593D01*
X032544Y013617D01*
X032584Y013636D01*
X032625Y013653D01*
X032668Y013665D01*
X032711Y013674D01*
X032755Y013679D01*
X032799Y013680D01*
X032843Y013677D01*
X032887Y013670D01*
X032930Y013659D01*
X032972Y013645D01*
X033012Y013627D01*
X033051Y013605D01*
X033087Y013581D01*
X033121Y013553D01*
X033153Y013522D01*
X033182Y013488D01*
X033208Y013452D01*
X033230Y013414D01*
X033249Y013374D01*
X033264Y013332D01*
X033276Y013290D01*
X033284Y013246D01*
X033288Y013202D01*
X033288Y013158D01*
X033284Y013114D01*
X033276Y013070D01*
X033264Y013028D01*
X033249Y012986D01*
X033230Y012946D01*
X033208Y012908D01*
X033182Y012872D01*
X033153Y012838D01*
X033121Y012807D01*
X033087Y012779D01*
X033051Y012755D01*
X033012Y012733D01*
X032972Y012715D01*
X032930Y012701D01*
X032887Y012690D01*
X032843Y012683D01*
X032799Y012680D01*
X032755Y012681D01*
X032711Y012686D01*
X032668Y012695D01*
X032625Y012707D01*
X032584Y012724D01*
X032544Y012743D01*
X032507Y012767D01*
X032471Y012793D01*
X032438Y012823D01*
X032408Y012855D01*
X032381Y012890D01*
X032357Y012927D01*
X032336Y012966D01*
X032319Y013007D01*
X032306Y013049D01*
X032296Y013092D01*
X032290Y013136D01*
X032288Y013180D01*
X032288Y001180D02*
X032290Y001224D01*
X032296Y001268D01*
X032306Y001311D01*
X032319Y001353D01*
X032336Y001394D01*
X032357Y001433D01*
X032381Y001470D01*
X032408Y001505D01*
X032438Y001537D01*
X032471Y001567D01*
X032507Y001593D01*
X032544Y001617D01*
X032584Y001636D01*
X032625Y001653D01*
X032668Y001665D01*
X032711Y001674D01*
X032755Y001679D01*
X032799Y001680D01*
X032843Y001677D01*
X032887Y001670D01*
X032930Y001659D01*
X032972Y001645D01*
X033012Y001627D01*
X033051Y001605D01*
X033087Y001581D01*
X033121Y001553D01*
X033153Y001522D01*
X033182Y001488D01*
X033208Y001452D01*
X033230Y001414D01*
X033249Y001374D01*
X033264Y001332D01*
X033276Y001290D01*
X033284Y001246D01*
X033288Y001202D01*
X033288Y001158D01*
X033284Y001114D01*
X033276Y001070D01*
X033264Y001028D01*
X033249Y000986D01*
X033230Y000946D01*
X033208Y000908D01*
X033182Y000872D01*
X033153Y000838D01*
X033121Y000807D01*
X033087Y000779D01*
X033051Y000755D01*
X033012Y000733D01*
X032972Y000715D01*
X032930Y000701D01*
X032887Y000690D01*
X032843Y000683D01*
X032799Y000680D01*
X032755Y000681D01*
X032711Y000686D01*
X032668Y000695D01*
X032625Y000707D01*
X032584Y000724D01*
X032544Y000743D01*
X032507Y000767D01*
X032471Y000793D01*
X032438Y000823D01*
X032408Y000855D01*
X032381Y000890D01*
X032357Y000927D01*
X032336Y000966D01*
X032319Y001007D01*
X032306Y001049D01*
X032296Y001092D01*
X032290Y001136D01*
X032288Y001180D01*
D11*
X019918Y007940D02*
X019779Y007800D01*
X017158Y007800D01*
X017158Y010560D01*
X019918Y010560D01*
X019918Y007940D01*
X019477Y008100D02*
X019479Y008123D01*
X019485Y008146D01*
X019494Y008167D01*
X019507Y008187D01*
X019523Y008204D01*
X019541Y008218D01*
X019561Y008229D01*
X019583Y008237D01*
X019606Y008241D01*
X019630Y008241D01*
X019653Y008237D01*
X019675Y008229D01*
X019695Y008218D01*
X019713Y008204D01*
X019729Y008187D01*
X019742Y008167D01*
X019751Y008146D01*
X019757Y008123D01*
X019759Y008100D01*
X019757Y008077D01*
X019751Y008054D01*
X019742Y008033D01*
X019729Y008013D01*
X019713Y007996D01*
X019695Y007982D01*
X019675Y007971D01*
X019653Y007963D01*
X019630Y007959D01*
X019606Y007959D01*
X019583Y007963D01*
X019561Y007971D01*
X019541Y007982D01*
X019523Y007996D01*
X019507Y008013D01*
X019494Y008033D01*
X019485Y008054D01*
X019479Y008077D01*
X019477Y008100D01*
X011308Y006330D02*
X011308Y010030D01*
X011306Y010053D01*
X011301Y010076D01*
X011292Y010098D01*
X011279Y010118D01*
X011264Y010136D01*
X011246Y010151D01*
X011226Y010164D01*
X011204Y010173D01*
X011181Y010178D01*
X011158Y010180D01*
X010738Y010180D01*
X010338Y010180D01*
X009918Y010180D01*
X009895Y010178D01*
X009872Y010173D01*
X009850Y010164D01*
X009830Y010151D01*
X009812Y010136D01*
X009797Y010118D01*
X009784Y010098D01*
X009775Y010076D01*
X009770Y010053D01*
X009768Y010030D01*
X009768Y006330D01*
X009770Y006307D01*
X009775Y006284D01*
X009784Y006262D01*
X009797Y006242D01*
X009812Y006224D01*
X009830Y006209D01*
X009850Y006196D01*
X009872Y006187D01*
X009895Y006182D01*
X009918Y006180D01*
X011158Y006180D01*
X011181Y006182D01*
X011204Y006187D01*
X011226Y006196D01*
X011246Y006209D01*
X011264Y006224D01*
X011279Y006242D01*
X011292Y006262D01*
X011301Y006284D01*
X011306Y006307D01*
X011308Y006330D01*
X010738Y010180D02*
X010736Y010153D01*
X010731Y010126D01*
X010721Y010100D01*
X010709Y010076D01*
X010693Y010054D01*
X010675Y010034D01*
X010653Y010017D01*
X010630Y010002D01*
X010605Y009992D01*
X010579Y009984D01*
X010552Y009980D01*
X010524Y009980D01*
X010497Y009984D01*
X010471Y009992D01*
X010446Y010002D01*
X010423Y010017D01*
X010401Y010034D01*
X010383Y010054D01*
X010367Y010076D01*
X010355Y010100D01*
X010345Y010126D01*
X010340Y010153D01*
X010338Y010180D01*
D12*
X011168Y010180D02*
X011168Y006180D01*
D13*
X010738Y008855D02*
X010588Y008855D01*
X010513Y008930D01*
X010513Y009305D01*
X010353Y009230D02*
X010278Y009305D01*
X010128Y009305D01*
X010053Y009230D01*
X010053Y009155D01*
X010353Y008855D01*
X010053Y008855D01*
X010738Y008855D02*
X010813Y008930D01*
X010813Y009305D01*
D14*
X018107Y010010D02*
X018132Y009985D01*
X018207Y009985D01*
X018255Y009985D02*
X018255Y009960D01*
X018280Y009935D01*
X018330Y009935D01*
X018355Y009960D01*
X018355Y009985D01*
X018330Y010010D01*
X018280Y010010D01*
X018255Y009985D01*
X018280Y010010D02*
X018255Y010035D01*
X018255Y010060D01*
X018280Y010085D01*
X018330Y010085D01*
X018355Y010060D01*
X018355Y010035D01*
X018330Y010010D01*
X018402Y010035D02*
X018402Y010060D01*
X018427Y010085D01*
X018477Y010085D01*
X018502Y010060D01*
X018549Y010060D02*
X018549Y010035D01*
X018574Y010010D01*
X018549Y009985D01*
X018549Y009960D01*
X018574Y009935D01*
X018624Y009935D01*
X018649Y009960D01*
X018697Y009935D02*
X018697Y010035D01*
X018747Y010085D01*
X018797Y010035D01*
X018797Y009935D01*
X018844Y009960D02*
X018844Y010010D01*
X018894Y010010D01*
X018844Y009960D02*
X018869Y009935D01*
X018919Y009935D01*
X018944Y009960D01*
X018944Y010060D01*
X018919Y010085D01*
X018869Y010085D01*
X018844Y010060D01*
X018797Y010010D02*
X018697Y010010D01*
X018649Y010060D02*
X018624Y010085D01*
X018574Y010085D01*
X018549Y010060D01*
X018574Y010010D02*
X018599Y010010D01*
X018502Y009935D02*
X018402Y010035D01*
X018402Y009935D02*
X018502Y009935D01*
X018207Y009935D02*
X018207Y010085D01*
X018132Y010085D01*
X018107Y010060D01*
X018107Y010010D01*
X018991Y009935D02*
X019091Y009935D01*
X019091Y010085D01*
X018991Y010085D01*
X019041Y010010D02*
X019091Y010010D01*
X019139Y010085D02*
X019139Y009935D01*
X019239Y009935D02*
X019239Y010085D01*
X019189Y010035D01*
X019139Y010085D01*
X019286Y010085D02*
X019386Y010085D01*
X019336Y010085D02*
X019336Y009935D01*
X019433Y009935D02*
X019433Y010035D01*
X019483Y010085D01*
X019533Y010035D01*
X019533Y009935D01*
X019533Y010010D02*
X019433Y010010D01*
X019458Y010185D02*
X019433Y010210D01*
X019433Y010335D01*
X019386Y010285D02*
X019336Y010335D01*
X019336Y010185D01*
X019386Y010185D02*
X019286Y010185D01*
X019458Y010185D02*
X019508Y010185D01*
X019533Y010210D01*
X019533Y010335D01*
D15*
X008018Y004084D02*
X008018Y003777D01*
X007942Y003700D01*
X007788Y003700D01*
X007711Y003777D01*
X007558Y003930D02*
X007251Y003930D01*
X007328Y003700D02*
X007328Y004160D01*
X007558Y003930D01*
X007711Y004084D02*
X007788Y004160D01*
X007942Y004160D01*
X008018Y004084D01*
X016172Y003910D02*
X016479Y003910D01*
X016479Y003680D01*
X016325Y003757D01*
X016249Y003757D01*
X016172Y003680D01*
X016172Y003527D01*
X016249Y003450D01*
X016402Y003450D01*
X016479Y003527D01*
X016632Y003527D02*
X016709Y003450D01*
X016862Y003450D01*
X016939Y003527D01*
X016939Y003834D01*
X016862Y003910D01*
X016709Y003910D01*
X016632Y003834D01*
X018172Y003910D02*
X018325Y003834D01*
X018479Y003680D01*
X018249Y003680D01*
X018172Y003603D01*
X018172Y003527D01*
X018249Y003450D01*
X018402Y003450D01*
X018479Y003527D01*
X018479Y003680D01*
X018632Y003527D02*
X018709Y003450D01*
X018862Y003450D01*
X018939Y003527D01*
X018939Y003834D01*
X018862Y003910D01*
X018709Y003910D01*
X018632Y003834D01*
M02*
