G75*
%MOIN*%
%OFA0B0*%
%FSLAX24Y24*%
%IPPOS*%
%LPD*%
%AMOC8*
5,1,8,0,0,1.08239X$1,22.5*
%
%ADD10C,0.0000*%
%ADD11C,0.0040*%
%ADD12C,0.0060*%
%ADD13C,0.0080*%
%ADD14C,0.0020*%
%ADD15C,0.0050*%
%ADD16R,0.0020X0.0002*%
%ADD17R,0.0025X0.0003*%
%ADD18R,0.0030X0.0002*%
%ADD19R,0.0035X0.0003*%
%ADD20R,0.0042X0.0002*%
%ADD21R,0.0050X0.0003*%
%ADD22R,0.0060X0.0002*%
%ADD23R,0.0065X0.0003*%
%ADD24R,0.0067X0.0002*%
%ADD25R,0.0070X0.0003*%
%ADD26R,0.0072X0.0002*%
%ADD27R,0.0072X0.0003*%
%ADD28R,0.0075X0.0002*%
%ADD29R,0.0075X0.0003*%
%ADD30R,0.0012X0.0002*%
%ADD31R,0.0003X0.0002*%
%ADD32R,0.0010X0.0002*%
%ADD33R,0.0008X0.0002*%
%ADD34R,0.0002X0.0002*%
%ADD35R,0.0005X0.0002*%
%ADD36R,0.0007X0.0002*%
%ADD37R,0.0007X0.0003*%
%ADD38R,0.0083X0.0003*%
%ADD39R,0.0068X0.0003*%
%ADD40R,0.0078X0.0003*%
%ADD41R,0.0010X0.0003*%
%ADD42R,0.0005X0.0003*%
%ADD43R,0.0080X0.0003*%
%ADD44R,0.0038X0.0002*%
%ADD45R,0.0033X0.0002*%
%ADD46R,0.0043X0.0002*%
%ADD47R,0.0015X0.0002*%
%ADD48R,0.0093X0.0002*%
%ADD49R,0.0080X0.0002*%
%ADD50R,0.0090X0.0002*%
%ADD51R,0.0052X0.0003*%
%ADD52R,0.0077X0.0003*%
%ADD53R,0.0053X0.0003*%
%ADD54R,0.0018X0.0003*%
%ADD55R,0.0020X0.0003*%
%ADD56R,0.0097X0.0003*%
%ADD57R,0.0100X0.0003*%
%ADD58R,0.0085X0.0003*%
%ADD59R,0.0098X0.0003*%
%ADD60R,0.0023X0.0003*%
%ADD61R,0.0068X0.0002*%
%ADD62R,0.0077X0.0002*%
%ADD63R,0.0063X0.0002*%
%ADD64R,0.0023X0.0002*%
%ADD65R,0.0022X0.0002*%
%ADD66R,0.0105X0.0002*%
%ADD67R,0.0028X0.0002*%
%ADD68R,0.0025X0.0002*%
%ADD69R,0.0110X0.0002*%
%ADD70R,0.0092X0.0002*%
%ADD71R,0.0082X0.0003*%
%ADD72R,0.0017X0.0003*%
%ADD73R,0.0030X0.0003*%
%ADD74R,0.0027X0.0003*%
%ADD75R,0.0108X0.0003*%
%ADD76R,0.0033X0.0003*%
%ADD77R,0.0118X0.0003*%
%ADD78R,0.0113X0.0003*%
%ADD79R,0.0028X0.0003*%
%ADD80R,0.0102X0.0002*%
%ADD81R,0.0085X0.0002*%
%ADD82R,0.0103X0.0002*%
%ADD83R,0.0100X0.0002*%
%ADD84R,0.0037X0.0002*%
%ADD85R,0.0035X0.0002*%
%ADD86R,0.0117X0.0002*%
%ADD87R,0.0132X0.0002*%
%ADD88R,0.0108X0.0002*%
%ADD89R,0.0118X0.0002*%
%ADD90R,0.0128X0.0002*%
%ADD91R,0.0122X0.0003*%
%ADD92R,0.0205X0.0003*%
%ADD93R,0.0120X0.0003*%
%ADD94R,0.0040X0.0003*%
%ADD95R,0.0042X0.0003*%
%ADD96R,0.0043X0.0003*%
%ADD97R,0.0125X0.0003*%
%ADD98R,0.0142X0.0003*%
%ADD99R,0.0123X0.0003*%
%ADD100R,0.0128X0.0003*%
%ADD101R,0.0045X0.0003*%
%ADD102R,0.0135X0.0002*%
%ADD103R,0.0210X0.0002*%
%ADD104R,0.0048X0.0002*%
%ADD105R,0.0047X0.0002*%
%ADD106R,0.0045X0.0002*%
%ADD107R,0.0133X0.0002*%
%ADD108R,0.0055X0.0002*%
%ADD109R,0.0150X0.0002*%
%ADD110R,0.0262X0.0002*%
%ADD111R,0.0130X0.0002*%
%ADD112R,0.0050X0.0002*%
%ADD113R,0.0152X0.0002*%
%ADD114R,0.0215X0.0003*%
%ADD115R,0.0143X0.0003*%
%ADD116R,0.0055X0.0003*%
%ADD117R,0.0047X0.0003*%
%ADD118R,0.0135X0.0003*%
%ADD119R,0.0058X0.0003*%
%ADD120R,0.0158X0.0003*%
%ADD121R,0.0268X0.0003*%
%ADD122R,0.0132X0.0003*%
%ADD123R,0.0148X0.0002*%
%ADD124R,0.0217X0.0002*%
%ADD125R,0.0147X0.0002*%
%ADD126R,0.0058X0.0002*%
%ADD127R,0.0053X0.0002*%
%ADD128R,0.0138X0.0002*%
%ADD129R,0.0052X0.0002*%
%ADD130R,0.0162X0.0002*%
%ADD131R,0.0272X0.0002*%
%ADD132R,0.0152X0.0003*%
%ADD133R,0.0220X0.0003*%
%ADD134R,0.0153X0.0003*%
%ADD135R,0.0062X0.0003*%
%ADD136R,0.0063X0.0003*%
%ADD137R,0.0140X0.0003*%
%ADD138R,0.0060X0.0003*%
%ADD139R,0.0168X0.0003*%
%ADD140R,0.0278X0.0003*%
%ADD141R,0.0137X0.0003*%
%ADD142R,0.0165X0.0003*%
%ADD143R,0.0160X0.0002*%
%ADD144R,0.0222X0.0002*%
%ADD145R,0.0140X0.0002*%
%ADD146R,0.0172X0.0002*%
%ADD147R,0.0282X0.0002*%
%ADD148R,0.0170X0.0003*%
%ADD149R,0.0227X0.0003*%
%ADD150R,0.0167X0.0003*%
%ADD151R,0.0073X0.0003*%
%ADD152R,0.0180X0.0003*%
%ADD153R,0.0288X0.0003*%
%ADD154R,0.0178X0.0003*%
%ADD155R,0.0180X0.0002*%
%ADD156R,0.0235X0.0002*%
%ADD157R,0.0177X0.0002*%
%ADD158R,0.0078X0.0002*%
%ADD159R,0.0145X0.0002*%
%ADD160R,0.0057X0.0002*%
%ADD161R,0.0185X0.0002*%
%ADD162R,0.0292X0.0002*%
%ADD163R,0.0182X0.0002*%
%ADD164R,0.0188X0.0003*%
%ADD165R,0.0237X0.0003*%
%ADD166R,0.0183X0.0003*%
%ADD167R,0.0148X0.0003*%
%ADD168R,0.0057X0.0003*%
%ADD169R,0.0190X0.0003*%
%ADD170R,0.0295X0.0003*%
%ADD171R,0.0192X0.0002*%
%ADD172R,0.0240X0.0002*%
%ADD173R,0.0187X0.0002*%
%ADD174R,0.0195X0.0002*%
%ADD175R,0.0298X0.0002*%
%ADD176R,0.0198X0.0003*%
%ADD177R,0.0242X0.0003*%
%ADD178R,0.0193X0.0003*%
%ADD179R,0.0147X0.0003*%
%ADD180R,0.0200X0.0003*%
%ADD181R,0.0300X0.0003*%
%ADD182R,0.0150X0.0003*%
%ADD183R,0.0202X0.0002*%
%ADD184R,0.0242X0.0002*%
%ADD185R,0.0197X0.0002*%
%ADD186R,0.0205X0.0002*%
%ADD187R,0.0302X0.0002*%
%ADD188R,0.0200X0.0002*%
%ADD189R,0.0208X0.0003*%
%ADD190R,0.0245X0.0003*%
%ADD191R,0.0203X0.0003*%
%ADD192R,0.0210X0.0003*%
%ADD193R,0.0302X0.0003*%
%ADD194R,0.0202X0.0003*%
%ADD195R,0.0247X0.0002*%
%ADD196R,0.0207X0.0002*%
%ADD197R,0.0155X0.0002*%
%ADD198R,0.0215X0.0002*%
%ADD199R,0.0308X0.0002*%
%ADD200R,0.0252X0.0003*%
%ADD201R,0.0213X0.0003*%
%ADD202R,0.0155X0.0003*%
%ADD203R,0.0312X0.0003*%
%ADD204R,0.0220X0.0002*%
%ADD205R,0.0255X0.0002*%
%ADD206R,0.0158X0.0002*%
%ADD207R,0.0315X0.0002*%
%ADD208R,0.0153X0.0002*%
%ADD209R,0.0222X0.0003*%
%ADD210R,0.0257X0.0003*%
%ADD211R,0.0095X0.0003*%
%ADD212R,0.0102X0.0003*%
%ADD213R,0.0318X0.0003*%
%ADD214R,0.0107X0.0003*%
%ADD215R,0.0228X0.0002*%
%ADD216R,0.0257X0.0002*%
%ADD217R,0.0223X0.0002*%
%ADD218R,0.0095X0.0002*%
%ADD219R,0.0122X0.0002*%
%ADD220R,0.0082X0.0002*%
%ADD221R,0.0087X0.0002*%
%ADD222R,0.0098X0.0002*%
%ADD223R,0.0232X0.0003*%
%ADD224R,0.0260X0.0003*%
%ADD225R,0.0087X0.0003*%
%ADD226R,0.0238X0.0002*%
%ADD227R,0.0260X0.0002*%
%ADD228R,0.0233X0.0002*%
%ADD229R,0.0083X0.0002*%
%ADD230R,0.0073X0.0002*%
%ADD231R,0.0240X0.0003*%
%ADD232R,0.0262X0.0003*%
%ADD233R,0.0088X0.0003*%
%ADD234R,0.0245X0.0002*%
%ADD235R,0.0265X0.0002*%
%ADD236R,0.0243X0.0002*%
%ADD237R,0.0070X0.0002*%
%ADD238R,0.0065X0.0002*%
%ADD239R,0.0247X0.0003*%
%ADD240R,0.0265X0.0003*%
%ADD241R,0.0243X0.0003*%
%ADD242R,0.0250X0.0002*%
%ADD243R,0.0267X0.0002*%
%ADD244R,0.0250X0.0003*%
%ADD245R,0.0270X0.0003*%
%ADD246R,0.0067X0.0003*%
%ADD247R,0.0253X0.0002*%
%ADD248R,0.0062X0.0002*%
%ADD249R,0.0115X0.0003*%
%ADD250R,0.0130X0.0003*%
%ADD251R,0.0107X0.0002*%
%ADD252R,0.0105X0.0003*%
%ADD253R,0.0117X0.0003*%
%ADD254R,0.0115X0.0002*%
%ADD255R,0.0097X0.0002*%
%ADD256R,0.0103X0.0003*%
%ADD257R,0.0112X0.0003*%
%ADD258R,0.0090X0.0003*%
%ADD259R,0.0093X0.0003*%
%ADD260R,0.0092X0.0003*%
%ADD261R,0.0088X0.0002*%
%ADD262R,0.0012X0.0003*%
%ADD263R,0.0120X0.0002*%
%ADD264R,0.0125X0.0002*%
%ADD265R,0.0127X0.0002*%
%ADD266R,0.0127X0.0003*%
%ADD267R,0.0160X0.0003*%
%ADD268R,0.0163X0.0002*%
%ADD269R,0.0170X0.0002*%
%ADD270R,0.0145X0.0003*%
%ADD271R,0.0175X0.0002*%
%ADD272R,0.0188X0.0002*%
%ADD273R,0.0185X0.0003*%
%ADD274R,0.0207X0.0003*%
%ADD275R,0.0195X0.0003*%
%ADD276R,0.0208X0.0002*%
%ADD277R,0.0190X0.0002*%
%ADD278R,0.0187X0.0003*%
%ADD279R,0.0175X0.0003*%
%ADD280R,0.0173X0.0003*%
%ADD281R,0.0165X0.0002*%
%ADD282R,0.0235X0.0003*%
%ADD283R,0.0248X0.0003*%
%ADD284R,0.0143X0.0002*%
%ADD285R,0.0255X0.0003*%
%ADD286R,0.0275X0.0002*%
%ADD287R,0.0113X0.0002*%
%ADD288R,0.0110X0.0003*%
%ADD289R,0.0013X0.0002*%
%ADD290R,0.0178X0.0002*%
%ADD291R,0.0015X0.0003*%
%ADD292R,0.0040X0.0002*%
%ADD293R,0.0027X0.0002*%
%ADD294R,0.0048X0.0003*%
%ADD295R,0.0032X0.0003*%
%ADD296R,0.0038X0.0003*%
%ADD297R,0.0138X0.0003*%
%ADD298R,0.0123X0.0002*%
%ADD299R,0.0212X0.0002*%
%ADD300R,0.0238X0.0003*%
%ADD301R,0.0252X0.0002*%
%ADD302R,0.0258X0.0002*%
%ADD303R,0.0203X0.0002*%
%ADD304R,0.0197X0.0003*%
%ADD305R,0.0198X0.0002*%
%ADD306R,0.0230X0.0003*%
%ADD307R,0.0233X0.0003*%
%ADD308R,0.0193X0.0002*%
%ADD309R,0.0230X0.0002*%
%ADD310R,0.0223X0.0003*%
%ADD311R,0.0228X0.0003*%
%ADD312R,0.0182X0.0003*%
%ADD313R,0.0218X0.0003*%
%ADD314R,0.0172X0.0003*%
%ADD315R,0.0227X0.0002*%
%ADD316R,0.0167X0.0002*%
%ADD317R,0.0218X0.0002*%
%ADD318R,0.0168X0.0002*%
%ADD319R,0.0225X0.0003*%
%ADD320R,0.0163X0.0003*%
%ADD321R,0.0162X0.0003*%
%ADD322R,0.0157X0.0002*%
%ADD323R,0.0213X0.0002*%
%ADD324R,0.0137X0.0002*%
%ADD325R,0.0112X0.0002*%
%ADD326R,0.0192X0.0003*%
%ADD327R,0.0017X0.0002*%
%ADD328R,0.0013X0.0003*%
%ADD329R,0.0022X0.0003*%
%ADD330R,0.0037X0.0003*%
%ADD331R,0.0032X0.0002*%
%ADD332R,0.0157X0.0003*%
%ADD333R,0.0217X0.0003*%
%ADD334R,0.0177X0.0003*%
%ADD335R,0.0183X0.0002*%
%ADD336R,0.0272X0.0003*%
%ADD337R,0.0280X0.0002*%
%ADD338R,0.0285X0.0003*%
%ADD339R,0.0287X0.0002*%
%ADD340R,0.0293X0.0003*%
%ADD341R,0.0212X0.0003*%
%ADD342R,0.0300X0.0002*%
%ADD343R,0.0310X0.0003*%
%ADD344R,0.0318X0.0002*%
%ADD345R,0.0322X0.0003*%
%ADD346R,0.0328X0.0002*%
%ADD347R,0.0332X0.0003*%
%ADD348R,0.0253X0.0003*%
%ADD349R,0.0340X0.0002*%
%ADD350R,0.0345X0.0003*%
%ADD351R,0.0263X0.0003*%
%ADD352R,0.0353X0.0002*%
%ADD353R,0.0270X0.0002*%
%ADD354R,0.0360X0.0003*%
%ADD355R,0.0365X0.0002*%
%ADD356R,0.0370X0.0003*%
%ADD357R,0.0372X0.0002*%
%ADD358R,0.0380X0.0003*%
%ADD359R,0.0298X0.0003*%
%ADD360R,0.0390X0.0002*%
%ADD361R,0.0305X0.0002*%
%ADD362R,0.0397X0.0003*%
%ADD363R,0.0008X0.0003*%
%ADD364R,0.0315X0.0003*%
%ADD365R,0.0403X0.0002*%
%ADD366R,0.0320X0.0002*%
%ADD367R,0.0405X0.0003*%
%ADD368R,0.0323X0.0003*%
%ADD369R,0.0410X0.0002*%
%ADD370R,0.0327X0.0002*%
%ADD371R,0.0418X0.0003*%
%ADD372R,0.0335X0.0003*%
%ADD373R,0.0422X0.0002*%
%ADD374R,0.0430X0.0003*%
%ADD375R,0.0348X0.0003*%
%ADD376R,0.0437X0.0002*%
%ADD377R,0.0355X0.0002*%
%ADD378R,0.0445X0.0003*%
%ADD379R,0.0450X0.0002*%
%ADD380R,0.0452X0.0003*%
%ADD381R,0.0367X0.0003*%
%ADD382R,0.0458X0.0002*%
%ADD383R,0.0373X0.0002*%
%ADD384R,0.0462X0.0003*%
%ADD385R,0.0470X0.0002*%
%ADD386R,0.0385X0.0002*%
%ADD387R,0.0480X0.0003*%
%ADD388R,0.0392X0.0003*%
%ADD389R,0.0483X0.0002*%
%ADD390R,0.0398X0.0002*%
%ADD391R,0.0487X0.0003*%
%ADD392R,0.0402X0.0003*%
%ADD393R,0.0495X0.0002*%
%ADD394R,0.0405X0.0002*%
%ADD395R,0.0500X0.0003*%
%ADD396R,0.0410X0.0003*%
%ADD397R,0.0508X0.0002*%
%ADD398R,0.0417X0.0002*%
%ADD399R,0.0515X0.0003*%
%ADD400R,0.0425X0.0003*%
%ADD401R,0.0523X0.0002*%
%ADD402R,0.0430X0.0002*%
%ADD403R,0.0527X0.0003*%
%ADD404R,0.0438X0.0003*%
%ADD405R,0.0533X0.0002*%
%ADD406R,0.0442X0.0002*%
%ADD407R,0.0535X0.0003*%
%ADD408R,0.0540X0.0002*%
%ADD409R,0.0548X0.0003*%
%ADD410R,0.0457X0.0003*%
%ADD411R,0.0555X0.0002*%
%ADD412R,0.0465X0.0002*%
%ADD413R,0.0560X0.0003*%
%ADD414R,0.0472X0.0003*%
%ADD415R,0.0565X0.0002*%
%ADD416R,0.0478X0.0002*%
%ADD417R,0.0570X0.0003*%
%ADD418R,0.0817X0.0002*%
%ADD419R,0.0482X0.0002*%
%ADD420R,0.0820X0.0003*%
%ADD421R,0.0490X0.0003*%
%ADD422R,0.0825X0.0002*%
%ADD423R,0.0497X0.0002*%
%ADD424R,0.0828X0.0003*%
%ADD425R,0.0502X0.0003*%
%ADD426R,0.0830X0.0002*%
%ADD427R,0.0835X0.0003*%
%ADD428R,0.0512X0.0003*%
%ADD429R,0.0835X0.0002*%
%ADD430R,0.0225X0.0002*%
%ADD431R,0.0518X0.0002*%
%ADD432R,0.0840X0.0003*%
%ADD433R,0.0522X0.0003*%
%ADD434R,0.0840X0.0002*%
%ADD435R,0.0530X0.0002*%
%ADD436R,0.0845X0.0003*%
%ADD437R,0.0537X0.0003*%
%ADD438R,0.0845X0.0002*%
%ADD439R,0.0542X0.0002*%
%ADD440R,0.0848X0.0003*%
%ADD441R,0.0550X0.0003*%
%ADD442R,0.0850X0.0002*%
%ADD443R,0.0850X0.0003*%
%ADD444R,0.0823X0.0003*%
%ADD445R,0.0852X0.0002*%
%ADD446R,0.0852X0.0003*%
%ADD447R,0.0832X0.0002*%
%ADD448R,0.0855X0.0003*%
%ADD449R,0.0855X0.0002*%
%ADD450R,0.0837X0.0003*%
%ADD451R,0.0843X0.0003*%
%ADD452R,0.0848X0.0002*%
%ADD453R,0.0858X0.0003*%
%ADD454R,0.0860X0.0002*%
%ADD455R,0.0857X0.0003*%
%ADD456R,0.0860X0.0003*%
%ADD457R,0.0865X0.0002*%
%ADD458R,0.0865X0.0003*%
%ADD459R,0.0853X0.0002*%
%ADD460R,0.0867X0.0003*%
%ADD461R,0.0867X0.0002*%
%ADD462R,0.0870X0.0003*%
%ADD463R,0.0870X0.0002*%
%ADD464R,0.0847X0.0002*%
%ADD465R,0.0868X0.0002*%
%ADD466R,0.0842X0.0002*%
%ADD467R,0.0838X0.0002*%
%ADD468R,0.0868X0.0003*%
%ADD469R,0.0838X0.0003*%
%ADD470R,0.0837X0.0002*%
%ADD471R,0.0833X0.0003*%
%ADD472R,0.0833X0.0002*%
%ADD473R,0.0863X0.0002*%
%ADD474R,0.0830X0.0003*%
%ADD475R,0.0863X0.0003*%
%ADD476R,0.0862X0.0002*%
%ADD477R,0.0827X0.0002*%
%ADD478R,0.0857X0.0002*%
%ADD479R,0.0827X0.0003*%
%ADD480R,0.0858X0.0002*%
%ADD481R,0.0825X0.0003*%
%ADD482R,0.0823X0.0002*%
%ADD483R,0.0822X0.0002*%
%ADD484R,0.0853X0.0003*%
%ADD485R,0.0820X0.0002*%
%ADD486R,0.0817X0.0003*%
%ADD487R,0.0818X0.0002*%
%ADD488R,0.0815X0.0003*%
%ADD489R,0.0847X0.0003*%
%ADD490R,0.0815X0.0002*%
%ADD491R,0.0812X0.0003*%
%ADD492R,0.0813X0.0003*%
%ADD493R,0.0808X0.0002*%
%ADD494R,0.0805X0.0003*%
%ADD495R,0.0805X0.0002*%
%ADD496R,0.0842X0.0003*%
%ADD497R,0.0802X0.0003*%
%ADD498R,0.0803X0.0003*%
%ADD499R,0.0802X0.0002*%
%ADD500R,0.0800X0.0002*%
%ADD501R,0.0800X0.0003*%
%ADD502R,0.0797X0.0003*%
%ADD503R,0.0798X0.0003*%
%ADD504R,0.0832X0.0003*%
%ADD505R,0.0798X0.0002*%
%ADD506R,0.0795X0.0003*%
%ADD507R,0.0795X0.0002*%
%ADD508R,0.0792X0.0003*%
%ADD509R,0.0790X0.0002*%
%ADD510R,0.0787X0.0003*%
%ADD511R,0.0788X0.0002*%
%ADD512R,0.0788X0.0003*%
%ADD513R,0.0785X0.0002*%
%ADD514R,0.0785X0.0003*%
%ADD515R,0.0783X0.0002*%
%ADD516R,0.0782X0.0003*%
%ADD517R,0.0822X0.0003*%
%ADD518R,0.0780X0.0002*%
%ADD519R,0.0783X0.0003*%
%ADD520R,0.0780X0.0003*%
%ADD521R,0.0777X0.0003*%
%ADD522R,0.0777X0.0002*%
%ADD523R,0.0775X0.0003*%
%ADD524R,0.0818X0.0003*%
%ADD525R,0.0772X0.0002*%
%ADD526R,0.0773X0.0003*%
%ADD527R,0.0770X0.0002*%
%ADD528R,0.0770X0.0003*%
%ADD529R,0.0767X0.0002*%
%ADD530R,0.0812X0.0002*%
%ADD531R,0.0768X0.0003*%
%ADD532R,0.0807X0.0002*%
%ADD533R,0.0765X0.0003*%
%ADD534R,0.0765X0.0002*%
%ADD535R,0.0763X0.0002*%
%ADD536R,0.0762X0.0002*%
%ADD537R,0.0760X0.0003*%
%ADD538R,0.0760X0.0002*%
%ADD539R,0.0758X0.0003*%
%ADD540R,0.0755X0.0002*%
%ADD541R,0.0803X0.0002*%
%ADD542R,0.0755X0.0003*%
%ADD543R,0.0753X0.0002*%
%ADD544R,0.0752X0.0002*%
%ADD545R,0.0750X0.0003*%
%ADD546R,0.0750X0.0002*%
%ADD547R,0.0747X0.0003*%
%ADD548R,0.0748X0.0002*%
%ADD549R,0.0792X0.0002*%
%ADD550R,0.0745X0.0003*%
%ADD551R,0.0747X0.0002*%
%ADD552R,0.0793X0.0002*%
%ADD553R,0.0790X0.0003*%
%ADD554R,0.0745X0.0002*%
%ADD555R,0.0748X0.0003*%
%ADD556R,0.0752X0.0003*%
%ADD557R,0.0758X0.0002*%
%ADD558R,0.0782X0.0002*%
%ADD559R,0.0778X0.0003*%
%ADD560R,0.0775X0.0002*%
%ADD561R,0.0778X0.0002*%
%ADD562R,0.0787X0.0002*%
%ADD563R,0.0808X0.0003*%
%ADD564R,0.0810X0.0002*%
%ADD565R,0.0797X0.0002*%
%ADD566R,0.0828X0.0002*%
%ADD567R,0.0872X0.0002*%
%ADD568R,0.0872X0.0003*%
%ADD569R,0.0875X0.0002*%
%ADD570R,0.0880X0.0003*%
%ADD571R,0.0880X0.0002*%
%ADD572R,0.0883X0.0003*%
%ADD573R,0.0887X0.0002*%
%ADD574R,0.0887X0.0003*%
%ADD575R,0.0890X0.0002*%
%ADD576R,0.0873X0.0002*%
%ADD577R,0.0893X0.0003*%
%ADD578R,0.0875X0.0003*%
%ADD579R,0.0895X0.0002*%
%ADD580R,0.0877X0.0002*%
%ADD581R,0.0895X0.0003*%
%ADD582R,0.0898X0.0002*%
%ADD583R,0.0898X0.0003*%
%ADD584R,0.0900X0.0002*%
%ADD585R,0.0883X0.0002*%
%ADD586R,0.0902X0.0003*%
%ADD587R,0.0885X0.0003*%
%ADD588R,0.0902X0.0002*%
%ADD589R,0.0885X0.0002*%
%ADD590R,0.0905X0.0003*%
%ADD591R,0.0905X0.0002*%
%ADD592R,0.0907X0.0003*%
%ADD593R,0.0890X0.0003*%
%ADD594R,0.0910X0.0002*%
%ADD595R,0.0893X0.0002*%
%ADD596R,0.0913X0.0003*%
%ADD597R,0.0913X0.0002*%
%ADD598R,0.0897X0.0002*%
%ADD599R,0.0917X0.0003*%
%ADD600R,0.0900X0.0003*%
%ADD601R,0.0917X0.0002*%
%ADD602R,0.0903X0.0002*%
%ADD603R,0.0920X0.0003*%
%ADD604R,0.0920X0.0002*%
%ADD605R,0.0907X0.0002*%
%ADD606R,0.0923X0.0003*%
%ADD607R,0.0923X0.0002*%
%ADD608R,0.0925X0.0003*%
%ADD609R,0.0925X0.0002*%
%ADD610R,0.0922X0.0003*%
%ADD611R,0.0915X0.0002*%
%ADD612R,0.0912X0.0003*%
%ADD613R,0.0892X0.0002*%
%ADD614R,0.0878X0.0002*%
%ADD615R,0.0877X0.0003*%
%ADD616R,0.0843X0.0002*%
%ADD617R,0.0810X0.0003*%
%ADD618R,0.0793X0.0003*%
%ADD619R,0.0773X0.0002*%
%ADD620R,0.0935X0.0002*%
%ADD621R,0.0950X0.0003*%
%ADD622R,0.0960X0.0002*%
%ADD623R,0.0967X0.0003*%
%ADD624R,0.0975X0.0002*%
%ADD625R,0.0983X0.0003*%
%ADD626R,0.1000X0.0002*%
%ADD627R,0.1022X0.0003*%
%ADD628R,0.1037X0.0002*%
%ADD629R,0.1050X0.0003*%
%ADD630R,0.0878X0.0003*%
%ADD631R,0.1055X0.0002*%
%ADD632R,0.1063X0.0003*%
%ADD633R,0.0892X0.0003*%
%ADD634R,0.1075X0.0002*%
%ADD635R,0.1095X0.0003*%
%ADD636R,0.0928X0.0003*%
%ADD637R,0.1115X0.0002*%
%ADD638R,0.0950X0.0002*%
%ADD639R,0.1122X0.0003*%
%ADD640R,0.0965X0.0003*%
%ADD641R,0.1128X0.0002*%
%ADD642R,0.1130X0.0003*%
%ADD643R,0.0982X0.0003*%
%ADD644R,0.1132X0.0002*%
%ADD645R,0.0992X0.0002*%
%ADD646R,0.1135X0.0003*%
%ADD647R,0.1010X0.0003*%
%ADD648R,0.1135X0.0002*%
%ADD649R,0.1033X0.0002*%
%ADD650R,0.1138X0.0003*%
%ADD651R,0.1055X0.0003*%
%ADD652R,0.1140X0.0002*%
%ADD653R,0.1065X0.0002*%
%ADD654R,0.1140X0.0003*%
%ADD655R,0.1075X0.0003*%
%ADD656R,0.1083X0.0002*%
%ADD657R,0.1092X0.0003*%
%ADD658R,0.1137X0.0002*%
%ADD659R,0.1108X0.0002*%
%ADD660R,0.1137X0.0003*%
%ADD661R,0.1118X0.0003*%
%ADD662R,0.1138X0.0002*%
%ADD663R,0.1117X0.0002*%
%ADD664R,0.1120X0.0003*%
%ADD665R,0.1122X0.0002*%
%ADD666R,0.1123X0.0003*%
%ADD667R,0.1133X0.0002*%
%ADD668R,0.1125X0.0002*%
%ADD669R,0.1133X0.0003*%
%ADD670R,0.1128X0.0003*%
%ADD671R,0.1130X0.0002*%
%ADD672R,0.1125X0.0003*%
%ADD673R,0.1123X0.0002*%
%ADD674R,0.1127X0.0003*%
%ADD675R,0.1120X0.0002*%
%ADD676R,0.1118X0.0002*%
%ADD677R,0.1117X0.0003*%
%ADD678R,0.1115X0.0003*%
%ADD679R,0.1112X0.0003*%
%ADD680R,0.1112X0.0002*%
%ADD681R,0.1110X0.0002*%
%ADD682R,0.1110X0.0003*%
%ADD683R,0.1107X0.0002*%
%ADD684R,0.1107X0.0003*%
%ADD685R,0.1105X0.0003*%
%ADD686R,0.1105X0.0002*%
%ADD687R,0.1108X0.0003*%
%ADD688R,0.1113X0.0003*%
%ADD689R,0.1113X0.0002*%
%ADD690R,0.1127X0.0002*%
%ADD691R,0.1132X0.0003*%
%ADD692R,0.1143X0.0003*%
%ADD693R,0.1143X0.0002*%
%ADD694R,0.1145X0.0003*%
%ADD695R,0.1148X0.0002*%
%ADD696R,0.1088X0.0003*%
%ADD697R,0.1067X0.0002*%
%ADD698R,0.1147X0.0002*%
%ADD699R,0.1042X0.0003*%
%ADD700R,0.1147X0.0003*%
%ADD701R,0.1027X0.0002*%
%ADD702R,0.1145X0.0002*%
%ADD703R,0.1020X0.0003*%
%ADD704R,0.1148X0.0003*%
%ADD705R,0.1010X0.0002*%
%ADD706R,0.1002X0.0003*%
%ADD707R,0.0985X0.0002*%
%ADD708R,0.0960X0.0003*%
%ADD709R,0.1142X0.0003*%
%ADD710R,0.0945X0.0002*%
%ADD711R,0.0932X0.0003*%
%ADD712R,0.0918X0.0003*%
%ADD713R,0.1097X0.0003*%
%ADD714R,0.1065X0.0003*%
%ADD715R,0.1042X0.0002*%
%ADD716R,0.1033X0.0003*%
%ADD717R,0.1012X0.0002*%
%ADD718R,0.0992X0.0003*%
%ADD719R,0.0983X0.0002*%
%ADD720R,0.0975X0.0003*%
%ADD721R,0.0970X0.0002*%
%ADD722R,0.0962X0.0003*%
%ADD723R,0.0948X0.0002*%
%ADD724R,0.0927X0.0003*%
%ADD725R,0.0903X0.0003*%
%ADD726R,0.0862X0.0003*%
%ADD727R,0.0882X0.0003*%
%ADD728R,0.0888X0.0003*%
%ADD729R,0.0897X0.0003*%
%ADD730R,0.0912X0.0002*%
%ADD731R,0.0933X0.0003*%
%ADD732R,0.0940X0.0002*%
%ADD733R,0.0945X0.0003*%
%ADD734R,0.0947X0.0003*%
%ADD735R,0.0952X0.0002*%
%ADD736R,0.0952X0.0003*%
%ADD737R,0.0955X0.0003*%
%ADD738R,0.0957X0.0002*%
%ADD739R,0.0970X0.0003*%
%ADD740R,0.1018X0.0003*%
%ADD741R,0.1030X0.0003*%
%ADD742R,0.1035X0.0002*%
%ADD743R,0.1050X0.0002*%
%ADD744R,0.2115X0.0003*%
%ADD745R,0.2113X0.0002*%
%ADD746R,0.2110X0.0003*%
%ADD747R,0.2110X0.0002*%
%ADD748R,0.2107X0.0003*%
%ADD749R,0.2103X0.0002*%
%ADD750R,0.2100X0.0003*%
%ADD751R,0.2097X0.0002*%
%ADD752R,0.2093X0.0003*%
%ADD753R,0.2093X0.0002*%
%ADD754R,0.2090X0.0003*%
%ADD755R,0.2087X0.0002*%
%ADD756R,0.2085X0.0003*%
%ADD757R,0.2085X0.0002*%
%ADD758R,0.2080X0.0002*%
%ADD759R,0.2080X0.0003*%
%ADD760R,0.2075X0.0003*%
%ADD761R,0.2073X0.0002*%
%ADD762R,0.2070X0.0003*%
%ADD763R,0.2065X0.0002*%
%ADD764R,0.2063X0.0003*%
%ADD765R,0.2060X0.0002*%
%ADD766R,0.2055X0.0003*%
%ADD767R,0.2055X0.0002*%
%ADD768R,0.2050X0.0003*%
%ADD769R,0.2050X0.0002*%
%ADD770R,0.2047X0.0002*%
%ADD771R,0.2045X0.0003*%
%ADD772R,0.2043X0.0002*%
%ADD773R,0.2040X0.0003*%
%ADD774R,0.2037X0.0002*%
%ADD775R,0.2033X0.0003*%
%ADD776R,0.2033X0.0002*%
%ADD777R,0.2027X0.0003*%
%ADD778R,0.2025X0.0002*%
%ADD779R,0.2023X0.0003*%
%ADD780R,0.2020X0.0002*%
%ADD781R,0.2020X0.0003*%
%ADD782R,0.2015X0.0002*%
%ADD783R,0.2015X0.0003*%
%ADD784R,0.2013X0.0002*%
%ADD785R,0.2010X0.0003*%
%ADD786R,0.2007X0.0002*%
%ADD787R,0.2003X0.0003*%
%ADD788R,0.2000X0.0002*%
%ADD789R,0.1997X0.0003*%
%ADD790R,0.1993X0.0002*%
%ADD791R,0.1990X0.0003*%
%ADD792R,0.1987X0.0002*%
%ADD793R,0.1985X0.0003*%
%ADD794R,0.1985X0.0002*%
%ADD795R,0.1980X0.0003*%
%ADD796R,0.1980X0.0002*%
%ADD797R,0.1975X0.0003*%
%ADD798R,0.1973X0.0002*%
%ADD799R,0.1967X0.0003*%
%ADD800R,0.1963X0.0002*%
%ADD801R,0.1960X0.0003*%
%ADD802R,0.1957X0.0002*%
%ADD803R,0.1955X0.0003*%
%ADD804R,0.1950X0.0002*%
%ADD805R,0.1950X0.0003*%
%ADD806R,0.1947X0.0002*%
%ADD807R,0.1947X0.0003*%
%ADD808R,0.1943X0.0002*%
%ADD809R,0.1943X0.0003*%
%ADD810R,0.1940X0.0002*%
%ADD811R,0.1940X0.0003*%
%ADD812R,0.1937X0.0003*%
%ADD813R,0.1937X0.0002*%
%ADD814R,0.1945X0.0003*%
%ADD815R,0.1953X0.0002*%
%ADD816R,0.1957X0.0003*%
%ADD817R,0.1960X0.0002*%
%ADD818R,0.1965X0.0003*%
%ADD819R,0.1965X0.0002*%
%ADD820R,0.1970X0.0003*%
%ADD821R,0.1970X0.0002*%
%ADD822R,0.1983X0.0003*%
%ADD823R,0.1993X0.0003*%
%ADD824R,0.1995X0.0002*%
%ADD825R,0.2007X0.0003*%
%ADD826R,0.2017X0.0003*%
%ADD827R,0.2023X0.0002*%
%ADD828R,0.2030X0.0002*%
%ADD829R,0.2035X0.0002*%
%ADD830R,0.2037X0.0003*%
%ADD831R,0.2047X0.0003*%
%ADD832R,0.2067X0.0003*%
%ADD833R,0.2095X0.0002*%
%ADD834R,0.2097X0.0003*%
%ADD835R,0.2100X0.0002*%
%ADD836R,0.2103X0.0003*%
%ADD837R,0.2105X0.0002*%
%ADD838R,0.2112X0.0002*%
%ADD839R,0.2118X0.0003*%
%ADD840R,0.2122X0.0002*%
%ADD841R,0.2125X0.0003*%
%ADD842R,0.2130X0.0002*%
%ADD843R,0.2133X0.0003*%
%ADD844R,0.2135X0.0002*%
%ADD845R,0.2140X0.0003*%
%ADD846R,0.2142X0.0002*%
%ADD847R,0.2148X0.0003*%
%ADD848R,0.2150X0.0002*%
%ADD849R,0.2152X0.0003*%
%ADD850R,0.2158X0.0002*%
%ADD851R,0.2160X0.0003*%
%ADD852R,0.2165X0.0002*%
%ADD853R,0.2168X0.0003*%
%ADD854R,0.2170X0.0002*%
%ADD855R,0.2172X0.0003*%
%ADD856R,0.2178X0.0002*%
%ADD857R,0.2180X0.0003*%
%ADD858R,0.2185X0.0002*%
%ADD859R,0.2188X0.0003*%
%ADD860R,0.2192X0.0002*%
%ADD861R,0.2195X0.0003*%
%ADD862R,0.2200X0.0002*%
%ADD863R,0.2200X0.0003*%
%ADD864R,0.2205X0.0002*%
%ADD865R,0.2210X0.0003*%
%ADD866R,0.2215X0.0002*%
%ADD867R,0.2215X0.0003*%
%ADD868R,0.2220X0.0002*%
%ADD869R,0.2225X0.0003*%
%ADD870R,0.2228X0.0002*%
%ADD871R,0.2232X0.0003*%
%ADD872R,0.2232X0.0002*%
%ADD873R,0.2238X0.0003*%
%ADD874R,0.2242X0.0002*%
%ADD875R,0.2245X0.0003*%
%ADD876R,0.2250X0.0002*%
%ADD877R,0.2250X0.0003*%
%ADD878R,0.2255X0.0002*%
%ADD879R,0.2260X0.0003*%
%ADD880R,0.2262X0.0002*%
%ADD881R,0.2268X0.0003*%
%ADD882R,0.2268X0.0002*%
%ADD883R,0.2272X0.0003*%
%ADD884R,0.2275X0.0002*%
%ADD885R,0.2280X0.0003*%
%ADD886R,0.2283X0.0002*%
%ADD887R,0.2287X0.0003*%
%ADD888R,0.2290X0.0002*%
%ADD889R,0.2295X0.0003*%
%ADD890R,0.2298X0.0002*%
%ADD891R,0.2300X0.0003*%
%ADD892R,0.2305X0.0002*%
%ADD893R,0.2310X0.0003*%
%ADD894R,0.2313X0.0002*%
%ADD895R,0.2317X0.0003*%
%ADD896R,0.2317X0.0002*%
%ADD897R,0.2323X0.0003*%
%ADD898R,0.2325X0.0002*%
%ADD899R,0.2330X0.0003*%
%ADD900R,0.2335X0.0002*%
%ADD901R,0.2337X0.0003*%
%ADD902R,0.2343X0.0002*%
%ADD903R,0.2345X0.0003*%
%ADD904R,0.2347X0.0002*%
%ADD905R,0.2353X0.0003*%
%ADD906R,0.2353X0.0002*%
%ADD907R,0.2357X0.0003*%
%ADD908R,0.2360X0.0002*%
%ADD909R,0.2365X0.0003*%
%ADD910R,0.2367X0.0002*%
%ADD911R,0.2370X0.0003*%
%ADD912R,0.2373X0.0002*%
%ADD913R,0.2377X0.0003*%
%ADD914R,0.2380X0.0002*%
%ADD915R,0.2380X0.0003*%
%ADD916R,0.2382X0.0002*%
%ADD917R,0.2382X0.0003*%
%ADD918R,0.2378X0.0003*%
%ADD919R,0.2375X0.0002*%
%ADD920R,0.2368X0.0002*%
%ADD921R,0.2362X0.0003*%
%ADD922R,0.2355X0.0003*%
%ADD923R,0.2350X0.0002*%
%ADD924R,0.2348X0.0003*%
%ADD925R,0.2342X0.0002*%
%ADD926R,0.2340X0.0003*%
%ADD927R,0.0577X0.0003*%
%ADD928R,0.1740X0.0003*%
%ADD929R,0.0570X0.0002*%
%ADD930R,0.1732X0.0002*%
%ADD931R,0.0562X0.0003*%
%ADD932R,0.1723X0.0003*%
%ADD933R,0.0595X0.0002*%
%ADD934R,0.1100X0.0003*%
%ADD935R,0.0587X0.0003*%
%ADD936R,0.0545X0.0002*%
%ADD937R,0.1095X0.0002*%
%ADD938R,0.0583X0.0002*%
%ADD939R,0.0543X0.0003*%
%ADD940R,0.1087X0.0003*%
%ADD941R,0.0535X0.0002*%
%ADD942R,0.1080X0.0002*%
%ADD943R,0.0573X0.0002*%
%ADD944R,0.1067X0.0003*%
%ADD945R,0.0565X0.0003*%
%ADD946R,0.0520X0.0002*%
%ADD947R,0.1053X0.0002*%
%ADD948R,0.0558X0.0002*%
%ADD949R,0.1043X0.0003*%
%ADD950R,0.0512X0.0002*%
%ADD951R,0.0508X0.0003*%
%ADD952R,0.0545X0.0003*%
%ADD953R,0.0502X0.0002*%
%ADD954R,0.1023X0.0002*%
%ADD955R,0.0537X0.0002*%
%ADD956R,0.0495X0.0003*%
%ADD957R,0.1013X0.0003*%
%ADD958R,0.0533X0.0003*%
%ADD959R,0.0487X0.0002*%
%ADD960R,0.0997X0.0002*%
%ADD961R,0.0475X0.0002*%
%ADD962R,0.0973X0.0002*%
%ADD963R,0.0470X0.0003*%
%ADD964R,0.0505X0.0003*%
%ADD965R,0.0468X0.0002*%
%ADD966R,0.0500X0.0002*%
%ADD967R,0.0953X0.0003*%
%ADD968R,0.0455X0.0002*%
%ADD969R,0.0937X0.0002*%
%ADD970R,0.0440X0.0002*%
%ADD971R,0.0472X0.0002*%
%ADD972R,0.0437X0.0003*%
%ADD973R,0.0468X0.0003*%
%ADD974R,0.0433X0.0002*%
%ADD975R,0.0462X0.0002*%
%ADD976R,0.0427X0.0003*%
%ADD977R,0.0460X0.0003*%
%ADD978R,0.0420X0.0002*%
%ADD979R,0.0412X0.0003*%
%ADD980R,0.0447X0.0003*%
%ADD981R,0.0408X0.0002*%
%ADD982R,0.0400X0.0003*%
%ADD983R,0.0395X0.0002*%
%ADD984R,0.0813X0.0002*%
%ADD985R,0.0428X0.0002*%
%ADD986R,0.0390X0.0003*%
%ADD987R,0.0422X0.0003*%
%ADD988R,0.0387X0.0002*%
%ADD989R,0.0418X0.0002*%
%ADD990R,0.0365X0.0003*%
%ADD991R,0.0740X0.0003*%
%ADD992R,0.0395X0.0003*%
%ADD993R,0.0358X0.0002*%
%ADD994R,0.0727X0.0002*%
%ADD995R,0.0355X0.0003*%
%ADD996R,0.0720X0.0003*%
%ADD997R,0.0385X0.0003*%
%ADD998R,0.0350X0.0002*%
%ADD999R,0.0710X0.0002*%
%ADD1000R,0.0380X0.0002*%
%ADD1001R,0.0700X0.0003*%
%ADD1002R,0.0378X0.0003*%
%ADD1003R,0.0683X0.0002*%
%ADD1004R,0.0370X0.0002*%
%ADD1005R,0.0333X0.0003*%
%ADD1006R,0.0652X0.0003*%
%ADD1007R,0.0363X0.0003*%
%ADD1008R,0.0323X0.0002*%
%ADD1009R,0.0628X0.0002*%
%ADD1010R,0.0317X0.0003*%
%ADD1011R,0.0612X0.0003*%
%ADD1012R,0.0347X0.0003*%
%ADD1013R,0.0602X0.0002*%
%ADD1014R,0.0343X0.0002*%
%ADD1015R,0.0592X0.0003*%
%ADD1016R,0.0340X0.0003*%
%ADD1017R,0.0575X0.0002*%
%ADD1018R,0.0335X0.0002*%
%ADD1019R,0.0328X0.0003*%
%ADD1020R,0.0288X0.0002*%
%ADD1021R,0.0553X0.0002*%
%ADD1022R,0.0280X0.0003*%
%ADD1023R,0.0547X0.0003*%
%ADD1024R,0.0295X0.0002*%
%ADD1025R,0.0540X0.0003*%
%ADD1026R,0.0290X0.0003*%
%ADD1027R,0.0277X0.0002*%
%ADD1028R,0.0273X0.0003*%
%ADD1029R,0.0538X0.0002*%
%ADD1030R,0.0538X0.0003*%
%ADD1031R,0.0532X0.0003*%
%ADD1032R,0.0532X0.0002*%
%ADD1033R,0.0528X0.0003*%
%ADD1034R,0.0528X0.0002*%
%ADD1035R,0.0525X0.0003*%
%ADD1036R,0.0525X0.0002*%
%ADD1037R,0.0133X0.0003*%
%ADD1038R,0.0523X0.0003*%
%ADD1039R,0.0517X0.0003*%
%ADD1040R,0.0517X0.0002*%
%ADD1041R,0.0515X0.0002*%
%ADD1042R,0.0513X0.0002*%
%ADD1043R,0.0513X0.0003*%
%ADD1044R,0.0510X0.0002*%
%ADD1045R,0.0507X0.0003*%
%ADD1046R,0.0507X0.0002*%
%ADD1047R,0.0505X0.0002*%
%ADD1048R,0.0497X0.0003*%
%ADD1049R,0.0493X0.0003*%
%ADD1050R,0.0493X0.0002*%
%ADD1051R,0.0490X0.0002*%
%ADD1052R,0.0485X0.0003*%
%ADD1053R,0.0485X0.0002*%
%ADD1054R,0.0480X0.0002*%
%ADD1055R,0.0477X0.0002*%
%ADD1056R,0.0477X0.0003*%
%ADD1057R,0.0475X0.0003*%
%ADD1058R,0.0473X0.0003*%
%ADD1059R,0.0473X0.0002*%
%ADD1060R,0.0467X0.0003*%
%ADD1061R,0.0467X0.0002*%
%ADD1062R,0.0465X0.0003*%
%ADD1063R,0.0463X0.0003*%
%ADD1064R,0.0460X0.0002*%
%ADD1065R,0.0455X0.0003*%
%ADD1066R,0.0452X0.0002*%
%ADD1067R,0.0450X0.0003*%
%ADD1068R,0.0448X0.0003*%
%ADD1069R,0.0448X0.0002*%
%ADD1070R,0.0445X0.0002*%
%ADD1071R,0.0442X0.0003*%
%ADD1072R,0.0438X0.0002*%
%ADD1073R,0.0435X0.0002*%
%ADD1074R,0.0432X0.0003*%
%ADD1075R,0.0432X0.0002*%
%ADD1076R,0.0428X0.0003*%
%ADD1077R,0.0425X0.0002*%
%ADD1078R,0.0412X0.0002*%
%ADD1079R,0.0388X0.0003*%
%ADD1080R,0.0373X0.0003*%
%ADD1081R,0.0363X0.0002*%
%ADD1082R,0.0350X0.0003*%
%ADD1083R,0.0322X0.0002*%
D10*
X001887Y000180D02*
X001887Y014176D01*
X033257Y014176D01*
X033257Y000180D01*
X001887Y000180D01*
X002387Y001180D02*
X002389Y001224D01*
X002395Y001268D01*
X002405Y001311D01*
X002418Y001353D01*
X002435Y001394D01*
X002456Y001433D01*
X002480Y001470D01*
X002507Y001505D01*
X002537Y001537D01*
X002570Y001567D01*
X002606Y001593D01*
X002643Y001617D01*
X002683Y001636D01*
X002724Y001653D01*
X002767Y001665D01*
X002810Y001674D01*
X002854Y001679D01*
X002898Y001680D01*
X002942Y001677D01*
X002986Y001670D01*
X003029Y001659D01*
X003071Y001645D01*
X003111Y001627D01*
X003150Y001605D01*
X003186Y001581D01*
X003220Y001553D01*
X003252Y001522D01*
X003281Y001488D01*
X003307Y001452D01*
X003329Y001414D01*
X003348Y001374D01*
X003363Y001332D01*
X003375Y001290D01*
X003383Y001246D01*
X003387Y001202D01*
X003387Y001158D01*
X003383Y001114D01*
X003375Y001070D01*
X003363Y001028D01*
X003348Y000986D01*
X003329Y000946D01*
X003307Y000908D01*
X003281Y000872D01*
X003252Y000838D01*
X003220Y000807D01*
X003186Y000779D01*
X003150Y000755D01*
X003111Y000733D01*
X003071Y000715D01*
X003029Y000701D01*
X002986Y000690D01*
X002942Y000683D01*
X002898Y000680D01*
X002854Y000681D01*
X002810Y000686D01*
X002767Y000695D01*
X002724Y000707D01*
X002683Y000724D01*
X002643Y000743D01*
X002606Y000767D01*
X002570Y000793D01*
X002537Y000823D01*
X002507Y000855D01*
X002480Y000890D01*
X002456Y000927D01*
X002435Y000966D01*
X002418Y001007D01*
X002405Y001049D01*
X002395Y001092D01*
X002389Y001136D01*
X002387Y001180D01*
X020887Y003167D02*
X020890Y003172D01*
X020891Y003172D02*
X020891Y003168D01*
X020892Y003167D01*
X020894Y003167D01*
X020895Y003168D01*
X020895Y003172D01*
X020897Y003171D02*
X020899Y003171D01*
X020901Y003170D02*
X020901Y003171D01*
X020903Y003171D01*
X020904Y003170D01*
X020904Y003169D01*
X020901Y003169D01*
X020901Y003168D02*
X020901Y003170D01*
X020901Y003168D02*
X020901Y003167D01*
X020903Y003167D01*
X020905Y003167D02*
X020905Y003171D01*
X020907Y003171D02*
X020908Y003171D01*
X020907Y003171D02*
X020905Y003169D01*
X020909Y003170D02*
X020910Y003171D01*
X020912Y003171D01*
X020911Y003169D02*
X020910Y003169D01*
X020909Y003170D01*
X020911Y003169D02*
X020912Y003168D01*
X020911Y003167D01*
X020909Y003167D01*
X020913Y003167D02*
X020917Y003172D01*
X020919Y003171D02*
X020918Y003170D01*
X020918Y003168D01*
X020919Y003167D01*
X020921Y003167D01*
X020921Y003171D01*
X020919Y003171D01*
X020923Y003170D02*
X020923Y003171D01*
X020925Y003171D01*
X020926Y003170D01*
X020926Y003169D01*
X020923Y003169D01*
X020923Y003168D02*
X020923Y003170D01*
X020923Y003168D02*
X020923Y003167D01*
X020925Y003167D01*
X020927Y003168D02*
X020928Y003167D01*
X020930Y003167D01*
X020930Y003168D01*
X020930Y003170D01*
X020930Y003171D01*
X020928Y003171D01*
X020927Y003170D01*
X020927Y003168D01*
X020932Y003167D02*
X020932Y003171D01*
X020933Y003171D02*
X020934Y003171D01*
X020933Y003171D02*
X020932Y003169D01*
X020936Y003168D02*
X020936Y003167D01*
X020939Y003167D01*
X020939Y003171D01*
X020936Y003171D01*
X020936Y003170D01*
X020936Y003168D01*
X020937Y003166D02*
X020938Y003166D01*
X020939Y003167D01*
X020940Y003168D02*
X020940Y003170D01*
X020941Y003171D01*
X020943Y003171D01*
X020943Y003170D01*
X020943Y003169D01*
X020940Y003169D01*
X020940Y003168D02*
X020941Y003167D01*
X020943Y003167D01*
X020945Y003167D02*
X020945Y003172D01*
X020945Y003171D02*
X020947Y003171D01*
X020948Y003170D01*
X020948Y003167D01*
X020949Y003168D02*
X020950Y003169D01*
X020953Y003169D01*
X020954Y003168D02*
X020954Y003170D01*
X020955Y003171D01*
X020957Y003171D01*
X020957Y003172D02*
X020957Y003167D01*
X020955Y003167D01*
X020954Y003168D01*
X020953Y003167D02*
X020950Y003167D01*
X020949Y003168D01*
X020950Y003171D02*
X020952Y003171D01*
X020953Y003170D01*
X020953Y003167D01*
X020958Y003167D02*
X020960Y003167D01*
X020959Y003167D02*
X020959Y003172D01*
X020958Y003172D01*
X020961Y003170D02*
X020962Y003171D01*
X020964Y003171D01*
X020965Y003170D01*
X020965Y003169D01*
X020961Y003169D01*
X020961Y003168D02*
X020961Y003170D01*
X020961Y003168D02*
X020962Y003167D01*
X020964Y003167D01*
X020966Y003168D02*
X020967Y003167D01*
X020969Y003167D01*
X020968Y003166D01*
X020968Y003166D01*
X020969Y003167D02*
X020969Y003171D01*
X020966Y003171D02*
X020966Y003168D01*
X020971Y003167D02*
X020974Y003172D01*
X020975Y003172D02*
X020978Y003172D01*
X020978Y003172D01*
X020978Y003168D01*
X020978Y003167D01*
X020975Y003167D01*
X020975Y003172D01*
X020980Y003170D02*
X020980Y003168D01*
X020980Y003167D01*
X020982Y003167D01*
X020983Y003168D01*
X020983Y003170D01*
X020982Y003171D01*
X020980Y003171D01*
X020980Y003170D01*
X020984Y003170D02*
X020984Y003168D01*
X020985Y003167D01*
X020988Y003167D01*
X020989Y003168D02*
X020990Y003167D01*
X020992Y003167D01*
X020992Y003171D01*
X020993Y003171D02*
X020994Y003171D01*
X020995Y003170D01*
X020996Y003171D01*
X020997Y003170D01*
X020997Y003167D01*
X020998Y003168D02*
X020998Y003170D01*
X020999Y003171D01*
X021000Y003171D01*
X021001Y003170D01*
X021001Y003169D01*
X020998Y003169D01*
X020998Y003168D02*
X020999Y003167D01*
X021000Y003167D01*
X021003Y003167D02*
X021003Y003171D01*
X021005Y003171D01*
X021006Y003170D01*
X021006Y003167D01*
X021008Y003168D02*
X021009Y003167D01*
X021010Y003167D02*
X021013Y003167D01*
X021013Y003168D01*
X021013Y003169D01*
X021011Y003169D01*
X021010Y003170D01*
X021011Y003171D01*
X021013Y003171D01*
X021015Y003167D02*
X021018Y003172D01*
X021019Y003172D02*
X021023Y003167D01*
X021023Y003172D01*
X021024Y003172D02*
X021026Y003172D01*
X021027Y003172D01*
X021027Y003171D01*
X021026Y003170D01*
X021024Y003170D01*
X021026Y003170D02*
X021027Y003169D01*
X021027Y003168D01*
X021026Y003167D01*
X021024Y003167D01*
X021024Y003172D01*
X021028Y003171D02*
X021029Y003171D01*
X021029Y003167D01*
X021028Y003167D02*
X021030Y003167D01*
X021032Y003168D02*
X021033Y003167D01*
X021032Y003168D02*
X021032Y003172D01*
X021031Y003171D02*
X021033Y003171D01*
X021034Y003172D02*
X021034Y003167D01*
X021036Y003169D01*
X021038Y003167D01*
X021038Y003172D01*
X021040Y003171D02*
X021039Y003170D01*
X021039Y003168D01*
X021040Y003167D01*
X021042Y003167D01*
X021042Y003168D01*
X021042Y003170D01*
X021042Y003171D01*
X021040Y003171D01*
X021044Y003171D02*
X021046Y003171D01*
X021047Y003170D01*
X021047Y003167D01*
X021048Y003168D02*
X021048Y003170D01*
X021049Y003171D01*
X021051Y003171D01*
X021051Y003172D02*
X021051Y003167D01*
X021049Y003167D01*
X021048Y003168D01*
X021044Y003167D02*
X021044Y003171D01*
X021053Y003170D02*
X021054Y003171D01*
X021055Y003171D01*
X021056Y003170D01*
X021056Y003169D01*
X021053Y003169D01*
X021053Y003168D02*
X021053Y003170D01*
X021053Y003168D02*
X021054Y003167D01*
X021055Y003167D01*
X021057Y003167D02*
X021057Y003171D01*
X021057Y003169D02*
X021059Y003171D01*
X021060Y003171D01*
X021061Y003167D02*
X021064Y003172D01*
X021066Y003172D02*
X021067Y003171D01*
X021069Y003172D01*
X021069Y003167D01*
X021070Y003168D02*
X021070Y003170D01*
X021071Y003171D01*
X021073Y003171D01*
X021074Y003170D01*
X021074Y003169D01*
X021070Y003169D01*
X021070Y003168D02*
X021071Y003167D01*
X021073Y003167D01*
X021075Y003168D02*
X021075Y003170D01*
X021076Y003171D01*
X021078Y003171D01*
X021079Y003171D02*
X021080Y003171D01*
X021080Y003167D01*
X021079Y003167D02*
X021081Y003167D01*
X021082Y003168D02*
X021083Y003169D01*
X021086Y003169D01*
X021086Y003170D02*
X021086Y003167D01*
X021083Y003167D01*
X021082Y003168D01*
X021083Y003171D02*
X021085Y003171D01*
X021086Y003170D01*
X021087Y003167D02*
X021090Y003172D01*
X021092Y003172D02*
X021092Y003167D01*
X021095Y003167D01*
X021096Y003168D02*
X021097Y003169D01*
X021099Y003169D01*
X021099Y003170D02*
X021099Y003167D01*
X021097Y003167D01*
X021096Y003168D01*
X021097Y003171D02*
X021099Y003171D01*
X021099Y003170D01*
X021101Y003170D02*
X021101Y003168D01*
X021102Y003167D01*
X021104Y003167D01*
X021104Y003171D01*
X021102Y003171D01*
X021101Y003170D01*
X021102Y003166D02*
X021103Y003166D01*
X021104Y003167D01*
X021105Y003167D02*
X021107Y003167D01*
X021106Y003167D02*
X021106Y003172D01*
X021105Y003172D01*
X021108Y003170D02*
X021109Y003171D01*
X021111Y003171D01*
X021112Y003170D01*
X021112Y003169D01*
X021108Y003169D01*
X021108Y003168D02*
X021108Y003170D01*
X021108Y003168D02*
X021109Y003167D01*
X021111Y003167D01*
X021113Y003167D02*
X021116Y003172D01*
X021117Y003172D02*
X021117Y003168D01*
X021118Y003167D01*
X021120Y003167D01*
X021121Y003168D01*
X021121Y003172D01*
X021120Y003172D01*
X021118Y003172D01*
X021117Y003172D01*
X021122Y003172D02*
X021122Y003171D01*
X021123Y003170D01*
X021124Y003170D01*
X021125Y003169D01*
X021125Y003168D01*
X021124Y003167D01*
X021123Y003167D01*
X021122Y003168D01*
X021123Y003172D02*
X021122Y003172D01*
X021123Y003172D02*
X021124Y003172D01*
X021125Y003172D01*
X021127Y003172D02*
X021127Y003167D01*
X021130Y003167D02*
X021130Y003172D01*
X021131Y003172D02*
X021131Y003167D01*
X021133Y003169D01*
X021134Y003167D01*
X021134Y003172D01*
X021136Y003172D02*
X021136Y003167D01*
X021139Y003167D01*
X021140Y003168D02*
X021141Y003167D01*
X021143Y003167D01*
X021144Y003168D01*
X021144Y003170D01*
X021143Y003171D01*
X021141Y003171D01*
X021140Y003170D01*
X021140Y003168D01*
X021145Y003168D02*
X021146Y003167D01*
X021148Y003167D01*
X021148Y003171D01*
X021146Y003171D01*
X021145Y003170D01*
X021145Y003168D01*
X021146Y003166D02*
X021147Y003166D01*
X021148Y003167D01*
X021149Y003168D02*
X021150Y003167D01*
X021152Y003167D01*
X021153Y003168D01*
X021153Y003170D01*
X021152Y003171D01*
X021150Y003171D01*
X021149Y003170D01*
X021149Y003168D01*
X021154Y003168D02*
X021155Y003168D01*
X021155Y003167D01*
X021154Y003167D01*
X021154Y003168D01*
X021156Y003167D02*
X021159Y003167D01*
X021160Y003168D01*
X021160Y003170D01*
X021159Y003171D01*
X021156Y003171D01*
X021156Y003172D02*
X021156Y003167D01*
X021161Y003167D02*
X021161Y003171D01*
X021162Y003171D01*
X021162Y003170D01*
X021163Y003171D01*
X021164Y003170D01*
X021164Y003167D01*
X021165Y003167D02*
X021168Y003167D01*
X021169Y003168D01*
X021169Y003170D01*
X021168Y003171D01*
X021165Y003171D01*
X021165Y003166D01*
X021162Y003167D02*
X021162Y003170D01*
X021130Y003170D02*
X021127Y003170D01*
X021095Y003172D02*
X021092Y003172D01*
X021092Y003170D02*
X021093Y003170D01*
X021080Y003173D02*
X021080Y003172D01*
X021078Y003172D02*
X021078Y003167D01*
X021076Y003167D01*
X021075Y003168D01*
X021066Y003167D02*
X021066Y003172D01*
X021029Y003173D02*
X021029Y003172D01*
X021019Y003172D02*
X021019Y003167D01*
X021009Y003171D02*
X021007Y003171D01*
X021008Y003172D02*
X021008Y003168D01*
X020995Y003170D02*
X020995Y003167D01*
X020993Y003167D02*
X020993Y003171D01*
X020989Y003171D02*
X020989Y003168D01*
X020988Y003171D02*
X020985Y003171D01*
X020984Y003170D01*
X020945Y003170D02*
X020945Y003171D01*
X020921Y003167D02*
X020920Y003166D01*
X020920Y003166D01*
X020899Y003168D02*
X020898Y003169D01*
X020897Y003169D01*
X020896Y003170D01*
X020897Y003171D01*
X020899Y003168D02*
X020898Y003167D01*
X020896Y003167D01*
X031887Y001180D02*
X031889Y001224D01*
X031895Y001268D01*
X031905Y001311D01*
X031918Y001353D01*
X031935Y001394D01*
X031956Y001433D01*
X031980Y001470D01*
X032007Y001505D01*
X032037Y001537D01*
X032070Y001567D01*
X032106Y001593D01*
X032143Y001617D01*
X032183Y001636D01*
X032224Y001653D01*
X032267Y001665D01*
X032310Y001674D01*
X032354Y001679D01*
X032398Y001680D01*
X032442Y001677D01*
X032486Y001670D01*
X032529Y001659D01*
X032571Y001645D01*
X032611Y001627D01*
X032650Y001605D01*
X032686Y001581D01*
X032720Y001553D01*
X032752Y001522D01*
X032781Y001488D01*
X032807Y001452D01*
X032829Y001414D01*
X032848Y001374D01*
X032863Y001332D01*
X032875Y001290D01*
X032883Y001246D01*
X032887Y001202D01*
X032887Y001158D01*
X032883Y001114D01*
X032875Y001070D01*
X032863Y001028D01*
X032848Y000986D01*
X032829Y000946D01*
X032807Y000908D01*
X032781Y000872D01*
X032752Y000838D01*
X032720Y000807D01*
X032686Y000779D01*
X032650Y000755D01*
X032611Y000733D01*
X032571Y000715D01*
X032529Y000701D01*
X032486Y000690D01*
X032442Y000683D01*
X032398Y000680D01*
X032354Y000681D01*
X032310Y000686D01*
X032267Y000695D01*
X032224Y000707D01*
X032183Y000724D01*
X032143Y000743D01*
X032106Y000767D01*
X032070Y000793D01*
X032037Y000823D01*
X032007Y000855D01*
X031980Y000890D01*
X031956Y000927D01*
X031935Y000966D01*
X031918Y001007D01*
X031905Y001049D01*
X031895Y001092D01*
X031889Y001136D01*
X031887Y001180D01*
X031887Y013180D02*
X031889Y013224D01*
X031895Y013268D01*
X031905Y013311D01*
X031918Y013353D01*
X031935Y013394D01*
X031956Y013433D01*
X031980Y013470D01*
X032007Y013505D01*
X032037Y013537D01*
X032070Y013567D01*
X032106Y013593D01*
X032143Y013617D01*
X032183Y013636D01*
X032224Y013653D01*
X032267Y013665D01*
X032310Y013674D01*
X032354Y013679D01*
X032398Y013680D01*
X032442Y013677D01*
X032486Y013670D01*
X032529Y013659D01*
X032571Y013645D01*
X032611Y013627D01*
X032650Y013605D01*
X032686Y013581D01*
X032720Y013553D01*
X032752Y013522D01*
X032781Y013488D01*
X032807Y013452D01*
X032829Y013414D01*
X032848Y013374D01*
X032863Y013332D01*
X032875Y013290D01*
X032883Y013246D01*
X032887Y013202D01*
X032887Y013158D01*
X032883Y013114D01*
X032875Y013070D01*
X032863Y013028D01*
X032848Y012986D01*
X032829Y012946D01*
X032807Y012908D01*
X032781Y012872D01*
X032752Y012838D01*
X032720Y012807D01*
X032686Y012779D01*
X032650Y012755D01*
X032611Y012733D01*
X032571Y012715D01*
X032529Y012701D01*
X032486Y012690D01*
X032442Y012683D01*
X032398Y012680D01*
X032354Y012681D01*
X032310Y012686D01*
X032267Y012695D01*
X032224Y012707D01*
X032183Y012724D01*
X032143Y012743D01*
X032106Y012767D01*
X032070Y012793D01*
X032037Y012823D01*
X032007Y012855D01*
X031980Y012890D01*
X031956Y012927D01*
X031935Y012966D01*
X031918Y013007D01*
X031905Y013049D01*
X031895Y013092D01*
X031889Y013136D01*
X031887Y013180D01*
X002387Y013180D02*
X002389Y013224D01*
X002395Y013268D01*
X002405Y013311D01*
X002418Y013353D01*
X002435Y013394D01*
X002456Y013433D01*
X002480Y013470D01*
X002507Y013505D01*
X002537Y013537D01*
X002570Y013567D01*
X002606Y013593D01*
X002643Y013617D01*
X002683Y013636D01*
X002724Y013653D01*
X002767Y013665D01*
X002810Y013674D01*
X002854Y013679D01*
X002898Y013680D01*
X002942Y013677D01*
X002986Y013670D01*
X003029Y013659D01*
X003071Y013645D01*
X003111Y013627D01*
X003150Y013605D01*
X003186Y013581D01*
X003220Y013553D01*
X003252Y013522D01*
X003281Y013488D01*
X003307Y013452D01*
X003329Y013414D01*
X003348Y013374D01*
X003363Y013332D01*
X003375Y013290D01*
X003383Y013246D01*
X003387Y013202D01*
X003387Y013158D01*
X003383Y013114D01*
X003375Y013070D01*
X003363Y013028D01*
X003348Y012986D01*
X003329Y012946D01*
X003307Y012908D01*
X003281Y012872D01*
X003252Y012838D01*
X003220Y012807D01*
X003186Y012779D01*
X003150Y012755D01*
X003111Y012733D01*
X003071Y012715D01*
X003029Y012701D01*
X002986Y012690D01*
X002942Y012683D01*
X002898Y012680D01*
X002854Y012681D01*
X002810Y012686D01*
X002767Y012695D01*
X002724Y012707D01*
X002683Y012724D01*
X002643Y012743D01*
X002606Y012767D01*
X002570Y012793D01*
X002537Y012823D01*
X002507Y012855D01*
X002480Y012890D01*
X002456Y012927D01*
X002435Y012966D01*
X002418Y013007D01*
X002405Y013049D01*
X002395Y013092D01*
X002389Y013136D01*
X002387Y013180D01*
D11*
X005532Y012950D02*
X005685Y012950D01*
X005609Y012950D02*
X005609Y013410D01*
X005685Y013410D02*
X005532Y013410D01*
X005839Y013334D02*
X005839Y013257D01*
X005915Y013180D01*
X006069Y013180D01*
X006146Y013103D01*
X006146Y013027D01*
X006069Y012950D01*
X005915Y012950D01*
X005839Y013027D01*
X006299Y013103D02*
X006529Y013103D01*
X006606Y013180D01*
X006606Y013334D01*
X006529Y013410D01*
X006299Y013410D01*
X006299Y012950D01*
X006146Y013334D02*
X006069Y013410D01*
X005915Y013410D01*
X005839Y013334D01*
X006560Y012160D02*
X006560Y011700D01*
X006407Y011700D02*
X006714Y011700D01*
X006407Y012007D02*
X006560Y012160D01*
X006149Y010160D02*
X005919Y010160D01*
X005919Y009700D01*
X006149Y009700D01*
X006226Y009777D01*
X006226Y010084D01*
X006149Y010160D01*
X005766Y010084D02*
X005766Y009930D01*
X005689Y009853D01*
X005459Y009853D01*
X005459Y009700D02*
X005459Y010160D01*
X005689Y010160D01*
X005766Y010084D01*
X005612Y009853D02*
X005766Y009700D01*
X005305Y009700D02*
X005305Y010007D01*
X005152Y010160D01*
X004998Y010007D01*
X004998Y009700D01*
X004845Y009777D02*
X004768Y009700D01*
X004615Y009700D01*
X004538Y009777D01*
X004538Y010084D01*
X004615Y010160D01*
X004768Y010160D01*
X004845Y010084D01*
X004998Y009930D02*
X005305Y009930D01*
X003924Y009777D02*
X003847Y009700D01*
X003617Y009700D01*
X003617Y010160D01*
X003847Y010160D01*
X003924Y010084D01*
X003924Y009777D01*
X003464Y009777D02*
X003387Y009700D01*
X003234Y009700D01*
X003157Y009777D01*
X003234Y009930D02*
X003387Y009930D01*
X003464Y009853D01*
X003464Y009777D01*
X003234Y009930D02*
X003157Y010007D01*
X003157Y010084D01*
X003234Y010160D01*
X003387Y010160D01*
X003464Y010084D01*
X009771Y009910D02*
X010078Y009910D01*
X010078Y009834D01*
X009771Y009527D01*
X009771Y009450D01*
X010078Y009450D01*
X010231Y009450D02*
X010538Y009910D01*
X010231Y009910D02*
X010538Y009450D01*
X011152Y009450D02*
X011152Y009910D01*
X011459Y009910D01*
X011612Y009910D02*
X011842Y009910D01*
X011919Y009834D01*
X011919Y009527D01*
X011842Y009450D01*
X011612Y009450D01*
X011612Y009910D01*
X011305Y009680D02*
X011152Y009680D01*
X012073Y009450D02*
X012303Y009450D01*
X012380Y009527D01*
X012380Y009834D01*
X012303Y009910D01*
X012073Y009910D01*
X012073Y009450D01*
X011996Y009160D02*
X011842Y009160D01*
X011766Y009084D01*
X011766Y008777D01*
X011842Y008700D01*
X011996Y008700D01*
X012073Y008777D01*
X012226Y008700D02*
X012456Y008700D01*
X012533Y008777D01*
X012533Y008853D01*
X012456Y008930D01*
X012226Y008930D01*
X012073Y009084D02*
X011996Y009160D01*
X012226Y009160D02*
X012456Y009160D01*
X012533Y009084D01*
X012533Y009007D01*
X012456Y008930D01*
X012226Y008700D02*
X012226Y009160D01*
X011612Y009084D02*
X011612Y008930D01*
X011536Y008853D01*
X011305Y008853D01*
X011305Y008700D02*
X011305Y009160D01*
X011536Y009160D01*
X011612Y009084D01*
X012188Y008487D02*
X012188Y008410D01*
X012188Y008257D02*
X012188Y007950D01*
X012264Y007950D02*
X012111Y007950D01*
X011958Y007950D02*
X011958Y008180D01*
X011881Y008257D01*
X011727Y008257D01*
X011727Y008103D02*
X011958Y008103D01*
X011958Y007950D02*
X011727Y007950D01*
X011651Y008027D01*
X011727Y008103D01*
X011497Y008257D02*
X011420Y008257D01*
X011267Y008103D01*
X011267Y007950D02*
X011267Y008257D01*
X011114Y008257D02*
X010883Y008103D01*
X011114Y007950D01*
X010883Y007950D02*
X010883Y008410D01*
X010730Y008410D02*
X010730Y008027D01*
X010653Y007950D01*
X010500Y007950D01*
X010423Y008027D01*
X010423Y008410D01*
X012111Y008257D02*
X012188Y008257D01*
X012418Y008257D02*
X012648Y008257D01*
X012725Y008180D01*
X012725Y007950D01*
X012878Y008027D02*
X012878Y008180D01*
X012955Y008257D01*
X013109Y008257D01*
X013185Y008180D01*
X013185Y008103D01*
X012878Y008103D01*
X012878Y008027D02*
X012955Y007950D01*
X013109Y007950D01*
X013799Y007950D02*
X014106Y008257D01*
X014106Y008334D01*
X014029Y008410D01*
X013876Y008410D01*
X013799Y008334D01*
X014260Y008334D02*
X014336Y008410D01*
X014490Y008410D01*
X014566Y008334D01*
X014260Y008027D01*
X014336Y007950D01*
X014490Y007950D01*
X014566Y008027D01*
X014566Y008334D01*
X014720Y008257D02*
X014873Y008410D01*
X014873Y007950D01*
X014720Y007950D02*
X015027Y007950D01*
X015180Y007950D02*
X015180Y008027D01*
X015487Y008334D01*
X015487Y008410D01*
X015180Y008410D01*
X014605Y008777D02*
X014528Y008700D01*
X014375Y008700D01*
X014298Y008777D01*
X014605Y009084D01*
X014605Y008777D01*
X014298Y008777D02*
X014298Y009084D01*
X014375Y009160D01*
X014528Y009160D01*
X014605Y009084D01*
X014528Y009450D02*
X014375Y009450D01*
X014451Y009450D02*
X014451Y009910D01*
X014375Y009910D01*
X014221Y009757D02*
X014221Y009450D01*
X013991Y009450D01*
X013914Y009527D01*
X013914Y009757D01*
X013761Y009680D02*
X013761Y009450D01*
X013607Y009450D02*
X013607Y009680D01*
X013684Y009757D01*
X013761Y009680D01*
X013607Y009680D02*
X013531Y009757D01*
X013454Y009757D01*
X013454Y009450D01*
X013300Y009450D02*
X012993Y009450D01*
X012993Y009910D01*
X013300Y009910D01*
X013147Y009680D02*
X012993Y009680D01*
X013607Y009007D02*
X013761Y009160D01*
X013761Y008700D01*
X013914Y008700D02*
X013607Y008700D01*
X013300Y008700D02*
X013454Y009007D01*
X013147Y009007D02*
X013300Y008700D01*
X014068Y008700D02*
X014144Y008700D01*
X014144Y008777D01*
X014068Y008777D01*
X014068Y008700D01*
X014260Y008334D02*
X014260Y008027D01*
X014106Y007950D02*
X013799Y007950D01*
X012418Y007950D02*
X012418Y008257D01*
X012444Y007160D02*
X012367Y007084D01*
X012444Y007160D02*
X012597Y007160D01*
X012674Y007084D01*
X012674Y007007D01*
X012367Y006700D01*
X012674Y006700D01*
X012214Y006777D02*
X012137Y006700D01*
X011984Y006700D01*
X011907Y006777D01*
X011907Y007084D01*
X011984Y007160D01*
X012137Y007160D01*
X012214Y007084D01*
X012117Y005410D02*
X012347Y005410D01*
X012424Y005334D01*
X012424Y005180D01*
X012347Y005103D01*
X012117Y005103D01*
X012117Y004950D02*
X012117Y005410D01*
X011964Y005334D02*
X011887Y005410D01*
X011657Y005410D01*
X011657Y004950D01*
X011887Y004950D01*
X011964Y005027D01*
X011964Y005334D01*
X012271Y005103D02*
X012424Y004950D01*
X012578Y004950D02*
X012731Y004950D01*
X012654Y004950D02*
X012654Y005410D01*
X012578Y005410D02*
X012731Y005410D01*
X012885Y005410D02*
X012885Y005103D01*
X013038Y004950D01*
X013191Y005103D01*
X013191Y005410D01*
X013345Y005410D02*
X013345Y004950D01*
X013652Y004950D01*
X013498Y005180D02*
X013345Y005180D01*
X013345Y005410D02*
X013652Y005410D01*
X013578Y003410D02*
X013654Y003334D01*
X013654Y003257D01*
X013578Y003180D01*
X013347Y003180D01*
X013347Y002950D02*
X013347Y003410D01*
X013578Y003410D01*
X013578Y003180D02*
X013654Y003103D01*
X013654Y003027D01*
X013578Y002950D01*
X013347Y002950D01*
X012734Y003410D02*
X012427Y002950D01*
X011813Y002950D02*
X011813Y003257D01*
X011659Y003410D01*
X011506Y003257D01*
X011506Y002950D01*
X011506Y003180D02*
X011813Y003180D01*
X015157Y003180D02*
X015310Y003180D01*
X015157Y002950D02*
X015157Y003410D01*
X015464Y003410D01*
X015617Y003410D02*
X015617Y002950D01*
X015924Y002950D01*
X016078Y003027D02*
X016154Y002950D01*
X016308Y002950D01*
X016385Y003027D01*
X016385Y003334D01*
X016308Y003410D01*
X016154Y003410D01*
X016078Y003334D01*
X016078Y003027D01*
X016538Y003103D02*
X016768Y003103D01*
X016845Y003180D01*
X016845Y003334D01*
X016768Y003410D01*
X016538Y003410D01*
X016538Y002950D01*
X016998Y002950D02*
X016998Y003410D01*
X017229Y003410D01*
X017305Y003334D01*
X017305Y003180D01*
X017229Y003103D01*
X016998Y003103D01*
X017459Y003334D02*
X017612Y003180D01*
X017612Y002950D01*
X017612Y003180D02*
X017766Y003334D01*
X017766Y003410D01*
X017459Y003410D02*
X017459Y003334D01*
X018380Y003410D02*
X018380Y002950D01*
X018610Y002950D01*
X018686Y003027D01*
X018686Y003334D01*
X018610Y003410D01*
X018380Y003410D01*
X018840Y003410D02*
X019070Y003410D01*
X019147Y003334D01*
X019147Y003180D01*
X019070Y003103D01*
X018840Y003103D01*
X018840Y002950D02*
X018840Y003410D01*
X019300Y003410D02*
X019454Y003410D01*
X019377Y003410D02*
X019377Y002950D01*
X019300Y002950D02*
X019454Y002950D01*
X019607Y003103D02*
X019761Y002950D01*
X019914Y003103D01*
X019914Y003410D01*
X020068Y003410D02*
X020068Y002950D01*
X020375Y002950D01*
X020221Y003180D02*
X020068Y003180D01*
X020068Y003410D02*
X020375Y003410D01*
X019607Y003410D02*
X019607Y003103D01*
X019147Y002950D02*
X018993Y003103D01*
X025407Y006527D02*
X025484Y006450D01*
X025637Y006450D01*
X025714Y006527D01*
X025867Y006527D02*
X025944Y006450D01*
X026097Y006450D01*
X026174Y006527D01*
X026174Y006603D01*
X026097Y006680D01*
X026021Y006680D01*
X026097Y006680D02*
X026174Y006757D01*
X026174Y006834D01*
X026097Y006910D01*
X025944Y006910D01*
X025867Y006834D01*
X025714Y006834D02*
X025637Y006910D01*
X025484Y006910D01*
X025407Y006834D01*
X025407Y006527D01*
X025484Y007450D02*
X025637Y007450D01*
X025714Y007527D01*
X025867Y007450D02*
X026174Y007450D01*
X026021Y007450D02*
X026021Y007910D01*
X025867Y007757D01*
X025714Y007834D02*
X025637Y007910D01*
X025484Y007910D01*
X025407Y007834D01*
X025407Y007527D01*
X025484Y007450D01*
X026484Y008450D02*
X026637Y008450D01*
X026714Y008527D01*
X026867Y008527D02*
X026944Y008450D01*
X027097Y008450D01*
X027174Y008527D01*
X027174Y008834D01*
X027097Y008910D01*
X026944Y008910D01*
X026867Y008834D01*
X026867Y008527D01*
X026484Y008450D02*
X026407Y008527D01*
X026407Y008834D01*
X026484Y008910D01*
X026637Y008910D01*
X026714Y008834D01*
X027328Y008910D02*
X027635Y008450D01*
X027635Y008910D01*
X027788Y008910D02*
X028095Y008910D01*
X028248Y008910D02*
X028479Y008910D01*
X028555Y008834D01*
X028555Y008680D01*
X028479Y008603D01*
X028248Y008603D01*
X028248Y008450D02*
X028248Y008910D01*
X027941Y008910D02*
X027941Y008450D01*
X028402Y008603D02*
X028555Y008450D01*
X028709Y008450D02*
X028709Y008757D01*
X028862Y008910D01*
X029016Y008757D01*
X029016Y008450D01*
X029169Y008527D02*
X029246Y008450D01*
X029399Y008450D01*
X029476Y008527D01*
X029476Y008603D01*
X029399Y008680D01*
X029246Y008680D01*
X029169Y008757D01*
X029169Y008834D01*
X029246Y008910D01*
X029399Y008910D01*
X029476Y008834D01*
X029630Y008910D02*
X029936Y008910D01*
X029783Y008910D02*
X029783Y008450D01*
X029016Y008680D02*
X028709Y008680D01*
X027328Y008450D02*
X027328Y008910D01*
X025674Y010450D02*
X025367Y010450D01*
X025674Y010757D01*
X025674Y010834D01*
X025597Y010910D01*
X025444Y010910D01*
X025367Y010834D01*
X025214Y010757D02*
X025214Y010450D01*
X024907Y010450D02*
X024907Y010757D01*
X025060Y010910D01*
X025214Y010757D01*
X025214Y010680D02*
X024907Y010680D01*
X024521Y010910D02*
X024521Y010450D01*
X024674Y010450D02*
X024367Y010450D01*
X024214Y010450D02*
X024214Y010757D01*
X024060Y010910D01*
X023907Y010757D01*
X023907Y010450D01*
X023424Y010527D02*
X023347Y010450D01*
X023194Y010450D01*
X023117Y010527D01*
X023424Y010834D01*
X023424Y010527D01*
X023117Y010527D02*
X023117Y010834D01*
X023194Y010910D01*
X023347Y010910D01*
X023424Y010834D01*
X023907Y010680D02*
X024214Y010680D01*
X024367Y010757D02*
X024521Y010910D01*
X022964Y010757D02*
X022964Y010450D01*
X022657Y010450D02*
X022657Y010757D01*
X022810Y010910D01*
X022964Y010757D01*
X022964Y010680D02*
X022657Y010680D01*
X018624Y010534D02*
X018624Y010457D01*
X018547Y010380D01*
X018624Y010303D01*
X018624Y010227D01*
X018547Y010150D01*
X018394Y010150D01*
X018317Y010227D01*
X018164Y010227D02*
X018164Y010610D01*
X018317Y010534D02*
X018394Y010610D01*
X018547Y010610D01*
X018624Y010534D01*
X018547Y010380D02*
X018471Y010380D01*
X018164Y010227D02*
X018087Y010150D01*
X017934Y010150D01*
X017857Y010227D01*
X017857Y010610D01*
X016867Y010496D02*
X016867Y010803D01*
X016867Y010496D02*
X016406Y010496D01*
X016406Y010342D02*
X016713Y010035D01*
X016637Y010112D02*
X016867Y010342D01*
X016867Y010035D02*
X016406Y010035D01*
X016483Y009882D02*
X016560Y009882D01*
X016637Y009805D01*
X016637Y009575D01*
X016867Y009575D02*
X016406Y009575D01*
X016406Y009805D01*
X016483Y009882D01*
X016637Y009805D02*
X016713Y009882D01*
X016790Y009882D01*
X016867Y009805D01*
X016867Y009575D01*
X016139Y009757D02*
X016063Y009757D01*
X015909Y009603D01*
X015909Y009450D02*
X015909Y009757D01*
X015756Y009680D02*
X015679Y009757D01*
X015526Y009757D01*
X015449Y009680D01*
X015449Y009527D01*
X015526Y009450D01*
X015679Y009450D01*
X015756Y009527D01*
X015756Y009680D01*
X015713Y010029D02*
X015713Y010259D01*
X015637Y010336D01*
X015483Y010336D01*
X015406Y010259D01*
X015406Y010029D01*
X015867Y010029D01*
X015713Y010183D02*
X015867Y010336D01*
X015790Y010490D02*
X015867Y010566D01*
X015867Y010720D01*
X015790Y010797D01*
X015713Y010797D01*
X015637Y010720D01*
X015637Y010643D01*
X015637Y010720D02*
X015560Y010797D01*
X015483Y010797D01*
X015406Y010720D01*
X015406Y010566D01*
X015483Y010490D01*
X015219Y009834D02*
X015219Y009527D01*
X015295Y009450D01*
X014988Y009450D02*
X014758Y009450D01*
X014682Y009527D01*
X014758Y009603D01*
X014988Y009603D01*
X014988Y009680D02*
X014988Y009450D01*
X014988Y009680D02*
X014912Y009757D01*
X014758Y009757D01*
X015142Y009757D02*
X015295Y009757D01*
X014308Y012950D02*
X014385Y013027D01*
X014385Y013334D01*
X014308Y013410D01*
X014078Y013410D01*
X014078Y012950D01*
X014308Y012950D01*
X013924Y013027D02*
X013847Y012950D01*
X013694Y012950D01*
X013617Y013027D01*
X013617Y013334D01*
X013694Y013410D01*
X013847Y013410D01*
X013924Y013334D01*
X013464Y012950D02*
X013157Y012950D01*
X013157Y013410D01*
X030907Y013257D02*
X031060Y013410D01*
X031060Y012950D01*
X030907Y012950D02*
X031214Y012950D01*
X031213Y011217D02*
X030906Y011217D01*
X031213Y011217D02*
X031367Y011064D01*
X031213Y010910D01*
X030906Y010910D01*
X030906Y010757D02*
X030906Y010450D01*
X031137Y010450D01*
X031060Y010603D01*
X031060Y010680D01*
X031137Y010757D01*
X031290Y010757D01*
X031367Y010680D01*
X031367Y010527D01*
X031290Y010450D01*
X031367Y007269D02*
X031213Y007116D01*
X031213Y007193D02*
X031213Y006962D01*
X031367Y006962D02*
X030906Y006962D01*
X030906Y007193D01*
X030983Y007269D01*
X031137Y007269D01*
X031213Y007193D01*
X031367Y006809D02*
X031367Y006502D01*
X030906Y006502D01*
X030906Y006809D01*
X031137Y006655D02*
X031137Y006502D01*
X031290Y006348D02*
X030983Y006348D01*
X030906Y006272D01*
X030906Y006042D01*
X031367Y006042D01*
X031367Y006272D01*
X031290Y006348D01*
X031290Y005888D02*
X030983Y005888D01*
X030906Y005811D01*
X030906Y005658D01*
X030983Y005581D01*
X031290Y005581D01*
X031367Y005658D01*
X031367Y005811D01*
X031290Y005888D01*
X031290Y005428D02*
X031367Y005351D01*
X031367Y005198D01*
X031290Y005121D01*
X030983Y005121D01*
X030906Y005198D01*
X030906Y005351D01*
X030983Y005428D01*
X030906Y004967D02*
X031367Y004967D01*
X030906Y004660D01*
X031367Y004660D01*
X031367Y004507D02*
X031367Y004200D01*
X030906Y004200D01*
X030906Y004507D01*
X031137Y004353D02*
X031137Y004200D01*
X027499Y004405D02*
X027192Y004405D01*
X027422Y004635D01*
X027422Y004175D01*
X027039Y004252D02*
X027039Y004635D01*
X026732Y004635D02*
X026732Y004252D01*
X026809Y004175D01*
X026962Y004175D01*
X027039Y004252D01*
X008964Y000700D02*
X008657Y000700D01*
X008810Y000700D02*
X008810Y001160D01*
X008657Y001007D01*
D12*
X009137Y000930D02*
X009137Y002430D01*
X009387Y002680D01*
X009887Y002680D01*
X010137Y002430D01*
X010137Y000930D01*
X010387Y000680D01*
X010887Y000680D01*
X011137Y000930D01*
X011137Y002430D01*
X011387Y002680D01*
X011887Y002680D01*
X012137Y002430D01*
X012137Y000930D01*
X012387Y000680D01*
X012887Y000680D01*
X013137Y000930D01*
X013137Y002430D01*
X013387Y002680D01*
X013887Y002680D01*
X014137Y002430D01*
X014137Y000930D01*
X014387Y000680D01*
X014887Y000680D01*
X015137Y000930D01*
X015137Y002430D01*
X015387Y002680D01*
X015887Y002680D01*
X016137Y002430D01*
X016137Y000930D01*
X015887Y000680D01*
X015387Y000680D01*
X015137Y000930D01*
X016137Y000930D02*
X016387Y000680D01*
X016887Y000680D01*
X017137Y000930D01*
X017137Y002430D01*
X017387Y002680D01*
X017887Y002680D01*
X018137Y002430D01*
X018137Y000930D01*
X017887Y000680D01*
X017387Y000680D01*
X017137Y000930D01*
X018137Y000930D02*
X018387Y000680D01*
X018887Y000680D01*
X019137Y000930D01*
X019137Y002430D01*
X019387Y002680D01*
X019887Y002680D01*
X020137Y002430D01*
X020137Y000930D01*
X019887Y000680D01*
X019387Y000680D01*
X019137Y000930D01*
X020137Y000930D02*
X020387Y000680D01*
X020887Y000680D01*
X021137Y000930D01*
X021137Y002430D01*
X021387Y002680D01*
X021887Y002680D01*
X022137Y002430D01*
X022137Y000930D01*
X021887Y000680D01*
X021387Y000680D01*
X021137Y000930D01*
X022137Y000930D02*
X022387Y000680D01*
X022887Y000680D01*
X023137Y000930D01*
X023137Y002430D01*
X023387Y002680D01*
X023887Y002680D01*
X024137Y002430D01*
X024137Y000930D01*
X023887Y000680D01*
X023387Y000680D01*
X023137Y000930D01*
X024137Y000930D02*
X024387Y000680D01*
X024887Y000680D01*
X025137Y000930D01*
X025137Y002430D01*
X025387Y002680D01*
X025887Y002680D01*
X026137Y002430D01*
X026137Y000930D01*
X025887Y000680D01*
X025387Y000680D01*
X025137Y000930D01*
X025137Y002430D02*
X024887Y002680D01*
X024387Y002680D01*
X024137Y002430D01*
X023137Y002430D02*
X022887Y002680D01*
X022387Y002680D01*
X022137Y002430D01*
X021137Y002430D02*
X020887Y002680D01*
X020387Y002680D01*
X020137Y002430D01*
X019137Y002430D02*
X018887Y002680D01*
X018387Y002680D01*
X018137Y002430D01*
X017137Y002430D02*
X016887Y002680D01*
X016387Y002680D01*
X016137Y002430D01*
X015137Y002430D02*
X014887Y002680D01*
X014387Y002680D01*
X014137Y002430D01*
X013137Y002430D02*
X012887Y002680D01*
X012387Y002680D01*
X012137Y002430D01*
X011137Y002430D02*
X010887Y002680D01*
X010387Y002680D01*
X010137Y002430D01*
X011387Y003680D02*
X011887Y003680D01*
X012137Y003930D01*
X012387Y003680D01*
X012887Y003680D01*
X013137Y003930D01*
X013387Y003680D01*
X013887Y003680D01*
X014137Y003930D01*
X014137Y004430D01*
X013887Y004680D01*
X013387Y004680D01*
X013137Y004430D01*
X013137Y003930D01*
X013137Y004430D02*
X012887Y004680D01*
X012387Y004680D01*
X012137Y004430D01*
X012137Y003930D01*
X011387Y003680D02*
X011137Y003930D01*
X011137Y004430D01*
X011387Y004680D01*
X011887Y004680D01*
X012137Y004430D01*
X015787Y005280D02*
X018487Y005280D01*
X018546Y005282D01*
X018604Y005288D01*
X018663Y005297D01*
X018720Y005311D01*
X018776Y005328D01*
X018831Y005349D01*
X018885Y005373D01*
X018937Y005401D01*
X018987Y005432D01*
X019035Y005466D01*
X019080Y005503D01*
X019123Y005544D01*
X019164Y005587D01*
X019201Y005632D01*
X019235Y005680D01*
X019266Y005730D01*
X019294Y005782D01*
X019318Y005836D01*
X019339Y005891D01*
X019356Y005947D01*
X019370Y006004D01*
X019379Y006063D01*
X019385Y006121D01*
X019387Y006180D01*
X019385Y006239D01*
X019379Y006297D01*
X019370Y006356D01*
X019356Y006413D01*
X019339Y006469D01*
X019318Y006524D01*
X019294Y006578D01*
X019266Y006630D01*
X019235Y006680D01*
X019201Y006728D01*
X019164Y006773D01*
X019123Y006816D01*
X019080Y006857D01*
X019035Y006894D01*
X018987Y006928D01*
X018937Y006959D01*
X018885Y006987D01*
X018831Y007011D01*
X018776Y007032D01*
X018720Y007049D01*
X018663Y007063D01*
X018604Y007072D01*
X018546Y007078D01*
X018487Y007080D01*
X015787Y007080D01*
X015728Y007078D01*
X015670Y007072D01*
X015611Y007063D01*
X015554Y007049D01*
X015498Y007032D01*
X015443Y007011D01*
X015389Y006987D01*
X015337Y006959D01*
X015287Y006928D01*
X015239Y006894D01*
X015194Y006857D01*
X015151Y006816D01*
X015110Y006773D01*
X015073Y006728D01*
X015039Y006680D01*
X015008Y006630D01*
X014980Y006578D01*
X014956Y006524D01*
X014935Y006469D01*
X014918Y006413D01*
X014904Y006356D01*
X014895Y006297D01*
X014889Y006239D01*
X014887Y006180D01*
X014889Y006121D01*
X014895Y006063D01*
X014904Y006004D01*
X014918Y005947D01*
X014935Y005891D01*
X014956Y005836D01*
X014980Y005782D01*
X015008Y005730D01*
X015039Y005680D01*
X015073Y005632D01*
X015110Y005587D01*
X015151Y005544D01*
X015194Y005503D01*
X015239Y005466D01*
X015287Y005432D01*
X015337Y005401D01*
X015389Y005373D01*
X015443Y005349D01*
X015498Y005328D01*
X015554Y005311D01*
X015611Y005297D01*
X015670Y005288D01*
X015728Y005282D01*
X015787Y005280D01*
X014137Y000930D02*
X013887Y000680D01*
X013387Y000680D01*
X013137Y000930D01*
X012137Y000930D02*
X011887Y000680D01*
X011387Y000680D01*
X011137Y000930D01*
X010137Y000930D02*
X009887Y000680D01*
X009387Y000680D01*
X009137Y000930D01*
X027987Y009180D02*
X029287Y009180D01*
X029987Y009180D02*
X030010Y009182D01*
X030033Y009187D01*
X030055Y009196D01*
X030075Y009209D01*
X030093Y009224D01*
X030108Y009242D01*
X030121Y009262D01*
X030130Y009284D01*
X030135Y009307D01*
X030137Y009330D01*
X031637Y009930D02*
X031637Y010430D01*
X031887Y010680D01*
X031637Y010930D01*
X031637Y011430D01*
X031887Y011680D01*
X032387Y011680D01*
X032637Y011430D01*
X032637Y010930D01*
X032387Y010680D01*
X032637Y010430D01*
X032637Y009930D01*
X032387Y009680D01*
X031887Y009680D01*
X031637Y009930D01*
X030137Y010080D02*
X030137Y012030D01*
X030135Y012053D01*
X030130Y012076D01*
X030121Y012098D01*
X030108Y012118D01*
X030093Y012136D01*
X030075Y012151D01*
X030055Y012164D01*
X030033Y012173D01*
X030010Y012178D01*
X029987Y012180D01*
X028987Y012180D01*
X028287Y012180D02*
X027287Y012180D01*
X027264Y012178D01*
X027241Y012173D01*
X027219Y012164D01*
X027199Y012151D01*
X027181Y012136D01*
X027166Y012118D01*
X027153Y012098D01*
X027144Y012076D01*
X027139Y012053D01*
X027137Y012030D01*
X027137Y010080D01*
X028087Y010130D02*
X028287Y010330D01*
X028537Y010330D02*
X028537Y010580D01*
X028287Y010580D01*
X028287Y010780D01*
X028537Y010780D01*
X028537Y011030D01*
X028737Y011030D01*
X028737Y010780D01*
X028987Y010780D01*
X028987Y010580D01*
X028737Y010580D01*
X028737Y010330D01*
X028537Y010330D01*
X028987Y010330D02*
X029187Y010130D01*
X029187Y010680D02*
X029387Y010680D01*
X029037Y011080D02*
X029137Y011180D01*
X028237Y011080D02*
X028137Y011180D01*
X028087Y010680D02*
X027887Y010680D01*
X025537Y011380D02*
X025537Y012480D01*
X025535Y012497D01*
X025531Y012514D01*
X025524Y012530D01*
X025514Y012544D01*
X025501Y012557D01*
X025487Y012567D01*
X025471Y012574D01*
X025454Y012578D01*
X025437Y012580D01*
X024837Y012580D01*
X024820Y012578D01*
X024803Y012574D01*
X024787Y012567D01*
X024773Y012557D01*
X024760Y012544D01*
X024750Y012530D01*
X024743Y012514D01*
X024739Y012497D01*
X024737Y012480D01*
X024737Y011380D01*
X024739Y011363D01*
X024743Y011346D01*
X024750Y011330D01*
X024760Y011316D01*
X024773Y011303D01*
X024787Y011293D01*
X024803Y011286D01*
X024820Y011282D01*
X024837Y011280D01*
X025437Y011280D01*
X025454Y011282D01*
X025471Y011286D01*
X025487Y011293D01*
X025501Y011303D01*
X025514Y011316D01*
X025524Y011330D01*
X025531Y011346D01*
X025535Y011363D01*
X025537Y011380D01*
X024537Y011380D02*
X024537Y012480D01*
X024535Y012497D01*
X024531Y012514D01*
X024524Y012530D01*
X024514Y012544D01*
X024501Y012557D01*
X024487Y012567D01*
X024471Y012574D01*
X024454Y012578D01*
X024437Y012580D01*
X023837Y012580D01*
X023820Y012578D01*
X023803Y012574D01*
X023787Y012567D01*
X023773Y012557D01*
X023760Y012544D01*
X023750Y012530D01*
X023743Y012514D01*
X023739Y012497D01*
X023737Y012480D01*
X023737Y011380D01*
X023739Y011363D01*
X023743Y011346D01*
X023750Y011330D01*
X023760Y011316D01*
X023773Y011303D01*
X023787Y011293D01*
X023803Y011286D01*
X023820Y011282D01*
X023837Y011280D01*
X024437Y011280D01*
X024454Y011282D01*
X024471Y011286D01*
X024487Y011293D01*
X024501Y011303D01*
X024514Y011316D01*
X024524Y011330D01*
X024531Y011346D01*
X024535Y011363D01*
X024537Y011380D01*
X023537Y011380D02*
X023537Y012480D01*
X023535Y012497D01*
X023531Y012514D01*
X023524Y012530D01*
X023514Y012544D01*
X023501Y012557D01*
X023487Y012567D01*
X023471Y012574D01*
X023454Y012578D01*
X023437Y012580D01*
X022837Y012580D01*
X022820Y012578D01*
X022803Y012574D01*
X022787Y012567D01*
X022773Y012557D01*
X022760Y012544D01*
X022750Y012530D01*
X022743Y012514D01*
X022739Y012497D01*
X022737Y012480D01*
X022737Y011380D01*
X022739Y011363D01*
X022743Y011346D01*
X022750Y011330D01*
X022760Y011316D01*
X022773Y011303D01*
X022787Y011293D01*
X022803Y011286D01*
X022820Y011282D01*
X022837Y011280D01*
X023437Y011280D01*
X023454Y011282D01*
X023471Y011286D01*
X023487Y011293D01*
X023501Y011303D01*
X023514Y011316D01*
X023524Y011330D01*
X023531Y011346D01*
X023535Y011363D01*
X023537Y011380D01*
X023512Y012680D02*
X023012Y012680D01*
X022762Y012930D01*
X022762Y013430D01*
X023012Y013680D01*
X023512Y013680D01*
X023762Y013430D01*
X024012Y013680D01*
X024512Y013680D01*
X024762Y013430D01*
X025012Y013680D01*
X025512Y013680D01*
X025762Y013430D01*
X026012Y013680D01*
X026512Y013680D01*
X026762Y013430D01*
X027012Y013680D01*
X027512Y013680D01*
X027762Y013430D01*
X028012Y013680D01*
X028512Y013680D01*
X028762Y013430D01*
X029012Y013680D01*
X029512Y013680D01*
X029762Y013430D01*
X030012Y013680D01*
X030512Y013680D01*
X030762Y013430D01*
X030762Y012930D01*
X030512Y012680D01*
X030012Y012680D01*
X029762Y012930D01*
X029512Y012680D01*
X029012Y012680D01*
X028762Y012930D01*
X028762Y013430D01*
X028762Y012930D02*
X028512Y012680D01*
X028012Y012680D01*
X027762Y012930D01*
X027512Y012680D01*
X027012Y012680D01*
X026762Y012930D01*
X026512Y012680D01*
X026012Y012680D01*
X025762Y012930D01*
X025762Y013430D01*
X025762Y012930D02*
X025512Y012680D01*
X025012Y012680D01*
X024762Y012930D01*
X024512Y012680D01*
X024012Y012680D01*
X023762Y012930D01*
X023512Y012680D01*
X023762Y012930D02*
X023762Y013430D01*
X024762Y013430D02*
X024762Y012930D01*
X026762Y012930D02*
X026762Y013430D01*
X027762Y013430D02*
X027762Y012930D01*
X029762Y012930D02*
X029762Y013430D01*
X031887Y010680D02*
X032387Y010680D01*
X027287Y009180D02*
X027264Y009182D01*
X027241Y009187D01*
X027219Y009196D01*
X027199Y009209D01*
X027181Y009224D01*
X027166Y009242D01*
X027153Y009262D01*
X027144Y009284D01*
X027139Y009307D01*
X027137Y009330D01*
X031637Y007430D02*
X031887Y007680D01*
X032387Y007680D01*
X032637Y007430D01*
X032637Y006930D01*
X032387Y006680D01*
X032637Y006430D01*
X032637Y005930D01*
X032387Y005680D01*
X032637Y005430D01*
X032637Y004930D01*
X032387Y004680D01*
X032637Y004430D01*
X032637Y003930D01*
X032387Y003680D01*
X031887Y003680D01*
X031637Y003930D01*
X031637Y004430D01*
X031887Y004680D01*
X031637Y004930D01*
X031637Y005430D01*
X031887Y005680D01*
X032387Y005680D01*
X031887Y005680D02*
X031637Y005930D01*
X031637Y006430D01*
X031887Y006680D01*
X031637Y006930D01*
X031637Y007430D01*
X031887Y006680D02*
X032387Y006680D01*
X032387Y004680D02*
X031887Y004680D01*
X017037Y011130D02*
X017037Y012230D01*
X017035Y012247D01*
X017031Y012264D01*
X017024Y012280D01*
X017014Y012294D01*
X017001Y012307D01*
X016987Y012317D01*
X016971Y012324D01*
X016954Y012328D01*
X016937Y012330D01*
X016337Y012330D01*
X016320Y012328D01*
X016303Y012324D01*
X016287Y012317D01*
X016273Y012307D01*
X016260Y012294D01*
X016250Y012280D01*
X016243Y012264D01*
X016239Y012247D01*
X016237Y012230D01*
X016237Y011130D01*
X016239Y011113D01*
X016243Y011096D01*
X016250Y011080D01*
X016260Y011066D01*
X016273Y011053D01*
X016287Y011043D01*
X016303Y011036D01*
X016320Y011032D01*
X016337Y011030D01*
X016937Y011030D01*
X016954Y011032D01*
X016971Y011036D01*
X016987Y011043D01*
X017001Y011053D01*
X017014Y011066D01*
X017024Y011080D01*
X017031Y011096D01*
X017035Y011113D01*
X017037Y011130D01*
X017012Y012680D02*
X016762Y012930D01*
X016762Y013430D01*
X017012Y013680D01*
X017512Y013680D01*
X017762Y013430D01*
X018012Y013680D01*
X018512Y013680D01*
X018762Y013430D01*
X019012Y013680D01*
X019512Y013680D01*
X019762Y013430D01*
X020012Y013680D01*
X020512Y013680D01*
X020762Y013430D01*
X021012Y013680D01*
X021512Y013680D01*
X021762Y013430D01*
X022012Y013680D01*
X022512Y013680D01*
X022762Y013430D01*
X022762Y012930D02*
X022512Y012680D01*
X022012Y012680D01*
X021762Y012930D01*
X021512Y012680D01*
X021012Y012680D01*
X020762Y012930D01*
X020512Y012680D01*
X020012Y012680D01*
X019762Y012930D01*
X019762Y013430D01*
X019762Y012930D02*
X019512Y012680D01*
X019012Y012680D01*
X018762Y012930D01*
X018512Y012680D01*
X018012Y012680D01*
X017762Y012930D01*
X017512Y012680D01*
X017012Y012680D01*
X016762Y012930D02*
X016512Y012680D01*
X016012Y012680D01*
X015762Y012930D01*
X015512Y012680D01*
X015012Y012680D01*
X014762Y012930D01*
X014762Y013430D01*
X015012Y013680D01*
X015512Y013680D01*
X015762Y013430D01*
X016012Y013680D01*
X016512Y013680D01*
X016762Y013430D01*
X017762Y013430D02*
X017762Y012930D01*
X018762Y012930D02*
X018762Y013430D01*
X020762Y013430D02*
X020762Y012930D01*
X021762Y012930D02*
X021762Y013430D01*
X015762Y013430D02*
X015762Y012930D01*
X011887Y013430D02*
X011887Y011930D01*
X011637Y011680D01*
X011137Y011680D01*
X010887Y011930D01*
X010887Y013430D01*
X011137Y013680D01*
X011637Y013680D01*
X011887Y013430D01*
X010887Y013430D02*
X010637Y013680D01*
X010137Y013680D01*
X009887Y013430D01*
X009887Y011930D01*
X010137Y011680D01*
X010637Y011680D01*
X010887Y011930D01*
X009887Y011930D02*
X009637Y011680D01*
X009137Y011680D01*
X008887Y011930D01*
X008887Y013430D01*
X009137Y013680D01*
X009637Y013680D01*
X009887Y013430D01*
X008887Y013430D02*
X008637Y013680D01*
X008137Y013680D01*
X007887Y013430D01*
X007887Y011930D01*
X008137Y011680D01*
X008637Y011680D01*
X008887Y011930D01*
X007887Y011930D02*
X007637Y011680D01*
X007137Y011680D01*
X006887Y011930D01*
X006887Y013430D01*
X007137Y013680D01*
X007637Y013680D01*
X007887Y013430D01*
D13*
X026347Y004830D02*
X028927Y004830D01*
X028927Y003530D01*
X026347Y003530D01*
X026347Y004830D01*
D14*
X018487Y005480D02*
X015787Y005480D01*
X015736Y005482D01*
X015685Y005487D01*
X015635Y005497D01*
X015585Y005510D01*
X015537Y005526D01*
X015490Y005546D01*
X015444Y005570D01*
X015401Y005596D01*
X015359Y005626D01*
X015320Y005659D01*
X015283Y005694D01*
X015249Y005732D01*
X015218Y005773D01*
X015189Y005815D01*
X015164Y005860D01*
X015143Y005906D01*
X015124Y005954D01*
X015110Y006003D01*
X015099Y006053D01*
X015091Y006103D01*
X015087Y006154D01*
X015087Y006206D01*
X015091Y006257D01*
X015099Y006307D01*
X015110Y006357D01*
X015124Y006406D01*
X015143Y006454D01*
X015164Y006500D01*
X015189Y006545D01*
X015218Y006587D01*
X015249Y006628D01*
X015283Y006666D01*
X015320Y006701D01*
X015359Y006734D01*
X015401Y006764D01*
X015444Y006790D01*
X015490Y006814D01*
X015537Y006834D01*
X015585Y006850D01*
X015635Y006863D01*
X015685Y006873D01*
X015736Y006878D01*
X015787Y006880D01*
X018487Y006880D01*
X018538Y006878D01*
X018589Y006873D01*
X018639Y006863D01*
X018689Y006850D01*
X018737Y006834D01*
X018784Y006814D01*
X018830Y006790D01*
X018873Y006764D01*
X018915Y006734D01*
X018954Y006701D01*
X018991Y006666D01*
X019025Y006628D01*
X019056Y006587D01*
X019085Y006545D01*
X019110Y006500D01*
X019131Y006454D01*
X019150Y006406D01*
X019164Y006357D01*
X019175Y006307D01*
X019183Y006257D01*
X019187Y006206D01*
X019187Y006154D01*
X019183Y006103D01*
X019175Y006053D01*
X019164Y006003D01*
X019150Y005954D01*
X019131Y005906D01*
X019110Y005860D01*
X019085Y005815D01*
X019056Y005773D01*
X019025Y005732D01*
X018991Y005694D01*
X018954Y005659D01*
X018915Y005626D01*
X018873Y005596D01*
X018830Y005570D01*
X018784Y005546D01*
X018737Y005526D01*
X018689Y005510D01*
X018639Y005497D01*
X018589Y005487D01*
X018538Y005482D01*
X018487Y005480D01*
D15*
X017522Y004955D02*
X017522Y004505D01*
X017372Y004505D02*
X017672Y004505D01*
X017212Y004505D02*
X017062Y004655D01*
X017137Y004505D02*
X016987Y004505D01*
X016912Y004580D01*
X016912Y004880D01*
X016987Y004955D01*
X017137Y004955D01*
X017212Y004880D01*
X017212Y004580D01*
X017137Y004505D01*
X017372Y004805D02*
X017522Y004955D01*
X008550Y004855D02*
X008550Y010879D01*
X002330Y010879D01*
X002330Y004855D01*
X008550Y004855D01*
X003353Y005958D02*
X003353Y008635D01*
X003354Y008635D02*
X003352Y008674D01*
X003346Y008712D01*
X003337Y008749D01*
X003324Y008786D01*
X003307Y008821D01*
X003288Y008854D01*
X003265Y008885D01*
X003239Y008914D01*
X003210Y008940D01*
X003179Y008963D01*
X003146Y008982D01*
X003111Y008999D01*
X003074Y009012D01*
X003037Y009021D01*
X002999Y009027D01*
X002960Y009029D01*
X002960Y009028D02*
X002330Y009028D01*
X003354Y005958D02*
X003352Y005919D01*
X003346Y005881D01*
X003337Y005844D01*
X003324Y005807D01*
X003307Y005772D01*
X003288Y005739D01*
X003265Y005708D01*
X003239Y005679D01*
X003210Y005653D01*
X003179Y005630D01*
X003146Y005611D01*
X003111Y005594D01*
X003074Y005581D01*
X003037Y005572D01*
X002999Y005566D01*
X002960Y005564D01*
X002330Y005564D01*
X026412Y011605D02*
X026412Y012055D01*
X026637Y012055D01*
X026712Y011980D01*
X026712Y011830D01*
X026637Y011755D01*
X026412Y011755D01*
X026562Y011755D02*
X026712Y011605D01*
X026872Y011605D02*
X027172Y011605D01*
X027022Y011605D02*
X027022Y012055D01*
X026872Y011905D01*
D16*
X022478Y007188D03*
X023828Y004923D03*
X024588Y004378D03*
X025628Y004143D03*
X021526Y003858D03*
D17*
X021526Y003860D03*
X023368Y004385D03*
X024198Y004515D03*
X024451Y004375D03*
X024588Y004375D03*
X025151Y004385D03*
X025503Y004385D03*
X024361Y004805D03*
X023828Y004925D03*
D18*
X022151Y004168D03*
X021526Y003863D03*
X024803Y004048D03*
X025626Y004138D03*
X024301Y007198D03*
D19*
X023831Y004930D03*
X025623Y004135D03*
X021528Y003865D03*
D20*
X021529Y003868D03*
X022909Y004508D03*
X023824Y004248D03*
X024299Y007193D03*
D21*
X024298Y007190D03*
X022983Y004920D03*
X022906Y004500D03*
X023113Y004025D03*
X023113Y004020D03*
X023113Y004015D03*
X022901Y004010D03*
X023466Y004005D03*
X023613Y004010D03*
X024576Y004360D03*
X024683Y004245D03*
X024896Y004015D03*
X024896Y004010D03*
X025041Y004010D03*
X025616Y004130D03*
X024361Y004815D03*
X022143Y004160D03*
X021533Y003870D03*
D22*
X021538Y003873D03*
X022138Y004153D03*
X022288Y004013D03*
X022906Y004278D03*
X022906Y004283D03*
X022906Y004373D03*
X023106Y004288D03*
X023108Y004283D03*
X023266Y004283D03*
X023261Y004108D03*
X023261Y004083D03*
X023471Y004083D03*
X023471Y004088D03*
X023471Y004093D03*
X023471Y004098D03*
X023471Y004103D03*
X023471Y004108D03*
X023471Y004113D03*
X023471Y004118D03*
X023471Y004123D03*
X023471Y004128D03*
X023471Y004133D03*
X023471Y004138D03*
X023471Y004143D03*
X023471Y004148D03*
X023471Y004153D03*
X023471Y004158D03*
X023471Y004163D03*
X023471Y004168D03*
X023471Y004258D03*
X023471Y004263D03*
X023471Y004268D03*
X023468Y004273D03*
X023468Y004278D03*
X023618Y004273D03*
X023618Y004268D03*
X023618Y004263D03*
X023821Y004283D03*
X023823Y004278D03*
X023971Y004248D03*
X023971Y004243D03*
X023971Y004238D03*
X023971Y004233D03*
X023971Y004228D03*
X023971Y004223D03*
X023971Y004218D03*
X023971Y004213D03*
X023971Y004208D03*
X023971Y004203D03*
X023971Y004198D03*
X023971Y004193D03*
X023971Y004188D03*
X023971Y004183D03*
X023971Y004178D03*
X023971Y004173D03*
X023971Y004168D03*
X023971Y004163D03*
X023971Y004158D03*
X023971Y004153D03*
X023971Y004148D03*
X023971Y004143D03*
X023971Y004138D03*
X023971Y004133D03*
X023971Y004128D03*
X023971Y004123D03*
X024178Y004088D03*
X024181Y004093D03*
X024183Y004098D03*
X024183Y004103D03*
X024183Y004108D03*
X024183Y004113D03*
X024183Y004128D03*
X024183Y004148D03*
X024183Y004183D03*
X024183Y004208D03*
X024183Y004213D03*
X024183Y004258D03*
X024183Y004263D03*
X024183Y004268D03*
X024183Y004273D03*
X024183Y004278D03*
X024183Y004378D03*
X024183Y004383D03*
X024183Y004388D03*
X024183Y004393D03*
X024183Y004408D03*
X024183Y004423D03*
X024183Y004428D03*
X024183Y004438D03*
X024183Y004448D03*
X024183Y004458D03*
X024183Y004463D03*
X024183Y004478D03*
X024183Y004483D03*
X024183Y004488D03*
X024361Y004818D03*
X024688Y004273D03*
X024688Y004268D03*
X024891Y004288D03*
X024893Y004283D03*
X024893Y004248D03*
X024893Y004183D03*
X025051Y004288D03*
X025251Y004283D03*
X025253Y004273D03*
X025253Y004268D03*
X025253Y004263D03*
X025401Y004263D03*
X025401Y004268D03*
X025403Y004278D03*
X025403Y004283D03*
X025401Y004258D03*
X025401Y004253D03*
X025401Y004248D03*
X025401Y004243D03*
X025401Y004238D03*
X025401Y004233D03*
X025401Y004228D03*
X025401Y004223D03*
X025401Y004218D03*
X025401Y004213D03*
X025401Y004208D03*
X025401Y004113D03*
X025401Y004108D03*
X025401Y004103D03*
X025403Y004093D03*
X025611Y004258D03*
X025606Y004283D03*
X024571Y004083D03*
X024571Y004078D03*
X024433Y004093D03*
X024433Y004113D03*
X024433Y004138D03*
X024433Y004143D03*
X024433Y004163D03*
X024433Y004168D03*
X024433Y004173D03*
X024301Y004078D03*
X024301Y004073D03*
X023471Y004073D03*
X023471Y004078D03*
X023471Y004068D03*
X023471Y004063D03*
X023471Y004058D03*
X023471Y004053D03*
X023471Y004048D03*
X023471Y004043D03*
X023471Y004038D03*
X023471Y004033D03*
X023471Y004028D03*
X023471Y004023D03*
X023471Y004018D03*
X022478Y007178D03*
D23*
X022478Y007175D03*
X024298Y007185D03*
X023986Y004300D03*
X023818Y004295D03*
X023816Y004300D03*
X023626Y004295D03*
X023468Y004250D03*
X023461Y004295D03*
X023468Y004175D03*
X023266Y004070D03*
X023103Y004295D03*
X023101Y004300D03*
X022908Y004290D03*
X023983Y004080D03*
X023986Y004075D03*
X024171Y004075D03*
X024303Y004060D03*
X024306Y004055D03*
X024436Y004075D03*
X024568Y004065D03*
X024568Y004060D03*
X024688Y004075D03*
X024691Y004070D03*
X024688Y004115D03*
X024701Y004300D03*
X024886Y004300D03*
X025053Y004295D03*
X025241Y004300D03*
X025246Y004295D03*
X025413Y004300D03*
X025601Y004295D03*
X025603Y004290D03*
X025601Y004075D03*
X025598Y004070D03*
X025408Y004080D03*
X025406Y004085D03*
X024181Y004285D03*
X021541Y003875D03*
D24*
X021542Y003878D03*
X021652Y003998D03*
X022292Y004018D03*
X022027Y004408D03*
X023267Y004068D03*
X023467Y004248D03*
X023632Y004303D03*
X023817Y004298D03*
X023987Y004303D03*
X024167Y004068D03*
X024307Y004053D03*
X024567Y004058D03*
X024692Y004068D03*
X025417Y004068D03*
D25*
X025418Y004065D03*
X025406Y004195D03*
X025421Y004310D03*
X025233Y004310D03*
X024888Y004240D03*
X024881Y004305D03*
X024693Y004120D03*
X024693Y004065D03*
X024696Y004060D03*
X024701Y004055D03*
X024436Y004065D03*
X024366Y003990D03*
X024166Y004065D03*
X023991Y004065D03*
X023991Y004305D03*
X023811Y004305D03*
X023633Y004305D03*
X023466Y004245D03*
X023453Y004305D03*
X023466Y004180D03*
X023271Y004125D03*
X023276Y004305D03*
X023281Y004310D03*
X023098Y004305D03*
X022911Y004295D03*
X022133Y004140D03*
X022133Y004135D03*
X022133Y004130D03*
X021921Y004240D03*
X021921Y004245D03*
X021921Y004250D03*
X021921Y004255D03*
X021921Y004260D03*
X021543Y003880D03*
X025588Y004060D03*
D26*
X024879Y004308D03*
X024709Y004313D03*
X024694Y004123D03*
X024434Y004063D03*
X024164Y004063D03*
X023809Y004308D03*
X023804Y004313D03*
X023464Y004243D03*
X023364Y004383D03*
X023274Y004053D03*
X022404Y004408D03*
X021544Y003883D03*
X021274Y004408D03*
D27*
X021544Y003885D03*
X022294Y004020D03*
X023094Y004310D03*
X023284Y004315D03*
X023449Y004310D03*
X024359Y004820D03*
X025424Y004315D03*
X025604Y004250D03*
X025584Y004055D03*
X025059Y004305D03*
X024699Y004130D03*
D28*
X024698Y004128D03*
X024703Y004053D03*
X024886Y004238D03*
X024876Y004313D03*
X024713Y004318D03*
X025066Y004313D03*
X025071Y004318D03*
X025148Y004383D03*
X025228Y004318D03*
X025593Y004308D03*
X025408Y004133D03*
X024176Y004298D03*
X024078Y004383D03*
X023996Y004313D03*
X023801Y004318D03*
X023638Y004313D03*
X023448Y004313D03*
X023093Y004313D03*
X023088Y004318D03*
X022913Y004303D03*
X022298Y004283D03*
X022131Y004123D03*
X022296Y004023D03*
X021923Y004273D03*
X021758Y004273D03*
X021758Y004268D03*
X021758Y004263D03*
X021758Y004258D03*
X021758Y004253D03*
X021758Y004248D03*
X021758Y004243D03*
X021758Y004238D03*
X021758Y004233D03*
X021758Y004228D03*
X021758Y004223D03*
X021758Y004218D03*
X021758Y004213D03*
X021758Y004208D03*
X021758Y004203D03*
X021758Y004198D03*
X021758Y004193D03*
X021758Y004188D03*
X021758Y004183D03*
X021758Y004178D03*
X021758Y004173D03*
X021758Y004168D03*
X021758Y004163D03*
X021758Y004158D03*
X021758Y004153D03*
X021758Y004148D03*
X021758Y004143D03*
X021758Y004138D03*
X021758Y004133D03*
X021546Y004133D03*
X021546Y004138D03*
X021546Y004143D03*
X021546Y004148D03*
X021546Y004153D03*
X021546Y004158D03*
X021546Y004163D03*
X021546Y004168D03*
X021546Y004173D03*
X021546Y004178D03*
X021546Y004183D03*
X021546Y004188D03*
X021546Y004193D03*
X021546Y004198D03*
X021546Y004203D03*
X021546Y004208D03*
X021546Y004213D03*
X021546Y004218D03*
X021546Y004223D03*
X021546Y004228D03*
X021546Y004233D03*
X021546Y004238D03*
X021546Y004243D03*
X021546Y004248D03*
X021546Y004253D03*
X021546Y004258D03*
X021546Y004263D03*
X021546Y004268D03*
X021546Y004273D03*
X021546Y004278D03*
X021546Y004128D03*
X021546Y003993D03*
X021546Y003988D03*
X021546Y003983D03*
X021546Y003978D03*
X021546Y003973D03*
X021546Y003968D03*
X021546Y003963D03*
X021546Y003958D03*
X021546Y003953D03*
X021546Y003948D03*
X021546Y003943D03*
X021546Y003938D03*
X021546Y003933D03*
X021546Y003928D03*
X021546Y003923D03*
X021546Y003918D03*
X021546Y003913D03*
X021546Y003908D03*
X021546Y003903D03*
X021546Y003898D03*
X021546Y003893D03*
X021546Y003888D03*
X021171Y004123D03*
X021168Y004128D03*
X021168Y004133D03*
X021168Y004138D03*
X021168Y004143D03*
X021168Y004148D03*
X021168Y004153D03*
X021168Y004158D03*
X021168Y004163D03*
X021168Y004168D03*
X021168Y004173D03*
X021168Y004178D03*
X021168Y004183D03*
X021168Y004188D03*
X021168Y004193D03*
X021168Y004198D03*
X021168Y004203D03*
X021168Y004208D03*
X021168Y004213D03*
X021168Y004218D03*
X021168Y004223D03*
X021168Y004228D03*
X021168Y004233D03*
X021168Y004238D03*
X021168Y004243D03*
X021168Y004248D03*
X021168Y004253D03*
X021168Y004258D03*
X021168Y004263D03*
X021168Y004268D03*
X021168Y004273D03*
X021168Y004278D03*
X021171Y004283D03*
X023843Y004943D03*
X023993Y004063D03*
X024161Y004058D03*
X024298Y007183D03*
D29*
X023993Y004310D03*
X024176Y004300D03*
X024311Y004050D03*
X024711Y004315D03*
X024878Y004310D03*
X025063Y004310D03*
X025068Y004315D03*
X025231Y004315D03*
X025588Y004315D03*
X025596Y004305D03*
X025423Y004060D03*
X023641Y004315D03*
X023463Y004240D03*
X023446Y004315D03*
X023291Y004320D03*
X023091Y004315D03*
X022296Y004025D03*
X022131Y004120D03*
X021923Y004230D03*
X021923Y004275D03*
X021758Y004270D03*
X021758Y004265D03*
X021758Y004260D03*
X021758Y004255D03*
X021758Y004250D03*
X021758Y004245D03*
X021758Y004240D03*
X021758Y004235D03*
X021758Y004230D03*
X021758Y004225D03*
X021758Y004220D03*
X021758Y004215D03*
X021758Y004210D03*
X021758Y004205D03*
X021758Y004200D03*
X021758Y004195D03*
X021758Y004190D03*
X021758Y004185D03*
X021758Y004180D03*
X021758Y004175D03*
X021758Y004170D03*
X021758Y004165D03*
X021758Y004160D03*
X021758Y004155D03*
X021758Y004150D03*
X021758Y004145D03*
X021758Y004140D03*
X021758Y004135D03*
X021758Y004130D03*
X021546Y004130D03*
X021546Y004135D03*
X021546Y004140D03*
X021546Y004145D03*
X021546Y004150D03*
X021546Y004155D03*
X021546Y004160D03*
X021546Y004165D03*
X021546Y004170D03*
X021546Y004175D03*
X021546Y004180D03*
X021546Y004185D03*
X021546Y004190D03*
X021546Y004195D03*
X021546Y004200D03*
X021546Y004205D03*
X021546Y004210D03*
X021546Y004215D03*
X021546Y004220D03*
X021546Y004225D03*
X021546Y004230D03*
X021546Y004235D03*
X021546Y004240D03*
X021546Y004245D03*
X021546Y004250D03*
X021546Y004255D03*
X021546Y004260D03*
X021546Y004265D03*
X021546Y004270D03*
X021546Y004275D03*
X021546Y004280D03*
X021546Y004125D03*
X021546Y003990D03*
X021546Y003985D03*
X021546Y003980D03*
X021546Y003975D03*
X021546Y003970D03*
X021546Y003965D03*
X021546Y003960D03*
X021546Y003955D03*
X021546Y003950D03*
X021546Y003945D03*
X021546Y003940D03*
X021546Y003935D03*
X021546Y003930D03*
X021546Y003925D03*
X021546Y003920D03*
X021546Y003915D03*
X021546Y003910D03*
X021546Y003905D03*
X021546Y003900D03*
X021546Y003895D03*
X021546Y003890D03*
X021171Y004125D03*
X021168Y004130D03*
X021168Y004135D03*
X021168Y004140D03*
X021168Y004145D03*
X021168Y004150D03*
X021168Y004155D03*
X021168Y004160D03*
X021168Y004165D03*
X021168Y004170D03*
X021168Y004175D03*
X021168Y004180D03*
X021168Y004185D03*
X021168Y004190D03*
X021168Y004195D03*
X021168Y004200D03*
X021168Y004205D03*
X021168Y004210D03*
X021168Y004215D03*
X021168Y004220D03*
X021168Y004225D03*
X021168Y004230D03*
X021168Y004235D03*
X021168Y004240D03*
X021168Y004245D03*
X021168Y004250D03*
X021168Y004255D03*
X021168Y004260D03*
X021168Y004265D03*
X021168Y004270D03*
X021168Y004275D03*
X021171Y004280D03*
D30*
X023334Y003988D03*
D31*
X023347Y003988D03*
X024067Y003988D03*
X024077Y003988D03*
D32*
X024353Y003988D03*
X024518Y003988D03*
X024666Y004228D03*
X024201Y004518D03*
X023358Y003988D03*
X022883Y003993D03*
X022278Y003998D03*
X022918Y004518D03*
X025486Y003988D03*
D33*
X025519Y003988D03*
X024769Y003988D03*
X024089Y003988D03*
X023369Y003988D03*
X024359Y004803D03*
D34*
X024374Y003988D03*
X025499Y003988D03*
D35*
X024788Y003988D03*
X024778Y003988D03*
D36*
X025507Y003988D03*
X022157Y004173D03*
D37*
X023097Y003990D03*
X023597Y003990D03*
X022462Y004775D03*
D38*
X022027Y004405D03*
X022127Y004300D03*
X022127Y004295D03*
X022127Y004275D03*
X021927Y004295D03*
X021927Y004135D03*
X021752Y004105D03*
X021752Y004300D03*
X021652Y004405D03*
X021552Y004300D03*
X021177Y004305D03*
X021177Y004105D03*
X022917Y004310D03*
X023352Y003990D03*
X024077Y003990D03*
X024707Y004050D03*
X024882Y004235D03*
X024867Y004320D03*
D39*
X024704Y004305D03*
X024564Y004055D03*
X024504Y003990D03*
X024434Y004070D03*
X024169Y004070D03*
X024179Y004290D03*
X024179Y004370D03*
X023629Y004300D03*
X023269Y004060D03*
X022134Y004145D03*
X025054Y004300D03*
X025404Y004125D03*
X025414Y004070D03*
X025599Y004300D03*
D40*
X024874Y004315D03*
X024704Y004135D03*
X024779Y003990D03*
X024559Y004050D03*
X024434Y004060D03*
X023994Y004060D03*
X022914Y004305D03*
X022509Y004285D03*
X022299Y004285D03*
X022299Y004290D03*
X022129Y004115D03*
X021924Y004120D03*
X021924Y004125D03*
X021924Y004280D03*
X021379Y004280D03*
X021379Y004275D03*
X021379Y004270D03*
X021379Y004265D03*
X021379Y004260D03*
X021379Y004255D03*
X021379Y004250D03*
X021379Y004245D03*
X021379Y004240D03*
X021379Y004235D03*
X021379Y004230D03*
X021379Y004225D03*
X021379Y004220D03*
X021379Y004215D03*
X021379Y004210D03*
X021379Y004205D03*
X021379Y004200D03*
X021379Y004195D03*
X021379Y004190D03*
X021379Y004185D03*
X021379Y004180D03*
X021379Y004175D03*
X021379Y004170D03*
X021379Y004165D03*
X021379Y004160D03*
X021379Y004155D03*
X021379Y004150D03*
X021379Y004145D03*
X021379Y004140D03*
X021379Y004135D03*
X021379Y004130D03*
X021379Y004125D03*
X021379Y004120D03*
X022509Y004025D03*
X022479Y007170D03*
D41*
X024453Y004380D03*
X024808Y004050D03*
X024881Y003990D03*
X023381Y004050D03*
D42*
X025026Y003990D03*
D43*
X025411Y004135D03*
X025508Y003990D03*
X025578Y004050D03*
X025581Y004320D03*
X025226Y004320D03*
X024718Y004320D03*
X024173Y004305D03*
X024003Y004320D03*
X023796Y004320D03*
X023646Y004320D03*
X023083Y004320D03*
X023278Y004135D03*
X023278Y004050D03*
X023998Y004055D03*
X024158Y004055D03*
X022511Y004055D03*
X022511Y004060D03*
X022511Y004065D03*
X022511Y004070D03*
X022511Y004075D03*
X022511Y004080D03*
X022511Y004085D03*
X022511Y004090D03*
X022511Y004095D03*
X022511Y004100D03*
X022511Y004105D03*
X022511Y004110D03*
X022511Y004115D03*
X022511Y004120D03*
X022511Y004125D03*
X022511Y004130D03*
X022511Y004135D03*
X022511Y004140D03*
X022511Y004145D03*
X022511Y004150D03*
X022511Y004155D03*
X022511Y004160D03*
X022511Y004165D03*
X022511Y004170D03*
X022511Y004175D03*
X022511Y004180D03*
X022511Y004185D03*
X022511Y004190D03*
X022511Y004195D03*
X022511Y004200D03*
X022511Y004205D03*
X022511Y004210D03*
X022511Y004215D03*
X022511Y004220D03*
X022511Y004225D03*
X022511Y004230D03*
X022511Y004235D03*
X022511Y004240D03*
X022511Y004245D03*
X022511Y004250D03*
X022511Y004255D03*
X022511Y004260D03*
X022511Y004265D03*
X022511Y004270D03*
X022511Y004275D03*
X022511Y004280D03*
X022508Y004290D03*
X022508Y004295D03*
X022306Y004300D03*
X022303Y004295D03*
X022128Y004290D03*
X022128Y004285D03*
X022128Y004280D03*
X022128Y004110D03*
X022128Y004105D03*
X022028Y004000D03*
X021928Y004105D03*
X021926Y004110D03*
X021926Y004115D03*
X021926Y004130D03*
X021926Y004285D03*
X021926Y004290D03*
X021928Y004300D03*
X021756Y004290D03*
X021756Y004115D03*
X021548Y004110D03*
X021548Y004000D03*
X021376Y004105D03*
X021376Y004110D03*
X021378Y004115D03*
X021378Y004285D03*
X021378Y004290D03*
X021376Y004295D03*
X021376Y004300D03*
X021548Y004295D03*
X021176Y004300D03*
X021173Y004295D03*
X021173Y004115D03*
X021176Y004110D03*
X022511Y004050D03*
X022511Y004045D03*
X022511Y004040D03*
X022511Y004035D03*
X022511Y004030D03*
X023843Y004945D03*
X024298Y007180D03*
D44*
X024889Y004003D03*
X023459Y004003D03*
X021274Y003993D03*
D45*
X021652Y003993D03*
X022492Y004003D03*
X023377Y004048D03*
X022912Y004513D03*
D46*
X022407Y004413D03*
X022027Y003993D03*
X024192Y004508D03*
X025247Y004243D03*
D47*
X025026Y003993D03*
X024881Y003993D03*
X023598Y003993D03*
X023451Y003993D03*
X023098Y003993D03*
D48*
X023352Y003993D03*
X024077Y003993D03*
X024877Y004233D03*
X024732Y004328D03*
X025507Y003993D03*
X022922Y004318D03*
X021937Y004318D03*
X021367Y004318D03*
X021937Y004088D03*
X024297Y007173D03*
D49*
X022976Y004933D03*
X022916Y004308D03*
X022511Y004283D03*
X022511Y004278D03*
X022511Y004273D03*
X022511Y004268D03*
X022511Y004263D03*
X022511Y004258D03*
X022511Y004253D03*
X022511Y004248D03*
X022511Y004243D03*
X022511Y004238D03*
X022511Y004233D03*
X022511Y004228D03*
X022511Y004223D03*
X022511Y004218D03*
X022511Y004213D03*
X022511Y004208D03*
X022511Y004203D03*
X022511Y004198D03*
X022511Y004193D03*
X022511Y004188D03*
X022511Y004183D03*
X022511Y004178D03*
X022511Y004173D03*
X022511Y004168D03*
X022511Y004163D03*
X022511Y004158D03*
X022511Y004153D03*
X022511Y004148D03*
X022511Y004143D03*
X022511Y004138D03*
X022511Y004133D03*
X022511Y004128D03*
X022511Y004123D03*
X022511Y004118D03*
X022511Y004113D03*
X022511Y004108D03*
X022511Y004103D03*
X022511Y004098D03*
X022511Y004093D03*
X022511Y004088D03*
X022511Y004083D03*
X022511Y004078D03*
X022511Y004073D03*
X022511Y004068D03*
X022511Y004063D03*
X022511Y004058D03*
X022511Y004053D03*
X022511Y004048D03*
X022511Y004043D03*
X022511Y004038D03*
X022511Y004033D03*
X022511Y004028D03*
X022508Y004293D03*
X022128Y004288D03*
X022128Y004283D03*
X022128Y004108D03*
X021926Y004113D03*
X021926Y004118D03*
X021926Y004133D03*
X021926Y004288D03*
X021926Y004293D03*
X021756Y004293D03*
X021753Y004298D03*
X021756Y004113D03*
X021753Y004108D03*
X021548Y004113D03*
X021378Y004113D03*
X021378Y004118D03*
X021376Y004108D03*
X021378Y004288D03*
X021378Y004293D03*
X021376Y004298D03*
X021548Y004293D03*
X021176Y004298D03*
X021176Y004303D03*
X021173Y004293D03*
X021173Y004118D03*
X021176Y004113D03*
X021176Y004108D03*
X023461Y004238D03*
X024156Y004053D03*
X024366Y003993D03*
X024433Y004058D03*
X024503Y003993D03*
D50*
X024778Y003993D03*
X025573Y004048D03*
X025576Y004323D03*
X025221Y004323D03*
X023651Y004323D03*
X023436Y004323D03*
X023283Y004048D03*
X022118Y004088D03*
X021933Y004093D03*
X022123Y004308D03*
X022121Y004313D03*
X021933Y004313D03*
X021561Y004318D03*
X021371Y004313D03*
X021183Y004318D03*
X021183Y004093D03*
X021368Y004093D03*
X021371Y004098D03*
X021553Y004098D03*
D51*
X021274Y003995D03*
X023114Y004030D03*
X023114Y004035D03*
X023114Y004040D03*
X023114Y004045D03*
X023114Y004050D03*
X023114Y004055D03*
X023114Y004060D03*
X023114Y004065D03*
X023114Y004070D03*
X023114Y004075D03*
X023114Y004080D03*
X023114Y004085D03*
X023114Y004090D03*
X023114Y004095D03*
X023114Y004100D03*
X023114Y004105D03*
X023114Y004110D03*
X023114Y004115D03*
X023114Y004120D03*
X023114Y004125D03*
X023114Y004130D03*
X023114Y004135D03*
X023114Y004140D03*
X023114Y004145D03*
X023114Y004150D03*
X023114Y004155D03*
X023114Y004160D03*
X023114Y004165D03*
X023114Y004170D03*
X023114Y004175D03*
X023114Y004180D03*
X023114Y004185D03*
X023114Y004190D03*
X023114Y004195D03*
X023114Y004200D03*
X023114Y004205D03*
X023114Y004210D03*
X023114Y004215D03*
X023114Y004220D03*
X023114Y004225D03*
X023114Y004230D03*
X023114Y004235D03*
X023114Y004240D03*
X023114Y004245D03*
X023114Y004250D03*
X023259Y004265D03*
X024574Y004265D03*
X024574Y004270D03*
X024574Y004275D03*
X024574Y004280D03*
X024574Y004285D03*
X024574Y004290D03*
X024574Y004295D03*
X024574Y004300D03*
X024574Y004305D03*
X024574Y004310D03*
X024574Y004315D03*
X024574Y004320D03*
X024574Y004325D03*
X024574Y004330D03*
X024574Y004335D03*
X024574Y004340D03*
X024574Y004345D03*
X024574Y004350D03*
X024574Y004355D03*
X024574Y004260D03*
X024574Y004255D03*
X024574Y004250D03*
X024574Y004245D03*
X024574Y004240D03*
X024574Y004235D03*
X024574Y004230D03*
X024574Y004225D03*
X024574Y004220D03*
X024574Y004215D03*
X024574Y004210D03*
X024574Y004205D03*
X024574Y004200D03*
X024574Y004195D03*
X024574Y004190D03*
X024574Y004185D03*
X024574Y004180D03*
X024574Y004175D03*
X024574Y004170D03*
X024574Y004165D03*
X024574Y004160D03*
X024574Y004155D03*
X024574Y004150D03*
X024574Y004145D03*
X024574Y004140D03*
X024574Y004135D03*
X024574Y004130D03*
X024574Y004125D03*
X024574Y004120D03*
X024574Y004115D03*
X024574Y004110D03*
X024574Y004105D03*
X024574Y004100D03*
X024574Y004095D03*
X024684Y004250D03*
X025044Y004270D03*
X025614Y004125D03*
D52*
X025427Y004055D03*
X025592Y004310D03*
X024162Y004060D03*
X023997Y004315D03*
X022462Y004795D03*
X022297Y004280D03*
X022297Y004275D03*
X022297Y004270D03*
X022297Y004265D03*
X022297Y004260D03*
X022297Y004255D03*
X022297Y004250D03*
X022297Y004245D03*
X022297Y004240D03*
X022297Y004235D03*
X022297Y004230D03*
X022297Y004225D03*
X022297Y004220D03*
X022297Y004215D03*
X022297Y004210D03*
X022297Y004205D03*
X022297Y004200D03*
X022297Y004195D03*
X022297Y004190D03*
X022297Y004185D03*
X022297Y004180D03*
X022297Y004175D03*
X022297Y004170D03*
X022297Y004165D03*
X022297Y004160D03*
X022297Y004155D03*
X022297Y004150D03*
X022297Y004145D03*
X022297Y004140D03*
X022297Y004135D03*
X022297Y004130D03*
X022297Y004125D03*
X022297Y004120D03*
X022297Y004115D03*
X022297Y004110D03*
X022297Y004105D03*
X022297Y004100D03*
X022297Y004095D03*
X022297Y004090D03*
X022297Y004085D03*
X022297Y004080D03*
X022297Y004075D03*
X022297Y004070D03*
X022297Y004065D03*
X022297Y004060D03*
X022297Y004055D03*
X022297Y004050D03*
X022297Y004045D03*
X022297Y004040D03*
X022297Y004035D03*
X022297Y004030D03*
X021757Y004120D03*
X021757Y004125D03*
X021757Y004275D03*
X021757Y004280D03*
X021757Y004285D03*
X021547Y004285D03*
X021547Y004290D03*
X021547Y004120D03*
X021547Y004115D03*
X021547Y003995D03*
X021172Y004120D03*
X021172Y004285D03*
X021172Y004290D03*
D53*
X021652Y003995D03*
X022027Y003995D03*
X022902Y004015D03*
X022902Y004020D03*
X023257Y004245D03*
X023257Y004250D03*
X023827Y004255D03*
X023827Y004260D03*
X024297Y004355D03*
X024297Y004360D03*
X024437Y004360D03*
X024897Y004265D03*
X024897Y004260D03*
X024897Y004170D03*
X024897Y004165D03*
X024897Y004160D03*
X024897Y004155D03*
X024897Y004150D03*
X024897Y004145D03*
X024897Y004140D03*
X024897Y004135D03*
X024897Y004130D03*
X024897Y004125D03*
X024897Y004120D03*
X024897Y004115D03*
X024897Y004110D03*
X024897Y004105D03*
X024897Y004100D03*
X024897Y004095D03*
X024897Y004090D03*
X024897Y004085D03*
X024897Y004080D03*
X024897Y004075D03*
X024897Y004070D03*
X024897Y004065D03*
X024897Y004060D03*
X024897Y004055D03*
X024897Y004050D03*
X024897Y004045D03*
X024897Y004040D03*
X024897Y004035D03*
X024897Y004030D03*
X024897Y004025D03*
X024897Y004020D03*
X025042Y004020D03*
X025042Y004015D03*
X025042Y004025D03*
X025042Y004030D03*
X025042Y004035D03*
X025042Y004040D03*
X025042Y004045D03*
X025042Y004050D03*
X025042Y004055D03*
X025042Y004060D03*
X025042Y004065D03*
X025042Y004070D03*
X025042Y004075D03*
X025042Y004080D03*
X025042Y004085D03*
X025042Y004090D03*
X025042Y004095D03*
X025042Y004100D03*
X025042Y004105D03*
X025042Y004110D03*
X025042Y004115D03*
X025042Y004120D03*
X025042Y004125D03*
X025042Y004130D03*
X025042Y004135D03*
X025042Y004140D03*
X025042Y004145D03*
X025042Y004150D03*
X025042Y004155D03*
X025042Y004160D03*
X025042Y004165D03*
X025042Y004170D03*
X025042Y004175D03*
X025042Y004180D03*
X025042Y004185D03*
X025042Y004190D03*
X025042Y004195D03*
X025042Y004200D03*
X025042Y004205D03*
X025042Y004210D03*
X025042Y004215D03*
X025042Y004220D03*
X025042Y004225D03*
X025042Y004230D03*
X025042Y004235D03*
X025042Y004240D03*
X025042Y004245D03*
X025042Y004250D03*
X025042Y004255D03*
X025042Y004260D03*
X025252Y004250D03*
D54*
X022884Y003995D03*
D55*
X023098Y003995D03*
X023453Y003995D03*
X023598Y003995D03*
X022488Y004000D03*
X022156Y004170D03*
X025238Y004235D03*
D56*
X025567Y004045D03*
X023432Y004325D03*
X023352Y003995D03*
X022487Y004325D03*
X022117Y004320D03*
X021187Y004085D03*
D57*
X021191Y004325D03*
X021358Y004325D03*
X021568Y004325D03*
X021736Y004325D03*
X022321Y004325D03*
X021936Y004145D03*
X021736Y004080D03*
X023291Y004145D03*
X024021Y004330D03*
X024163Y004320D03*
X024736Y004330D03*
X024873Y004230D03*
X024503Y004000D03*
X024366Y004000D03*
X024078Y003995D03*
X025446Y004330D03*
X025506Y003995D03*
D58*
X025433Y004050D03*
X024503Y003995D03*
X024366Y003995D03*
X024171Y004310D03*
X023441Y004320D03*
X022403Y004405D03*
X022311Y004310D03*
X022308Y004305D03*
X022126Y004100D03*
X022123Y004095D03*
X021748Y004100D03*
X021746Y004095D03*
X021651Y004000D03*
X021551Y004105D03*
X021373Y004100D03*
X021178Y004100D03*
X021373Y004305D03*
X021178Y004310D03*
X021746Y004310D03*
X021748Y004305D03*
D59*
X022109Y004080D03*
X022924Y004320D03*
X024719Y004145D03*
X024779Y003995D03*
X025419Y004140D03*
D60*
X025627Y004140D03*
X025027Y003995D03*
X024882Y003995D03*
X024312Y004375D03*
X024077Y004385D03*
D61*
X024434Y004068D03*
X024889Y004243D03*
X024884Y004303D03*
X025239Y004303D03*
X025419Y004308D03*
X025504Y004383D03*
X025404Y004128D03*
X025409Y004078D03*
X025414Y004073D03*
X025594Y004068D03*
X023839Y004938D03*
X022979Y004928D03*
X023099Y004303D03*
X023274Y004303D03*
X023454Y004303D03*
X023269Y004063D03*
X022909Y004293D03*
X022504Y004018D03*
X022134Y004148D03*
X021274Y003998D03*
D62*
X021547Y003998D03*
X021547Y004118D03*
X021547Y004123D03*
X021547Y004283D03*
X021547Y004288D03*
X021757Y004288D03*
X021757Y004283D03*
X021757Y004278D03*
X021757Y004128D03*
X021757Y004123D03*
X021757Y004118D03*
X022297Y004118D03*
X022297Y004123D03*
X022297Y004128D03*
X022297Y004133D03*
X022297Y004138D03*
X022297Y004143D03*
X022297Y004148D03*
X022297Y004153D03*
X022297Y004158D03*
X022297Y004163D03*
X022297Y004168D03*
X022297Y004173D03*
X022297Y004178D03*
X022297Y004183D03*
X022297Y004188D03*
X022297Y004193D03*
X022297Y004198D03*
X022297Y004203D03*
X022297Y004208D03*
X022297Y004213D03*
X022297Y004218D03*
X022297Y004223D03*
X022297Y004228D03*
X022297Y004233D03*
X022297Y004238D03*
X022297Y004243D03*
X022297Y004248D03*
X022297Y004253D03*
X022297Y004258D03*
X022297Y004263D03*
X022297Y004268D03*
X022297Y004273D03*
X022297Y004278D03*
X022302Y004293D03*
X022297Y004113D03*
X022297Y004108D03*
X022297Y004103D03*
X022297Y004098D03*
X022297Y004093D03*
X022297Y004088D03*
X022297Y004083D03*
X022297Y004078D03*
X022297Y004073D03*
X022297Y004068D03*
X022297Y004063D03*
X022297Y004058D03*
X022297Y004053D03*
X022297Y004048D03*
X022297Y004043D03*
X022297Y004038D03*
X022297Y004033D03*
X022297Y004028D03*
X021172Y004288D03*
X023642Y004318D03*
X023997Y004058D03*
X024872Y004318D03*
X025427Y004318D03*
X025602Y004248D03*
D63*
X025602Y004083D03*
X025602Y004078D03*
X025402Y004098D03*
X025402Y004118D03*
X025402Y004203D03*
X025402Y004273D03*
X025407Y004293D03*
X025252Y004278D03*
X025247Y004293D03*
X025052Y004293D03*
X024697Y004293D03*
X024687Y004108D03*
X024687Y004103D03*
X024687Y004098D03*
X024687Y004093D03*
X024687Y004088D03*
X024687Y004083D03*
X024687Y004078D03*
X024302Y004068D03*
X024302Y004063D03*
X024177Y004083D03*
X023982Y004083D03*
X023982Y004288D03*
X024182Y004283D03*
X024182Y004373D03*
X023622Y004288D03*
X023467Y004283D03*
X023462Y004293D03*
X023267Y004288D03*
X023102Y004298D03*
X022907Y004288D03*
X023262Y004078D03*
X022027Y003998D03*
D64*
X022887Y003998D03*
X023817Y004238D03*
X024452Y004378D03*
X022992Y004913D03*
D65*
X023244Y004233D03*
X023099Y003998D03*
D66*
X023351Y003998D03*
X022928Y004323D03*
X022481Y004333D03*
X022323Y004328D03*
X022108Y004328D03*
X021938Y004148D03*
X021948Y004078D03*
X021351Y004073D03*
X021198Y004333D03*
X021573Y004333D03*
X024778Y003998D03*
X024871Y004228D03*
X025148Y004378D03*
D67*
X024449Y004373D03*
X023454Y003998D03*
X022279Y004003D03*
D68*
X023601Y003998D03*
X024311Y004373D03*
X024671Y004233D03*
X024883Y003998D03*
X025028Y003998D03*
D69*
X024728Y004153D03*
X024503Y004003D03*
X024078Y003998D03*
X023446Y004228D03*
X023303Y004153D03*
X024078Y004373D03*
X023856Y004958D03*
X022963Y004943D03*
X022328Y004333D03*
X022103Y004333D03*
X021728Y004333D03*
X021728Y004073D03*
X021201Y004073D03*
X025426Y004148D03*
X025506Y003998D03*
X025586Y004233D03*
X024296Y007168D03*
X022481Y007158D03*
D70*
X022314Y004318D03*
X021554Y004093D03*
X024364Y003998D03*
X024434Y004053D03*
X024504Y003998D03*
D71*
X025074Y004320D03*
X025429Y004320D03*
X025599Y004245D03*
X024359Y004825D03*
X022504Y004300D03*
X021929Y004305D03*
X021754Y004295D03*
X021754Y004110D03*
X021929Y004100D03*
X021274Y004000D03*
D72*
X022277Y004000D03*
X023007Y004385D03*
X023242Y004230D03*
X024667Y004230D03*
X024792Y004385D03*
X022992Y004910D03*
D73*
X022988Y004915D03*
X024308Y004370D03*
X024673Y004235D03*
X024886Y004000D03*
X023603Y004000D03*
X023246Y004235D03*
X022888Y004000D03*
D74*
X023102Y004000D03*
X022462Y004780D03*
D75*
X022464Y004805D03*
X023009Y004375D03*
X023664Y004330D03*
X023349Y004000D03*
X022099Y004070D03*
X021949Y004075D03*
X021939Y004150D03*
X022114Y004265D03*
X023854Y004955D03*
X025504Y004375D03*
X025424Y004145D03*
D76*
X024447Y004370D03*
X023457Y004000D03*
D77*
X023309Y004155D03*
X024079Y004000D03*
X024864Y004220D03*
X025504Y004000D03*
X024154Y004325D03*
X022464Y004810D03*
X022334Y004335D03*
D78*
X021957Y004070D03*
X021347Y004070D03*
X022932Y004325D03*
X022962Y004945D03*
X024777Y004000D03*
D79*
X025029Y004000D03*
X022914Y004515D03*
D80*
X023659Y004328D03*
X023294Y004148D03*
X021354Y004078D03*
X021274Y004003D03*
X021354Y004328D03*
X021274Y004403D03*
D81*
X021181Y004313D03*
X021553Y004303D03*
X021556Y004308D03*
X021746Y004313D03*
X021931Y004308D03*
X022126Y004303D03*
X022126Y004273D03*
X022308Y004308D03*
X022311Y004313D03*
X022501Y004308D03*
X022503Y004303D03*
X022918Y004313D03*
X023078Y004323D03*
X023296Y004323D03*
X024008Y004323D03*
X024723Y004323D03*
X024708Y004138D03*
X023846Y004948D03*
X021931Y004098D03*
X021748Y004098D03*
X021746Y004093D03*
X021551Y004003D03*
D82*
X021652Y004003D03*
X021732Y004078D03*
X022102Y004073D03*
X021947Y004328D03*
X022027Y004403D03*
X021192Y004328D03*
X023722Y004378D03*
X025212Y004328D03*
X025422Y004143D03*
D83*
X025568Y004328D03*
X025086Y004328D03*
X024853Y004328D03*
X024793Y004378D03*
X024721Y004148D03*
X024078Y004378D03*
X023428Y004328D03*
X023366Y004378D03*
X023288Y004143D03*
X022486Y004328D03*
X022403Y004403D03*
X021941Y004083D03*
X022028Y004003D03*
X021361Y004083D03*
X021571Y004328D03*
X021653Y004403D03*
X021733Y004328D03*
X024358Y004833D03*
X022481Y007163D03*
D84*
X022462Y004783D03*
X022027Y004413D03*
X021277Y004413D03*
X022892Y004003D03*
X023822Y004243D03*
X024677Y004238D03*
D85*
X025033Y004003D03*
X024196Y004513D03*
X023606Y004003D03*
X023106Y004003D03*
D86*
X023347Y004003D03*
X023442Y004223D03*
X025147Y004373D03*
D87*
X024079Y004003D03*
X023434Y004218D03*
D88*
X024159Y004323D03*
X024364Y004003D03*
X021349Y004333D03*
X021194Y004078D03*
D89*
X022109Y004258D03*
X022934Y004328D03*
X022959Y004948D03*
X023859Y004963D03*
X024774Y004003D03*
D90*
X024754Y004168D03*
X024859Y004218D03*
X025504Y004003D03*
X023319Y004163D03*
X022104Y004253D03*
D91*
X021274Y004400D03*
X021274Y004005D03*
X025504Y004370D03*
D92*
X024351Y004875D03*
X022978Y004365D03*
X022403Y004370D03*
X022471Y004845D03*
X021651Y004370D03*
X021276Y004370D03*
X021611Y004005D03*
X022486Y007120D03*
D93*
X024296Y007165D03*
X024356Y004840D03*
X024736Y004155D03*
X022028Y004005D03*
X021343Y004335D03*
D94*
X022148Y004165D03*
X022283Y004005D03*
X023823Y004245D03*
X024361Y004810D03*
D95*
X024679Y004240D03*
X023609Y004005D03*
X023109Y004005D03*
X022494Y004005D03*
D96*
X022897Y004005D03*
X024892Y004005D03*
D97*
X024771Y004005D03*
X024743Y004160D03*
X025148Y004370D03*
X023861Y004965D03*
X023366Y004370D03*
X023438Y004220D03*
X023316Y004160D03*
X023346Y004005D03*
X022938Y004330D03*
X021948Y004155D03*
D98*
X022404Y004395D03*
X023344Y004175D03*
X024079Y004005D03*
X025504Y004005D03*
X025519Y004195D03*
X024354Y004850D03*
X022949Y004955D03*
X021274Y004010D03*
D99*
X021652Y004400D03*
X022027Y004400D03*
X022107Y004255D03*
X022402Y004400D03*
X023722Y004370D03*
X024077Y004370D03*
X024792Y004370D03*
X025577Y004225D03*
X024367Y004005D03*
D100*
X024499Y004005D03*
X024749Y004165D03*
X022464Y004815D03*
D101*
X022908Y004505D03*
X023373Y004045D03*
X024191Y004505D03*
X024441Y004365D03*
X024578Y004365D03*
X025248Y004245D03*
X025038Y004005D03*
D102*
X024768Y004013D03*
X025438Y004158D03*
X025566Y004218D03*
X024793Y004368D03*
X024356Y004848D03*
X023366Y004368D03*
X022403Y004398D03*
X022466Y004818D03*
X022953Y004953D03*
X021651Y004398D03*
X021276Y004008D03*
X022028Y004008D03*
X024296Y007158D03*
D103*
X022471Y004848D03*
X022028Y004368D03*
X021651Y004368D03*
X021276Y004368D03*
X021276Y004038D03*
X021613Y004008D03*
X022981Y004363D03*
X025506Y004038D03*
D104*
X025249Y004248D03*
X024894Y004008D03*
X022899Y004008D03*
X022284Y004008D03*
D105*
X022497Y004008D03*
X023612Y004008D03*
X024577Y004363D03*
X024682Y004243D03*
X022907Y004503D03*
X022477Y007183D03*
D106*
X023833Y004933D03*
X024361Y004813D03*
X025618Y004133D03*
X023111Y004008D03*
X022146Y004163D03*
D107*
X021952Y004158D03*
X023327Y004168D03*
X023342Y004008D03*
D108*
X023258Y004093D03*
X023258Y004098D03*
X023258Y004253D03*
X023258Y004258D03*
X023261Y004268D03*
X023261Y004273D03*
X023263Y004278D03*
X023113Y004268D03*
X023113Y004263D03*
X023113Y004258D03*
X023113Y004253D03*
X023111Y004278D03*
X022903Y004258D03*
X022903Y004253D03*
X022903Y004248D03*
X022903Y004243D03*
X022903Y004238D03*
X022903Y004233D03*
X022903Y004228D03*
X022903Y004223D03*
X022903Y004218D03*
X022903Y004213D03*
X022903Y004208D03*
X022903Y004203D03*
X022903Y004198D03*
X022903Y004193D03*
X022903Y004188D03*
X022903Y004183D03*
X022903Y004178D03*
X022903Y004173D03*
X022903Y004168D03*
X022903Y004163D03*
X022903Y004158D03*
X022903Y004153D03*
X022903Y004148D03*
X022903Y004143D03*
X022903Y004138D03*
X022903Y004133D03*
X022903Y004128D03*
X022903Y004123D03*
X022903Y004118D03*
X022903Y004113D03*
X022903Y004108D03*
X022903Y004103D03*
X022903Y004098D03*
X022903Y004093D03*
X022903Y004088D03*
X022903Y004083D03*
X022903Y004078D03*
X022903Y004073D03*
X022903Y004068D03*
X022903Y004063D03*
X022903Y004058D03*
X022903Y004053D03*
X022903Y004048D03*
X022903Y004043D03*
X022903Y004038D03*
X022903Y004033D03*
X022903Y004028D03*
X022903Y004378D03*
X022903Y004383D03*
X022903Y004388D03*
X022903Y004393D03*
X022903Y004398D03*
X022903Y004403D03*
X022903Y004408D03*
X022903Y004413D03*
X022903Y004418D03*
X022903Y004423D03*
X022903Y004428D03*
X022903Y004433D03*
X022903Y004438D03*
X022903Y004443D03*
X022903Y004448D03*
X022903Y004453D03*
X022903Y004458D03*
X022903Y004463D03*
X022903Y004468D03*
X022903Y004473D03*
X022903Y004478D03*
X022903Y004483D03*
X022903Y004488D03*
X022903Y004493D03*
X022981Y004923D03*
X024296Y004353D03*
X024296Y004348D03*
X024296Y004343D03*
X024296Y004338D03*
X024296Y004333D03*
X024296Y004328D03*
X024296Y004323D03*
X024296Y004318D03*
X024296Y004313D03*
X024296Y004308D03*
X024296Y004303D03*
X024296Y004298D03*
X024296Y004293D03*
X024296Y004288D03*
X024296Y004283D03*
X024296Y004278D03*
X024296Y004273D03*
X024296Y004268D03*
X024296Y004263D03*
X024296Y004258D03*
X024296Y004253D03*
X024296Y004248D03*
X024296Y004243D03*
X024296Y004238D03*
X024296Y004233D03*
X024296Y004228D03*
X024296Y004223D03*
X024296Y004218D03*
X024296Y004213D03*
X024296Y004208D03*
X024296Y004203D03*
X024296Y004198D03*
X024296Y004193D03*
X024296Y004188D03*
X024296Y004183D03*
X024296Y004178D03*
X024296Y004173D03*
X024296Y004168D03*
X024296Y004163D03*
X024296Y004158D03*
X024296Y004153D03*
X024296Y004148D03*
X024296Y004143D03*
X024296Y004138D03*
X024296Y004133D03*
X024296Y004128D03*
X024296Y004123D03*
X024296Y004118D03*
X024296Y004113D03*
X024296Y004108D03*
X024296Y004103D03*
X024296Y004098D03*
X024296Y004093D03*
X024298Y004088D03*
X024436Y004203D03*
X024436Y004208D03*
X024436Y004213D03*
X024436Y004218D03*
X024436Y004223D03*
X024436Y004228D03*
X024436Y004233D03*
X024436Y004238D03*
X024436Y004243D03*
X024436Y004248D03*
X024436Y004253D03*
X024436Y004258D03*
X024436Y004263D03*
X024436Y004268D03*
X024436Y004273D03*
X024436Y004278D03*
X024436Y004283D03*
X024436Y004288D03*
X024436Y004293D03*
X024436Y004298D03*
X024436Y004303D03*
X024436Y004308D03*
X024436Y004313D03*
X024436Y004318D03*
X024436Y004323D03*
X024436Y004328D03*
X024436Y004333D03*
X024436Y004338D03*
X024436Y004343D03*
X024436Y004348D03*
X024436Y004353D03*
X024436Y004358D03*
X024686Y004253D03*
X024896Y004253D03*
X024896Y004273D03*
X024896Y004178D03*
X024896Y004173D03*
X025043Y004263D03*
X025043Y004268D03*
X025046Y004273D03*
X025253Y004253D03*
X025608Y004273D03*
X025611Y004263D03*
X025613Y004123D03*
X025613Y004118D03*
X025613Y004113D03*
X025611Y004108D03*
X025611Y004103D03*
X025608Y004098D03*
X023976Y004098D03*
X023973Y004103D03*
X023973Y004268D03*
X023976Y004278D03*
X023828Y004263D03*
X023826Y004268D03*
X023616Y004018D03*
X023468Y004008D03*
D109*
X023326Y004033D03*
X024078Y004008D03*
X024848Y004208D03*
X024353Y004853D03*
X022028Y004393D03*
X021276Y004393D03*
D110*
X022474Y004868D03*
X024434Y004008D03*
D111*
X024771Y004008D03*
X023863Y004968D03*
D112*
X024188Y004503D03*
X024298Y004363D03*
X024438Y004363D03*
X024683Y004248D03*
X024896Y004013D03*
X025041Y004008D03*
X023826Y004253D03*
X023256Y004243D03*
X023113Y004023D03*
X023113Y004018D03*
X023113Y004013D03*
D113*
X022404Y004393D03*
X024749Y004038D03*
X024754Y004033D03*
X025504Y004008D03*
D114*
X025506Y004040D03*
X024078Y004040D03*
X024106Y004360D03*
X022028Y004365D03*
X021616Y004010D03*
X021276Y004040D03*
X021276Y004365D03*
D115*
X021652Y004395D03*
X021957Y004165D03*
X022027Y004010D03*
X023332Y004020D03*
X024762Y004020D03*
X022467Y004820D03*
D116*
X022903Y004495D03*
X022903Y004490D03*
X022903Y004480D03*
X022903Y004475D03*
X022903Y004470D03*
X022903Y004465D03*
X022903Y004460D03*
X022903Y004455D03*
X022903Y004450D03*
X022903Y004445D03*
X022903Y004440D03*
X022903Y004435D03*
X022903Y004430D03*
X022903Y004425D03*
X022903Y004420D03*
X022903Y004415D03*
X022903Y004410D03*
X022903Y004405D03*
X022903Y004400D03*
X022903Y004395D03*
X022903Y004390D03*
X022903Y004385D03*
X022903Y004380D03*
X022903Y004255D03*
X022903Y004250D03*
X022903Y004245D03*
X022903Y004240D03*
X022903Y004235D03*
X022903Y004230D03*
X022903Y004225D03*
X022903Y004220D03*
X022903Y004215D03*
X022903Y004210D03*
X022903Y004205D03*
X022903Y004200D03*
X022903Y004195D03*
X022903Y004190D03*
X022903Y004185D03*
X022903Y004180D03*
X022903Y004175D03*
X022903Y004170D03*
X022903Y004165D03*
X022903Y004160D03*
X022903Y004155D03*
X022903Y004150D03*
X022903Y004145D03*
X022903Y004140D03*
X022903Y004135D03*
X022903Y004130D03*
X022903Y004125D03*
X022903Y004120D03*
X022903Y004115D03*
X022903Y004110D03*
X022903Y004105D03*
X022903Y004100D03*
X022903Y004095D03*
X022903Y004090D03*
X022903Y004085D03*
X022903Y004080D03*
X022903Y004075D03*
X022903Y004070D03*
X022903Y004065D03*
X022903Y004060D03*
X022903Y004055D03*
X022903Y004050D03*
X022903Y004045D03*
X022903Y004040D03*
X022903Y004035D03*
X022903Y004030D03*
X022903Y004025D03*
X023113Y004255D03*
X023113Y004260D03*
X023113Y004265D03*
X023113Y004270D03*
X023258Y004260D03*
X023258Y004255D03*
X023261Y004270D03*
X023263Y004275D03*
X023258Y004095D03*
X023258Y004090D03*
X023616Y004020D03*
X023616Y004015D03*
X023973Y004105D03*
X023976Y004095D03*
X023976Y004275D03*
X023828Y004265D03*
X023826Y004270D03*
X024296Y004270D03*
X024296Y004275D03*
X024296Y004280D03*
X024296Y004285D03*
X024296Y004290D03*
X024296Y004295D03*
X024296Y004300D03*
X024296Y004305D03*
X024296Y004310D03*
X024296Y004315D03*
X024296Y004320D03*
X024296Y004325D03*
X024296Y004330D03*
X024296Y004335D03*
X024296Y004340D03*
X024296Y004345D03*
X024296Y004350D03*
X024296Y004265D03*
X024296Y004260D03*
X024296Y004255D03*
X024296Y004250D03*
X024296Y004245D03*
X024296Y004240D03*
X024296Y004235D03*
X024296Y004230D03*
X024296Y004225D03*
X024296Y004220D03*
X024296Y004215D03*
X024296Y004210D03*
X024296Y004205D03*
X024296Y004200D03*
X024296Y004195D03*
X024296Y004190D03*
X024296Y004185D03*
X024296Y004180D03*
X024296Y004175D03*
X024296Y004170D03*
X024296Y004165D03*
X024296Y004160D03*
X024296Y004155D03*
X024296Y004150D03*
X024296Y004145D03*
X024296Y004140D03*
X024296Y004135D03*
X024296Y004130D03*
X024296Y004125D03*
X024296Y004120D03*
X024296Y004115D03*
X024296Y004110D03*
X024296Y004105D03*
X024296Y004100D03*
X024296Y004095D03*
X024296Y004090D03*
X024298Y004085D03*
X024436Y004205D03*
X024436Y004210D03*
X024436Y004215D03*
X024436Y004220D03*
X024436Y004225D03*
X024436Y004230D03*
X024436Y004235D03*
X024436Y004240D03*
X024436Y004245D03*
X024436Y004250D03*
X024436Y004255D03*
X024436Y004260D03*
X024436Y004265D03*
X024436Y004270D03*
X024436Y004275D03*
X024436Y004280D03*
X024436Y004285D03*
X024436Y004290D03*
X024436Y004295D03*
X024436Y004300D03*
X024436Y004305D03*
X024436Y004310D03*
X024436Y004315D03*
X024436Y004320D03*
X024436Y004325D03*
X024436Y004330D03*
X024436Y004335D03*
X024436Y004340D03*
X024436Y004345D03*
X024436Y004350D03*
X024436Y004355D03*
X024686Y004255D03*
X024573Y004090D03*
X024896Y004175D03*
X024896Y004255D03*
X024896Y004270D03*
X024896Y004275D03*
X025043Y004265D03*
X025046Y004275D03*
X025253Y004255D03*
X025611Y004265D03*
X025613Y004120D03*
X025613Y004115D03*
X025613Y004110D03*
X025611Y004105D03*
X024186Y004500D03*
X022498Y004010D03*
X022286Y004010D03*
X022141Y004155D03*
X022028Y004410D03*
X022478Y007180D03*
D117*
X022462Y004785D03*
X023112Y004010D03*
D118*
X023341Y004010D03*
X023333Y004170D03*
X021953Y004160D03*
X024761Y004170D03*
X024856Y004215D03*
D119*
X024894Y004250D03*
X024894Y004280D03*
X024894Y004180D03*
X024689Y004275D03*
X024689Y004280D03*
X024434Y004200D03*
X024434Y004195D03*
X024434Y004190D03*
X024434Y004185D03*
X024434Y004180D03*
X024434Y004175D03*
X024434Y004165D03*
X024434Y004155D03*
X024434Y004145D03*
X024434Y004140D03*
X024434Y004125D03*
X024434Y004115D03*
X024434Y004105D03*
X024434Y004100D03*
X024434Y004095D03*
X024299Y004080D03*
X024184Y004115D03*
X024184Y004120D03*
X024184Y004125D03*
X024184Y004130D03*
X024184Y004150D03*
X024184Y004155D03*
X024184Y004170D03*
X024184Y004175D03*
X024184Y004180D03*
X024184Y004185D03*
X024184Y004190D03*
X024184Y004205D03*
X024184Y004210D03*
X024184Y004215D03*
X024184Y004220D03*
X024184Y004225D03*
X024184Y004235D03*
X024184Y004240D03*
X024184Y004250D03*
X024184Y004255D03*
X024184Y004400D03*
X024184Y004405D03*
X024184Y004410D03*
X024184Y004420D03*
X024184Y004425D03*
X024184Y004435D03*
X024184Y004440D03*
X024184Y004445D03*
X024184Y004450D03*
X024184Y004455D03*
X024184Y004460D03*
X024184Y004465D03*
X024184Y004470D03*
X024184Y004475D03*
X024184Y004495D03*
X023974Y004270D03*
X023824Y004275D03*
X023974Y004100D03*
X023469Y004010D03*
X023259Y004085D03*
X023259Y004100D03*
X023264Y004280D03*
X023109Y004280D03*
X022904Y004275D03*
X022904Y004270D03*
X022904Y004265D03*
X022904Y004260D03*
X022904Y004375D03*
X025254Y004260D03*
X025609Y004270D03*
X025609Y004100D03*
D120*
X025504Y004010D03*
X024079Y004010D03*
X024354Y004855D03*
X022944Y004965D03*
X022089Y004240D03*
X021274Y004390D03*
X024294Y007150D03*
D121*
X022019Y004220D03*
X024434Y004010D03*
D122*
X024769Y004010D03*
D123*
X024784Y004183D03*
X021959Y004168D03*
X021274Y004013D03*
X024294Y007153D03*
D124*
X023892Y005008D03*
X023722Y004333D03*
X022027Y004043D03*
X021617Y004013D03*
X025507Y004333D03*
D125*
X024757Y004028D03*
X023427Y004213D03*
X023327Y004028D03*
X022027Y004013D03*
X021652Y004393D03*
X022482Y007143D03*
D126*
X024299Y007188D03*
X024184Y004498D03*
X024184Y004493D03*
X024184Y004473D03*
X024184Y004468D03*
X024184Y004453D03*
X024184Y004443D03*
X024184Y004433D03*
X024184Y004418D03*
X024184Y004413D03*
X024184Y004403D03*
X024184Y004398D03*
X024184Y004253D03*
X024184Y004248D03*
X024184Y004243D03*
X024184Y004238D03*
X024184Y004233D03*
X024184Y004228D03*
X024184Y004223D03*
X024184Y004218D03*
X024184Y004203D03*
X024184Y004198D03*
X024184Y004193D03*
X024184Y004188D03*
X024184Y004178D03*
X024184Y004173D03*
X024184Y004168D03*
X024184Y004163D03*
X024184Y004158D03*
X024184Y004153D03*
X024184Y004143D03*
X024184Y004138D03*
X024184Y004133D03*
X024184Y004123D03*
X024184Y004118D03*
X024299Y004083D03*
X024434Y004098D03*
X024434Y004103D03*
X024434Y004108D03*
X024434Y004118D03*
X024434Y004123D03*
X024434Y004128D03*
X024434Y004133D03*
X024434Y004148D03*
X024434Y004153D03*
X024434Y004158D03*
X024434Y004178D03*
X024434Y004183D03*
X024434Y004188D03*
X024434Y004193D03*
X024434Y004198D03*
X024689Y004278D03*
X024694Y004288D03*
X024894Y004278D03*
X025049Y004283D03*
X025254Y004258D03*
X025609Y004268D03*
X023979Y004283D03*
X023974Y004273D03*
X023824Y004273D03*
X023979Y004088D03*
X023469Y004013D03*
X023259Y004088D03*
X023259Y004103D03*
X022904Y004263D03*
X022904Y004268D03*
X022904Y004273D03*
X022499Y004013D03*
D127*
X022142Y004158D03*
X022902Y004023D03*
X022902Y004018D03*
X022902Y004013D03*
X023257Y004248D03*
X023827Y004258D03*
X024297Y004358D03*
X024897Y004268D03*
X024897Y004263D03*
X024897Y004258D03*
X024897Y004168D03*
X024897Y004163D03*
X024897Y004158D03*
X024897Y004153D03*
X024897Y004148D03*
X024897Y004143D03*
X024897Y004138D03*
X024897Y004133D03*
X024897Y004128D03*
X024897Y004123D03*
X024897Y004118D03*
X024897Y004113D03*
X024897Y004108D03*
X024897Y004103D03*
X024897Y004098D03*
X024897Y004093D03*
X024897Y004088D03*
X024897Y004083D03*
X024897Y004078D03*
X024897Y004073D03*
X024897Y004068D03*
X024897Y004063D03*
X024897Y004058D03*
X024897Y004053D03*
X024897Y004048D03*
X024897Y004043D03*
X024897Y004038D03*
X024897Y004033D03*
X024897Y004028D03*
X024897Y004023D03*
X024897Y004018D03*
X025042Y004018D03*
X025042Y004023D03*
X025042Y004028D03*
X025042Y004033D03*
X025042Y004038D03*
X025042Y004043D03*
X025042Y004048D03*
X025042Y004053D03*
X025042Y004058D03*
X025042Y004063D03*
X025042Y004068D03*
X025042Y004073D03*
X025042Y004078D03*
X025042Y004083D03*
X025042Y004088D03*
X025042Y004093D03*
X025042Y004098D03*
X025042Y004103D03*
X025042Y004108D03*
X025042Y004113D03*
X025042Y004118D03*
X025042Y004123D03*
X025042Y004128D03*
X025042Y004133D03*
X025042Y004138D03*
X025042Y004143D03*
X025042Y004148D03*
X025042Y004153D03*
X025042Y004158D03*
X025042Y004163D03*
X025042Y004168D03*
X025042Y004173D03*
X025042Y004178D03*
X025042Y004183D03*
X025042Y004188D03*
X025042Y004193D03*
X025042Y004198D03*
X025042Y004203D03*
X025042Y004208D03*
X025042Y004213D03*
X025042Y004218D03*
X025042Y004223D03*
X025042Y004228D03*
X025042Y004233D03*
X025042Y004238D03*
X025042Y004243D03*
X025042Y004248D03*
X025042Y004253D03*
X025042Y004258D03*
X025042Y004013D03*
D128*
X025534Y004203D03*
X025504Y004368D03*
X025149Y004368D03*
X023339Y004013D03*
X021954Y004163D03*
X021274Y004398D03*
D129*
X022904Y004498D03*
X023114Y004248D03*
X023114Y004243D03*
X023114Y004238D03*
X023114Y004233D03*
X023114Y004228D03*
X023114Y004223D03*
X023114Y004218D03*
X023114Y004213D03*
X023114Y004208D03*
X023114Y004203D03*
X023114Y004198D03*
X023114Y004193D03*
X023114Y004188D03*
X023114Y004183D03*
X023114Y004178D03*
X023114Y004173D03*
X023114Y004168D03*
X023114Y004163D03*
X023114Y004158D03*
X023114Y004153D03*
X023114Y004148D03*
X023114Y004143D03*
X023114Y004138D03*
X023114Y004133D03*
X023114Y004128D03*
X023114Y004123D03*
X023114Y004118D03*
X023114Y004113D03*
X023114Y004108D03*
X023114Y004103D03*
X023114Y004098D03*
X023114Y004093D03*
X023114Y004088D03*
X023114Y004083D03*
X023114Y004078D03*
X023114Y004073D03*
X023114Y004068D03*
X023114Y004063D03*
X023114Y004058D03*
X023114Y004053D03*
X023114Y004048D03*
X023114Y004043D03*
X023114Y004038D03*
X023114Y004033D03*
X023114Y004028D03*
X023259Y004263D03*
X023614Y004013D03*
X024574Y004093D03*
X024574Y004098D03*
X024574Y004103D03*
X024574Y004108D03*
X024574Y004113D03*
X024574Y004118D03*
X024574Y004123D03*
X024574Y004128D03*
X024574Y004133D03*
X024574Y004138D03*
X024574Y004143D03*
X024574Y004148D03*
X024574Y004153D03*
X024574Y004158D03*
X024574Y004163D03*
X024574Y004168D03*
X024574Y004173D03*
X024574Y004178D03*
X024574Y004183D03*
X024574Y004188D03*
X024574Y004193D03*
X024574Y004198D03*
X024574Y004203D03*
X024574Y004208D03*
X024574Y004213D03*
X024574Y004218D03*
X024574Y004223D03*
X024574Y004228D03*
X024574Y004233D03*
X024574Y004238D03*
X024574Y004243D03*
X024574Y004248D03*
X024574Y004253D03*
X024574Y004258D03*
X024574Y004263D03*
X024574Y004268D03*
X024574Y004273D03*
X024574Y004278D03*
X024574Y004283D03*
X024574Y004288D03*
X024574Y004293D03*
X024574Y004298D03*
X024574Y004303D03*
X024574Y004308D03*
X024574Y004313D03*
X024574Y004318D03*
X024574Y004323D03*
X024574Y004328D03*
X024574Y004333D03*
X024574Y004338D03*
X024574Y004343D03*
X024574Y004348D03*
X024574Y004353D03*
X024574Y004358D03*
X025614Y004128D03*
D130*
X025504Y004013D03*
X024079Y004013D03*
X022404Y004388D03*
X021274Y004388D03*
D131*
X021644Y004068D03*
X024434Y004013D03*
D132*
X024744Y004045D03*
X025149Y004365D03*
X023869Y004975D03*
X023324Y004035D03*
X021274Y004015D03*
D133*
X021618Y004015D03*
X022026Y004045D03*
X021996Y004200D03*
X022926Y004990D03*
X024103Y004355D03*
X024291Y007125D03*
D134*
X022482Y007140D03*
X021962Y004170D03*
X022027Y004015D03*
X024747Y004040D03*
X024752Y004035D03*
D135*
X024569Y004070D03*
X024569Y004075D03*
X024434Y004080D03*
X024434Y004085D03*
X024174Y004080D03*
X023984Y004295D03*
X023819Y004290D03*
X023619Y004280D03*
X023469Y004270D03*
X023464Y004290D03*
X023469Y004170D03*
X023264Y004115D03*
X023264Y004075D03*
X023269Y004295D03*
X023104Y004290D03*
X022404Y004410D03*
X022289Y004015D03*
X022979Y004925D03*
X024889Y004290D03*
X025249Y004290D03*
X025249Y004285D03*
X025404Y004285D03*
X025409Y004295D03*
X025604Y004285D03*
X025609Y004255D03*
X025404Y004090D03*
D136*
X025402Y004095D03*
X025402Y004100D03*
X025402Y004120D03*
X025402Y004200D03*
X025402Y004275D03*
X025407Y004290D03*
X025252Y004280D03*
X025252Y004275D03*
X025052Y004290D03*
X024887Y004295D03*
X024892Y004245D03*
X024687Y004110D03*
X024687Y004105D03*
X024687Y004100D03*
X024687Y004095D03*
X024687Y004090D03*
X024687Y004085D03*
X024687Y004080D03*
X024302Y004070D03*
X024302Y004065D03*
X023982Y004290D03*
X024182Y004375D03*
X023622Y004290D03*
X023467Y004285D03*
X023467Y004280D03*
X023267Y004290D03*
X023107Y004285D03*
X022907Y004285D03*
X023262Y004110D03*
X022502Y004015D03*
X022137Y004150D03*
X025602Y004080D03*
D137*
X025543Y004205D03*
X025528Y004200D03*
X025561Y004215D03*
X025441Y004160D03*
X023431Y004215D03*
X023338Y004015D03*
X024296Y007155D03*
D138*
X024183Y004490D03*
X024183Y004485D03*
X024183Y004480D03*
X024183Y004430D03*
X024183Y004415D03*
X024183Y004395D03*
X024183Y004390D03*
X024183Y004385D03*
X024183Y004380D03*
X024183Y004280D03*
X024183Y004275D03*
X024183Y004270D03*
X024183Y004265D03*
X024183Y004260D03*
X024183Y004245D03*
X024183Y004230D03*
X024183Y004200D03*
X024183Y004195D03*
X024183Y004165D03*
X024183Y004160D03*
X024183Y004145D03*
X024183Y004140D03*
X024183Y004135D03*
X024183Y004110D03*
X024183Y004105D03*
X024183Y004100D03*
X024181Y004090D03*
X024178Y004085D03*
X024301Y004075D03*
X024433Y004090D03*
X024433Y004110D03*
X024433Y004120D03*
X024433Y004130D03*
X024433Y004135D03*
X024433Y004150D03*
X024433Y004160D03*
X024433Y004170D03*
X024571Y004080D03*
X024688Y004270D03*
X024696Y004290D03*
X024698Y004295D03*
X024891Y004285D03*
X025051Y004285D03*
X025253Y004270D03*
X025253Y004265D03*
X025401Y004265D03*
X025401Y004270D03*
X025401Y004260D03*
X025401Y004255D03*
X025401Y004250D03*
X025401Y004245D03*
X025401Y004240D03*
X025401Y004235D03*
X025401Y004230D03*
X025401Y004225D03*
X025401Y004220D03*
X025401Y004215D03*
X025401Y004210D03*
X025401Y004205D03*
X025403Y004280D03*
X025401Y004115D03*
X025401Y004110D03*
X025401Y004105D03*
X025603Y004085D03*
X025606Y004090D03*
X025606Y004280D03*
X023981Y004285D03*
X023971Y004250D03*
X023971Y004245D03*
X023971Y004240D03*
X023971Y004235D03*
X023971Y004230D03*
X023971Y004225D03*
X023971Y004220D03*
X023971Y004215D03*
X023971Y004210D03*
X023971Y004205D03*
X023971Y004200D03*
X023971Y004195D03*
X023971Y004190D03*
X023971Y004185D03*
X023971Y004180D03*
X023971Y004175D03*
X023971Y004170D03*
X023971Y004165D03*
X023971Y004160D03*
X023971Y004155D03*
X023971Y004150D03*
X023971Y004145D03*
X023971Y004140D03*
X023971Y004135D03*
X023971Y004130D03*
X023971Y004125D03*
X023981Y004085D03*
X023823Y004280D03*
X023821Y004285D03*
X023621Y004285D03*
X023618Y004275D03*
X023618Y004270D03*
X023618Y004265D03*
X023471Y004265D03*
X023471Y004260D03*
X023471Y004255D03*
X023468Y004275D03*
X023471Y004165D03*
X023471Y004160D03*
X023471Y004155D03*
X023471Y004150D03*
X023471Y004145D03*
X023471Y004140D03*
X023471Y004135D03*
X023471Y004130D03*
X023471Y004125D03*
X023471Y004120D03*
X023471Y004115D03*
X023471Y004110D03*
X023471Y004105D03*
X023471Y004100D03*
X023471Y004095D03*
X023471Y004090D03*
X023471Y004085D03*
X023471Y004080D03*
X023471Y004075D03*
X023471Y004070D03*
X023471Y004065D03*
X023471Y004060D03*
X023471Y004055D03*
X023471Y004050D03*
X023471Y004045D03*
X023471Y004040D03*
X023471Y004035D03*
X023471Y004030D03*
X023471Y004025D03*
X023471Y004020D03*
X023471Y004015D03*
X023261Y004080D03*
X023261Y004105D03*
X023266Y004285D03*
X022906Y004280D03*
X021651Y004410D03*
X021276Y004410D03*
D139*
X022084Y004235D03*
X024079Y004015D03*
D140*
X024434Y004015D03*
X024344Y004905D03*
X022024Y004225D03*
D141*
X023867Y004970D03*
X024767Y004015D03*
D142*
X025503Y004015D03*
X022468Y004830D03*
D143*
X022468Y004828D03*
X022028Y004388D03*
X022088Y004238D03*
X022026Y004018D03*
X021651Y004388D03*
X021276Y004018D03*
X024843Y004203D03*
D144*
X022924Y004993D03*
X022404Y004363D03*
X021619Y004018D03*
X021274Y004363D03*
D145*
X023341Y004173D03*
X023336Y004018D03*
X024763Y004018D03*
X024768Y004173D03*
X025523Y004198D03*
D146*
X025504Y004018D03*
X024079Y004018D03*
X022469Y004833D03*
D147*
X024344Y004908D03*
X024434Y004018D03*
D148*
X024793Y004355D03*
X025506Y004355D03*
X023366Y004355D03*
X022403Y004385D03*
X022028Y004385D03*
X021971Y004175D03*
X021276Y004020D03*
X021276Y004385D03*
X022483Y007135D03*
X024293Y007145D03*
D149*
X022922Y004995D03*
X021652Y004360D03*
X022027Y004050D03*
X021622Y004020D03*
D150*
X022027Y004020D03*
X021652Y004385D03*
X024352Y004860D03*
D151*
X023842Y004940D03*
X022977Y004930D03*
X023637Y004310D03*
X023802Y004315D03*
X023807Y004310D03*
X024177Y004295D03*
X024707Y004310D03*
X024697Y004125D03*
X025407Y004130D03*
X023272Y004130D03*
X023272Y004055D03*
X022912Y004300D03*
X022507Y004020D03*
X022132Y004125D03*
X021922Y004235D03*
X021922Y004265D03*
X021922Y004270D03*
D152*
X022468Y004835D03*
X023366Y004350D03*
X024078Y004020D03*
X024293Y007140D03*
D153*
X024344Y004910D03*
X024434Y004020D03*
D154*
X025459Y004175D03*
X025504Y004020D03*
X021974Y004180D03*
D155*
X021976Y004183D03*
X022403Y004383D03*
X021276Y004383D03*
X021276Y004023D03*
X023721Y004353D03*
X024833Y004198D03*
X025148Y004353D03*
X025461Y004178D03*
X023878Y004988D03*
D156*
X023896Y005018D03*
X024348Y004888D03*
X024096Y004343D03*
X022403Y004353D03*
X021626Y004023D03*
X022486Y007108D03*
D157*
X021652Y004383D03*
X022027Y004023D03*
D158*
X022129Y004113D03*
X022129Y004118D03*
X021924Y004123D03*
X021924Y004128D03*
X021924Y004228D03*
X021924Y004278D03*
X021924Y004283D03*
X022299Y004288D03*
X022509Y004288D03*
X022509Y004023D03*
X023274Y004133D03*
X023444Y004318D03*
X023999Y004318D03*
X024174Y004303D03*
X024314Y004048D03*
X025424Y004058D03*
X025589Y004313D03*
X025584Y004318D03*
X024359Y004823D03*
X021379Y004283D03*
X021379Y004278D03*
X021379Y004273D03*
X021379Y004268D03*
X021379Y004263D03*
X021379Y004258D03*
X021379Y004253D03*
X021379Y004248D03*
X021379Y004243D03*
X021379Y004238D03*
X021379Y004233D03*
X021379Y004228D03*
X021379Y004223D03*
X021379Y004218D03*
X021379Y004213D03*
X021379Y004208D03*
X021379Y004203D03*
X021379Y004198D03*
X021379Y004193D03*
X021379Y004188D03*
X021379Y004183D03*
X021379Y004178D03*
X021379Y004173D03*
X021379Y004168D03*
X021379Y004163D03*
X021379Y004158D03*
X021379Y004153D03*
X021379Y004148D03*
X021379Y004143D03*
X021379Y004138D03*
X021379Y004133D03*
X021379Y004128D03*
X021379Y004123D03*
D159*
X022096Y004248D03*
X023348Y004178D03*
X023331Y004023D03*
X024761Y004023D03*
X024776Y004178D03*
X025443Y004163D03*
X025548Y004208D03*
X025556Y004213D03*
X023868Y004973D03*
X022948Y004958D03*
D160*
X022462Y004788D03*
X023112Y004273D03*
X023617Y004258D03*
X023617Y004253D03*
X023617Y004248D03*
X023617Y004243D03*
X023617Y004238D03*
X023617Y004233D03*
X023617Y004228D03*
X023617Y004223D03*
X023617Y004218D03*
X023617Y004213D03*
X023617Y004208D03*
X023617Y004203D03*
X023617Y004198D03*
X023617Y004193D03*
X023617Y004188D03*
X023617Y004183D03*
X023617Y004178D03*
X023617Y004173D03*
X023617Y004168D03*
X023617Y004163D03*
X023617Y004158D03*
X023617Y004153D03*
X023617Y004148D03*
X023617Y004143D03*
X023617Y004138D03*
X023617Y004133D03*
X023617Y004128D03*
X023617Y004123D03*
X023617Y004118D03*
X023617Y004113D03*
X023617Y004108D03*
X023617Y004103D03*
X023617Y004098D03*
X023617Y004093D03*
X023617Y004088D03*
X023617Y004083D03*
X023617Y004078D03*
X023617Y004073D03*
X023617Y004068D03*
X023617Y004063D03*
X023617Y004058D03*
X023617Y004053D03*
X023617Y004048D03*
X023617Y004043D03*
X023617Y004038D03*
X023617Y004033D03*
X023617Y004028D03*
X023617Y004023D03*
X023972Y004108D03*
X023972Y004113D03*
X023972Y004118D03*
X023977Y004093D03*
X023972Y004253D03*
X023972Y004258D03*
X023972Y004263D03*
X024572Y004088D03*
X024687Y004258D03*
X024687Y004263D03*
X024692Y004283D03*
X025047Y004278D03*
X025607Y004278D03*
X025607Y004093D03*
D161*
X024078Y004023D03*
D162*
X024434Y004023D03*
X024344Y004913D03*
D163*
X023409Y004198D03*
X025504Y004023D03*
D164*
X022404Y004380D03*
X021274Y004025D03*
D165*
X021627Y004025D03*
X021652Y004350D03*
X022027Y004055D03*
D166*
X022027Y004025D03*
X025462Y004180D03*
X025507Y004350D03*
D167*
X025444Y004165D03*
X024759Y004025D03*
X023329Y004025D03*
D168*
X023617Y004025D03*
X023617Y004030D03*
X023617Y004035D03*
X023617Y004040D03*
X023617Y004045D03*
X023617Y004050D03*
X023617Y004055D03*
X023617Y004060D03*
X023617Y004065D03*
X023617Y004070D03*
X023617Y004075D03*
X023617Y004080D03*
X023617Y004085D03*
X023617Y004090D03*
X023617Y004095D03*
X023617Y004100D03*
X023617Y004105D03*
X023617Y004110D03*
X023617Y004115D03*
X023617Y004120D03*
X023617Y004125D03*
X023617Y004130D03*
X023617Y004135D03*
X023617Y004140D03*
X023617Y004145D03*
X023617Y004150D03*
X023617Y004155D03*
X023617Y004160D03*
X023617Y004165D03*
X023617Y004170D03*
X023617Y004175D03*
X023617Y004180D03*
X023617Y004185D03*
X023617Y004190D03*
X023617Y004195D03*
X023617Y004200D03*
X023617Y004205D03*
X023617Y004210D03*
X023617Y004215D03*
X023617Y004220D03*
X023617Y004225D03*
X023617Y004230D03*
X023617Y004235D03*
X023617Y004240D03*
X023617Y004245D03*
X023617Y004250D03*
X023617Y004255D03*
X023617Y004260D03*
X023972Y004260D03*
X023972Y004265D03*
X023972Y004255D03*
X023977Y004280D03*
X023972Y004120D03*
X023972Y004115D03*
X023972Y004110D03*
X023977Y004090D03*
X024182Y004095D03*
X024572Y004085D03*
X024687Y004260D03*
X024687Y004265D03*
X024692Y004285D03*
X025047Y004280D03*
X025607Y004275D03*
X025612Y004260D03*
X025607Y004095D03*
X023837Y004935D03*
X022902Y004485D03*
X023112Y004275D03*
D169*
X024078Y004025D03*
X024828Y004190D03*
X025503Y004025D03*
D170*
X024436Y004025D03*
D171*
X022404Y004378D03*
X021274Y004378D03*
X021274Y004028D03*
D172*
X021628Y004028D03*
X021651Y004348D03*
X022473Y004858D03*
X022996Y004333D03*
X024093Y004338D03*
D173*
X023367Y004348D03*
X022072Y004228D03*
X022027Y004028D03*
X024292Y007138D03*
D174*
X023883Y004998D03*
X024826Y004188D03*
X025503Y004028D03*
X024078Y004028D03*
X021983Y004188D03*
D175*
X024434Y004028D03*
D176*
X025504Y004030D03*
X022404Y004375D03*
X021274Y004375D03*
X021274Y004030D03*
D177*
X021629Y004030D03*
D178*
X022027Y004030D03*
X023367Y004345D03*
X024352Y004870D03*
X023882Y004995D03*
X025467Y004185D03*
D179*
X023352Y004180D03*
X023327Y004030D03*
D180*
X024078Y004030D03*
X023886Y005000D03*
D181*
X024436Y004030D03*
X024286Y007095D03*
D182*
X022948Y004960D03*
X023366Y004365D03*
X023426Y004210D03*
X023721Y004365D03*
X024756Y004030D03*
X025506Y004365D03*
X022093Y004245D03*
D183*
X021274Y004373D03*
X021274Y004033D03*
D184*
X021629Y004033D03*
X022404Y004348D03*
X024289Y007118D03*
D185*
X023367Y004343D03*
X022027Y004033D03*
D186*
X024078Y004033D03*
X025148Y004338D03*
X024291Y007133D03*
D187*
X022489Y007083D03*
X024434Y004033D03*
D188*
X024793Y004343D03*
X025471Y004188D03*
X025506Y004343D03*
X025503Y004033D03*
X024351Y004873D03*
X023721Y004343D03*
X023401Y004188D03*
X022976Y004368D03*
X022403Y004373D03*
X022471Y004843D03*
X022933Y004983D03*
X021651Y004373D03*
D189*
X021274Y004035D03*
X022929Y004985D03*
X024109Y004365D03*
D190*
X022406Y004345D03*
X022028Y004345D03*
X021651Y004345D03*
X021276Y004345D03*
X021631Y004035D03*
X022473Y004860D03*
D191*
X021987Y004190D03*
X022027Y004035D03*
X023722Y004340D03*
X024822Y004185D03*
X025507Y004340D03*
D192*
X025476Y004190D03*
X025148Y004335D03*
X024793Y004335D03*
X024078Y004035D03*
X024291Y007130D03*
D193*
X024434Y004035D03*
D194*
X024794Y004340D03*
X025149Y004340D03*
X025504Y004035D03*
X022029Y004370D03*
D195*
X022027Y004063D03*
X021632Y004038D03*
X024347Y004893D03*
D196*
X023887Y005003D03*
X023722Y004338D03*
X022027Y004038D03*
X025507Y004338D03*
D197*
X024793Y004363D03*
X023871Y004978D03*
X023366Y004363D03*
X023423Y004208D03*
X023323Y004038D03*
D198*
X023393Y004183D03*
X023366Y004333D03*
X022983Y004358D03*
X021993Y004198D03*
X024078Y004038D03*
X025148Y004333D03*
X025478Y004193D03*
X024291Y007128D03*
X022486Y007118D03*
D199*
X024434Y004038D03*
D200*
X023899Y005025D03*
X022404Y004340D03*
X021634Y004040D03*
D201*
X021992Y004195D03*
X022027Y004040D03*
X022982Y004360D03*
X023722Y004335D03*
X025507Y004335D03*
D202*
X024846Y004205D03*
X023321Y004040D03*
X022403Y004390D03*
X022028Y004390D03*
X021651Y004390D03*
D203*
X024434Y004040D03*
D204*
X024078Y004043D03*
X022986Y004353D03*
X022028Y004363D03*
X021276Y004043D03*
X024348Y004883D03*
X025506Y004043D03*
D205*
X024346Y004898D03*
X021636Y004043D03*
X021276Y004068D03*
X024288Y007113D03*
D206*
X023364Y007503D03*
X025149Y004363D03*
X025504Y004363D03*
X023319Y004043D03*
D207*
X024436Y004043D03*
X022491Y007078D03*
D208*
X022947Y004963D03*
X022467Y004823D03*
X022092Y004243D03*
X024747Y004043D03*
X025447Y004168D03*
D209*
X022029Y004360D03*
X021274Y004045D03*
D210*
X021637Y004045D03*
D211*
X021556Y004090D03*
X021363Y004085D03*
X021938Y004085D03*
X021938Y004320D03*
X021186Y004320D03*
X023286Y004140D03*
X023288Y004045D03*
X023366Y004380D03*
X023656Y004325D03*
X023788Y004325D03*
X024856Y004325D03*
X025083Y004325D03*
X025148Y004380D03*
X025216Y004325D03*
X025438Y004325D03*
X025571Y004325D03*
X022481Y007165D03*
D212*
X022484Y004330D03*
X022104Y004075D03*
X021944Y004080D03*
X021559Y004085D03*
X021944Y004325D03*
X021949Y004330D03*
X024019Y004045D03*
X024139Y004045D03*
X024434Y004050D03*
X024724Y004150D03*
X024849Y004330D03*
X025089Y004330D03*
X025564Y004330D03*
X025589Y004235D03*
D213*
X024434Y004045D03*
D214*
X023722Y004375D03*
X024357Y004835D03*
X025207Y004330D03*
X025447Y004045D03*
X022107Y004330D03*
X021197Y004075D03*
D215*
X021274Y004048D03*
X021999Y004203D03*
X022029Y004358D03*
X022989Y004348D03*
D216*
X021652Y004338D03*
X021637Y004048D03*
D217*
X021652Y004363D03*
X022027Y004048D03*
X024102Y004353D03*
D218*
X024166Y004318D03*
X024146Y004048D03*
X024013Y004048D03*
X023303Y004328D03*
X023071Y004328D03*
X022121Y004268D03*
X022118Y004318D03*
X021738Y004323D03*
X021566Y004323D03*
X021361Y004323D03*
X021366Y004088D03*
X021186Y004088D03*
X022113Y004083D03*
X025593Y004238D03*
D219*
X025574Y004223D03*
X024434Y004048D03*
X022464Y004813D03*
X021569Y004073D03*
D220*
X021549Y004108D03*
X021374Y004103D03*
X021374Y004303D03*
X021549Y004298D03*
X021749Y004303D03*
X021929Y004303D03*
X021929Y004103D03*
X021749Y004103D03*
X022124Y004098D03*
X022304Y004298D03*
X024554Y004048D03*
X025429Y004053D03*
D221*
X025597Y004243D03*
X024862Y004323D03*
X024712Y004048D03*
X023792Y004323D03*
X023282Y004138D03*
X022122Y004093D03*
X021742Y004088D03*
X021552Y004103D03*
X021372Y004308D03*
X021742Y004318D03*
D222*
X022114Y004323D03*
X022319Y004323D03*
X022489Y004323D03*
X023009Y004378D03*
X022464Y004803D03*
X023784Y004328D03*
X025439Y004048D03*
X025504Y004378D03*
X021934Y004143D03*
X021189Y004083D03*
D223*
X021274Y004050D03*
X021274Y004355D03*
X022029Y004355D03*
X022404Y004355D03*
X024289Y007120D03*
D224*
X024288Y007110D03*
X022488Y007100D03*
X021638Y004050D03*
D225*
X021932Y004095D03*
X021932Y004310D03*
X021557Y004310D03*
X021182Y004315D03*
X022312Y004315D03*
X022497Y004315D03*
X022502Y004305D03*
X023457Y004235D03*
X024007Y004050D03*
X024152Y004050D03*
X024727Y004325D03*
X024297Y007175D03*
D226*
X022994Y004338D03*
X022029Y004353D03*
X021274Y004353D03*
X021274Y004053D03*
D227*
X021638Y004053D03*
X022016Y004218D03*
D228*
X022027Y004053D03*
X021652Y004353D03*
X022992Y004343D03*
D229*
X022507Y004298D03*
X022307Y004303D03*
X022127Y004298D03*
X022127Y004293D03*
X022127Y004278D03*
X022127Y004103D03*
X021927Y004108D03*
X021927Y004298D03*
X021747Y004308D03*
X021177Y004308D03*
X021177Y004103D03*
X022462Y004798D03*
X024002Y004053D03*
X024172Y004308D03*
X024297Y007178D03*
D230*
X022462Y004793D03*
X021652Y004408D03*
X021922Y004268D03*
X021922Y004263D03*
X021922Y004238D03*
X021922Y004233D03*
X022132Y004128D03*
X022912Y004298D03*
X023097Y004308D03*
X023282Y004313D03*
X023287Y004318D03*
X023992Y004308D03*
X024562Y004053D03*
X024702Y004133D03*
X025062Y004308D03*
X025232Y004313D03*
X025422Y004313D03*
X025422Y004063D03*
X025582Y004053D03*
X024792Y004383D03*
D231*
X024093Y004335D03*
X022028Y004350D03*
X021276Y004350D03*
X021276Y004055D03*
D232*
X021639Y004055D03*
D233*
X021744Y004090D03*
X021554Y004305D03*
X021559Y004315D03*
X021744Y004315D03*
X022124Y004305D03*
X022124Y004270D03*
X022499Y004310D03*
X023009Y004380D03*
X024434Y004055D03*
X021274Y004405D03*
D234*
X021276Y004348D03*
X021276Y004058D03*
X022028Y004348D03*
X023898Y005023D03*
D235*
X021641Y004058D03*
X022488Y007098D03*
X024288Y007108D03*
D236*
X024092Y004333D03*
X022027Y004058D03*
X022007Y004208D03*
D237*
X021921Y004243D03*
X021921Y004248D03*
X021921Y004253D03*
X021921Y004258D03*
X022133Y004143D03*
X022133Y004138D03*
X022133Y004133D03*
X023008Y004383D03*
X023278Y004308D03*
X023451Y004308D03*
X023636Y004308D03*
X023721Y004383D03*
X023813Y004303D03*
X023988Y004068D03*
X024178Y004293D03*
X024706Y004308D03*
X025058Y004303D03*
X025236Y004308D03*
X025598Y004303D03*
X025591Y004063D03*
X025586Y004058D03*
X024698Y004058D03*
X024696Y004063D03*
X023271Y004058D03*
X023268Y004123D03*
X023271Y004128D03*
X022478Y007173D03*
D238*
X023271Y004298D03*
X023266Y004118D03*
X023468Y004178D03*
X023458Y004298D03*
X023628Y004298D03*
X023818Y004293D03*
X023983Y004293D03*
X023986Y004298D03*
X024181Y004288D03*
X024173Y004078D03*
X024171Y004073D03*
X024303Y004058D03*
X024436Y004073D03*
X024436Y004078D03*
X024568Y004063D03*
X024688Y004113D03*
X024691Y004118D03*
X024703Y004303D03*
X024886Y004298D03*
X024888Y004293D03*
X025053Y004298D03*
X025243Y004298D03*
X025411Y004298D03*
X025416Y004303D03*
X025403Y004198D03*
X025403Y004123D03*
X025406Y004083D03*
X025608Y004253D03*
X025603Y004293D03*
X025601Y004298D03*
X023986Y004073D03*
X023983Y004078D03*
D239*
X022027Y004065D03*
X021277Y004060D03*
D240*
X021641Y004060D03*
D241*
X022027Y004060D03*
X023897Y005020D03*
X024347Y004890D03*
X022487Y007105D03*
D242*
X022488Y007103D03*
X022473Y004863D03*
X022406Y004343D03*
X022028Y004343D03*
X022011Y004213D03*
X021651Y004343D03*
X021276Y004343D03*
X021276Y004063D03*
D243*
X021642Y004063D03*
D244*
X021276Y004065D03*
X021276Y004340D03*
X022028Y004340D03*
X024288Y007115D03*
D245*
X022488Y007095D03*
X021643Y004065D03*
D246*
X022462Y004790D03*
X023272Y004300D03*
X023267Y004120D03*
X023267Y004065D03*
X023457Y004300D03*
X023987Y004070D03*
X025237Y004305D03*
X025417Y004305D03*
X025412Y004075D03*
X025592Y004065D03*
D247*
X022027Y004068D03*
D248*
X023104Y004293D03*
X023269Y004293D03*
X023264Y004113D03*
X023264Y004073D03*
X023469Y004173D03*
X023469Y004253D03*
X023464Y004288D03*
X023619Y004283D03*
X023619Y004278D03*
X023624Y004293D03*
X023819Y004288D03*
X024434Y004088D03*
X024434Y004083D03*
X024569Y004073D03*
X024569Y004068D03*
X024689Y004073D03*
X024699Y004298D03*
X025249Y004288D03*
X025404Y004288D03*
X025604Y004288D03*
X025604Y004088D03*
X025599Y004073D03*
X025404Y004088D03*
D249*
X025428Y004150D03*
X023858Y004960D03*
X022476Y004335D03*
X022111Y004260D03*
X022098Y004335D03*
X021958Y004335D03*
X021723Y004070D03*
X021206Y004070D03*
X021203Y004335D03*
X023443Y004225D03*
X022481Y007155D03*
D250*
X024296Y007160D03*
X024356Y004845D03*
X024148Y004330D03*
X025436Y004155D03*
X021573Y004070D03*
D251*
X021562Y004083D03*
X021952Y004073D03*
X021952Y004333D03*
D252*
X021731Y004330D03*
X021353Y004330D03*
X021196Y004330D03*
X021353Y004075D03*
X021731Y004075D03*
X022326Y004330D03*
X023298Y004150D03*
X023448Y004230D03*
X023423Y004330D03*
X024078Y004375D03*
X024793Y004375D03*
X022966Y004940D03*
X022481Y007160D03*
D253*
X021722Y004335D03*
X021567Y004075D03*
X025582Y004230D03*
D254*
X023723Y004373D03*
X023366Y004373D03*
X021943Y004153D03*
X021566Y004078D03*
D255*
X021557Y004088D03*
X021737Y004083D03*
X022107Y004078D03*
X021942Y004323D03*
X021187Y004323D03*
X022967Y004938D03*
X023852Y004953D03*
X024017Y004328D03*
X023452Y004233D03*
X024717Y004143D03*
X025442Y004328D03*
D256*
X023782Y004330D03*
X023307Y004330D03*
X023067Y004330D03*
X022112Y004325D03*
X021572Y004330D03*
X021357Y004080D03*
X021192Y004080D03*
X024297Y007170D03*
D257*
X021579Y004335D03*
X021564Y004080D03*
D258*
X021553Y004100D03*
X021371Y004095D03*
X021181Y004095D03*
X021371Y004310D03*
X021368Y004315D03*
X021741Y004320D03*
X021936Y004315D03*
X022121Y004090D03*
X021741Y004085D03*
X022921Y004315D03*
X022463Y004800D03*
X022971Y004935D03*
X023848Y004950D03*
X023721Y004380D03*
X024013Y004325D03*
X024078Y004380D03*
X024168Y004315D03*
X024793Y004380D03*
X025503Y004380D03*
X025596Y004240D03*
D259*
X022492Y004320D03*
X022317Y004320D03*
X022122Y004310D03*
X022117Y004085D03*
X021932Y004140D03*
X021367Y004090D03*
D260*
X021184Y004090D03*
X021554Y004095D03*
X021934Y004090D03*
X022119Y004315D03*
X021564Y004320D03*
X021364Y004320D03*
X023074Y004325D03*
X023299Y004325D03*
X024359Y004830D03*
X024714Y004140D03*
D261*
X025079Y004323D03*
X025434Y004323D03*
X025414Y004138D03*
X024169Y004313D03*
X024359Y004828D03*
X022499Y004313D03*
X022494Y004318D03*
X021929Y004138D03*
X021559Y004313D03*
X021179Y004098D03*
X022479Y007168D03*
D262*
X024304Y007200D03*
X025629Y004145D03*
D263*
X025578Y004228D03*
X025431Y004153D03*
X023313Y004158D03*
D264*
X024356Y004843D03*
X024741Y004158D03*
X024296Y007163D03*
X022481Y007153D03*
D265*
X024747Y004163D03*
D266*
X025572Y004220D03*
X023322Y004165D03*
X022957Y004950D03*
D267*
X023871Y004980D03*
X023366Y004360D03*
X023421Y004205D03*
X024793Y004360D03*
X025451Y004170D03*
D268*
X021967Y004173D03*
X022482Y007138D03*
D269*
X024353Y004863D03*
X025456Y004173D03*
D270*
X025553Y004210D03*
X024851Y004210D03*
X024778Y004180D03*
X024773Y004175D03*
X024793Y004365D03*
X022028Y004395D03*
X021276Y004395D03*
X022481Y007145D03*
D271*
X022483Y007133D03*
X024293Y007143D03*
X024793Y004353D03*
X025506Y004353D03*
X023366Y004353D03*
X021973Y004178D03*
D272*
X022029Y004378D03*
X022469Y004838D03*
X024794Y004348D03*
X024829Y004193D03*
X025464Y004183D03*
X022484Y007128D03*
D273*
X022483Y007130D03*
X023881Y004990D03*
X025148Y004350D03*
X024831Y004195D03*
X022076Y004230D03*
X021978Y004185D03*
X022028Y004380D03*
X021276Y004380D03*
D274*
X023367Y004335D03*
X023397Y004185D03*
D275*
X023403Y004190D03*
X022973Y004370D03*
X022471Y004840D03*
X022933Y004980D03*
X021651Y004375D03*
X024793Y004345D03*
X025148Y004345D03*
X025506Y004345D03*
X024291Y007135D03*
D276*
X024349Y004878D03*
X024794Y004338D03*
X021989Y004193D03*
D277*
X022936Y004978D03*
X023881Y004993D03*
X025148Y004348D03*
X025506Y004348D03*
X023406Y004193D03*
D278*
X023407Y004195D03*
X023722Y004350D03*
X022937Y004975D03*
X021652Y004380D03*
D279*
X022938Y004970D03*
X023876Y004985D03*
X023413Y004200D03*
D280*
X023722Y004355D03*
X024837Y004200D03*
D281*
X024793Y004358D03*
X024353Y004858D03*
X023873Y004983D03*
X023366Y004358D03*
X023418Y004203D03*
X024293Y007148D03*
D282*
X022993Y004340D03*
X022003Y004205D03*
D283*
X022009Y004210D03*
D284*
X024852Y004213D03*
D285*
X022473Y004865D03*
X021651Y004340D03*
X022013Y004215D03*
D286*
X022023Y004223D03*
X022488Y007093D03*
D287*
X024357Y004838D03*
X024792Y004373D03*
X024867Y004223D03*
X022112Y004263D03*
D288*
X023366Y004375D03*
X024868Y004225D03*
X025148Y004375D03*
D289*
X023242Y004228D03*
X022992Y004908D03*
D290*
X022029Y004383D03*
X022079Y004233D03*
D291*
X023813Y004235D03*
X024591Y004380D03*
D292*
X024581Y004368D03*
X024443Y004368D03*
X024303Y004368D03*
X023251Y004238D03*
X022986Y004918D03*
X021648Y004413D03*
D293*
X024587Y004373D03*
X025242Y004238D03*
D294*
X024299Y004365D03*
X023824Y004250D03*
X023254Y004240D03*
D295*
X023819Y004240D03*
X024584Y004370D03*
D296*
X024194Y004510D03*
X025244Y004240D03*
X024299Y007195D03*
D297*
X022099Y004250D03*
D298*
X024152Y004328D03*
D299*
X024794Y004333D03*
X022404Y004368D03*
D300*
X022404Y004350D03*
X022994Y004335D03*
X024094Y004340D03*
D301*
X022029Y004338D03*
X021274Y004338D03*
D302*
X022404Y004338D03*
D303*
X023367Y004338D03*
X024112Y004368D03*
D304*
X023722Y004345D03*
X023367Y004340D03*
D305*
X022029Y004373D03*
X025149Y004343D03*
X022484Y007123D03*
D306*
X023893Y005015D03*
X022991Y004345D03*
D307*
X022472Y004855D03*
X021652Y004355D03*
X024097Y004345D03*
X022487Y007110D03*
D308*
X021652Y004378D03*
X023722Y004348D03*
D309*
X024098Y004348D03*
X022403Y004358D03*
X021273Y004358D03*
D310*
X022987Y004350D03*
X023892Y005010D03*
X022487Y007115D03*
D311*
X024349Y004885D03*
X024099Y004350D03*
X022404Y004360D03*
D312*
X024794Y004350D03*
D313*
X022984Y004355D03*
X022404Y004365D03*
X021649Y004365D03*
D314*
X025149Y004355D03*
D315*
X022472Y004853D03*
X021652Y004358D03*
X022487Y007113D03*
D316*
X022942Y004968D03*
X023722Y004358D03*
D317*
X024104Y004358D03*
D318*
X025149Y004358D03*
X025504Y004358D03*
D319*
X021273Y004360D03*
D320*
X023722Y004360D03*
D321*
X025149Y004360D03*
X025504Y004360D03*
D322*
X023722Y004363D03*
D323*
X024107Y004363D03*
X022927Y004988D03*
D324*
X023722Y004368D03*
X022027Y004398D03*
X022482Y007148D03*
D325*
X022464Y004808D03*
X023009Y004373D03*
X025504Y004373D03*
D326*
X022029Y004375D03*
X022484Y007125D03*
D327*
X022462Y004778D03*
X024312Y004378D03*
D328*
X024312Y004380D03*
D329*
X023719Y004385D03*
D330*
X022912Y004510D03*
X022477Y007185D03*
D331*
X023829Y004928D03*
X024359Y004808D03*
D332*
X022467Y004825D03*
D333*
X022472Y004850D03*
D334*
X024352Y004865D03*
D335*
X024352Y004868D03*
X022937Y004973D03*
D336*
X022474Y004870D03*
D337*
X022476Y004873D03*
D338*
X022476Y004875D03*
D339*
X022477Y004878D03*
D340*
X022477Y004880D03*
D341*
X023889Y005005D03*
X024349Y004880D03*
D342*
X022476Y004883D03*
D343*
X022478Y004885D03*
X022491Y007080D03*
X024286Y007090D03*
D344*
X024284Y007088D03*
X022479Y004888D03*
D345*
X022479Y004890D03*
D346*
X022479Y004893D03*
D347*
X022479Y004895D03*
D348*
X024347Y004895D03*
D349*
X024341Y004933D03*
X022481Y004898D03*
X022493Y007068D03*
D350*
X022493Y007065D03*
X022481Y004900D03*
D351*
X024347Y004900D03*
X023382Y007500D03*
D352*
X022482Y004903D03*
D353*
X024346Y004903D03*
D354*
X024338Y004940D03*
X022483Y004905D03*
D355*
X022483Y004908D03*
X024338Y004943D03*
D356*
X022483Y004910D03*
D357*
X022484Y004913D03*
X022494Y007053D03*
D358*
X022496Y007050D03*
X022486Y004915D03*
X024336Y004950D03*
D359*
X024344Y004915D03*
X022489Y007085D03*
D360*
X024278Y007058D03*
X022486Y004918D03*
D361*
X024343Y004918D03*
X024286Y007093D03*
D362*
X022487Y004920D03*
D363*
X023829Y004920D03*
D364*
X024343Y004920D03*
D365*
X022487Y004923D03*
X024277Y007053D03*
D366*
X024343Y004923D03*
D367*
X022488Y004925D03*
D368*
X024342Y004925D03*
D369*
X022488Y004928D03*
X023396Y007473D03*
D370*
X024342Y004928D03*
D371*
X022489Y004930D03*
X023394Y007450D03*
X023394Y007455D03*
X023394Y007460D03*
X023394Y007465D03*
D372*
X024341Y004930D03*
D373*
X022489Y004933D03*
X023394Y007438D03*
X023394Y007443D03*
D374*
X024273Y007040D03*
X022491Y004935D03*
D375*
X024339Y004935D03*
D376*
X022492Y004938D03*
X024272Y007038D03*
D377*
X024281Y007073D03*
X024338Y004938D03*
D378*
X024328Y004980D03*
X022493Y004940D03*
X022503Y007020D03*
X023393Y007390D03*
D379*
X023393Y007373D03*
X023393Y007368D03*
X023393Y007363D03*
X024328Y004983D03*
X022493Y004943D03*
D380*
X022494Y004945D03*
X023394Y007350D03*
X023394Y007355D03*
X023394Y007360D03*
D381*
X024337Y004945D03*
D382*
X022494Y004948D03*
X023394Y007338D03*
D383*
X024337Y004948D03*
D384*
X022494Y004950D03*
X022504Y007015D03*
D385*
X023393Y007313D03*
X022496Y004953D03*
D386*
X024336Y004953D03*
D387*
X024326Y004995D03*
X022496Y004955D03*
X022506Y007005D03*
X023393Y007275D03*
X023393Y007280D03*
X023393Y007285D03*
X023393Y007290D03*
X024268Y007020D03*
D388*
X024334Y004955D03*
D389*
X022497Y004958D03*
D390*
X024334Y004958D03*
D391*
X022497Y004960D03*
X023392Y007250D03*
D392*
X024334Y004960D03*
D393*
X022498Y004963D03*
X023391Y007228D03*
X023391Y007233D03*
D394*
X023396Y007478D03*
X024333Y004963D03*
D395*
X022498Y004965D03*
X023391Y007215D03*
X023391Y007220D03*
D396*
X023396Y007475D03*
X024276Y007050D03*
X024333Y004965D03*
D397*
X024319Y005008D03*
X022499Y004968D03*
X024264Y007008D03*
D398*
X024332Y004968D03*
D399*
X022501Y004970D03*
X022511Y006990D03*
X023393Y007175D03*
X023393Y007180D03*
X024263Y007005D03*
D400*
X024331Y004970D03*
D401*
X022502Y004973D03*
X024262Y007003D03*
X023392Y007148D03*
X023392Y007153D03*
X023392Y007158D03*
D402*
X023396Y007423D03*
X024331Y004973D03*
D403*
X022502Y004975D03*
X022512Y006985D03*
D404*
X023394Y007405D03*
X023394Y007410D03*
X024329Y004975D03*
D405*
X022502Y004978D03*
D406*
X024329Y004978D03*
X023394Y007393D03*
X023394Y007398D03*
D407*
X022503Y004980D03*
D408*
X022503Y004983D03*
X023391Y007103D03*
D409*
X022504Y004985D03*
D410*
X024327Y004985D03*
D411*
X022506Y004988D03*
X022513Y006973D03*
D412*
X023393Y007323D03*
X024326Y004988D03*
D413*
X022506Y004990D03*
X023393Y007085D03*
D414*
X024324Y004990D03*
D415*
X022506Y004993D03*
D416*
X024324Y004993D03*
D417*
X022506Y004995D03*
D418*
X022627Y004998D03*
X022692Y005173D03*
X024082Y005283D03*
X024092Y005268D03*
X024182Y005028D03*
X024087Y006298D03*
D419*
X024324Y004998D03*
D420*
X024093Y005265D03*
X024091Y005270D03*
X024011Y005480D03*
X024083Y005675D03*
X024078Y006305D03*
X022711Y006305D03*
X022701Y005680D03*
X022683Y005160D03*
X022681Y005155D03*
X022678Y005150D03*
X022626Y005000D03*
D421*
X024323Y005000D03*
X023393Y007245D03*
D422*
X024073Y006313D03*
X024096Y006293D03*
X024163Y005768D03*
X024098Y005253D03*
X024183Y005033D03*
X022788Y005458D03*
X022706Y005673D03*
X022676Y005143D03*
X022626Y005003D03*
D423*
X024322Y005003D03*
D424*
X024184Y005035D03*
X024099Y005250D03*
X022624Y005005D03*
X024069Y006315D03*
D425*
X024319Y005005D03*
D426*
X024106Y005238D03*
X024103Y005243D03*
X022711Y005668D03*
X022718Y006318D03*
X024068Y006318D03*
X022623Y005008D03*
D427*
X022623Y005010D03*
X022663Y005120D03*
X022786Y005475D03*
X022713Y005665D03*
X024071Y005660D03*
X024186Y005040D03*
D428*
X024319Y005010D03*
D429*
X024186Y005043D03*
X024121Y005213D03*
X024118Y005218D03*
X024116Y005223D03*
X024011Y005493D03*
X022786Y005473D03*
X022666Y005123D03*
X022623Y005013D03*
X022721Y006323D03*
D430*
X024291Y007123D03*
X023893Y005013D03*
D431*
X024319Y005013D03*
D432*
X024123Y005205D03*
X024011Y005495D03*
X024068Y005655D03*
X022786Y005480D03*
X022656Y005110D03*
X022653Y005105D03*
X022651Y005100D03*
X022623Y005015D03*
X022723Y006325D03*
D433*
X024319Y005015D03*
D434*
X024186Y005048D03*
X024126Y005203D03*
X024011Y005498D03*
X024066Y005653D03*
X022786Y005483D03*
X022658Y005113D03*
X022653Y005103D03*
X022623Y005018D03*
X022726Y006328D03*
X024061Y006328D03*
D435*
X023391Y007133D03*
X024318Y005018D03*
D436*
X024136Y005185D03*
X024011Y005500D03*
X024011Y005505D03*
X024063Y005650D03*
X022786Y005485D03*
X022638Y005735D03*
X022648Y005095D03*
X022646Y005090D03*
X022623Y005020D03*
D437*
X024317Y005020D03*
D438*
X024138Y005183D03*
X024131Y005193D03*
X024128Y005198D03*
X024011Y005503D03*
X022786Y005488D03*
X022623Y005023D03*
X022728Y006333D03*
D439*
X023389Y007098D03*
X024314Y005023D03*
D440*
X024139Y005180D03*
X022724Y005650D03*
X022624Y005025D03*
X024054Y006335D03*
D441*
X024261Y006990D03*
X022513Y006975D03*
X024313Y005025D03*
D442*
X024143Y005173D03*
X024011Y005508D03*
X024011Y005513D03*
X022726Y005648D03*
X022643Y005083D03*
X022641Y005078D03*
X022623Y005028D03*
X024051Y006338D03*
D443*
X024061Y005645D03*
X024011Y005515D03*
X024011Y005510D03*
X024143Y005170D03*
X024146Y005165D03*
X022786Y005490D03*
X022643Y005085D03*
X022641Y005080D03*
X022623Y005030D03*
D444*
X024097Y005255D03*
X024182Y005030D03*
X024092Y006295D03*
X023392Y007040D03*
D445*
X024059Y005643D03*
X024144Y005168D03*
X024189Y005058D03*
X022624Y005038D03*
X022624Y005033D03*
D446*
X022624Y005035D03*
X022639Y005075D03*
X024189Y005055D03*
D447*
X024184Y005038D03*
X024114Y005228D03*
X024109Y005233D03*
X022669Y005133D03*
D448*
X022636Y005070D03*
X022628Y005055D03*
X022626Y005050D03*
X022626Y005045D03*
X022626Y005040D03*
X022786Y005495D03*
X022731Y005640D03*
X024011Y005520D03*
X024151Y005155D03*
X024048Y006340D03*
D449*
X024046Y006343D03*
X022736Y006338D03*
X022728Y005643D03*
X022786Y005493D03*
X022633Y005068D03*
X022631Y005063D03*
X022628Y005058D03*
X022628Y005053D03*
X022626Y005048D03*
X022626Y005043D03*
X024011Y005523D03*
X024148Y005158D03*
D450*
X024122Y005210D03*
X024187Y005045D03*
X022717Y005660D03*
X024062Y006325D03*
D451*
X022727Y006330D03*
X024127Y005200D03*
X024132Y005190D03*
X024187Y005050D03*
D452*
X024189Y005053D03*
X024139Y005178D03*
X022644Y005088D03*
D453*
X022629Y005060D03*
X024154Y005150D03*
X024159Y005140D03*
X024189Y005060D03*
X024044Y006345D03*
X022739Y006340D03*
D454*
X022741Y006343D03*
X022628Y006238D03*
X022786Y005498D03*
X024011Y005528D03*
X024156Y005148D03*
X024188Y005063D03*
D455*
X024157Y005145D03*
X024012Y005525D03*
X022632Y005065D03*
X023392Y007035D03*
D456*
X022743Y006345D03*
X022786Y005500D03*
X024163Y005135D03*
X024188Y005065D03*
D457*
X024188Y005068D03*
X024188Y005073D03*
X024171Y005118D03*
X024168Y005123D03*
X022786Y005508D03*
X022626Y005738D03*
D458*
X022736Y005635D03*
X022786Y005505D03*
X024168Y005125D03*
X024188Y005070D03*
X024123Y006285D03*
X022748Y006350D03*
D459*
X024012Y005518D03*
X024147Y005163D03*
X022637Y005073D03*
D460*
X024172Y005115D03*
X024187Y005080D03*
X024187Y005075D03*
D461*
X024187Y005078D03*
X024187Y005083D03*
X024012Y005533D03*
X024187Y005773D03*
D462*
X024046Y005630D03*
X024011Y005535D03*
X024178Y005105D03*
X024181Y005100D03*
X024183Y005095D03*
X024186Y005090D03*
X024186Y005085D03*
X022786Y005515D03*
D463*
X022738Y005633D03*
X024048Y005633D03*
X024173Y005113D03*
X024176Y005108D03*
X024181Y005103D03*
X024183Y005098D03*
X024186Y005088D03*
X024036Y006353D03*
X022751Y006353D03*
D464*
X024062Y005648D03*
X022647Y005093D03*
D465*
X022784Y005513D03*
X024184Y005093D03*
D466*
X024134Y005188D03*
X022649Y005098D03*
X024109Y006288D03*
D467*
X024064Y006323D03*
X024069Y005658D03*
X022714Y005663D03*
X022654Y005108D03*
X022644Y006243D03*
D468*
X022784Y005510D03*
X024169Y005120D03*
X024174Y005110D03*
D469*
X024119Y005215D03*
X022659Y005115D03*
D470*
X022662Y005118D03*
X022787Y005478D03*
X022717Y005658D03*
X024122Y005208D03*
X023392Y007038D03*
D471*
X024067Y006320D03*
X024102Y006290D03*
X022787Y005470D03*
X022787Y005465D03*
X022667Y005125D03*
X024112Y005230D03*
X024117Y005220D03*
D472*
X024072Y005663D03*
X022787Y005468D03*
X022667Y005128D03*
D473*
X024167Y005128D03*
D474*
X024108Y005235D03*
X024106Y005240D03*
X024103Y005245D03*
X024011Y005490D03*
X022708Y005670D03*
X022671Y005135D03*
X022668Y005130D03*
X022651Y006245D03*
D475*
X024052Y005635D03*
X024012Y005530D03*
X024167Y005130D03*
D476*
X024164Y005133D03*
X022784Y005503D03*
X022744Y006348D03*
D477*
X024077Y005668D03*
X024102Y005248D03*
X022787Y005463D03*
X022672Y005138D03*
D478*
X022732Y005638D03*
X024152Y005153D03*
X024162Y005138D03*
X024042Y006348D03*
D479*
X022717Y006315D03*
X022787Y005460D03*
X022672Y005140D03*
D480*
X024054Y005638D03*
X024159Y005143D03*
D481*
X024011Y005485D03*
X022788Y005455D03*
X022703Y005675D03*
X022676Y005145D03*
X022713Y006310D03*
D482*
X022712Y006308D03*
X022702Y005678D03*
X022682Y005158D03*
X022677Y005148D03*
X024082Y005673D03*
D483*
X024009Y005483D03*
X022679Y005153D03*
D484*
X022727Y005645D03*
X024057Y005640D03*
X024147Y005160D03*
D485*
X024096Y005258D03*
X024093Y005263D03*
X024011Y005478D03*
X024086Y005678D03*
X024081Y006303D03*
X024076Y006308D03*
X022698Y005683D03*
X022788Y005453D03*
X022686Y005163D03*
X022656Y006248D03*
D486*
X022657Y005730D03*
X022697Y005685D03*
X022687Y005165D03*
X024087Y005275D03*
X024087Y005680D03*
D487*
X024089Y005683D03*
X024009Y005473D03*
X024079Y005288D03*
X024084Y005278D03*
X024089Y005273D03*
X022689Y005168D03*
X022709Y006303D03*
D488*
X022706Y006300D03*
X024091Y005685D03*
X024011Y005470D03*
X024076Y005295D03*
X024078Y005290D03*
X024081Y005285D03*
X022693Y005175D03*
X022691Y005170D03*
D489*
X024142Y005175D03*
X024177Y005770D03*
X022732Y006335D03*
X022637Y006240D03*
D490*
X022696Y005688D03*
X022696Y005183D03*
X022693Y005178D03*
X024078Y005293D03*
D491*
X024074Y005300D03*
X024009Y005465D03*
X022789Y005445D03*
X022694Y005180D03*
X022694Y005690D03*
D492*
X022697Y005185D03*
D493*
X022699Y005188D03*
X022689Y005698D03*
X024064Y005318D03*
X024069Y005308D03*
D494*
X024068Y005310D03*
X024066Y005315D03*
X024063Y005320D03*
X024071Y005305D03*
X024008Y005460D03*
X024098Y005695D03*
X024153Y005765D03*
X022788Y005435D03*
X022703Y005195D03*
X022701Y005190D03*
X022688Y005700D03*
X022666Y005725D03*
X022696Y006285D03*
X023393Y007045D03*
D495*
X022698Y006288D03*
X022788Y005438D03*
X022706Y005203D03*
X022703Y005198D03*
X022701Y005193D03*
X024061Y005323D03*
D496*
X024129Y005195D03*
X022719Y005655D03*
X024059Y006330D03*
D497*
X024059Y005325D03*
X022704Y005200D03*
D498*
X022707Y005205D03*
X022712Y005210D03*
X024007Y005455D03*
X024057Y005330D03*
D499*
X024054Y005333D03*
X024099Y005698D03*
X022709Y005208D03*
D500*
X022713Y005213D03*
X022716Y005218D03*
X022718Y005223D03*
X022788Y005433D03*
X022671Y005723D03*
X022693Y006283D03*
X024101Y005703D03*
X024051Y005343D03*
X024053Y005338D03*
D501*
X024053Y005335D03*
X024101Y005700D03*
X022788Y005430D03*
X022716Y005215D03*
X022686Y005705D03*
X022683Y005710D03*
X022691Y006280D03*
D502*
X024102Y005705D03*
X024052Y005340D03*
X022717Y005220D03*
D503*
X022719Y005225D03*
X022674Y005720D03*
X022689Y006275D03*
X024104Y005710D03*
X024049Y005345D03*
D504*
X024114Y005225D03*
X024074Y005665D03*
X022719Y006320D03*
D505*
X022689Y006278D03*
X022684Y005708D03*
X022789Y005428D03*
X022719Y005228D03*
X024049Y005348D03*
X024104Y005708D03*
D506*
X024008Y005450D03*
X024048Y005350D03*
X022791Y005425D03*
X022721Y005230D03*
X022681Y005715D03*
X022686Y006270D03*
D507*
X022686Y006268D03*
X022678Y005718D03*
X022723Y005233D03*
X024106Y005713D03*
X023393Y007048D03*
D508*
X022684Y006265D03*
X024034Y005370D03*
X024044Y005355D03*
X022724Y005235D03*
D509*
X022726Y005238D03*
X022791Y005423D03*
X024008Y005443D03*
X024033Y005373D03*
X024108Y005718D03*
D510*
X024032Y005375D03*
X022732Y005250D03*
X022727Y005240D03*
X022677Y006255D03*
D511*
X022679Y006258D03*
X024029Y005378D03*
X022729Y005243D03*
D512*
X022729Y005245D03*
X024029Y005380D03*
X024109Y005720D03*
D513*
X024111Y005723D03*
X024113Y005728D03*
X024008Y005438D03*
X024028Y005383D03*
X022733Y005253D03*
X022731Y005248D03*
D514*
X022736Y005255D03*
X022793Y005415D03*
X024008Y005440D03*
X024026Y005390D03*
X024028Y005385D03*
X024113Y005725D03*
X024141Y005760D03*
D515*
X024022Y005398D03*
X024027Y005388D03*
X022792Y005413D03*
X022737Y005258D03*
D516*
X022739Y005260D03*
X024114Y005730D03*
X023394Y007050D03*
D517*
X024074Y006310D03*
X024079Y005670D03*
X024094Y005260D03*
D518*
X024018Y005403D03*
X024011Y005418D03*
X024008Y005433D03*
X024116Y005733D03*
X022793Y005408D03*
X022746Y005273D03*
X022743Y005268D03*
X022741Y005263D03*
D519*
X022742Y005265D03*
X024007Y005435D03*
D520*
X024008Y005430D03*
X024008Y005425D03*
X024013Y005410D03*
X024023Y005395D03*
X022793Y005405D03*
X022793Y005410D03*
X022743Y005270D03*
D521*
X022747Y005275D03*
X024012Y005415D03*
X024017Y005405D03*
X024117Y005735D03*
D522*
X024137Y005758D03*
X024007Y005428D03*
X024012Y005413D03*
X022747Y005278D03*
D523*
X022748Y005280D03*
X022793Y005400D03*
X024121Y005740D03*
X024123Y005745D03*
X024128Y005750D03*
X024133Y005755D03*
D524*
X024009Y005475D03*
X024084Y005280D03*
X022789Y005450D03*
X024084Y006300D03*
D525*
X022749Y005283D03*
D526*
X022752Y005285D03*
D527*
X022753Y005288D03*
X022756Y005293D03*
X022793Y005398D03*
D528*
X022756Y005295D03*
X022753Y005290D03*
D529*
X022757Y005298D03*
X022762Y005303D03*
D530*
X022789Y005448D03*
X024009Y005468D03*
X024074Y005298D03*
X022704Y006298D03*
D531*
X022759Y005300D03*
D532*
X024067Y005313D03*
X024072Y005303D03*
X024097Y005693D03*
D533*
X022793Y005395D03*
X022768Y005315D03*
X022766Y005310D03*
X022763Y005305D03*
D534*
X022766Y005308D03*
D535*
X022767Y005313D03*
D536*
X022769Y005318D03*
X022794Y005393D03*
D537*
X022771Y005320D03*
D538*
X022773Y005323D03*
X023393Y007053D03*
D539*
X022794Y005390D03*
X022774Y005325D03*
D540*
X022776Y005328D03*
D541*
X022687Y005703D03*
X024007Y005458D03*
X024057Y005328D03*
D542*
X022796Y005385D03*
X022778Y005335D03*
X022776Y005330D03*
D543*
X022777Y005333D03*
X022782Y005343D03*
D544*
X022779Y005338D03*
X022794Y005383D03*
D545*
X022796Y005375D03*
X022783Y005345D03*
X022781Y005340D03*
D546*
X022786Y005348D03*
X022796Y005378D03*
D547*
X022792Y005360D03*
X022787Y005350D03*
D548*
X022789Y005353D03*
X022794Y005368D03*
X022794Y005373D03*
D549*
X024039Y005363D03*
X024044Y005353D03*
X022674Y006253D03*
D550*
X022791Y005355D03*
D551*
X022792Y005358D03*
D552*
X024007Y005448D03*
X024037Y005368D03*
X024042Y005358D03*
X024147Y005763D03*
X022682Y006263D03*
D553*
X022681Y006260D03*
X022791Y005420D03*
X024008Y005445D03*
X024038Y005365D03*
X024041Y005360D03*
D554*
X022793Y005363D03*
D555*
X022794Y005365D03*
X022794Y005370D03*
D556*
X022794Y005380D03*
D557*
X022794Y005388D03*
D558*
X024024Y005393D03*
D559*
X024019Y005400D03*
X024009Y005420D03*
D560*
X024126Y005748D03*
X024131Y005753D03*
X022793Y005403D03*
D561*
X024009Y005423D03*
X024014Y005408D03*
X024119Y005738D03*
D562*
X022792Y005418D03*
D563*
X022789Y005440D03*
X022664Y006250D03*
X022699Y006290D03*
D564*
X022701Y006293D03*
X022663Y005728D03*
X022693Y005693D03*
X022788Y005443D03*
X024008Y005463D03*
X024093Y005688D03*
D565*
X024007Y005453D03*
X022682Y005713D03*
X022687Y006273D03*
D566*
X022714Y006313D03*
X022649Y005733D03*
X024009Y005488D03*
D567*
X022784Y005518D03*
D568*
X022784Y005520D03*
D569*
X022783Y005523D03*
X024043Y005628D03*
D570*
X024011Y005545D03*
X022783Y005525D03*
X022746Y005625D03*
D571*
X022783Y005528D03*
X024011Y005548D03*
X024031Y006358D03*
X022758Y006358D03*
D572*
X023392Y007030D03*
X024027Y006360D03*
X024037Y005620D03*
X024012Y005550D03*
X022782Y005530D03*
D573*
X022782Y005533D03*
X024012Y005563D03*
X024032Y005618D03*
D574*
X024012Y005560D03*
X022782Y005535D03*
X024142Y006280D03*
X022762Y006365D03*
D575*
X022766Y006368D03*
X022783Y005538D03*
D576*
X024012Y005538D03*
X023392Y007033D03*
D577*
X022607Y005745D03*
X022782Y005540D03*
X024012Y005570D03*
D578*
X024011Y005540D03*
X022741Y005630D03*
X022618Y005740D03*
D579*
X022783Y005543D03*
X024026Y005613D03*
X024148Y006278D03*
D580*
X024012Y005543D03*
D581*
X024028Y005615D03*
X022783Y005545D03*
X022758Y005615D03*
D582*
X022784Y005548D03*
D583*
X022784Y005550D03*
X024024Y005610D03*
D584*
X024021Y005608D03*
X022783Y005553D03*
X022766Y005608D03*
X022761Y005613D03*
D585*
X022747Y005623D03*
X022612Y005743D03*
X024012Y005553D03*
D586*
X024019Y005605D03*
X022784Y005555D03*
D587*
X022751Y005620D03*
X024011Y005555D03*
X022613Y006235D03*
D588*
X024014Y006373D03*
X022784Y005558D03*
D589*
X024011Y005558D03*
X024198Y005778D03*
X024026Y006363D03*
X022761Y006363D03*
D590*
X022768Y005605D03*
X022783Y005560D03*
D591*
X022783Y005563D03*
X022773Y006373D03*
D592*
X024012Y006375D03*
X024012Y005580D03*
X022782Y005565D03*
D593*
X024011Y005565D03*
D594*
X022783Y005568D03*
X024158Y006273D03*
X024008Y006378D03*
D595*
X024022Y006368D03*
X023392Y007028D03*
X024012Y005568D03*
D596*
X024012Y005585D03*
X024012Y005590D03*
X024012Y005595D03*
X022782Y005570D03*
X022777Y006375D03*
D597*
X022772Y005603D03*
X022782Y005573D03*
X024012Y005588D03*
X024012Y005593D03*
D598*
X024012Y005573D03*
X022602Y005748D03*
D599*
X022777Y005600D03*
X022782Y005575D03*
X022782Y006380D03*
D600*
X022771Y006370D03*
X022763Y005610D03*
X024013Y005575D03*
D601*
X022782Y005578D03*
D602*
X024012Y005578D03*
X022602Y006233D03*
D603*
X022781Y005580D03*
X023393Y007020D03*
D604*
X024001Y006383D03*
X022778Y005598D03*
X022781Y005583D03*
D605*
X024012Y005583D03*
X024017Y005603D03*
X024212Y005783D03*
X023392Y007023D03*
D606*
X022782Y005585D03*
D607*
X022782Y005588D03*
X022787Y006383D03*
D608*
X022781Y005590D03*
D609*
X022781Y005593D03*
X022588Y006228D03*
D610*
X022779Y005595D03*
D611*
X024013Y005598D03*
D612*
X024014Y005600D03*
X022594Y005750D03*
X024004Y006380D03*
D613*
X022754Y005618D03*
D614*
X022744Y005628D03*
X024039Y005623D03*
X024134Y006283D03*
D615*
X024032Y006355D03*
X024042Y005625D03*
D616*
X022722Y005653D03*
X024057Y006333D03*
D617*
X022703Y006295D03*
X022691Y005695D03*
X024096Y005690D03*
D618*
X024107Y005715D03*
D619*
X024122Y005743D03*
D620*
X022581Y005753D03*
D621*
X022571Y005755D03*
D622*
X022563Y005758D03*
X023973Y006398D03*
X023393Y007013D03*
D623*
X023392Y007010D03*
X022557Y005760D03*
D624*
X022553Y005763D03*
X024253Y005793D03*
D625*
X022547Y005765D03*
X023392Y007005D03*
D626*
X022833Y006403D03*
X023953Y006403D03*
X022538Y005768D03*
D627*
X022524Y005770D03*
D628*
X022517Y005773D03*
X023392Y006993D03*
D629*
X024251Y006245D03*
X022511Y005775D03*
D630*
X022754Y006355D03*
X024194Y005775D03*
D631*
X024256Y006243D03*
X022506Y005778D03*
D632*
X022502Y005780D03*
D633*
X024204Y005780D03*
D634*
X024268Y006238D03*
X022493Y005783D03*
D635*
X022481Y005785D03*
D636*
X023994Y006385D03*
X024224Y005785D03*
D637*
X024363Y005903D03*
X024363Y005908D03*
X024363Y005913D03*
X024361Y006078D03*
X024361Y006083D03*
X024361Y006088D03*
X023393Y006973D03*
X022428Y006083D03*
X022428Y006078D03*
X022428Y006073D03*
X022426Y006058D03*
X022426Y006053D03*
X022426Y005928D03*
X022426Y005923D03*
X022426Y005918D03*
X022426Y005913D03*
X022426Y005908D03*
X022471Y005788D03*
D638*
X022806Y006393D03*
X024238Y005788D03*
D639*
X024354Y006115D03*
X022464Y005790D03*
X022429Y005875D03*
D640*
X024248Y005790D03*
D641*
X024354Y005853D03*
X024344Y006158D03*
X022434Y006118D03*
X022434Y005858D03*
X022459Y005793D03*
D642*
X022458Y005795D03*
X022436Y005845D03*
X022436Y005850D03*
X022438Y006135D03*
X022438Y006140D03*
X022438Y006145D03*
X022458Y006185D03*
X024351Y005840D03*
X024353Y005845D03*
X024353Y005850D03*
D643*
X024259Y005795D03*
D644*
X024339Y006168D03*
X022439Y006148D03*
X022454Y005798D03*
D645*
X024264Y005798D03*
D646*
X024338Y006170D03*
X024336Y006180D03*
X024308Y006225D03*
X022453Y006180D03*
X022438Y005830D03*
X022438Y005825D03*
X022453Y005800D03*
D647*
X024273Y005800D03*
D648*
X024338Y006173D03*
X022456Y006183D03*
X022451Y006173D03*
X022443Y006158D03*
X022441Y006153D03*
X022438Y005828D03*
X022451Y005803D03*
D649*
X024287Y005803D03*
D650*
X024334Y006185D03*
X022449Y006170D03*
X022444Y006160D03*
X022449Y005805D03*
D651*
X024298Y005805D03*
D652*
X024333Y006188D03*
X024311Y006223D03*
X022448Y005808D03*
X022446Y005813D03*
D653*
X024306Y005808D03*
D654*
X022446Y005810D03*
X022443Y005815D03*
D655*
X024311Y005810D03*
D656*
X024317Y005813D03*
D657*
X024324Y005815D03*
D658*
X024337Y006178D03*
X022452Y006178D03*
X022447Y006163D03*
X022442Y005818D03*
D659*
X022419Y005983D03*
X024334Y005818D03*
X024364Y006038D03*
X024364Y006043D03*
D660*
X024337Y006175D03*
X022452Y006175D03*
X022447Y006165D03*
X022442Y005820D03*
D661*
X022429Y006090D03*
X022429Y006095D03*
X024339Y005820D03*
X024359Y005875D03*
X024359Y005880D03*
X024359Y006090D03*
X024359Y006095D03*
D662*
X024334Y006183D03*
X022449Y006168D03*
X022439Y005823D03*
D663*
X022427Y005893D03*
X022427Y005898D03*
X022427Y005903D03*
X024342Y005823D03*
X024362Y005888D03*
X024362Y005893D03*
X024362Y005898D03*
X024357Y006103D03*
X024357Y006108D03*
D664*
X024356Y006110D03*
X024361Y005885D03*
X024358Y005870D03*
X024343Y005825D03*
X022428Y005880D03*
X022428Y005885D03*
X022431Y006100D03*
D665*
X022429Y005878D03*
X022429Y005873D03*
X024344Y005828D03*
X024354Y006118D03*
D666*
X024357Y005865D03*
X024347Y005830D03*
X022467Y006190D03*
X022432Y006105D03*
D667*
X022437Y005843D03*
X022437Y005838D03*
X022437Y005833D03*
D668*
X022433Y005863D03*
X022431Y005868D03*
X022433Y006113D03*
X022463Y006188D03*
X024346Y006153D03*
X024346Y006148D03*
X024348Y006143D03*
X024348Y006138D03*
X024351Y006133D03*
X024351Y006128D03*
X024356Y005858D03*
X024348Y005833D03*
D669*
X022437Y005835D03*
X022437Y005840D03*
X022442Y006155D03*
D670*
X022434Y006115D03*
X022434Y005860D03*
X022434Y005855D03*
X024349Y005835D03*
X024354Y005855D03*
X024344Y006155D03*
D671*
X024341Y006163D03*
X024303Y006228D03*
X024353Y005848D03*
X024353Y005843D03*
X024351Y005838D03*
X022436Y005848D03*
X022436Y005853D03*
X022438Y006138D03*
X022438Y006143D03*
D672*
X022436Y006120D03*
X022433Y006110D03*
X022431Y005870D03*
X024298Y006230D03*
X024346Y006150D03*
X024348Y006145D03*
X024348Y006140D03*
X024348Y006135D03*
X024351Y006130D03*
X024351Y006125D03*
X024353Y006120D03*
X024356Y005860D03*
D673*
X024357Y005863D03*
X024352Y006123D03*
X022432Y006108D03*
D674*
X022437Y006125D03*
X022437Y006130D03*
X022432Y005865D03*
X024342Y006160D03*
D675*
X024356Y006113D03*
X024361Y005883D03*
X024358Y005873D03*
X024358Y005868D03*
X022471Y006193D03*
X022431Y006103D03*
X022428Y005888D03*
X022428Y005883D03*
D676*
X022429Y006088D03*
X022429Y006093D03*
X022429Y006098D03*
X024359Y006098D03*
X024359Y006093D03*
X024359Y005878D03*
D677*
X024362Y005890D03*
X024362Y005895D03*
X024362Y005900D03*
X024357Y006105D03*
X022427Y005900D03*
X022427Y005895D03*
X022427Y005890D03*
D678*
X022426Y005905D03*
X022426Y005910D03*
X022426Y005915D03*
X022426Y005920D03*
X022426Y005925D03*
X022426Y006055D03*
X022428Y006075D03*
X022428Y006080D03*
X022428Y006085D03*
X024358Y006100D03*
X024361Y006085D03*
X024361Y006080D03*
X024363Y005910D03*
X024363Y005905D03*
D679*
X024364Y005915D03*
X024364Y005920D03*
X024364Y005925D03*
X024364Y005930D03*
X022474Y006195D03*
X022424Y006050D03*
X022424Y006045D03*
X022424Y006040D03*
X022424Y006035D03*
X022424Y005945D03*
X022424Y005940D03*
X022424Y005935D03*
X022424Y005930D03*
D680*
X022424Y005933D03*
X022424Y005938D03*
X022424Y005943D03*
X022424Y006033D03*
X022424Y006038D03*
X022424Y006043D03*
X022424Y006048D03*
X024364Y005928D03*
X024364Y005923D03*
X024364Y005918D03*
D681*
X024366Y005933D03*
X024366Y005938D03*
X024366Y005943D03*
X024366Y006033D03*
X024363Y006048D03*
X024363Y006053D03*
X024363Y006058D03*
X022423Y006028D03*
X022423Y006023D03*
X022423Y006018D03*
X022421Y005978D03*
X022421Y005973D03*
X022421Y005968D03*
X022421Y005963D03*
X022423Y005958D03*
X022423Y005953D03*
X022423Y005948D03*
D682*
X022423Y005950D03*
X022423Y005955D03*
X022423Y005960D03*
X022421Y005965D03*
X022421Y005970D03*
X022421Y005975D03*
X022423Y006015D03*
X022423Y006020D03*
X022423Y006025D03*
X022423Y006030D03*
X024363Y006045D03*
X024363Y006050D03*
X024363Y006055D03*
X024363Y006060D03*
X024366Y006035D03*
X024366Y006030D03*
X024366Y005945D03*
X024366Y005940D03*
X024366Y005935D03*
D683*
X024367Y005948D03*
X024367Y005953D03*
X024367Y005958D03*
X024367Y005963D03*
X024367Y006013D03*
X024367Y006018D03*
X024367Y006023D03*
X024367Y006028D03*
X022422Y006013D03*
X022422Y006008D03*
X022422Y006003D03*
D684*
X022422Y006005D03*
X022422Y006010D03*
X022422Y006000D03*
X024367Y006015D03*
X024367Y006020D03*
X024367Y006025D03*
X024367Y005960D03*
X024367Y005955D03*
X024367Y005950D03*
D685*
X024368Y005965D03*
X024368Y005970D03*
X024368Y005975D03*
X024368Y005980D03*
X024368Y005985D03*
X024368Y005990D03*
X024368Y005995D03*
X024368Y006000D03*
X024368Y006005D03*
X024368Y006010D03*
X022421Y005995D03*
X022421Y005990D03*
D686*
X022421Y005993D03*
X022421Y005998D03*
X022421Y005988D03*
X022481Y006198D03*
X024368Y006008D03*
X024368Y006003D03*
X024368Y005998D03*
X024368Y005993D03*
X024368Y005988D03*
X024368Y005983D03*
X024368Y005978D03*
X024368Y005973D03*
X024368Y005968D03*
D687*
X024364Y006040D03*
X022419Y005985D03*
X022419Y005980D03*
D688*
X022427Y006060D03*
X022427Y006065D03*
X022427Y006070D03*
X024362Y006070D03*
X024362Y006075D03*
X024362Y006065D03*
D689*
X024362Y006068D03*
X024362Y006073D03*
X024362Y006063D03*
X024292Y006233D03*
X022427Y006068D03*
X022427Y006063D03*
D690*
X022437Y006123D03*
X022437Y006128D03*
X022437Y006133D03*
D691*
X022439Y006150D03*
X024339Y006165D03*
D692*
X024332Y006190D03*
D693*
X024332Y006193D03*
X024317Y006218D03*
D694*
X024321Y006215D03*
X024328Y006200D03*
X024331Y006195D03*
D695*
X024329Y006198D03*
D696*
X022489Y006200D03*
D697*
X022502Y006203D03*
D698*
X024327Y006203D03*
D699*
X022514Y006205D03*
D700*
X024327Y006205D03*
D701*
X022522Y006208D03*
D702*
X024323Y006213D03*
X024326Y006208D03*
D703*
X022528Y006210D03*
D704*
X024324Y006210D03*
D705*
X022533Y006213D03*
D706*
X022539Y006215D03*
D707*
X022551Y006218D03*
D708*
X022566Y006220D03*
D709*
X024314Y006220D03*
D710*
X022576Y006223D03*
D711*
X022584Y006225D03*
D712*
X022594Y006230D03*
D713*
X024282Y006235D03*
D714*
X024261Y006240D03*
D715*
X024244Y006248D03*
D716*
X024237Y006250D03*
D717*
X024224Y006253D03*
D718*
X024214Y006255D03*
D719*
X024207Y006258D03*
D720*
X024201Y006260D03*
D721*
X024196Y006263D03*
D722*
X024189Y006265D03*
D723*
X024179Y006268D03*
D724*
X024167Y006270D03*
D725*
X024152Y006275D03*
D726*
X024039Y006350D03*
D727*
X022759Y006360D03*
D728*
X024024Y006365D03*
D729*
X024017Y006370D03*
X023392Y007025D03*
D730*
X022779Y006378D03*
D731*
X022792Y006385D03*
D732*
X022798Y006388D03*
X023986Y006388D03*
D733*
X022803Y006390D03*
D734*
X023982Y006390D03*
D735*
X023979Y006393D03*
D736*
X022809Y006395D03*
D737*
X023976Y006395D03*
D738*
X022812Y006398D03*
D739*
X022818Y006400D03*
X023968Y006400D03*
D740*
X022844Y006405D03*
D741*
X023936Y006405D03*
X023391Y006995D03*
D742*
X022853Y006408D03*
D743*
X023926Y006408D03*
D744*
X023393Y006410D03*
D745*
X023392Y006413D03*
D746*
X023393Y006415D03*
X023388Y006715D03*
D747*
X023393Y006418D03*
D748*
X023392Y006420D03*
D749*
X023392Y006423D03*
D750*
X023391Y006425D03*
D751*
X023392Y006428D03*
D752*
X023392Y006430D03*
D753*
X023392Y006433D03*
D754*
X023393Y006435D03*
X023388Y006700D03*
D755*
X023392Y006438D03*
D756*
X023393Y006440D03*
X023393Y006445D03*
D757*
X023393Y006443D03*
X023388Y006698D03*
D758*
X023388Y006693D03*
X023393Y006453D03*
X023393Y006448D03*
D759*
X023393Y006450D03*
X023388Y006695D03*
D760*
X023388Y006690D03*
X023393Y006455D03*
D761*
X023392Y006458D03*
X023387Y006688D03*
D762*
X023393Y006460D03*
D763*
X023393Y006463D03*
X023388Y006683D03*
D764*
X023387Y006680D03*
X023392Y006465D03*
D765*
X023393Y006468D03*
X023388Y006678D03*
D766*
X023388Y006675D03*
X023393Y006470D03*
D767*
X023393Y006473D03*
D768*
X023393Y006475D03*
X023393Y006480D03*
D769*
X023393Y006478D03*
X023388Y006673D03*
D770*
X023392Y006483D03*
D771*
X023393Y006485D03*
D772*
X023392Y006488D03*
X023387Y006668D03*
D773*
X023393Y006490D03*
D774*
X023392Y006493D03*
D775*
X023392Y006495D03*
X023387Y006660D03*
D776*
X023392Y006498D03*
D777*
X023392Y006500D03*
X023387Y006655D03*
D778*
X023393Y006503D03*
D779*
X023392Y006505D03*
D780*
X023393Y006508D03*
D781*
X023393Y006510D03*
D782*
X023393Y006513D03*
D783*
X023393Y006515D03*
D784*
X023392Y006518D03*
X023387Y006648D03*
D785*
X023393Y006520D03*
D786*
X023392Y006523D03*
X023387Y006643D03*
D787*
X023387Y006640D03*
X023392Y006525D03*
D788*
X023391Y006528D03*
X023386Y006638D03*
D789*
X023387Y006635D03*
X023392Y006530D03*
D790*
X023392Y006533D03*
D791*
X023393Y006535D03*
D792*
X023392Y006538D03*
X023387Y006628D03*
D793*
X023393Y006540D03*
D794*
X023393Y006543D03*
D795*
X023393Y006545D03*
D796*
X023393Y006548D03*
X023386Y006623D03*
D797*
X023386Y006620D03*
X023393Y006550D03*
D798*
X023392Y006553D03*
D799*
X023392Y006555D03*
D800*
X023392Y006558D03*
D801*
X023393Y006560D03*
D802*
X023392Y006563D03*
D803*
X023393Y006565D03*
D804*
X023393Y006568D03*
D805*
X023393Y006570D03*
D806*
X023392Y006573D03*
D807*
X023392Y006575D03*
D808*
X023392Y006578D03*
X023387Y006598D03*
D809*
X023392Y006580D03*
D810*
X023391Y006583D03*
X023388Y006588D03*
D811*
X023388Y006585D03*
X023386Y006595D03*
D812*
X023387Y006590D03*
D813*
X023387Y006593D03*
D814*
X023386Y006600D03*
D815*
X023387Y006603D03*
D816*
X023387Y006605D03*
D817*
X023386Y006608D03*
D818*
X023386Y006610D03*
D819*
X023386Y006613D03*
D820*
X023386Y006615D03*
D821*
X023386Y006618D03*
D822*
X023387Y006625D03*
D823*
X023387Y006630D03*
D824*
X023386Y006633D03*
D825*
X023387Y006645D03*
D826*
X023387Y006650D03*
D827*
X023387Y006653D03*
D828*
X023386Y006658D03*
D829*
X023386Y006663D03*
D830*
X023387Y006665D03*
D831*
X023387Y006670D03*
D832*
X023387Y006685D03*
D833*
X023388Y006703D03*
D834*
X023387Y006705D03*
D835*
X023388Y006708D03*
D836*
X023387Y006710D03*
D837*
X023388Y006713D03*
D838*
X023389Y006718D03*
D839*
X023389Y006720D03*
D840*
X023389Y006723D03*
D841*
X023388Y006725D03*
D842*
X023388Y006728D03*
D843*
X023387Y006730D03*
D844*
X023388Y006733D03*
D845*
X023388Y006735D03*
D846*
X023389Y006738D03*
D847*
X023389Y006740D03*
D848*
X023391Y006743D03*
D849*
X023389Y006745D03*
D850*
X023389Y006748D03*
D851*
X023388Y006750D03*
D852*
X023388Y006753D03*
D853*
X023389Y006755D03*
D854*
X023388Y006758D03*
D855*
X023389Y006760D03*
D856*
X023389Y006763D03*
D857*
X023391Y006765D03*
D858*
X023391Y006768D03*
D859*
X023389Y006770D03*
D860*
X023389Y006773D03*
D861*
X023388Y006775D03*
D862*
X023388Y006778D03*
D863*
X023388Y006780D03*
D864*
X023388Y006783D03*
D865*
X023391Y006785D03*
D866*
X023391Y006788D03*
D867*
X023391Y006790D03*
D868*
X023391Y006793D03*
D869*
X023391Y006795D03*
D870*
X023389Y006798D03*
D871*
X023389Y006800D03*
D872*
X023389Y006803D03*
D873*
X023389Y006805D03*
D874*
X023389Y006808D03*
D875*
X023391Y006810D03*
D876*
X023391Y006813D03*
D877*
X023391Y006815D03*
D878*
X023391Y006818D03*
D879*
X023391Y006820D03*
D880*
X023389Y006823D03*
D881*
X023389Y006825D03*
D882*
X023389Y006828D03*
D883*
X023389Y006830D03*
D884*
X023391Y006833D03*
D885*
X023391Y006835D03*
D886*
X023392Y006838D03*
D887*
X023392Y006840D03*
D888*
X023391Y006843D03*
D889*
X023391Y006845D03*
D890*
X023389Y006848D03*
D891*
X023391Y006850D03*
D892*
X023391Y006853D03*
D893*
X023391Y006855D03*
D894*
X023392Y006858D03*
D895*
X023392Y006860D03*
D896*
X023392Y006863D03*
D897*
X023392Y006865D03*
D898*
X023391Y006868D03*
D899*
X023391Y006870D03*
D900*
X023391Y006873D03*
X023393Y006963D03*
D901*
X023392Y006875D03*
D902*
X023392Y006878D03*
D903*
X023393Y006880D03*
D904*
X023392Y006883D03*
D905*
X023392Y006885D03*
D906*
X023392Y006888D03*
D907*
X023392Y006890D03*
D908*
X023391Y006893D03*
X023393Y006948D03*
D909*
X023391Y006895D03*
D910*
X023392Y006898D03*
D911*
X023391Y006900D03*
X023393Y006940D03*
D912*
X023392Y006903D03*
D913*
X023392Y006905D03*
D914*
X023393Y006908D03*
X023393Y006913D03*
X023393Y006933D03*
D915*
X023393Y006930D03*
X023393Y006915D03*
X023393Y006910D03*
D916*
X023394Y006918D03*
X023394Y006923D03*
X023394Y006928D03*
D917*
X023394Y006925D03*
X023394Y006920D03*
D918*
X023394Y006935D03*
D919*
X023393Y006938D03*
D920*
X023394Y006943D03*
D921*
X023394Y006945D03*
D922*
X023393Y006950D03*
D923*
X023393Y006953D03*
D924*
X023394Y006955D03*
D925*
X023394Y006958D03*
D926*
X023393Y006960D03*
D927*
X024257Y006980D03*
X022517Y006965D03*
D928*
X023688Y006965D03*
D929*
X022516Y006968D03*
D930*
X023689Y006968D03*
D931*
X022514Y006970D03*
D932*
X023692Y006970D03*
D933*
X024253Y006973D03*
D934*
X023391Y006975D03*
D935*
X024257Y006975D03*
D936*
X024261Y006993D03*
X023391Y007093D03*
X022513Y006978D03*
D937*
X023391Y006978D03*
D938*
X024257Y006978D03*
D939*
X022512Y006980D03*
D940*
X023392Y006980D03*
D941*
X023388Y007118D03*
X022513Y006983D03*
D942*
X023391Y006983D03*
D943*
X024257Y006983D03*
D944*
X023392Y006985D03*
D945*
X024258Y006985D03*
D946*
X022511Y006988D03*
D947*
X023392Y006988D03*
D948*
X024259Y006988D03*
D949*
X023392Y006990D03*
D950*
X022509Y006993D03*
D951*
X022509Y006995D03*
D952*
X023391Y007095D03*
X024261Y006995D03*
D953*
X022509Y006998D03*
D954*
X023392Y006998D03*
D955*
X024262Y006998D03*
D956*
X024266Y007015D03*
X023391Y007230D03*
X022508Y007000D03*
D957*
X023392Y007000D03*
D958*
X024262Y007000D03*
D959*
X024267Y007018D03*
X023392Y007248D03*
X023392Y007253D03*
X022507Y007003D03*
D960*
X023392Y007003D03*
D961*
X023393Y007298D03*
X023393Y007303D03*
X022506Y007008D03*
D962*
X023392Y007008D03*
D963*
X023393Y007310D03*
X022506Y007010D03*
D964*
X023391Y007210D03*
X024266Y007010D03*
D965*
X022504Y007013D03*
D966*
X023391Y007218D03*
X023391Y007223D03*
X024266Y007013D03*
D967*
X023392Y007015D03*
D968*
X024271Y007033D03*
X023393Y007343D03*
X023393Y007348D03*
X022503Y007018D03*
D969*
X023392Y007018D03*
D970*
X023393Y007403D03*
X022503Y007023D03*
D971*
X024269Y007023D03*
D972*
X022502Y007025D03*
D973*
X024269Y007025D03*
D974*
X022502Y007028D03*
D975*
X024269Y007028D03*
D976*
X022502Y007030D03*
D977*
X023393Y007330D03*
X023393Y007335D03*
X024271Y007030D03*
D978*
X023396Y007448D03*
X022501Y007033D03*
D979*
X022499Y007035D03*
X023394Y007470D03*
D980*
X024272Y007035D03*
D981*
X022499Y007038D03*
D982*
X022498Y007040D03*
X023396Y007480D03*
D983*
X023396Y007483D03*
X022498Y007043D03*
D984*
X023392Y007043D03*
D985*
X023394Y007428D03*
X024274Y007043D03*
D986*
X022498Y007045D03*
D987*
X023394Y007435D03*
X023394Y007440D03*
X023394Y007445D03*
X024274Y007045D03*
D988*
X022497Y007048D03*
D989*
X023394Y007453D03*
X023394Y007458D03*
X023394Y007463D03*
X024274Y007048D03*
D990*
X022496Y007055D03*
D991*
X023393Y007055D03*
D992*
X024278Y007055D03*
D993*
X022494Y007058D03*
D994*
X023392Y007058D03*
D995*
X022493Y007060D03*
D996*
X023393Y007060D03*
D997*
X024278Y007060D03*
D998*
X022493Y007063D03*
D999*
X023393Y007063D03*
D1000*
X024278Y007063D03*
X023396Y007488D03*
D1001*
X023393Y007065D03*
D1002*
X024279Y007065D03*
D1003*
X023392Y007068D03*
D1004*
X024281Y007068D03*
D1005*
X022492Y007070D03*
D1006*
X023394Y007070D03*
D1007*
X024282Y007070D03*
D1008*
X022492Y007073D03*
D1009*
X023394Y007073D03*
D1010*
X022492Y007075D03*
D1011*
X023394Y007075D03*
D1012*
X024282Y007075D03*
D1013*
X023394Y007078D03*
D1014*
X024282Y007078D03*
D1015*
X023394Y007080D03*
D1016*
X024283Y007080D03*
D1017*
X023393Y007083D03*
D1018*
X024283Y007083D03*
D1019*
X024284Y007085D03*
D1020*
X022489Y007088D03*
D1021*
X023392Y007088D03*
D1022*
X022488Y007090D03*
D1023*
X023392Y007090D03*
D1024*
X024286Y007098D03*
D1025*
X023391Y007100D03*
X023391Y007105D03*
D1026*
X024286Y007100D03*
D1027*
X024287Y007103D03*
D1028*
X024287Y007105D03*
D1029*
X023389Y007108D03*
X023389Y007113D03*
D1030*
X023389Y007115D03*
X023389Y007110D03*
D1031*
X023389Y007120D03*
X023389Y007125D03*
X023389Y007130D03*
D1032*
X023389Y007128D03*
X023389Y007123D03*
D1033*
X023389Y007135D03*
D1034*
X023389Y007138D03*
D1035*
X023391Y007140D03*
X023391Y007145D03*
D1036*
X023391Y007143D03*
D1037*
X022482Y007150D03*
D1038*
X023392Y007150D03*
X023392Y007155D03*
D1039*
X023392Y007160D03*
X023392Y007165D03*
X023392Y007170D03*
D1040*
X023392Y007173D03*
X023392Y007168D03*
X023392Y007163D03*
D1041*
X023393Y007178D03*
D1042*
X023392Y007183D03*
X023392Y007188D03*
X023392Y007193D03*
D1043*
X023392Y007195D03*
X023392Y007190D03*
X023392Y007185D03*
D1044*
X023391Y007198D03*
D1045*
X023392Y007200D03*
X023392Y007205D03*
D1046*
X023392Y007203D03*
D1047*
X023391Y007208D03*
X023391Y007213D03*
D1048*
X023392Y007225D03*
D1049*
X023392Y007235D03*
X023392Y007240D03*
D1050*
X023392Y007238D03*
D1051*
X023393Y007243D03*
D1052*
X023393Y007255D03*
X023393Y007260D03*
X023393Y007265D03*
X023393Y007270D03*
D1053*
X023393Y007273D03*
X023393Y007268D03*
X023393Y007263D03*
X023393Y007258D03*
D1054*
X023393Y007278D03*
X023393Y007283D03*
X023393Y007288D03*
D1055*
X023392Y007293D03*
D1056*
X023392Y007295D03*
D1057*
X023393Y007300D03*
D1058*
X023392Y007305D03*
D1059*
X023392Y007308D03*
D1060*
X023392Y007315D03*
D1061*
X023392Y007318D03*
D1062*
X023393Y007320D03*
D1063*
X023392Y007325D03*
D1064*
X023393Y007328D03*
X023393Y007333D03*
D1065*
X023393Y007340D03*
X023393Y007345D03*
D1066*
X023394Y007353D03*
X023394Y007358D03*
D1067*
X023393Y007365D03*
X023393Y007370D03*
D1068*
X023394Y007375D03*
X023394Y007380D03*
X023394Y007385D03*
D1069*
X023394Y007383D03*
X023394Y007378D03*
D1070*
X023393Y007388D03*
D1071*
X023394Y007395D03*
X023394Y007400D03*
D1072*
X023394Y007408D03*
D1073*
X023396Y007413D03*
D1074*
X023394Y007415D03*
X023394Y007420D03*
D1075*
X023394Y007418D03*
D1076*
X023394Y007425D03*
X023394Y007430D03*
D1077*
X023396Y007433D03*
D1078*
X023394Y007468D03*
D1079*
X023394Y007485D03*
D1080*
X023397Y007490D03*
D1081*
X023397Y007493D03*
D1082*
X023398Y007495D03*
D1083*
X023394Y007498D03*
M02*
